<svg viewBox="0 0 330 200" xmlns="http://www.w3.org/2000/svg"><g><g><g><g><g><line x1="37" y1="177" x2="32" y2="177" style="visibility: inherit;" fill="rgb(0, 0, 0)" stroke="rgb(204, 204, 204)" stroke-width="1px"></line><line x1="37" y1="164.35714285714286" x2="32" y2="164.35714285714286" style="visibility: inherit;" fill="rgb(0, 0, 0)" stroke="rgb(204, 204, 204)" stroke-width="1px"></line><line x1="37" y1="151.71428571428572" x2="32" y2="151.71428571428572" style="visibility: inherit;" fill="rgb(0, 0, 0)" stroke="rgb(204, 204, 204)" stroke-width="1px"></line><line x1="37" y1="139.07142857142858" x2="32" y2="139.07142857142858" style="visibility: inherit;" fill="rgb(0, 0, 0)" stroke="rgb(204, 204, 204)" stroke-width="1px"></line><line x1="37" y1="126.42857142857143" x2="32" y2="126.42857142857143" style="visibility: inherit;" fill="rgb(0, 0, 0)" stroke="rgb(204, 204, 204)" stroke-width="1px"></line><line x1="37" y1="113.78571428571428" x2="32" y2="113.78571428571428" style="visibility: inherit;" fill="rgb(0, 0, 0)" stroke="rgb(204, 204, 204)" stroke-width="1px"></line><line x1="37" y1="101.14285714285715" x2="32" y2="101.14285714285715" style="visibility: inherit;" fill="rgb(0, 0, 0)" stroke="rgb(204, 204, 204)" stroke-width="1px"></line><line x1="37" y1="88.5" x2="32" y2="88.5" style="visibility: inherit;" fill="rgb(0, 0, 0)" stroke="rgb(204, 204, 204)" stroke-width="1px"></line><line x1="37" y1="75.85714285714286" x2="32" y2="75.85714285714286" style="visibility: inherit;" fill="rgb(0, 0, 0)" stroke="rgb(204, 204, 204)" stroke-width="1px"></line><line x1="37" y1="63.21428571428571" x2="32" y2="63.21428571428571" style="visibility: inherit;" fill="rgb(0, 0, 0)" stroke="rgb(204, 204, 204)" stroke-width="1px"></line><line x1="37" y1="50.57142857142857" x2="32" y2="50.57142857142857" style="visibility: inherit;" fill="rgb(0, 0, 0)" stroke="rgb(204, 204, 204)" stroke-width="1px"></line><line x1="37" y1="37.928571428571445" x2="32" y2="37.928571428571445" style="visibility: inherit;" fill="rgb(0, 0, 0)" stroke="rgb(204, 204, 204)" stroke-width="1px"></line><line x1="37" y1="25.285714285714306" x2="32" y2="25.285714285714306" style="visibility: inherit;" fill="rgb(0, 0, 0)" stroke="rgb(204, 204, 204)" stroke-width="1px"></line><line x1="37" y1="12.642857142857139" x2="32" y2="12.642857142857139" style="visibility: inherit;" fill="rgb(0, 0, 0)" stroke="rgb(204, 204, 204)" stroke-width="1px"></line><line x1="37" y1="0" x2="32" y2="0" style="visibility: inherit;" fill="rgb(0, 0, 0)" stroke="rgb(204, 204, 204)" stroke-width="1px"></line></g><g transform="translate(27, 0)"><text x="0" y="177" dx="0em" dy="0.3em" style="text-anchor: end; visibility: hidden; font-family: &quot;Helvetica Neue&quot;, sans-serif; font-size: 12px; font-weight: 200;" fill="rgb(50, 49, 63)" stroke="none" stroke-width="1px">-20</text><text x="0" y="164.35714285714286" dx="0em" dy="0.3em" style="text-anchor: end; visibility: inherit; font-family: &quot;Helvetica Neue&quot;, sans-serif; font-size: 12px; font-weight: 200;" fill="rgb(50, 49, 63)" stroke="none" stroke-width="1px">-10</text><text x="0" y="151.71428571428572" dx="0em" dy="0.3em" style="text-anchor: end; visibility: hidden; font-family: &quot;Helvetica Neue&quot;, sans-serif; font-size: 12px; font-weight: 200;" fill="rgb(50, 49, 63)" stroke="none" stroke-width="1px">0</text><text x="0" y="139.07142857142858" dx="0em" dy="0.3em" style="text-anchor: end; visibility: inherit; font-family: &quot;Helvetica Neue&quot;, sans-serif; font-size: 12px; font-weight: 200;" fill="rgb(50, 49, 63)" stroke="none" stroke-width="1px">10</text><text x="0" y="126.42857142857143" dx="0em" dy="0.3em" style="text-anchor: end; visibility: hidden; font-family: &quot;Helvetica Neue&quot;, sans-serif; font-size: 12px; font-weight: 200;" fill="rgb(50, 49, 63)" stroke="none" stroke-width="1px">20</text><text x="0" y="113.78571428571428" dx="0em" dy="0.3em" style="text-anchor: end; visibility: inherit; font-family: &quot;Helvetica Neue&quot;, sans-serif; font-size: 12px; font-weight: 200;" fill="rgb(50, 49, 63)" stroke="none" stroke-width="1px">30</text><text x="0" y="101.14285714285715" dx="0em" dy="0.3em" style="text-anchor: end; visibility: hidden; font-family: &quot;Helvetica Neue&quot;, sans-serif; font-size: 12px; font-weight: 200;" fill="rgb(50, 49, 63)" stroke="none" stroke-width="1px">40</text><text x="0" y="88.5" dx="0em" dy="0.3em" style="text-anchor: end; visibility: inherit; font-family: &quot;Helvetica Neue&quot;, sans-serif; font-size: 12px; font-weight: 200;" fill="rgb(50, 49, 63)" stroke="none" stroke-width="1px">50</text><text x="0" y="75.85714285714286" dx="0em" dy="0.3em" style="text-anchor: end; visibility: hidden; font-family: &quot;Helvetica Neue&quot;, sans-serif; font-size: 12px; font-weight: 200;" fill="rgb(50, 49, 63)" stroke="none" stroke-width="1px">60</text><text x="0" y="63.21428571428571" dx="0em" dy="0.3em" style="text-anchor: end; visibility: inherit; font-family: &quot;Helvetica Neue&quot;, sans-serif; font-size: 12px; font-weight: 200;" fill="rgb(50, 49, 63)" stroke="none" stroke-width="1px">70</text><text x="0" y="50.57142857142857" dx="0em" dy="0.3em" style="text-anchor: end; visibility: hidden; font-family: &quot;Helvetica Neue&quot;, sans-serif; font-size: 12px; font-weight: 200;" fill="rgb(50, 49, 63)" stroke="none" stroke-width="1px">80</text><text x="0" y="37.928571428571445" dx="0em" dy="0.3em" style="text-anchor: end; visibility: inherit; font-family: &quot;Helvetica Neue&quot;, sans-serif; font-size: 12px; font-weight: 200;" fill="rgb(50, 49, 63)" stroke="none" stroke-width="1px">90</text><text x="0" y="25.285714285714306" dx="0em" dy="0.3em" style="text-anchor: end; visibility: hidden; font-family: &quot;Helvetica Neue&quot;, sans-serif; font-size: 12px; font-weight: 200;" fill="rgb(50, 49, 63)" stroke="none" stroke-width="1px">100</text><text x="0" y="12.642857142857139" dx="0em" dy="0.3em" style="text-anchor: end; visibility: inherit; font-family: &quot;Helvetica Neue&quot;, sans-serif; font-size: 12px; font-weight: 200;" fill="rgb(50, 49, 63)" stroke="none" stroke-width="1px">110</text><text x="0" y="0" dx="0em" dy="0.3em" style="text-anchor: end; visibility: hidden; font-family: &quot;Helvetica Neue&quot;, sans-serif; font-size: 12px; font-weight: 200;" fill="rgb(50, 49, 63)" stroke="none" stroke-width="1px">120</text></g><line x1="37" y1="0" x2="37" y2="177" fill="rgb(0, 0, 0)" stroke="rgb(204, 204, 204)" stroke-width="1px"></line></g></g><g transform="translate(37, 0)" clip-path="url(#clip_0)"><clipPath id="clip_0"><rect width="293" height="177"></rect></clipPath><g><g><g><line x1="0" y1="0" x2="0" y2="177" fill="rgb(0, 0, 0)" stroke="rgb(60, 60, 60)" stroke-width="1px" opacity="0.25"></line><line x1="24.416666666666664" y1="0" x2="24.416666666666664" y2="177" fill="rgb(0, 0, 0)" stroke="rgb(60, 60, 60)" stroke-width="1px" opacity="0.25"></line><line x1="48.83333333333333" y1="0" x2="48.83333333333333" y2="177" fill="rgb(0, 0, 0)" stroke="rgb(60, 60, 60)" stroke-width="1px" opacity="0.25"></line><line x1="73.25" y1="0" x2="73.25" y2="177" fill="rgb(0, 0, 0)" stroke="rgb(60, 60, 60)" stroke-width="1px" opacity="0.25"></line><line x1="97.66666666666666" y1="0" x2="97.66666666666666" y2="177" fill="rgb(0, 0, 0)" stroke="rgb(60, 60, 60)" stroke-width="1px" opacity="0.25"></line><line x1="122.08333333333334" y1="0" x2="122.08333333333334" y2="177" fill="rgb(0, 0, 0)" stroke="rgb(60, 60, 60)" stroke-width="1px" opacity="0.25"></line><line x1="146.5" y1="0" x2="146.5" y2="177" fill="rgb(0, 0, 0)" stroke="rgb(60, 60, 60)" stroke-width="1px" opacity="0.25"></line><line x1="170.91666666666669" y1="0" x2="170.91666666666669" y2="177" fill="rgb(0, 0, 0)" stroke="rgb(60, 60, 60)" stroke-width="1px" opacity="0.25"></line><line x1="195.33333333333331" y1="0" x2="195.33333333333331" y2="177" fill="rgb(0, 0, 0)" stroke="rgb(60, 60, 60)" stroke-width="1px" opacity="0.25"></line><line x1="219.75" y1="0" x2="219.75" y2="177" fill="rgb(0, 0, 0)" stroke="rgb(60, 60, 60)" stroke-width="1px" opacity="0.25"></line><line x1="244.16666666666669" y1="0" x2="244.16666666666669" y2="177" fill="rgb(0, 0, 0)" stroke="rgb(60, 60, 60)" stroke-width="1px" opacity="0.25"></line><line x1="268.5833333333333" y1="0" x2="268.5833333333333" y2="177" fill="rgb(0, 0, 0)" stroke="rgb(60, 60, 60)" stroke-width="1px" opacity="0.25"></line><line x1="293" y1="0" x2="293" y2="177" fill="rgb(0, 0, 0)" stroke="rgb(60, 60, 60)" stroke-width="1px" opacity="0.25"></line></g><g><line x1="0" y1="177" x2="293" y2="177" fill="rgb(0, 0, 0)" stroke="rgb(60, 60, 60)" stroke-width="1px" opacity="0.25"></line><line x1="0" y1="164.35714285714286" x2="293" y2="164.35714285714286" fill="rgb(0, 0, 0)" stroke="rgb(60, 60, 60)" stroke-width="1px" opacity="0.25"></line><line x1="0" y1="151.71428571428572" x2="293" y2="151.71428571428572" fill="rgb(0, 0, 0)" stroke="rgb(60, 60, 60)" stroke-width="1px" opacity="0.25"></line><line x1="0" y1="139.07142857142858" x2="293" y2="139.07142857142858" fill="rgb(0, 0, 0)" stroke="rgb(60, 60, 60)" stroke-width="1px" opacity="0.25"></line><line x1="0" y1="126.42857142857143" x2="293" y2="126.42857142857143" fill="rgb(0, 0, 0)" stroke="rgb(60, 60, 60)" stroke-width="1px" opacity="0.25"></line><line x1="0" y1="113.78571428571428" x2="293" y2="113.78571428571428" fill="rgb(0, 0, 0)" stroke="rgb(60, 60, 60)" stroke-width="1px" opacity="0.25"></line><line x1="0" y1="101.14285714285715" x2="293" y2="101.14285714285715" fill="rgb(0, 0, 0)" stroke="rgb(60, 60, 60)" stroke-width="1px" opacity="0.25"></line><line x1="0" y1="88.5" x2="293" y2="88.5" fill="rgb(0, 0, 0)" stroke="rgb(60, 60, 60)" stroke-width="1px" opacity="0.25"></line><line x1="0" y1="75.85714285714286" x2="293" y2="75.85714285714286" fill="rgb(0, 0, 0)" stroke="rgb(60, 60, 60)" stroke-width="1px" opacity="0.25"></line><line x1="0" y1="63.21428571428571" x2="293" y2="63.21428571428571" fill="rgb(0, 0, 0)" stroke="rgb(60, 60, 60)" stroke-width="1px" opacity="0.25"></line><line x1="0" y1="50.57142857142857" x2="293" y2="50.57142857142857" fill="rgb(0, 0, 0)" stroke="rgb(60, 60, 60)" stroke-width="1px" opacity="0.25"></line><line x1="0" y1="37.928571428571445" x2="293" y2="37.928571428571445" fill="rgb(0, 0, 0)" stroke="rgb(60, 60, 60)" stroke-width="1px" opacity="0.25"></line><line x1="0" y1="25.285714285714306" x2="293" y2="25.285714285714306" fill="rgb(0, 0, 0)" stroke="rgb(60, 60, 60)" stroke-width="1px" opacity="0.25"></line><line x1="0" y1="12.642857142857139" x2="293" y2="12.642857142857139" fill="rgb(0, 0, 0)" stroke="rgb(60, 60, 60)" stroke-width="1px" opacity="0.25"></line><line x1="0" y1="0" x2="293" y2="0" fill="rgb(0, 0, 0)" stroke="rgb(60, 60, 60)" stroke-width="1px" opacity="0.25"></line></g></g></g><g><g><line x1="0" y1="151.71428571428572" x2="293" y2="151.71428571428572" fill="rgb(0, 0, 0)" stroke="rgb(153, 153, 153)" stroke-width="1.5px"></line></g></g><g><g><line x1="24.416666666666664" y1="0" x2="24.416666666666664" y2="177" fill="rgb(0, 0, 0)" stroke="rgb(153, 153, 153)" stroke-width="1.5px"></line></g></g><g><g><g><g><g><path stroke="rgb(255, 112, 67)" stroke-width="2px" d="M24.653264166666666,97.34686995915004L24.888640833333334,111.6367060548057L25.1240175,124.69209740150129L25.359394166666664,120.24552742800769L25.59477083333333,122.43989425471719L25.8301475,116.56962226029947L26.065524166666666,96.9046862647703L26.300900833333333,97.52326470801272L26.536277499999997,102.86232485053469L26.771654166666668,114.49071944676801L27.007030833333335,123.89548022211072L27.242407500000002,119.18044739044518L27.477784166666666,117.57001374105494L27.713160833333333,115.73303978060986L27.9485375,115.3592934158702L28.183914166666668,121.13993709754263L28.419290833333335,113.65536779237976L28.6546675,110.9599789869592L28.890044166666666,106.0427500854378L29.125420833333333,96.08346783270636L29.3607975,90.51238232440404L29.596174166666664,93.29095633946503L29.83155083333333,101.0893523800187L30.0669275,94.49497197723065L30.30230416666667,88.28580977444967L30.537680833333336,69.58961422951332L30.7730575,81.09591814930803L31.008434166666667,80.63549205883352L31.243810833333335,83.8446233983488L31.479187500000002,94.16434046851954L31.714564166666666,97.19687614716379L31.949940833333333,106.44253606241769L32.185317500000004,96.51740269963335L32.42069416666667,114.65461296098604L32.65607083333334,108.22297621361895L32.8914475,106.2327036073673L33.126824166666665,108.38379935276446L33.36220083333333,112.65562164705814L33.5975775,115.48575881358087L33.83295416666667,114.35749911154427L34.068330833333334,127.19742215804844L34.53908416666667,127.46905699301453L34.77446083333333,117.82608189342082L35.009837499999996,103.58243775601268L35.24521416666666,105.3009510974727L35.48059083333333,97.02021551251329L35.715967500000005,91.70002880898743L35.951344166666665,85.10018798519486L36.18672083333333,80.88828168092492L36.4220975,95.04051089234297L36.65747416666667,87.24146655962903L36.892850833333334,85.22239748479507L37.1282275,92.51598041030066L37.36360416666667,89.72771933712033L37.59898083333333,95.63457027317185L37.8343575,95.88468955688775L38.06973416666666,96.30874284828617L38.30511083333334,87.55194826789457L38.5404875,85.34886366405095L38.775864166666665,91.4979539161138L39.01124083333334,97.80236295706379L39.2466175,89.63385980806581L39.48199416666666,97.67891790002629L39.717370833333334,111.16991365676785L39.9527475,114.78029467030552L40.18812416666667,109.81363664853323L40.423500833333335,116.7888184465956L40.658877499999996,112.47613471528685L40.89425416666667,107.7953637061376L41.12963083333333,95.58983304978419L41.365007500000004,101.9816857498245L41.600384166666664,89.14145592330433L41.83576083333333,88.92121608385419L42.0711375,89.17776824960805L42.306514166666666,82.13838491696838L42.54189083333334,86.25610638515629L42.7772675,93.20788491674406L43.01264416666666,105.71188088651455L43.248020833333335,105.456601259171L43.4833975,101.91265653819309L43.71877416666666,98.29481064073407L43.95415083333334,107.17251115695039L44.1895275,104.40994989179423L44.42490416666667,88.3530036634649L44.66028083333333,89.87203540457682L44.8956575,91.14215677906031L45.131034166666666,102.60976995424966L45.36641083333333,109.70122754242875L45.6017875,110.00886258322409L45.83716416666667,108.69236497461436L46.07254083333333,107.44519688875609L46.3079175,115.5029070789403L46.54329416666666,112.957835035408L46.77867083333334,110.50112279987422L47.014047500000004,103.93097351774819L47.249424166666664,98.71131023291724L47.48480083333334,97.15233100716952L47.7201775,101.34617293934997L47.955554166666666,117.56539912258685L48.19093083333333,104.11319971829677L48.4263075,102.80775317738328L48.66168416666667,96.73308130867314L48.897060833333335,96.70427265690576L49.132437499999995,98.10161776806325L49.36781416666667,110.14643141116726L49.60319083333333,104.71455591922353L49.8385675,107.88473135900598L50.07394416666667,102.62323242965356L50.30932083333333,89.0199893821829L50.544697500000005,88.87327302240952L50.780074166666665,94.61283187883744L51.01545083333333,100.24286703720766L51.2508275,90.00016243476875L51.48620416666667,95.12768271724487L51.721580833333334,95.00206213870459L51.9569575,101.72165528873617L52.19233416666666,97.78296326257342L52.427710833333336,82.78312102255069L52.663087499999996,95.23257933441714L52.89846416666667,97.5290032353709L53.13384083333333,96.12162788472573L53.3692175,110.4161586401185L53.60459416666667,104.94953347035279L53.83997083333333,90.98307022502408L54.07534750000001,92.37301304633957L54.31072416666667,87.18749400216825L54.546100833333334,76.13935712105577L54.7814775,70.52189530569687L55.01685416666667,59.53153344308946L55.25223083333333,63.47888353643266L55.4876075,60.76574618501863L55.72298416666666,61.672410083125484L55.95836083333334,77.58338343919945L56.1937375,78.88782060758264L56.429114166666665,89.39693193355895L56.66449083333333,87.0404953736081L56.8998675,67.85894316362236L57.13524416666667,71.71422606696153L57.370620833333334,75.42363508541148L57.605997499999994,70.07317087485998L57.84137416666667,72.47175119339269L58.076750833333335,92.46665161441486L58.3121275,90.13792286362695L58.54750416666667,83.29545718622009L58.78288083333333,79.09323027596888L59.018257500000004,70.46833540533979L59.253634166666664,72.21993500421686L59.48901083333333,61.619405097342266L59.7243875,53.57634770630436L59.959764166666666,61.87828751712313L60.19514083333333,63.2739183760212L60.66589416666666,69.98200686181657L60.901270833333335,69.89691767520485L61.1366475,72.4596563710708L61.37202416666667,75.4546160594338L61.60740083333334,65.392052538165L61.8427775,66.56020809773528L62.07815416666667,68.3983004984534L62.31353083333333,69.23530664427813L62.5489075,60.70055424243617L62.784284166666666,74.03614961675417L63.01966083333333,67.1371032059375L63.2550375,53.47398953498613L63.49041416666667,54.40537664058493L63.72579083333333,55.60147102999065L63.9611675,59.74162896847791L64.19654416666667,61.8841651674132L64.43192083333334,55.60057174826824L64.6672975,60.69209174747277L64.90267416666666,59.69158911656443L65.13805083333334,56.8035313953191L65.3734275,66.96133374596553L65.60880416666667,68.59748522708405L65.84418083333334,79.9057984113658L66.07955749999999,78.08437148318738L66.31493416666667,74.96183361095412L66.55031083333333,67.65779487430461L66.7856875,72.06612661493969L67.02106416666666,64.54838572938209L67.25644083333333,62.45169139335158L67.4918175,58.01588151409622L67.72719416666666,53.97169477058209L67.96257083333333,70.42148002798919L68.1979475,75.17007853007306L68.43332416666667,73.05775288488447L68.66870083333333,72.49970964803357L68.9040775,68.29060891244094L69.13945416666667,62.525106434561735L69.37483083333333,69.67262312396443L69.6102075,65.18782666717716L69.84558416666667,63.87743844732178L70.08096083333334,69.9655195402017L70.3163375,66.6406231411969L70.78709083333334,65.24357140175617L71.02246749999999,60.33997005938062L71.25784416666667,60.655279945350514L71.49322083333333,61.758557247539045L71.7285975,60.88551290439979L71.96397416666667,62.1619671968878L72.19935083333333,66.12412823123256L72.43472750000001,61.500371641018916L72.90548083333334,60.70436004006535L73.1408575,63.47707485392118L73.37623416666666,63.115871550717586L73.61161083333333,65.9466587480141L73.84698750000001,65.04131714743373L74.31774083333333,59.4875393586358L74.5531175,61.74762502694898L74.78849416666667,54.552951355851334L75.02387083333335,53.716162797467234L75.2592475,57.831052210863476L75.49462416666667,59.21539842907083L75.73000083333334,69.08837702655867L75.96537749999999,72.2462806927795L76.20075416666666,73.74588129718633L76.43613083333334,76.2454928781104L76.6715075,72.71330197409598L76.90688416666667,73.07511399463222L77.14226083333332,66.40395110947796L77.61301416666667,61.80433524407012L77.84839083333334,69.20875003323331L78.0837675,67.94548810111402L78.31914416666666,63.24300782200207L78.55452083333333,67.71776748347035L78.78989750000001,64.53703903582068L79.02527416666668,64.59457710039875L79.26065083333333,77.09947521954129L79.4960275,74.69762798506363L79.73140416666666,74.79851715643001L79.96678083333335,73.73993968872233L80.2021575,73.77311992203477L80.43753416666667,78.42780921807943L80.67291083333333,66.36893075716763L80.9082875,62.966552751791895L81.14366416666667,52.91371012611046L81.37904083333333,53.992607172351214L81.6144175,60.29175294679936L81.84979416666667,64.27295107450445L82.08517083333332,72.07817197718703L82.3205475,65.35050815272699L82.55592416666667,74.03271730229551L82.79130083333334,67.31754487367765L83.0266775,71.09150235374884L83.26205416666666,71.06013393279902L83.49743083333333,72.97270238686701L83.7328075,72.98196688112708L83.96818416666667,79.48429555103746L84.20356083333333,81.25150073075538L84.4389375,94.86328661670233L84.67431416666666,95.71201756103598L84.90969083333334,85.45483934872405L85.1450675,88.01621109596877L85.38044416666666,75.27856695879383L85.61582083333333,73.31312809678691L85.8511975,68.33420441073552L86.08657416666668,75.28948941064077L86.32195083333333,76.46691402638632L86.5573275,71.9019491504465L86.79270416666667,69.71009449026776L87.02808083333332,83.30094220813328L87.49883416666667,68.74484342697419L87.73421083333334,65.43197271683924L87.9695875,63.66030173502239L88.20496416666666,58.02799739384176L88.44034083333334,64.09639052119009L88.6757175,74.57088949593422L88.91109416666667,72.6579919122001L89.14647083333332,71.05267801179222L89.38184749999999,62.010730384947365L89.61722416666667,68.98926430286198L89.85260083333334,65.32143549919765L90.08797750000001,61.67019454643125L90.32335416666666,68.39484144309456L90.55873083333333,75.73463918985348L90.7941075,78.32968882845549L91.02948416666668,84.10562957267732L91.26486083333333,64.82259386836115L91.5002375,63.614903749339405L91.73561416666666,65.00687524605709L91.97099083333333,65.42802610495488L92.2063675,63.26008436131542L92.67712083333333,63.68729794923756L93.14787416666665,72.30524466991686L93.38325083333334,70.56088206886736L93.6186275,78.16365566638542L93.85400416666667,66.94145767193457L94.08938083333334,65.09823188638767L94.32475749999999,61.98712010425483L94.56013416666667,59.20303049700992L94.79551083333334,55.76539312685816L95.0308875,43.58833416923176L95.26626416666666,49.86249562877167L95.50164083333333,55.161903781336264L95.73701750000001,57.73641173903782L95.97239416666667,58.378138813238266L96.20777083333333,63.84174154787651L96.4431475,64.2495860797493L96.91390083333334,62.55969164112575L97.14927750000001,61.392780553403185L97.38465416666666,63.4424876022927L97.62003083333333,65.57870653614111L97.8554075,61.4939648587314L98.32616083333333,59.30741173692108L98.5615375,57.27107844092181L98.79691416666667,58.541716212187936L99.03229083333333,62.01213644891055L99.26766749999999,59.17118760319083L99.50304416666667,70.85815553397859L99.73842083333334,75.53568829686992L99.9737975,77.18819957175846L100.20917416666666,71.00998919081029L100.44455083333332,70.22508090740382L100.6799275,68.84516921091569L100.91530416666667,57.4953419232142L101.15068083333334,58.991681534145954L101.38605749999999,55.93540047895304L101.62143416666666,52.81782830536682L101.85681083333334,58.18278967217756L102.09218750000001,62.53178130400724L102.32756416666666,65.45800586759755L102.56294083333333,63.082140392041L102.7983175,65.97383539554166L103.03369416666668,63.48491572319651L103.26907083333333,60.72566995714368L103.5044475,64.3035888141273L103.73982416666666,58.496634175839304L103.97520083333333,56.75422906308168L104.21057750000001,58.90554795653627L104.44595416666667,61.7794035216491L104.68133083333333,54.69429119672493L104.9167075,47.84519235349987L105.15208416666667,42.508061169182525L105.38746083333334,48.90877682089666L105.6228375,49.564370979379675L105.85821416666667,59.08210131563759L106.09359083333334,62.848077133649355L106.32896749999999,59.059845810159956L106.56434416666666,58.78412188321282L106.79972083333334,60.954545438996774L107.0350975,55.993969119027796L107.27047416666666,57.33881804668509L107.50585083333333,54.13953528665793L107.7412275,54.19342320492213L107.97660416666668,47.284650892397025L108.21198083333334,47.00622479724271L108.4473575,45.37921572484021L108.68273416666666,48.05374454749679L108.91811083333333,46.00179676341716L109.15348750000001,45.0913425302023L109.38886416666666,48.03355020611167L109.62424083333333,46.69451948098697L109.8596175,59.29431310080729L110.09499416666667,67.6918294794142L110.33037083333333,61.508758729868305L110.5657475,70.79326800427549L110.80112416666667,69.45334212190524L111.03650083333333,66.44013692010381L111.27187749999999,56.711848089959645L111.74263083333334,52.00093136177502L111.9780075,53.50409490703218L112.21338416666667,54.72079264914801L112.44876083333332,62.52725226329714L112.6841375,65.05952267999439L112.91951416666667,60.46243081230213L113.15489083333334,58.27194547839237L113.3902675,55.356117796082145L113.62564416666666,54.65999408347923L113.86102083333333,48.914374117862394L114.09639750000001,52.396529262018745L114.33177416666666,54.697982013650844L114.56715083333333,61.921127274691756L114.8025275,69.8435628400155L115.03790416666666,67.27476200406458L115.27328083333335,66.46595348677828L115.5086575,65.30131191475544L115.74403416666667,70.38729902424798L115.97941083333333,65.732600806757L116.2147875,67.22450832868067L116.45016416666667,70.42615603216397L116.68554083333333,72.94436957476897L116.9209175,73.54894889410514L117.15629416666667,64.98545047220549L117.6270475,59.25079847393938L117.86242416666667,64.85077294486123L118.09780083333334,62.533058864921884L118.33317749999999,60.71105474518788L118.56855416666666,63.31062553856229L118.80393083333334,61.95177750388861L119.0393075,61.240871873225984L119.27468416666667,52.7279585971655L119.51006083333333,54.43957056571335L119.7454375,57.144664566622055L119.98081416666668,58.85910306465415L120.21619083333334,56.07570933187584L120.4515675,61.0669511008018L120.68694416666666,63.0049817459558L120.92232083333333,62.24978383027795L121.1576975,61.60519679244355L121.39307416666666,64.95068909986628L121.62845083333333,61.699527980524635L121.8638275,53.14459006757522L122.09920416666667,48.707297700214895L122.33458083333332,54.30491717053121L122.5699575,56.85914168504607L123.04071083333334,51.16643161393705L123.2760875,53.2768001820145L123.51146416666666,62.385587678060645L123.74684083333334,62.744748943221055L123.9822175,60.01578371615244L124.21759416666667,52.293383867520035L124.45297083333332,53.0953194640134L124.68834749999999,58.665740435002675L124.92372416666667,58.60783762683393L125.15910083333334,57.28326430361135L125.3944775,53.617145543637534L125.62985416666666,55.41332899171441L125.86523083333333,52.965442829809135L126.33598416666668,47.217834865417444L126.57136083333333,44.81069567962385L126.8067375,45.18212150032349L127.04211416666666,48.49859366424741L127.27749083333335,49.568758405055775L127.5128675,53.34533568213732L127.74824416666667,52.307677522936615L127.98362083333333,59.36238669617019L128.2189975,54.85608542149869L128.45437416666667,56.032216447071676L128.68975083333333,51.17409481329311L128.9251275,51.23465472390306L129.16050416666667,50.73193421341813L129.39588083333334,43.46869224792661L129.6312575,46.8390144675985L129.86663416666667,49.83716802199497L130.10201083333334,54.97540527108616L130.3373875,63.82474728608936L130.57276416666667,61.88383025297357L130.80814083333334,54.59771364157541L131.0435175,49.093589177398684L131.27889416666667,46.00247483111704L131.51427083333334,49.49783560781911L131.7496475,52.78807127881825L131.98502416666665,50.297825582664004L132.22040083333334,46.6500617096402L132.4557775,49.23424837759349L132.69115416666668,44.22544838547566L132.92653083333332,45.17629917363686L133.16190749999998,43.78031291637487L133.39728416666668,46.850177293545215L133.63266083333335,44.68840443700995L133.8680375,43.29494801790409L134.10341416666665,44.87918332661721L134.33879083333332,45.83773938040275L134.57416750000002,48.128549678731474L134.80954416666668,49.67165659585896L135.04492083333332,53.87104083556673L135.2802975,50.426910380254725L135.51567416666666,52.35455297612508L135.75105083333335,48.74147157910201L135.9864275,47.90432947454201L136.22180416666666,55.41915384209629L136.45718083333333,54.17289510198056L136.6925575,52.63357282523823L136.92793416666666,50.58379782099618L137.16331083333333,53.16951173371504L137.3986875,51.75102948963941L137.63406416666666,57.97302898534393L137.86944083333333,57.67243396636039L138.1048175,61.40401424904438L138.34019416666666,61.185618715674735L138.57557083333333,59.78844369867625L138.8109475,59.4756222918099L139.04632416666666,61.02191223956338L139.28170083333333,61.15373186331168L139.5170775,58.666971698957724L139.75245416666667,53.095740274820756L139.98783083333333,51.75177297992383L140.2232075,55.38792267791044L140.45858416666667,55.99957091056227L140.69396083333334,51.7726329048791L141.16471416666667,48.212333449554876L141.40009083333334,47.28320723826627L141.6354675,44.18540689827972L141.87084416666667,44.24500794517243L142.10622083333334,46.8172786374993L142.3415975,45.61559624432516L142.81235083333334,47.99268557295136L143.0477275,47.63365826131613L143.28310416666667,49.3267546092418L143.51848083333334,47.33848099763986L143.7538575,46.49583225872655L143.98923416666665,42.655572502429465L144.22461083333332,49.833630289957924L144.4599875,48.687478786869605L144.69536416666668,53.64165939367335L144.93074083333335,52.77406327146227L145.16611749999998,54.30236874559786L145.40149416666665,52.46647386403794L145.63687083333335,50.48855252168839L145.87224750000001,48.980025200203016L146.10762416666665,44.09418871334563L146.34300083333332,41.187629999460114L146.5783775,40.81571061435841L146.81375416666668,47.37166594042179L147.04913083333332,50.93667178390557L147.2845075,47.81211430746626L147.51988416666669,48.62780309281263L147.75526083333332,48.796483565469885L147.99063750000002,47.660150614914926L148.22601416666666,47.530238615482176L149.16752083333333,45.44779859208805L149.4028975,45.77993139716796L149.63827416666666,43.4726559214717L149.87365083333336,46.88568140417789L150.1090275,48.18614622551925L150.34440416666666,46.45885599658337L150.57978083333333,43.796090471661046L150.8151575,43.51521690237118L151.0505341666667,42.69258775809533L151.28591083333333,46.436381497351874L151.5212875,43.53730471558552L151.75666416666667,40.613747130265665L151.99204083333333,42.39816457587625L152.2274175,46.9588471462537L152.46279416666667,46.89219789752457L152.69817083333334,47.68644590786357L152.9335475,49.61088942906403L153.16892416666667,51.03148461534535L153.40430083333334,52.83846639572336L153.6396775,53.18855148476905L153.87505416666667,63.670624152459084L154.1104308333333,59.68869367977618L154.3458075,55.70442736591862L154.58118416666667,52.38165252589663L154.81656083333334,50.51960312938077L155.0519375,52.61024356487688L155.28731416666665,52.56292427145189L155.52269083333334,45.72060986404176L155.75806749999998,45.801997807726764L155.99344416666668,42.86391508891856L156.22882083333334,42.754903708136936L156.46419749999998,45.263174746276974L156.69957416666668,44.49424616719858L156.93495083333332,47.91349594373099L157.17032749999998,45.298839608716264L157.40570416666668,44.545716901500924L157.64108083333332,47.731465644178655L157.87645750000001,43.29377512130921L158.11183416666665,38.486419201742024L158.34721083333332,38.661082698017196L158.58258750000002,45.76905590497984L158.81796416666666,40.58650568451813L159.05334083333335,40.98637002523691L159.2887175,47.55092520446675L159.52409416666666,43.44005534799564L159.75947083333335,45.74438572553893L159.9948475,46.841837506188995L160.23022416666666,46.850436585915446L160.46560083333333,39.722642006741836L160.7009775,39.026707570710784L160.9363541666667,36.143000099129694L161.17173083333333,37.11872230044585L161.4071075,39.85502544780388L161.64248416666666,40.44986420569808L161.87786083333333,45.10987349199783L162.11323750000003,48.53688665460348L162.34861416666666,50.18294052459272L162.58399083333333,46.27654628277381L162.8193675,47.07593107563113L163.05474416666667,42.93204256908578L163.29012083333333,48.27947400371252L163.76087416666667,54.32451479313387L163.99625083333333,50.221106619373074L164.2316275,52.389587035133204L164.46700416666667,48.279932359569756L164.70238083333334,48.02204088631646L164.9377575,45.79066502151147L165.17313416666664,47.02283446517066L165.40851083333334,45.696455255418044L165.6438875,46.10093189518548L165.87926416666667,45.83379212579976L166.11464083333334,45.655338332028265L166.35001749999998,44.42530937418573L166.58539416666667,45.638123570420305L166.82077083333334,46.942572304550424L167.0561475,46.464504387350246L167.29152416666668,43.88793007229563L167.7622775,40.66998927570236L167.99765416666668,35.797216643930966L168.23303083333332,34.20387839985912L168.4684075,30.600004932156878L168.70378416666665,33.459266518380986L168.93916083333335,33.049877742951765L169.1745375,32.47340072187333L169.40991416666665,29.44284964960184L169.64529083333335,31.442516626019597L169.8806675,34.71707900906162L170.11604416666668,36.580602172879736L170.35142083333335,34.96917476389973L170.5867975,37.920493534525036L170.82217416666668,33.18623214496563L171.05755083333332,34.855612957585805L171.2929275,36.3679153728859L171.52830416666666,37.749673415426656L171.76368083333332,38.696032920673304L171.99905750000002,38.44801415976457L172.23443416666666,34.444618388805736L172.46981083333333,32.822208922395816L172.7051875,31.70090704954785L172.94056416666666,29.04154380389437L173.17594083333336,31.479629148345822L173.4113175,31.881933807374935L173.64669416666666,37.74528224984431L173.88207083333333,33.15977677256814L174.1174475,33.39704938772945L174.35282416666666,32.025497201047585L174.58820083333333,34.08413631483563L174.8235775,32.52734465197818L175.05895416666667,32.04578256246867L175.29433083333333,34.35006638071209L175.5297075,33.287454633457145L175.76508416666667,28.194062768304235L176.00046083333334,24.081246550066652L176.23583749999997,26.562703113974152L176.47121416666667,28.47126998596545L176.70659083333334,29.47622445041563L176.9419675,32.90025871841621L177.17734416666667,28.819728478153735L177.4127208333333,28.59288518854322L177.6480975,31.397360782230123L177.88347416666667,29.569817552524995L178.11885083333334,28.491515224184127L178.3542275,26.023866372903996L178.82498083333334,32.130501876961006L179.0603575,28.25257835837084L179.29573416666665,29.028844462496465L179.53111083333334,28.615920724502672L179.76648749999998,32.6441007524254L180.00186416666668,32.52690835250547L180.23724083333335,30.986960895971833L180.47261749999998,30.312337775238575L180.70799416666668,30.723577003879484L180.94337083333332,29.31854482263023L181.17874750000001,29.76999876436733L181.41412416666668,28.51079535627025L181.64950083333332,27.256311558847898L181.88487750000002,23.413980350083335L182.12025416666665,25.954650280435942L182.35563083333332,22.261508505243285L182.59100750000002,23.91089502904893L182.82638416666666,27.004780658834676L183.06176083333335,25.812069518583314L183.2971375,30.75164303135645L183.53251416666666,30.825455972917297L183.76789083333335,33.807952761627035L184.0032675,34.71035348488783L184.2386441666667,31.934777285011307L184.47402083333333,36.20686055074489L184.7093975,32.956861306997496L184.9447741666667,33.056789029329764L185.18015083333333,34.60360561112941L185.4155275,32.05345532154436L185.65090416666666,26.49196717298588L185.88628083333333,30.76408058427532L186.1216575,27.32172284914361L186.35703416666666,27.28394688268088L186.59241083333333,30.275554429656097L186.8277875,37.57808013517317L187.06316416666667,35.07084272655561L187.2985408333333,30.234043551952396L187.5339175,29.5994015053447L187.76929416666667,26.154349634422772L188.00467083333334,22.793074073363982L188.2400475,24.412190766297613L188.47542416666664,20.32251878979835L188.71080083333334,23.15989410467091L189.18155416666667,27.58161480081168L189.41693083333334,30.88358890870731L189.65230749999998,33.865646885836384L189.88768416666667,30.130681279891974L190.12306083333334,28.588718521158683L190.35843749999998,30.17596289575252L190.59381416666668,29.740531792847747L190.8291908333333,31.56805345934501L191.0645675,34.554898481061116L191.29994416666668,32.56186368030936L191.53532083333332,30.458755499628836L191.7706975,30.550473015828544L192.00607416666665,30.57446911292348L192.24145083333335,30.319487878994835L192.4768275,28.293154964526934L192.71220416666665,28.27436084605452L192.94758083333335,29.252784132429895L193.1829575,26.812152686792672L193.41833416666665,27.38072791352451L193.65371083333335,30.666112418209025L193.8890875,31.671695273680854L194.12446416666668,31.43590113204189L194.35984083333332,29.074045182677054L194.5952175,27.119745912660193L194.83059416666669,27.46013977218692L195.06597083333332,26.02018226276593L195.30134750000002,25.72534966441461L195.53672416666666,24.720478516943132L195.77210083333333,26.698727700367755L196.00747750000002,26.956601934813165L196.24285416666666,25.939316604674445L196.47823083333333,26.49300376756554L196.7136075,24.428664810158068L196.94898416666666,22.187144028218228L197.18436083333336,22.513145559417495L197.4197375,26.837736526717634L197.65511416666666,27.559875530110247L197.89049083333333,23.892661398020778L198.1258675,23.743027511812016L198.3612441666667,23.039228295866167L198.59662083333333,21.85472190543524L198.8319975,19.04079765134773L199.06737416666667,24.94682331464432L199.30275083333333,25.475787680267786L199.5381275,23.35752835940292L199.77350416666667,20.668833366297378L200.00888083333334,20.161306076792556L200.2442575,22.253952606909365L200.47963416666667,20.50573656196468L200.9503875,18.776979387819836L201.18576416666667,17.407100199584846L201.4211408333333,25.30537669220311L201.6565175,23.409474053691355L201.89189416666665,24.840492524527747L202.12727083333334,24.355691027099653L202.3626475,24.333393650038033L202.59802416666665,27.349174829689872L202.83340083333334,21.796675211160107L203.06877749999998,21.796548423048364L203.30415416666668,21.853430521790386L203.53953083333334,26.170191512545728L203.77490749999998,20.610173409301353L204.01028416666668,22.91664881554769L204.24566083333332,17.944856585047887L204.48103749999999,22.34825895200143L204.71641416666668,23.52862834798333L204.95179083333332,20.77101555382879L205.18716750000002,23.621384769006L205.42254416666665,28.237595834271417L205.65792083333332,26.25389546497459L205.89329750000002,25.228363789258026L206.12867416666666,29.499176074944188L206.36405083333335,26.74802985927832L206.5994275,26.554991286233985L206.83480416666666,25.25084730808365L207.07018083333335,23.190803901287552L207.3055575,20.76835845200347L207.77631083333333,23.030732174548575L208.0116875,19.7696864399837L208.2470641666667,22.1631211108664L208.48244083333333,23.12164783295208L208.7178175,23.445853494256596L208.95319416666666,20.093092605046195L209.18857083333333,21.802723405838236L209.42394750000003,21.039707649879603L209.65932416666666,17.938697463131263L209.89470083333333,24.34409943494572L210.1300775,25.630371040620958L210.36545416666667,24.572891641701347L210.60083083333333,23.119484720574718L210.8362075,27.46145120346472L211.07158416666667,25.85017342757004L211.30696083333333,23.779790263064655L211.5423375,22.684152752952684L211.77771416666667,25.777093110998692L212.01309083333334,25.28443389226757L212.2484675,29.568407198625977L212.48384416666664,31.327637598008238L212.71922083333334,29.476512423310595L212.9545975,26.13664637530573L213.18997416666667,26.785510257516933L213.42535083333334,25.220302511145974L213.66072749999998,22.664488467868352L213.89610416666667,21.046426636796383L214.13148083333334,18.25585345947087L214.3668575,20.97594196192682L214.60223416666668,22.172623515027254L214.83761083333331,18.539199666977822L215.0729875,20.6954768805646L215.54374083333332,26.012045534498867L215.7791175,21.201104241742826L216.01449416666665,27.48273357228149L216.24987083333335,31.812381779383742L216.48524749999999,31.771631120075455L216.72062416666665,33.888639658102676L216.95600083333335,31.258109243090814L217.1913775,29.685306982380524L217.42675416666668,26.506570755431L217.66213083333332,23.251202550940434L217.8975075,18.38812046802707L218.13288416666668,19.619996897072753L218.36826083333332,18.98762626736692L218.6036375,21.818911469091546L218.83901416666666,24.60100941035097L219.07439083333333,22.14830385382831L219.30976750000002,27.935941803205083L219.54514416666666,23.427307266036138L219.78052083333333,24.299901001019492L220.0158975,23.613114068065073L220.25127416666666,22.03575262291821L220.48665083333336,24.29062187543056L220.7220275,25.598289810081184L220.95740416666666,23.559818212214623L221.19278083333333,21.659923967989926L221.4281575,28.42174788558478L221.66353416666666,24.57003385111159L221.89891083333333,19.975337354856208L222.1342875,24.26652808284632L222.36966416666667,21.704005508642723L222.60504083333333,19.9547188157579L222.8404175,19.484723455527018L223.07579416666667,17.86668799717964L223.31117083333334,17.229727268489796L223.54654749999997,13.497286394297987L223.78192416666667,18.1286532613517L224.01730083333334,22.17403141354822L224.2526775,21.35246740059668L224.48805416666667,17.96028019599396L224.7234308333333,21.271972901288592L224.9588075,22.82794438758168L225.19418416666667,30.914218039020284L225.42956083333334,28.276238203936288L225.6649375,25.287506170722367L225.90031416666665,25.724287198417926L226.13569083333334,23.207757281843072L226.3710675,17.218169841765615L226.84182083333334,17.88064435321212L227.07719749999998,22.71209374780784L227.31257416666668,21.107949108573393L227.54795083333335,22.449948998241155L227.78332749999998,21.326098588943807L228.25408083333332,26.054282246655248L228.48945750000001,27.52852981651003L228.72483416666668,24.740283212614173L228.96021083333332,25.033213740480903L229.19558750000002,25.166361592137463L229.43096416666666,20.966411550591005L229.66634083333332,18.508251519107148L229.90171750000002,20.99314119086057L230.13709416666666,22.30862413244887L230.37247083333335,24.22462621871088L230.6078475,24.424219410219024L230.84322416666666,26.09590284924903L231.07860083333335,23.34447051516534L231.3139775,25.962505932247183L231.5493541666667,26.637254060241645L231.78473083333333,31.050173975841005L232.0201075,25.158152978657142L232.25548416666666,27.144489783967913L232.49086083333333,27.48400385299115L232.7262375,27.478094874735092L232.96161416666666,27.20338940927377L233.19699083333333,24.68903835703577L233.4323675,19.384376648128267L233.66774416666667,20.930887712782123L233.90312083333333,23.739792303923224L234.1384975,25.566809821747228L234.37387416666667,26.71461631005093L234.6092508333333,24.793081457016427L234.8446275,29.406389991794384L235.08000416666667,29.885991810826624L235.31538083333334,27.235441657000337L235.5507575,26.213607309573064L235.78613416666664,27.47569860865488L236.02151083333334,28.456996502811194L236.2568875,27.112261057987865L236.49226416666667,29.52389054765291L236.72764083333334,26.46128149981064L236.96301749999998,28.05828347123665L237.19839416666667,24.416120733943103L237.43377083333334,18.733553641180833L237.66914749999998,18.586336728775763L237.90452416666668,20.901751372243723L238.13990083333331,18.926588666736933L238.3752775,20.50087472134905L238.61065416666668,24.38232534770657L238.84603083333332,22.924928969947416L239.0814075,21.32900545127231L239.31678416666665,22.867733975647354L239.55216083333335,19.094689772219994L240.02291416666665,30.352389161844343L240.25829083333335,22.564448274080803L240.4936675,21.98733666176176L240.72904416666665,24.038366867172925L241.1997975,22.982692794478396L241.43517416666668,27.960067439493855L241.67055083333332,23.02088977112203L241.9059275,30.93839063704567L242.14130416666669,34.75185236098619L242.37668083333332,34.44780287833669L242.61205750000002,29.064136377799315L242.84743416666666,29.87289145104154L243.08281083333333,30.10254731381187L243.55356416666666,29.167651269753236L243.78894083333333,28.402318641660884L244.0243175,27.32333693540187L244.25969416666666,31.761984554663655L244.49507083333336,30.555182837040263L244.7304475,29.6071752261052L244.96582416666666,28.26578094603468L245.20120083333333,22.210355509657717L245.4365775,26.7636199125146L245.6719541666667,28.91337602013698L245.90733083333333,34.854307471473305L246.1427075,30.698293003324665L246.37808416666667,26.42718445985716L246.61346083333333,28.89657596199416L246.84883749999997,31.490329127443687L247.08421416666667,33.13342422004965L247.5549675,30.7951386639088L247.79034416666667,27.474403433768202L248.0257208333333,30.291636803483584L248.49647416666667,31.02800117086207L248.7318508333333,31.613949211053722L248.9672275,29.795505675811228L249.20260416666665,26.90061905792507L249.43798083333334,25.04158120745069L249.6733575,27.218001759061707L249.90873416666665,24.829772669900564L250.14411083333334,22.680771389397933L250.37948749999998,19.15398834237928L250.61486416666668,25.817836641864233L250.85024083333334,24.4806146747803L251.08561749999998,23.750655464320545L251.32099416666668,21.684846745245494L251.55637083333332,25.740836132135456L251.79174749999999,26.373822873384768L252.02712416666668,20.167493976996866L252.26250083333332,18.49678662104421L252.49787750000002,17.236143855383744L252.73325416666665,15.68411416304167L252.96863083333332,17.40655816703935L253.20400750000002,21.349265415043703L253.43938416666666,19.103739844338975L253.67476083333335,21.228197413431076L253.9101375,18.59289884855474L254.14551416666666,21.803406533372367L254.38089083333335,18.40298074479989L254.6162675,19.48472723811858L254.85164416666666,22.347959078895173L255.08702083333333,28.062339069733667L255.3223975,27.219323011400917L255.5577741666667,23.059645205434066L255.79315083333333,17.428847685256898L256.0285275,21.87873134391262L256.26390416666663,23.01884829075081L256.49928083333333,25.41231049698274L256.7346575,24.268857505741266L256.97003416666666,22.669500981342225L257.20541083333336,25.060312664287437L257.4407875,25.089690903892205L257.6761641666667,26.874704851026166L257.91154083333333,25.351166898193043L258.1469175,27.20955440769893L258.38229416666667,23.93441949986672L258.6176708333333,23.962949848732848L259.0884241666667,21.888367853532827L259.32380083333334,21.19401604025478L259.79455416666667,26.717209659444137L260.0299308333333,23.623429729690457L260.2653075,27.864971892949285L260.50068416666664,26.17345630242619L260.73606083333334,24.210243475623884L260.9714375,22.669507849237533L261.2068141666667,28.645311076144083L261.6775675,28.087667262246583L261.91294416666665,33.161621906929014L262.14832083333334,32.94583689272491L262.3836975,30.848646443393136L262.6190741666667,31.88782235742113L262.8544508333333,30.728511952413697L263.0898275,27.523933046674102L263.32520416666665,26.51364041529709L263.56058083333335,27.846756061547268L263.7959575,32.61036668887104L264.0313341666667,30.99799248593348L264.2667108333333,33.12336144535303L264.5020875,31.7857623933059L264.73746416666665,26.890230983929342L264.9728408333333,27.934109408273116L265.2082175,29.639673833823736L265.4435941666667,27.798272118498545L265.6789708333333,27.317995748024202L265.9143475,29.441529633358357L266.14972416666666,27.26128535692314L266.38510083333335,25.383858173564533L266.6204775,27.82111180810938L266.85585416666663,25.731856021484163L267.0912308333333,24.768830183748122L267.32660749999997,24.386850550493904L267.56198416666666,27.025542460999645L267.79736083333336,28.15237015826682L268.0327375,30.6144325971284L268.2681141666667,28.766150584949116L268.50349083333333,32.01034524465666" style="fill: none;" fill="none"></path></g></g></g></g><g opacity="0.2"><g><g><g><path stroke="rgb(255, 112, 67)" stroke-width="2px" d="M24.653264166666666,97.34686995915004L24.888640833333334,121.06799787793841L25.1240175,138.99558416094098L25.359394166666664,114.09549428394863L25.59477083333333,125.8912895475115L25.8301475,106.6014506476266L26.065524166666666,61.886733627319344L26.300900833333333,98.65853069850377L26.536277499999997,112.85323460442679L26.771654166666668,136.52709601266042L27.007030833333335,141.8654602595738L27.242407500000002,110.12247652326312L27.477784166666666,114.46523457935879L27.713160833333333,112.18322741644722L27.9485375,114.63594478879656L28.183914166666668,132.33914717265537L28.419290833333335,99.145331627982L28.6546675,105.7322301047189L28.890044166666666,96.50293088640485L29.125420833333333,76.75794835771833L29.3607975,79.70058223179409L29.596174166666664,98.68378323146275L29.83155083333333,116.22579333441598L30.0669275,81.69502111162458L30.30230416666667,76.23329274313791L30.537680833333336,33.29811728341238L30.7730575,103.43123049054827L31.008434166666667,79.74173575810023L31.243810833333335,90.07405847821917L31.479187500000002,114.19661534173147L31.714564166666666,103.08354034423829L31.949940833333333,124.3899478503636L32.185317500000004,77.25099972316197L32.42069416666667,149.86209971564156L32.65607083333334,95.73804343087333L32.8914475,102.36923512050083L33.126824166666665,112.55945446831839L33.36220083333333,120.94798082624163L33.5975775,120.97955372674124L33.83295416666667,112.16734812600272L34.068330833333334,152.12197715214322L34.53908416666667,127.99634812218802L34.77446083333333,99.10736601693289L35.009837499999996,75.93301138196674L35.24521416666666,108.63688872201102L35.48059083333333,80.94584655761719L35.715967500000005,81.37260761260985L35.951344166666665,72.28873231070381L36.18672083333333,72.71222828456332L36.4220975,122.51248520442417L36.65747416666667,72.10214522225516L36.892850833333334,81.30302810668945L37.1282275,106.6741119657244L37.36360416666667,84.31521254948207L37.59898083333333,107.10081032344273L37.8343575,96.37021522521972L38.06973416666666,97.1319051197597L38.30511083333334,70.55346467154365L38.5404875,81.07228766850062L38.775864166666665,103.43442322867257L39.01124083333334,110.04033344813756L39.2466175,73.77735369546073L39.48199416666666,113.29579537255424L39.717370833333334,137.35831718444825L39.9527475,121.78868134362357L40.18812416666667,100.17247695922852L40.423500833333335,130.32887723105296L40.658877499999996,104.10445453098842L40.89425416666667,98.70916115897042L41.12963083333333,71.89674412863594L41.365007500000004,114.38939981460572L41.600384166666664,64.21630390712193L41.83576083333333,88.49369168962751L42.0711375,89.67578127724784L42.306514166666666,68.47369962419783L42.54189083333334,94.24933041163852L42.7772675,106.70251383100236L43.01264416666666,129.98434365136282L43.248020833333335,104.96105845315115L43.4833975,95.03323443276541L43.71877416666666,91.27193331037249L43.95415083333334,124.40569451195853L44.1895275,99.0473309653146L44.42490416666667,57.183637455531525L44.66028083333333,92.82074407849993L44.8956575,93.60768650599888L45.131034166666666,124.87043082373484L45.36641083333333,123.46699815477643L45.6017875,110.60603648594447L45.83716416666667,106.13681079319545L46.07254083333333,105.02422354561942L46.3079175,131.14434450694492L46.54329416666666,108.01740106855121L46.77867083333334,105.73221081324986L47.014047500000004,91.17715432303292L47.249424166666664,88.57902268001011L47.48480083333334,94.12607721601213L47.7201775,109.48716021946498L47.955554166666666,149.04977936063494L48.19093083333333,78.00010675702775L48.4263075,100.2736510685512L48.66168416666667,84.94107121058873L48.897060833333335,96.64834997994559L49.132437499999995,100.81411121913365L49.36781416666667,133.52754024778093L49.60319083333333,94.17032702309744L49.8385675,114.03860133034843L50.07394416666667,92.40973450796945L50.30932083333333,62.61369405473981L50.544697500000005,88.58847067696708L50.780074166666665,105.75432848249163L51.01545083333333,111.17175881522043L51.2508275,70.11726526532854L51.48620416666667,105.08110444205148L51.721580833333334,94.75821042742048L51.9569575,114.76557140350343L52.19233416666666,90.13726697649275L52.427710833333336,53.66578020368304L52.663087499999996,119.39917488098143L52.89846416666667,101.98676727839879L53.13384083333333,93.38966396876744L53.3692175,138.1643654005868L53.60459416666667,94.33784931727818L53.83997083333333,63.87170039585658L54.07534750000001,95.07113734654018L54.31072416666667,77.12148644583564L54.546100833333334,54.69297376360211L54.7814775,59.61741060529435L55.01685416666667,38.197301592145664L55.25223083333333,71.14138665880475L55.4876075,55.499067796979645L55.72298416666666,63.43240470886231L55.95836083333334,108.46939054216656L56.1937375,81.41996334620883L56.429114166666665,109.7969715663365L56.66449083333333,82.46623616899764L56.8998675,30.624165344238293L57.13524416666667,79.19801052638462L57.370620833333334,82.62425259181431L57.605997499999994,59.68697564261301L57.84137416666667,77.12781887054443L58.076750833333335,131.2802818434579L58.3121275,85.61744940621513L58.54750416666667,70.01302381243025L58.78288083333333,70.9359662737165L59.018257500000004,53.72589242117745L59.253634166666664,75.6200989314488L59.48901083333333,41.04190586635045L59.7243875,37.96335394723076L59.959764166666666,77.9938177381243L60.19514083333333,65.98308416094099L60.66589416666666,83.0035903930664L60.901270833333335,69.73174454825264L61.1366475,77.43438442775181L61.37202416666667,81.26836133684431L61.60740083333334,45.858840996878484L61.8427775,68.82780418395997L62.07815416666667,71.96636221749444L62.31353083333333,70.86008328029088L62.5489075,44.13309369768413L62.784284166666666,99.9228935786656L63.01966083333333,53.744836643763946L63.2550375,26.951474761962885L63.49041416666667,56.21336337498256L63.72579083333333,57.923301315307626L63.9611675,67.77840614318848L64.19654416666667,66.04320602416992L64.43192083333334,43.40300805228097L64.6672975,70.575630569458L64.90267416666666,57.7494369506836L65.13805083333334,51.19730170113699L65.3734275,86.67942066192627L65.60880416666667,71.77354398454938L65.84418083333334,101.85722988673619L66.07955749999999,74.54866038731166L66.31493416666667,68.90043656485422L66.55031083333333,53.47936673845564L66.7856875,80.62347646440779L67.02106416666666,49.95512401035853L67.25644083333333,58.38163768223353L67.4918175,49.40519174848285L67.72719416666666,46.12121462140763L67.96257083333333,102.35341611589703L68.1979475,84.38794621058872L68.43332416666667,68.95735604422433L68.66870083333333,71.41644924708775L68.9040775,60.12000160217285L69.13945416666667,51.33324868338448L69.37483083333333,83.54721434456961L69.6102075,56.482045309884214L69.84558416666667,61.33374366760255L70.08096083333334,81.78355930873325L70.3163375,60.18641248430524L70.78709083333334,62.5316474369594L71.02246749999999,50.82121451241629L71.25784416666667,61.267352076939176L71.49322083333333,63.90021318708146L71.7285975,59.19077976771763L71.96397416666667,64.63979023524693L72.19935083333333,73.81538200378418L72.43472750000001,52.52484414236886L72.90548083333334,59.159161049979076L73.1408575,68.85940361022949L73.37623416666666,62.41471219744001L73.61161083333333,71.44171624864852L73.84698750000001,63.28388933454241L74.31774083333333,48.70667659214564L74.5531175,66.13485014779228L74.78849416666667,40.586820111955916L75.02387083333335,52.09180853707451L75.2592475,65.81877871922084L75.49462416666667,61.90265873500279L75.73000083333334,88.25357077462334L75.96537749999999,78.37632898603167L76.20075416666666,76.65687070574079L76.43613083333334,81.09768006461007L76.6715075,65.85669610159738L76.90688416666667,73.77745497567314L77.14226083333332,53.45404668535505L77.61301416666667,52.87566915239606L77.84839083333334,83.58202580043248L78.0837675,65.49327376229422L78.31914416666666,54.11466375078473L78.55452083333333,76.40406564985003L78.78989750000001,58.362683813912525L79.02527416666668,64.70626863752094L79.26065083333333,101.37368921552385L79.4960275,70.03521864754813L79.73140416666666,74.99436084202358L79.96678083333335,71.68505401611328L80.2021575,73.83752861022948L80.43753416666667,87.46338255746024L80.67291083333333,42.9605196271624L80.9082875,56.36193662370955L81.14366416666667,33.39936855861117L81.37904083333333,56.08693673270088L81.6144175,72.51950650896346L81.84979416666667,72.00115920475552L82.08517083333332,87.22948314121793L82.3205475,52.29092543465751L82.55592416666667,90.88641741616385L82.79130083333334,54.282210159301755L83.0266775,78.41741981506347L83.26205416666666,70.99924229213168L83.49743083333333,76.6853352682931L83.7328075,72.99995089939664L83.96818416666667,92.10646296909877L84.20356083333333,84.68195784432548L84.4389375,121.28616510118758L84.67431416666666,97.35955410003662L84.90969083333334,65.54384634835381L85.1450675,92.9882856641497L85.38044416666666,50.552551868983684L85.61582083333333,69.49786442347936L85.8511975,58.66923490251813L86.08657416666668,88.7909249986921L86.32195083333333,78.752502986363L86.5573275,63.04054674421039L86.79270416666667,65.45531779697963L87.02808083333332,109.68317601340158L87.49883416666667,40.488886969430126L87.73421083333334,59.001106044224315L87.9695875,60.22117571149553L88.20496416666666,47.09470073154995L88.44034083333334,75.87621247427803L88.6757175,94.90374044690813L88.91109416666667,68.94472013201032L89.14647083333332,67.93648044041225L89.38184749999999,44.45871440342495L89.61722416666667,82.53583014351982L89.85260083333334,58.20153252737863L90.08797750000001,54.58249152047294L90.32335416666666,81.44856777191161L90.55873083333333,89.98248187473843L90.7941075,83.36713812691826L91.02948416666668,95.31774984087264L91.26486083333333,27.39081867762974L91.5002375,61.270564106532504L91.73561416666666,67.70893756321499L91.97099083333333,66.24555424281529L92.2063675,59.05172685895647L92.67712083333333,64.51659491402762L93.14787416666665,89.03420006888253L93.38325083333334,67.174766431536L93.6186275,92.92198088509696L93.85400416666667,45.1571909768241L94.08938083333334,61.520205361502505L94.32475749999999,55.947903115408764L94.56013416666667,53.79862125941685L94.79551083333334,49.09233234950473L95.0308875,19.95051383972168L95.26626416666666,62.04175022670201L95.50164083333333,65.44899019513812L95.73701750000001,62.73398600987025L95.97239416666667,59.623844310215546L96.20777083333333,74.44755862099785L96.4431475,65.04128428867885L96.91390083333334,59.2793083190918L97.14927750000001,59.127600206647614L97.38465416666666,67.42133069719587L97.62003083333333,69.72548446655274L97.8554075,53.5647604261126L98.32616083333333,55.0629262651716L98.5615375,53.3181961604527L98.79691416666667,61.008248356410434L99.03229083333333,68.74883455548967L99.26766749999999,53.656404549734944L99.50304416666667,93.54462269374302L99.73842083333334,84.61560483660017L99.9737975,80.3960155759539L100.20917416666666,59.01699256896973L100.44455083333332,68.70143541608539L100.6799275,66.1665170942034L100.91530416666667,35.46332424708777L101.15068083333334,61.89634077889579L101.38605749999999,50.002619607107974L101.62143416666666,46.766070556640614L101.85681083333334,68.59712644304548L102.09218750000001,70.97394153050014L102.32756416666666,71.1383241380964L102.56294083333333,58.4701662336077L102.7983175,71.58712569645473L103.03369416666668,58.65348341805594L103.26907083333333,55.36948699951172L103.5044475,71.24896071297783L103.73982416666666,47.2243104662214L103.97520083333333,53.371913255964L104.21057750000001,63.08163757324219L104.44595416666667,67.3580643245152L104.68133083333333,40.94083786010742L104.9167075,34.54988283429827L105.15208416666667,32.14774769374304L105.38746083333334,61.333695438929965L105.6228375,50.83699493408203L105.85821416666667,77.55769549778529L106.09359083333334,70.15850078037806L106.32896749999999,51.706220299856994L106.56434416666666,58.24889308384486L106.79972083333334,65.16772057669502L107.0350975,46.364615086146756L107.27047416666666,59.949407141549244L107.50585083333333,47.92916287013463L107.7412275,54.29802916390557L107.97660416666668,33.873504638671875L108.21198083333334,46.465750612531394L108.4473575,42.220903996058865L108.68273416666666,53.24547696794782L108.91811083333333,42.01860400608609L109.15348750000001,43.32399019513812L109.38886416666666,53.74489451817105L109.62424083333333,44.09522454398018L109.8596175,83.75273600987026L110.09499416666667,83.99289068494525L110.33037083333333,49.50632727486747L110.5657475,88.81613894871303L110.80112416666667,66.85230952671596L111.03650083333333,60.59097388131278L111.27187749999999,37.827522713797435L111.74263083333334,42.85621065412249L111.9780075,56.42200061253139L112.21338416666667,57.08261767796108L112.44876083333332,77.68096798488072L112.6841375,69.97510643005371L112.91951416666667,51.53866424560546L113.15489083333334,54.019826889038086L113.3902675,49.69598170689174L113.62564416666666,53.30869511195591L113.86102083333333,37.76111183166503L114.09639750000001,59.156006894792824L114.33177416666666,59.16550794328961L114.56715083333333,75.94252689906529L114.8025275,85.22240834917342L115.03790416666666,62.28826626368931L115.27328083333335,64.89591342381068L115.5086575,63.04053709847588L115.74403416666667,80.26009753090995L115.97941083333333,56.69701014927455L116.2147875,70.12056410653251L116.45016416666667,76.64111922127861L116.68554083333333,77.83266645159041L116.9209175,74.72254404340472L117.15629416666667,48.362188829694475L117.6270475,48.11882694789341L117.86242416666667,75.72131162370955L118.09780083333334,58.033966827392575L118.33317749999999,57.174223218645366L118.56855416666666,68.35685119628907L118.80393083333334,59.314013671875L119.0393075,59.86087859017509L119.27468416666667,36.202891649518676L119.51006083333333,57.76211144583564L119.7454375,62.39572939191547L119.98081416666668,62.187130737304685L120.21619083333334,50.67265090942384L120.4515675,70.75583218165805L120.68694416666666,66.7670412336077L120.92232083333333,60.78381140572684L121.1576975,60.35393960135323L121.39307416666666,71.44488004956926L121.62845083333333,55.38845051356725L121.8638275,36.5379458836147L122.09920416666667,40.09373016357421L122.33458083333332,65.17088437761579L122.5699575,61.81734221322196L123.04071083333334,40.115876770019526L123.2760875,57.37339799063547L123.51146416666666,80.06735164097377L123.74684083333334,63.44194434029717L123.9822175,54.71838062831334L124.21759416666667,37.302842984880726L124.45297083333332,54.65201797485351L124.68834749999999,69.47891055515834L124.92372416666667,58.49543805803572L125.15910083333334,54.71203373500278L125.3944775,46.50056206839426L125.62985416666666,58.900038037981304L125.86523083333333,48.21366380964005L126.33598416666668,36.06071352277482L126.57136083333333,40.138013730730336L126.8067375,45.903124564034584L127.04211416666666,54.93645139421736L127.27749083333335,51.64613701956611L127.5128675,60.676338631766185L127.74824416666667,50.29339991978236L127.98362083333333,73.05682215009418L128.2189975,46.10855941772462L128.45437416666667,58.31529432024276L128.68975083333333,41.74362340654645L128.9251275,51.35221219744001L129.16050416666667,49.756064987182626L129.39588083333334,29.369457844325467L129.6312575,53.38140465872627L129.86663416666667,55.657113156999856L130.10201083333334,64.94963051932197L130.3373875,81.00288178580146L130.57276416666667,58.116167776925224L130.80814083333334,40.45407551356726L131.0435175,38.40911227634973L131.27889416666667,40.00207639421737L131.51427083333334,56.28294770377023L131.7496475,59.17499934605189L131.98502416666665,45.46381923130582L132.22040083333334,39.569108309064575L132.4557775,54.25061073303222L132.69115416666668,34.50248369489398L132.92653083333332,47.0220683506557L133.16190749999998,41.07045724051338L133.39728416666668,52.80932579040528L133.63266083333335,40.492021833147305L133.8680375,40.59000320434569L134.10341416666665,47.954463631766174L134.33879083333332,47.698465837751115L134.57416750000002,52.575416728428436L134.80954416666668,52.66709943498884L135.04492083333332,62.02278671264649L135.2802975,43.741245378766735L135.51567416666666,56.0964474269322L135.75105083333335,41.72784298488074L135.9864275,46.27928891863141L136.22180416666666,70.00675408499582L136.45718083333333,51.75368695940291L136.6925575,49.64547664097377L136.92793416666666,46.6048228127616L137.16331083333333,58.18883874075752L137.3986875,48.99750513349261L137.63406416666666,70.05102800641741L137.86944083333333,57.08892598833356L138.1048175,68.6476700919015L138.34019416666666,60.76167444501604L138.57557083333333,57.07628043038504L138.8109475,58.86838073730469L139.04632416666666,64.02353390284946L139.28170083333333,61.40961701529366L139.5170775,53.839731379917694L139.75245416666667,42.280996922084256L139.98783083333333,49.142895289829795L140.2232075,62.44633091517858L140.45858416666667,57.18688806806293L140.69396083333334,43.567400305611756L141.16471416666667,41.30116391863143L141.40009083333334,45.479609298706066L141.6354675,38.17202976771762L141.87084416666667,44.36070409502301L142.10622083333334,51.81050998142787L142.3415975,43.28291865757535L142.81235083333334,52.60703544616699L143.0477275,46.93672289167134L143.28310416666667,52.61335340227399L143.51848083333334,43.478891045706604L143.7538575,44.86010235377722L143.98923416666665,35.200950622558594L144.22461083333332,63.76750717163087L144.4599875,46.46259645734514L144.69536416666668,63.258598218645375L144.93074083333335,51.08990609305245L145.16611749999998,57.269079371861054L145.40149416666665,48.902677917480474L145.63687083333335,46.64905815124513L145.87224750000001,46.05170745849608L146.10762416666665,34.60991788591659L146.34300083333332,35.54548661368233L146.5783775,40.09374945504325L146.81375416666668,60.09793216160365L147.04913083333332,57.85697724478584L147.2845075,41.746796853201744L147.51988416666669,50.211198970249725L147.75526083333332,49.123922130039745L147.99063750000002,45.45432782854354L148.22601416666666,47.27805649893625L149.16752083333333,41.40541501726423L149.4028975,46.42465978349958L149.63827416666666,38.993827056884754L149.87365083333336,53.51096616472516L150.1090275,50.71057793753488L150.34440416666666,43.10588084629603L150.57978083333333,38.62719268798827L150.8151575,42.96999173845563L151.0505341666667,41.09571941920689L151.28591083333333,53.703745814732144L151.5212875,37.90968508039202L151.75666416666667,34.93860593523297L151.99204083333333,45.8620337350028L152.2274175,55.81193684169223L152.46279416666667,46.76281994410925L152.69817083333334,49.22822145734514L152.9335475,53.34657391139439L153.16892416666667,53.78911056518554L153.40430083333334,56.34613691057477L153.6396775,53.86812842232841L153.87505416666667,84.01817697797502L154.1104308333333,51.95906393868583L154.3458075,47.97026334490093L154.58118416666667,45.93156018938336L154.81656083333334,46.90503665379117L155.0519375,56.66854558672223L155.28731416666665,52.47106917245047L155.52269083333334,32.43847013201034L155.75806749999998,45.95998616899763L155.99344416666668,37.16057804652621L156.22882083333334,42.54329338073731L156.46419749999998,50.132171467372345L156.69957416666668,43.00162010192872L156.93495083333332,54.55086315699987L157.17032749999998,40.22333025251115L157.40570416666668,43.083772822788774L157.64108083333332,53.91556614467076L157.87645750000001,34.679434694562644L158.11183416666665,29.15449300493512L158.34721083333332,39.00013536725726L158.58258750000002,59.56688624790736L158.81796416666666,30.526261138916027L159.05334083333335,41.76257727486748L159.2887175,60.2938852582659L159.52409416666666,35.46013150896343L159.75947083333335,50.21749763488769L159.9948475,48.97218508039202L160.23022416666666,46.86712891714913L160.46560083333333,25.88633488246373L160.7009775,37.67577601841518L160.9363541666667,30.545215007237033L161.17173083333333,39.01277127947125L161.4071075,45.16667273385184L161.64248416666666,41.60455120631627L161.87786083333333,54.155773871285575L162.11323750000003,55.18932397024972L162.34861416666666,53.37822156633651L162.58399083333333,38.693545695713595L162.8193675,48.62767802647181L163.05474416666667,34.888023703438904L163.29012083333333,58.65978208269391L163.76087416666667,66.05900573730469L163.99625083333333,42.25566722324916L164.2316275,56.598990195138114L164.46700416666667,40.302367401123036L164.70238083333334,47.521428026471824L164.9377575,41.459170695713595L165.17313416666664,49.41469279697964L165.40851083333334,43.121719142368846L165.6438875,46.88609243120467L165.87926416666667,45.315226691109814L166.11464083333334,45.30892802647182L166.35001749999998,42.03760610307964L166.58539416666667,47.992409951346275L166.82077083333334,49.47473749433246L167.0561475,45.5364901951381L167.29152416666668,38.88634463718961L167.7622775,34.4233983176095L167.99765416666668,26.33830506461007L168.23303083333332,31.110927690778453L168.4684075,23.604250553676053L168.70378416666665,39.009597832815984L168.93916083333335,32.25518188476562L169.1745375,31.35435709272113L169.40991416666665,23.56001521519252L169.64529083333335,35.324223109654014L169.8806675,41.073582458496105L170.11604416666668,40.198029490879605L170.35142083333335,31.841109793526783L170.5867975,43.64952408926828L170.82217416666668,23.996195329938615L171.05755083333332,38.09617571149553L171.2929275,39.30356123788016L171.52830416666666,40.4319096156529L171.76368083333332,40.5330837249756L171.99905750000002,37.966565976824086L172.23443416666666,26.673320715768L172.46981083333333,29.672825840541293L172.7051875,29.52426223754884L172.94056416666666,23.879250444684715L173.17594083333336,36.212383052280956L173.4113175,32.66287814549037L173.64669416666666,49.12707628522601L173.88207083333333,24.258501434326178L174.1174475,33.85763740539551L174.35282416666666,29.36307236807687L174.58820083333333,38.080318123953674L174.8235775,29.505337306431358L175.05895416666667,31.11098556518556L175.29433083333333,38.82308791024346L175.5297075,31.224737712315147L175.76508416666667,18.306890324183883L176.00046083333334,16.09754447937013L176.23583749999997,31.379648208618164L176.47121416666667,32.17613509041922L176.70659083333334,31.42701841081893L176.9419675,39.54691347394672L177.17734416666667,20.898699188232428L177.4127208333333,28.15254233224053L177.6480975,36.84134281703405L177.88347416666667,26.022233636038635L178.11885083333334,26.398340116228383L178.3542275,21.233724485124867L178.82498083333334,43.98455903189523L179.0603575,20.724844469342912L179.29573416666665,30.535713958740246L179.53111083333334,27.814362880161838L179.76648749999998,40.463509041922435L180.00186416666668,32.29941722324918L180.23724083333335,27.997651127406527L180.47261749999998,29.002775246756414L180.70799416666668,31.521864918300082L180.94337083333332,26.59112941196986L181.17874750000001,30.646350533621643L181.41412416666668,26.06645932878766L181.64950083333332,24.821137128557496L181.88487750000002,15.955337415422719L182.12025416666665,30.88653896876744L182.35563083333332,15.09246858869281L182.59100750000002,27.11264533996581L182.82638416666666,33.010558646065846L183.06176083333335,23.49680671691894L183.2971375,40.34022690909248L183.53251416666666,30.968739918300088L183.76789083333335,39.59750535147529L184.0032675,36.46207253592354L184.2386441666667,26.546894073486328L184.47402083333333,44.499728066580616L184.7093975,26.648039245605474L184.9447741666667,33.25076637268066L185.18015083333333,37.606249564034584L185.4155275,27.103163582938038L185.65090416666666,15.69613723754884L185.88628083333333,39.057006617954784L186.1216575,20.63949901035852L186.35703416666666,27.210617065429688L186.59241083333333,36.08279260907855L186.8277875,51.75357121058873L187.06316416666667,30.203852462768566L187.2985408333333,20.84496280125211L187.5339175,28.36744929722377L187.76929416666667,19.466896002633234L188.00467083333334,16.268245043073364L188.2400475,27.555181993756975L188.47542416666664,12.383743776593889L188.71080083333334,28.667740304129467L189.18155416666667,36.16495497567314L189.41693083333334,37.29330335344585L189.65230749999998,39.65434766496932L189.88768416666667,22.88045392717632L190.12306083333334,25.595496695382252L190.35843749999998,33.25708432878767L190.59381416666668,28.895283181326732L190.8291908333333,35.11559551783972L191.0645675,40.352891758510054L191.29994416666668,28.6930314200265L191.53532083333332,26.37625138419014L191.7706975,30.72851290021626L192.00607416666665,30.6210497719901L192.24145083333335,29.824524307250982L192.4768275,24.359685189383384L192.71220416666665,28.237878145490356L192.94758083333335,31.152076394217346L193.1829575,22.074456351143994L193.41833416666665,28.484432765415733L193.65371083333335,37.0436235155378L193.8890875,33.623709051949646L194.12446416666668,30.97818309238977L194.35984083333332,24.48926598685128L194.5952175,23.326106153215676L194.83059416666669,28.12090432303293L195.06597083333332,23.224970626831066L195.30134750000002,25.1530275617327L195.53672416666666,22.769846289498474L195.77210083333333,30.53885846819196L196.00747750000002,27.457181331089572L196.24285416666666,23.96458625793457L196.47823083333333,27.56780826023646L196.7136075,20.42141859872001L196.94898416666666,17.835956627982L197.18436083333336,23.145972061157238L197.4197375,35.232530757359086L197.65511416666666,28.96167477199009L197.89049083333333,16.77395161220005L198.1258675,23.4525617327009L198.3612441666667,21.67302981785366L198.59662083333333,19.55538597106934L198.8319975,13.578474099295477L199.06737416666667,36.41146136692592L199.30275083333333,26.50260086059569L199.5381275,19.245613207135875L199.77350416666667,15.449601909092479L200.00888083333334,19.176106044224326L200.2442575,26.316148812430242L200.47963416666667,17.11214071001325L200.9503875,15.421156638009194L201.18576416666667,14.74792295183454L201.4211408333333,40.63732517787389L201.6565175,19.72919246128629L201.89189416666665,27.618351909092496L202.12727083333334,23.41460576738629L202.3626475,24.290110506330223L202.59802416666665,33.203338296072815L202.83340083333334,11.018293598720021L203.06877749999998,21.79630230494908L203.30415416666668,21.963848713466092L203.53953083333334,34.549786376953136L203.77490749999998,9.817197091238853L204.01028416666668,27.39392460414342L204.24566083333332,8.293730490548256L204.48103749999999,30.896040017264227L204.71641416666668,25.819933646065834L204.95179083333332,15.41800248282297L205.18716750000002,29.15445442199706L205.42254416666665,37.198476137433715L205.65792083333332,22.403182983398438L205.89329750000002,23.237625830514077L206.12867416666666,37.789576394217335L206.36405083333335,21.407569558279846L206.5994275,26.18026935032435L206.83480416666666,22.719273703438915L207.07018083333335,19.191896111624573L207.3055575,16.065964344569608L207.77631083333333,27.42239881243026L208.0116875,13.439421190534318L208.2470641666667,26.80920017787389L208.48244083333333,24.982317352294928L208.7178175,24.075193895612443L208.95319416666666,13.584792055402488L209.18857083333333,25.121418489728654L209.42394750000003,19.55855941772461L209.65932416666666,11.919089453560986L209.89470083333333,36.77811502729142L210.1300775,28.127251216343467L210.36545416666667,22.520137514386874L210.60083083333333,20.298165403093606L210.8362075,35.889974376133495L211.07158416666667,22.722398921421586L211.30696083333333,19.76081117902484L211.5423375,20.557326998029453L211.77771416666667,31.78103615897041L212.01309083333334,24.328095408848355L212.2484675,37.88435538155693L212.48384416666664,34.742614255632674L212.71922083333334,25.883151790073924L212.9545975,19.653376988002236L213.18997416666667,28.045069558279835L213.42535083333334,22.181958062308155L213.66072749999998,17.703202383858837L213.89610416666667,17.905483082362593L214.13148083333334,12.838858468191944L214.3668575,26.256113760811928L214.60223416666668,24.4955935886928L214.83761083333331,11.486082785470131L215.0729875,24.881191471644826L215.54374083333332,36.33244350978305L215.7791175,11.862218202863403L216.01449416666665,39.676484625680104L216.24987083333335,40.21699300493512L216.48524749999999,31.692526899065285L216.72062416666665,37.99812682015556L216.95600083333335,26.151785496303006L217.1913775,26.632220241001676L217.42675416666668,20.336082785470154L217.66213083333332,16.931958389282215L217.8975075,8.948019954136441L218.13288416666668,22.011286435808472L218.36826083333332,17.76008328029087L218.6036375,27.3149356842041L218.83901416666666,30.001552472795765L219.07439083333333,17.387169538225464L219.30976750000002,39.17076841081891L219.54514416666666,14.67525198800223L219.78052083333333,25.993759427751797L220.0158975,22.27993943350654L220.25127416666666,18.973815699986034L220.48665083333336,28.66772101266045L220.7220275,28.136704036167686L220.95740416666666,19.602785110473633L221.19278083333333,17.971893964494996L221.4281575,41.54764137268066L221.66353416666666,17.093177195957736L221.89891083333333,11.056220626831049L222.1342875,32.59648655482701L222.36966416666667,16.729696982247475L222.60504083333333,16.55904464721681L222.8404175,18.57237952096122L223.07579416666667,14.725795636858265L223.31117083333334,15.993274089268283L223.54654749999997,6.251959991455067L223.78192416666667,27.118953650338312L224.01730083333334,30.026824297223754L224.2526775,19.757666669573098L224.48805416666667,11.375446210588734L224.7234308333333,27.700552858625144L224.9588075,25.848359625680104L225.19418416666667,46.61110218593052L225.42956083333334,23.15545381818501L225.6649375,19.48584987095424L225.90031416666665,26.57215625217981L226.13569083333334,18.322728620256697L226.3710675,5.591323634556346L226.84182083333334,19.166624287196584L227.07719749999998,32.09078963143486L227.31257416666668,17.99402127947124L227.54795083333335,25.055007607596252L227.78332749999998,19.14450661795479L228.25408083333332,35.23252111162458L228.48945750000001,30.390304510934016L228.72483416666668,19.327804510934016L228.96021083333332,25.601843588692788L229.19558750000002,25.42482506888254L229.43096416666666,12.81356735229491L229.66634083333332,13.73652910505021L229.90171750000002,25.81675055367606L230.13709416666666,24.86220866612024L230.37247083333335,27.943924386160717L230.6078475,24.811665017264232L230.84322416666666,29.34093540736609L231.07860083333335,18.003454807826444L231.3139775,31.044574683053156L231.5493541666667,27.947059249877924L231.78473083333333,39.61643028259277L232.0201075,13.720700454711903L232.25548416666666,31.00032005310058L232.49086083333333,28.143060575212758L232.7262375,27.466624505179283L232.96161416666666,26.670137623378224L233.19699083333333,19.808239255632657L233.4323675,9.087092154366616L233.66774416666667,23.932938602992465L233.90312083333333,29.192371804373607L234.1384975,29.11337323869978L234.37387416666667,28.942711257934576L234.6092508333333,21.06304321289062L234.8446275,38.36163597106935L235.08000416666667,30.816983577183322L235.31538083333334,22.090256064278748L235.5507575,24.230046517508384L235.78613416666664,29.925640542166576L236.02151083333334,30.36186888558524L236.2568875,24.501892253330766L236.49226416666667,34.205288968767434L236.72764083333334,20.516216877528592L236.96301749999998,31.15834612165179L237.19839416666667,17.346040126255588L237.43377083333334,7.702688108171742L237.66914749999998,18.300562722342335L237.90452416666668,25.396379797799256L238.13990083333331,15.092449297223766L238.3752775,23.556841768537254L238.61065416666668,31.91690597534179L238.84603083333332,20.095865413120805L239.0814075,18.23103626796177L239.31678416666665,25.854677581787115L239.55216083333335,11.770545142037548L240.02291416666665,52.20557032993861L240.25829083333335,7.446680668422147L240.4936675,20.86706117902483L240.72904416666665,28.0197784423828L241.1997975,20.93344312395368L241.43517416666668,37.62202998570035L241.67055083333332,13.433074297223754L241.9059275,46.30765702383857L242.14130416666669,42.1544545309884L242.37668083333332,33.85758917672294L242.61205750000002,18.613489641462053L242.84743416666666,31.442827769688193L243.08281083333333,30.54834987095424L243.55356416666666,27.35285306658065L243.78894083333333,26.916672951834556L244.0243175,25.228843035016723L244.25969416666666,40.37818287440709L244.49507083333336,28.212567738124307L244.7304475,27.766925157819458L244.96582416666666,25.661897931780118L245.20120083333333,10.455706133161272L245.4365775,35.602309635707314L245.6719541666667,33.086431993756975L245.90733083333333,46.386703818185L246.1427075,22.63073550633021L246.37808416666667,18.136209051949635L246.61346083333333,33.690100642613004L246.84883749999997,36.52526174272808L247.08421416666667,36.322961752755305L247.5549675,26.256113760811928L247.79034416666667,21.028270339965815L248.0257208333333,35.76038393293109L248.49647416666667,32.457414354596835L248.7318508333333,32.75137775966101L248.9672275,26.26558587210519L249.20260416666665,21.281133270263666L249.43798083333334,21.43286067417688L249.6733575,31.442818123953685L249.90873416666665,20.193798555646623L250.14411083333334,18.509180668422147L250.37948749999998,12.307880074637268L250.61486416666668,38.75354216439385L250.85024083333334,21.884830856323248L251.08561749999998,22.33367582048689L251.32099416666668,17.674747467041016L251.55637083333332,33.614227294921875L251.79174749999999,27.60256184169225L252.02712416666668,8.119914354596801L252.26250083333332,15.253648812430242L252.49787750000002,14.789013780866355L252.73325416666665,12.671350642612992L252.96863083333332,20.750125939505438L253.20400750000002,29.002755955287398L253.43938416666666,14.744778442382824L253.67476083333335,25.352144459315724L253.9101375,13.477319281441822L254.14551416666666,28.035568509783047L254.38089083333335,11.802154214041565L254.6162675,21.58458807809012L254.85164416666666,27.90599735804966L255.08702083333333,39.154959051949646L255.3223975,25.582880074637274L255.5577741666667,14.9849765232631L255.79315083333333,6.498476028442383L256.0285275,30.516740798950195L256.26390416666663,25.23201648167202L256.49928083333333,30.058443014962336L256.7346575,22.0492134639195L256.97003416666666,19.564867728097084L257.20541083333336,29.70130004882813L257.4407875,25.146719251360196L257.6761641666667,30.339731924874428L257.91154083333333,22.393710872105174L258.1469175,30.817012514386874L258.38229416666667,17.57680467878069L258.6176708333333,24.018332290649425L259.0884241666667,17.861238098144526L259.32380083333334,19.846156638009205L259.79455416666667,37.43870315551757L260.0299308333333,17.617856924874445L260.2653075,36.098553739275246L260.50068416666664,22.889926038469582L260.73606083333334,20.399300929478244L260.9714375,19.67866810389927L261.2068141666667,40.24539969308037L261.6775675,27.00518221173968L261.91294416666665,43.01106327601843L262.14832083333334,32.526960100446445L262.3836975,26.777629688807906L262.6190741666667,33.905046190534335L262.8544508333333,28.478085872105197L263.0898275,21.303279876708984L263.32520416666665,24.55248413085937L263.56058083333335,30.4345687866211L263.7959575,41.857375553676064L264.0313341666667,27.86808962140765L264.2667108333333,37.24907766069683L264.5020875,29.189246586390908L264.73746416666665,17.387140601021912L264.9728408333333,29.96046164376395L265.2082175,32.95047536577496L265.4435941666667,24.22378643580845L265.6789708333333,26.38569455827985L265.9143475,33.56368364606587L266.14972416666666,23.029046467372353L266.38510083333335,21.739440699986034L266.6204775,32.55225121634348L266.85585416666663,21.67624184744699L267.0912308333333,22.89942708696637L267.32660749999997,23.645360674176914L267.56198416666666,32.14770911080498L267.79736083333336,30.339741570608936L268.0327375,35.39373027256556L268.2681141666667,25.178309031895225L268.50349083333333,38.307899584089" style="fill: none;" fill="none"></path></g></g></g></g></g></g><g transform="translate(37, 177)" clip-path="url(#clip_1)"><clipPath id="clip_1"><rect width="293" height="23"></rect></clipPath><g><g><line x1="0" y1="0" x2="0" y2="5" style="visibility: inherit;" fill="rgb(0, 0, 0)" stroke="rgb(204, 204, 204)" stroke-width="1px"></line><line x1="24.416666666666664" y1="0" x2="24.416666666666664" y2="5" style="visibility: inherit;" fill="rgb(0, 0, 0)" stroke="rgb(204, 204, 204)" stroke-width="1px"></line><line x1="48.83333333333333" y1="0" x2="48.83333333333333" y2="5" style="visibility: inherit;" fill="rgb(0, 0, 0)" stroke="rgb(204, 204, 204)" stroke-width="1px"></line><line x1="73.25" y1="0" x2="73.25" y2="5" style="visibility: inherit;" fill="rgb(0, 0, 0)" stroke="rgb(204, 204, 204)" stroke-width="1px"></line><line x1="97.66666666666666" y1="0" x2="97.66666666666666" y2="5" style="visibility: inherit;" fill="rgb(0, 0, 0)" stroke="rgb(204, 204, 204)" stroke-width="1px"></line><line x1="122.08333333333334" y1="0" x2="122.08333333333334" y2="5" style="visibility: inherit;" fill="rgb(0, 0, 0)" stroke="rgb(204, 204, 204)" stroke-width="1px"></line><line x1="146.5" y1="0" x2="146.5" y2="5" style="visibility: inherit;" fill="rgb(0, 0, 0)" stroke="rgb(204, 204, 204)" stroke-width="1px"></line><line x1="170.91666666666669" y1="0" x2="170.91666666666669" y2="5" style="visibility: inherit;" fill="rgb(0, 0, 0)" stroke="rgb(204, 204, 204)" stroke-width="1px"></line><line x1="195.33333333333331" y1="0" x2="195.33333333333331" y2="5" style="visibility: inherit;" fill="rgb(0, 0, 0)" stroke="rgb(204, 204, 204)" stroke-width="1px"></line><line x1="219.75" y1="0" x2="219.75" y2="5" style="visibility: inherit;" fill="rgb(0, 0, 0)" stroke="rgb(204, 204, 204)" stroke-width="1px"></line><line x1="244.16666666666669" y1="0" x2="244.16666666666669" y2="5" style="visibility: inherit;" fill="rgb(0, 0, 0)" stroke="rgb(204, 204, 204)" stroke-width="1px"></line><line x1="268.5833333333333" y1="0" x2="268.5833333333333" y2="5" style="visibility: inherit;" fill="rgb(0, 0, 0)" stroke="rgb(204, 204, 204)" stroke-width="1px"></line><line x1="293" y1="0" x2="293" y2="5" style="visibility: inherit;" fill="rgb(0, 0, 0)" stroke="rgb(204, 204, 204)" stroke-width="1px"></line></g><g transform="translate(0, 8)"><text x="0" y="0" dx="0em" dy="0.95em" style="text-anchor: middle; visibility: hidden; font-family: &quot;Helvetica Neue&quot;, sans-serif; font-size: 12px; font-weight: 200;" fill="rgb(50, 49, 63)" stroke="none" stroke-width="1px">-100k</text><text x="24.416666666666664" y="0" dx="0em" dy="0.95em" style="text-anchor: middle; visibility: inherit; font-family: &quot;Helvetica Neue&quot;, sans-serif; font-size: 12px; font-weight: 200;" fill="rgb(50, 49, 63)" stroke="none" stroke-width="1px">0</text><text x="48.83333333333333" y="0" dx="0em" dy="0.95em" style="text-anchor: middle; visibility: hidden; font-family: &quot;Helvetica Neue&quot;, sans-serif; font-size: 12px; font-weight: 200;" fill="rgb(50, 49, 63)" stroke="none" stroke-width="1px">100k</text><text x="73.25" y="0" dx="0em" dy="0.95em" style="text-anchor: middle; visibility: inherit; font-family: &quot;Helvetica Neue&quot;, sans-serif; font-size: 12px; font-weight: 200;" fill="rgb(50, 49, 63)" stroke="none" stroke-width="1px">200k</text><text x="97.66666666666666" y="0" dx="0em" dy="0.95em" style="text-anchor: middle; visibility: hidden; font-family: &quot;Helvetica Neue&quot;, sans-serif; font-size: 12px; font-weight: 200;" fill="rgb(50, 49, 63)" stroke="none" stroke-width="1px">300k</text><text x="122.08333333333334" y="0" dx="0em" dy="0.95em" style="text-anchor: middle; visibility: inherit; font-family: &quot;Helvetica Neue&quot;, sans-serif; font-size: 12px; font-weight: 200;" fill="rgb(50, 49, 63)" stroke="none" stroke-width="1px">400k</text><text x="146.5" y="0" dx="0em" dy="0.95em" style="text-anchor: middle; visibility: hidden; font-family: &quot;Helvetica Neue&quot;, sans-serif; font-size: 12px; font-weight: 200;" fill="rgb(50, 49, 63)" stroke="none" stroke-width="1px">500k</text><text x="170.91666666666669" y="0" dx="0em" dy="0.95em" style="text-anchor: middle; visibility: inherit; font-family: &quot;Helvetica Neue&quot;, sans-serif; font-size: 12px; font-weight: 200;" fill="rgb(50, 49, 63)" stroke="none" stroke-width="1px">600k</text><text x="195.33333333333331" y="0" dx="0em" dy="0.95em" style="text-anchor: middle; visibility: hidden; font-family: &quot;Helvetica Neue&quot;, sans-serif; font-size: 12px; font-weight: 200;" fill="rgb(50, 49, 63)" stroke="none" stroke-width="1px">700k</text><text x="219.75" y="0" dx="0em" dy="0.95em" style="text-anchor: middle; visibility: inherit; font-family: &quot;Helvetica Neue&quot;, sans-serif; font-size: 12px; font-weight: 200;" fill="rgb(50, 49, 63)" stroke="none" stroke-width="1px">800k</text><text x="244.16666666666669" y="0" dx="0em" dy="0.95em" style="text-anchor: middle; visibility: hidden; font-family: &quot;Helvetica Neue&quot;, sans-serif; font-size: 12px; font-weight: 200;" fill="rgb(50, 49, 63)" stroke="none" stroke-width="1px">900k</text><text x="268.5833333333333" y="0" dx="0em" dy="0.95em" style="text-anchor: middle; visibility: inherit; font-family: &quot;Helvetica Neue&quot;, sans-serif; font-size: 12px; font-weight: 200;" fill="rgb(50, 49, 63)" stroke="none" stroke-width="1px">1M</text><text x="293" y="0" dx="0em" dy="0.95em" style="text-anchor: middle; visibility: hidden; font-family: &quot;Helvetica Neue&quot;, sans-serif; font-size: 12px; font-weight: 200;" fill="rgb(50, 49, 63)" stroke="none" stroke-width="1px">1.1M</text></g><line x1="0" y1="0" x2="293" y2="0" fill="rgb(0, 0, 0)" stroke="rgb(204, 204, 204)" stroke-width="1px"></line></g></g></g></g></svg>