<svg viewBox="0 0 330 200" xmlns="http://www.w3.org/2000/svg"><g><g><g><g><g><line x1="46" y1="177" x2="41" y2="177" style="visibility: inherit;" fill="rgb(0, 0, 0)" stroke="rgb(204, 204, 204)" stroke-width="1px"></line><line x1="46" y1="151.71428571428572" x2="41" y2="151.71428571428572" style="visibility: inherit;" fill="rgb(0, 0, 0)" stroke="rgb(204, 204, 204)" stroke-width="1px"></line><line x1="46" y1="126.42857142857143" x2="41" y2="126.42857142857143" style="visibility: inherit;" fill="rgb(0, 0, 0)" stroke="rgb(204, 204, 204)" stroke-width="1px"></line><line x1="46" y1="101.14285714285715" x2="41" y2="101.14285714285715" style="visibility: inherit;" fill="rgb(0, 0, 0)" stroke="rgb(204, 204, 204)" stroke-width="1px"></line><line x1="46" y1="75.85714285714286" x2="41" y2="75.85714285714286" style="visibility: inherit;" fill="rgb(0, 0, 0)" stroke="rgb(204, 204, 204)" stroke-width="1px"></line><line x1="46" y1="50.57142857142857" x2="41" y2="50.57142857142857" style="visibility: inherit;" fill="rgb(0, 0, 0)" stroke="rgb(204, 204, 204)" stroke-width="1px"></line><line x1="46" y1="25.285714285714306" x2="41" y2="25.285714285714306" style="visibility: inherit;" fill="rgb(0, 0, 0)" stroke="rgb(204, 204, 204)" stroke-width="1px"></line><line x1="46" y1="0" x2="41" y2="0" style="visibility: inherit;" fill="rgb(0, 0, 0)" stroke="rgb(204, 204, 204)" stroke-width="1px"></line></g><g transform="translate(36, 0)"><text x="0" y="177" dx="0em" dy="0.3em" style="text-anchor: end; visibility: hidden; font-family: &quot;Helvetica Neue&quot;, sans-serif; font-size: 12px; font-weight: 200;" fill="rgb(50, 49, 63)" stroke="none" stroke-width="1px">-2</text><text x="0" y="151.71428571428572" dx="0em" dy="0.3em" style="text-anchor: end; visibility: inherit; font-family: &quot;Helvetica Neue&quot;, sans-serif; font-size: 12px; font-weight: 200;" fill="rgb(50, 49, 63)" stroke="none" stroke-width="1px">-1.5</text><text x="0" y="126.42857142857143" dx="0em" dy="0.3em" style="text-anchor: end; visibility: inherit; font-family: &quot;Helvetica Neue&quot;, sans-serif; font-size: 12px; font-weight: 200;" fill="rgb(50, 49, 63)" stroke="none" stroke-width="1px">-1</text><text x="0" y="101.14285714285715" dx="0em" dy="0.3em" style="text-anchor: end; visibility: inherit; font-family: &quot;Helvetica Neue&quot;, sans-serif; font-size: 12px; font-weight: 200;" fill="rgb(50, 49, 63)" stroke="none" stroke-width="1px">-0.5</text><text x="0" y="75.85714285714286" dx="0em" dy="0.3em" style="text-anchor: end; visibility: inherit; font-family: &quot;Helvetica Neue&quot;, sans-serif; font-size: 12px; font-weight: 200;" fill="rgb(50, 49, 63)" stroke="none" stroke-width="1px">0</text><text x="0" y="50.57142857142857" dx="0em" dy="0.3em" style="text-anchor: end; visibility: inherit; font-family: &quot;Helvetica Neue&quot;, sans-serif; font-size: 12px; font-weight: 200;" fill="rgb(50, 49, 63)" stroke="none" stroke-width="1px">0.5</text><text x="0" y="25.285714285714306" dx="0em" dy="0.3em" style="text-anchor: end; visibility: inherit; font-family: &quot;Helvetica Neue&quot;, sans-serif; font-size: 12px; font-weight: 200;" fill="rgb(50, 49, 63)" stroke="none" stroke-width="1px">1</text><text x="0" y="0" dx="0em" dy="0.3em" style="text-anchor: end; visibility: hidden; font-family: &quot;Helvetica Neue&quot;, sans-serif; font-size: 12px; font-weight: 200;" fill="rgb(50, 49, 63)" stroke="none" stroke-width="1px">1.5</text></g><line x1="46" y1="0" x2="46" y2="177" fill="rgb(0, 0, 0)" stroke="rgb(204, 204, 204)" stroke-width="1px"></line></g></g><g transform="translate(46, 0)" clip-path="url(#clip_0)"><clipPath id="clip_0"><rect width="284" height="177"></rect></clipPath><g><g><g><line x1="0" y1="0" x2="0" y2="177" fill="rgb(0, 0, 0)" stroke="rgb(60, 60, 60)" stroke-width="1px" opacity="0.25"></line><line x1="23.666666666666664" y1="0" x2="23.666666666666664" y2="177" fill="rgb(0, 0, 0)" stroke="rgb(60, 60, 60)" stroke-width="1px" opacity="0.25"></line><line x1="47.33333333333333" y1="0" x2="47.33333333333333" y2="177" fill="rgb(0, 0, 0)" stroke="rgb(60, 60, 60)" stroke-width="1px" opacity="0.25"></line><line x1="71" y1="0" x2="71" y2="177" fill="rgb(0, 0, 0)" stroke="rgb(60, 60, 60)" stroke-width="1px" opacity="0.25"></line><line x1="94.66666666666666" y1="0" x2="94.66666666666666" y2="177" fill="rgb(0, 0, 0)" stroke="rgb(60, 60, 60)" stroke-width="1px" opacity="0.25"></line><line x1="118.33333333333334" y1="0" x2="118.33333333333334" y2="177" fill="rgb(0, 0, 0)" stroke="rgb(60, 60, 60)" stroke-width="1px" opacity="0.25"></line><line x1="142" y1="0" x2="142" y2="177" fill="rgb(0, 0, 0)" stroke="rgb(60, 60, 60)" stroke-width="1px" opacity="0.25"></line><line x1="165.66666666666669" y1="0" x2="165.66666666666669" y2="177" fill="rgb(0, 0, 0)" stroke="rgb(60, 60, 60)" stroke-width="1px" opacity="0.25"></line><line x1="189.33333333333331" y1="0" x2="189.33333333333331" y2="177" fill="rgb(0, 0, 0)" stroke="rgb(60, 60, 60)" stroke-width="1px" opacity="0.25"></line><line x1="213" y1="0" x2="213" y2="177" fill="rgb(0, 0, 0)" stroke="rgb(60, 60, 60)" stroke-width="1px" opacity="0.25"></line><line x1="236.66666666666669" y1="0" x2="236.66666666666669" y2="177" fill="rgb(0, 0, 0)" stroke="rgb(60, 60, 60)" stroke-width="1px" opacity="0.25"></line><line x1="260.3333333333333" y1="0" x2="260.3333333333333" y2="177" fill="rgb(0, 0, 0)" stroke="rgb(60, 60, 60)" stroke-width="1px" opacity="0.25"></line><line x1="284" y1="0" x2="284" y2="177" fill="rgb(0, 0, 0)" stroke="rgb(60, 60, 60)" stroke-width="1px" opacity="0.25"></line></g><g><line x1="0" y1="177" x2="284" y2="177" fill="rgb(0, 0, 0)" stroke="rgb(60, 60, 60)" stroke-width="1px" opacity="0.25"></line><line x1="0" y1="151.71428571428572" x2="284" y2="151.71428571428572" fill="rgb(0, 0, 0)" stroke="rgb(60, 60, 60)" stroke-width="1px" opacity="0.25"></line><line x1="0" y1="126.42857142857143" x2="284" y2="126.42857142857143" fill="rgb(0, 0, 0)" stroke="rgb(60, 60, 60)" stroke-width="1px" opacity="0.25"></line><line x1="0" y1="101.14285714285715" x2="284" y2="101.14285714285715" fill="rgb(0, 0, 0)" stroke="rgb(60, 60, 60)" stroke-width="1px" opacity="0.25"></line><line x1="0" y1="75.85714285714286" x2="284" y2="75.85714285714286" fill="rgb(0, 0, 0)" stroke="rgb(60, 60, 60)" stroke-width="1px" opacity="0.25"></line><line x1="0" y1="50.57142857142857" x2="284" y2="50.57142857142857" fill="rgb(0, 0, 0)" stroke="rgb(60, 60, 60)" stroke-width="1px" opacity="0.25"></line><line x1="0" y1="25.285714285714306" x2="284" y2="25.285714285714306" fill="rgb(0, 0, 0)" stroke="rgb(60, 60, 60)" stroke-width="1px" opacity="0.25"></line><line x1="0" y1="0" x2="284" y2="0" fill="rgb(0, 0, 0)" stroke="rgb(60, 60, 60)" stroke-width="1px" opacity="0.25"></line></g></g></g><g><g><line x1="0" y1="75.85714285714286" x2="284" y2="75.85714285714286" fill="rgb(0, 0, 0)" stroke="rgb(153, 153, 153)" stroke-width="1.5px"></line></g></g><g><g><line x1="23.666666666666664" y1="0" x2="23.666666666666664" y2="177" fill="rgb(0, 0, 0)" stroke="rgb(153, 153, 153)" stroke-width="1.5px"></line></g></g><g><g><g><g><g><path stroke="rgb(255, 112, 67)" stroke-width="2px" d="M23.71755,74.88480232868876L23.865466666666666,74.95853451080299L23.938833333333335,94.68827534166056L24.22875,81.1833060190754L24.302116666666667,77.93079119222307L24.353,77.48770901049737L24.361283333333333,76.94527749425168L24.433466666666668,75.41193585698224L24.62398333333333,84.43750905909528L24.86775,87.67008428122394L25.24523333333333,79.74345136128679L25.306766666666665,82.41461998112774L25.367116666666668,79.89502838752657L25.71975,97.68742157289758L25.723300000000002,89.9081768980297L25.888966666666665,65.10577237719936L26.3978,125.57800089340324L26.494833333333332,109.41043005632831L26.608433333333334,95.0580327419458L26.609616666666668,86.19381253854912L26.8451,83.76589520083955L27.490016666666666,78.23269457230778L27.508950000000002,82.66681581734103L27.578766666666667,73.09471469991576L27.94915,81.12030547667732L27.951516666666667,74.59026560286888L28.7763,79.94537140627513L28.87451666666667,162.5390935109812L28.983383333333332,132.39135941592315L29.0035,118.51075769935551L29.5502,91.59269973817798L29.74308333333333,86.84679675381781L29.992766666666665,67.62754086499383L30.440066666666667,70.82458887165001L30.6578,64.10823602255653L30.756016666666664,65.87390663363506L31.004516666666664,69.18308529126057L31.595,67.70625585350784L31.609199999999998,5.689128462285709L31.778416666666665,34.05127620655921L31.91095,48.290344414738L32.1346,58.95983279129908L32.49551666666667,61.89754170293722L32.499066666666664,76.63161759012912L32.89548333333333,78.16422848601756L32.9369,82.33331434153737L33.21261666666667,84.4481423423255L33.347516666666664,59.38441850147211L33.396033333333335,60.03490530038759L33.723816666666664,67.15914310701606L33.73565,71.629010194399L34.17348333333334,73.51442897894414L34.24093333333333,87.17005288875846L34.62551666666667,79.59790384150394L34.871649999999995,85.2910554729157L34.973416666666665,85.27565365221848L35.143816666666666,86.48097336463523L35.973333333333336,26.696144612285792L36.068,45.5473794862817L36.118883333333336,54.56801984663291L36.5721,61.50214753179654L36.644283333333334,93.62035302501667L36.70818333333334,90.71251334597797L37.314049999999995,89.21869522115252L37.354283333333335,100.66225440615938L37.83116666666667,79.31438957171017L37.83708333333334,80.70952849590557L38.06191666666667,52.875773847538724L38.211016666666666,59.24766559319009L38.905633333333334,22.440329452280935L39.09141666666667,53.545852842797245L39.12336666666667,35.39355965887418L39.78485,44.67601813737798L40.58241666666667,53.222059988341286L41.02498333333333,51.99239635091881L41.156333333333336,82.39454581830246L41.26756666666667,74.64664019107703L41.97756666666667,73.70708246920032L42.32191666666667,53.63493516749995L42.73845,29.359700782675986L43.6153,47.93751639319848L43.86261666666667,83.43630753660983L43.8993,67.07439455375231L44.15963333333333,95.45642130339634L44.18566666666666,139.65326443696586L44.42706666666667,98.91210093162839L44.44363333333333,90.76501452810454L45.501533333333334,73.90310600921855L46.77953333333333,77.00534413128679L46.908516666666664,31.619475942676246L47.0162,42.910957956318526L47.328599999999994,48.937364288809846L47.39723333333333,53.40195523334832L47.40788333333333,66.98131388858076L47.62325,69.09511328277877L47.71673333333334,73.4851311302115L47.855183333333336,72.67525456961269L47.97233333333333,67.57253655769597L48.018483333333336,63.99542028370237L48.25633333333333,67.63699906398405L48.259883333333335,58.5999437623684L48.346266666666665,59.62204375804899L48.612516666666664,52.843688492646436L48.68825,54.621901635439386L48.79238333333333,61.45092935961537L48.89533333333333,65.63897107061388L49.52131666666667,72.12345381645487L49.991099999999996,75.67635659722308L50.091683333333336,95.79370125828319L50.12481666666666,118.21523849876915L51.04781666666666,105.51279863947963L51.05965,95.9537140532088L51.222950000000004,78.40712583907067L51.3117,71.31812733643963L51.3898,193.44500871215516L51.523516666666666,154.77808322604193L51.67735,117.41910514604777L51.71403333333334,185.36381239223675L52.2418,149.92985228331355L52.40155,146.85290789600978L52.40391666666667,106.9383166745519L52.448883333333335,94.81688330997024L52.8027,70.62340294965954L52.928133333333335,73.65465572080113L53.17308333333333,71.77532092011695L53.55056666666667,124.81071123670745L53.71386666666666,110.15498814708191L54.21205,52.40416680377868L54.25346666666667,41.4158487408813L54.34103333333333,51.89499993502082L54.79306666666667,53.727137218899514L55.377633333333335,27.524941594311144L55.378816666666665,51.012835891416756L55.80008333333333,62.746558418747114L56.21543333333333,66.34168800749931L56.3314,74.8816333125292L56.37281666666667,61.947221446965344L56.594100000000005,71.16091985198373L56.70178333333333,71.40337353811296L57.31948333333334,73.57965681720236L57.443733333333334,74.9917121821362L57.94901666666667,92.66681381090736L57.97978333333333,83.6032242909387L58.05788333333333,95.4978635427094L58.222366666666666,87.01974734620427L58.29573333333333,80.10001505891132L58.541866666666664,48.7575827045043L58.70753333333333,63.3296137811589L58.9655,69.73768879086825L59.173766666666666,73.13959033319362L59.20453333333333,96.12155964282867L59.37375,90.02656096528209L59.5548,88.51053071991787L59.724016666666664,86.94529428236537L59.892050000000005,83.0549239695222L60.00328333333333,90.72341367863893L60.019850000000005,87.41939866247114L60.83161666666667,71.22627604119096L60.875400000000006,57.42986242912775L61.392516666666666,45.679419138821345L61.458783333333336,52.60924440841174L61.779466666666664,69.45357733411132L62.04926666666667,70.38280781895564L62.17588333333334,48.653409358167636L62.31196666666667,61.84910852360218L62.43621666666667,141.83597111632625L62.59241666666667,122.20600722445978L62.60188333333333,94.59138445773064L62.75808333333333,121.67140734905108L62.93203333333333,115.12400232612967L63.16159999999999,106.7919240716705L63.19473333333333,84.66885624793419L63.58996666666666,104.02290265270457L63.60416666666667,98.60540846936581L63.646766666666664,94.68299099448375L63.71066666666667,89.63913605915776L63.75445,96.06683560930489L63.79823333333333,43.13436243292736L63.94378333333333,49.331943250936476L64.32955,68.51890060022603L64.52243333333332,97.11041575253563L64.61,78.03741123452382L65.47856666666667,84.01561249745265L65.50341666666667,81.96694951690377L65.65606666666666,82.7650227428896L65.99686666666666,77.2069500772183L66.21223333333333,73.39464476021519L66.31163333333333,45.64861764789089L67.01216666666666,81.7768493921072L67.04766666666667,89.32678839474859L67.17546666666667,81.20664486170374L67.27368333333334,80.53413813023083L67.69021666666667,11.419473696993094L68.02983333333334,45.493465545109046L68.35525,19.493925715680604L68.48778333333334,31.18786787424827L69.17293333333333,26.487830030955962L69.48651666666667,43.834148537890684L69.62851666666667,56.82588461822098L69.79536666666667,79.4160835364468L70.16811666666666,87.55540356215712L70.64855,57.25487344968485L70.8935,157.57165523564208L71.02485,114.394042111043L71.35145,102.02064519076261L71.59285,90.33598438459217L71.79046666666667,146.97703756859758L71.85318333333332,90.16843274897815L71.93956666666668,89.5299535226242L72.23185,88.80265057011934L72.5052,86.16057272635918L72.82233333333333,80.53665127383748L73.52641666666666,84.11246549351598L73.90035,90.66832755116872L73.92165,79.66568070925437L74.17015,73.05484601423925L75.16415,49.25709670948689L75.30733333333333,67.8203908524269L75.39253333333333,51.55522561375096L75.42448333333333,18.27737057135721L75.42921666666666,24.42307056276448L75.50376666666666,15.966315515314733L75.72623333333334,53.686250678603884L75.82090000000001,57.9676840118569L75.97118333333333,42.73639238010486L75.97946666666667,33.86865966984709L76.03153333333333,52.7332470509937L76.09425,64.99736877884341L76.70011666666666,58.08013847680196L76.87525000000001,42.91846851887624L77.35805,47.543663501010485L77.51780000000001,55.668427539625284L77.69648333333333,90.18972646715305L78.47748333333334,95.00182764012462L78.49641666666668,98.51884659234722L78.5899,89.98165204838011L79.6407,80.12581000626618L80.03948333333334,74.09614308002516L80.11876666666667,71.16506929175047L80.16491666666667,42.22406447999401L80.32821666666668,47.824124606387926L80.40513333333334,60.84416195357832L80.43235,72.64170705374517L80.55778333333333,80.25161219889996L80.68203333333334,59.44729061268407L80.73646666666667,60.371139151827194L81.08555,59.420000550654336L81.97305,59.79734907889386L82.06653333333333,97.30595755206599L82.21563333333333,93.04322663973765L82.84161666666667,88.01564609833163L82.90078333333334,86.0488881227566L83.02976666666666,91.32306858701695L83.06526666666666,82.84930282727699L83.80366666666666,76.5520046280093L83.99300000000001,49.5555071678524L84.17641666666667,64.28585366879267L84.28646666666667,65.13644129323329L84.96215,76.31328247275752L85.20236666666666,72.3134771319018L85.54671666666667,84.42127983446422L85.6189,88.73312582986813L85.80468333333333,83.92416527772623L86.00821666666666,87.18746971212627L86.27328333333332,85.53699241863453L86.31233333333333,73.74424526781532L86.49338333333334,83.92912454793994L86.51113333333333,67.0988719270094L86.93831666666667,69.11125185768154L87.21995,74.99547469287144L87.23296666666666,105.77673908459418L87.40455,106.26314388290643L87.45661666666666,90.54815363631258L87.71340000000001,69.17501766174281L88.38553333333333,58.22357125274385L88.52279999999999,56.402460641331984L88.67663333333333,76.23171641531499L88.72988333333333,89.32683670366869L89.10499999999999,174.6290552779666L89.39373333333333,132.9694414698027L89.40320000000001,116.19883711171708L89.5949,103.97350504568706L89.65761666666667,96.39177928920343L90.3333,92.01636919930944L90.53446666666666,85.5529973810497L90.55103333333334,99.08167249673596L90.65398333333334,119.43348194573414L90.86580000000001,102.5580333476735L90.90485000000001,98.6728893872852L91.47876666666667,102.2831108582617L91.69058333333334,81.50515822220724L92.82185,82.16610766504184L92.95911666666667,82.36311727806127L93.152,74.39777853654137L93.18395,75.67577426685658L93.20406666666666,52.13532978408165L93.79691666666668,86.15405132554875L93.85253333333334,81.47556038542167L93.99571666666667,98.81841577325167L94.24185,81.67127160779158L94.27735,84.80209751916503L94.87966666666667,94.73091048235793L94.88676666666667,99.7518556584718L94.9128,102.77592510646988L95.0193,94.19475798351965L95.22993333333334,72.640005241619L96.09376666666667,70.74289573959418L96.17778333333332,147.5786815412859L96.36948333333333,128.96284733044894L96.65585,95.11397369697605L97.199,85.93710490317075L97.29366666666667,81.19645160520258L97.64511666666667,62.3789886801994L97.6818,49.930131676755494L98.06875000000001,57.87879611386218L98.24625,59.20345537106212L98.47818333333332,49.89626994222242L98.8249,62.13157341188342L99.01186666666668,69.75647007742725L99.24143333333333,63.07111371786071L100.0177,81.82570129792705L100.21413333333334,80.00240782628701L100.45316666666668,77.62533572884362L100.93005000000001,84.108418781846L101.29570000000001,72.69930555773864L101.3454,51.04960963838339L101.82583333333332,46.84527306249345L102.12048333333334,44.881084871102814L102.69913333333332,60.654196452322395L102.92278333333334,69.5918600123623L102.97603333333333,72.35521258489185L103.47184999999999,59.47457334291458L104.44573333333334,49.59210348134779L104.46703333333333,48.12594889746623L104.58181666666667,50.78187777198059L104.64216666666667,26.594051532315035L104.83268333333334,46.00647390818801L105.5202,55.783511816919955L105.53676666666667,-12.472178037690185L105.85626666666667,19.37448725261021L106.16866666666667,86.52332389636935L106.26215,83.16212480159217L106.4006,78.92260754024592L107.04788333333333,64.72019184397816L107.18751666666667,54.20060494823721L107.27745,74.09120256907829L107.58393333333333,105.31616222747273L107.67978333333333,95.53273378476048L108.19098333333334,130.8577626661888L108.34008333333333,119.49796466824431L108.37085,107.52566562323658L108.50811666666668,88.74968795773168L108.75661666666666,65.05790635461058L108.81696666666666,74.71463133331812L108.84299999999999,70.39618374693599L108.88204999999999,99.21986227254288L108.91163333333334,60.94041156313732L109.2193,51.25871161637369L109.22166666666666,219.88691952546665L109.34236666666666,189.40660170431286L109.34591666666667,149.4228404780441L109.52815000000001,123.79783420320615L109.72340000000001,116.17237334922658L109.90090000000001,104.8777268226342L110.06183333333334,97.43670959978917L110.26299999999999,92.91952855362557L110.99075,87.99414410476197L111.04636666666667,84.46519276202933L111.11736666666667,75.3051601183409L111.14458333333333,66.39527514693019L111.45580000000001,56.82990125145227L112.3007,79.96000882524079L112.6202,55.76890058631665L112.97283333333333,61.49488840258566L112.99413333333332,74.53984728312889L113.0888,89.85414297205573L113.51598333333334,95.19972417944858L113.85915,96.77810111088009L114.1112,58.97254866464384L114.17155,100.15811030404613L114.34195,93.86448521370865L114.39756666666666,88.43708284531733L114.53601666666667,88.18318261157378L114.67328333333334,74.56960263624528L114.68156666666667,64.57673890706938L115.01881666666667,72.3670131266468L115.41168333333334,67.21044386261462L115.85069999999999,64.4599189208405L116.1276,64.31632959823709L116.21398333333333,65.2971612334702L116.88493333333334,74.77860709980125L116.9654,-21.85207210834244L117.05651666666667,14.649227167719829L117.07308333333333,37.22901254911659L117.11923333333333,82.57026820587232L117.1571,75.47515807619673L117.64581666666666,62.41585835656656L117.85763333333333,102.91342392451143L118.30493333333332,94.6585969801474L118.3712,105.27420825415942L118.37593333333334,106.32757140264896L118.45285,98.98165975477704L118.52976666666666,90.16798235820136L118.79601666666666,282.7327979501803L118.81495000000001,210.22438711144875L118.98535000000001,146.42166795209587L119.01611666666666,110.08513014388227L119.0599,116.88109034633253L119.51311666666666,110.94131041866049L119.5356,81.32676018410204L119.6563,78.20627072813362L119.9687,88.55915139767896L120.10241666666667,59.97137001448951L120.14383333333333,61.01283720694647L121.57211666666667,55.77000842659179L121.61234999999999,58.88033290488163L121.70583333333333,64.21449065154265L122.20046666666667,42.65614003213827L122.78621666666666,51.90715257282673L123.30096666666667,73.37909002547455L123.55183333333333,121.60768223023963L123.77903333333333,91.94962534433387L123.87961666666666,92.38270570079645L124.03581666666666,88.17433550421615L124.35650000000001,81.45171935249608L124.45116666666667,64.60108664193082L124.85231666666667,72.07261765062735L124.889,59.665216079832334L124.92805,67.72196087789582L125.06295,64.58098121809172L125.1375,68.95197130219809L125.45108333333333,81.42962949848206L126.35751666666667,89.51712686929996L126.45809999999999,59.72603041612847L126.62731666666666,66.55012433755807L127.08290000000001,82.34242816202877L127.15035,70.87446796488285L127.40595,61.05758742711774L127.59883333333333,44.0585095546144L127.9633,51.96336021886157L128.59875,64.97352638011944L128.7656,59.65706662916833L129.29455000000002,-7.209978733663519L129.39513333333335,17.172986282844477L129.41406666666666,56.209830302794614L129.8661,52.915340278553856L130.1359,49.87795822551085L130.20926666666668,44.80645613025155L130.4483,57.302939899699226L130.70035000000001,43.867532530947216L131.46241666666666,51.01667365306892L131.70618333333334,51.80821980351375L132.08958333333334,63.41064516094676L132.11325,49.59948678296173L132.1168,34.43866586311077L132.21738333333334,11.65243849507425L132.22093333333333,119.4273449359674L132.67651666666666,43.35928021067559L133.39716666666666,214.72629232142242L133.46698333333333,169.18642478086338L133.86695,139.77182182883615L133.98173333333332,119.80442524616936L134.2752,107.5463458039255L134.78403333333333,100.0792917991686L135.53545,107.15971550826143L135.82891666666666,106.75495761686233L135.95553333333334,97.64733977561613L136.15196666666665,91.48778772637652L136.30225000000002,106.64654801010883L136.46436666666665,101.25725452358589L136.53063333333333,103.88381653578281L136.5685,154.03580908668403L136.65251666666666,129.77624255148956L137.10218333333333,117.39958827470761L137.2075,107.64950891951806L137.23471666666666,81.15694302454563L137.62403333333333,69.82214390553686L137.90093333333334,71.83714861456488L137.97785,74.78022944163962L138.63578333333334,64.54801695285862L138.71861666666666,86.73579515668955L138.94344999999998,83.004129974254L139.15645,32.94179772847056L139.39311666666666,75.86543877827383L139.48778333333334,71.93296994778588L139.61795,82.12675808932157L139.88538333333335,84.93374645846778L140.11258333333333,80.70467323142311L140.19541666666666,78.923353344679L140.2534,79.44800088177384L140.88293333333334,71.87551653142572L141.41661666666667,75.4653812756876L141.54205,63.61834198758174L141.54441666666665,61.94707798655017L141.86391666666668,111.25917467394292L142.67095,77.86950975816157L142.69816666666668,75.99978057813426L142.88986666666668,72.51181343682556L143.01648333333333,80.07094764578103L143.0863,77.56445730995428L143.18096666666668,207.03792586649226L143.26971666666665,170.82541002169737L143.36793333333333,151.32565093575482L143.46141666666665,154.44116650798233L143.58093333333335,127.83557567231293L143.69453333333334,104.46434649798678L143.775,122.23940399671898L144.27673333333334,112.3574434914477L144.3004,95.28248001189584L144.73113333333336,85.10824613187737L144.97016666666667,49.65252156086309L145.00803333333334,185.33376011313038L145.07193333333333,144.87976983714952L145.17843333333334,121.95714109663214L145.40918333333335,141.62529960132935L145.44586666666666,113.17644571508782L145.51095,111.72679514935425L145.55236666666667,134.47158792515415L145.5642,74.66158906726208L145.79495000000003,77.67161017310012L146.16296666666668,57.224522814338286L146.6718,56.04145903229063L147.06111666666666,42.33579614934152L147.12975,24.926706691181295L147.56758333333332,78.81978709313582L147.70721666666665,73.90223171069151L147.77821666666665,76.42120811386215L147.79478333333333,86.43825123312939L147.81253333333333,77.12599338117845L147.82791666666665,82.54673419584698L148.02790000000002,78.23295726249216L148.43141666666668,42.13951270273404L148.63968333333332,45.50775139773003L148.83375,76.79011100562953L148.85031666666669,72.84237801837116L149.34968333333333,43.49337265875968L149.41713333333334,74.90692645728602L149.56268333333335,76.87372022465647L149.77095,72.27563602735955L149.88928333333334,72.64732290436517L150.4064,93.13047939291906L151.18858333333333,89.1748452010624L151.27496666666667,89.94279602013414L151.99916666666667,82.96454503194465L152.16128333333333,61.03311063888329L152.93755,45.14160870256464L152.93873333333332,104.62608411509376L153.00736666666666,72.38423368454752L153.24403333333333,-28.164789824289926L153.62388333333334,30.637673783281713L153.9090666666667,34.64835520279752L154.06053333333332,49.53869687457686L154.09958333333333,37.65045380340007L154.32915,61.73486271487312L154.52795,55.13841820188685L154.59303333333332,68.5767966451799L154.70663333333334,74.91981521085054L155.24741666666668,70.60001651357807L155.29593333333332,76.64096961414494L155.40006666666667,54.10520667022185L155.66276666666667,72.80932638102773L155.84381666666667,88.68387396311404L156.1006,72.71199868751633L156.75735,54.91380702008061L156.98691666666667,58.77221243664982L157.03306666666668,64.43020652855704L157.26855,64.51437339907422L157.76555,52.139970388826825L158.0815,56.894018513772465L158.26136666666665,67.02685507660802L158.54418333333334,91.0314714132444L158.91338333333334,66.61023577131509L159.11100000000002,56.671686214207L159.53818333333334,69.81714598871875L159.86478333333332,72.74652574947017L159.9275,78.67138399326556L160.34994999999998,90.6282876670845L160.36415,101.90644755381989L160.65643333333335,93.59767045563764L160.79015,88.81751149994524L160.98066666666665,159.57910237124L161.08716666666666,124.31507368109936L161.47056666666668,110.00432276522419L161.7309,93.6078904680046L161.77586666666667,27.749996516615766L161.86106666666666,28.33667242731636L161.90721666666667,51.70186644552953L162.13678333333334,68.49277523257291L162.15335000000002,68.15688504249219L162.17346666666666,51.937439894439336L162.30126666666666,59.9423348485882L162.86926666666668,54.23152479275468L163.0941,64.28221724700236L163.23136666666667,64.1445798339921L163.4917,36.30603199431792L163.52601666666666,46.67963530086374L164.07153333333332,62.432152081782746L164.37565,64.5526498249824L164.40996666666666,51.31144202594882L164.48215000000002,71.81985665909386L164.84188333333333,78.89447699440369L165.04068333333333,69.42500897534143L165.643,75.00151312369394L167.07838333333333,78.12551879562722L167.07956666666666,76.95160459334845L167.24405000000002,92.33537612675343L167.27955,65.12302012192701L167.32806666666664,59.875525226844815L167.83926666666665,58.55985374399863L167.88896666666668,63.38956085743315L168.2771,71.95064400983189L168.77055000000001,68.31798019495434L168.78475,69.57084648353592L168.909,124.55867645415158L169.29831666666666,113.47982350127883L169.9385,101.53129578473721L169.96689999999998,67.77684822362463L170.00594999999998,70.64968956287406L170.52306666666667,59.45406466890479L170.63430000000002,54.894455512849035L171.03071666666665,19.926009938014772L171.30051666666665,38.62137963173029L171.36915000000002,46.873161713088166L171.6354,64.59872997782023L171.92768333333333,83.66884912419039L173.29325,78.05640076980542L173.58079999999998,62.70958370555192L173.87426666666664,70.23566618751914L173.93698333333333,83.433544817119L174.06596666666667,67.24685668039565L174.22335,90.5720649312049L174.44108333333335,85.9893805087962L174.59255,87.10508301445807L174.70496666666668,78.98483557218741L174.8801,74.1199463715733L174.91796666666664,-19.777645681147277L174.99014999999997,18.35529989595051L175.01145,45.04679196168715L175.26705,63.702285660838186L175.49425000000002,106.65764835189242L175.61731666666665,94.00478241909448L176.14271666666667,119.66485138853156L176.49061666666668,107.25942180362955L176.69414999999998,77.15201988553883L176.79828333333333,104.00755867537967L176.81248333333335,102.97179649664994L176.82195000000002,102.16846375945131L176.91188333333332,90.38825405808728L176.96276666666668,48.04407946844427L177.41243333333333,90.07331439602575L177.5852,65.65810014023198L178.33306666666667,60.30568186670234L178.59695,72.49238070400152L179.26553333333334,71.38762898057468L179.27855,73.17660328609408L179.48918333333333,79.67450960231038L179.55308333333332,84.80700818563533L179.7211166666667,88.55657232161994L180.66778333333335,89.9132758981382L180.95178333333334,90.28569611438037L181.29495000000003,82.1541506350594L181.42748333333333,84.94978248165582L181.67598333333333,69.35192911673128L181.76118333333335,51.571168958914086L182.06885,31.61958670720398L182.24280000000002,51.39490749393876L182.67945,59.60188448658495L182.69483333333335,65.36140557951416L182.79541666666668,76.32314668243737L183.2723,79.1662510165327L183.39773333333335,101.31048198505299L184.1456,98.51553950745995L184.44971666666666,87.31896084785575L184.8485,88.15679266082294L184.9325166666667,80.12627146329902L185.02481666666668,51.61612524763639L185.39756666666668,80.15481509783814L185.40348333333333,74.40418838198346L185.42123333333333,73.5272525921143L185.81173333333334,85.31245267054874L185.84959999999998,58.9606965666099L186.08271666666667,64.09485907597323L186.35488333333333,20.66132562515645L186.4531,43.60256532474315L186.47558333333333,71.74838193796231L186.59746666666666,53.54339964745266L186.92761666666667,54.98274647201404L187.49325000000002,96.28950006275589L187.52638333333334,75.712269722156L187.62815,92.07841488942405L188.079,82.435301797417L188.45648333333335,53.40183433137362L188.62806666666668,62.6719801719815L188.6825,98.80245924505077L189.30493333333334,90.65210101586035L189.35226666666665,82.41341200767005L189.38776666666666,85.02442703212581L189.39960000000002,61.089530318168784L189.48953333333333,87.77801584709947L189.5297666666667,191.91479692477952L189.63271666666665,128.4655218986665L189.66940000000002,109.41022197803056L190.2220166666667,95.17808920918321L190.50483333333332,92.9159150530558L190.78055,98.80190288368627L191.52723333333333,85.75879002191934L191.56983333333335,59.6139799707728L191.68461666666667,78.04330078706315L191.93311666666665,63.630358012384875L191.9343,80.35044217836634L192.28811666666667,72.77914002370379L192.58986666666667,72.11011212298095L192.75671666666668,61.37819264638584L193.1046166666667,36.60559424721586L193.28921666666665,52.528555037564956L193.45843333333332,51.02294419248611L193.5602,79.96230638104315L193.79213333333334,84.98819100022128L193.82171666666667,100.93755417783817L193.97081666666668,83.37171274290951L194.05365,167.4489266371487L194.33528333333334,140.32989112885798L194.4051,129.25943530483792L194.54591666666667,92.50867882865232L194.69265000000001,88.39652247848785L195.9884,83.49220773579361L196.09253333333334,89.93572193461907L196.13868333333332,152.48082984004918L196.1872,169.0479680731992L196.80371666666667,115.62527463802502L196.90666666666667,96.9012584193773L197.25811666666667,51.07520246252459L198.05095,41.34028087721282L198.19886666666665,255.29060734180746L199.02483333333333,234.39804636196126L199.14198333333331,164.65917455334315L199.30291666666668,139.4981934241543L199.44728333333333,110.70316672217072L199.51591666666667,116.18742652753625L199.59756666666667,95.49053209096294L199.6023,83.8249579453807L199.72181666666668,74.51907012581337L199.82358333333335,109.71121061873454L200.50755,130.51454677475056L200.64126666666667,111.42429964771458L200.79273333333333,103.38546534600898L201.03295,74.7735833335923L201.0933,75.61347803924214L201.17495,68.27323030437208L201.17968333333334,76.78363641921099L201.80329999999998,44.7518346084359L201.82578333333333,30.68905456214003L201.92045,52.354513809498854L202.06481666666667,53.87099285157311L202.18906666666666,58.611985395878364L202.40088333333333,60.5602977786813L202.41745,59.3050281700111L202.46005,58.41145116605031L202.50856666666667,83.3986891424537L202.6198,88.99259095083201L202.67778333333334,84.33982726706313L202.79256666666666,70.35036899869272L202.89078333333333,63.81062037887713L202.99373333333332,67.10650664789128L203.01503333333335,78.2418986094972L203.17478333333332,119.14581463851204L204.1534,106.12755524695436L204.44095,101.4757160029837L205.37578333333332,89.89499162564636L205.45506666666668,91.46479170404221L205.52725,141.74688705818488L205.95325,127.90025041514471L206.5177,105.35804218897354L206.6869166666667,97.78886477856834L207.30816666666666,75.98380019414364L207.40046666666666,67.93182054446352L207.77558333333334,118.66802946985092L207.93651666666668,95.13123187917004L207.95426666666665,99.70747854805929L208.6335,82.66176151209768L208.73171666666667,107.03767524250699L209.03938333333335,99.48002948001479L209.24528333333333,88.79583992753115L209.33166666666665,90.75950800341487L209.50443333333334,98.94951603753934L209.52691666666666,92.39804721586661L209.60501666666664,88.16933564640642L209.79553333333334,115.58184856712072L209.90321666666665,106.35427716489536L209.9600166666667,160.59563623155225L210.1884,219.24476145335183L210.40849999999998,175.20555599232802L210.5481333333333,134.55733404627205L210.6286,141.57348977220474L210.68303333333333,127.47720257634063L211.46048333333334,113.51540825477231L211.64508333333336,83.28172585008366L211.79891666666668,67.79452916256976L211.98706666666666,72.38675956283076L212.30065,112.20659902498235L212.43554999999998,99.5155147131527L212.73966666666666,85.0086893403963L213.24021666666667,85.67756943733484L213.29938333333334,103.45437021834393L213.5029166666667,95.86945237162035L213.5467,88.60808807140451L213.83898333333335,109.10922113295038L214.13008333333332,103.48801239227775L214.37266666666667,110.51255995136968L214.4058,105.59315675002254L214.61524999999997,-26.714135956453646L215.30868333333333,17.827992138863237L215.3359,52.42184969080559L215.53588333333332,63.44152291975415L215.53706666666668,39.21882741211772L215.61161666666666,52.8808596225327L215.70865,57.23573722717116L215.86129999999997,77.33798590892768L215.92874999999998,88.15523234373796L216.05773333333335,98.87268164083089L216.14175,113.84462476415328L216.3015,97.35416504310732L216.70265,97.26866455279688L216.90144999999998,140.37206800920822L217.68245,120.65874236047401L217.8209,107.21576350015829L218.47055,95.19091553729324L218.70366666666666,114.73458627714422L218.751,51.8109241969871L218.89655,55.68969382078012L219.46573333333333,60.51670985573131L219.6243,57.786564130853506L219.86451666666667,28.99526393178411L220.09763333333333,15.059733865071593L220.45381666666665,24.145685655393862L220.48103333333336,61.938587288293974L220.7082333333333,72.98231893129008L221.13068333333334,85.19596379379782L221.2218,83.80304904574048L221.46083333333334,85.17977087694659L221.56141666666667,84.77247975552639L221.69276666666667,120.22797838516843L221.75311666666664,133.2784755998357L222.04658333333333,113.24995043853335L222.51163333333335,110.26195286762841L222.68085000000002,98.30914881418443L222.92816666666667,88.27114022778213L223.1175,86.97204333028783L223.31985,92.13358214600449L223.49261666666666,90.54305790185711L223.50563333333332,84.0359147759951L223.65828333333332,76.38081954129775L223.68195,68.01375991446925L224.03340000000003,68.45396153973024L224.30675000000002,75.04132848996598L224.6156,61.32919258691908L224.6842333333333,57.14267418392973L224.79073333333332,66.39520147347898L225.05698333333333,71.04122695442973L225.42026666666666,80.66909885031872L226.26871666666668,67.7385842816287L226.75151666666667,54.68755156214881L226.79766666666666,67.92523160185304L226.8095,77.84582777096999L227.47453333333334,71.7054500348322L227.69344999999998,106.77924849685205L228.35138333333333,82.47435686327776L228.49456666666669,81.07476016547062L228.59041666666667,71.59009484114517L228.60816666666668,101.4259188503874L228.7336,93.06146072008836L228.94068333333334,60.63566533775963L229.04245,76.05935359443865L229.2661,35.306024723931245L230.05775,48.78191652213823L230.33346666666668,57.82475401931809L230.65888333333334,71.84443461366921L230.88135,70.4454216702554L230.95235,74.27193186553083L231.07423333333335,44.1428399178067L231.19848333333334,48.84086579606898L231.4032,57.126740782537595L232.03036666666668,64.07901278382154L232.25283333333334,69.94764361338208L232.2694,72.0093018788989L232.28715000000003,64.96232454280766L232.36998333333332,17.24445275708223L232.6244,27.047406625305115L233.21843333333334,46.421266263805904L233.92843333333334,33.405893721652035L234.0373,11.602458359533927L234.1864,12.099079828377711L234.52838333333332,42.63524584268282L235.08336666666668,48.64039022076943L235.09046666666666,59.09213843080478L235.13070000000002,132.12084666935434L235.28453333333334,137.3140991643227L235.68213333333333,104.17157734059187L235.71645,86.30660773413204L236.02648333333335,65.63933845081121L236.08446666666669,73.7558748977781L236.28918333333334,82.20499953339767L236.62761666666668,61.80169531129863L237.0406,72.66544711441448L237.07610000000003,77.93165270222086L237.38258333333334,60.53871792550004L237.9091666666667,68.09383485416207L237.9139,77.20166317334105L237.97898333333333,80.04624908776754L238.16713333333334,99.17827319384463L238.20263333333335,96.07334240952775L238.3257,58.930381699658525L238.39906666666667,64.82170150756555L238.60378333333333,98.52912604980284L239.13746666666665,82.1641101123002L239.62855,78.23398055242234L240.02259999999998,84.14237205588122L240.0865,66.99212508636323L240.15158333333335,54.960440961914045L240.1575,48.512590575274004L240.48291666666668,53.510370094438315L240.53853333333333,46.16223632158736L240.54090000000002,77.08576067008002L240.79295,93.95709941474384L240.92548333333335,69.56379379868162L241.17635,75.37075932494685L241.30769999999998,20.730524649512347L241.31953333333334,63.40433242195378L241.5775,68.29234003916909L242.28276666666667,63.08945579034565L242.2946,86.44200895787058L242.37743333333333,87.5836452389768L242.65315,84.07509287211799L243.31226666666666,68.91024950513157L243.77376666666666,104.95595049069662L244.04238333333333,25.931193843133798L244.05776666666668,40.7797499019577L244.30626666666666,53.1657973540684L244.4033,59.107031693024524L244.58198333333334,78.71649186123402L244.61511666666667,95.66670199937414L244.86243333333334,82.82038657089838L244.99141666666668,72.998932959267L245.05768333333333,78.02080273241141L245.11685,72.39715654696704L245.12986666666666,73.97550334018405L245.66118333333333,80.71501011219272L245.74875,55.93541348845889L246.06706666666668,71.87603256081488L246.1215,77.7832648685209L246.21734999999998,90.11602549915541L246.57945,87.81490705581284L247.59120000000001,85.05105336544572L247.61605,58.27341489884681L247.62433333333334,52.87333394500136L247.65155,76.43624934918233L247.69888333333333,92.78573101054124L248.00181666666668,92.57992080223288L248.17458333333335,92.6780706648846L248.41835,125.52102423937924L248.4219,111.59256142223302L248.76388333333333,108.40119953002424L248.90115,106.74269860084853L249.02421666666666,52.480986953155664L250.37676666666667,23.536675667669016L251.12226666666666,68.81030895969471L252.405,66.01595455790522L252.44523333333333,66.2661243527823L252.64995000000002,62.02129481062411L252.91738333333333,69.62350979375279L252.95998333333333,73.41607945705418L253.67708333333331,72.8753990638224L253.78595,79.96658295947613L253.96936666666667,82.06503565098467L254.36696666666666,74.17699736423943L254.75155,-33.25014635229033L254.7693,-40.71724747414268L254.89118333333334,3.041057501673265L255.0249,39.81126098676958L255.15033333333332,56.577725704484465L255.4935,50.676643041797576L256.1881166666667,53.98120477385318L256.46028333333334,65.93924044500068L256.51945,70.14102381930871L256.79043333333334,83.67968648415732L256.93598333333335,91.59500048655514L257.0495833333334,68.04566759633718L257.6436166666667,69.05067997473587L257.8672666666667,74.24434661864848L258.2057,72.47960785235422L258.45301666666666,71.50000598105534L258.9748666666667,69.7201383463486L258.9796,65.69597739057856L259.4576666666667,69.71260317857246L259.4908,81.54823745195601L259.93455,61.305256783762104L259.93809999999996,57.15730257651197L260.08365,50.275883292659344L260.22565000000003,47.37094319168011L260.3333333333333,52.95540703367783" style="fill: none;" fill="none"></path></g></g></g></g><g opacity="0.2"><g><g><g><path stroke="rgb(255, 112, 67)" stroke-width="2px" d="M23.71755,74.88480232868876L23.865466666666666,75.0071977509984L23.938833333333335,116.30417939594814L24.22875,62.50463696888515L24.302116666666667,72.81509484350681L24.353,76.73532151803374L24.361283333333333,75.97935311243471L24.433466666666668,72.59782128248897L24.62398333333333,101.32693995748247L24.86775,93.79597244943892L25.24523333333333,64.59777793713978L25.306766666666665,87.5461574281965L25.367116666666668,75.03747000332389L25.71975,132.06986720221383L25.723300000000002,74.85222857019731L25.888966666666665,17.054490566253662L26.3978,242.8130997930254L26.494833333333332,78.05317272778068L26.608433333333334,67.213228647198L26.609616666666668,68.99320954084396L26.8451,79.05403844373566L27.490016666666666,67.49351937430245L27.508950000000002,91.27330541610718L27.578766666666667,54.514891198703225L27.94915,96.69866635118211L27.951516666666667,61.91469631024769L28.7763,90.34036545242583L28.87451666666667,322.86593219212125L28.983383333333332,73.86980561167002L29.0035,91.56621773753847L29.5502,39.340200560433544L29.74308333333333,77.63418500444719L29.992766666666665,30.319636242730297L30.440066666666667,77.03061635472945L30.6578,51.07061944689069L30.756016666666664,69.30138322285244L31.004516666666664,75.60678299024168L31.595,64.83946990115302L31.609199999999998,-114.6970432826451L31.778416666666665,89.10720501627242L31.91095,75.93088691129482L32.1346,79.67119175408568L32.49551666666667,67.60015296936035L32.499066666666664,105.2330585207258L32.89548333333333,81.13929666153022L32.9369,90.42624564681734L33.21261666666667,88.5533966762679L33.347516666666664,10.731307676860268L33.396033333333335,61.29761496612004L33.723816666666664,80.98854588823659L33.73565,80.30581100285053L34.17348333333334,77.17435955841627L34.24093333333333,113.6780287027359L34.62551666666667,64.89902628319604L34.871649999999995,96.34246746131352L34.973416666666665,85.24575600028038L35.143816666666666,88.8207116297313L35.973333333333336,-89.35675825391496L36.068,82.14095306396484L36.118883333333336,72.07867466339043L36.5721,74.9625130380903L36.644283333333334,155.96745780536105L36.70818333333334,85.06788338082177L37.314049999999995,86.31893062591553L37.354283333333335,122.87622223581587L37.83116666666667,37.87441665785653L37.83708333333334,83.41773934875216L38.06191666666667,-1.1544557639530808L38.211016666666666,71.6166319229773L38.905633333333334,-49.0092054094587L39.09141666666667,113.92716295378548L39.12336666666667,0.15675524302889698L39.78485,62.69490812505994L40.58241666666667,69.8114353460925L41.02498333333333,49.60540223121643L41.156333333333336,141.41048301969255L41.26756666666667,59.60658809116909L41.97756666666667,71.88323512673378L42.32191666666667,14.67135511125835L42.73845,-17.762813023158486L43.6153,84.00033493127141L43.86261666666667,152.34572563852583L43.8993,35.31303405761719L44.15963333333333,150.55094381741114L44.18566666666666,225.44713640213013L44.42706666666667,19.826312950679238L44.44363333333333,74.95008209773472L45.501533333333334,41.17116594314575L46.77953333333333,83.0273357800075L46.908516666666664,-56.48250348227364L47.0162,64.82971715927124L47.328599999999994,60.635682463645935L47.39723333333333,62.06851412568774L47.40788333333333,93.34124539579665L47.62325,73.1983709303396L47.71673333333334,82.0069304811103L47.855183333333336,71.10314124609742L47.97233333333333,57.667260416916434L48.018483333333336,57.05160634006772L48.25633333333333,74.70594610806022L48.259883333333335,41.05742464746746L48.346266666666665,61.60612022025245L48.612516666666664,39.685704742159146L48.68825,58.0737271479198L48.79238333333333,74.70727729478052L48.89533333333333,73.76869909784624L49.52131666666667,84.7109791466168L49.991099999999996,82.57316787753787L50.091683333333336,134.8450173650469L50.12481666666666,161.73939902441842L51.04781666666666,80.85512126556465L51.05965,77.39784397397723L51.222950000000004,44.34610165868489L51.3117,57.557130243097035L51.3898,430.51483726501465L51.523516666666666,79.71875728241035L51.67735,44.898735931941445L51.71403333333334,317.2564793995449L52.2418,81.14628266010966L52.40155,140.88001585006714L52.40391666666667,29.457051362310153L52.448883333333335,71.2870420728411L52.8027,23.65958813258578L52.928133333333335,79.53885227654662L53.17308333333333,68.12720042467117L53.55056666666667,227.76176302773612L53.71386666666666,81.70564332604408L54.21205,-59.700368744986406L54.25346666666667,20.085584265845142L54.34103333333333,72.23688166482108L54.79306666666667,57.2836390052523L55.377633333333335,-23.338144029889776L55.378816666666665,96.60698364462172L55.80008333333333,85.52378450121198L56.21543333333333,73.32046897390059L56.3314,91.45917419876372L56.37281666666667,36.839245472635525L56.594100000000005,89.04633440290178L56.70178333333333,71.87401892883437L57.31948333333334,77.80420671190534L57.443733333333334,77.73276083171368L57.94901666666667,126.9773052079337L57.97978333333333,66.00919757570539L58.05788333333333,118.58745738438198L58.222366666666666,70.5622276706355L58.29573333333333,66.66759356004852L58.541866666666664,-12.083609512874062L58.70753333333333,91.61649763584137L58.9655,82.17689322148051L59.173766666666666,79.74328156241349L59.20453333333333,140.73361771447318L59.37375,78.19509294416223L59.5548,85.56764847891671L59.724016666666664,83.90689413888114L59.892050000000005,75.50302865635604L60.00328333333333,105.6093054669244L60.019850000000005,81.005722454616L60.83161666666667,39.79256742341178L60.875400000000006,30.64858894688743L61.392516666666666,22.86973510469707L61.458783333333336,66.06125816702843L61.779466666666664,102.15140007223403L62.04926666666667,72.18660817188876L62.17588333333334,6.4728123460497216L62.31196666666667,87.4642892565046L62.43621666666667,297.1045867374965L62.59241666666667,84.10078319907188L62.60188333333333,40.986528498785816L62.75808333333333,174.2385106086731L62.93203333333333,102.41433375222341L63.16159999999999,90.61788981301443L63.19473333333333,41.724077531269614L63.58996666666666,141.59252214431763L63.60416666666667,88.08909623111997L63.646766666666664,87.0688864844186L63.71066666666667,79.84812353764262L63.75445,108.5441347360611L63.79823333333333,-59.61690902709961L63.94378333333333,61.36254130942481L64.32955,105.76417074884688L64.52243333333332,152.61159222466605L64.61,41.01334364073617L65.47856666666667,95.62035612549101L65.50341666666667,77.99013314289706L65.65606666666666,84.31422371097973L65.99686666666666,66.41775019679751L66.21223333333333,65.99428738015038L66.31163333333333,-8.211317334856318L67.01216666666666,151.90812277793884L67.04766666666667,103.98255234105245L67.17546666666667,65.44401329755783L67.27368333333334,79.22868388678346L67.69021666666667,-122.74428667340959L68.02983333333334,111.63709677968706L68.35525,-30.97576924732752L68.48778333333334,53.8878732408796L69.17293333333333,17.364227158682667L69.48651666666667,77.5064138748816L69.62851666666667,82.04513700945037L69.79536666666667,123.26764614241463L70.16811666666666,103.3552600826536L70.64855,-1.563802650996621L70.8935,352.30423164367676L71.02485,30.578675457409446L71.35145,78.00169822786536L71.59285,67.65399576084954L71.79046666666667,256.92731727872575L71.85318333333332,-20.107094253812505L71.93956666666668,88.29055267146656L72.23185,87.3908271917275L72.5052,81.03183338258948L72.82233333333333,69.61962727776596L73.52641666666666,91.05375191995076L73.90035,103.39441272190639L73.92165,58.30760154553822L74.17015,60.22204925332751L75.16415,3.0614657061440766L75.30733333333333,103.85502065931047L75.39253333333333,19.981669562203564L75.42448333333333,-46.32081862858362L75.42921666666666,36.35295878137859L75.50376666666666,-0.44973840032304224L75.72623333333334,126.90730128969466L75.82090000000001,66.2787016587598L75.97118333333333,13.169767447880332L75.97946666666667,16.654825585229077L76.03153333333333,89.35274020263127L76.09425,88.80419330937521L76.70011666666666,44.65257377283913L76.87525000000001,13.486991541726269L77.35805,56.52198317221233L77.51780000000001,71.44002832046577L77.69648333333333,157.20165967941284L78.47748333333334,104.34296521118709L78.49641666666668,105.34600102901459L78.5899,73.40945087479693L79.6407,60.99388133628028L80.03948333333334,62.391495517322L80.11876666666667,65.4753378203937L80.16491666666667,-13.955533095768516L80.32821666666668,58.69482955762318L80.40513333333334,86.11835209812436L80.43235,95.5428240128926L80.55778333333333,95.0237810100828L80.68203333333334,19.06243106297086L80.73646666666667,62.16449219839913L81.08555,57.57367267778942L81.97305,60.529849163123544L82.06653333333333,170.1167857646942L82.21563333333333,84.76851369227681L82.84161666666667,78.25622504736695L82.90078333333334,82.23106381722859L83.02976666666666,101.56118360587529L83.06526666666666,66.40022811719349L83.80366666666666,64.3278375353132L83.99300000000001,-2.849458490099238L84.17641666666667,92.88005570002964L84.28646666666667,66.78758197597095L84.96215,98.00950358595168L85.20236666666666,64.54914911729949L85.54671666666667,107.92466155120304L85.6189,97.1031798209463L85.80468333333333,74.58912420592138L86.00821666666666,93.52211949654988L86.27328333333332,82.3331247312682L86.31233333333333,50.852441975048606L86.49338333333334,103.69977256229946L86.51113333333333,34.42838154520305L86.93831666666667,73.01763642898628L87.21995,86.41778960824013L87.23296666666666,165.52860525676184L87.40455,107.20734143257141L87.45661666666666,60.042584334100994L87.71340000000001,27.685989005225025L88.38553333333333,36.964881164687L88.52279999999999,52.86736357212067L88.67663333333333,114.72380115304674L88.72988333333333,114.7467760869435L89.10499999999999,340.2157148633685L89.39373333333333,52.1007793716022L89.40320000000001,83.64413453425679L89.5949,80.24197809398174L89.65761666666667,81.67431164426463L90.3333,83.52292608363288L90.53446666666666,73.00645208678075L90.55103333333334,125.34321830953871L90.65398333333334,158.9399355820247L90.86580000000001,69.79980959849698L90.90485000000001,91.13113934653147L91.47876666666667,109.29118783133372L91.69058333333334,41.17148545810153L92.82185,83.44912717172078L92.95911666666667,82.74554770333427L93.152,58.93565039123807L93.18395,78.15658950805664L93.20406666666666,6.439172846930347L93.79691666666668,152.1903931413378L93.85253333333334,72.39378385458674L93.99571666666667,132.4839585849217L94.24185,48.38563881601604L94.27735,90.87958311183111L94.87966666666667,114.00448858737946L94.88676666666667,109.49839629445756L94.9128,108.64617756434849L95.0193,77.53719827426332L95.22993333333334,30.798426389694214L96.09376666666667,67.06027141213417L96.17778333333332,296.7305010386876L96.36948333333333,92.82622798000062L96.65585,29.407336643763955L97.199,68.12318312696048L97.29366666666667,71.99400696797031L97.64511666666667,25.850972414016724L97.6818,25.764703375952564L98.06875000000001,73.30855649177518L98.24625,61.77485275268555L98.47818333333332,31.82938058035714L98.8249,85.88245661769595L99.01186666666668,84.55774007524762L99.24143333333333,50.09365725517273L100.0177,118.23166542393821L100.21413333333334,76.4630734401622L100.45316666666668,73.01101930439472L100.93005000000001,96.69322706120356L101.29570000000001,50.55220341682434L101.3454,9.02372932434082L101.82583333333332,38.683913826942444L102.12048333333334,41.06824897016796L102.69913333333332,91.27258952174867L102.92278333333334,86.94144221714565L102.97603333333333,77.71936757862568L103.47184999999999,34.47097952025277L104.44573333333334,30.408485514777027L104.46703333333333,45.279884116990246L104.58181666666667,55.93750441074371L104.64216666666667,-20.358787638800493L104.83268333333334,83.6894114613533L105.5202,74.76246775739959L105.53676666666667,-144.96851716722762L105.85626666666667,81.19448458084038L106.16866666666667,216.87106561660767L106.26215,76.63744420584824L106.4006,70.69295638586793L107.04788333333333,37.15079666887013L107.18751666666667,33.78023038591655L107.27745,112.70236265659332L107.58393333333333,165.92931921141488L107.67978333333333,76.54137269008372L108.19098333333334,199.42987755366735L108.34008333333333,97.44659208399908L108.37085,84.28532041822162L108.50811666666668,52.30220190116337L108.75661666666666,19.06797736031669L108.81696666666666,93.4600386449269L108.84299999999999,62.01331490278244L108.88204999999999,155.17170882225037L108.91163333333334,-13.36675746100289L109.2193,32.464823484420776L109.22166666666666,547.2240289960589L109.34236666666666,130.2389259338379L109.34591666666667,71.80730397999287L109.52815000000001,74.05517496381488L109.72340000000001,101.37000816208975L109.90090000000001,82.95282474160194L110.06183333333334,82.99238204956055L110.26299999999999,84.15088299342564L110.99075,78.43310370402676L111.04636666666667,77.61487544966596L111.11736666666667,57.523920280592776L111.14458333333333,49.09961608478001L111.45580000000001,38.26182251317161L112.3007,124.85962940965379L112.6202,8.809690475463867L112.97283333333333,72.61004122240203L112.99413333333332,99.86241452183043L113.0888,119.58189342703139L113.51598333333334,105.57644064085825L113.85915,99.84200927189418L114.1112,-14.414700201579507L114.17155,180.10655348641532L114.34195,81.64744827364173L114.39756666666666,77.9015370713813L114.53601666666667,87.69031745195389L114.67328333333334,48.14324150766643L114.68156666666667,45.178826962198514L115.01881666666667,87.48931014112064L115.41168333333334,57.200632938316886L115.85069999999999,59.12066462210247L116.1276,64.03759738377163L116.21398333333333,67.20112852539334L116.88493333333334,93.18376672267914L116.9654,-209.42927292415072L117.05651666666667,85.50469046831131L117.07308333333333,81.06036064241614L117.11923333333333,170.58564683369227L117.1571,61.70229723623821L117.64581666666666,37.06545301846097L117.85763333333333,181.5263453211103L118.30493333333332,78.63452114697013L118.3712,125.88098308018276L118.37593333333334,108.37233516148159L118.45285,84.72194890890803L118.52976666666666,73.05907917661327L118.79601666666666,656.5350870404925L118.81495000000001,69.472766071558L118.98535000000001,22.56933076041085L119.01611666666666,39.549497927938205L119.0599,130.07324838638306L119.51311666666666,99.41114938259125L119.5356,23.83969208172391L119.6563,72.14885001948902L119.9687,108.65591975620815L120.10241666666667,4.477441447121777L120.14383333333333,63.034508815833505L121.57211666666667,45.59275255884441L121.61234999999999,64.91802159803254L121.70583333333333,74.56903215976698L122.20046666666667,0.807577065059121L122.78621666666666,69.86500044592789L123.30096666666667,115.05990978649685L123.55183333333333,215.22789062772478L123.77903333333333,34.378103154046215L123.87961666666666,93.22339109863555L124.03581666666666,80.0051462990897L124.35650000000001,68.40193505798068L124.45116666666667,31.891034909657066L124.85231666666667,86.57617784397942L124.889,35.580260089465554L124.92805,83.3615243094308L125.06295,58.483785407883786L125.1375,77.43683440663985L125.45108333333333,105.65096599715098L126.35751666666667,105.21638647147587L126.45809999999999,1.8962549482073143L126.62731666666666,79.79689489092145L127.08290000000001,112.99807676247188L127.15035,48.61313346454074L127.40595,42.00128991263253L127.59883333333333,11.060299566813882L127.9633,67.3080703318119L128.59875,90.22855481079647L128.7656,49.33688005379268L129.29455000000002,-137.01071384974892L129.39513333333335,64.50462425606591L129.41406666666666,131.98723340034485L129.8661,46.520153760910034L130.1359,43.981863651956814L130.20926666666668,34.96177559239524L130.4483,81.56082015803882L130.70035000000001,17.787035873958047L131.46241666666666,64.89441818424633L131.70618333333334,53.34475056614194L132.08958333333334,85.93300026655197L132.11325,22.78959110804965L132.1168,5.00883701869418L132.21738333333334,-32.579649925231934L133.39716666666666,547.3799040658133L133.46698333333333,80.7855054374252L133.86695,82.67288668666568L133.98173333333332,81.04418482099261L134.2752,83.75125041604042L134.78403333333333,85.58442226052284L135.53545,120.9040674141475L135.82891666666666,105.96925112179348L135.95553333333334,79.9678463190794L136.15196666666665,79.53101021902901L136.30225000000002,136.07237679617745L136.46436666666665,90.79568481445312L136.53063333333333,108.98243691240037L136.5685,251.38967697960987L136.65251666666666,82.6841428067003L137.10218333333333,93.37431820801326L137.2075,88.72288428885595L137.23471666666666,29.730197463716763L137.62403333333333,47.81929855687278L137.90093333333334,75.74862834385463L137.97785,80.49326869419643L138.63578333333334,44.68548682757785L138.71861666666666,129.80618814059665L138.94344999999998,75.76030932599679L139.15645,-64.23802368981498L139.39311666666666,159.18780081612724L139.48778333333334,64.29935398272106L139.61795,101.91469977583205L139.88538333333335,90.38260623386928L140.11258333333333,72.49529579068933L140.19541666666666,75.46549709394041L140.2534,80.46643433613437L140.88293333333334,57.175988086632316L141.41661666666667,82.43394224984306L141.54205,40.621148075376254L141.54441666666665,58.702859631606515L141.86391666666668,206.98265647888184L142.67095,13.054277862821323L142.69816666666668,72.37030628749302L142.88986666666668,65.74105369193214L143.01648333333333,94.74456111022404L143.0863,72.69891724629062L143.18096666666668,458.36877659388955L143.26971666666665,100.53052632297789L143.36793333333333,113.47317741598403L143.46141666666665,160.48893203054155L143.58093333333335,76.18942875601351L143.69453333333334,59.09666633605957L143.775,156.74392737661088L144.27673333333334,93.17481427533285L144.3004,62.136962669236325L144.73113333333336,65.35826271772385L144.97016666666667,-19.173296724046992L145.00803333333334,448.71498789106096L145.07193333333333,66.35143577201026L145.17843333333334,77.4602735415101L145.40918333333335,179.80466611044747L145.44586666666666,57.952199935913086L145.51095,108.9127675805773L145.55236666666667,178.62324448994227L145.5642,-41.440173421587275L145.79495000000003,83.51459231972694L146.16296666666668,17.53311794144767L146.6718,53.744923455374575L147.06111666666666,15.73068584714619L147.12975,-8.867408139365068L147.56758333333332,183.43576669692993L147.70721666666665,64.35638890947614L147.77821666666665,81.31098583766392L147.79478333333333,105.88309964111873L147.81253333333333,59.04925755092076L147.82791666666665,93.06934871843883L148.02790000000002,69.8591549800975L148.43141666666668,-27.924232619149336L148.63968333333332,52.046097099781036L148.83375,137.51469142096383L148.85031666666669,65.1791316313403L149.34968333333333,-13.4782259804862L149.41713333333334,135.886177948543L149.56268333333335,80.69161400837558L149.77095,63.34994317378316L149.88928333333334,73.368832724435L150.4064,132.89190081187658L151.18858333333333,81.49626118157592L151.27496666666667,91.43352408068522L151.99916666666667,69.41852840781212L152.16128333333333,18.460326228822964L152.93755,14.293399061475498L152.93873333333332,220.09594815117973L153.00736666666666,9.797112260545987L153.24403333333333,-223.34818840026855L153.62388333333334,144.78363255092077L153.9090666666667,42.43379560538699L154.06053333333332,78.44347776685443L154.09958333333333,14.573276076998013L154.32915,108.48695060185024L154.52795,42.33355532373699L154.59303333333332,94.6630606821605L154.70663333333334,87.2327336030347L155.24741666666668,62.214524924755096L155.29593333333332,88.36752563289234L155.40006666666667,10.35931389672416L155.66276666666667,109.11732346670969L155.84381666666667,119.49917221069336L156.1006,41.70777021135601L156.75735,20.364376136234824L156.98691666666667,66.26205824528422L157.03306666666668,75.41337153049452L157.26855,64.67775614772525L157.76555,28.119070427758373L158.0815,66.12246487396104L158.26136666666665,86.69647899270058L158.54418333333334,137.6286678314209L158.91338333333334,19.204307760511142L159.11100000000002,37.379207662173684L159.53818333333334,95.33480319806507L159.86478333333332,78.43296881445816L159.9275,90.17257940769196L160.34994999999998,113.83874773979187L160.36415,123.79934615748269L160.65643333333335,77.46886785328388L160.79015,79.5383794094835L160.98066666666665,296.9398375919887L161.08716666666666,55.861370929649894L161.47056666666668,82.22462981087821L161.7309,61.77952189104897L161.77586666666667,-100.09179762431557L161.86106666666666,29.47551390102933L161.90721666666667,97.05783130441392L162.13678333333334,101.08689228977477L162.15335000000002,67.50486290880612L162.17346666666666,20.45263460704257L162.30126666666666,75.48124858311245L162.86926666666668,43.14583468437195L163.0941,83.79238495230675L163.23136666666667,63.87740132638386L163.4917,-17.73350204740251L163.52601666666666,66.81662995474679L164.07153333333332,93.010567009449L164.37565,68.66891015001706L164.40996666666666,25.60792100429535L164.48215000000002,111.63030859402248L164.84188333333333,92.62756352765219L165.04068333333333,51.04310046775001L165.643,85.82649176461356L167.07838333333333,84.18976509996823L167.07956666666666,74.6728299653956L167.24405000000002,122.19799145630428L167.27955,12.299034936087452L167.32806666666664,49.68921160697937L167.83926666666665,56.005903218473705L167.88896666666668,72.76487466586488L168.2771,88.56921718801772L168.77055000000001,61.266338671956746L168.78475,72.00288104372365L168.909,231.2997581618173L169.29831666666666,91.97381482805525L169.9385,78.33709492321525L169.96689999999998,2.2535088402884185L170.00594999999998,76.22638157435826L170.52306666666667,37.72138105119976L170.63430000000002,46.04344950403484L171.03071666666665,-47.95391382489885L171.30051666666665,74.91239139011928L171.36915000000002,62.891326929841725L171.6354,99.00718602112362L171.92768333333333,120.68731570243835L173.29325,67.16164808188167L173.58079999999998,32.91870352200101L173.87426666666664,84.84512041722026L173.93698333333333,109.05295627457754L174.06596666666667,35.82563853263855L174.22335,135.85041035924638L174.44108333333335,77.09358133588519L174.59255,89.27085846662521L174.70496666666668,63.22200230189732L174.8801,64.67633792332241L174.91796666666664,-202.0494420187814L174.99014999999997,92.37807660443441L175.01145,96.8596883245877L175.26705,99.91589107683727L175.49425000000002,190.04158769335066L175.61731666666665,69.44333678483963L176.14271666666667,169.47557350567408L176.49061666666668,83.1782937858786L176.69414999999998,18.708239691598095L176.79828333333333,156.13889867918832L176.81248333333335,100.96119932617461L176.82195000000002,100.6090531519481L176.91188333333332,67.52078816720417L176.96276666666668,-34.153435911451055L177.41243333333333,171.6594763142722L177.5852,18.26386070251465L178.33306666666667,49.915693453380044L178.59695,96.14891374111176L179.26553333333334,69.24311092921666L179.27855,76.64931811445526L179.48918333333333,92.28809245143617L179.55308333333332,94.77009367091314L179.7211166666667,95.83513799735478L180.66778333333335,92.54687695843832L180.95178333333334,91.00862947532109L181.29495000000003,66.36938588108335L181.42748333333333,90.37659724269594L181.67598333333333,39.07374317305428L181.76118333333335,17.055575711386524L182.06885,-7.109955310821533L182.24280000000002,89.78229490348271L182.67945,75.53307511936873L182.69483333333335,76.54165240696499L182.79541666666668,97.60182058811188L183.2723,84.68521825330598L183.39773333333335,144.2963421004159L184.1456,93.09006293330873L184.44971666666666,65.58442580274173L184.8485,89.78317206246511L184.9325166666667,64.53761266810554L185.02481666666668,-3.727099759238115L185.39756666666668,135.553448336465L185.40348333333333,63.24120711003032L185.42123333333333,71.82496547060353L185.81173333333334,108.18960576398031L185.84959999999998,7.807287658963901L186.08271666666667,74.06117453532559L186.35488333333333,-63.650827544076094L186.4531,88.13556003570557L186.47558333333333,126.3843788930348L186.59746666666666,18.20431637763977L186.92761666666667,57.7767726608685L187.49325000000002,176.4731982094901L187.52638333333334,35.76823435510906L187.62815,123.84799080235618L188.079,63.716317559991566L188.45648333333335,-2.957249573298867L188.62806666666668,80.66696915669101L188.6825,168.93809509277344L189.30493333333334,74.83081739449075L189.35226666666665,66.42066275647709L189.38776666666666,90.09286796195165L189.39960000000002,14.627671991075772L189.48953333333333,139.5850759914943L189.5297666666667,394.06266607557023L189.63271666666665,5.299282142094199L189.66940000000002,72.42052213209016L190.2220166666667,67.55100795200893L190.50483333333332,88.52463580880845L190.78055,110.2276439666748L191.52723333333333,60.439806231430595L191.56983333333335,8.862289871488315L191.68461666666667,113.81786472456795L191.93311666666665,35.6522926262447L191.9343,112.80707614762441L192.28811666666667,58.081906429358895L192.58986666666667,70.81141090393066L192.75671666666668,40.54564307417186L193.1046166666667,-11.482390880584717L193.28921666666665,83.43783186588969L193.45843333333332,48.10028784615653L193.5602,136.138715335301L193.79213333333334,94.74431996686117L193.82171666666667,131.89808269909452L193.97081666666668,49.27331466334206L194.05365,330.6576359612601L194.33528333333334,87.68705749511719L194.4051,107.76972694056376L194.54591666666667,21.168975080762607L194.69265000000001,80.4141013281686L195.9884,73.97206735291651L196.09253333333334,102.44372008528029L196.13868333333332,273.89192165647233L196.1872,201.20770699637276L196.80371666666667,11.922399146216236L196.90666666666667,60.55463870082583L197.25811666666667,-37.881259100777754L198.05095,22.44308015278409L198.19886666666665,670.6059469495501L199.02483333333333,193.84189857755388L199.14198333333331,29.28371751308441L199.30291666666668,90.65628887925828L199.44728333333333,54.80693841832024L199.51591666666667,126.83334262030465L199.59756666666667,55.314207596438266L199.6023,61.18001989807401L199.72181666666668,56.45469965253558L199.82358333333335,178.0253656932286L200.50755,170.89749343054635L200.64126666666667,74.36676110699773L200.79273333333333,87.7806693485805L201.03295,19.232871191842236L201.0933,77.24386187962124L201.17495,54.02451411315373L201.17968333333334,93.30383652448654L201.80329999999998,-17.427545377186362L201.82578333333333,3.390716825212735L201.92045,94.41099352496012L202.06481666666667,56.814746286187855L202.18906666666666,67.81508857011795L202.40088333333333,64.34231593353408L202.41745,56.868328341415946L202.46005,56.67686051130295L202.50856666666667,131.90332756723677L202.6198,99.85134152003697L202.67778333333334,75.30799188092351L202.79256666666666,43.19436177185605L202.89078333333333,51.115814234529225L202.99373333333332,73.50440352303642L203.01503333333335,99.85765947614397L203.17478333333332,198.54753398895264L204.1534,80.85681642804828L204.44095,92.44567511762892L205.37578333333332,67.4147619519915L205.45506666666668,94.5120506797518L205.52725,239.35330745152066L205.95325,101.02148516689027L206.5177,61.59963798522949L206.6869166666667,83.09575568778175L207.30816666666666,33.6563218832016L207.40046666666666,52.30150710684913L207.77558333333334,217.15596444266183L207.93651666666668,49.44215420314244L207.95426666666665,108.59078090531484L208.6335,49.573016677583965L208.73171666666667,154.35562542506628L209.03938333333335,84.80930535282407L209.24528333333333,68.05594256094524L209.33166666666665,94.57133426836559L209.50443333333334,114.8477669273104L209.52691666666666,79.68049009144306L209.60501666666664,79.96066024686608L209.79553333333334,168.79437364850725L209.90321666666665,88.44193267822266L209.9600166666667,265.88768618447443L210.1884,333.0930633544922L210.40849999999998,89.71768656798771L210.5481333333333,55.65196203333991L210.6286,155.19308618136813L210.68303333333333,100.113821549075L211.46048333333334,86.41310163055148L211.64508333333336,24.59281294686454L211.79891666666668,37.73114735739571L211.98706666666666,81.30108916333744L212.30065,189.50393445151192L212.43554999999998,74.87988046077746L212.73966666666666,56.84838126386914L213.24021666666667,86.9759837431567L213.29938333333334,137.96227761677332L213.5029166666667,81.14578831621579L213.5467,74.51249854745609L213.83898333333335,148.9055382524218L214.13008333333332,92.57625424861908L214.37266666666667,124.14844638960702L214.4058,96.04372700623104L214.61524999999997,-283.5459394454956L215.30868333333333,104.29212314741953L215.3359,119.57463199751717L215.53588333333332,84.83265330536025L215.53706666666668,-7.801699161529541L215.61161666666666,79.40127508980888L215.70865,65.68932316558701L215.86129999999997,116.35999805586678L215.92874999999998,109.15341659954616L216.05773333333335,119.67714204107011L216.14175,142.907808474132L216.3015,65.3432726434299L216.70265,97.1026930127825L216.90144999999998,224.0433806010655L217.68245,82.39169845410755L217.8209,81.1205692418984L218.47055,71.84856360937867L218.70366666666666,152.67230006626673L218.751,-70.33500807625907L218.89655,63.219070149319506L219.46573333333333,69.88679980593068L219.6243,52.486869488443645L219.86451666666667,-26.893730572291787L220.09763333333333,-11.991589205605635L220.45381666666665,41.78312148366658L220.48103333333336,135.3012786933354L220.7082333333333,94.42015094416483L221.13068333333334,108.90480382101877L221.2218,81.0991557112762L221.46083333333334,87.85223090222904L221.56141666666667,83.98185581394604L221.69276666666667,189.05335807800293L221.75311666666664,158.6117937224252L222.04658333333333,74.37104865482875L222.51163333333335,104.46172228881291L222.68085000000002,75.1066468280873L222.92816666666667,68.78559414829526L223.1175,84.45026699985776L223.31985,102.15303984710148L223.49261666666666,87.45556966321809L223.50563333333332,71.40440164932183L223.65828333333332,61.5209287915911L223.68195,51.77182063886097L224.03340000000003,69.30847057700157L224.30675000000002,87.82857021689415L224.6156,34.71151701041629L224.6842333333333,49.01590316636222L224.79073333333332,84.35598974142756L225.05698333333333,80.05998229980469L225.42026666666666,99.35849723645619L226.26871666666668,42.63817364828927L226.75151666666667,29.353193930217202L226.79766666666666,93.62190462010248L226.8095,97.10345562866756L227.47453333333334,59.7858932529177L227.69344999999998,174.86368080547877L228.35138333333333,35.294273103986484L228.49456666666669,78.35789598737445L228.59041666666667,53.17868568216052L228.60816666666668,159.34251839773995L228.7336,76.8245714083314L228.94068333333334,-2.308525698525557L229.04245,105.99945432799204L229.2661,-43.80337837764196L230.05775,74.94100060101066L230.33346666666668,75.37849739619664L230.65888333333334,99.05910870858601L230.88135,67.72969066245216L230.95235,81.69986342106547L231.07423333333335,-14.343044451304849L231.19848333333334,57.96056308916637L231.4032,73.21108634450606L232.03036666666668,77.57459960984332L232.25283333333334,81.3396916942937L232.2694,76.01134439431397L232.28715000000003,51.28289794921875L232.36998333333332,-75.38435717991419L232.6244,46.07667001656125L233.21843333333334,84.02934673854283L233.92843333333334,8.140758786882657L234.0373,-30.72185734340124L234.1864,13.063109738486133L234.52838333333332,101.91133281162807L235.08336666666668,60.29743518999645L235.09046666666666,79.38082613263812L235.13070000000002,273.88245677948L235.28453333333334,147.3951187133789L235.68213333333333,39.83609380040852L235.71645,51.62754908629826L236.02648333333335,25.520521606717807L236.08446666666669,89.51150447130203L236.28918333333334,98.60624147312983L236.62761666666668,22.195281233106357L237.0406,93.75390649693354L237.07610000000003,88.15428707855088L237.38258333333334,26.775962182453696L237.9091666666667,82.75965006862369L237.9139,94.88156520468847L237.97898333333333,85.56809233341899L238.16713333333334,136.3169082232884L238.20263333333335,90.04612382820675L238.3257,-13.17065967832292L238.39906666666667,76.2577928993851L238.60378333333333,163.96118545532227L239.13746666666665,50.396726233618594L239.62855,70.60490552442414L240.02259999999998,95.61160262141908L240.0865,33.70046920435769L240.15158333333335,31.604818837983288L240.1575,35.996175118855064L240.48291666666668,63.211942102227894L240.53853333333333,31.89821193899425L240.54090000000002,137.11377852303642L240.79295,126.70734521320888L240.92548333333335,22.212082896913785L241.17635,86.64310417004994L241.30769999999998,-85.33581324986045L241.31953333333334,146.24172398022242L241.5775,77.78082541376352L242.28276666666667,52.98973930733544L242.2946,131.77343569483077L242.37743333333333,89.79976272583008L242.65315,77.26437357174498L243.31226666666666,39.472612380981445L243.77376666666666,174.92701710973466L244.04238333333333,-127.46980435507635L244.05776666666668,69.60341754555702L244.30626666666666,77.20930123169508L244.4033,70.64001599805695L244.58198333333334,116.78191454069955L244.61511666666667,128.5700510910579L244.86243333333334,57.883421327386586L244.99141666666668,53.93375830139432L245.05768333333333,87.76913817439761L245.11685,61.48066689286914L245.12986666666666,77.03935299760529L245.66118333333333,93.79758208138601L245.74875,7.833843571799122L246.06706666666668,102.81958723068237L246.1215,89.2502452305385L246.21734999999998,114.05609025274003L246.57945,83.34803007755961L247.59120000000001,79.68592561355659L247.61605,6.293293169566567L247.62433333333334,42.39082385812489L247.65155,122.17602631023952L247.69888333333333,124.52296011788505L248.00181666666668,92.1804068684578L248.17458333333335,92.8685968688556L248.41835,189.27499294281006L248.4219,84.55495713012559L248.76388333333333,102.2062029157366L248.90115,103.52325562068394L249.02421666666666,-52.850570951189326L250.37676666666667,-32.64934035709925L251.12226666666666,156.69442064421517L252.405,60.59161954266685L252.44523333333333,66.75174807224955L252.64995000000002,53.78133158172879L252.91738333333333,84.38075064335551L252.95998333333333,80.77812645052161L253.67708333333331,71.82584300637245L253.78595,93.73182228633335L253.96936666666667,86.13850264038358L254.36696666666666,58.86492304291043L254.75155,-241.7851900373186L254.7693,-55.21220847538538L254.89118333333334,87.98364951355117L255.0249,111.18871481078013L255.15033333333332,89.12439250946045L255.4935,39.22160022599357L256.1881166666667,60.39594225372586L256.46028333333334,89.15189792428697L256.51945,78.29742684002433L256.79043333333334,109.96061989239284L256.93598333333335,106.96002178532736L257.0495833333334,22.33225669179646L257.6436166666667,71.00158635633332L257.8672666666667,84.32617010389056L258.2057,69.0539384824889L258.45301666666666,69.59842587794576L258.9748666666667,66.26510117309434L258.9796,57.88437082937786L259.4576666666667,77.50958264938423L259.4908,104.52329221793583L259.93455,22.010059016091503L259.93809999999996,49.105391468320576L260.08365,36.91783409459251L260.22565000000003,41.73194181919098L260.3333333333333,63.79583684461457" style="fill: none;" fill="none"></path></g></g></g></g></g></g><g transform="translate(46, 177)" clip-path="url(#clip_1)"><clipPath id="clip_1"><rect width="284" height="23"></rect></clipPath><g><g><line x1="0" y1="0" x2="0" y2="5" style="visibility: inherit;" fill="rgb(0, 0, 0)" stroke="rgb(204, 204, 204)" stroke-width="1px"></line><line x1="23.666666666666664" y1="0" x2="23.666666666666664" y2="5" style="visibility: inherit;" fill="rgb(0, 0, 0)" stroke="rgb(204, 204, 204)" stroke-width="1px"></line><line x1="47.33333333333333" y1="0" x2="47.33333333333333" y2="5" style="visibility: inherit;" fill="rgb(0, 0, 0)" stroke="rgb(204, 204, 204)" stroke-width="1px"></line><line x1="71" y1="0" x2="71" y2="5" style="visibility: inherit;" fill="rgb(0, 0, 0)" stroke="rgb(204, 204, 204)" stroke-width="1px"></line><line x1="94.66666666666666" y1="0" x2="94.66666666666666" y2="5" style="visibility: inherit;" fill="rgb(0, 0, 0)" stroke="rgb(204, 204, 204)" stroke-width="1px"></line><line x1="118.33333333333334" y1="0" x2="118.33333333333334" y2="5" style="visibility: inherit;" fill="rgb(0, 0, 0)" stroke="rgb(204, 204, 204)" stroke-width="1px"></line><line x1="142" y1="0" x2="142" y2="5" style="visibility: inherit;" fill="rgb(0, 0, 0)" stroke="rgb(204, 204, 204)" stroke-width="1px"></line><line x1="165.66666666666669" y1="0" x2="165.66666666666669" y2="5" style="visibility: inherit;" fill="rgb(0, 0, 0)" stroke="rgb(204, 204, 204)" stroke-width="1px"></line><line x1="189.33333333333331" y1="0" x2="189.33333333333331" y2="5" style="visibility: inherit;" fill="rgb(0, 0, 0)" stroke="rgb(204, 204, 204)" stroke-width="1px"></line><line x1="213" y1="0" x2="213" y2="5" style="visibility: inherit;" fill="rgb(0, 0, 0)" stroke="rgb(204, 204, 204)" stroke-width="1px"></line><line x1="236.66666666666669" y1="0" x2="236.66666666666669" y2="5" style="visibility: inherit;" fill="rgb(0, 0, 0)" stroke="rgb(204, 204, 204)" stroke-width="1px"></line><line x1="260.3333333333333" y1="0" x2="260.3333333333333" y2="5" style="visibility: inherit;" fill="rgb(0, 0, 0)" stroke="rgb(204, 204, 204)" stroke-width="1px"></line><line x1="284" y1="0" x2="284" y2="5" style="visibility: inherit;" fill="rgb(0, 0, 0)" stroke="rgb(204, 204, 204)" stroke-width="1px"></line></g><g transform="translate(0, 8)"><text x="0" y="0" dx="0em" dy="0.95em" style="text-anchor: middle; visibility: hidden; font-family: &quot;Helvetica Neue&quot;, sans-serif; font-size: 12px; font-weight: 200;" fill="rgb(50, 49, 63)" stroke="none" stroke-width="1px">-100k</text><text x="23.666666666666664" y="0" dx="0em" dy="0.95em" style="text-anchor: middle; visibility: inherit; font-family: &quot;Helvetica Neue&quot;, sans-serif; font-size: 12px; font-weight: 200;" fill="rgb(50, 49, 63)" stroke="none" stroke-width="1px">0</text><text x="47.33333333333333" y="0" dx="0em" dy="0.95em" style="text-anchor: middle; visibility: hidden; font-family: &quot;Helvetica Neue&quot;, sans-serif; font-size: 12px; font-weight: 200;" fill="rgb(50, 49, 63)" stroke="none" stroke-width="1px">100k</text><text x="71" y="0" dx="0em" dy="0.95em" style="text-anchor: middle; visibility: inherit; font-family: &quot;Helvetica Neue&quot;, sans-serif; font-size: 12px; font-weight: 200;" fill="rgb(50, 49, 63)" stroke="none" stroke-width="1px">200k</text><text x="94.66666666666666" y="0" dx="0em" dy="0.95em" style="text-anchor: middle; visibility: hidden; font-family: &quot;Helvetica Neue&quot;, sans-serif; font-size: 12px; font-weight: 200;" fill="rgb(50, 49, 63)" stroke="none" stroke-width="1px">300k</text><text x="118.33333333333334" y="0" dx="0em" dy="0.95em" style="text-anchor: middle; visibility: inherit; font-family: &quot;Helvetica Neue&quot;, sans-serif; font-size: 12px; font-weight: 200;" fill="rgb(50, 49, 63)" stroke="none" stroke-width="1px">400k</text><text x="142" y="0" dx="0em" dy="0.95em" style="text-anchor: middle; visibility: hidden; font-family: &quot;Helvetica Neue&quot;, sans-serif; font-size: 12px; font-weight: 200;" fill="rgb(50, 49, 63)" stroke="none" stroke-width="1px">500k</text><text x="165.66666666666669" y="0" dx="0em" dy="0.95em" style="text-anchor: middle; visibility: inherit; font-family: &quot;Helvetica Neue&quot;, sans-serif; font-size: 12px; font-weight: 200;" fill="rgb(50, 49, 63)" stroke="none" stroke-width="1px">600k</text><text x="189.33333333333331" y="0" dx="0em" dy="0.95em" style="text-anchor: middle; visibility: hidden; font-family: &quot;Helvetica Neue&quot;, sans-serif; font-size: 12px; font-weight: 200;" fill="rgb(50, 49, 63)" stroke="none" stroke-width="1px">700k</text><text x="213" y="0" dx="0em" dy="0.95em" style="text-anchor: middle; visibility: inherit; font-family: &quot;Helvetica Neue&quot;, sans-serif; font-size: 12px; font-weight: 200;" fill="rgb(50, 49, 63)" stroke="none" stroke-width="1px">800k</text><text x="236.66666666666669" y="0" dx="0em" dy="0.95em" style="text-anchor: middle; visibility: hidden; font-family: &quot;Helvetica Neue&quot;, sans-serif; font-size: 12px; font-weight: 200;" fill="rgb(50, 49, 63)" stroke="none" stroke-width="1px">900k</text><text x="260.3333333333333" y="0" dx="0em" dy="0.95em" style="text-anchor: middle; visibility: inherit; font-family: &quot;Helvetica Neue&quot;, sans-serif; font-size: 12px; font-weight: 200;" fill="rgb(50, 49, 63)" stroke="none" stroke-width="1px">1M</text><text x="284" y="0" dx="0em" dy="0.95em" style="text-anchor: middle; visibility: hidden; font-family: &quot;Helvetica Neue&quot;, sans-serif; font-size: 12px; font-weight: 200;" fill="rgb(50, 49, 63)" stroke="none" stroke-width="1px">1.1M</text></g><line x1="0" y1="0" x2="284" y2="0" fill="rgb(0, 0, 0)" stroke="rgb(204, 204, 204)" stroke-width="1px"></line></g></g></g></g></svg>