<svg viewBox="0 0 330 200" xmlns="http://www.w3.org/2000/svg"><g><g><g><g><g><line x1="28" y1="177" x2="23" y2="177" style="visibility: inherit;" fill="rgb(0, 0, 0)" stroke="rgb(204, 204, 204)" stroke-width="1px"></line><line x1="28" y1="154.875" x2="23" y2="154.875" style="visibility: inherit;" fill="rgb(0, 0, 0)" stroke="rgb(204, 204, 204)" stroke-width="1px"></line><line x1="28" y1="132.75" x2="23" y2="132.75" style="visibility: inherit;" fill="rgb(0, 0, 0)" stroke="rgb(204, 204, 204)" stroke-width="1px"></line><line x1="28" y1="110.625" x2="23" y2="110.625" style="visibility: inherit;" fill="rgb(0, 0, 0)" stroke="rgb(204, 204, 204)" stroke-width="1px"></line><line x1="28" y1="88.5" x2="23" y2="88.5" style="visibility: inherit;" fill="rgb(0, 0, 0)" stroke="rgb(204, 204, 204)" stroke-width="1px"></line><line x1="28" y1="66.375" x2="23" y2="66.375" style="visibility: inherit;" fill="rgb(0, 0, 0)" stroke="rgb(204, 204, 204)" stroke-width="1px"></line><line x1="28" y1="44.25" x2="23" y2="44.25" style="visibility: inherit;" fill="rgb(0, 0, 0)" stroke="rgb(204, 204, 204)" stroke-width="1px"></line><line x1="28" y1="22.125" x2="23" y2="22.125" style="visibility: inherit;" fill="rgb(0, 0, 0)" stroke="rgb(204, 204, 204)" stroke-width="1px"></line><line x1="28" y1="0" x2="23" y2="0" style="visibility: inherit;" fill="rgb(0, 0, 0)" stroke="rgb(204, 204, 204)" stroke-width="1px"></line></g><g transform="translate(18, 0)"><text x="0" y="177" dx="0em" dy="0.3em" style="text-anchor: end; visibility: hidden; font-family: &quot;Helvetica Neue&quot;, sans-serif; font-size: 12px; font-weight: 200;" fill="rgb(50, 49, 63)" stroke="none" stroke-width="1px">-2</text><text x="0" y="154.875" dx="0em" dy="0.3em" style="text-anchor: end; visibility: inherit; font-family: &quot;Helvetica Neue&quot;, sans-serif; font-size: 12px; font-weight: 200;" fill="rgb(50, 49, 63)" stroke="none" stroke-width="1px">0</text><text x="0" y="132.75" dx="0em" dy="0.3em" style="text-anchor: end; visibility: hidden; font-family: &quot;Helvetica Neue&quot;, sans-serif; font-size: 12px; font-weight: 200;" fill="rgb(50, 49, 63)" stroke="none" stroke-width="1px">2</text><text x="0" y="110.625" dx="0em" dy="0.3em" style="text-anchor: end; visibility: inherit; font-family: &quot;Helvetica Neue&quot;, sans-serif; font-size: 12px; font-weight: 200;" fill="rgb(50, 49, 63)" stroke="none" stroke-width="1px">4</text><text x="0" y="88.5" dx="0em" dy="0.3em" style="text-anchor: end; visibility: hidden; font-family: &quot;Helvetica Neue&quot;, sans-serif; font-size: 12px; font-weight: 200;" fill="rgb(50, 49, 63)" stroke="none" stroke-width="1px">6</text><text x="0" y="66.375" dx="0em" dy="0.3em" style="text-anchor: end; visibility: inherit; font-family: &quot;Helvetica Neue&quot;, sans-serif; font-size: 12px; font-weight: 200;" fill="rgb(50, 49, 63)" stroke="none" stroke-width="1px">8</text><text x="0" y="44.25" dx="0em" dy="0.3em" style="text-anchor: end; visibility: hidden; font-family: &quot;Helvetica Neue&quot;, sans-serif; font-size: 12px; font-weight: 200;" fill="rgb(50, 49, 63)" stroke="none" stroke-width="1px">10</text><text x="0" y="22.125" dx="0em" dy="0.3em" style="text-anchor: end; visibility: inherit; font-family: &quot;Helvetica Neue&quot;, sans-serif; font-size: 12px; font-weight: 200;" fill="rgb(50, 49, 63)" stroke="none" stroke-width="1px">12</text><text x="0" y="0" dx="0em" dy="0.3em" style="text-anchor: end; visibility: hidden; font-family: &quot;Helvetica Neue&quot;, sans-serif; font-size: 12px; font-weight: 200;" fill="rgb(50, 49, 63)" stroke="none" stroke-width="1px">14</text></g><line x1="28" y1="0" x2="28" y2="177" fill="rgb(0, 0, 0)" stroke="rgb(204, 204, 204)" stroke-width="1px"></line></g></g><g transform="translate(28, 0)" clip-path="url(#clip_0)"><clipPath id="clip_0"><rect width="302" height="177"></rect></clipPath><g><g><g><line x1="0" y1="0" x2="0" y2="177" fill="rgb(0, 0, 0)" stroke="rgb(60, 60, 60)" stroke-width="1px" opacity="0.25"></line><line x1="25.166666666666664" y1="0" x2="25.166666666666664" y2="177" fill="rgb(0, 0, 0)" stroke="rgb(60, 60, 60)" stroke-width="1px" opacity="0.25"></line><line x1="50.33333333333333" y1="0" x2="50.33333333333333" y2="177" fill="rgb(0, 0, 0)" stroke="rgb(60, 60, 60)" stroke-width="1px" opacity="0.25"></line><line x1="75.5" y1="0" x2="75.5" y2="177" fill="rgb(0, 0, 0)" stroke="rgb(60, 60, 60)" stroke-width="1px" opacity="0.25"></line><line x1="100.66666666666666" y1="0" x2="100.66666666666666" y2="177" fill="rgb(0, 0, 0)" stroke="rgb(60, 60, 60)" stroke-width="1px" opacity="0.25"></line><line x1="125.83333333333334" y1="0" x2="125.83333333333334" y2="177" fill="rgb(0, 0, 0)" stroke="rgb(60, 60, 60)" stroke-width="1px" opacity="0.25"></line><line x1="151" y1="0" x2="151" y2="177" fill="rgb(0, 0, 0)" stroke="rgb(60, 60, 60)" stroke-width="1px" opacity="0.25"></line><line x1="176.16666666666669" y1="0" x2="176.16666666666669" y2="177" fill="rgb(0, 0, 0)" stroke="rgb(60, 60, 60)" stroke-width="1px" opacity="0.25"></line><line x1="201.33333333333331" y1="0" x2="201.33333333333331" y2="177" fill="rgb(0, 0, 0)" stroke="rgb(60, 60, 60)" stroke-width="1px" opacity="0.25"></line><line x1="226.5" y1="0" x2="226.5" y2="177" fill="rgb(0, 0, 0)" stroke="rgb(60, 60, 60)" stroke-width="1px" opacity="0.25"></line><line x1="251.66666666666669" y1="0" x2="251.66666666666669" y2="177" fill="rgb(0, 0, 0)" stroke="rgb(60, 60, 60)" stroke-width="1px" opacity="0.25"></line><line x1="276.8333333333333" y1="0" x2="276.8333333333333" y2="177" fill="rgb(0, 0, 0)" stroke="rgb(60, 60, 60)" stroke-width="1px" opacity="0.25"></line><line x1="302" y1="0" x2="302" y2="177" fill="rgb(0, 0, 0)" stroke="rgb(60, 60, 60)" stroke-width="1px" opacity="0.25"></line></g><g><line x1="0" y1="177" x2="302" y2="177" fill="rgb(0, 0, 0)" stroke="rgb(60, 60, 60)" stroke-width="1px" opacity="0.25"></line><line x1="0" y1="154.875" x2="302" y2="154.875" fill="rgb(0, 0, 0)" stroke="rgb(60, 60, 60)" stroke-width="1px" opacity="0.25"></line><line x1="0" y1="132.75" x2="302" y2="132.75" fill="rgb(0, 0, 0)" stroke="rgb(60, 60, 60)" stroke-width="1px" opacity="0.25"></line><line x1="0" y1="110.625" x2="302" y2="110.625" fill="rgb(0, 0, 0)" stroke="rgb(60, 60, 60)" stroke-width="1px" opacity="0.25"></line><line x1="0" y1="88.5" x2="302" y2="88.5" fill="rgb(0, 0, 0)" stroke="rgb(60, 60, 60)" stroke-width="1px" opacity="0.25"></line><line x1="0" y1="66.375" x2="302" y2="66.375" fill="rgb(0, 0, 0)" stroke="rgb(60, 60, 60)" stroke-width="1px" opacity="0.25"></line><line x1="0" y1="44.25" x2="302" y2="44.25" fill="rgb(0, 0, 0)" stroke="rgb(60, 60, 60)" stroke-width="1px" opacity="0.25"></line><line x1="0" y1="22.125" x2="302" y2="22.125" fill="rgb(0, 0, 0)" stroke="rgb(60, 60, 60)" stroke-width="1px" opacity="0.25"></line><line x1="0" y1="0" x2="302" y2="0" fill="rgb(0, 0, 0)" stroke="rgb(60, 60, 60)" stroke-width="1px" opacity="0.25"></line></g></g></g><g><g><line x1="0" y1="154.875" x2="302" y2="154.875" fill="rgb(0, 0, 0)" stroke="rgb(153, 153, 153)" stroke-width="1.5px"></line></g></g><g><g><line x1="25.166666666666664" y1="0" x2="25.166666666666664" y2="177" fill="rgb(0, 0, 0)" stroke="rgb(153, 153, 153)" stroke-width="1.5px"></line></g></g><g><g><g><g><g><path stroke="rgb(255, 112, 67)" stroke-width="2px" d="M25.220775,153.88487753877416L25.378066666666665,153.81591977791143L25.456083333333332,158.15041571454245L25.764375,154.28217475435895L25.842391666666668,152.68175638303813L25.896500000000003,152.93155561263958L25.905308333333334,151.73082742378568L25.982066666666668,150.5014757401379L26.18465833333333,150.78689986128978L26.443875000000002,147.43157606429955L26.84528333333333,132.26995151633673L26.910716666666666,128.67037518032174L26.974891666666668,129.70292726835496L27.349875,127.00357227332915L27.353650000000002,122.65040723567054L27.529816666666665,118.31410176868869L28.0709,131.22919177825017L28.174083333333332,129.1006509754361L28.294883333333335,126.38712985330156L28.296141666666667,124.21431491372897L28.54655,122.52634660444106L29.232341666666667,122.06715466789264L29.252475,120.81386013431253L29.32671666666667,117.53013613020808L29.720575,117.93803664519994L29.723091666666665,114.49910127306092L30.60015,118.2437385387785L30.704591666666666,137.86687175008996L30.820358333333335,131.42063711894681L30.841749999999998,129.37851876251165L31.4231,123.69095774832658L31.628208333333333,130.19540757454567L31.893716666666666,125.16501207487201L32.36936666666667,124.81806010969191L32.6009,122.74990649395494L32.70534166666666,123.20218586626456L32.969591666666666,121.27824889181278L33.597500000000004,124.25522519399492L33.6126,112.55171258678575L33.792541666666665,119.33199244049325L33.933475,121.15766864906769L34.1713,121.62958568672349L34.55509166666667,120.29797636591293L34.55886666666667,121.70477786567608L34.98040833333333,124.80064352144475L35.02445,132.5728720996632L35.31764166666667,132.17607943977524L35.46109166666667,124.43012657053117L35.512683333333335,120.13042168723612L35.861241666666665,118.22823716279845L35.873825000000004,116.82348708621912L36.33940833333333,118.47197319601648L36.41113333333333,122.25304278141968L36.82009166666667,119.22261206660178L37.081824999999995,116.77574269259023L37.190041666666666,119.05960809017719L37.37124166666667,118.52470189990645L38.25333333333334,109.02684998675473L38.354,116.63905600851483L38.40810833333334,121.32603460861432L38.89005,122.67308793721631L38.96680833333333,126.31317927338361L39.034758333333336,121.05353725781245L39.679024999999996,120.44158347673972L39.721808333333335,119.21823942244146L40.22891666666667,116.01919956468012L40.23520833333334,114.36278059666446L40.474291666666666,106.46948712136084L40.63284166666667,108.83815283431082L41.37148333333334,101.38750254773214L41.569041666666664,111.0736553161125L41.60301666666667,107.14154724822355L42.306425000000004,111.84343491942022L43.15454166666667,112.98796124813185L43.62515833333333,112.55558013387291L43.764833333333335,119.58212973484139L43.88311666666667,116.71148794704442L44.63811666666667,118.47677781757798L45.00429166666667,112.61935493668788L45.447224999999996,109.79340284975147L46.37965,110.14667541624877L46.64264166666667,117.44345661178798L46.68165,114.81669333632664L46.958483333333334,122.75587512142339L46.98616666666666,131.52229190533203L47.24286666666667,124.81871627379252L47.26048333333333,125.89299676608846L48.38543333333334,121.68728443068854L49.74443333333333,121.93958443546802L49.881591666666665,112.55601146315908L49.9961,113.33014103230784L50.3283,112.43671902628328L50.40128333333333,111.42777608974424L50.41260833333333,112.929422586608L50.641625,115.08293197059206L50.741033333333334,116.18848568531234L50.88825833333334,115.60913551429269L51.01283333333333,115.10275706760461L51.061908333333335,115.60380530997284L51.31483333333333,116.23016969626298L51.31860833333333,113.29877355809012L51.410466666666665,111.85954159752428L51.69359166666666,110.11435692418509L51.774125,111.48579395949712L51.884858333333334,112.00158708425676L51.99433333333333,112.69676200357405L52.65999166666667,115.25974296562707L53.159549999999996,119.9567976441152L53.266508333333334,123.73300734017991L53.301741666666665,128.3731009241353L54.28324166666666,128.80666012102674L54.295824999999994,129.63813835762585L54.469475,127.25577375841681L54.56385,123.97826453094362L54.6469,150.08378384917467L54.78909166666667,138.91978971302768L54.952675,129.38135484638386L54.991683333333334,143.03822934574384L55.5529,132.04495227152793L55.722775,126.09911525276993L55.725291666666664,113.17802829820195L55.77310833333333,107.02655540350739L56.149350000000005,100.69275052838343L56.28273333333334,98.3671463879472L56.54320833333333,104.86523263083569L56.94461666666667,114.75525083538494L57.11826666666666,113.71318157098449L57.648025,99.47821209812123L57.69206666666667,96.54218495179626L57.78518333333333,99.56719873856517L58.26586666666667,100.74442455865213L58.887483333333336,93.48561255196925L58.88874166666667,97.26362672189603L59.336708333333334,97.57232718416276L59.77838333333333,101.98834802164461L59.9017,103.66064422010903L59.94574166666667,102.61807555346178L60.18105,104.9788738550385L60.29555833333333,102.19572803066994L60.95240833333334,102.4661810425252L61.08453333333334,96.3050119024553L61.62184166666667,98.47821474648964L61.654558333333334,102.68666553965329L61.737608333333334,107.4998581744327L61.91251666666666,105.96030146305581L61.99053333333333,101.93841982941211L62.252266666666664,92.90921454171193L62.42843333333333,95.34272419747018L62.70275,94.1670462898608L62.924216666666666,104.30712320765349L62.95693333333333,107.97502626864042L63.136875,108.79125455604027L63.3294,104.7861449685373L63.509341666666664,98.75824093182956L63.688025,95.3522694176202L63.806308333333334,96.99728416695247L63.823925,98.32162137045535L64.68714166666666,95.67641345224071L64.7337,95.14709368596921L65.28359166666667,86.31216519698798L65.35405833333334,80.7838020240535L65.69506666666666,76.20134660820942L65.98196666666666,76.7657647236756L66.11660833333333,74.88945653170518L66.26131666666667,84.08944643105977L66.39344166666666,97.58405954016747L66.55954166666668,103.58608805960925L66.56960833333333,104.86515053873755L66.73570833333333,110.70367300297049L66.92068333333333,100.81513211705537L67.1648,92.7084264137511L67.20003333333334,92.87375825858003L67.62031666666667,93.6587232985346L67.63541666666667,90.25282204163511L67.68071666666667,93.03359610208085L67.74866666666667,101.21027355793137L67.795225,104.91954337265086L67.84178333333332,93.26451098308915L67.99655833333333,96.77016349509091L68.406775,93.26997013069513L68.61188333333332,91.85270607468517L68.705,89.4106126034065L69.62861666666667,88.6227073546758L69.65504166666666,89.86008862758646L69.81736666666666,83.99686447629611L70.17976666666667,92.92610846063022L70.40878333333333,91.09700376755343L70.51448333333333,82.60250730790486L71.25941666666667,80.95402580991725L71.29716666666667,79.80897846010252L71.43306666666668,80.10850177827845L71.53750833333334,84.77673203579013L71.98044166666666,63.99609142014127L72.34158333333333,76.87431465992698L72.687625,67.47998638242665L72.82855833333333,71.6915104736042L73.55713333333333,68.86305609369678L73.89059166666667,78.28606493012217L74.04159166666666,79.86280035263131L74.21901666666666,81.71237511345396L74.61539166666667,84.0262511396379L75.12627499999999,72.41260095634269L75.38675,86.80167448114172L75.526425,79.57639530390439L75.87372500000001,67.31206338524183L76.130425,57.60848350531634L76.34056666666667,73.91957049684198L76.40725833333333,68.69775679843497L76.49911666666668,72.95611022919749L76.80992499999999,72.64857236690143L77.10060000000001,71.29912162042561L77.43783333333334,74.4350058885729L78.18654166666667,80.61295558080359L78.584175,81.17928158624059L78.606825,79.39439203573104L78.871075,79.6997736868627L79.928075,69.53928764910125L80.08033333333333,71.97258137271217L80.17093333333334,67.20815900245877L80.20490833333332,59.55116683964448L80.20994166666667,58.250150150042586L80.28921666666666,55.67910630975962L80.52578333333334,64.0620331378119L80.62645,71.22330033615054L80.78625833333334,71.20587978135528L80.79506666666667,75.3765047753339L80.85043333333333,79.23231757646401L80.917125,74.00713257111406L81.56139166666667,76.84327585833682L81.74762500000001,71.41303589863274L82.261025,70.01180926629878L82.43090000000001,71.65533115169929L82.62090833333333,79.89804927213L83.45140833333333,74.22422146006409L83.47154166666667,73.66934736027945L83.57095,67.70769823432025L84.68835,68.7485318042282L85.11240833333333,66.0740272643082L85.19671666666667,72.23283725894117L85.24579166666668,71.50713874285391L85.41944166666667,73.43079302444141L85.50123333333333,76.98356742148096L85.530175,74.56793377299871L85.66355833333333,75.1889801070079L85.79568333333334,68.39681779798765L85.85356666666667,66.40561577440852L86.224775,74.32569982074325L87.168525,82.29084280615382L87.26793333333333,95.28073938002507L87.42648333333332,98.43584514106125L88.09214166666666,94.95565406018073L88.15505833333334,97.59542058340867L88.29221666666666,99.57771799966916L88.32996666666666,96.91129995468705L89.11516666666665,93.75331666583891L89.3165,86.62621729950061L89.51154166666667,87.58368416856494L89.62856666666667,91.18841473313476L90.347075,89.78503388617955L90.60251666666666,88.18318786680683L90.96869166666666,81.91124431732882L91.04545,80.26711178235978L91.24300833333334,77.70487613352564L91.45944166666666,78.17589987909598L91.74130833333334,77.5429280552589L91.78283333333333,76.55920860461327L91.97535833333333,81.636745789773L91.99423333333333,79.88527120532956L92.44849166666667,80.37584024918439L92.747975,76.2633860580778L92.76181666666666,80.22430929839143L92.944275,74.72296971577097L92.99964166666666,67.91737230031168L93.2727,65.93142515509916L93.98743333333333,67.46201353549095L94.1334,65.88684646610645L94.29698333333333,64.04520642731576L94.35360833333333,66.04028584582443L94.7525,83.2369940738387L95.05953333333332,69.47809436717974L95.06960000000001,63.62267207312155L95.27345,53.22346240477755L95.34014166666667,56.498377412657106L96.05865,56.59234550899875L96.27256666666666,58.12469318412107L96.29018333333335,62.002868736938225L96.39965833333333,71.02579122702546L96.6249,67.38200005836663L96.666425,65.51732632900546L97.27671666666667,60.14952708437322L97.50195833333333,50.60013820093694L98.704925,53.632567200052776L98.85089166666667,56.95155711667945L99.056,57.55676944295723L99.089975,57.23448214271173L99.11136666666667,47.4037427298567L99.74179166666667,60.46928371617646L99.80093333333333,64.67261036927935L99.95319166666667,65.75241839089978L100.21492500000001,60.28206817578605L100.252675,57.45212323962727L100.89316666666667,58.29132709174745L100.90071666666667,57.90185093877514L100.9284,62.82900359450328L101.04165,63.136875368597515L101.26563333333333,61.981513162366554L102.18421666666666,61.11638927811576L102.27355833333333,71.70633478992946L102.47740833333334,67.01001387379853L102.781925,54.07570680198977L103.3595,55.96279321098149L103.46016666666667,55.31675149906992L103.83389166666667,55.73542707145364L103.87289999999999,51.73035457538465L104.28437500000001,49.39860289745087L104.473125,46.6305765974391L104.71975833333333,37.50441306559179L105.08845,46.07145606100991L105.28726666666667,54.23799608220148L105.53138333333332,59.33196823404097L106.35685000000001,56.30299702922375L106.56573333333333,56.84457139732751L106.81991666666667,59.45774679195013L107.327025,61.286637946917054L107.71585,58.84914146390484L107.7687,54.33082491624128L108.27958333333332,56.51724437305063L108.59290833333334,60.488825589845206L109.20823333333333,64.92618724314724L109.44605833333334,67.55960651915782L109.50268333333332,68.88043687432805L110.02992499999999,61.84557020818461L111.06553333333333,51.85332563025234L111.08818333333333,47.442565915302794L111.21024166666666,49.871550212531076L111.27441666666667,38.58369221404294L111.47700833333333,44.26368511990674L112.2081,47.846950801632204L112.22571666666666,32.25370723108264L112.56546666666668,36.79238722509021L112.89766666666667,54.779767330673124L112.99707500000001,44.113269160870004L113.1443,55.5360721687982L113.83260833333333,56.9898732956982L113.98109166666666,55.97485635652602L114.076725,62.88752396566812L114.40263333333334,68.60930944221889L114.50455833333334,64.59681309110785L115.04815833333333,72.71115917641849L115.20670833333332,69.16354578940168L115.23942500000001,67.31780952351633L115.38539166666668,58.90929124564573L115.64964166666667,46.40977754111117L115.71381666666666,49.264842472711365L115.74149999999999,52.07662047056142L115.783025,61.14690989624597L115.81448333333334,58.465017452289175L116.14165,52.850919544633896L116.14416666666666,87.58402581767682L116.27251666666668,88.14429851253085L116.27629166666667,83.42370589773164L116.47007500000001,78.20560107362469L116.6777,75.78731544021024L116.86645,67.03503598882902L117.03758333333333,70.46321253374555L117.2515,73.80722725531382L118.025375,68.51628340694315L118.08451666666667,61.436610870089L118.16001666666666,59.137836834060224L118.18895833333333,58.357926670487984L118.5199,58.41580508241289L119.41835,63.59206310569141L119.7581,54.688324644713305L120.13308333333333,56.74319361686918L120.15573333333333,58.96387236442706L120.2564,56.945133513445825L120.71065833333334,57.19314399412792L121.075575,61.87167352829381L121.3436,54.180511338909895L121.407775,63.505506933176804L121.58897499999999,61.14702901869339L121.64811666666667,62.43606046791227L121.79534166666667,67.83421414107612L121.94130833333334,57.97928457207432L121.95011666666666,48.419682614932356L122.30874166666666,49.622608003749164L122.72650833333334,50.54170738786881L123.19335,48.77797895338219L123.4878,52.3101432194274L123.57965833333333,52.431936416444614L124.29313333333334,51.79802835748147L124.3787,23.96773037697139L124.47559166666666,33.065184871696175L124.49320833333333,37.09693048738063L124.54228333333333,46.646457928281336L124.58255,43.7995758400246L125.10224166666666,37.998319849996136L125.32748333333333,50.16534202467871L125.80313333333332,45.21979575448404L125.8736,46.92863331319384L125.87863333333334,52.052220305738686L125.960425,55.17675352277256L126.04221666666666,49.69123237013868L126.32534166666666,86.94767901818041L126.34547500000001,70.49824404878672L126.52667500000001,58.25637205588568L126.55939166666667,45.73815549708917L126.60595,47.270069211883936L127.08789166666666,47.72816635798213L127.1118,48.59266988035367L127.24015,49.53370116803622L127.57235,47.92736134361584L127.71454166666668,47.23802700623568L127.75858333333333,48.089809597034275L129.27739166666666,53.12541134151752L129.320175,54.303422444416455L129.41958333333332,52.20847001832051L129.94556666666668,41.6457811109868L130.56844166666667,44.9084294416852L131.11581666666666,52.19885635830056L131.38258333333334,62.0713860577512L131.62418333333335,55.17667563705355L131.73114166666667,56.343964360616084L131.89724166666667,49.63838764471271L132.23825,52.86395188621702L132.33891666666665,45.66999086199536L132.76549166666666,49.327113592053465L132.8045,50.63499756679981L132.846025,55.01296976821813L132.989475,53.03271718251057L133.06875,50.368699441969895L133.40220833333333,48.53434578161392L134.36609166666668,47.97465683900742L134.47305,45.58886890215737L134.65299166666665,50.049191735168506L135.13745,53.179575827227964L135.20917500000002,50.49752181837418L135.480975,45.509705640532985L135.68608333333333,44.08044768656745L136.07365000000001,33.858140832269186L136.74937500000001,34.039070502932304L136.92680000000001,38.537671458492866L137.489275,22.235654197303774L137.59623333333334,29.490127516022426L137.61636666666666,41.743306157263646L138.09705,43.07743913233267L138.38395,46.599116404831335L138.46196666666668,41.50559945820447L138.71615,49.15831216162768L138.984175,48.89417252054787L139.79454166666667,48.488126845491365L140.05375833333335,45.44086229232889L140.46145833333333,43.617461879078945L140.486625,41.69155124719549L140.4904,35.28329588464004L140.59735833333332,25.54126244449742L140.60113333333334,45.64058322209442L141.08559166666666,30.323531802583688L141.85191666666668,64.07939739179483L141.92615833333335,60.290169479054555L142.351475,50.16257290110744L142.47353333333334,54.229797243311L142.7856,49.17367927501047L143.32668333333334,48.89980594692463L144.125725,54.28072982320556L144.43779166666667,59.89219028483812L144.57243333333335,51.43688196423102L144.78131666666667,49.6063903780621L144.941125,53.97499370056546L145.11351666666667,48.17766347066146L145.18398333333334,48.131302848989606L145.22425,56.2462752193739L145.31359166666667,50.05347778222459L145.79175833333332,56.750628775976L145.90375,57.928945545723494L145.93269166666667,48.92860993552654L146.34668333333332,47.13191299849328L146.64113333333333,51.446611227601366L146.722925,50.87444115174445L147.42255833333334,46.48098539079365L147.5106416666667,56.895157366047215L147.74972499999998,56.08498651501829L147.976225,48.53609576337948L148.22789166666666,52.22083435752843L148.32855833333335,53.31557205634557L148.466975,49.00074590235333L148.75135833333334,51.00746238045882L148.99295833333332,54.198972128595656L149.08104166666666,48.740082736636595L149.1427,40.03201804244992L149.81213333333332,42.06140656741215L150.37964166666666,40.84107855569678L150.513025,44.66578572614486L150.51554166666665,45.6885173045745L150.8552916666667,52.33179489585552L151.71347500000002,45.14932418700499L151.74241666666666,44.19963230800681L151.94626666666667,46.83838275029217L152.08090833333333,54.42984360843509L152.15515,48.940817948750095L152.25581666666668,79.72881110160267L152.35019166666666,68.23031258948797L152.45463333333333,68.02836354795079L152.55404166666665,67.72912427750396L152.68113333333335,61.542914634131705L152.80193333333332,47.88135388237336L152.8875,56.44745628128237L153.42103333333333,55.13968151628235L153.4462,49.83038260699024L153.90423333333334,49.801348975758444L154.15841666666668,42.1441241577904L154.19868333333332,79.45857020956007L154.26663333333335,70.72289320716798L154.37988333333334,62.71396372782287L154.62525833333333,65.6869219367135L154.66426666666666,58.56713718216844L154.73347500000003,53.79049585846275L154.77751666666666,60.36109550503451L154.7901,62.340804934968446L155.03547500000002,60.436209240267814L155.42681666666667,47.20937861000371L155.9679,39.03272238787625L156.38189166666666,47.11166642283365L156.454875,36.61221765036859L156.92045833333333,47.341177371209994L157.06894166666666,48.60350278244778L157.14444166666667,44.25422952144743L157.16205833333333,47.193825583018906L157.18093333333331,41.033721204038784L157.19729166666667,41.975148940670465L157.40995,42.99548485460684L157.83904166666667,39.09703590179137L158.06050833333333,40.63176430150938L158.266875,54.06720232351766L158.28449166666667,54.964859733119965L158.81550833333333,40.84355942013795L158.88723333333334,44.27830452062625L159.04200833333334,44.98596052987415L159.263475,45.375595112617845L159.38930833333333,50.27426634429315L159.9392,49.844147163738384L160.77095833333334,47.03290963525802L160.86281666666667,56.09078390354367L161.63291666666666,55.202049589454504L161.80530833333333,45.011993288951714L162.63077499999997,43.1668807375153L162.63203333333334,58.80032615652634L162.70501666666667,41.63868702930242L162.95668333333333,9.061295666874855L163.36060833333335,27.92060904648278L163.66386666666668,25.965813063627536L163.82493333333332,37.71993687710204L163.86645833333333,37.21583688650813L164.11057499999998,46.98501213213035L164.321975,47.59820277334603L164.39118333333332,54.10386496082239L164.51198333333335,57.394095399527686L165.0870416666667,52.84776708150139L165.13863333333333,47.9843031438032L165.24936666666667,43.028240160883854L165.52871666666667,46.20875499511692L165.72124166666669,50.00027363092556L165.99429999999998,45.52772904187404L166.692675,37.495854232460005L166.93679166666666,43.20982825465484L166.98586666666668,46.31754080580612L167.236275,46.40453642451544L167.764775,42.99230930941201L168.10075,39.75036164349666L168.29201666666665,40.02696695237748L168.59275833333334,47.241083497645434L168.98535833333335,40.44917289038074L169.1955,42.63463691581205L169.64975833333332,44.62426986622697L169.99705833333334,40.56727202034398L170.06375,45.68210804120329L170.51297499999998,46.84632673991436L170.52807499999997,48.47701692847002L170.83888333333334,49.86720735129326L170.981075,51.31849768475456L171.18366666666665,69.57979560069643L171.29691666666668,62.45917869442488L171.70461666666668,55.55681173871258L171.98145,45.7823329529603L172.02926666666667,34.09232377157113L172.11986666666667,40.4693627551797L172.16894166666668,44.5190888306596L172.41305833333334,44.84083982987451L172.430675,39.03594373912557L172.45206666666664,32.072655721760015L172.58796666666666,37.60838837783447L173.19196666666667,35.11554845271709L173.43105,48.03589924280655L173.57701666666668,48.82214885065133L173.85385000000002,38.42306205284652L173.89034166666664,35.47952865193642L174.47043333333332,44.01498363192911L174.793825,46.94530831190136L174.83031666666668,46.23384357365015L174.90707500000002,42.59213902687577L175.28960833333332,48.130980430538045L175.50100833333335,52.708028314318696L176.1415,45.103008619300766L177.66785833333333,46.950612603716536L177.66911666666667,48.52130329310998L177.84402500000002,57.42774962943861L177.881775,51.83405827473567L177.93336666666664,51.77375502759256L178.47696666666667,44.958725400635245L178.52981666666668,32.28251478353474L178.94254999999998,40.040108724875836L179.467275,41.15776642852305L179.48237500000002,49.73420310773018L179.6145,65.86444653650116L180.02849166666667,66.16619131885761L180.70925,67.56975418457434L180.73945,63.194000996005215L180.78097499999998,62.42178234370758L181.33086666666668,57.5160681379046L181.44915,50.66596496638216L181.87069166666666,36.489232195557435L182.15759166666666,34.27675970939123L182.23057500000002,43.42818385602271L182.51370000000003,46.178676479252346L182.82450833333334,46.580892823047265L184.276625,52.71671940213294L184.58239999999998,37.50771079455876L184.89446666666666,48.802663755384486L184.96115833333332,52.985892173745725L185.09831666666668,46.180948224549496L185.26567500000002,47.46912195657106L185.49720833333336,49.875069935392446L185.658275,62.29137499642266L185.77781666666667,51.37062530912806L185.96405,48.07182891915818L186.00431666666665,19.10935485437892L186.08107499999997,27.275882478254573L186.103725,35.084940323392914L186.375525,38.44790053610589L186.61712500000002,55.89110877316621L186.74799166666665,49.156579921374146L187.30669166666667,65.03864869517228L187.67664166666668,71.87420663980458L187.89307499999998,58.75357619716283L188.00380833333335,62.59080555959292L188.01890833333334,58.23800659546926L188.028975,50.45622828725959L188.12460833333333,50.70978721163502L188.17871666666667,33.980217922926016L188.65688333333333,34.05922182805543L188.8406,29.437246099996116L189.63586666666666,35.46283964364309L189.916475,53.15598542483707L190.62743333333333,41.9644987672047L190.64127499999998,44.53912626614712L190.86525833333334,42.48937645913122L190.9332083333333,44.38077825723323L191.11189166666668,39.733935494780866L192.11855833333334,34.76956044525883L192.42055833333333,49.56182699191619L192.78547500000002,51.14641032735618L192.92640833333334,53.403438636852044L193.19065833333332,51.35196197278023L193.28125833333334,40.397268478103825L193.608425,34.911213286180015L193.79340000000002,38.44233593833721L194.257725,35.38224665666522L194.27408333333335,35.11803334223862L194.38104166666668,38.247917796339976L194.88815000000002,40.73112258057776L195.02153333333334,54.73377113708901L195.8168,60.29053255132408L196.14019166666665,57.25641045232254L196.56425,58.623481689605725L196.65359166666667,67.5197357360035L196.75174166666667,62.19467768942479L197.14811666666665,64.79815913774182L197.15440833333335,60.75698723251445L197.17328333333333,57.1926601495761L197.58853333333334,56.906991378251305L197.62879999999998,49.24522829852221L197.8766916666667,46.03316937256983L198.16610833333334,41.24598342779902L198.27055000000001,57.24015694894784L198.29445833333332,59.41322738911052L198.42406666666668,44.897570252918456L198.77514166666666,46.79388145956611L199.37662500000002,59.754890354207376L199.41185833333333,47.083367420973985L199.52007500000002,52.81341799206548L199.9995,54.3596632785661L200.40090833333335,42.30879257665691L200.58336666666668,38.404257113941185L200.64125,52.93931625052001L201.30313333333334,46.697352307677704L201.35346666666666,45.14414563977985L201.39121666666668,52.42966115131793L201.40380000000002,46.8353078819531L201.49943333333334,56.59504827040074L201.5422166666667,73.62355115172507L201.65169166666666,63.358737201529536L201.69070000000002,56.319188621128546L202.27834166666668,46.730520196636576L202.57908333333333,37.10644304911378L202.872275,37.87861451015527L203.66628333333333,35.16126450989378L203.71158333333335,24.97646496059363L203.83364166666667,30.232501803028896L204.09789166666667,39.08751780748793L204.09915,43.90401799593252L204.47539166666667,32.84162019983097L204.79626666666667,32.47455004945206L204.97369166666667,24.746880582000557L205.34364166666668,29.65935566194551L205.53994166666666,39.87049916973393L205.7198833333333,35.59758296221344L205.8281,45.98704749507209L206.07473333333334,45.28457616912573L206.1061916666667,49.54136449254736L206.26474166666668,43.01375300748887L206.35282500000002,69.78197443109819L206.65230833333334,67.54749369373488L206.72655,65.8241783078052L206.87629166666665,54.390403430765346L207.03232500000001,59.272219641337415L208.4102,55.12399577716742L208.52093333333335,51.45766395557959L208.57000833333333,57.63012744576896L208.6216,53.17039788693357L209.27719166666665,37.533901883501926L209.38666666666668,35.67601722995818L209.76039166666666,22.42802221281778L210.603475,18.14557849749204L210.76076666666665,62.86853321725995L211.63908333333333,76.25748115461086L211.76365833333332,72.46364998131463L211.93479166666668,72.52473309421786L212.08830833333334,61.27002398409054L212.16129166666667,62.10931906259876L212.24811666666668,59.50950658245385L212.25315,42.80552745888147L212.38024166666668,40.42301748235502L212.48845833333334,47.53284086610927L213.215775,49.86241537695325L213.35796666666667,43.30414825082849L213.5190333333333,45.41428794944963L213.774475,39.575056455928944L213.83865,35.90765936531949L213.925475,33.615882702435016L213.93050833333334,40.72667706164208L214.59365,21.872581974075672L214.61755833333333,18.568244379131244L214.718225,24.41515820712155L214.87174166666665,17.01026129030788L215.00386666666665,27.571054729425697L215.22910833333333,30.43537121764669L215.246725,38.973969081205325L215.292025,38.20515380923655L215.34361666666666,42.512116790337416L215.4619,47.67732125078163L215.52355833333334,57.03318063920719L215.64561666666668,55.854119254091856L215.75005833333333,50.83810457243527L215.85953333333333,39.100965506550125L215.88218333333336,37.72027651631123L216.05205833333332,42.994719406244855L217.0927,39.315492406073474L217.398475,41.552471743846894L218.39255833333334,41.94984526485649L218.47686666666667,35.937266267272776L218.553625,49.03678169407026L219.00662499999999,52.22824117430051L219.60685,49.50681513653278L219.7867916666667,57.74245789001397L220.44741666666667,52.644017115742045L220.54556666666664,59.59408357266251L220.94445833333336,68.72741913959997L221.11559166666666,61.917820205582274L221.13446666666664,49.95060039718294L221.85675,38.45442732140589L221.96119166666668,44.395703489552034L222.28835833333335,54.500379982273046L222.50730833333333,55.116929324238455L222.59916666666666,47.348968483773376L222.78288333333333,52.13206555696982L222.80679166666667,51.05722000168515L222.88984166666665,49.26897561766759L223.09243333333333,62.141245212792526L223.20694166666667,53.1911482496876L223.26734166666668,65.75460111094716L223.5102,79.18775222952678L223.74425,74.54002950239817L223.89273333333333,69.26424871333542L223.97830000000002,64.18133400018759L224.03618333333333,51.03750893205L224.86290833333334,66.04622482182118L225.05920833333334,70.40538757690005L225.2227916666667,64.97811442263742L225.42286666666666,56.32164992578389L225.756325,67.4287816986818L225.89977499999998,71.8147958222578L226.22316666666666,67.1844089647475L226.75544166666666,58.19726180925234L226.81835833333335,64.00210329582505L227.03479166666668,68.92299927925606L227.08135,63.224804628021076L227.39215833333336,72.49097442206097L227.70170833333333,77.3811686815857L227.95966666666666,73.00286174060365L227.9949,65.1162301770783L228.217625,26.675879061170207L228.95500833333332,31.97827952739155L228.98395000000002,41.17744661212092L229.19660833333333,47.325257104183066L229.19786666666667,44.249132883369526L229.27714166666667,55.54953445732686L229.380325,35.829829052174716L229.54264999999998,45.34062810933176L229.614375,45.09525220522369L229.75153333333336,58.50459641588921L229.84087499999998,67.7971043950946L230.01075,61.11296573896968L230.43732500000002,60.586059349666485L230.64872499999998,66.48287589769333L231.47922499999999,71.70571781911164L231.62644999999998,59.89038316780017L232.317275,63.76985496289167L232.56516666666667,65.67057316307601L232.6155,59.21383112242708L232.770275,44.42961502151476L233.37553333333335,42.167981365230474L233.54415,31.68803069519845L233.7995916666667,17.82885410952946L234.04748333333333,19.078021465690256L234.42624166666667,39.595351266173395L234.45518333333334,54.168828390859744L234.69678333333331,66.25607404655547L235.14600833333336,78.70538296580888L235.24290000000002,59.32436082308672L235.49708333333334,45.53452516615212L235.60404166666666,58.26163073254705L235.74371666666667,70.68440673506491L235.80789166666665,67.21721704561625L236.11995833333333,69.8686833902301L236.61448333333334,65.80574407199096L236.79442500000002,60.73630810511695L237.05741666666665,68.132420054709L237.25875,61.2012032692424L237.473925,64.19284195406858L237.65764166666668,63.3526255856394L237.67148333333333,49.5460556666543L237.8338083333333,47.12912015155189L237.85897500000002,45.50826332473014L238.23270000000002,40.991401524863136L238.52337500000002,37.14638143221953L238.85180000000003,35.86306263675965L238.92478333333332,40.11498907707778L239.03803333333332,45.921699058132845L239.32115833333333,40.89008324517562L239.70746666666665,50.95604008013683L240.60969166666666,54.56950437862959L241.12309166666668,46.08911546124946L241.17216666666667,43.9685254875381L241.18475,53.50881224822493L241.89193333333336,63.46831190554285L242.12472499999998,75.84689688363541L242.82435833333332,62.16955022124503L242.97661666666667,40.199957730286485L243.07854166666667,42.91505862719089L243.09741666666667,52.62320646876631L243.2308,58.01858161185976L243.45100833333333,42.20550613358185L243.559225,58.224419859826696L243.79704999999998,35.89898984346277L244.638875,43.36564115396044L244.93206666666669,51.32514917601341L245.27810833333334,51.02378728702135L245.514675,57.16887173823068L245.590175,62.32504426329555L245.71978333333334,45.635563645232594L245.85190833333334,56.41632274795518L246.06959999999998,60.88779833918714L246.73651666666666,72.05145285491045L246.97308333333334,72.94909332728557L246.9907,75.88331928068273L247.009575,66.52912249466931L247.09765833333333,53.52244763810201L247.3682,49.6121461901822L247.99988333333332,63.34688144058788L248.75488333333334,55.632120900415686L248.87065,53.19736867807485L249.0292,44.88039300220248L249.39285833333332,43.76845738002504L249.98301666666669,49.04668785083132L249.99056666666667,52.92076214338911L250.03335,69.94515013935643L250.19693333333333,84.07831077734664L250.61973333333333,77.64778045926116L250.656225,62.05001989081494L250.98590833333336,46.74732159961755L251.04756666666668,54.16493229346541L251.26525833333332,34.200627539782346L251.62514166666668,33.929568698198494L252.0643,41.42071424317956L252.10205000000002,54.628912368010646L252.42795833333332,37.95476852086202L252.98791666666668,49.51448191076349L252.99295,61.2268811813403L253.06215833333334,60.353948194178926L253.26223333333334,70.61655468239324L253.29998333333336,70.4689197131594L253.43085,39.949596349445585L253.50886666666668,51.79599482324859L253.72655833333332,56.57576602195415L254.29406666666665,49.49416447188963L254.816275,49.8273969015906L255.2353,63.59558685026008L255.30325,57.73011907542694L255.37245833333336,41.778303035887745L255.37875,30.574990176959005L255.72479166666668,38.97079286943881L255.78393333333332,35.0975232456214L255.78645,37.339325906485044L256.05447499999997,40.31944341052454L256.1954083333333,39.08942561774117L256.462175,53.990469837615066L256.60185,28.501171615643557L256.61443333333335,42.749116344222756L256.88875,50.315903530875616L257.63871666666665,47.25690009534105L257.6513,47.649890382133236L257.7393833333333,59.40033403870257L258.032575,65.63578306865973L258.7334666666667,55.85781509611317L259.2242166666667,64.61398194448137L259.50985833333334,41.72270714066971L259.52621666666664,45.9258596915293L259.79046666666665,40.061823643452925L259.89365,62.17960870321258L260.08365833333335,64.64510276771324L260.1188916666667,65.23377359475143L260.38188333333335,66.14623080087895L260.5190416666667,46.73381325621912L260.5895083333333,55.269857949742445L260.652425,45.09771401965716L260.6662666666667,33.503426479175744L261.23125833333336,43.62484408590947L261.32437500000003,46.50926932508426L261.6628666666667,60.53504516301241L261.72075,63.56577977645071L261.822675,65.50879625271821L262.207725,62.178311594546855L263.2836,65.39276367726512L263.310025,50.350514100389745L263.3188333333333,55.77304154815482L263.347775,49.99337116718547L263.3981083333333,48.15810664072205L263.7202416666667,49.507474765372436L263.9039583333333,54.66201607090912L264.163175,70.35763687594503L264.16695,71.73216261252252L264.5306083333333,76.78240247287115L264.676575,76.89397785597764L264.80744166666665,74.21808308057247L266.2457166666667,51.71114382661273L267.03846666666664,65.92768519323218L268.40250000000003,63.980870645769016L268.44528333333335,71.18342828612347L268.662975,70.61828005222618L268.94735833333334,75.81382084905476L268.99265833333334,59.82855467272584L269.7552083333333,55.34775757610835L269.870975,68.88944651366495L270.06601666666666,68.57320637970774L270.48881666666665,74.894900524715L270.897775,46.63337826997599L270.91665,11.766394781456086L271.04625833333336,40.41295158751265L271.18845,60.04009725735307L271.3218333333333,72.73407013830122L271.68675,62.34654760109325L272.42539166666666,64.7683660502531L272.71480833333334,64.46143033187555L272.77772500000003,73.65498488658109L273.0658833333333,74.96949575582018L273.22065833333335,71.17984942950461L273.3414583333333,48.46841713066948L273.97314166666666,57.1838603234509L274.21096666666665,66.9892942105437L274.57085,60.03670220817179L274.8338416666667,62.55417263251279L275.3887666666667,66.94817065904085L275.3938,53.347992687705144L275.90216666666663,54.445544651872694L275.93739999999997,62.3609105389711L276.409275,49.852292939754506L276.41305,46.41161769819581L276.56782499999997,46.903596429893696L276.71882500000004,42.91986515626684L276.8333333333333,47.01050599548765" style="fill: none;" fill="none"></path></g></g></g></g><g opacity="0.2"><g><g><g><path stroke="rgb(255, 112, 67)" stroke-width="2px" d="M25.220775,153.88487753877416L25.378066666666665,153.77040765574202L25.456083333333332,162.8992894627154L25.764375,148.932026155293L25.842391666666668,150.1645489744842L25.896500000000003,153.35573384352028L25.905308333333334,149.59265403449535L25.982066666666668,148.24526850879192L26.18465833333333,151.3210100904107L26.443875000000002,141.0730733424425L26.84528333333333,103.3001460134983L26.910716666666666,121.75528916716576L26.974891666666668,131.693599909544L27.349875,121.78727419674397L27.353650000000002,114.22529263794422L27.529816666666665,109.91310033202171L28.0709,156.2671619625762L28.174083333333332,124.97231268882751L28.294883333333335,121.12268082797527L28.296141666666667,119.9980695694685L28.54655,119.25050818920135L29.232341666666667,121.17592678964138L29.252475,118.38125494122505L29.32671666666667,111.1562991142273L29.720575,118.72980657219887L29.723091666666665,107.8237264752388L30.60015,125.51259250938892L30.704591666666666,175.9583251029253L30.820358333333335,118.90746894478798L30.841749999999998,125.41442982852459L31.4231,112.65044072270393L31.628208333333333,142.8216603845358L31.893716666666666,115.40014310181141L32.36936666666667,124.14456586539745L32.6009,118.73525829613209L32.70534166666666,124.08013951778412L32.969591666666666,117.54354889690876L33.597500000000004,130.03406032919884L33.6126,89.83313244581223L33.792541666666665,132.49371095001698L33.933475,124.7016281336546L34.1713,122.54565989971161L34.55509166666667,117.71308775246143L34.55886666666667,124.43562778830528L34.98040833333333,130.81026501953602L35.02445,147.66013922542334L35.31764166666667,131.4058348685503L35.46109166666667,109.39386516809464L35.512683333333335,111.78393575549126L35.861241666666665,114.53576132655144L35.873825000000004,114.09661929309368L36.33940833333333,121.6719756424427L36.41113333333333,129.59276609122753L36.82009166666667,113.34001126885414L37.081824999999995,112.02593743801117L37.190041666666666,123.49299386143684L37.37124166666667,117.48635458946228L38.25333333333334,90.58984333276749L38.354,131.4156912267208L38.40810833333334,130.4242871850729L38.89005,125.28795616328716L38.96680833333333,133.37923892587423L39.034758333333336,110.84364393353462L39.679024999999996,119.25367319583893L39.721808333333335,116.84351272881031L40.22891666666667,109.80929866433144L40.23520833333334,111.1473790705204L40.474291666666666,91.14721155166626L40.63284166666667,113.43615098297596L41.37148333333334,86.92447552084923L41.569041666666664,129.87618716061115L41.60301666666667,99.5086315870285L42.306425000000004,120.97062863409519L43.15454166666667,115.20968882739544L43.62515833333333,111.71625208854675L43.764833333333335,133.22190248966217L43.88311666666667,111.13906565308571L44.63811666666667,121.90351697802544L45.00429166666667,101.24906346201897L45.447224999999996,104.30773115158081L46.37965,110.83243981003761L46.64264166666667,131.60779657959938L46.68165,109.71768227219582L46.958483333333334,138.1672279983759L46.98616666666666,148.5394538976252L47.24286666666667,111.80589298903942L47.26048333333333,127.97836478054523L48.38543333333334,113.5232546031475L49.74443333333333,122.42934326827526L49.881591666666665,94.34084039926529L49.9961,114.83286313712597L50.3283,110.7024292498827L50.40128333333333,109.46923980116844L50.41260833333333,115.84438343346119L50.641625,119.2632737159729L50.741033333333334,118.33456054329872L50.88825833333334,114.48451459407806L51.01283333333333,114.11978714168072L51.061908333333335,116.57642836868763L51.31483333333333,117.44605350494385L51.31860833333333,107.60841634869576L51.410466666666665,109.06573837995529L51.69359166666666,106.72664549946785L51.774125,114.14799526333809L51.884858333333334,113.00283256173134L51.99433333333333,114.04621919989586L52.65999166666667,120.23494130373001L53.159549999999996,129.07460966706276L53.266508333333334,131.06329675018787L53.301741666666665,137.3803414106369L54.28324166666666,129.6482750326395L54.295824999999994,131.25218434631824L54.469475,122.6311836540699L54.56385,117.61604073643684L54.6469,200.75920370221138L54.78909166666667,117.24850697815418L54.952675,110.86556951701641L54.991683333333334,169.5486327856779L55.5529,110.70506148040295L55.722775,114.5571963340044L55.725291666666664,88.09591832756996L55.77310833333333,95.08546096086502L56.149350000000005,88.39771753549576L56.28273333333334,93.8527383506298L56.54320833333333,117.47916474938393L56.94461666666667,133.9535214677453L57.11826666666666,111.69034123420715L57.648025,71.84562429785728L57.69206666666667,90.8428381383419L57.78518333333333,105.439284324646L58.26586666666667,103.02962762117386L58.887483333333336,79.39497748017311L58.88874166666667,104.59741893410683L59.336708333333334,98.17156925797462L59.77838333333333,110.56062376499176L59.9017,106.90686625242233L59.94574166666667,100.59426578879356L60.18105,109.56159996986389L60.29555833333333,96.79315084218979L60.95240833333334,102.9911780655384L61.08453333333334,84.34509533643723L61.62184166666667,102.69678497314453L61.654558333333334,110.85601119697094L61.737608333333334,116.84311446547508L61.91251666666666,102.97175019979477L61.99053333333333,94.131237834692L62.252266666666664,75.38193368911743L62.42843333333333,100.06659588217735L62.70275,91.88484799861908L62.924216666666666,123.99080193042755L62.95693333333333,115.09507338702679L63.136875,110.37569770216942L63.3294,97.01152047514915L63.509341666666664,87.05701544880867L63.688025,88.7406776547432L63.806308333333334,100.19054809212685L63.823925,100.89239358901978L64.68714166666666,90.54159808158875L64.7337,94.11959061026573L65.28359166666667,69.16200989484787L65.35405833333334,70.0522735118866L65.69506666666666,67.30599197745323L65.98196666666666,77.86139988899231L66.11660833333333,71.24721121788025L66.26131666666667,101.94825035333633L66.39344166666666,123.77948498725891L66.55954166666668,115.23708459734917L66.56960833333333,107.34803652763367L66.73570833333333,122.03727543354034L66.92068333333333,81.61972922086716L67.1648,76.97188004851341L67.20003333333334,93.19469654560089L67.62031666666667,95.18247896432877L67.63541666666667,83.64136666059494L67.68071666666667,98.4315692782402L67.74866666666667,117.08264744281769L67.795225,112.11989066004753L67.84178333333332,70.6400363445282L67.99655833333333,103.57525366544724L68.406775,86.47547712922096L68.61188333333332,89.10154643654823L68.705,84.67007821798325L69.62861666666667,87.09324422478676L69.65504166666666,92.26206403970718L69.81736666666666,72.6153117120266L70.17976666666667,110.25934678316116L70.40878333333333,87.54638877511024L70.51448333333333,66.11319065093994L71.25941666666667,77.7540323138237L71.29716666666667,77.58623948693275L71.43306666666668,80.68992939591408L71.53750833333334,93.83859077095985L71.98044166666666,23.657200813293457L72.34158333333333,101.8732185959816L72.687625,49.243937373161316L72.82855833333333,79.86682194471359L73.55713333333333,63.37252700328827L73.89059166666667,96.57778796553612L74.04159166666666,82.92352205514908L74.21901666666666,85.3027261197567L74.61539166666667,88.51789283752441L75.12627499999999,49.86845648288727L75.38675,114.73340544104576L75.526425,65.55085337162018L75.87372500000001,43.504830837249756L76.130425,38.77212256193161L76.34056666666667,105.58226877450943L76.40725833333333,58.56129491329193L76.49911666666668,81.2223257124424L76.80992499999999,72.05158710479736L77.10060000000001,68.67959958314896L77.43783333333334,80.5223106443882L78.18654166666667,92.60544615983963L78.584175,82.27862030267715L78.606825,75.9296064376831L78.871075,80.29257336258888L79.928075,49.81599122285843L80.08033333333333,76.69603389501572L80.17093333333334,57.95957440137863L80.20490833333332,44.68759381771088L80.20994166666667,55.72464716434479L80.28921666666666,50.68825650215149L80.52578333333334,80.33477345108986L80.62645,85.12458372116089L80.78625833333334,71.17206341028214L80.79506666666667,83.47242388129234L80.85043333333333,86.71713066101074L80.917125,63.86412638425827L81.56139166666667,82.34873047471046L81.74762500000001,60.87198185920715L82.261025,67.29178109765053L82.43090000000001,74.84569716453552L82.62090833333333,95.8986197412014L83.45140833333333,63.21032041311264L83.47154166666667,72.59223881363869L83.57095,56.135085225105286L84.68835,70.76897343993187L85.11240833333333,60.88234198093414L85.19671666666667,84.18817430734634L85.24579166666668,70.09842985868454L85.41944166666667,77.16494545340538L85.50123333333333,83.8801294863224L85.530175,69.87876257300377L85.66355833333333,76.39454063773155L85.79568333333334,55.2120321393013L85.85356666666667,62.54034125804901L86.224775,89.69998061656952L87.168525,97.75259095430374L87.26793333333333,120.49642096459866L87.42648333333332,104.5604622066021L88.09214166666666,88.19998902082443L88.15505833333334,102.71967324614525L88.29221666666666,103.4257071018219L88.32996666666666,91.73531198501587L89.11516666666665,87.62311381101608L89.3165,72.79125970602036L89.51154166666667,89.44229632616043L89.62856666666667,98.18583288788795L90.347075,87.06082400679588L90.60251666666666,85.07372206449509L90.96869166666666,69.73629507422447L91.04545,77.07556039094925L91.24300833333334,72.73112457990646L91.45944166666666,79.09024009108543L91.74130833333334,76.314218044281L91.78283333333333,74.64963555335999L91.97535833333333,91.49314150214195L91.99423333333333,76.48534995317459L92.44849166666667,81.32812133431435L92.747975,68.28038674592972L92.76181666666666,87.91316029429436L92.944275,64.04389876127243L92.99964166666666,54.70650672912598L93.2727,62.076351284980774L93.98743333333333,70.43315568566322L94.1334,62.82916921377182L94.29698333333333,60.47025811672211L94.35360833333333,69.91308706998825L94.7525,116.61883945763111L95.05953333333332,42.76964199542999L95.06960000000001,52.256264090538025L95.27345,33.03676128387451L95.34014166666667,62.85556536912918L96.05865,56.77475416660309L96.27256666666666,61.09925043582916L96.29018333333335,69.53109186887741L96.39965833333333,88.54087606072426L96.6249,60.30875837802887L96.666425,61.897665560245514L97.27671666666667,49.72968149185181L97.50195833333333,32.063089191913605L98.704925,59.519047021865845L98.85089166666667,63.39430224895477L99.056,58.73159337043762L99.089975,56.60886561870575L99.11136666666667,28.320542693138123L99.74179166666667,85.83180445432663L99.80093333333333,72.83200916647911L99.95319166666667,67.84851631522179L100.21492500000001,49.66315305233002L100.252675,51.958700716495514L100.89316666666667,59.92036986351013L100.90071666666667,57.14580899477005L100.9284,72.39347639679909L101.04165,63.73450881242752L101.26563333333333,59.738751232624054L102.18421666666666,59.4370311498642L102.27355833333333,92.26328784227371L102.47740833333334,57.89362621307373L102.781925,28.967934250831604L103.3595,59.62596094608307L103.46016666666667,54.0626705288887L103.83389166666667,56.54815024137497L103.87289999999999,43.95580208301544L104.28437500000001,44.87226140499115L104.473125,41.25734907388687L104.71975833333333,19.788919150829315L105.08845,62.70159834623337L105.28726666666667,70.09069141745567L105.53138333333332,69.22026711702347L106.35685000000001,50.42322939634323L106.56573333333333,57.89586281776428L106.81991666666667,64.53038138151169L107.327025,64.83683842420578L107.71585,54.11753064393997L107.7687,45.559975147247314L108.27958333333332,60.76147037744522L108.59290833333334,68.19836559891701L109.20823333333333,73.53988927602768L109.44605833333334,72.67153805494308L109.50268333333332,71.44440168142319L110.02992499999999,48.18965256214142L111.06553333333333,32.456615567207336L111.08818333333333,38.88050293922424L111.21024166666666,54.58663737773895L111.27441666666667,16.67196786403656L111.47700833333333,55.289553701877594L112.2081,54.80270183086395L112.22571666666666,1.984469711780548L112.56546666666668,45.602766036987305L112.89766666666667,89.69644635915756L112.99707500000001,23.407713890075684L113.1443,77.70974859595299L113.83260833333333,59.81195783615112L113.98109166666666,54.00452935695648L114.076725,76.3062316775322L114.40263333333334,79.71630477905273L114.50455833333334,56.80784958600998L115.04815833333333,88.46253687143326L115.20670833333332,62.27700215578079L115.23942500000001,63.73490971326828L115.38539166666668,42.58687341213226L115.64964166666667,22.146015644073486L115.71381666666666,54.8070273399353L115.74149999999999,57.534777760505676L115.783025,78.75394231081009L115.81448333333334,53.258990943431854L116.14165,41.952964782714844L116.14416666666666,155.00711446534842L116.27251666666668,89.23188668489456L116.27629166666667,74.26020258665085L116.47007500000001,68.07633876800537L116.6777,71.09299626946449L116.86645,50.04531705379486L117.03758333333333,77.11790817975998L117.2515,80.29854995012283L118.025375,58.2456277012825L118.08451666666667,47.69371712207794L118.16001666666666,54.67551076412201L118.18895833333333,56.84398341178894L118.5199,58.52815729379654L119.41835,73.64009338617325L119.7581,37.40459704399109L120.13308333333333,60.73205691576004L120.15573333333333,63.27460169792175L120.2564,53.02640515565872L120.71065833333334,57.674576103687286L121.075575,70.95352497696877L121.3436,39.25060826539993L121.407775,81.60696896910667L121.58897499999999,56.5688071846962L121.64811666666667,64.93829798698425L121.79534166666667,78.31298303604126L121.94130833333334,38.84912717342377L121.95011666666666,29.862808227539062L122.30874166666666,51.957698464393616L122.72650833333334,52.32584148645401L123.19335,45.354270815849304L123.4878,59.16669738292694L123.57965833333333,52.668358504772186L124.29313333333334,50.567500948905945L124.3787,-30.05578923225403L124.47559166666666,50.72494947910309L124.49320833333333,44.92326021194458L124.54228333333333,65.18377590179443L124.58255,38.273275315761566L125.10224166666666,26.737058222293854L125.32748333333333,73.78367918729782L125.80313333333332,35.61961770057678L125.8736,50.24578857421875L125.87863333333334,61.99800682067871L125.960425,61.24202388525009L126.04221666666666,39.04286777973175L126.32534166666666,159.26901662908494L126.34547500000001,38.56698793172836L126.52667500000001,34.49273818731308L126.55939166666667,21.438088059425354L126.60595,50.243784070014954L127.08789166666666,48.61741375923157L127.1118,50.270823776721954L127.24015,51.36040896177292L127.57235,44.80917227268219L127.71454166666668,45.899907410144806L127.75858333333333,49.74326992034912L129.27739166666666,62.90040296316147L129.320175,56.590149879455566L129.41958333333332,48.14179766178131L129.94556666666668,21.141737937927246L130.56844166666667,51.241805613040924L131.11581666666666,66.35086154937744L131.38258333333334,81.23570841550827L131.62418333333335,41.79282599687576L131.73114166666667,58.60987776517868L131.89724166666667,36.62167990207672L132.23825,59.125341296195984L132.33891666666665,31.70524299144745L132.76549166666666,56.42623418569565L132.8045,53.17383116483688L132.846025,63.51138639450073L132.989475,49.18869745731354L133.06875,45.19737088680267L133.40220833333333,44.973541617393494L134.36609166666668,46.8882018327713L134.47305,40.95763349533081L134.65299166666665,58.70746546983719L135.13745,59.25620377063751L135.20917500000002,45.291181683540344L135.480975,35.82747423648834L135.68608333333333,41.3060057759285L136.07365000000001,14.01483929157257L136.74937500000001,34.390286922454834L136.92680000000001,47.27024978399277L137.489275,-9.409438133239746L137.59623333333334,43.57234042882919L137.61636666666666,65.52888822555542L138.09705,45.667226672172546L138.38395,53.43531346321106L138.46196666666668,31.618184208869934L138.71615,64.01357799768448L138.984175,48.381430864334106L139.79454166666667,47.699920535087585L140.05375833333335,39.525584042072296L140.46145833333333,40.07791990041733L140.486625,37.953018844127655L140.4904,22.843741357326508L140.59735833333332,6.630256354808807L140.60113333333334,84.65691179037094L141.08559166666666,0.5904319882392883L141.85191666666668,129.60548941791058L141.92615833333335,52.93460941314697L142.351475,30.503120720386505L142.47353333333334,62.124997437000275L142.7856,39.35886204242706L143.32668333333334,48.368169486522675L144.125725,64.72605264186859L144.43779166666667,70.78502529859543L144.57243333333335,35.023636400699615L144.78131666666667,46.053083181381226L144.941125,62.45522367954254L145.11351666666667,36.92402243614197L145.18398333333334,48.04130870103836L145.22425,71.99886864423752L145.31359166666667,38.03216511011124L145.79175833333332,69.75098070502281L145.90375,60.216266334056854L145.93269166666667,31.457370221614838L146.34668333333332,43.644207179546356L146.64113333333333,59.822201907634735L146.722925,49.763758063316345L147.42255833333334,37.95251244306564L147.5106416666667,77.11090296506882L147.74972499999998,54.51230192184448L147.976225,33.88236665725708L148.22789166666666,59.37356221675873L148.32855833333335,55.44065111875534L148.466975,40.62490689754486L148.75135833333334,54.902853190898895L148.99295833333332,60.39425575733185L149.08104166666666,38.143415093421936L149.1427,23.12812775373459L149.81213333333332,46.00080782175064L150.37964166666666,38.47220653295517L150.513025,52.09021729230881L150.51554166666665,47.67381978034973L150.8552916666667,65.22756904363632L151.71347500000002,31.206881046295166L151.74241666666666,42.3561127781868L151.94626666666667,51.96066302061081L152.08090833333333,69.16620880365372L152.15515,38.28565049171448L152.25581666666668,139.49373898655176L152.35019166666666,45.90969783067703L152.45463333333333,67.636344820261L152.55404166666665,67.14824804663658L152.68113333333335,49.53439003229141L152.80193333333332,21.36185359954834L152.8875,73.07577270269394L153.42103333333333,52.601059913635254L153.4462,39.52409648895264L153.90423333333334,49.744989573955536L154.15841666666668,27.280099511146545L154.19868333333332,151.89249489828944L154.26663333333335,53.7654025554657L154.37988333333334,47.16721826791763L154.62525833333333,71.45795845985413L154.66426666666666,44.74637854099274L154.73347500000003,44.51819211244583L154.77751666666666,73.11578893661499L154.7901,66.18377029895782L155.03547500000002,56.73905289173126L155.42681666666667,21.533766210079193L155.9679,23.160389721393585L156.38189166666666,62.79432249069214L156.454875,16.230934739112854L156.92045833333333,68.1679815351963L157.06894166666666,51.0538991689682L157.14444166666667,35.81152260303497L157.16205833333333,52.9001002907753L157.18093333333331,29.075871527194977L157.19729166666667,43.80262631177902L157.40995,44.976136922836304L157.83904166666667,31.52945852279663L158.06050833333333,43.61094295978546L158.266875,80.14775848388672L158.28449166666667,56.707371175289154L158.81550833333333,13.43162351846695L158.88723333333334,50.94575089216232L159.04200833333334,46.35964572429657L159.263475,46.131944596767426L159.38930833333333,59.78345167636871L159.9392,49.00920993089676L160.77095833333334,41.575801491737366L160.86281666666667,73.6737163066864L161.63291666666666,53.47685945034027L161.80530833333333,25.23129576444626L162.63077499999997,39.585191667079926L162.63203333333334,89.14760255813599L162.70501666666667,8.324916958808899L162.95668333333333,-54.17716991901398L163.36060833333335,64.52986443042755L163.66386666666668,22.17120909690857L163.82493333333332,60.536765456199646L163.86645833333333,36.23728984594345L164.11057499999998,65.94870525598526L164.321975,48.78851401805878L164.39118333333332,66.73250332474709L164.51198333333335,63.7810133099556L165.0870416666667,44.022541522979736L165.13863333333333,38.54346138238907L165.24936666666667,33.40764731168747L165.52871666666667,52.38269555568695L165.72124166666669,57.36028039455414L165.99429999999998,36.84573072195053L166.692675,21.90456783771515L166.93679166666666,54.30166018009186L166.98586666666668,52.3501592874527L167.236275,46.57341027259827L167.764775,36.36857432126999L168.10075,33.457169115543365L168.29201666666665,40.5639066696167L168.59275833333334,61.24495679140091L168.98535833333335,27.264875829219818L169.1955,46.87700825929642L169.64975833333332,48.48649853467941L169.99705833333334,32.69192326068878L170.06375,55.61090737581253L170.51297499999998,49.10628068447113L170.52807499999997,51.642474353313446L170.83888333333334,52.56581228971481L170.981075,54.13570833206177L171.18366666666665,105.0281974375248L171.29691666666668,48.636804699897766L171.70461666666668,42.15809941291809L171.98145,26.80834472179413L172.02926666666667,11.399953007698059L172.11986666666667,52.8483207821846L172.16894166666668,52.38032180070877L172.41305833333334,45.46541529893875L172.430675,27.767616033554077L172.45206666666664,18.555684864521027L172.58796666666666,48.3542223572731L173.19196666666667,30.27650624513626L173.43105,73.11658018827438L173.57701666666668,50.348398089408875L173.85385000000002,18.236599445343018L173.89034166666664,29.76561087369919L174.47043333333332,60.58380800485611L174.793825,52.63358563184738L174.83031666666668,44.8527649641037L174.90707500000002,35.52294784784317L175.28960833333332,58.88284903764725L175.50100833333335,61.592885971069336L176.1415,30.340323328971863L177.66785833333333,50.53713798522949L177.66911666666667,51.570291101932526L177.84402500000002,74.71673369407654L177.881775,40.97571623325348L177.93336666666664,51.656695783138275L178.47696666666667,31.72955024242401L178.52981666666668,7.6757529973983765L178.94254999999998,55.09896755218506L179.467275,43.32733726501465L179.48237500000002,66.38258019089699L179.6145,97.1760955452919L180.02849166666667,66.75193119049072L180.70925,70.29431739449501L180.73945,54.69989186525345L180.78097499999998,60.92276966571808L181.33086666666668,47.99321115016937L181.44915,37.36870586872101L181.87069166666666,8.96969211101532L182.15759166666666,29.98196017742157L182.23057500000002,61.1927130818367L182.51370000000003,51.51786804199219L182.82450833333334,47.36166572570801L184.276625,64.62744158506393L184.58239999999998,7.984341144561768L184.89446666666666,70.72816067934036L184.96115833333332,61.106276750564575L185.09831666666668,32.971351146698L185.26567500000002,49.96969449520111L185.49720833333336,54.545439541339874L185.658275,86.39361423254013L185.77781666666667,30.171522974967957L185.96405,41.668282985687256L186.00431666666665,-37.111918330192566L186.08107499999997,43.1285537481308L186.103725,50.24369966983795L186.375525,44.975999772548676L186.61712500000002,89.75145417451859L186.74799166666665,36.08367097377777L187.30669166666667,95.86854690313339L187.67664166666668,85.14323088526726L187.89307499999998,33.284117102622986L188.00380833333335,70.03954491019249L188.01890833333334,49.78845566511154L188.028975,35.35042333602905L188.12460833333333,51.20198982954025L188.17871666666667,1.5051716566085815L188.65688333333333,34.21258234977722L188.8406,20.465175569057465L189.63586666666666,47.159580051898956L189.916475,87.5015037059784L190.62743333333333,20.2398481965065L190.64127499999998,49.536932587623596L190.86525833333334,38.51045036315918L190.9332083333333,48.052322924137115L191.11189166666668,30.713593661785126L192.11855833333334,25.132832407951355L192.42055833333333,78.27622675895691L192.78547500000002,54.22236621379852L192.92640833333334,57.78472888469696L193.19065833333332,47.36968374252319L193.28125833333334,19.132275223731995L193.608425,24.261812031269073L193.79340000000002,45.29686814546585L194.257725,29.442073345184326L194.27408333333335,34.605148673057556L194.38104166666668,44.32357585430145L194.88815000000002,45.55146127939224L195.02153333333334,81.915383040905L195.8168,71.07718706130981L196.14019166666665,51.36664402484894L196.56425,61.27720820903778L196.65359166666667,84.78893476724625L196.75174166666667,51.85780030488968L197.14811666666665,69.85197606682777L197.15440833333335,52.91235941648483L197.17328333333333,50.27367228269577L197.58853333333334,56.352457880973816L197.62879999999998,34.37239408493042L197.8766916666667,39.797996163368225L198.16610833333334,31.953210711479187L198.27055000000001,88.28767025470734L198.29445833333332,63.63154059648514L198.42406666666668,16.720118165016174L198.77514166666666,50.4749561548233L199.37662500000002,84.91449585556984L199.41185833333333,22.485705256462097L199.52007500000002,63.936457335948944L199.9995,57.361198246479034L200.40090833333335,18.915925920009613L200.58336666666668,30.824864745140076L200.64125,81.15443104505539L201.30313333333334,34.58059877157211L201.35346666666666,42.129097402095795L201.39121666666668,66.57213243842125L201.40380000000002,35.97568094730377L201.49943333333334,75.54042667150497L201.5422166666667,106.6788802742958L201.65169166666666,43.43292188644409L201.69070000000002,42.65418255329132L202.27834166666668,28.117222666740417L202.57908333333333,18.424410939216614L202.872275,39.377535581588745L203.66628333333333,29.886408627033234L203.71158333333335,5.205971717834473L203.83364166666667,40.4353968501091L204.09789166666667,56.27666652202606L204.09915,53.25369483232498L204.47539166666667,11.367553889751434L204.79626666666667,31.762002110481262L204.97369166666667,9.746110439300537L205.34364166666668,39.19533669948578L205.53994166666666,59.6921306848526L205.7198833333333,27.303098559379578L205.8281,66.15483158826828L206.07473333333334,43.92095535993576L206.1061916666667,57.80454182624817L206.26474166666668,30.34250718355179L206.35282500000002,121.74381601810455L206.65230833333334,63.20997226238251L206.72655,62.47891902923584L206.87629166666665,32.19542866945267L207.03232500000001,68.74868640303612L208.4102,47.071561217308044L208.52093333333335,44.34066689014435L208.57000833333333,69.61196833848953L208.6216,44.51327580213547L209.27719166666665,7.18070375919342L209.38666666666668,32.06953525543213L209.76039166666666,-3.288673996925354L210.603475,9.832599520683289L210.76076666666665,149.68368061445653L211.63908333333333,102.24779185652733L211.76365833333332,65.09915417432785L211.93479166666668,72.64330619573593L212.08830833333334,39.42264747619629L212.16129166666667,63.738538920879364L212.24811666666668,54.46281176805496L212.25315,10.380156219005585L212.38024166666668,35.798145174980164L212.48845833333334,61.3342627286911L213.215775,54.38453060388565L213.35796666666667,30.573394417762756L213.5190333333333,49.51044148206711L213.774475,28.240077674388885L213.83865,28.78859442472458L213.925475,29.167139768600464L213.93050833333334,54.52998375892639L214.59365,-14.72654378414154L214.61755833333333,12.153941988945007L214.718225,35.76504975557327L214.87174166666665,2.6360496282577515L215.00386666666665,48.07141846418381L215.22910833333333,35.99551498889923L215.246725,55.548894345760345L215.292025,36.71274769306183L215.34361666666666,50.87269198894501L215.4619,57.70389461517334L215.52355833333334,75.19455474615097L215.64561666666668,53.56535303592682L215.75005833333333,41.10113489627838L215.85953333333333,16.317107319831848L215.88218333333336,35.04011553525925L216.05205833333332,53.233343839645386L217.0927,32.17346352338791L217.398475,45.89484339952469L218.39255833333334,42.72121739387512L218.47686666666667,24.26578938961029L218.553625,74.4652528166771L219.00662499999999,58.42342722415924L219.60685,44.2240469455719L219.7867916666667,73.72929382324219L220.44741666666667,42.74704384803772L220.54556666666664,73.0853890478611L220.94445833333336,86.45683524012566L221.11559166666666,48.699186980724335L221.13446666666664,26.72011488676071L221.85675,16.13832664489746L221.96119166666668,55.92876899242401L222.28835833333335,74.11534023284912L222.50730833333333,56.31376039981842L222.59916666666666,32.26998567581177L222.78288333333333,61.41690105199814L222.80679166666667,48.970755100250244L222.88984166666665,45.79767769575119L223.09243333333333,87.12859207391739L223.20694166666667,35.81743061542511L223.26734166666668,90.14248019456863L223.5102,105.26386910676956L223.74425,65.51797950267792L223.89273333333333,59.023027181625366L223.97830000000002,54.31449955701828L224.03618333333333,25.52302497625351L224.86290833333334,95.18079096078873L225.05920833333334,78.86729174852371L225.2227916666667,54.442819476127625L225.42286666666666,39.51792472600937L225.756325,88.98968455195427L225.89977499999998,80.32882323861122L226.22316666666666,58.19601094722748L226.75544166666666,40.75162321329117L226.81835833333335,75.27032500505447L227.03479166666668,78.47532677650452L227.08135,52.163603246212006L227.39215833333336,90.47824519872665L227.70170833333333,86.87389871478081L227.95966666666666,64.50379532575607L227.9949,49.80688655376434L228.217625,-47.943626046180725L228.95500833333332,42.27117455005646L228.98395000000002,59.034653306007385L229.19660833333333,59.25924217700958L229.19786666666667,38.27783292531967L229.27714166666667,77.48560810089111L229.380325,-2.4495990872383118L229.54264999999998,63.80276745557785L229.614375,44.61893427371979L229.75153333333336,84.53449988365173L229.84087499999998,85.83550223708153L230.01075,48.13787305355072L230.43732500000002,59.56324106454849L230.64872499999998,77.92963743209839L231.47922499999999,81.84417566657066L231.62644999999998,36.95473355054855L232.317275,71.30059432983398L232.56516666666667,69.3602026104927L232.6155,46.68015539646149L232.770275,15.730842590332031L233.37553333333335,37.777751326560974L233.54415,11.344597041606903L233.7995916666667,-9.074253380298615L234.04748333333333,21.50287574529648L234.42624166666667,79.42310911417007L234.45518333333334,82.45851927995682L234.69678333333331,89.71955090761185L235.14600833333336,102.87168851494789L235.24290000000002,21.702376663684845L235.49708333333334,18.76602065563202L235.60404166666666,82.96718859672546L235.74371666666667,94.79920721054077L235.80789166666665,60.486790001392365L236.11995833333333,75.01564747095108L236.61448333333334,57.918861865997314L236.79442500000002,50.89563828706741L237.05741666666665,82.48957854509354L237.25875,47.74648833274841L237.473925,70.0001405775547L237.65764166666668,61.721617341041565L237.67148333333333,22.7450670003891L237.8338083333333,42.437421798706055L237.85897500000002,42.36189419031143L238.23270000000002,32.22337567806244L238.52337500000002,29.682518899440765L238.85180000000003,33.37191438674927L238.92478333333332,48.36872863769531L239.03803333333332,57.19354784488678L239.32115833333333,31.122829020023346L239.70746666666665,70.49583864212036L240.60969166666666,61.58387625217438L241.12309166666668,29.62718403339386L241.17216666666667,39.85208612680435L241.18475,72.02819243073463L241.89193333333336,82.80145829916L242.12472499999998,99.87591478228569L242.82435833333332,35.61940670013428L242.97661666666667,-2.4468982815742493L243.07854166666667,48.1855486035347L243.09741666666667,71.4684346318245L243.2308,68.49195688962936L243.45100833333333,11.50953608751297L243.559225,89.3199582695961L243.79704999999998,-7.438609600067139L244.638875,57.85972899198532L244.93206666666669,66.77595886588097L245.27810833333334,50.438790678977966L245.514675,69.09756508469582L245.590175,72.33408504724503L245.71978333333334,13.238336563110352L245.85190833333334,77.3436786532402L246.06959999999998,69.56772154569626L246.73651666666666,93.72207632660866L246.97308333333334,74.69157189130783L246.9907,81.57916966080666L247.009575,48.37097579240799L247.09765833333333,28.274196445941925L247.3682,42.02156102657318L247.99988333333332,90.00842633843422L248.75488333333334,40.65640926361084L248.87065,48.47108495235443L249.0292,28.735675513744354L249.39285833333332,41.60999411344528L249.98301666666669,59.292664647102356L249.99056666666667,60.441024005413055L250.03335,102.992491543293L250.19693333333333,111.51326966285706L250.61973333333333,65.16498631238937L250.656225,31.77201408147812L250.98590833333336,17.042083740234375L251.04756666666668,68.56382364034653L251.26525833333332,-4.553611099720001L251.62514166666668,33.403395652770996L252.0643,55.96234971284866L252.10205000000002,80.26835578680038L252.42795833333332,5.587312817573547L252.98791666666668,71.95392554998398L252.99295,83.96271505951881L253.06215833333334,58.65943121910095L253.26223333333334,90.53808492422104L253.29998333333336,70.1823341846466L253.43085,-19.293796062469482L253.50886666666668,74.7919448018074L253.72655833333332,65.8541454076767L254.29406666666665,35.74752616882324L254.816275,50.47425985336304L255.2353,90.32207322120667L255.30325,46.34421104192734L255.37245833333336,10.813013076782227L255.37875,8.827382862567902L255.72479166666668,55.26852750778198L255.78393333333332,27.578823387622833L255.78645,41.69106048345566L256.05447499999997,46.10437738895416L256.1954083333333,36.7017440199852L256.462175,82.91602626442909L256.60185,-20.978054344654083L256.61443333333335,70.40689140558243L256.88875,65.00437277555466L257.63871666666665,41.318834602832794L257.6513,48.412753880023956L257.7393833333333,82.21001878380775L258.032575,77.73989000916481L258.7334666666667,36.87705373764038L259.2242166666667,81.61124700307846L259.50985833333334,-2.713296890258789L259.52621666666664,54.08492052555084L259.79046666666665,28.67869484424591L259.89365,105.11413264274597L260.08365833333335,69.43106183409691L260.1188916666667,66.37648755311966L260.38188333333335,67.91747125983238L260.5190416666667,9.050885081291199L260.5895083333333,71.83982706069946L260.652425,25.351787567138672L260.6662666666667,10.996868312358856L261.23125833333336,63.27230179309845L261.32437500000003,52.10844773054123L261.6628666666667,87.76155120134354L261.72075,69.44897049665451L261.822675,69.28053411841393L262.207725,55.713253140449524L263.2836,71.63258242607117L263.310025,21.150853157043457L263.3188333333333,66.29912424087524L263.347775,38.77401101589203L263.3981083333333,44.595534324645996L263.7202416666667,52.12683641910553L263.9039583333333,64.66789036989212L264.163175,100.82560667395592L264.16695,74.40035963058472L264.5306083333333,86.58580926060677L264.676575,77.11056536436081L264.80744166666665,69.02369910478592L266.2457166666667,8.02120292186737L267.03846666666664,93.52450078725815L268.40250000000003,60.201760053634644L268.44528333333335,85.16486370563507L268.662975,69.52122759819031L268.94735833333334,85.89928239583969L268.99265833333334,28.79833209514618L269.7552083333333,46.64973968267441L269.870975,95.17625445127487L270.06601666666666,67.95932847261429L270.48881666666665,87.16642445325851L270.897775,-8.227223753929138L270.91665,-55.91657316684723L271.04625833333336,96.02097362279892L271.18845,98.13985061645508L271.3218333333333,97.37531161308289L271.68675,42.182533264160156L272.42539166666666,69.46954303979874L272.71480833333334,63.86561393737793L272.77772500000003,91.50129666924477L273.0658833333333,77.52119332551956L273.22065833333335,63.823477149009705L273.3414583333333,4.381519138813019L273.97314166666666,74.10207358002663L274.21096666666665,86.02337175607681L274.57085,46.540494203567505L274.8338416666667,67.4410269856453L275.3887666666667,75.47769623994827L275.3938,26.947647213935852L275.90216666666663,56.576086699962616L275.93739999999997,77.7260325551033L276.409275,25.570858776569366L276.41305,39.73265987634659L276.56782499999997,47.85861396789551L276.71882500000004,35.18673974275589L276.8333333333333,54.95116174221039" style="fill: none;" fill="none"></path></g></g></g></g></g></g><g transform="translate(28, 177)" clip-path="url(#clip_1)"><clipPath id="clip_1"><rect width="302" height="23"></rect></clipPath><g><g><line x1="0" y1="0" x2="0" y2="5" style="visibility: inherit;" fill="rgb(0, 0, 0)" stroke="rgb(204, 204, 204)" stroke-width="1px"></line><line x1="25.166666666666664" y1="0" x2="25.166666666666664" y2="5" style="visibility: inherit;" fill="rgb(0, 0, 0)" stroke="rgb(204, 204, 204)" stroke-width="1px"></line><line x1="50.33333333333333" y1="0" x2="50.33333333333333" y2="5" style="visibility: inherit;" fill="rgb(0, 0, 0)" stroke="rgb(204, 204, 204)" stroke-width="1px"></line><line x1="75.5" y1="0" x2="75.5" y2="5" style="visibility: inherit;" fill="rgb(0, 0, 0)" stroke="rgb(204, 204, 204)" stroke-width="1px"></line><line x1="100.66666666666666" y1="0" x2="100.66666666666666" y2="5" style="visibility: inherit;" fill="rgb(0, 0, 0)" stroke="rgb(204, 204, 204)" stroke-width="1px"></line><line x1="125.83333333333334" y1="0" x2="125.83333333333334" y2="5" style="visibility: inherit;" fill="rgb(0, 0, 0)" stroke="rgb(204, 204, 204)" stroke-width="1px"></line><line x1="151" y1="0" x2="151" y2="5" style="visibility: inherit;" fill="rgb(0, 0, 0)" stroke="rgb(204, 204, 204)" stroke-width="1px"></line><line x1="176.16666666666669" y1="0" x2="176.16666666666669" y2="5" style="visibility: inherit;" fill="rgb(0, 0, 0)" stroke="rgb(204, 204, 204)" stroke-width="1px"></line><line x1="201.33333333333331" y1="0" x2="201.33333333333331" y2="5" style="visibility: inherit;" fill="rgb(0, 0, 0)" stroke="rgb(204, 204, 204)" stroke-width="1px"></line><line x1="226.5" y1="0" x2="226.5" y2="5" style="visibility: inherit;" fill="rgb(0, 0, 0)" stroke="rgb(204, 204, 204)" stroke-width="1px"></line><line x1="251.66666666666669" y1="0" x2="251.66666666666669" y2="5" style="visibility: inherit;" fill="rgb(0, 0, 0)" stroke="rgb(204, 204, 204)" stroke-width="1px"></line><line x1="276.8333333333333" y1="0" x2="276.8333333333333" y2="5" style="visibility: inherit;" fill="rgb(0, 0, 0)" stroke="rgb(204, 204, 204)" stroke-width="1px"></line><line x1="302" y1="0" x2="302" y2="5" style="visibility: inherit;" fill="rgb(0, 0, 0)" stroke="rgb(204, 204, 204)" stroke-width="1px"></line></g><g transform="translate(0, 8)"><text x="0" y="0" dx="0em" dy="0.95em" style="text-anchor: middle; visibility: hidden; font-family: &quot;Helvetica Neue&quot;, sans-serif; font-size: 12px; font-weight: 200;" fill="rgb(50, 49, 63)" stroke="none" stroke-width="1px">-100k</text><text x="25.166666666666664" y="0" dx="0em" dy="0.95em" style="text-anchor: middle; visibility: inherit; font-family: &quot;Helvetica Neue&quot;, sans-serif; font-size: 12px; font-weight: 200;" fill="rgb(50, 49, 63)" stroke="none" stroke-width="1px">0</text><text x="50.33333333333333" y="0" dx="0em" dy="0.95em" style="text-anchor: middle; visibility: hidden; font-family: &quot;Helvetica Neue&quot;, sans-serif; font-size: 12px; font-weight: 200;" fill="rgb(50, 49, 63)" stroke="none" stroke-width="1px">100k</text><text x="75.5" y="0" dx="0em" dy="0.95em" style="text-anchor: middle; visibility: inherit; font-family: &quot;Helvetica Neue&quot;, sans-serif; font-size: 12px; font-weight: 200;" fill="rgb(50, 49, 63)" stroke="none" stroke-width="1px">200k</text><text x="100.66666666666666" y="0" dx="0em" dy="0.95em" style="text-anchor: middle; visibility: hidden; font-family: &quot;Helvetica Neue&quot;, sans-serif; font-size: 12px; font-weight: 200;" fill="rgb(50, 49, 63)" stroke="none" stroke-width="1px">300k</text><text x="125.83333333333334" y="0" dx="0em" dy="0.95em" style="text-anchor: middle; visibility: inherit; font-family: &quot;Helvetica Neue&quot;, sans-serif; font-size: 12px; font-weight: 200;" fill="rgb(50, 49, 63)" stroke="none" stroke-width="1px">400k</text><text x="151" y="0" dx="0em" dy="0.95em" style="text-anchor: middle; visibility: hidden; font-family: &quot;Helvetica Neue&quot;, sans-serif; font-size: 12px; font-weight: 200;" fill="rgb(50, 49, 63)" stroke="none" stroke-width="1px">500k</text><text x="176.16666666666669" y="0" dx="0em" dy="0.95em" style="text-anchor: middle; visibility: inherit; font-family: &quot;Helvetica Neue&quot;, sans-serif; font-size: 12px; font-weight: 200;" fill="rgb(50, 49, 63)" stroke="none" stroke-width="1px">600k</text><text x="201.33333333333331" y="0" dx="0em" dy="0.95em" style="text-anchor: middle; visibility: hidden; font-family: &quot;Helvetica Neue&quot;, sans-serif; font-size: 12px; font-weight: 200;" fill="rgb(50, 49, 63)" stroke="none" stroke-width="1px">700k</text><text x="226.5" y="0" dx="0em" dy="0.95em" style="text-anchor: middle; visibility: inherit; font-family: &quot;Helvetica Neue&quot;, sans-serif; font-size: 12px; font-weight: 200;" fill="rgb(50, 49, 63)" stroke="none" stroke-width="1px">800k</text><text x="251.66666666666669" y="0" dx="0em" dy="0.95em" style="text-anchor: middle; visibility: hidden; font-family: &quot;Helvetica Neue&quot;, sans-serif; font-size: 12px; font-weight: 200;" fill="rgb(50, 49, 63)" stroke="none" stroke-width="1px">900k</text><text x="276.8333333333333" y="0" dx="0em" dy="0.95em" style="text-anchor: middle; visibility: inherit; font-family: &quot;Helvetica Neue&quot;, sans-serif; font-size: 12px; font-weight: 200;" fill="rgb(50, 49, 63)" stroke="none" stroke-width="1px">1M</text><text x="302" y="0" dx="0em" dy="0.95em" style="text-anchor: middle; visibility: hidden; font-family: &quot;Helvetica Neue&quot;, sans-serif; font-size: 12px; font-weight: 200;" fill="rgb(50, 49, 63)" stroke="none" stroke-width="1px">1.1M</text></g><line x1="0" y1="0" x2="302" y2="0" fill="rgb(0, 0, 0)" stroke="rgb(204, 204, 204)" stroke-width="1px"></line></g></g></g></g></svg>