<svg viewBox="0 0 330 200" xmlns="http://www.w3.org/2000/svg"><g><g><g><g><g><line x1="46" y1="177" x2="41" y2="177" style="visibility: inherit;" fill="rgb(0, 0, 0)" stroke="rgb(204, 204, 204)" stroke-width="1px"></line><line x1="46" y1="162.25" x2="41" y2="162.25" style="visibility: inherit;" fill="rgb(0, 0, 0)" stroke="rgb(204, 204, 204)" stroke-width="1px"></line><line x1="46" y1="147.5" x2="41" y2="147.5" style="visibility: inherit;" fill="rgb(0, 0, 0)" stroke="rgb(204, 204, 204)" stroke-width="1px"></line><line x1="46" y1="132.75" x2="41" y2="132.75" style="visibility: inherit;" fill="rgb(0, 0, 0)" stroke="rgb(204, 204, 204)" stroke-width="1px"></line><line x1="46" y1="118" x2="41" y2="118" style="visibility: inherit;" fill="rgb(0, 0, 0)" stroke="rgb(204, 204, 204)" stroke-width="1px"></line><line x1="46" y1="103.25" x2="41" y2="103.25" style="visibility: inherit;" fill="rgb(0, 0, 0)" stroke="rgb(204, 204, 204)" stroke-width="1px"></line><line x1="46" y1="88.5" x2="41" y2="88.5" style="visibility: inherit;" fill="rgb(0, 0, 0)" stroke="rgb(204, 204, 204)" stroke-width="1px"></line><line x1="46" y1="73.75" x2="41" y2="73.75" style="visibility: inherit;" fill="rgb(0, 0, 0)" stroke="rgb(204, 204, 204)" stroke-width="1px"></line><line x1="46" y1="58.999999999999986" x2="41" y2="58.999999999999986" style="visibility: inherit;" fill="rgb(0, 0, 0)" stroke="rgb(204, 204, 204)" stroke-width="1px"></line><line x1="46" y1="44.25" x2="41" y2="44.25" style="visibility: inherit;" fill="rgb(0, 0, 0)" stroke="rgb(204, 204, 204)" stroke-width="1px"></line><line x1="46" y1="29.5" x2="41" y2="29.5" style="visibility: inherit;" fill="rgb(0, 0, 0)" stroke="rgb(204, 204, 204)" stroke-width="1px"></line><line x1="46" y1="14.75" x2="41" y2="14.75" style="visibility: inherit;" fill="rgb(0, 0, 0)" stroke="rgb(204, 204, 204)" stroke-width="1px"></line><line x1="46" y1="0" x2="41" y2="0" style="visibility: inherit;" fill="rgb(0, 0, 0)" stroke="rgb(204, 204, 204)" stroke-width="1px"></line></g><g transform="translate(36, 0)"><text x="0" y="177" dx="0em" dy="0.3em" style="text-anchor: end; visibility: hidden; font-family: &quot;Helvetica Neue&quot;, sans-serif; font-size: 12px; font-weight: 200;" fill="rgb(50, 49, 63)" stroke="none" stroke-width="1px">-1.2</text><text x="0" y="162.25" dx="0em" dy="0.3em" style="text-anchor: end; visibility: inherit; font-family: &quot;Helvetica Neue&quot;, sans-serif; font-size: 12px; font-weight: 200;" fill="rgb(50, 49, 63)" stroke="none" stroke-width="1px">-1</text><text x="0" y="147.5" dx="0em" dy="0.3em" style="text-anchor: end; visibility: hidden; font-family: &quot;Helvetica Neue&quot;, sans-serif; font-size: 12px; font-weight: 200;" fill="rgb(50, 49, 63)" stroke="none" stroke-width="1px">-0.8</text><text x="0" y="132.75" dx="0em" dy="0.3em" style="text-anchor: end; visibility: inherit; font-family: &quot;Helvetica Neue&quot;, sans-serif; font-size: 12px; font-weight: 200;" fill="rgb(50, 49, 63)" stroke="none" stroke-width="1px">-0.6</text><text x="0" y="118" dx="0em" dy="0.3em" style="text-anchor: end; visibility: hidden; font-family: &quot;Helvetica Neue&quot;, sans-serif; font-size: 12px; font-weight: 200;" fill="rgb(50, 49, 63)" stroke="none" stroke-width="1px">-0.4</text><text x="0" y="103.25" dx="0em" dy="0.3em" style="text-anchor: end; visibility: inherit; font-family: &quot;Helvetica Neue&quot;, sans-serif; font-size: 12px; font-weight: 200;" fill="rgb(50, 49, 63)" stroke="none" stroke-width="1px">-0.2</text><text x="0" y="88.5" dx="0em" dy="0.3em" style="text-anchor: end; visibility: hidden; font-family: &quot;Helvetica Neue&quot;, sans-serif; font-size: 12px; font-weight: 200;" fill="rgb(50, 49, 63)" stroke="none" stroke-width="1px">0</text><text x="0" y="73.75" dx="0em" dy="0.3em" style="text-anchor: end; visibility: inherit; font-family: &quot;Helvetica Neue&quot;, sans-serif; font-size: 12px; font-weight: 200;" fill="rgb(50, 49, 63)" stroke="none" stroke-width="1px">0.2</text><text x="0" y="58.999999999999986" dx="0em" dy="0.3em" style="text-anchor: end; visibility: hidden; font-family: &quot;Helvetica Neue&quot;, sans-serif; font-size: 12px; font-weight: 200;" fill="rgb(50, 49, 63)" stroke="none" stroke-width="1px">0.4</text><text x="0" y="44.25" dx="0em" dy="0.3em" style="text-anchor: end; visibility: inherit; font-family: &quot;Helvetica Neue&quot;, sans-serif; font-size: 12px; font-weight: 200;" fill="rgb(50, 49, 63)" stroke="none" stroke-width="1px">0.6</text><text x="0" y="29.5" dx="0em" dy="0.3em" style="text-anchor: end; visibility: hidden; font-family: &quot;Helvetica Neue&quot;, sans-serif; font-size: 12px; font-weight: 200;" fill="rgb(50, 49, 63)" stroke="none" stroke-width="1px">0.8</text><text x="0" y="14.75" dx="0em" dy="0.3em" style="text-anchor: end; visibility: inherit; font-family: &quot;Helvetica Neue&quot;, sans-serif; font-size: 12px; font-weight: 200;" fill="rgb(50, 49, 63)" stroke="none" stroke-width="1px">1</text><text x="0" y="0" dx="0em" dy="0.3em" style="text-anchor: end; visibility: hidden; font-family: &quot;Helvetica Neue&quot;, sans-serif; font-size: 12px; font-weight: 200;" fill="rgb(50, 49, 63)" stroke="none" stroke-width="1px">1.2</text></g><line x1="46" y1="0" x2="46" y2="177" fill="rgb(0, 0, 0)" stroke="rgb(204, 204, 204)" stroke-width="1px"></line></g></g><g transform="translate(46, 0)" clip-path="url(#clip_0)"><clipPath id="clip_0"><rect width="284" height="177"></rect></clipPath><g><g><g><line x1="0" y1="0" x2="0" y2="177" fill="rgb(0, 0, 0)" stroke="rgb(60, 60, 60)" stroke-width="1px" opacity="0.25"></line><line x1="23.666666666666664" y1="0" x2="23.666666666666664" y2="177" fill="rgb(0, 0, 0)" stroke="rgb(60, 60, 60)" stroke-width="1px" opacity="0.25"></line><line x1="47.33333333333333" y1="0" x2="47.33333333333333" y2="177" fill="rgb(0, 0, 0)" stroke="rgb(60, 60, 60)" stroke-width="1px" opacity="0.25"></line><line x1="71" y1="0" x2="71" y2="177" fill="rgb(0, 0, 0)" stroke="rgb(60, 60, 60)" stroke-width="1px" opacity="0.25"></line><line x1="94.66666666666666" y1="0" x2="94.66666666666666" y2="177" fill="rgb(0, 0, 0)" stroke="rgb(60, 60, 60)" stroke-width="1px" opacity="0.25"></line><line x1="118.33333333333334" y1="0" x2="118.33333333333334" y2="177" fill="rgb(0, 0, 0)" stroke="rgb(60, 60, 60)" stroke-width="1px" opacity="0.25"></line><line x1="142" y1="0" x2="142" y2="177" fill="rgb(0, 0, 0)" stroke="rgb(60, 60, 60)" stroke-width="1px" opacity="0.25"></line><line x1="165.66666666666669" y1="0" x2="165.66666666666669" y2="177" fill="rgb(0, 0, 0)" stroke="rgb(60, 60, 60)" stroke-width="1px" opacity="0.25"></line><line x1="189.33333333333331" y1="0" x2="189.33333333333331" y2="177" fill="rgb(0, 0, 0)" stroke="rgb(60, 60, 60)" stroke-width="1px" opacity="0.25"></line><line x1="213" y1="0" x2="213" y2="177" fill="rgb(0, 0, 0)" stroke="rgb(60, 60, 60)" stroke-width="1px" opacity="0.25"></line><line x1="236.66666666666669" y1="0" x2="236.66666666666669" y2="177" fill="rgb(0, 0, 0)" stroke="rgb(60, 60, 60)" stroke-width="1px" opacity="0.25"></line><line x1="260.3333333333333" y1="0" x2="260.3333333333333" y2="177" fill="rgb(0, 0, 0)" stroke="rgb(60, 60, 60)" stroke-width="1px" opacity="0.25"></line><line x1="284" y1="0" x2="284" y2="177" fill="rgb(0, 0, 0)" stroke="rgb(60, 60, 60)" stroke-width="1px" opacity="0.25"></line></g><g><line x1="0" y1="177" x2="284" y2="177" fill="rgb(0, 0, 0)" stroke="rgb(60, 60, 60)" stroke-width="1px" opacity="0.25"></line><line x1="0" y1="162.25" x2="284" y2="162.25" fill="rgb(0, 0, 0)" stroke="rgb(60, 60, 60)" stroke-width="1px" opacity="0.25"></line><line x1="0" y1="147.5" x2="284" y2="147.5" fill="rgb(0, 0, 0)" stroke="rgb(60, 60, 60)" stroke-width="1px" opacity="0.25"></line><line x1="0" y1="132.75" x2="284" y2="132.75" fill="rgb(0, 0, 0)" stroke="rgb(60, 60, 60)" stroke-width="1px" opacity="0.25"></line><line x1="0" y1="118" x2="284" y2="118" fill="rgb(0, 0, 0)" stroke="rgb(60, 60, 60)" stroke-width="1px" opacity="0.25"></line><line x1="0" y1="103.25" x2="284" y2="103.25" fill="rgb(0, 0, 0)" stroke="rgb(60, 60, 60)" stroke-width="1px" opacity="0.25"></line><line x1="0" y1="88.5" x2="284" y2="88.5" fill="rgb(0, 0, 0)" stroke="rgb(60, 60, 60)" stroke-width="1px" opacity="0.25"></line><line x1="0" y1="73.75" x2="284" y2="73.75" fill="rgb(0, 0, 0)" stroke="rgb(60, 60, 60)" stroke-width="1px" opacity="0.25"></line><line x1="0" y1="58.999999999999986" x2="284" y2="58.999999999999986" fill="rgb(0, 0, 0)" stroke="rgb(60, 60, 60)" stroke-width="1px" opacity="0.25"></line><line x1="0" y1="44.25" x2="284" y2="44.25" fill="rgb(0, 0, 0)" stroke="rgb(60, 60, 60)" stroke-width="1px" opacity="0.25"></line><line x1="0" y1="29.5" x2="284" y2="29.5" fill="rgb(0, 0, 0)" stroke="rgb(60, 60, 60)" stroke-width="1px" opacity="0.25"></line><line x1="0" y1="14.75" x2="284" y2="14.75" fill="rgb(0, 0, 0)" stroke="rgb(60, 60, 60)" stroke-width="1px" opacity="0.25"></line><line x1="0" y1="0" x2="284" y2="0" fill="rgb(0, 0, 0)" stroke="rgb(60, 60, 60)" stroke-width="1px" opacity="0.25"></line></g></g></g><g><g><line x1="0" y1="88.5" x2="284" y2="88.5" fill="rgb(0, 0, 0)" stroke="rgb(153, 153, 153)" stroke-width="1.5px"></line></g></g><g><g><line x1="23.666666666666664" y1="0" x2="23.666666666666664" y2="177" fill="rgb(0, 0, 0)" stroke="rgb(153, 153, 153)" stroke-width="1.5px"></line></g></g><g><g><g><g><g><path stroke="rgb(255, 112, 67)" stroke-width="2px" d="M23.71755,88.44837500184076L23.865466666666666,88.44837500184076L23.938833333333335,88.44837500184076L24.22875,88.44837500184076L24.302116666666667,88.44837500184076L24.353,88.44837500184076L24.361283333333333,88.44837500184076L24.433466666666668,88.44837500184076L24.62398333333333,88.44837500184076L24.86775,88.44837500184076L25.24523333333333,88.44837500184076L25.306766666666665,88.44837500184076L25.367116666666668,88.44837500184076L25.71975,88.44837500184076L25.723300000000002,88.44837500184076L25.888966666666665,88.44837500184076L26.3978,88.44837500184076L26.494833333333332,88.44837500184076L26.608433333333334,88.44837500184076L26.609616666666668,88.44837500184076L26.8451,88.44837500184076L27.490016666666666,88.44837500184076L27.508950000000002,88.44837500184076L27.578766666666667,88.44837500184076L27.94915,88.44837500184076L27.951516666666667,88.44837500184076L28.7763,88.44837500184076L28.87451666666667,88.44837500184076L28.983383333333332,88.44837500184076L29.0035,88.44837500184076L29.5502,88.44837500184076L29.74308333333333,88.44837500184076L29.992766666666665,88.44837500184076L30.440066666666667,88.44837500184076L30.6578,88.44837500184076L30.756016666666664,88.44837500184076L31.004516666666664,88.44837500184076L31.595,88.44837500184076L31.609199999999998,88.44837500184076L31.778416666666665,88.44837500184076L31.91095,88.44837500184076L32.1346,88.44837500184076L32.49551666666667,88.44837500184076L32.499066666666664,88.44837500184076L32.89548333333333,88.44837500184076L32.9369,88.44837500184076L33.21261666666667,88.44837500184076L33.347516666666664,88.44837500184076L33.396033333333335,88.44837500184076L33.723816666666664,88.44837500184076L33.73565,88.44837500184076L34.17348333333334,88.44837500184076L34.24093333333333,88.44837500184076L34.62551666666667,88.44837500184076L34.871649999999995,88.44837500184076L34.973416666666665,88.44837500184076L35.143816666666666,88.44837500184076L35.973333333333336,88.44837500184076L36.068,88.44837500184076L36.118883333333336,88.44837500184076L36.5721,88.44837500184076L36.644283333333334,88.44837500184076L36.70818333333334,88.44837500184076L37.314049999999995,88.44837500184076L37.354283333333335,88.44837500184076L37.83116666666667,88.44837500184076L37.83708333333334,88.44837500184076L38.06191666666667,88.44837500184076L38.211016666666666,88.44837500184076L38.905633333333334,88.44837500184076L39.09141666666667,88.44837500184076L39.12336666666667,88.44837500184076L39.78485,88.44837500184076L40.58241666666667,88.44837500184076L41.02498333333333,88.44837500184076L41.156333333333336,88.44837500184076L41.26756666666667,88.44837500184076L41.97756666666667,88.44837500184076L42.32191666666667,88.44837500184076L42.73845,88.44837500184076L43.6153,88.44837500184076L43.86261666666667,88.44837500184076L43.8993,88.44837500184076L44.15963333333333,88.44837500184076L44.18566666666666,88.44837500184076L44.42706666666667,88.44837500184076L44.44363333333333,88.44837500184076L45.501533333333334,88.44837500184076L46.77953333333333,88.44837500184076L46.908516666666664,88.44837500184076L47.0162,88.44837500184076L47.328599999999994,88.44837500184076L47.39723333333333,88.44837500184076L47.40788333333333,88.44837500184076L47.62325,88.44837500184076L47.71673333333334,88.44837500184076L47.855183333333336,88.44837500184076L47.97233333333333,88.44837500184076L48.018483333333336,88.44837500184076L48.25633333333333,88.44837500184076L48.259883333333335,88.44837500184076L48.346266666666665,88.44837500184076L48.612516666666664,88.44837500184076L48.68825,88.44837500184076L48.79238333333333,88.44837500184076L48.89533333333333,88.44837500184076L49.52131666666667,88.44837500184076L49.991099999999996,88.44837500184076L50.091683333333336,88.44837500184076L50.12481666666666,88.44837500184076L51.04781666666666,88.44837500184076L51.05965,88.44837500184076L51.222950000000004,88.44837500184076L51.3117,88.44837500184076L51.3898,88.44837500184076L51.523516666666666,88.44837500184076L51.67735,88.44837500184076L51.71403333333334,88.44837500184076L52.2418,88.44837500184076L52.40155,88.44837500184076L52.40391666666667,88.44837500184076L52.448883333333335,88.44837500184076L52.8027,88.44837500184076L52.928133333333335,88.44837500184076L53.17308333333333,88.44837500184076L53.55056666666667,88.44837500184076L53.71386666666666,88.44837500184076L54.21205,88.44837500184076L54.25346666666667,88.44837500184076L54.34103333333333,88.44837500184076L54.79306666666667,88.44837500184076L55.377633333333335,88.44837500184076L55.378816666666665,88.44837500184076L55.80008333333333,88.44837500184076L56.21543333333333,88.44837500184076L56.3314,88.44837500184076L56.37281666666667,88.44837500184076L56.594100000000005,88.44837500184076L56.70178333333333,88.44837500184076L57.31948333333334,88.44837500184076L57.443733333333334,88.44837500184076L57.94901666666667,88.44837500184076L57.97978333333333,88.44837500184076L58.05788333333333,88.44837500184076L58.222366666666666,88.44837500184076L58.29573333333333,88.44837500184076L58.541866666666664,88.44837500184076L58.70753333333333,88.44837500184076L58.9655,88.44837500184076L59.173766666666666,88.44837500184076L59.20453333333333,88.44837500184076L59.37375,88.44837500184076L59.5548,88.44837500184076L59.724016666666664,88.44837500184076L59.892050000000005,88.44837500184076L60.00328333333333,88.44837500184076L60.019850000000005,88.44837500184076L60.83161666666667,88.44837500184076L60.875400000000006,88.44837500184076L61.392516666666666,88.44837500184076L61.458783333333336,88.44837500184076L61.779466666666664,88.44837500184076L62.04926666666667,88.44837500184076L62.17588333333334,88.44837500184076L62.31196666666667,88.44837500184076L62.43621666666667,88.44837500184076L62.59241666666667,88.44837500184076L62.60188333333333,88.44837500184076L62.75808333333333,88.44837500184076L62.93203333333333,88.44837500184076L63.16159999999999,88.44837500184076L63.19473333333333,88.44837500184076L63.58996666666666,88.44837500184076L63.60416666666667,88.44837500184076L63.646766666666664,88.44837500184076L63.71066666666667,88.44837500184076L63.75445,88.44837500184076L63.79823333333333,88.44837500184076L63.94378333333333,88.44837500184076L64.32955,88.44837500184076L64.52243333333332,88.44837500184076L64.61,88.44837500184076L65.47856666666667,88.44837500184076L65.50341666666667,88.44837500184076L65.65606666666666,88.44837500184076L65.99686666666666,88.44837500184076L66.21223333333333,88.44837500184076L66.31163333333333,88.44837500184076L67.01216666666666,88.44837500184076L67.04766666666667,88.44837500184076L67.17546666666667,88.44837500184076L67.27368333333334,88.44837500184076L67.69021666666667,88.44837500184076L68.02983333333334,88.44837500184076L68.35525,88.44837500184076L68.48778333333334,88.44837500184076L69.17293333333333,88.44837500184076L69.48651666666667,88.44837500184076L69.62851666666667,88.44837500184076L69.79536666666667,88.44837500184076L70.16811666666666,88.44837500184076L70.64855,88.44837500184076L70.8935,88.44837500184076L71.02485,88.44837500184076L71.35145,88.44837500184076L71.59285,88.44837500184076L71.79046666666667,88.44837500184076L71.85318333333332,88.44837500184076L71.93956666666668,88.44837500184076L72.23185,88.44837500184076L72.5052,88.44837500184076L72.82233333333333,88.44837500184076L73.52641666666666,88.44837500184076L73.90035,88.44837500184076L73.92165,88.44837500184076L74.17015,88.44837500184076L75.16415,88.44837500184076L75.30733333333333,88.44837500184076L75.39253333333333,88.44837500184076L75.42448333333333,88.44837500184076L75.42921666666666,88.44837500184076L75.50376666666666,88.44837500184076L75.72623333333334,88.44837500184076L75.82090000000001,88.44837500184076L75.97118333333333,88.44837500184076L75.97946666666667,88.44837500184076L76.03153333333333,88.44837500184076L76.09425,88.44837500184076L76.70011666666666,88.44837500184076L76.87525000000001,88.44837500184076L77.35805,88.44837500184076L77.51780000000001,88.44837500184076L77.69648333333333,88.44837500184076L78.47748333333334,88.44837500184076L78.49641666666668,88.44837500184076L78.5899,88.44837500184076L79.6407,88.44837500184076L80.03948333333334,88.44837500184076L80.11876666666667,88.44837500184076L80.16491666666667,88.44837500184076L80.32821666666668,88.44837500184076L80.40513333333334,88.44837500184076L80.43235,88.44837500184076L80.55778333333333,88.44837500184076L80.68203333333334,88.44837500184076L80.73646666666667,88.44837500184076L81.08555,88.44837500184076L81.97305,88.44837500184076L82.06653333333333,88.44837500184076L82.21563333333333,88.44837500184076L82.84161666666667,88.44837500184076L82.90078333333334,88.44837500184076L83.02976666666666,88.44837500184076L83.06526666666666,88.44837500184076L83.80366666666666,88.44837500184076L83.99300000000001,88.44837500184076L84.17641666666667,88.44837500184076L84.28646666666667,88.44837500184076L84.96215,88.44837500184076L85.20236666666666,88.44837500184076L85.54671666666667,88.44837500184076L85.6189,88.44837500184076L85.80468333333333,88.44837500184076L86.00821666666666,88.44837500184076L86.27328333333332,88.44837500184076L86.31233333333333,88.44837500184076L86.49338333333334,88.44837500184076L86.51113333333333,88.44837500184076L86.93831666666667,88.44837500184076L87.21995,88.44837500184076L87.23296666666666,88.44837500184076L87.40455,88.44837500184076L87.45661666666666,88.44837500184076L87.71340000000001,88.44837500184076L88.38553333333333,88.44837500184076L88.52279999999999,88.44837500184076L88.67663333333333,88.44837500184076L88.72988333333333,88.44837500184076L89.10499999999999,88.44837500184076L89.39373333333333,88.44837500184076L89.40320000000001,88.44837500184076L89.5949,88.44837500184076L89.65761666666667,88.44837500184076L90.3333,88.44837500184076L90.53446666666666,88.44837500184076L90.55103333333334,88.44837500184076L90.65398333333334,88.44837500184076L90.86580000000001,88.44837500184076L90.90485000000001,88.44837500184076L91.47876666666667,88.44837500184076L91.69058333333334,88.44837500184076L92.82185,88.44837500184076L92.95911666666667,88.44837500184076L93.152,88.44837500184076L93.18395,88.44837500184076L93.20406666666666,88.44837500184076L93.79691666666668,88.44837500184076L93.85253333333334,88.44837500184076L93.99571666666667,88.44837500184076L94.24185,88.44837500184076L94.27735,88.44837500184076L94.87966666666667,88.44837500184076L94.88676666666667,88.44837500184076L94.9128,88.44837500184076L95.0193,88.44837500184076L95.22993333333334,88.44837500184076L96.09376666666667,88.44837500184076L96.17778333333332,88.44837500184076L96.36948333333333,88.44837500184076L96.65585,88.44837500184076L97.199,88.44837500184076L97.29366666666667,88.44837500184076L97.64511666666667,88.44837500184076L97.6818,88.44837500184076L98.06875000000001,88.44837500184076L98.24625,88.44837500184076L98.47818333333332,88.44837500184076L98.8249,88.44837500184076L99.01186666666668,88.44837500184076L99.24143333333333,88.44837500184076L100.0177,88.44837500184076L100.21413333333334,88.44837500184076L100.45316666666668,88.44837500184076L100.93005000000001,88.44837500184076L101.29570000000001,88.44837500184076L101.3454,88.44837500184076L101.82583333333332,88.44837500184076L102.12048333333334,88.44837500184076L102.69913333333332,88.44837500184076L102.92278333333334,88.44837500184076L102.97603333333333,88.44837500184076L103.47184999999999,88.44837500184076L104.44573333333334,88.44837500184076L104.46703333333333,88.44837500184076L104.58181666666667,88.44837500184076L104.64216666666667,88.44837500184076L104.83268333333334,88.44837500184076L105.5202,88.44837500184076L105.53676666666667,88.44837500184076L105.85626666666667,88.44837500184076L106.16866666666667,88.44837500184076L106.26215,88.44837500184076L106.4006,88.44837500184076L107.04788333333333,88.44837500184076L107.18751666666667,88.44837500184076L107.27745,88.44837500184076L107.58393333333333,88.44837500184076L107.67978333333333,88.44837500184076L108.19098333333334,88.44837500184076L108.34008333333333,88.44837500184076L108.37085,88.44837500184076L108.50811666666668,88.44837500184076L108.75661666666666,88.44837500184076L108.81696666666666,88.44837500184076L108.84299999999999,88.44837500184076L108.88204999999999,88.44837500184076L108.91163333333334,88.44837500184076L109.2193,88.44837500184076L109.22166666666666,88.44837500184076L109.34236666666666,88.44837500184076L109.34591666666667,88.44837500184076L109.52815000000001,88.44837500184076L109.72340000000001,88.44837500184076L109.90090000000001,88.44837500184076L110.06183333333334,88.44837500184076L110.26299999999999,88.44837500184076L110.99075,88.44837500184076L111.04636666666667,88.44837500184076L111.11736666666667,88.44837500184076L111.14458333333333,88.44837500184076L111.45580000000001,88.44837500184076L112.3007,88.44837500184076L112.6202,88.44837500184076L112.97283333333333,88.44837500184076L112.99413333333332,88.44837500184076L113.0888,88.44837500184076L113.51598333333334,88.44837500184076L113.85915,88.44837500184076L114.1112,88.44837500184076L114.17155,88.44837500184076L114.34195,88.44837500184076L114.39756666666666,88.44837500184076L114.53601666666667,88.44837500184076L114.67328333333334,88.44837500184076L114.68156666666667,88.44837500184076L115.01881666666667,88.44837500184076L115.41168333333334,88.44837500184076L115.85069999999999,88.44837500184076L116.1276,88.44837500184076L116.21398333333333,88.44837500184076L116.88493333333334,88.44837500184076L116.9654,88.44837500184076L117.05651666666667,88.44837500184076L117.07308333333333,88.44837500184076L117.11923333333333,88.44837500184076L117.1571,88.44837500184076L117.64581666666666,88.44837500184076L117.85763333333333,88.44837500184076L118.30493333333332,88.44837500184076L118.3712,88.44837500184076L118.37593333333334,88.44837500184076L118.45285,88.44837500184076L118.52976666666666,88.44837500184076L118.79601666666666,88.44837500184076L118.81495000000001,88.44837500184076L118.98535000000001,88.44837500184076L119.01611666666666,88.44837500184076L119.0599,88.44837500184076L119.51311666666666,88.44837500184076L119.5356,88.44837500184076L119.6563,88.44837500184076L119.9687,88.44837500184076L120.10241666666667,88.44837500184076L120.14383333333333,88.44837500184076L121.57211666666667,88.44837500184076L121.61234999999999,88.44837500184076L121.70583333333333,88.44837500184076L122.20046666666667,88.44837500184076L122.78621666666666,88.44837500184076L123.30096666666667,88.44837500184076L123.55183333333333,88.44837500184076L123.77903333333333,88.44837500184076L123.87961666666666,88.44837500184076L124.03581666666666,88.44837500184076L124.35650000000001,88.44837500184076L124.45116666666667,88.44837500184076L124.85231666666667,88.44837500184076L124.889,88.44837500184076L124.92805,88.44837500184076L125.06295,88.44837500184076L125.1375,88.44837500184076L125.45108333333333,88.44837500184076L126.35751666666667,88.44837500184076L126.45809999999999,88.44837500184076L126.62731666666666,88.44837500184076L127.08290000000001,88.44837500184076L127.15035,88.44837500184076L127.40595,88.44837500184076L127.59883333333333,88.44837500184076L127.9633,88.44837500184076L128.59875,88.44837500184076L128.7656,88.44837500184076L129.29455000000002,88.44837500184076L129.39513333333335,88.44837500184076L129.41406666666666,88.44837500184076L129.8661,88.44837500184076L130.1359,88.44837500184076L130.20926666666668,88.44837500184076L130.4483,88.44837500184076L130.70035000000001,88.44837500184076L131.46241666666666,88.44837500184076L131.70618333333334,88.44837500184076L132.08958333333334,88.44837500184076L132.11325,88.44837500184076L132.1168,88.44837500184076L132.21738333333334,88.44837500184076L132.22093333333333,88.44837500184076L132.67651666666666,88.44837500184076L133.39716666666666,88.44837500184076L133.46698333333333,88.44837500184076L133.86695,88.44837500184076L133.98173333333332,88.44837500184076L134.2752,88.44837500184076L134.78403333333333,88.44837500184076L135.53545,88.44837500184076L135.82891666666666,88.44837500184076L135.95553333333334,88.44837500184076L136.15196666666665,88.44837500184076L136.30225000000002,88.44837500184076L136.46436666666665,88.44837500184076L136.53063333333333,88.44837500184076L136.5685,88.44837500184076L136.65251666666666,88.44837500184076L137.10218333333333,88.44837500184076L137.2075,88.44837500184076L137.23471666666666,88.44837500184076L137.62403333333333,88.44837500184076L137.90093333333334,88.44837500184076L137.97785,88.44837500184076L138.63578333333334,88.44837500184076L138.71861666666666,88.44837500184076L138.94344999999998,88.44837500184076L139.15645,88.44837500184076L139.39311666666666,88.44837500184076L139.48778333333334,88.44837500184076L139.61795,88.44837500184076L139.88538333333335,88.44837500184076L140.11258333333333,88.44837500184076L140.19541666666666,88.44837500184076L140.2534,88.44837500184076L140.88293333333334,88.44837500184076L141.41661666666667,88.44837500184076L141.54205,88.44837500184076L141.54441666666665,88.44837500184076L141.86391666666668,88.44837500184076L142.67095,88.44837500184076L142.69816666666668,88.44837500184076L142.88986666666668,88.44837500184076L143.01648333333333,88.44837500184076L143.0863,88.44837500184076L143.18096666666668,88.44837500184076L143.26971666666665,88.44837500184076L143.36793333333333,88.44837500184076L143.46141666666665,88.44837500184076L143.58093333333335,88.44837500184076L143.69453333333334,88.44837500184076L143.775,88.44837500184076L144.27673333333334,88.44837500184076L144.3004,88.44837500184076L144.73113333333336,88.44837500184076L144.97016666666667,88.44837500184076L145.00803333333334,88.44837500184076L145.07193333333333,88.44837500184076L145.17843333333334,88.44837500184076L145.40918333333335,88.44837500184076L145.44586666666666,88.44837500184076L145.51095,88.44837500184076L145.55236666666667,88.44837500184076L145.5642,88.44837500184076L145.79495000000003,88.44837500184076L146.16296666666668,88.44837500184076L146.6718,88.44837500184076L147.06111666666666,88.44837500184076L147.12975,88.44837500184076L147.56758333333332,88.44837500184076L147.70721666666665,88.44837500184076L147.77821666666665,88.44837500184076L147.79478333333333,88.44837500184076L147.81253333333333,88.44837500184076L147.82791666666665,88.44837500184076L148.02790000000002,88.44837500184076L148.43141666666668,88.44837500184076L148.63968333333332,88.44837500184076L148.83375,88.44837500184076L148.85031666666669,88.44837500184076L149.34968333333333,88.44837500184076L149.41713333333334,88.44837500184076L149.56268333333335,88.44837500184076L149.77095,88.44837500184076L149.88928333333334,88.44837500184076L150.4064,88.44837500184076L151.18858333333333,88.44837500184076L151.27496666666667,88.44837500184076L151.99916666666667,88.44837500184076L152.16128333333333,88.44837500184076L152.93755,88.44837500184076L152.93873333333332,88.44837500184076L153.00736666666666,88.44837500184076L153.24403333333333,88.44837500184076L153.62388333333334,88.44837500184076L153.9090666666667,88.44837500184076L154.06053333333332,88.44837500184076L154.09958333333333,88.44837500184076L154.32915,88.44837500184076L154.52795,88.44837500184076L154.59303333333332,88.44837500184076L154.70663333333334,88.44837500184076L155.24741666666668,88.44837500184076L155.29593333333332,88.44837500184076L155.40006666666667,88.44837500184076L155.66276666666667,88.44837500184076L155.84381666666667,88.44837500184076L156.1006,88.44837500184076L156.75735,88.44837500184076L156.98691666666667,88.44837500184076L157.03306666666668,88.44837500184076L157.26855,88.44837500184076L157.76555,88.44837500184076L158.0815,88.44837500184076L158.26136666666665,88.44837500184076L158.54418333333334,88.44837500184076L158.91338333333334,88.44837500184076L159.11100000000002,88.44837500184076L159.53818333333334,88.44837500184076L159.86478333333332,88.44837500184076L159.9275,88.44837500184076L160.34994999999998,88.44837500184076L160.36415,88.44837500184076L160.65643333333335,88.44837500184076L160.79015,88.44837500184076L160.98066666666665,88.44837500184076L161.08716666666666,88.44837500184076L161.47056666666668,88.44837500184076L161.7309,88.44837500184076L161.77586666666667,88.44837500184076L161.86106666666666,88.44837500184076L161.90721666666667,88.44837500184076L162.13678333333334,88.44837500184076L162.15335000000002,88.44837500184076L162.17346666666666,88.44837500184076L162.30126666666666,88.44837500184076L162.86926666666668,88.44837500184076L163.0941,88.44837500184076L163.23136666666667,88.44837500184076L163.4917,88.44837500184076L163.52601666666666,88.44837500184076L164.07153333333332,88.44837500184076L164.37565,88.44837500184076L164.40996666666666,88.44837500184076L164.48215000000002,88.44837500184076L164.84188333333333,88.44837500184076L165.04068333333333,88.44837500184076L165.643,88.44837500184076L167.07838333333333,88.44837500184076L167.07956666666666,88.44837500184076L167.24405000000002,88.44837500184076L167.27955,88.44837500184076L167.32806666666664,88.44837500184076L167.83926666666665,88.44837500184076L167.88896666666668,88.44837500184076L168.2771,88.44837500184076L168.77055000000001,88.44837500184076L168.78475,88.44837500184076L168.909,88.44837500184076L169.29831666666666,88.44837500184076L169.9385,88.44837500184076L169.96689999999998,88.44837500184076L170.00594999999998,88.44837500184076L170.52306666666667,88.44837500184076L170.63430000000002,88.44837500184076L171.03071666666665,88.44837500184076L171.30051666666665,88.44837500184076L171.36915000000002,88.44837500184076L171.6354,88.44837500184076L171.92768333333333,88.44837500184076L173.29325,88.44837500184076L173.58079999999998,88.44837500184076L173.87426666666664,88.44837500184076L173.93698333333333,88.44837500184076L174.06596666666667,88.44837500184076L174.22335,88.44837500184076L174.44108333333335,88.44837500184076L174.59255,88.44837500184076L174.70496666666668,88.44837500184076L174.8801,88.44837500184076L174.91796666666664,88.44837500184076L174.99014999999997,88.44837500184076L175.01145,88.44837500184076L175.26705,88.44837500184076L175.49425000000002,88.44837500184076L175.61731666666665,88.44837500184076L176.14271666666667,88.44837500184076L176.49061666666668,88.44837500184076L176.69414999999998,88.44837500184076L176.79828333333333,88.44837500184076L176.81248333333335,88.44837500184076L176.82195000000002,88.44837500184076L176.91188333333332,88.44837500184076L176.96276666666668,88.44837500184076L177.41243333333333,88.44837500184076L177.5852,88.44837500184076L178.33306666666667,88.44837500184076L178.59695,88.44837500184076L179.26553333333334,88.44837500184076L179.27855,88.44837500184076L179.48918333333333,88.44837500184076L179.55308333333332,88.44837500184076L179.7211166666667,88.44837500184076L180.66778333333335,88.44837500184076L180.95178333333334,88.44837500184076L181.29495000000003,88.44837500184076L181.42748333333333,88.44837500184076L181.67598333333333,88.44837500184076L181.76118333333335,88.44837500184076L182.06885,88.44837500184076L182.24280000000002,88.44837500184076L182.67945,88.44837500184076L182.69483333333335,88.44837500184076L182.79541666666668,88.44837500184076L183.2723,88.44837500184076L183.39773333333335,88.44837500184076L184.1456,88.44837500184076L184.44971666666666,88.44837500184076L184.8485,88.44837500184076L184.9325166666667,88.44837500184076L185.02481666666668,88.44837500184076L185.39756666666668,88.44837500184076L185.40348333333333,88.44837500184076L185.42123333333333,88.44837500184076L185.81173333333334,88.44837500184076L185.84959999999998,88.44837500184076L186.08271666666667,88.44837500184076L186.35488333333333,88.44837500184076L186.4531,88.44837500184076L186.47558333333333,88.44837500184076L186.59746666666666,88.44837500184076L186.92761666666667,88.44837500184076L187.49325000000002,88.44837500184076L187.52638333333334,88.44837500184076L187.62815,88.44837500184076L188.079,88.44837500184076L188.45648333333335,88.44837500184076L188.62806666666668,88.44837500184076L188.6825,88.44837500184076L189.30493333333334,88.44837500184076L189.35226666666665,88.44837500184076L189.38776666666666,88.44837500184076L189.39960000000002,88.44837500184076L189.48953333333333,88.44837500184076L189.5297666666667,88.44837500184076L189.63271666666665,88.44837500184076L189.66940000000002,88.44837500184076L190.2220166666667,88.44837500184076L190.50483333333332,88.44837500184076L190.78055,88.44837500184076L191.52723333333333,88.44837500184076L191.56983333333335,88.44837500184076L191.68461666666667,88.44837500184076L191.93311666666665,88.44837500184076L191.9343,88.44837500184076L192.28811666666667,88.44837500184076L192.58986666666667,88.44837500184076L192.75671666666668,88.44837500184076L193.1046166666667,88.44837500184076L193.28921666666665,88.44837500184076L193.45843333333332,88.44837500184076L193.5602,88.44837500184076L193.79213333333334,88.44837500184076L193.82171666666667,88.44837500184076L193.97081666666668,88.44837500184076L194.05365,88.44837500184076L194.33528333333334,88.44837500184076L194.4051,88.44837500184076L194.54591666666667,88.44837500184076L194.69265000000001,88.44837500184076L195.9884,88.44837500184076L196.09253333333334,88.44837500184076L196.13868333333332,88.44837500184076L196.1872,88.44837500184076L196.80371666666667,88.44837500184076L196.90666666666667,88.44837500184076L197.25811666666667,88.44837500184076L198.05095,88.44837500184076L198.19886666666665,88.44837500184076L199.02483333333333,88.44837500184076L199.14198333333331,88.44837500184076L199.30291666666668,88.44837500184076L199.44728333333333,88.44837500184076L199.51591666666667,88.44837500184076L199.59756666666667,88.44837500184076L199.6023,88.44837500184076L199.72181666666668,88.44837500184076L199.82358333333335,88.44837500184076L200.50755,88.44837500184076L200.64126666666667,88.44837500184076L200.79273333333333,88.44837500184076L201.03295,88.44837500184076L201.0933,88.44837500184076L201.17495,88.44837500184076L201.17968333333334,88.44837500184076L201.80329999999998,88.44837500184076L201.82578333333333,88.44837500184076L201.92045,88.44837500184076L202.06481666666667,88.44837500184076L202.18906666666666,88.44837500184076L202.40088333333333,88.44837500184076L202.41745,88.44837500184076L202.46005,88.44837500184076L202.50856666666667,88.44837500184076L202.6198,88.44837500184076L202.67778333333334,88.44837500184076L202.79256666666666,88.44837500184076L202.89078333333333,88.44837500184076L202.99373333333332,88.44837500184076L203.01503333333335,88.44837500184076L203.17478333333332,88.44837500184076L204.1534,88.44837500184076L204.44095,88.44837500184076L205.37578333333332,88.44837500184076L205.45506666666668,88.44837500184076L205.52725,88.44837500184076L205.95325,88.44837500184076L206.5177,88.44837500184076L206.6869166666667,88.44837500184076L207.30816666666666,88.44837500184076L207.40046666666666,88.44837500184076L207.77558333333334,88.44837500184076L207.93651666666668,88.44837500184076L207.95426666666665,88.44837500184076L208.6335,88.44837500184076L208.73171666666667,88.44837500184076L209.03938333333335,88.44837500184076L209.24528333333333,88.44837500184076L209.33166666666665,88.44837500184076L209.50443333333334,88.44837500184076L209.52691666666666,88.44837500184076L209.60501666666664,88.44837500184076L209.79553333333334,88.44837500184076L209.90321666666665,88.44837500184076L209.9600166666667,88.44837500184076L210.1884,88.44837500184076L210.40849999999998,88.44837500184076L210.5481333333333,88.44837500184076L210.6286,88.44837500184076L210.68303333333333,88.44837500184076L211.46048333333334,88.44837500184076L211.64508333333336,88.44837500184076L211.79891666666668,88.44837500184076L211.98706666666666,88.44837500184076L212.30065,88.44837500184076L212.43554999999998,88.44837500184076L212.73966666666666,88.44837500184076L213.24021666666667,88.44837500184076L213.29938333333334,88.44837500184076L213.5029166666667,88.44837500184076L213.5467,88.44837500184076L213.83898333333335,88.44837500184076L214.13008333333332,88.44837500184076L214.37266666666667,88.44837500184076L214.4058,88.44837500184076L214.61524999999997,88.44837500184076L215.30868333333333,88.44837500184076L215.3359,88.44837500184076L215.53588333333332,88.44837500184076L215.53706666666668,88.44837500184076L215.61161666666666,88.44837500184076L215.70865,88.44837500184076L215.86129999999997,88.44837500184076L215.92874999999998,88.44837500184076L216.05773333333335,88.44837500184076L216.14175,88.44837500184076L216.3015,88.44837500184076L216.70265,88.44837500184076L216.90144999999998,88.44837500184076L217.68245,88.44837500184076L217.8209,88.44837500184076L218.47055,88.44837500184076L218.70366666666666,88.44837500184076L218.751,88.44837500184076L218.89655,88.44837500184076L219.46573333333333,88.44837500184076L219.6243,88.44837500184076L219.86451666666667,88.44837500184076L220.09763333333333,88.44837500184076L220.45381666666665,88.44837500184076L220.48103333333336,88.44837500184076L220.7082333333333,88.44837500184076L221.13068333333334,88.44837500184076L221.2218,88.44837500184076L221.46083333333334,88.44837500184076L221.56141666666667,88.44837500184076L221.69276666666667,88.44837500184076L221.75311666666664,88.44837500184076L222.04658333333333,88.44837500184076L222.51163333333335,88.44837500184076L222.68085000000002,88.44837500184076L222.92816666666667,88.44837500184076L223.1175,88.44837500184076L223.31985,88.44837500184076L223.49261666666666,88.44837500184076L223.50563333333332,88.44837500184076L223.65828333333332,88.44837500184076L223.68195,88.44837500184076L224.03340000000003,88.44837500184076L224.30675000000002,88.44837500184076L224.6156,88.44837500184076L224.6842333333333,88.44837500184076L224.79073333333332,88.44837500184076L225.05698333333333,88.44837500184076L225.42026666666666,88.44837500184076L226.26871666666668,88.44837500184076L226.75151666666667,88.44837500184076L226.79766666666666,88.44837500184076L226.8095,88.44837500184076L227.47453333333334,88.44837500184076L227.69344999999998,88.44837500184076L228.35138333333333,88.44837500184076L228.49456666666669,88.44837500184076L228.59041666666667,88.44837500184076L228.60816666666668,88.44837500184076L228.7336,88.44837500184076L228.94068333333334,88.44837500184076L229.04245,88.44837500184076L229.2661,88.44837500184076L230.05775,88.44837500184076L230.33346666666668,88.44837500184076L230.65888333333334,88.44837500184076L230.88135,88.44837500184076L230.95235,88.44837500184076L231.07423333333335,88.44837500184076L231.19848333333334,88.44837500184076L231.4032,88.44837500184076L232.03036666666668,88.44837500184076L232.25283333333334,88.44837500184076L232.2694,88.44837500184076L232.28715000000003,88.44837500184076L232.36998333333332,88.44837500184076L232.6244,88.44837500184076L233.21843333333334,88.44837500184076L233.92843333333334,88.44837500184076L234.0373,88.44837500184076L234.1864,88.44837500184076L234.52838333333332,88.44837500184076L235.08336666666668,88.44837500184076L235.09046666666666,88.44837500184076L235.13070000000002,88.44837500184076L235.28453333333334,88.44837500184076L235.68213333333333,88.44837500184076L235.71645,88.44837500184076L236.02648333333335,88.44837500184076L236.08446666666669,88.44837500184076L236.28918333333334,88.44837500184076L236.62761666666668,88.44837500184076L237.0406,88.44837500184076L237.07610000000003,88.44837500184076L237.38258333333334,88.44837500184076L237.9091666666667,88.44837500184076L237.9139,88.44837500184076L237.97898333333333,88.44837500184076L238.16713333333334,88.44837500184076L238.20263333333335,88.44837500184076L238.3257,88.44837500184076L238.39906666666667,88.44837500184076L238.60378333333333,88.44837500184076L239.13746666666665,88.44837500184076L239.62855,88.44837500184076L240.02259999999998,88.44837500184076L240.0865,88.44837500184076L240.15158333333335,88.44837500184076L240.1575,88.44837500184076L240.48291666666668,88.44837500184076L240.53853333333333,88.44837500184076L240.54090000000002,88.44837500184076L240.79295,88.44837500184076L240.92548333333335,88.44837500184076L241.17635,88.44837500184076L241.30769999999998,88.44837500184076L241.31953333333334,88.44837500184076L241.5775,88.44837500184076L242.28276666666667,88.44837500184076L242.2946,88.44837500184076L242.37743333333333,88.44837500184076L242.65315,88.44837500184076L243.31226666666666,88.44837500184076L243.77376666666666,88.44837500184076L244.04238333333333,88.44837500184076L244.05776666666668,88.44837500184076L244.30626666666666,88.44837500184076L244.4033,88.44837500184076L244.58198333333334,88.44837500184076L244.61511666666667,88.44837500184076L244.86243333333334,88.44837500184076L244.99141666666668,88.44837500184076L245.05768333333333,88.44837500184076L245.11685,88.44837500184076L245.12986666666666,88.44837500184076L245.66118333333333,88.44837500184076L245.74875,88.44837500184076L246.06706666666668,88.44837500184076L246.1215,88.44837500184076L246.21734999999998,88.44837500184076L246.57945,88.44837500184076L247.59120000000001,88.44837500184076L247.61605,88.44837500184076L247.62433333333334,88.44837500184076L247.65155,88.44837500184076L247.69888333333333,88.44837500184076L248.00181666666668,88.44837500184076L248.17458333333335,88.44837500184076L248.41835,88.44837500184076L248.4219,88.44837500184076L248.76388333333333,88.44837500184076L248.90115,88.44837500184076L249.02421666666666,88.44837500184076L250.37676666666667,88.44837500184076L251.12226666666666,88.44837500184076L252.405,88.44837500184076L252.44523333333333,88.44837500184076L252.64995000000002,88.44837500184076L252.91738333333333,88.44837500184076L252.95998333333333,88.44837500184076L253.67708333333331,88.44837500184076L253.78595,88.44837500184076L253.96936666666667,88.44837500184076L254.36696666666666,88.44837500184076L254.75155,88.44837500184076L254.7693,88.44837500184076L254.89118333333334,88.44837500184076L255.0249,88.44837500184076L255.15033333333332,88.44837500184076L255.4935,88.44837500184076L256.1881166666667,88.44837500184076L256.46028333333334,88.44837500184076L256.51945,88.44837500184076L256.79043333333334,88.44837500184076L256.93598333333335,88.44837500184076L257.0495833333334,88.44837500184076L257.6436166666667,88.44837500184076L257.8672666666667,88.44837500184076L258.2057,88.44837500184076L258.45301666666666,88.44837500184076L258.9748666666667,88.44837500184076L258.9796,88.44837500184076L259.4576666666667,88.44837500184076L259.4908,88.44837500184076L259.93455,88.44837500184076L259.93809999999996,88.44837500184076L260.08365,88.44837500184076L260.22565000000003,88.44837500184076L260.3333333333333,88.44837500184076" style="fill: none;" fill="none"></path></g></g></g></g><g opacity="0.2"><g><g><g><path stroke="rgb(255, 112, 67)" stroke-width="2px" d="M23.71755,88.44837500184076L23.865466666666666,88.44837500184076L23.938833333333335,88.44837500184076L24.22875,88.44837500184076L24.302116666666667,88.44837500184076L24.353,88.44837500184076L24.361283333333333,88.44837500184076L24.433466666666668,88.44837500184076L24.62398333333333,88.44837500184076L24.86775,88.44837500184076L25.24523333333333,88.44837500184076L25.306766666666665,88.44837500184076L25.367116666666668,88.44837500184076L25.71975,88.44837500184076L25.723300000000002,88.44837500184076L25.888966666666665,88.44837500184076L26.3978,88.44837500184076L26.494833333333332,88.44837500184076L26.608433333333334,88.44837500184076L26.609616666666668,88.44837500184076L26.8451,88.44837500184076L27.490016666666666,88.44837500184076L27.508950000000002,88.44837500184076L27.578766666666667,88.44837500184076L27.94915,88.44837500184076L27.951516666666667,88.44837500184076L28.7763,88.44837500184076L28.87451666666667,88.44837500184076L28.983383333333332,88.44837500184076L29.0035,88.44837500184076L29.5502,88.44837500184076L29.74308333333333,88.44837500184076L29.992766666666665,88.44837500184076L30.440066666666667,88.44837500184076L30.6578,88.44837500184076L30.756016666666664,88.44837500184076L31.004516666666664,88.44837500184076L31.595,88.44837500184076L31.609199999999998,88.44837500184076L31.778416666666665,88.44837500184076L31.91095,88.44837500184076L32.1346,88.44837500184076L32.49551666666667,88.44837500184076L32.499066666666664,88.44837500184076L32.89548333333333,88.44837500184076L32.9369,88.44837500184076L33.21261666666667,88.44837500184076L33.347516666666664,88.44837500184076L33.396033333333335,88.44837500184076L33.723816666666664,88.44837500184076L33.73565,88.44837500184076L34.17348333333334,88.44837500184076L34.24093333333333,88.44837500184076L34.62551666666667,88.44837500184076L34.871649999999995,88.44837500184076L34.973416666666665,88.44837500184076L35.143816666666666,88.44837500184076L35.973333333333336,88.44837500184076L36.068,88.44837500184076L36.118883333333336,88.44837500184076L36.5721,88.44837500184076L36.644283333333334,88.44837500184076L36.70818333333334,88.44837500184076L37.314049999999995,88.44837500184076L37.354283333333335,88.44837500184076L37.83116666666667,88.44837500184076L37.83708333333334,88.44837500184076L38.06191666666667,88.44837500184076L38.211016666666666,88.44837500184076L38.905633333333334,88.44837500184076L39.09141666666667,88.44837500184076L39.12336666666667,88.44837500184076L39.78485,88.44837500184076L40.58241666666667,88.44837500184076L41.02498333333333,88.44837500184076L41.156333333333336,88.44837500184076L41.26756666666667,88.44837500184076L41.97756666666667,88.44837500184076L42.32191666666667,88.44837500184076L42.73845,88.44837500184076L43.6153,88.44837500184076L43.86261666666667,88.44837500184076L43.8993,88.44837500184076L44.15963333333333,88.44837500184076L44.18566666666666,88.44837500184076L44.42706666666667,88.44837500184076L44.44363333333333,88.44837500184076L45.501533333333334,88.44837500184076L46.77953333333333,88.44837500184076L46.908516666666664,88.44837500184076L47.0162,88.44837500184076L47.328599999999994,88.44837500184076L47.39723333333333,88.44837500184076L47.40788333333333,88.44837500184076L47.62325,88.44837500184076L47.71673333333334,88.44837500184076L47.855183333333336,88.44837500184076L47.97233333333333,88.44837500184076L48.018483333333336,88.44837500184076L48.25633333333333,88.44837500184076L48.259883333333335,88.44837500184076L48.346266666666665,88.44837500184076L48.612516666666664,88.44837500184076L48.68825,88.44837500184076L48.79238333333333,88.44837500184076L48.89533333333333,88.44837500184076L49.52131666666667,88.44837500184076L49.991099999999996,88.44837500184076L50.091683333333336,88.44837500184076L50.12481666666666,88.44837500184076L51.04781666666666,88.44837500184076L51.05965,88.44837500184076L51.222950000000004,88.44837500184076L51.3117,88.44837500184076L51.3898,88.44837500184076L51.523516666666666,88.44837500184076L51.67735,88.44837500184076L51.71403333333334,88.44837500184076L52.2418,88.44837500184076L52.40155,88.44837500184076L52.40391666666667,88.44837500184076L52.448883333333335,88.44837500184076L52.8027,88.44837500184076L52.928133333333335,88.44837500184076L53.17308333333333,88.44837500184076L53.55056666666667,88.44837500184076L53.71386666666666,88.44837500184076L54.21205,88.44837500184076L54.25346666666667,88.44837500184076L54.34103333333333,88.44837500184076L54.79306666666667,88.44837500184076L55.377633333333335,88.44837500184076L55.378816666666665,88.44837500184076L55.80008333333333,88.44837500184076L56.21543333333333,88.44837500184076L56.3314,88.44837500184076L56.37281666666667,88.44837500184076L56.594100000000005,88.44837500184076L56.70178333333333,88.44837500184076L57.31948333333334,88.44837500184076L57.443733333333334,88.44837500184076L57.94901666666667,88.44837500184076L57.97978333333333,88.44837500184076L58.05788333333333,88.44837500184076L58.222366666666666,88.44837500184076L58.29573333333333,88.44837500184076L58.541866666666664,88.44837500184076L58.70753333333333,88.44837500184076L58.9655,88.44837500184076L59.173766666666666,88.44837500184076L59.20453333333333,88.44837500184076L59.37375,88.44837500184076L59.5548,88.44837500184076L59.724016666666664,88.44837500184076L59.892050000000005,88.44837500184076L60.00328333333333,88.44837500184076L60.019850000000005,88.44837500184076L60.83161666666667,88.44837500184076L60.875400000000006,88.44837500184076L61.392516666666666,88.44837500184076L61.458783333333336,88.44837500184076L61.779466666666664,88.44837500184076L62.04926666666667,88.44837500184076L62.17588333333334,88.44837500184076L62.31196666666667,88.44837500184076L62.43621666666667,88.44837500184076L62.59241666666667,88.44837500184076L62.60188333333333,88.44837500184076L62.75808333333333,88.44837500184076L62.93203333333333,88.44837500184076L63.16159999999999,88.44837500184076L63.19473333333333,88.44837500184076L63.58996666666666,88.44837500184076L63.60416666666667,88.44837500184076L63.646766666666664,88.44837500184076L63.71066666666667,88.44837500184076L63.75445,88.44837500184076L63.79823333333333,88.44837500184076L63.94378333333333,88.44837500184076L64.32955,88.44837500184076L64.52243333333332,88.44837500184076L64.61,88.44837500184076L65.47856666666667,88.44837500184076L65.50341666666667,88.44837500184076L65.65606666666666,88.44837500184076L65.99686666666666,88.44837500184076L66.21223333333333,88.44837500184076L66.31163333333333,88.44837500184076L67.01216666666666,88.44837500184076L67.04766666666667,88.44837500184076L67.17546666666667,88.44837500184076L67.27368333333334,88.44837500184076L67.69021666666667,88.44837500184076L68.02983333333334,88.44837500184076L68.35525,88.44837500184076L68.48778333333334,88.44837500184076L69.17293333333333,88.44837500184076L69.48651666666667,88.44837500184076L69.62851666666667,88.44837500184076L69.79536666666667,88.44837500184076L70.16811666666666,88.44837500184076L70.64855,88.44837500184076L70.8935,88.44837500184076L71.02485,88.44837500184076L71.35145,88.44837500184076L71.59285,88.44837500184076L71.79046666666667,88.44837500184076L71.85318333333332,88.44837500184076L71.93956666666668,88.44837500184076L72.23185,88.44837500184076L72.5052,88.44837500184076L72.82233333333333,88.44837500184076L73.52641666666666,88.44837500184076L73.90035,88.44837500184076L73.92165,88.44837500184076L74.17015,88.44837500184076L75.16415,88.44837500184076L75.30733333333333,88.44837500184076L75.39253333333333,88.44837500184076L75.42448333333333,88.44837500184076L75.42921666666666,88.44837500184076L75.50376666666666,88.44837500184076L75.72623333333334,88.44837500184076L75.82090000000001,88.44837500184076L75.97118333333333,88.44837500184076L75.97946666666667,88.44837500184076L76.03153333333333,88.44837500184076L76.09425,88.44837500184076L76.70011666666666,88.44837500184076L76.87525000000001,88.44837500184076L77.35805,88.44837500184076L77.51780000000001,88.44837500184076L77.69648333333333,88.44837500184076L78.47748333333334,88.44837500184076L78.49641666666668,88.44837500184076L78.5899,88.44837500184076L79.6407,88.44837500184076L80.03948333333334,88.44837500184076L80.11876666666667,88.44837500184076L80.16491666666667,88.44837500184076L80.32821666666668,88.44837500184076L80.40513333333334,88.44837500184076L80.43235,88.44837500184076L80.55778333333333,88.44837500184076L80.68203333333334,88.44837500184076L80.73646666666667,88.44837500184076L81.08555,88.44837500184076L81.97305,88.44837500184076L82.06653333333333,88.44837500184076L82.21563333333333,88.44837500184076L82.84161666666667,88.44837500184076L82.90078333333334,88.44837500184076L83.02976666666666,88.44837500184076L83.06526666666666,88.44837500184076L83.80366666666666,88.44837500184076L83.99300000000001,88.44837500184076L84.17641666666667,88.44837500184076L84.28646666666667,88.44837500184076L84.96215,88.44837500184076L85.20236666666666,88.44837500184076L85.54671666666667,88.44837500184076L85.6189,88.44837500184076L85.80468333333333,88.44837500184076L86.00821666666666,88.44837500184076L86.27328333333332,88.44837500184076L86.31233333333333,88.44837500184076L86.49338333333334,88.44837500184076L86.51113333333333,88.44837500184076L86.93831666666667,88.44837500184076L87.21995,88.44837500184076L87.23296666666666,88.44837500184076L87.40455,88.44837500184076L87.45661666666666,88.44837500184076L87.71340000000001,88.44837500184076L88.38553333333333,88.44837500184076L88.52279999999999,88.44837500184076L88.67663333333333,88.44837500184076L88.72988333333333,88.44837500184076L89.10499999999999,88.44837500184076L89.39373333333333,88.44837500184076L89.40320000000001,88.44837500184076L89.5949,88.44837500184076L89.65761666666667,88.44837500184076L90.3333,88.44837500184076L90.53446666666666,88.44837500184076L90.55103333333334,88.44837500184076L90.65398333333334,88.44837500184076L90.86580000000001,88.44837500184076L90.90485000000001,88.44837500184076L91.47876666666667,88.44837500184076L91.69058333333334,88.44837500184076L92.82185,88.44837500184076L92.95911666666667,88.44837500184076L93.152,88.44837500184076L93.18395,88.44837500184076L93.20406666666666,88.44837500184076L93.79691666666668,88.44837500184076L93.85253333333334,88.44837500184076L93.99571666666667,88.44837500184076L94.24185,88.44837500184076L94.27735,88.44837500184076L94.87966666666667,88.44837500184076L94.88676666666667,88.44837500184076L94.9128,88.44837500184076L95.0193,88.44837500184076L95.22993333333334,88.44837500184076L96.09376666666667,88.44837500184076L96.17778333333332,88.44837500184076L96.36948333333333,88.44837500184076L96.65585,88.44837500184076L97.199,88.44837500184076L97.29366666666667,88.44837500184076L97.64511666666667,88.44837500184076L97.6818,88.44837500184076L98.06875000000001,88.44837500184076L98.24625,88.44837500184076L98.47818333333332,88.44837500184076L98.8249,88.44837500184076L99.01186666666668,88.44837500184076L99.24143333333333,88.44837500184076L100.0177,88.44837500184076L100.21413333333334,88.44837500184076L100.45316666666668,88.44837500184076L100.93005000000001,88.44837500184076L101.29570000000001,88.44837500184076L101.3454,88.44837500184076L101.82583333333332,88.44837500184076L102.12048333333334,88.44837500184076L102.69913333333332,88.44837500184076L102.92278333333334,88.44837500184076L102.97603333333333,88.44837500184076L103.47184999999999,88.44837500184076L104.44573333333334,88.44837500184076L104.46703333333333,88.44837500184076L104.58181666666667,88.44837500184076L104.64216666666667,88.44837500184076L104.83268333333334,88.44837500184076L105.5202,88.44837500184076L105.53676666666667,88.44837500184076L105.85626666666667,88.44837500184076L106.16866666666667,88.44837500184076L106.26215,88.44837500184076L106.4006,88.44837500184076L107.04788333333333,88.44837500184076L107.18751666666667,88.44837500184076L107.27745,88.44837500184076L107.58393333333333,88.44837500184076L107.67978333333333,88.44837500184076L108.19098333333334,88.44837500184076L108.34008333333333,88.44837500184076L108.37085,88.44837500184076L108.50811666666668,88.44837500184076L108.75661666666666,88.44837500184076L108.81696666666666,88.44837500184076L108.84299999999999,88.44837500184076L108.88204999999999,88.44837500184076L108.91163333333334,88.44837500184076L109.2193,88.44837500184076L109.22166666666666,88.44837500184076L109.34236666666666,88.44837500184076L109.34591666666667,88.44837500184076L109.52815000000001,88.44837500184076L109.72340000000001,88.44837500184076L109.90090000000001,88.44837500184076L110.06183333333334,88.44837500184076L110.26299999999999,88.44837500184076L110.99075,88.44837500184076L111.04636666666667,88.44837500184076L111.11736666666667,88.44837500184076L111.14458333333333,88.44837500184076L111.45580000000001,88.44837500184076L112.3007,88.44837500184076L112.6202,88.44837500184076L112.97283333333333,88.44837500184076L112.99413333333332,88.44837500184076L113.0888,88.44837500184076L113.51598333333334,88.44837500184076L113.85915,88.44837500184076L114.1112,88.44837500184076L114.17155,88.44837500184076L114.34195,88.44837500184076L114.39756666666666,88.44837500184076L114.53601666666667,88.44837500184076L114.67328333333334,88.44837500184076L114.68156666666667,88.44837500184076L115.01881666666667,88.44837500184076L115.41168333333334,88.44837500184076L115.85069999999999,88.44837500184076L116.1276,88.44837500184076L116.21398333333333,88.44837500184076L116.88493333333334,88.44837500184076L116.9654,88.44837500184076L117.05651666666667,88.44837500184076L117.07308333333333,88.44837500184076L117.11923333333333,88.44837500184076L117.1571,88.44837500184076L117.64581666666666,88.44837500184076L117.85763333333333,88.44837500184076L118.30493333333332,88.44837500184076L118.3712,88.44837500184076L118.37593333333334,88.44837500184076L118.45285,88.44837500184076L118.52976666666666,88.44837500184076L118.79601666666666,88.44837500184076L118.81495000000001,88.44837500184076L118.98535000000001,88.44837500184076L119.01611666666666,88.44837500184076L119.0599,88.44837500184076L119.51311666666666,88.44837500184076L119.5356,88.44837500184076L119.6563,88.44837500184076L119.9687,88.44837500184076L120.10241666666667,88.44837500184076L120.14383333333333,88.44837500184076L121.57211666666667,88.44837500184076L121.61234999999999,88.44837500184076L121.70583333333333,88.44837500184076L122.20046666666667,88.44837500184076L122.78621666666666,88.44837500184076L123.30096666666667,88.44837500184076L123.55183333333333,88.44837500184076L123.77903333333333,88.44837500184076L123.87961666666666,88.44837500184076L124.03581666666666,88.44837500184076L124.35650000000001,88.44837500184076L124.45116666666667,88.44837500184076L124.85231666666667,88.44837500184076L124.889,88.44837500184076L124.92805,88.44837500184076L125.06295,88.44837500184076L125.1375,88.44837500184076L125.45108333333333,88.44837500184076L126.35751666666667,88.44837500184076L126.45809999999999,88.44837500184076L126.62731666666666,88.44837500184076L127.08290000000001,88.44837500184076L127.15035,88.44837500184076L127.40595,88.44837500184076L127.59883333333333,88.44837500184076L127.9633,88.44837500184076L128.59875,88.44837500184076L128.7656,88.44837500184076L129.29455000000002,88.44837500184076L129.39513333333335,88.44837500184076L129.41406666666666,88.44837500184076L129.8661,88.44837500184076L130.1359,88.44837500184076L130.20926666666668,88.44837500184076L130.4483,88.44837500184076L130.70035000000001,88.44837500184076L131.46241666666666,88.44837500184076L131.70618333333334,88.44837500184076L132.08958333333334,88.44837500184076L132.11325,88.44837500184076L132.1168,88.44837500184076L132.21738333333334,88.44837500184076L132.22093333333333,88.44837500184076L132.67651666666666,88.44837500184076L133.39716666666666,88.44837500184076L133.46698333333333,88.44837500184076L133.86695,88.44837500184076L133.98173333333332,88.44837500184076L134.2752,88.44837500184076L134.78403333333333,88.44837500184076L135.53545,88.44837500184076L135.82891666666666,88.44837500184076L135.95553333333334,88.44837500184076L136.15196666666665,88.44837500184076L136.30225000000002,88.44837500184076L136.46436666666665,88.44837500184076L136.53063333333333,88.44837500184076L136.5685,88.44837500184076L136.65251666666666,88.44837500184076L137.10218333333333,88.44837500184076L137.2075,88.44837500184076L137.23471666666666,88.44837500184076L137.62403333333333,88.44837500184076L137.90093333333334,88.44837500184076L137.97785,88.44837500184076L138.63578333333334,88.44837500184076L138.71861666666666,88.44837500184076L138.94344999999998,88.44837500184076L139.15645,88.44837500184076L139.39311666666666,88.44837500184076L139.48778333333334,88.44837500184076L139.61795,88.44837500184076L139.88538333333335,88.44837500184076L140.11258333333333,88.44837500184076L140.19541666666666,88.44837500184076L140.2534,88.44837500184076L140.88293333333334,88.44837500184076L141.41661666666667,88.44837500184076L141.54205,88.44837500184076L141.54441666666665,88.44837500184076L141.86391666666668,88.44837500184076L142.67095,88.44837500184076L142.69816666666668,88.44837500184076L142.88986666666668,88.44837500184076L143.01648333333333,88.44837500184076L143.0863,88.44837500184076L143.18096666666668,88.44837500184076L143.26971666666665,88.44837500184076L143.36793333333333,88.44837500184076L143.46141666666665,88.44837500184076L143.58093333333335,88.44837500184076L143.69453333333334,88.44837500184076L143.775,88.44837500184076L144.27673333333334,88.44837500184076L144.3004,88.44837500184076L144.73113333333336,88.44837500184076L144.97016666666667,88.44837500184076L145.00803333333334,88.44837500184076L145.07193333333333,88.44837500184076L145.17843333333334,88.44837500184076L145.40918333333335,88.44837500184076L145.44586666666666,88.44837500184076L145.51095,88.44837500184076L145.55236666666667,88.44837500184076L145.5642,88.44837500184076L145.79495000000003,88.44837500184076L146.16296666666668,88.44837500184076L146.6718,88.44837500184076L147.06111666666666,88.44837500184076L147.12975,88.44837500184076L147.56758333333332,88.44837500184076L147.70721666666665,88.44837500184076L147.77821666666665,88.44837500184076L147.79478333333333,88.44837500184076L147.81253333333333,88.44837500184076L147.82791666666665,88.44837500184076L148.02790000000002,88.44837500184076L148.43141666666668,88.44837500184076L148.63968333333332,88.44837500184076L148.83375,88.44837500184076L148.85031666666669,88.44837500184076L149.34968333333333,88.44837500184076L149.41713333333334,88.44837500184076L149.56268333333335,88.44837500184076L149.77095,88.44837500184076L149.88928333333334,88.44837500184076L150.4064,88.44837500184076L151.18858333333333,88.44837500184076L151.27496666666667,88.44837500184076L151.99916666666667,88.44837500184076L152.16128333333333,88.44837500184076L152.93755,88.44837500184076L152.93873333333332,88.44837500184076L153.00736666666666,88.44837500184076L153.24403333333333,88.44837500184076L153.62388333333334,88.44837500184076L153.9090666666667,88.44837500184076L154.06053333333332,88.44837500184076L154.09958333333333,88.44837500184076L154.32915,88.44837500184076L154.52795,88.44837500184076L154.59303333333332,88.44837500184076L154.70663333333334,88.44837500184076L155.24741666666668,88.44837500184076L155.29593333333332,88.44837500184076L155.40006666666667,88.44837500184076L155.66276666666667,88.44837500184076L155.84381666666667,88.44837500184076L156.1006,88.44837500184076L156.75735,88.44837500184076L156.98691666666667,88.44837500184076L157.03306666666668,88.44837500184076L157.26855,88.44837500184076L157.76555,88.44837500184076L158.0815,88.44837500184076L158.26136666666665,88.44837500184076L158.54418333333334,88.44837500184076L158.91338333333334,88.44837500184076L159.11100000000002,88.44837500184076L159.53818333333334,88.44837500184076L159.86478333333332,88.44837500184076L159.9275,88.44837500184076L160.34994999999998,88.44837500184076L160.36415,88.44837500184076L160.65643333333335,88.44837500184076L160.79015,88.44837500184076L160.98066666666665,88.44837500184076L161.08716666666666,88.44837500184076L161.47056666666668,88.44837500184076L161.7309,88.44837500184076L161.77586666666667,88.44837500184076L161.86106666666666,88.44837500184076L161.90721666666667,88.44837500184076L162.13678333333334,88.44837500184076L162.15335000000002,88.44837500184076L162.17346666666666,88.44837500184076L162.30126666666666,88.44837500184076L162.86926666666668,88.44837500184076L163.0941,88.44837500184076L163.23136666666667,88.44837500184076L163.4917,88.44837500184076L163.52601666666666,88.44837500184076L164.07153333333332,88.44837500184076L164.37565,88.44837500184076L164.40996666666666,88.44837500184076L164.48215000000002,88.44837500184076L164.84188333333333,88.44837500184076L165.04068333333333,88.44837500184076L165.643,88.44837500184076L167.07838333333333,88.44837500184076L167.07956666666666,88.44837500184076L167.24405000000002,88.44837500184076L167.27955,88.44837500184076L167.32806666666664,88.44837500184076L167.83926666666665,88.44837500184076L167.88896666666668,88.44837500184076L168.2771,88.44837500184076L168.77055000000001,88.44837500184076L168.78475,88.44837500184076L168.909,88.44837500184076L169.29831666666666,88.44837500184076L169.9385,88.44837500184076L169.96689999999998,88.44837500184076L170.00594999999998,88.44837500184076L170.52306666666667,88.44837500184076L170.63430000000002,88.44837500184076L171.03071666666665,88.44837500184076L171.30051666666665,88.44837500184076L171.36915000000002,88.44837500184076L171.6354,88.44837500184076L171.92768333333333,88.44837500184076L173.29325,88.44837500184076L173.58079999999998,88.44837500184076L173.87426666666664,88.44837500184076L173.93698333333333,88.44837500184076L174.06596666666667,88.44837500184076L174.22335,88.44837500184076L174.44108333333335,88.44837500184076L174.59255,88.44837500184076L174.70496666666668,88.44837500184076L174.8801,88.44837500184076L174.91796666666664,88.44837500184076L174.99014999999997,88.44837500184076L175.01145,88.44837500184076L175.26705,88.44837500184076L175.49425000000002,88.44837500184076L175.61731666666665,88.44837500184076L176.14271666666667,88.44837500184076L176.49061666666668,88.44837500184076L176.69414999999998,88.44837500184076L176.79828333333333,88.44837500184076L176.81248333333335,88.44837500184076L176.82195000000002,88.44837500184076L176.91188333333332,88.44837500184076L176.96276666666668,88.44837500184076L177.41243333333333,88.44837500184076L177.5852,88.44837500184076L178.33306666666667,88.44837500184076L178.59695,88.44837500184076L179.26553333333334,88.44837500184076L179.27855,88.44837500184076L179.48918333333333,88.44837500184076L179.55308333333332,88.44837500184076L179.7211166666667,88.44837500184076L180.66778333333335,88.44837500184076L180.95178333333334,88.44837500184076L181.29495000000003,88.44837500184076L181.42748333333333,88.44837500184076L181.67598333333333,88.44837500184076L181.76118333333335,88.44837500184076L182.06885,88.44837500184076L182.24280000000002,88.44837500184076L182.67945,88.44837500184076L182.69483333333335,88.44837500184076L182.79541666666668,88.44837500184076L183.2723,88.44837500184076L183.39773333333335,88.44837500184076L184.1456,88.44837500184076L184.44971666666666,88.44837500184076L184.8485,88.44837500184076L184.9325166666667,88.44837500184076L185.02481666666668,88.44837500184076L185.39756666666668,88.44837500184076L185.40348333333333,88.44837500184076L185.42123333333333,88.44837500184076L185.81173333333334,88.44837500184076L185.84959999999998,88.44837500184076L186.08271666666667,88.44837500184076L186.35488333333333,88.44837500184076L186.4531,88.44837500184076L186.47558333333333,88.44837500184076L186.59746666666666,88.44837500184076L186.92761666666667,88.44837500184076L187.49325000000002,88.44837500184076L187.52638333333334,88.44837500184076L187.62815,88.44837500184076L188.079,88.44837500184076L188.45648333333335,88.44837500184076L188.62806666666668,88.44837500184076L188.6825,88.44837500184076L189.30493333333334,88.44837500184076L189.35226666666665,88.44837500184076L189.38776666666666,88.44837500184076L189.39960000000002,88.44837500184076L189.48953333333333,88.44837500184076L189.5297666666667,88.44837500184076L189.63271666666665,88.44837500184076L189.66940000000002,88.44837500184076L190.2220166666667,88.44837500184076L190.50483333333332,88.44837500184076L190.78055,88.44837500184076L191.52723333333333,88.44837500184076L191.56983333333335,88.44837500184076L191.68461666666667,88.44837500184076L191.93311666666665,88.44837500184076L191.9343,88.44837500184076L192.28811666666667,88.44837500184076L192.58986666666667,88.44837500184076L192.75671666666668,88.44837500184076L193.1046166666667,88.44837500184076L193.28921666666665,88.44837500184076L193.45843333333332,88.44837500184076L193.5602,88.44837500184076L193.79213333333334,88.44837500184076L193.82171666666667,88.44837500184076L193.97081666666668,88.44837500184076L194.05365,88.44837500184076L194.33528333333334,88.44837500184076L194.4051,88.44837500184076L194.54591666666667,88.44837500184076L194.69265000000001,88.44837500184076L195.9884,88.44837500184076L196.09253333333334,88.44837500184076L196.13868333333332,88.44837500184076L196.1872,88.44837500184076L196.80371666666667,88.44837500184076L196.90666666666667,88.44837500184076L197.25811666666667,88.44837500184076L198.05095,88.44837500184076L198.19886666666665,88.44837500184076L199.02483333333333,88.44837500184076L199.14198333333331,88.44837500184076L199.30291666666668,88.44837500184076L199.44728333333333,88.44837500184076L199.51591666666667,88.44837500184076L199.59756666666667,88.44837500184076L199.6023,88.44837500184076L199.72181666666668,88.44837500184076L199.82358333333335,88.44837500184076L200.50755,88.44837500184076L200.64126666666667,88.44837500184076L200.79273333333333,88.44837500184076L201.03295,88.44837500184076L201.0933,88.44837500184076L201.17495,88.44837500184076L201.17968333333334,88.44837500184076L201.80329999999998,88.44837500184076L201.82578333333333,88.44837500184076L201.92045,88.44837500184076L202.06481666666667,88.44837500184076L202.18906666666666,88.44837500184076L202.40088333333333,88.44837500184076L202.41745,88.44837500184076L202.46005,88.44837500184076L202.50856666666667,88.44837500184076L202.6198,88.44837500184076L202.67778333333334,88.44837500184076L202.79256666666666,88.44837500184076L202.89078333333333,88.44837500184076L202.99373333333332,88.44837500184076L203.01503333333335,88.44837500184076L203.17478333333332,88.44837500184076L204.1534,88.44837500184076L204.44095,88.44837500184076L205.37578333333332,88.44837500184076L205.45506666666668,88.44837500184076L205.52725,88.44837500184076L205.95325,88.44837500184076L206.5177,88.44837500184076L206.6869166666667,88.44837500184076L207.30816666666666,88.44837500184076L207.40046666666666,88.44837500184076L207.77558333333334,88.44837500184076L207.93651666666668,88.44837500184076L207.95426666666665,88.44837500184076L208.6335,88.44837500184076L208.73171666666667,88.44837500184076L209.03938333333335,88.44837500184076L209.24528333333333,88.44837500184076L209.33166666666665,88.44837500184076L209.50443333333334,88.44837500184076L209.52691666666666,88.44837500184076L209.60501666666664,88.44837500184076L209.79553333333334,88.44837500184076L209.90321666666665,88.44837500184076L209.9600166666667,88.44837500184076L210.1884,88.44837500184076L210.40849999999998,88.44837500184076L210.5481333333333,88.44837500184076L210.6286,88.44837500184076L210.68303333333333,88.44837500184076L211.46048333333334,88.44837500184076L211.64508333333336,88.44837500184076L211.79891666666668,88.44837500184076L211.98706666666666,88.44837500184076L212.30065,88.44837500184076L212.43554999999998,88.44837500184076L212.73966666666666,88.44837500184076L213.24021666666667,88.44837500184076L213.29938333333334,88.44837500184076L213.5029166666667,88.44837500184076L213.5467,88.44837500184076L213.83898333333335,88.44837500184076L214.13008333333332,88.44837500184076L214.37266666666667,88.44837500184076L214.4058,88.44837500184076L214.61524999999997,88.44837500184076L215.30868333333333,88.44837500184076L215.3359,88.44837500184076L215.53588333333332,88.44837500184076L215.53706666666668,88.44837500184076L215.61161666666666,88.44837500184076L215.70865,88.44837500184076L215.86129999999997,88.44837500184076L215.92874999999998,88.44837500184076L216.05773333333335,88.44837500184076L216.14175,88.44837500184076L216.3015,88.44837500184076L216.70265,88.44837500184076L216.90144999999998,88.44837500184076L217.68245,88.44837500184076L217.8209,88.44837500184076L218.47055,88.44837500184076L218.70366666666666,88.44837500184076L218.751,88.44837500184076L218.89655,88.44837500184076L219.46573333333333,88.44837500184076L219.6243,88.44837500184076L219.86451666666667,88.44837500184076L220.09763333333333,88.44837500184076L220.45381666666665,88.44837500184076L220.48103333333336,88.44837500184076L220.7082333333333,88.44837500184076L221.13068333333334,88.44837500184076L221.2218,88.44837500184076L221.46083333333334,88.44837500184076L221.56141666666667,88.44837500184076L221.69276666666667,88.44837500184076L221.75311666666664,88.44837500184076L222.04658333333333,88.44837500184076L222.51163333333335,88.44837500184076L222.68085000000002,88.44837500184076L222.92816666666667,88.44837500184076L223.1175,88.44837500184076L223.31985,88.44837500184076L223.49261666666666,88.44837500184076L223.50563333333332,88.44837500184076L223.65828333333332,88.44837500184076L223.68195,88.44837500184076L224.03340000000003,88.44837500184076L224.30675000000002,88.44837500184076L224.6156,88.44837500184076L224.6842333333333,88.44837500184076L224.79073333333332,88.44837500184076L225.05698333333333,88.44837500184076L225.42026666666666,88.44837500184076L226.26871666666668,88.44837500184076L226.75151666666667,88.44837500184076L226.79766666666666,88.44837500184076L226.8095,88.44837500184076L227.47453333333334,88.44837500184076L227.69344999999998,88.44837500184076L228.35138333333333,88.44837500184076L228.49456666666669,88.44837500184076L228.59041666666667,88.44837500184076L228.60816666666668,88.44837500184076L228.7336,88.44837500184076L228.94068333333334,88.44837500184076L229.04245,88.44837500184076L229.2661,88.44837500184076L230.05775,88.44837500184076L230.33346666666668,88.44837500184076L230.65888333333334,88.44837500184076L230.88135,88.44837500184076L230.95235,88.44837500184076L231.07423333333335,88.44837500184076L231.19848333333334,88.44837500184076L231.4032,88.44837500184076L232.03036666666668,88.44837500184076L232.25283333333334,88.44837500184076L232.2694,88.44837500184076L232.28715000000003,88.44837500184076L232.36998333333332,88.44837500184076L232.6244,88.44837500184076L233.21843333333334,88.44837500184076L233.92843333333334,88.44837500184076L234.0373,88.44837500184076L234.1864,88.44837500184076L234.52838333333332,88.44837500184076L235.08336666666668,88.44837500184076L235.09046666666666,88.44837500184076L235.13070000000002,88.44837500184076L235.28453333333334,88.44837500184076L235.68213333333333,88.44837500184076L235.71645,88.44837500184076L236.02648333333335,88.44837500184076L236.08446666666669,88.44837500184076L236.28918333333334,88.44837500184076L236.62761666666668,88.44837500184076L237.0406,88.44837500184076L237.07610000000003,88.44837500184076L237.38258333333334,88.44837500184076L237.9091666666667,88.44837500184076L237.9139,88.44837500184076L237.97898333333333,88.44837500184076L238.16713333333334,88.44837500184076L238.20263333333335,88.44837500184076L238.3257,88.44837500184076L238.39906666666667,88.44837500184076L238.60378333333333,88.44837500184076L239.13746666666665,88.44837500184076L239.62855,88.44837500184076L240.02259999999998,88.44837500184076L240.0865,88.44837500184076L240.15158333333335,88.44837500184076L240.1575,88.44837500184076L240.48291666666668,88.44837500184076L240.53853333333333,88.44837500184076L240.54090000000002,88.44837500184076L240.79295,88.44837500184076L240.92548333333335,88.44837500184076L241.17635,88.44837500184076L241.30769999999998,88.44837500184076L241.31953333333334,88.44837500184076L241.5775,88.44837500184076L242.28276666666667,88.44837500184076L242.2946,88.44837500184076L242.37743333333333,88.44837500184076L242.65315,88.44837500184076L243.31226666666666,88.44837500184076L243.77376666666666,88.44837500184076L244.04238333333333,88.44837500184076L244.05776666666668,88.44837500184076L244.30626666666666,88.44837500184076L244.4033,88.44837500184076L244.58198333333334,88.44837500184076L244.61511666666667,88.44837500184076L244.86243333333334,88.44837500184076L244.99141666666668,88.44837500184076L245.05768333333333,88.44837500184076L245.11685,88.44837500184076L245.12986666666666,88.44837500184076L245.66118333333333,88.44837500184076L245.74875,88.44837500184076L246.06706666666668,88.44837500184076L246.1215,88.44837500184076L246.21734999999998,88.44837500184076L246.57945,88.44837500184076L247.59120000000001,88.44837500184076L247.61605,88.44837500184076L247.62433333333334,88.44837500184076L247.65155,88.44837500184076L247.69888333333333,88.44837500184076L248.00181666666668,88.44837500184076L248.17458333333335,88.44837500184076L248.41835,88.44837500184076L248.4219,88.44837500184076L248.76388333333333,88.44837500184076L248.90115,88.44837500184076L249.02421666666666,88.44837500184076L250.37676666666667,88.44837500184076L251.12226666666666,88.44837500184076L252.405,88.44837500184076L252.44523333333333,88.44837500184076L252.64995000000002,88.44837500184076L252.91738333333333,88.44837500184076L252.95998333333333,88.44837500184076L253.67708333333331,88.44837500184076L253.78595,88.44837500184076L253.96936666666667,88.44837500184076L254.36696666666666,88.44837500184076L254.75155,88.44837500184076L254.7693,88.44837500184076L254.89118333333334,88.44837500184076L255.0249,88.44837500184076L255.15033333333332,88.44837500184076L255.4935,88.44837500184076L256.1881166666667,88.44837500184076L256.46028333333334,88.44837500184076L256.51945,88.44837500184076L256.79043333333334,88.44837500184076L256.93598333333335,88.44837500184076L257.0495833333334,88.44837500184076L257.6436166666667,88.44837500184076L257.8672666666667,88.44837500184076L258.2057,88.44837500184076L258.45301666666666,88.44837500184076L258.9748666666667,88.44837500184076L258.9796,88.44837500184076L259.4576666666667,88.44837500184076L259.4908,88.44837500184076L259.93455,88.44837500184076L259.93809999999996,88.44837500184076L260.08365,88.44837500184076L260.22565000000003,88.44837500184076L260.3333333333333,88.44837500184076" style="fill: none;" fill="none"></path></g></g></g></g></g></g><g transform="translate(46, 177)" clip-path="url(#clip_1)"><clipPath id="clip_1"><rect width="284" height="23"></rect></clipPath><g><g><line x1="0" y1="0" x2="0" y2="5" style="visibility: inherit;" fill="rgb(0, 0, 0)" stroke="rgb(204, 204, 204)" stroke-width="1px"></line><line x1="23.666666666666664" y1="0" x2="23.666666666666664" y2="5" style="visibility: inherit;" fill="rgb(0, 0, 0)" stroke="rgb(204, 204, 204)" stroke-width="1px"></line><line x1="47.33333333333333" y1="0" x2="47.33333333333333" y2="5" style="visibility: inherit;" fill="rgb(0, 0, 0)" stroke="rgb(204, 204, 204)" stroke-width="1px"></line><line x1="71" y1="0" x2="71" y2="5" style="visibility: inherit;" fill="rgb(0, 0, 0)" stroke="rgb(204, 204, 204)" stroke-width="1px"></line><line x1="94.66666666666666" y1="0" x2="94.66666666666666" y2="5" style="visibility: inherit;" fill="rgb(0, 0, 0)" stroke="rgb(204, 204, 204)" stroke-width="1px"></line><line x1="118.33333333333334" y1="0" x2="118.33333333333334" y2="5" style="visibility: inherit;" fill="rgb(0, 0, 0)" stroke="rgb(204, 204, 204)" stroke-width="1px"></line><line x1="142" y1="0" x2="142" y2="5" style="visibility: inherit;" fill="rgb(0, 0, 0)" stroke="rgb(204, 204, 204)" stroke-width="1px"></line><line x1="165.66666666666669" y1="0" x2="165.66666666666669" y2="5" style="visibility: inherit;" fill="rgb(0, 0, 0)" stroke="rgb(204, 204, 204)" stroke-width="1px"></line><line x1="189.33333333333331" y1="0" x2="189.33333333333331" y2="5" style="visibility: inherit;" fill="rgb(0, 0, 0)" stroke="rgb(204, 204, 204)" stroke-width="1px"></line><line x1="213" y1="0" x2="213" y2="5" style="visibility: inherit;" fill="rgb(0, 0, 0)" stroke="rgb(204, 204, 204)" stroke-width="1px"></line><line x1="236.66666666666669" y1="0" x2="236.66666666666669" y2="5" style="visibility: inherit;" fill="rgb(0, 0, 0)" stroke="rgb(204, 204, 204)" stroke-width="1px"></line><line x1="260.3333333333333" y1="0" x2="260.3333333333333" y2="5" style="visibility: inherit;" fill="rgb(0, 0, 0)" stroke="rgb(204, 204, 204)" stroke-width="1px"></line><line x1="284" y1="0" x2="284" y2="5" style="visibility: inherit;" fill="rgb(0, 0, 0)" stroke="rgb(204, 204, 204)" stroke-width="1px"></line></g><g transform="translate(0, 8)"><text x="0" y="0" dx="0em" dy="0.95em" style="text-anchor: middle; visibility: hidden; font-family: &quot;Helvetica Neue&quot;, sans-serif; font-size: 12px; font-weight: 200;" fill="rgb(50, 49, 63)" stroke="none" stroke-width="1px">-100k</text><text x="23.666666666666664" y="0" dx="0em" dy="0.95em" style="text-anchor: middle; visibility: inherit; font-family: &quot;Helvetica Neue&quot;, sans-serif; font-size: 12px; font-weight: 200;" fill="rgb(50, 49, 63)" stroke="none" stroke-width="1px">0</text><text x="47.33333333333333" y="0" dx="0em" dy="0.95em" style="text-anchor: middle; visibility: hidden; font-family: &quot;Helvetica Neue&quot;, sans-serif; font-size: 12px; font-weight: 200;" fill="rgb(50, 49, 63)" stroke="none" stroke-width="1px">100k</text><text x="71" y="0" dx="0em" dy="0.95em" style="text-anchor: middle; visibility: inherit; font-family: &quot;Helvetica Neue&quot;, sans-serif; font-size: 12px; font-weight: 200;" fill="rgb(50, 49, 63)" stroke="none" stroke-width="1px">200k</text><text x="94.66666666666666" y="0" dx="0em" dy="0.95em" style="text-anchor: middle; visibility: hidden; font-family: &quot;Helvetica Neue&quot;, sans-serif; font-size: 12px; font-weight: 200;" fill="rgb(50, 49, 63)" stroke="none" stroke-width="1px">300k</text><text x="118.33333333333334" y="0" dx="0em" dy="0.95em" style="text-anchor: middle; visibility: inherit; font-family: &quot;Helvetica Neue&quot;, sans-serif; font-size: 12px; font-weight: 200;" fill="rgb(50, 49, 63)" stroke="none" stroke-width="1px">400k</text><text x="142" y="0" dx="0em" dy="0.95em" style="text-anchor: middle; visibility: hidden; font-family: &quot;Helvetica Neue&quot;, sans-serif; font-size: 12px; font-weight: 200;" fill="rgb(50, 49, 63)" stroke="none" stroke-width="1px">500k</text><text x="165.66666666666669" y="0" dx="0em" dy="0.95em" style="text-anchor: middle; visibility: inherit; font-family: &quot;Helvetica Neue&quot;, sans-serif; font-size: 12px; font-weight: 200;" fill="rgb(50, 49, 63)" stroke="none" stroke-width="1px">600k</text><text x="189.33333333333331" y="0" dx="0em" dy="0.95em" style="text-anchor: middle; visibility: hidden; font-family: &quot;Helvetica Neue&quot;, sans-serif; font-size: 12px; font-weight: 200;" fill="rgb(50, 49, 63)" stroke="none" stroke-width="1px">700k</text><text x="213" y="0" dx="0em" dy="0.95em" style="text-anchor: middle; visibility: inherit; font-family: &quot;Helvetica Neue&quot;, sans-serif; font-size: 12px; font-weight: 200;" fill="rgb(50, 49, 63)" stroke="none" stroke-width="1px">800k</text><text x="236.66666666666669" y="0" dx="0em" dy="0.95em" style="text-anchor: middle; visibility: hidden; font-family: &quot;Helvetica Neue&quot;, sans-serif; font-size: 12px; font-weight: 200;" fill="rgb(50, 49, 63)" stroke="none" stroke-width="1px">900k</text><text x="260.3333333333333" y="0" dx="0em" dy="0.95em" style="text-anchor: middle; visibility: inherit; font-family: &quot;Helvetica Neue&quot;, sans-serif; font-size: 12px; font-weight: 200;" fill="rgb(50, 49, 63)" stroke="none" stroke-width="1px">1M</text><text x="284" y="0" dx="0em" dy="0.95em" style="text-anchor: middle; visibility: hidden; font-family: &quot;Helvetica Neue&quot;, sans-serif; font-size: 12px; font-weight: 200;" fill="rgb(50, 49, 63)" stroke="none" stroke-width="1px">1.1M</text></g><line x1="0" y1="0" x2="284" y2="0" fill="rgb(0, 0, 0)" stroke="rgb(204, 204, 204)" stroke-width="1px"></line></g></g></g></g></svg>