<svg viewBox="0 0 330 200" xmlns="http://www.w3.org/2000/svg"><g><g><g><g><g><line x1="46" y1="177" x2="41" y2="177" style="visibility: inherit;" fill="rgb(0, 0, 0)" stroke="rgb(204, 204, 204)" stroke-width="1px"></line><line x1="46" y1="151.71428571428572" x2="41" y2="151.71428571428572" style="visibility: inherit;" fill="rgb(0, 0, 0)" stroke="rgb(204, 204, 204)" stroke-width="1px"></line><line x1="46" y1="126.42857142857143" x2="41" y2="126.42857142857143" style="visibility: inherit;" fill="rgb(0, 0, 0)" stroke="rgb(204, 204, 204)" stroke-width="1px"></line><line x1="46" y1="101.14285714285715" x2="41" y2="101.14285714285715" style="visibility: inherit;" fill="rgb(0, 0, 0)" stroke="rgb(204, 204, 204)" stroke-width="1px"></line><line x1="46" y1="75.85714285714286" x2="41" y2="75.85714285714286" style="visibility: inherit;" fill="rgb(0, 0, 0)" stroke="rgb(204, 204, 204)" stroke-width="1px"></line><line x1="46" y1="50.57142857142857" x2="41" y2="50.57142857142857" style="visibility: inherit;" fill="rgb(0, 0, 0)" stroke="rgb(204, 204, 204)" stroke-width="1px"></line><line x1="46" y1="25.285714285714306" x2="41" y2="25.285714285714306" style="visibility: inherit;" fill="rgb(0, 0, 0)" stroke="rgb(204, 204, 204)" stroke-width="1px"></line><line x1="46" y1="0" x2="41" y2="0" style="visibility: inherit;" fill="rgb(0, 0, 0)" stroke="rgb(204, 204, 204)" stroke-width="1px"></line></g><g transform="translate(36, 0)"><text x="0" y="177" dx="0em" dy="0.3em" style="text-anchor: end; visibility: hidden; font-family: &quot;Helvetica Neue&quot;, sans-serif; font-size: 12px; font-weight: 200;" fill="rgb(50, 49, 63)" stroke="none" stroke-width="1px">-0.5</text><text x="0" y="151.71428571428572" dx="0em" dy="0.3em" style="text-anchor: end; visibility: inherit; font-family: &quot;Helvetica Neue&quot;, sans-serif; font-size: 12px; font-weight: 200;" fill="rgb(50, 49, 63)" stroke="none" stroke-width="1px">0</text><text x="0" y="126.42857142857143" dx="0em" dy="0.3em" style="text-anchor: end; visibility: inherit; font-family: &quot;Helvetica Neue&quot;, sans-serif; font-size: 12px; font-weight: 200;" fill="rgb(50, 49, 63)" stroke="none" stroke-width="1px">0.5</text><text x="0" y="101.14285714285715" dx="0em" dy="0.3em" style="text-anchor: end; visibility: inherit; font-family: &quot;Helvetica Neue&quot;, sans-serif; font-size: 12px; font-weight: 200;" fill="rgb(50, 49, 63)" stroke="none" stroke-width="1px">1</text><text x="0" y="75.85714285714286" dx="0em" dy="0.3em" style="text-anchor: end; visibility: inherit; font-family: &quot;Helvetica Neue&quot;, sans-serif; font-size: 12px; font-weight: 200;" fill="rgb(50, 49, 63)" stroke="none" stroke-width="1px">1.5</text><text x="0" y="50.57142857142857" dx="0em" dy="0.3em" style="text-anchor: end; visibility: inherit; font-family: &quot;Helvetica Neue&quot;, sans-serif; font-size: 12px; font-weight: 200;" fill="rgb(50, 49, 63)" stroke="none" stroke-width="1px">2</text><text x="0" y="25.285714285714306" dx="0em" dy="0.3em" style="text-anchor: end; visibility: inherit; font-family: &quot;Helvetica Neue&quot;, sans-serif; font-size: 12px; font-weight: 200;" fill="rgb(50, 49, 63)" stroke="none" stroke-width="1px">2.5</text><text x="0" y="0" dx="0em" dy="0.3em" style="text-anchor: end; visibility: hidden; font-family: &quot;Helvetica Neue&quot;, sans-serif; font-size: 12px; font-weight: 200;" fill="rgb(50, 49, 63)" stroke="none" stroke-width="1px">3</text></g><line x1="46" y1="0" x2="46" y2="177" fill="rgb(0, 0, 0)" stroke="rgb(204, 204, 204)" stroke-width="1px"></line></g></g><g transform="translate(46, 0)" clip-path="url(#clip_0)"><clipPath id="clip_0"><rect width="284" height="177"></rect></clipPath><g><g><g><line x1="0" y1="0" x2="0" y2="177" fill="rgb(0, 0, 0)" stroke="rgb(60, 60, 60)" stroke-width="1px" opacity="0.25"></line><line x1="23.666666666666664" y1="0" x2="23.666666666666664" y2="177" fill="rgb(0, 0, 0)" stroke="rgb(60, 60, 60)" stroke-width="1px" opacity="0.25"></line><line x1="47.33333333333333" y1="0" x2="47.33333333333333" y2="177" fill="rgb(0, 0, 0)" stroke="rgb(60, 60, 60)" stroke-width="1px" opacity="0.25"></line><line x1="71" y1="0" x2="71" y2="177" fill="rgb(0, 0, 0)" stroke="rgb(60, 60, 60)" stroke-width="1px" opacity="0.25"></line><line x1="94.66666666666666" y1="0" x2="94.66666666666666" y2="177" fill="rgb(0, 0, 0)" stroke="rgb(60, 60, 60)" stroke-width="1px" opacity="0.25"></line><line x1="118.33333333333334" y1="0" x2="118.33333333333334" y2="177" fill="rgb(0, 0, 0)" stroke="rgb(60, 60, 60)" stroke-width="1px" opacity="0.25"></line><line x1="142" y1="0" x2="142" y2="177" fill="rgb(0, 0, 0)" stroke="rgb(60, 60, 60)" stroke-width="1px" opacity="0.25"></line><line x1="165.66666666666669" y1="0" x2="165.66666666666669" y2="177" fill="rgb(0, 0, 0)" stroke="rgb(60, 60, 60)" stroke-width="1px" opacity="0.25"></line><line x1="189.33333333333331" y1="0" x2="189.33333333333331" y2="177" fill="rgb(0, 0, 0)" stroke="rgb(60, 60, 60)" stroke-width="1px" opacity="0.25"></line><line x1="213" y1="0" x2="213" y2="177" fill="rgb(0, 0, 0)" stroke="rgb(60, 60, 60)" stroke-width="1px" opacity="0.25"></line><line x1="236.66666666666669" y1="0" x2="236.66666666666669" y2="177" fill="rgb(0, 0, 0)" stroke="rgb(60, 60, 60)" stroke-width="1px" opacity="0.25"></line><line x1="260.3333333333333" y1="0" x2="260.3333333333333" y2="177" fill="rgb(0, 0, 0)" stroke="rgb(60, 60, 60)" stroke-width="1px" opacity="0.25"></line><line x1="284" y1="0" x2="284" y2="177" fill="rgb(0, 0, 0)" stroke="rgb(60, 60, 60)" stroke-width="1px" opacity="0.25"></line></g><g><line x1="0" y1="177" x2="284" y2="177" fill="rgb(0, 0, 0)" stroke="rgb(60, 60, 60)" stroke-width="1px" opacity="0.25"></line><line x1="0" y1="151.71428571428572" x2="284" y2="151.71428571428572" fill="rgb(0, 0, 0)" stroke="rgb(60, 60, 60)" stroke-width="1px" opacity="0.25"></line><line x1="0" y1="126.42857142857143" x2="284" y2="126.42857142857143" fill="rgb(0, 0, 0)" stroke="rgb(60, 60, 60)" stroke-width="1px" opacity="0.25"></line><line x1="0" y1="101.14285714285715" x2="284" y2="101.14285714285715" fill="rgb(0, 0, 0)" stroke="rgb(60, 60, 60)" stroke-width="1px" opacity="0.25"></line><line x1="0" y1="75.85714285714286" x2="284" y2="75.85714285714286" fill="rgb(0, 0, 0)" stroke="rgb(60, 60, 60)" stroke-width="1px" opacity="0.25"></line><line x1="0" y1="50.57142857142857" x2="284" y2="50.57142857142857" fill="rgb(0, 0, 0)" stroke="rgb(60, 60, 60)" stroke-width="1px" opacity="0.25"></line><line x1="0" y1="25.285714285714306" x2="284" y2="25.285714285714306" fill="rgb(0, 0, 0)" stroke="rgb(60, 60, 60)" stroke-width="1px" opacity="0.25"></line><line x1="0" y1="0" x2="284" y2="0" fill="rgb(0, 0, 0)" stroke="rgb(60, 60, 60)" stroke-width="1px" opacity="0.25"></line></g></g></g><g><g><line x1="0" y1="151.71428571428572" x2="284" y2="151.71428571428572" fill="rgb(0, 0, 0)" stroke="rgb(153, 153, 153)" stroke-width="1.5px"></line></g></g><g><g><line x1="23.666666666666664" y1="0" x2="23.666666666666664" y2="177" fill="rgb(0, 0, 0)" stroke="rgb(153, 153, 153)" stroke-width="1.5px"></line></g></g><g><g><g><g><g><path stroke="rgb(255, 112, 67)" stroke-width="2px" d="M23.71755,151.381430820695L23.865466666666666,151.43556499753063L23.938833333333335,160.88770488655763L24.22875,152.36485158655017L24.302116666666667,151.3331520585947L24.353,151.82632843155974L24.361283333333333,151.9497323707527L24.433466666666668,151.1831279045086L24.62398333333333,156.07804136519889L24.86775,157.8064656133198L25.24523333333333,152.54220219909186L25.306766666666665,154.71866158599738L25.367116666666668,152.92010040577796L25.71975,153.84341721164054L25.723300000000002,152.85333356869666L25.888966666666665,130.87318662775L26.3978,62.975854193896126L26.494833333333332,93.57114787267255L26.608433333333334,111.22154344283936L26.609616666666668,123.25537888818269L26.8451,133.67866126104727L27.490016666666666,137.5325061412155L27.508950000000002,145.40897730990108L27.578766666666667,140.00633168240998L27.94915,146.25834885480913L27.951516666666667,144.66968488433014L28.7763,149.86179827459344L28.87451666666667,41.23440113358032L28.983383333333332,78.4228662510001L29.0035,106.15165762290204L29.5502,107.17144453308208L29.74308333333333,122.87462347619707L29.992766666666665,116.06034533554096L30.440066666666667,128.70243053822503L30.6578,122.80056816500971L30.756016666666664,130.8269184078987L31.004516666666664,137.960675153879L31.595,139.93096651653312L31.609199999999998,37.39943993533697L31.778416666666665,78.63287882697473L31.91095,103.55437123627125L32.1346,120.86245508514425L32.49551666666667,126.73855256417447L32.499066666666664,140.18776058140787L32.89548333333333,145.0076876168252L32.9369,150.0325190399707L33.21261666666667,153.1010686037706L33.347516666666664,132.0937475358146L33.396033333333335,129.60574749349786L33.723816666666664,138.42893153886627L33.73565,144.0559883348306L34.17348333333334,147.0327093025584L34.24093333333333,156.0014685581878L34.62551666666667,150.85628913870903L34.871649999999995,155.0326164446771L34.973416666666665,156.9702738845612L35.143816666666666,156.7260737677162L35.973333333333336,18.45203037811413L36.068,65.28011437593936L36.118883333333336,93.77081702948342L36.5721,113.36299082629733L36.644283333333334,128.83997385141066L36.70818333333334,138.46117043841036L37.314049999999995,145.1360709428812L37.354283333333335,152.80136771997272L37.83116666666667,141.55229838131777L37.83708333333334,147.0468115266603L38.06191666666667,118.98637718041313L38.211016666666666,127.8733509804661L38.905633333333334,70.91774919712138L39.09141666666667,103.68635984178064L39.12336666666667,81.36077347938337L39.78485,101.50154637157175L40.58241666666667,117.10061215414922L41.02498333333333,123.30962446120678L41.156333333333336,140.97885003078204L41.26756666666667,140.30075954402284L41.97756666666667,142.9324531225962L42.32191666666667,125.11774430826927L42.73845,103.35957225237422L43.6153,120.96734659533064L43.86261666666667,131.67751661937984L43.8993,122.79343614545206L44.15963333333333,137.9874112521443L44.18566666666666,132.62347998265042L44.42706666666667,122.584707915558L44.44363333333333,132.52615670268878L45.501533333333334,128.80371674441406L46.77953333333333,137.91746695998052L46.908516666666664,90.90773906541985L47.0162,108.94195301089546L47.328599999999994,118.36114437137734L47.39723333333333,127.10317567485666L47.40788333333333,139.50406623162144L47.62325,143.36833752240267L47.71673333333334,147.45003583375944L47.855183333333336,147.47342731275847L47.97233333333333,143.89270771012468L48.018483333333336,139.8077311655337L48.25633333333333,143.76687449870843L48.259883333333335,131.16263879475358L48.346266666666665,135.7615607324308L48.612516666666664,123.47062628423834L48.68825,127.89747961449504L48.79238333333333,135.4899134287359L48.89533333333333,140.67839815271316L49.52131666666667,144.89323204104696L49.991099999999996,152.34523253998873L50.091683333333336,157.21896277877707L50.12481666666666,118.91086171967665L51.04781666666666,131.5621817169889L51.05965,138.81733466588125L51.222950000000004,135.65603512236095L51.3117,139.3456613349543L51.3898,-53.82472252008981L51.523516666666666,16.385189262084424L51.67735,58.670123847748755L51.71403333333334,3.9556520163740174L52.2418,55.33006034811808L52.40155,92.53914632167785L52.40391666666667,94.28120999779108L52.448883333333335,112.05234064058975L52.8027,103.96446231769934L52.928133333333335,120.3070856635616L53.17308333333333,130.85458029908634L53.55056666666667,114.37236774780133L53.71386666666666,127.64253894624702L54.21205,94.08328653221425L54.25346666666667,96.97826471678465L54.34103333333333,114.1305465144692L54.79306666666667,120.48154925030803L55.377633333333335,79.18408322586502L55.378816666666665,104.37188327589624L55.80008333333333,120.32247864109979L56.21543333333333,130.90680296418995L56.3314,157.54985669495724L56.37281666666667,146.90575483540457L56.594100000000005,148.73844840561122L56.70178333333333,149.53300428330172L57.31948333333334,150.1901290877785L57.443733333333334,150.6025264916065L57.94901666666667,147.68157302490957L57.97978333333333,148.7136370402328L58.05788333333333,151.86793131722288L58.222366666666666,150.8506674565956L58.29573333333333,150.41407452941158L58.541866666666664,124.13893776560315L58.70753333333333,135.11115015474263L58.9655,142.6454467322488L59.173766666666666,145.70758702655894L59.20453333333333,144.34752901580677L59.37375,146.83405096820792L59.5548,148.64074285937153L59.724016666666664,150.89472653726898L59.892050000000005,149.9405912218377L60.00328333333333,155.1691842496882L60.019850000000005,154.38553555527136L60.83161666666667,143.79806904370002L60.875400000000006,134.15903733124304L61.392516666666666,128.66266143817114L61.458783333333336,135.46882944103882L61.779466666666664,146.44152804624645L62.04926666666667,148.13145088845118L62.17588333333334,134.21225645954345L62.31196666666667,139.88085513503424L62.43621666666667,92.7466072055027L62.59241666666667,115.45721437518003L62.60188333333333,114.49697150509559L62.75808333333333,138.37218210701576L62.93203333333333,141.50277124796946L63.16159999999999,145.41719843845345L63.19473333333333,143.52053511367183L63.58996666666666,134.98905005739394L63.60416666666667,140.79915153908664L63.646766666666664,146.23798163783985L63.71066666666667,148.1327232394599L63.75445,149.54026482718052L63.79823333333333,97.32007397231871L63.94378333333333,113.95020026286508L64.32955,125.65653695844284L64.52243333333332,130.05737770455784L64.61,124.58487212368789L65.47856666666667,144.34576063476192L65.50341666666667,147.93945665550302L65.65606666666666,149.41611913309052L65.99686666666666,149.63814748973485L66.21223333333333,149.90914185082184L66.31163333333333,135.76896207682708L67.01216666666666,137.15812472009117L67.04766666666667,141.58302007170795L67.17546666666667,144.5006182286378L67.27368333333334,146.60944787651658L67.69021666666667,79.68478794295939L68.02983333333334,105.11107944128769L68.35525,95.57836396440395L68.48778333333334,112.84183154410368L69.17293333333333,103.45400953589005L69.48651666666667,119.81500357433642L69.62851666666667,132.32558128994918L69.79536666666667,134.1638182329868L70.16811666666666,139.97101098915132L70.64855,129.91739853294874L70.8935,-89.20355697788864L71.02485,-25.5570247000023L71.35145,34.723464312585605L71.59285,72.13208413258023L71.79046666666667,30.398525385378207L71.85318333333332,55.567591037924956L71.93956666666668,88.43593244585686L72.23185,99.56807049548316L72.5052,117.14022823969576L72.82233333333333,127.24901257877727L73.52641666666666,136.96457457148506L73.90035,140.7172080285181L73.92165,143.6233569011738L74.17015,144.88506913251115L75.16415,138.0681859071864L75.30733333333333,143.4166927537898L75.39253333333333,139.48758841439795L75.42448333333333,107.63712794339L75.42921666666666,116.48243647747049L75.50376666666666,114.27638145351634L75.72623333333334,123.18602160240457L75.82090000000001,132.48348215484356L75.97118333333333,125.84762590674907L75.97946666666667,128.6486071802227L76.03153333333333,136.3476780857829L76.09425,141.03688143366273L76.70011666666666,142.43086470109006L76.87525000000001,135.8270992603061L77.35805,138.01287203941527L77.51780000000001,142.60554233425046L77.69648333333333,137.54509220506083L78.47748333333334,141.47717044365154L78.49641666666668,141.4921413385957L78.5899,144.90657980896816L79.6407,145.1159200232071L80.03948333333334,145.4311922923879L80.11876666666667,146.96266203299933L80.16491666666667,88.06589321055877L80.32821666666668,104.71845794792114L80.40513333333334,120.92592585809834L80.43235,110.70399403470252L80.55778333333333,124.62536546878366L80.68203333333334,123.23919790774674L80.73646666666667,130.77737713595263L81.08555,136.74182444533983L81.97305,141.09436421209475L82.06653333333333,121.3043551781578L82.21563333333333,131.52029239900972L82.84161666666667,139.77241561916395L82.90078333333334,143.77556020741338L83.02976666666666,142.37013851206643L83.06526666666666,143.62982603982414L83.80366666666666,145.04024865425487L83.99300000000001,121.00880569195391L84.17641666666667,130.9166847139809L84.28646666666667,137.64537497829662L84.96215,141.39884115276914L85.20236666666666,144.02026836956398L85.54671666666667,145.1719946086095L85.6189,150.47194352483396L85.80468333333333,150.6035346679406L86.00821666666666,150.54476589635976L86.27328333333332,151.10333329459274L86.31233333333333,149.20240271828507L86.49338333333334,149.65665839400708L86.51113333333333,146.47143234832672L86.93831666666667,148.11911991259913L87.21995,149.25889759115574L87.23296666666666,129.79704718160792L87.40455,142.47080824310004L87.45661666666666,145.0014389894605L87.71340000000001,140.74973498237935L88.38553333333333,130.46621183300581L88.52279999999999,136.72363417328097L88.67663333333333,148.14704585190447L88.72988333333333,146.36841845843784L89.10499999999999,1.8722798376157357L89.39373333333333,51.27844338903539L89.40320000000001,85.63227551506527L89.5949,108.15146792672884L89.65761666666667,123.23060937720294L90.3333,133.0025148507965L90.53446666666666,136.4621830696804L90.55103333333334,136.5934671908196L90.65398333333334,137.24476708694644L90.86580000000001,141.75278514734546L90.90485000000001,143.76193125929973L91.47876666666667,144.4298282929202L91.69058333333334,141.67861922045384L92.82185,144.94732954913226L92.95911666666667,148.41039679226418L93.152,148.91121545630605L93.18395,149.82781170453518L93.20406666666666,137.9522158612297L93.79691666666668,145.80309411817825L93.85253333333334,147.78326475383437L93.99571666666667,142.8439455990828L94.24185,144.33185983112236L94.27735,140.08806035873124L94.87966666666667,140.25650341184445L94.88676666666667,142.36700182362165L94.9128,146.61455949976528L95.0193,148.5112866251335L95.22993333333334,144.85217010977203L96.09376666666667,146.86882208961927L96.17778333333332,18.732903502392674L96.36948333333333,63.46428447175968L96.65585,88.38487185759962L97.199,109.64294849753112L97.29366666666667,123.84423888494985L97.64511666666667,125.58911533707567L97.6818,129.9528298539496L98.06875000000001,137.55541326079486L98.24625,141.28442289203204L98.47818333333332,139.40693888870942L98.8249,143.67366959739763L99.01186666666668,146.25313815015605L99.24143333333333,146.91317834823727L100.0177,145.97478729941537L100.21413333333334,144.39872332941403L100.45316666666668,146.6797066976826L100.93005000000001,147.17730507345323L101.29570000000001,144.94227967969283L101.3454,138.39807076096545L101.82583333333332,137.33582191524172L102.12048333333334,138.9045773336725L102.69913333333332,142.66031666537407L102.92278333333334,145.59685735457936L102.97603333333333,147.40243034219253L103.47184999999999,130.44924928039092L104.44573333333334,134.0345848767513L104.46703333333333,136.00132603064492L104.58181666666667,140.10686051725312L104.64216666666667,123.27498400029796L104.83268333333334,132.98460004552595L105.5202,139.1014504226917L105.53676666666667,3.685472299074547L105.85626666666667,55.019640958947676L106.16866666666667,53.8949776140408L106.26215,87.00201637732074L106.4006,108.9569177422326L107.04788333333333,119.9059525997229L107.18751666666667,127.4697676940055L107.27745,139.51599651986652L107.58393333333333,151.9644594558563L107.67978333333333,152.1005299815948L108.19098333333334,121.64779370253851L108.34008333333333,131.33138386420853L108.37085,137.9435862797144L108.50811666666668,140.97770876264445L108.75661666666666,137.72188974400436L108.81696666666666,141.48982585070098L108.84299999999999,144.5436383884517L108.88204999999999,128.2211950929721L108.91163333333334,120.62146781989976L109.2193,120.30666304481L109.22166666666666,-229.98415883050626L109.34591666666667,-23.328093168105426L109.52815000000001,35.33746505404062L109.72340000000001,73.94594760035534L109.90090000000001,100.44966899877953L110.06183333333334,113.91803791416669L110.26299999999999,126.79830125322276L110.99075,135.01025493639182L111.04636666666667,139.39074883922552L111.11736666666667,142.70689677429843L111.14458333333333,144.04224875023652L111.45580000000001,142.87569491843692L112.3007,132.49204169784988L112.6202,129.20948134054248L112.97283333333333,136.69761982540717L112.99413333333332,145.1132681343805L113.0888,143.59265873277744L113.51598333333334,152.13559418790948L113.85915,153.26829528240242L114.1112,134.45762289489565L114.17155,123.24732273912811L114.34195,132.8715165254846L114.39756666666666,138.38298296694063L114.53601666666667,142.6634956226784L114.67328333333334,143.19214237256128L114.68156666666667,139.60923778842965L115.01881666666667,143.4515390146518L115.41168333333334,145.5169867179677L115.85069999999999,147.08392608699643L116.1276,147.6374977290105L116.21398333333333,148.41033644110328L116.88493333333334,147.5722619738356L116.9654,-65.87593687980896L117.05651666666667,7.854835575092409L117.07308333333333,56.62489179918323L117.11923333333333,69.96897410184016L117.1571,97.3272341784856L117.64581666666666,112.65415690649462L117.85763333333333,110.00584916061898L118.30493333333332,108.02987438913574L118.3712,119.14587192566754L118.37593333333334,127.5717547787113L118.45285,138.12035235819815L118.52976666666666,142.3277561820882L118.79601666666666,-580.2114663463703L119.0599,-14.844108499383651L119.51311666666666,41.69211848776874L119.5356,74.52938141954822L119.6563,100.73005280450525L119.9687,115.03792764653281L120.10241666666667,111.38728623926917L120.14383333333333,124.21772606928022L121.57211666666667,131.75238719641592L121.61234999999999,137.94925690023607L121.70583333333333,142.60735236712185L122.20046666666667,129.67284733391722L122.78621666666666,135.44788685602313L123.30096666666667,137.81777591360486L123.55183333333333,90.91330597704408L123.77903333333333,106.4160018269286L123.87961666666666,123.84037952224105L124.03581666666666,133.2684116790913L124.35650000000001,139.3287696257571L124.45116666666667,139.04603131054228L124.85231666666667,143.11872990491713L124.889,142.14167078020998L124.92805,145.288636593341L125.06295,142.11920436672293L125.1375,145.37893422677325L125.45108333333333,145.89603258576L126.35751666666667,148.32310191037504L126.45809999999999,137.7818910831769L126.62731666666666,142.14670963873914L127.08290000000001,141.8929154968998L127.15035,141.89095714096433L127.40595,141.0521383390362L127.59883333333333,133.6606008775968L127.9633,139.32174008665874L128.59875,143.01034668466122L128.7656,144.2882089221317L129.29455000000002,24.244929598310648L129.39513333333335,66.37885416434074L129.41406666666666,87.78226657920321L129.8661,106.98470244573011L130.1359,119.47629152034153L130.20926666666668,125.7105026359789L130.4483,134.47117201747972L130.70035000000001,124.45492931469943L131.46241666666666,130.8133486919215L131.70618333333334,135.38306469182544L132.08958333333334,140.1350272851926L132.11325,135.79469497846375L132.1168,131.15109312604193L132.21738333333334,118.23118593636707L132.22093333333333,23.919602147890316L132.67651666666666,0.21708647690326188L133.39716666666666,-315.8662644640273L133.86695,-52.225330964192494L133.98173333333332,16.873027939427857L134.2752,49.9945645391075L134.78403333333333,84.62136221505946L135.53545,103.17292332883278L135.82891666666666,117.93820770264874L135.95553333333334,128.82054549148705L136.15196666666665,135.8880966330604L136.30225000000002,130.2047378612653L136.46436666666665,136.9751193028632L136.53063333333333,134.88604877884865L136.5685,100.92014542410777L136.65251666666666,122.41558111230225L137.10218333333333,131.71684138574906L137.2075,137.35158369695296L137.23471666666666,137.33851566869416L137.62403333333333,140.06203087396253L137.90093333333334,143.8547802233028L137.97785,145.214242792237L138.63578333333334,140.42036795820792L138.71861666666666,137.88705978290199L138.94344999999998,142.28168955645936L139.15645,109.1310402770172L139.39311666666666,119.39047867884673L139.48778333333334,121.74933519482133L139.61795,130.5372171742578L139.88538333333335,137.31425889449477L140.11258333333333,142.14935622980465L140.19541666666666,145.37711364261435L140.2534,147.52793560300543L140.88293333333334,144.8712554964269L141.41661666666667,146.45762196110746L141.54205,145.08380523105893L141.54441666666665,146.13546149889004L141.86391666666668,124.31700541307853L142.67095,124.40350257611574L142.69816666666668,132.7801756587399L142.88986666666668,137.94978974637093L143.01648333333333,145.24006317624077L143.0863,146.88473394794414L143.18096666666668,-227.57909867654507L143.36793333333333,-16.417589295082024L143.46141666666665,24.037234130848304L143.58093333333335,67.37047213457832L143.69453333333334,94.85391997784345L143.775,128.57590743002956L144.27673333333334,135.97917326850722L144.3004,140.84196173787996L144.73113333333336,139.19938855412587L144.97016666666667,122.27570147074204L145.00803333333334,-84.96367200201877L145.07193333333333,-4.705607939872976L145.17843333333334,48.332121450561374L145.40918333333335,63.77572462688235L145.44586666666666,91.19552372440583L145.51095,111.78446911317587L145.55236666666667,109.12687348942852L145.5642,100.2406626662875L145.79495000000003,117.52656726540722L146.16296666666668,122.73936015168454L146.6718,131.60649349102556L147.06111666666666,132.15456882283576L147.12975,123.95016433986108L147.56758333333332,113.97430762570161L147.70721666666665,126.6111894648349L147.77821666666665,134.49959376797744L147.79478333333333,139.4306941479544L147.81253333333333,142.74448871619592L147.82791666666665,145.22714141337323L148.02790000000002,146.71711776544157L148.43141666666668,118.32580641588923L148.63968333333332,127.71561973047807L148.83375,148.47229794450715L148.85031666666669,148.96711457471207L149.34968333333333,133.71925892675876L149.41713333333334,132.88967845600519L149.56268333333335,139.15273810306502L149.77095,142.731581807069L149.88928333333334,145.5598141728428L150.4064,125.59635611768383L151.18858333333333,134.2297695417364L151.27496666666667,140.2393583926263L151.99916666666667,144.02174030827996L152.16128333333333,136.0122455479195L152.93755,133.24438265490085L152.93873333333332,104.3175396789501L153.00736666666666,111.88140196795379L153.24403333333333,-63.053354520965996L153.62388333333334,-4.027808688465512L153.9090666666667,45.86470323431874L154.06053333333332,81.32076450663044L154.09958333333333,98.93111736814865L154.32915,113.93484089685617L154.52795,121.51223166408809L154.59303333333332,130.8340873299067L154.70663333333334,137.98029237537122L155.24741666666668,140.93263585016024L155.29593333333332,144.32757113847617L155.40006666666667,139.28708272801623L155.66276666666667,140.56794686702852L155.84381666666667,141.01629951973246L156.1006,141.64172144312693L156.75735,134.91244715414604L156.98691666666667,140.2572493999099L157.03306666666668,144.08636411238672L157.26855,145.886055254433L157.76555,141.40427958581273L158.0815,143.5965537988487L158.26136666666665,145.88707904330528L158.54418333333334,139.41427320923088L158.91338333333334,136.84247163575014L159.11100000000002,138.1187981778695L159.53818333333334,141.428614166466L159.86478333333332,124.04077039042323L159.9275,133.12699353264478L160.34994999999998,136.81562284134424L160.36415,138.81358731224708L160.65643333333335,143.12578374532393L160.79015,146.17921964193263L160.98066666666665,72.57112169245275L161.08716666666666,98.67341709513009L161.47056666666668,116.65812839534593L161.7309,128.16281612172185L161.77586666666667,74.47705774562642L161.86106666666666,95.8390451543157L161.90721666666667,116.19623525882798L162.13678333333334,126.79936316266807L162.15335000000002,135.06819207432093L162.17346666666666,133.83921888692814L162.30126666666666,139.6109545974408L162.86926666666668,141.5757789095236L163.0941,144.74436215551577L163.23136666666667,145.78069071560034L163.4917,130.09768414168252L163.52601666666666,137.07387107124197L164.07153333333332,142.14957104749257L164.37565,145.22879092439044L164.40996666666666,138.11705497655615L164.48215000000002,140.3261134757321L164.84188333333333,145.55311871749717L165.04068333333333,146.27453409825537L165.643,149.39392051356157L167.07838333333333,149.82398795877597L167.07956666666666,150.144765166795L167.24405000000002,145.42588810821425L167.27955,140.10306705865722L167.32806666666664,141.43859346757415L167.83926666666665,141.81706942156865L167.88896666666668,145.09006930680545L168.2771,147.04270307821403L168.77055000000001,148.17605277794877L168.78475,142.8180139850861L168.909,107.36366225049245L169.29831666666666,122.02069218610497L169.9385,131.81937259180566L169.96689999999998,129.16845238500218L170.00594999999998,136.71294181790972L170.52306666666667,135.60081444808594L170.63430000000002,137.4720788004921L171.03071666666665,111.33340008482362L171.30051666666665,124.78514220010825L171.36915000000002,133.60073038948454L171.6354,139.09012510608278L171.92768333333333,139.9590183607816L173.29325,143.80602605940945L173.58079999999998,142.47835159044246L173.87426666666664,145.24641527249685L173.93698333333333,146.12411272232865L174.06596666666667,144.1856055870478L174.22335,141.04790832276132L174.44108333333335,144.50865810150856L174.59255,146.63845114929902L174.70496666666668,147.79228725650938L174.8801,148.7952454149119L174.91796666666664,-12.744650437003202L174.99014999999997,43.00296071688345L175.01145,79.37081231426265L175.26705,102.0025635492233L175.49425000000002,94.28400790718617L175.61731666666665,113.65175179304705L176.14271666666667,127.95416994656631L176.49061666666668,135.87685003940072L176.69414999999998,131.51750195468435L176.79828333333333,132.4134398407819L176.81248333333335,138.38204790781253L176.82195000000002,146.49425195059897L176.91188333333332,147.6716789058432L176.96276666666668,124.01543435945857L177.41243333333333,115.90948516327106L177.5852,120.73591133366679L178.33306666666667,128.97037571409945L178.59695,135.91439815197242L179.26553333333334,141.12658809063853L179.27855,144.03028171462483L179.48918333333333,145.8664959551058L179.55308333333332,146.52823539912654L179.7211166666667,147.58031369117128L180.66778333333335,148.1263825876182L180.95178333333334,148.82508853894493L181.29495000000003,149.06056884172096L181.42748333333333,149.40100945440147L181.67598333333333,147.20593867628537L181.76118333333335,142.64892542400656L182.06885,121.75175871772251L182.24280000000002,130.99386857312464L182.67945,123.27068228805395L182.69483333333335,132.9085665036694L182.79541666666668,135.78601178227842L183.2723,140.76981480443658L183.39773333333335,132.9013894479072L184.1456,138.4195236342557L184.44971666666666,142.36414864721928L184.8485,141.879294840681L184.9325166666667,144.96034130304355L185.02481666666668,133.1165142741711L185.39756666666668,133.06204796492383L185.40348333333333,138.8178271159971L185.42123333333333,143.11380356882603L185.81173333333334,143.5539950222427L185.84959999999998,136.2251091495415L186.08271666666667,139.12885410703512L186.35488333333333,102.07446061917982L186.4531,118.50794858011693L186.47558333333333,125.37161191489255L186.59746666666666,127.65551427077554L186.92761666666667,133.5978843740472L187.49325000000002,122.38503612299678L187.52638333333334,129.4742483119397L187.62815,132.7730090210758L188.079,140.51791521338396L188.45648333333335,123.3582655631592L188.62806666666668,132.81060134194723L188.6825,119.73153084493767L189.30493333333334,130.62480522251835L189.35226666666665,137.0327907325214L189.38776666666666,141.33778200117325L189.39960000000002,136.34106696407312L189.48953333333333,140.3744711866161L189.5297666666667,-138.86079058439054L189.63271666666665,-49.4126321730503L189.66940000000002,15.572345785220506L190.2220166666667,61.72080947739498L190.50483333333332,91.89746845185854L190.78055,106.07322751337695L191.52723333333333,120.71324844279795L191.56983333333335,98.03603801319905L191.68461666666667,115.09165962769501L191.93311666666665,124.75484077649553L191.9343,131.65424137037374L192.28811666666667,135.7750530637627L192.58986666666667,139.97020004638097L192.75671666666668,140.69823497214495L193.1046166666667,130.24290879294279L193.28921666666665,136.88270278835512L193.45843333333332,139.85939280330663L193.5602,136.47116813018863L193.79213333333334,142.4770973219642L193.82171666666667,139.67561847282394L193.97081666666668,142.35069571598058L194.05365,35.815372953849504L194.33528333333334,75.13062133574387L194.4051,99.38526631850519L194.54591666666667,106.75483146567905L194.69265000000001,121.97048895179975L195.9884,131.84845937822828L196.09253333333334,136.8368567334466L196.13868333333332,108.14366369437123L196.1872,95.89780491014062L196.80371666666667,107.30918583642753L196.90666666666667,121.93637928671845L197.25811666666667,98.05199206323752L198.05095,110.03700749250416L198.19886666666665,-470.23622871967234L199.30291666666668,-44.06567367750927L199.44728333333333,18.135427981737138L199.51591666666667,58.561356770476806L199.59756666666667,89.4041705365568L199.6023,110.02789328646693L199.72181666666668,123.1971806770739L199.82358333333335,109.29257555436718L200.50755,109.07876081940405L200.64126666666667,122.19053275735202L200.79273333333333,131.95686783382115L201.03295,119.24781718025369L201.0933,128.45115969675538L201.17495,135.43439071263816L201.17968333333334,140.31091926076311L201.80329999999998,123.10012246928291L201.82578333333333,113.43254529609416L201.92045,126.63368412234172L202.06481666666667,129.82374394068458L202.18906666666666,133.98613930523047L202.40088333333333,139.63408739891716L202.41745,142.66771748407263L202.46005,144.61517778330662L202.50856666666667,141.4864241543505L202.6198,146.808691979015L202.67778333333334,148.45899249717263L202.79256666666666,146.0046628779649L202.89078333333333,146.09804864429483L202.99373333333332,147.84513777760074L203.01503333333335,148.163132478198L203.17478333333332,104.73518447777073L204.1534,119.94344374266555L204.44095,130.28150331833544L205.37578333333332,136.92898622411582L205.45506666666668,141.52308498766791L205.52725,86.14963814760117L205.95325,104.46693368623554L206.5177,119.13797519164274L206.6869166666667,130.11198892069297L207.30816666666666,133.264528065935L207.40046666666666,138.1564936326331L207.77558333333334,113.91882172708148L207.93651666666668,125.2413427698443L207.95426666666665,131.47807915629906L208.6335,136.59641657381323L208.73171666666667,126.68022887795296L209.03938333333335,134.9764411640455L209.24528333333333,140.49834334663518L209.33166666666665,146.61707096998364L209.50443333333334,130.78556070593802L209.52691666666666,136.97713587354943L209.60501666666664,141.00997700858898L209.79553333333334,130.06569014155838L209.90321666666665,137.24982367114836L209.9600166666667,67.54129958681202L210.1884,-95.4595651475907L210.40849999999998,-11.877442886836377L210.5481333333333,42.94648174916978L210.6286,69.98340532444173L210.68303333333333,96.1510825124122L211.46048333333334,114.8651500101079L211.64508333333336,120.02548576333658L211.79891666666668,127.91883184052087L211.98706666666666,135.6247883838578L212.30065,103.98606276952081L212.43554999999998,120.16055881330662L212.73966666666666,128.18023712225434L213.24021666666667,135.6726680629829L213.29938333333334,130.7591026726537L213.5029166666667,137.77792392070324L213.5467,142.26831761291476L213.83898333333335,111.24780781144719L214.13008333333332,124.05924558918485L214.37266666666667,128.23178865684972L214.4058,135.44776288091205L214.61524999999997,-84.03859409917527L215.30868333333333,-5.908880538782341L215.3359,44.255146806817834L215.53588333333332,85.01363025013363L215.53706666666668,77.63095296268712L215.61161666666666,102.85527928467893L215.70865,118.35163006772444L215.86129999999997,128.81020424369558L215.92874999999998,132.37949297917535L216.05773333333335,136.1861263244607L216.14175,129.50934048784873L216.3015,136.73120838598004L216.70265,138.2703443632007L216.90144999999998,103.5096854458894L217.68245,119.75788147124197L217.8209,130.83060265670386L218.47055,137.80413720227824L218.70366666666666,114.42948214341496L218.751,91.13053614428688L218.89655,110.86123752635639L219.46573333333333,124.34816638918673L219.6243,131.92990947633814L219.86451666666667,101.45573828109477L220.09763333333333,95.18734505641501L220.45381666666665,112.01361933579098L220.48103333333336,116.07364919464194L220.7082333333333,127.12160141684252L221.13068333333334,133.62340543126703L221.2218,139.06606988475446L221.46083333333334,143.04280046807108L221.56141666666667,145.8644034826549L221.69276666666667,120.49465854884215L221.75311666666664,112.33034919142034L222.04658333333333,125.68043976374224L222.51163333333335,133.5172944122363L222.68085000000002,146.36959092884683L222.92816666666667,147.956294731772L223.1175,153.42376327854103L223.31985,151.58695350479326L223.49261666666666,151.38523216004887L223.50563333333332,150.96677380437004L223.65828333333332,150.3605649473918L223.68195,146.66138322847593L224.03340000000003,148.12205693773035L224.30675000000002,147.1253455760797L224.6156,145.28596579182954L224.6842333333333,144.31821115855305L224.79073333333332,147.55349927288145L225.05698333333333,147.8821700302552L225.42026666666666,147.3883435872707L226.26871666666668,145.30792448959906L226.75151666666667,141.72505089123302L226.79766666666666,144.08200002305443L226.8095,145.80027908351937L227.47453333333334,146.04583868171937L227.69344999999998,137.6619008980934L228.35138333333333,137.22820231115077L228.49456666666669,141.97867487887586L228.59041666666667,140.89884492844715L228.60816666666668,122.92531093528942L228.7336,132.63293114699457L228.94068333333334,124.51417510965979L229.04245,132.05279942750784L229.2661,113.0963319917056L230.05775,125.98946978109674L230.33346666666668,134.66685103431482L230.65888333333334,139.3537687455114L230.88135,142.89538726400156L230.95235,144.26605921291394L231.07423333333335,123.3038111155661L231.19848333333334,131.65663780885788L231.4032,138.41540890653454L232.03036666666668,144.1095372791293L232.25283333333334,146.37188739443516L232.2694,148.14094439556186L232.28715000000003,145.19529376452044L232.36998333333332,95.24268256833857L232.6244,111.36997193372456L233.21843333333334,125.27437879828622L233.92843333333334,124.45326020585442L234.0373,108.27290380806197L234.1864,113.21073392139215L234.52838333333332,124.58648016424587L235.08336666666668,131.9602279031374L235.09046666666666,138.4726066265664L235.13070000000002,77.22515099705154L235.28453333333334,90.50920946363797L235.68213333333333,108.93773349670364L235.71645,121.93911742263012L236.02648333333335,125.93098300356175L236.08446666666669,133.90764216848396L236.28918333333334,120.63538730354396L236.62761666666668,124.74392306517441L237.0406,136.76163364203808L237.07610000000003,141.35880660941828L237.38258333333334,134.88733854997656L237.9091666666667,141.08279153457536L237.9139,143.88646319111302L237.97898333333333,146.47370436458365L238.16713333333334,132.92941898971628L238.20263333333335,138.8065298979497L238.3257,103.81654325506196L238.39906666666667,120.07401344997686L238.60378333333333,119.81721935139137L239.13746666666665,128.71626046950348L239.62855,135.97368951266697L240.02259999999998,140.39850199526364L240.0865,140.87227686750444L240.15158333333335,140.6621030073576L240.1575,132.14729960917862L240.48291666666668,138.3710946308844L240.53853333333333,134.56329120395864L240.54090000000002,133.26049156736204L240.79295,125.75505851139485L240.92548333333335,129.29256516176454L241.17635,135.75650197955585L241.30769999999998,95.36421501256156L241.31953333333334,79.09632118212487L241.5775,103.35817799236156L242.28276666666667,104.32289134174286L242.2946,114.9036606974812L242.37743333333333,127.2206521095533L242.65315,135.51338371840507L243.31226666666666,136.70142577179575L243.77376666666666,128.24072264133179L244.04238333333333,46.223723543402826L244.05776666666668,81.99902594086721L244.30626666666666,104.84920222480673L244.4033,120.63532099272481L244.58198333333334,132.21936541729457L244.61511666666667,132.03860128852835L244.86243333333334,138.13410385767048L244.99141666666668,141.24438901395422L245.05768333333333,143.78706745304066L245.11685,145.46772153148052L245.12986666666666,147.29325261970612L245.66118333333333,153.18136427717886L245.74875,144.6001426016983L246.06706666666668,137.56028298577976L246.1215,142.0713477400206L246.21734999999998,142.124283761705L246.57945,145.5366904912142L247.59120000000001,145.8524604006636L247.61605,124.50310539367382L247.62433333333334,131.83739407028634L247.65155,134.42479803747557L247.69888333333333,131.69027561044436L248.00181666666668,137.30767758108652L248.17458333333335,141.68670007534502L248.41835,152.51406814140688L248.4219,151.16693340860613L248.76388333333333,150.12871488817729L248.90115,146.9083176275995L249.02421666666666,118.92288017529233L250.37676666666667,105.74891098600325L251.12226666666666,96.07047646625986L252.405,113.7385882366197L252.44523333333333,125.63124033627275L252.64995000000002,132.16134384061073L252.91738333333333,138.5884992465501L252.95998333333333,143.21724001377152L253.67708333333331,146.03902484720354L253.78595,147.48589194060617L253.96936666666667,147.64259661317521L254.36696666666666,147.33461089412745L254.75155,-61.97706582171671L254.7693,-28.833107331460496L254.89118333333334,31.874888424889832L255.0249,70.01684215469767L255.15033333333332,97.38969313296913L255.4935,113.17975803885113L256.1881166666667,119.65718720673155L256.46028333333334,132.04581195086536L256.51945,138.6973974695238L256.79043333333334,140.30487275605822L256.93598333333335,142.99497068817087L257.0495833333334,138.5548279500765L257.6436166666667,142.87473975001973L257.8672666666667,145.68704281369585L258.2057,147.008753945165L258.45301666666666,147.85455480915692L258.9748666666667,148.66365404162735L258.9796,148.23215845972408L259.4576666666667,149.36844181864595L259.4908,143.39706986089973L259.93455,138.0214980260315L259.93809999999996,139.13078492940772L260.08365,137.57705761557995L260.22565000000003,138.36447375251527L260.3333333333333,142.41474496299608" style="fill: none;" fill="none"></path></g></g></g></g><g opacity="0.2"><g><g><g><path stroke="rgb(255, 112, 67)" stroke-width="2px" d="M23.71755,151.381430820695L23.865466666666666,151.47129355424218L23.938833333333335,171.2434693489756L24.22875,140.57692727872305L24.302116666666667,149.71045030653477L24.353,152.66377969884448L24.361283333333333,152.16948153743786L24.433466666666668,149.7761923926217L24.62398333333333,165.23782554694586L24.86775,161.08191410984313L25.24523333333333,142.48360414164407L25.306766666666665,158.8998213836125L25.367116666666668,149.45262735869204L25.71975,155.62765666416715L25.723300000000002,150.93712591725802L25.888966666666665,88.28964461599078L26.3978,-68.65399769374304L26.494833333333332,152.91120004228182L26.608433333333334,145.46472916858536L26.609616666666668,146.60647140230452L26.8451,153.9071149719613L27.490016666666666,145.0122846875872L27.508950000000002,160.69695962752616L27.578766666666667,129.51958473239625L27.94915,158.39405106220926L27.951516666666667,141.58590275900704L28.7763,159.9404017158917L28.87451666666667,-169.62771688188826L28.983383333333332,150.61160041604722L29.0035,159.9778203836509L29.5502,109.15102325166976L29.74308333333333,153.3571873445596L29.992766666666665,102.83265117236546L30.440066666666667,153.24292165626372L30.6578,111.34402017933981L30.756016666666664,146.4074731171131L31.004516666666664,151.80855148072754L31.595,143.7556489450591L31.609199999999998,-161.63231931413924L31.778416666666665,158.67425286769867L31.91095,151.9313829863178L32.1346,154.46049886196852L32.49551666666667,138.14509442874365L32.499066666666664,166.2950462784086L32.89548333333333,154.36401646052087L32.9369,159.7866034933499L33.21261666666667,159.0576647860663L33.347516666666664,91.31483030319214L33.396033333333335,124.77610036305019L33.723816666666664,155.5562887787819L33.73565,154.9790985754558L34.17348333333334,152.81105000099964L34.24093333333333,173.41141298839025L34.62551666666667,140.86858791538648L34.871649999999995,163.1396047430379L34.973416666666665,160.73160891447748L35.143816666666666,156.25203824681896L35.973333333333336,-249.9622891289847L36.068,156.1816891921418L36.118883333333336,149.07629864982195L36.5721,151.3948576077819L36.644283333333334,158.88352913515908L36.70818333333334,157.13761087187697L37.314049999999995,158.0932307456221L37.354283333333335,167.6810614636966L37.83116666666667,119.71586966514587L37.83708333333334,157.71263116172383L38.06191666666667,64.51612227303642L38.211016666666666,145.12453541585379L38.905633333333334,-39.64312485286169L39.09141666666667,167.29601579904556L39.12336666666667,38.0228705406189L39.78485,140.59834080934525L40.58241666666667,147.3811516144446L41.02498333333333,135.36241305725915L41.156333333333336,175.27793495995658L41.26756666666667,138.9844662461962L41.97756666666667,148.04103477512086L42.32191666666667,90.53625072751726L42.73845,61.12312061446053L43.6153,155.14714384930474L43.86261666666667,152.4678466660636L43.8993,105.54786816665104L44.15963333333333,167.48159822395868L44.18566666666666,122.2111428124564L44.42706666666667,103.09767978531973L44.44363333333333,151.82426317182504L45.501533333333334,121.57780388423375L46.77953333333333,155.60886443725656L46.908516666666664,-0.3464386122567191L47.0162,143.94954478740692L47.328599999999994,136.64545701231276L47.39723333333333,144.07300114631653L47.40788333333333,163.5763831947531L47.62325,150.86957002803683L47.71673333333334,155.37333255580495L47.855183333333336,147.5188343014036L47.97233333333333,136.94189906971795L48.018483333333336,131.87807081426894L48.25633333333333,151.4522703807535L48.259883333333335,106.6955930164882L48.346266666666665,144.6888797879219L48.612516666666664,99.61175353186472L48.68825,136.49078313793456L48.79238333333333,150.2281673034387L48.89533333333333,150.7501626169043L49.52131666666667,153.0749684125185L49.991099999999996,166.8108805673463L50.091683333333336,166.67973324230738L50.12481666666666,44.54807731083463L51.04781666666666,156.1206264176539L51.05965,152.9008668607899L51.222950000000004,129.519394831998L51.3117,146.50787692410606L51.3898,-428.802526473999L51.523516666666666,152.67501801571674L51.67735,140.75264392580306L51.71403333333334,-102.25479330335344L52.2418,155.05685299209188L52.40155,164.76854850564683L52.40391666666667,97.66286301612854L52.448883333333335,146.5492413001401L52.8027,88.26446322032383L52.928133333333335,152.03100157023542L53.17308333333333,151.3291287092226L53.55056666666667,82.37748456001282L53.71386666666666,153.40228303734744L54.21205,28.93885537556241L54.25346666666667,102.59792825153896L54.34103333333333,147.42615235703332L54.79306666666667,132.8099663257599L55.377633333333335,-0.9815861157008499L55.378816666666665,153.26584807889802L55.80008333333333,151.2853990559067L56.21543333333333,151.45284429724728L56.3314,209.2687257017408L56.37281666666667,126.24367475509644L56.594100000000005,152.29603004189474L56.70178333333333,151.07537745764213L57.31948333333334,151.46572429646872L57.443733333333334,151.40306262844908L57.94901666666667,142.01148688367434L57.97978333333333,150.71705542291915L58.05788333333333,157.99097314902713L58.222366666666666,148.8759787859661L58.29573333333333,149.5665706119367L58.541866666666664,73.13426051821027L58.70753333333333,156.41015067483698L58.9655,157.2708459709372L59.173766666666666,151.65174171551396L59.20453333333333,141.7074164066996L59.37375,151.66082887581018L59.5548,152.1478506481009L59.724016666666664,155.27010661789348L59.892050000000005,148.08844619776522L60.00328333333333,165.3188060096332L60.019850000000005,152.86433514846223L60.83161666666667,123.24592816829681L60.875400000000006,115.44797577176774L61.392516666666666,117.99322588103158L61.458783333333336,148.6808026230761L61.779466666666664,167.7414723975318L62.04926666666667,151.41188934684865L62.17588333333334,107.19264374460494L62.31196666666667,150.8846055051046L62.43621666666667,1.25071416582378L62.59241666666667,159.54251064573015L62.60188333333333,112.63297063963755L62.75808333333333,184.71817915780204L62.93203333333333,147.57979722746782L63.16159999999999,153.01579239645176L63.19473333333333,139.8387768949781L63.58996666666666,118.42793200697218L63.60416666666667,152.07758382707834L63.646766666666664,156.79571065306664L63.71066666666667,151.81075105436943L63.75445,152.27255143863815L63.79823333333333,-4.048531804765986L63.94378333333333,146.2322101209845L64.32955,148.38060230868203L64.52243333333332,138.60018621172225L64.61,113.96177305494035L65.47856666666667,182.70513245037623L65.50341666666667,154.91545481341225L65.65606666666666,152.28258158958383L65.99686666666666,150.06914371145623L66.21223333333333,150.435189728226L66.31163333333333,108.32037780966078L67.01216666666666,139.85473455701555L67.04766666666667,150.17252281308174L67.17546666666667,150.16419112150157L67.27368333333334,150.70305836945772L67.69021666666667,-50.227787222181036L68.02983333333334,154.46799823216028L68.35525,77.07368097986493L68.48778333333334,146.35326861057962L69.17293333333333,85.23059034347534L69.48651666666667,151.57458023720287L69.62851666666667,156.6108203849622L69.79536666666667,137.7321605341775L70.16811666666666,151.24379692758833L70.64855,110.40156258855546L70.8935,-514.5560000283377L71.02485,97.99212619236538L71.35145,151.73853121937387L71.59285,144.74881672433443L71.79046666666667,-50.61367688860213L71.85318333333332,104.4251890693392L71.93956666666668,152.23918341419525L72.23185,121.17751494475773L72.5052,151.25088739022613L72.82233333333333,146.8719468840531L73.52641666666666,155.82419491027082L73.90035,148.0017317980528L73.92165,149.2647047127996L74.17015,147.3342752286366L75.16415,124.83541258743831L75.30733333333333,153.79908839719636L75.39253333333333,131.8605035202844L75.42448333333333,45.80976349966866L75.42921666666666,133.65274127892084L75.50376666666666,109.99403934819357L75.72623333333334,140.48120542083467L75.82090000000001,150.53149381546038L75.97118333333333,112.96625789574215L75.97946666666667,134.08580612284797L76.03153333333333,151.29293337304676L76.09425,150.13945263837064L76.70011666666666,145.13683222021376L76.87525000000001,123.00802516937256L77.35805,142.25584272827422L77.51780000000001,151.5207258477541L77.69648333333333,127.72186548369271L78.47748333333334,149.11002820091588L78.49641666666668,141.52120248760497L78.5899,151.53460742792646L79.6407,145.52228632143564L80.03948333333334,146.04319140315056L80.11876666666667,149.93551505889212L80.16491666666667,-26.263128621237627L80.32821666666668,137.04402479103632L80.40513333333334,152.38748121314816L80.43235,90.86142049516951L80.55778333333333,151.6492041349411L80.68203333333334,120.54840205396926L80.73646666666667,145.41031328482288L81.08555,148.31986922238553L81.97305,149.54341199461902L82.06653333333333,82.88845528875079L82.21563333333333,151.35122935713403L82.84161666666667,155.79124304652214L82.90078333333334,151.54637029048587L83.02976666666666,139.6419669858047L83.06526666666666,146.0751018290009L83.80366666666666,147.7781278469733L83.99300000000001,74.35953405925206L84.17641666666667,150.14962634497456L84.28646666666667,150.70695019726242L84.96215,148.68498137380396L85.20236666666666,149.10892120216573L85.54671666666667,147.40769848440374L85.6189,160.76007965632846L85.80468333333333,150.85897629867708L86.00821666666666,150.43068533976162L86.27328333333332,152.18761118528033L86.31233333333333,145.51236101133483L86.49338333333334,150.53844882334982L86.51113333333333,140.28834649494715L86.93831666666667,151.3175722432456L87.21995,151.47140720247157L87.23296666666666,92.0181610924857L87.40455,167.07281500952584L87.45661666666666,149.91383985004254L87.71340000000001,132.49642720392774L88.38553333333333,110.50407866069249L88.52279999999999,148.87039518675633L88.67663333333333,170.32190381629127L88.72988333333333,142.91578881229674L89.10499999999999,-278.6202245439802L89.39373333333333,147.18452557708537L89.40320000000001,152.31912611265267L89.5949,151.8651943728993L89.65761666666667,152.50188395753503L90.3333,151.97150782894875L90.53446666666666,143.17800961221968L90.55103333333334,136.84831283773696L90.65398333333334,138.5090551206044L90.86580000000001,150.50364373517888L90.90485000000001,147.66203841779912L91.47876666666667,145.72633429936L91.69058333333334,136.33803690331322L92.82185,151.29247312833155L92.95911666666667,155.13282144069672L93.152,149.8833928629756L93.18395,151.60708677462702L93.20406666666666,114.8995886359896L93.79691666666668,161.04303426401955L93.85253333333334,151.62712539951983L93.99571666666667,133.25585547515325L94.24185,147.22016392861093L94.27735,131.85009667703082L94.87966666666667,140.58348110318184L94.88676666666667,146.4638516817774L94.9128,154.85981851816177L95.0193,152.1931686920247L95.22993333333334,137.74917922701155L96.09376666666667,150.78349946226393L96.17778333333332,-230.0015266963414L96.36948333333333,150.29578870641333L96.65585,136.7601297242301L97.199,150.90862668092763L97.29366666666667,151.41144963699793L97.64511666666667,128.97622845002581L97.6818,138.42356979846954L98.06875000000001,152.31336928584747L98.24625,148.52308864678656L98.47818333333332,135.7624111175537L98.8249,151.95614685543947L99.01186666666668,151.26034181139298L99.24143333333333,148.19443285039492L100.0177,144.15320467523165L100.21413333333334,141.33930503470557L100.45316666666668,151.1074979419687L100.93005000000001,148.1432313323021L101.29570000000001,140.60370097415787L101.3454,125.6946063893182L101.82583333333332,135.2738094500133L102.12048333333334,141.94980844003814L102.69913333333332,149.9508694857359L102.92278333333334,151.2972010453897L102.97603333333333,150.9073661416769L103.47184999999999,97.54013310159957L104.44573333333334,140.9943539755685L104.46703333333333,139.81911768232072L104.58181666666667,148.07642746184553L104.64216666666667,90.601341349738L104.83268333333334,151.83267825096846L105.5202,150.9753364489547L105.53676666666667,-259.18083817618236L105.85626666666667,154.66832129870141L106.16866666666667,51.71180759157453L106.26215,151.2686210354524L106.4006,151.57525568588503L107.04788333333333,141.1599614407335L107.18751666666667,142.152467582907L107.27745,162.8998524759497L107.58393333333333,176.1291228021894L107.67978333333333,152.36466688449894L108.19098333333334,62.533658572605674L108.34008333333333,150.12894123686212L108.37085,150.7790380274611L108.50811666666668,146.867475935391L108.75661666666666,131.40177047252655L108.81696666666666,148.8040547637003L108.84299999999999,150.4716274323208L108.88204999999999,96.53645222527639L108.91163333333334,105.86905605452402L109.2193,119.6955714225769L109.22166666666666,-909.9604601178851L109.34236666666666,122.56559341294425L109.34591666666667,145.14496251940727L109.52815000000001,149.2176663087947L109.72340000000001,148.891825484378L109.90090000000001,151.8980693604265L110.06183333333334,140.06251874991827L110.26299999999999,151.80116538197868L110.99075,150.95110620371997L111.04636666666667,147.89406053296156L111.11736666666667,149.14412511885166L111.14458333333333,146.6344025858811L111.45580000000001,140.611208068473L112.3007,112.33553838729858L112.6202,122.83745241165161L112.97283333333333,151.23341806073273L112.99413333333332,161.4495266165052L113.0888,140.64088754143035L113.51598333333334,168.71893948316574L113.85915,155.4670679952417L114.1112,97.94278826032365L114.17155,101.48615184852055L114.34195,151.5537750519413L114.39756666666666,149.08171194153172L114.53601666666667,150.9727260720517L114.67328333333334,144.2183390046869L114.68156666666667,132.65418771335055L115.01881666666667,150.9101237479065L115.41168333333334,149.52638520087515L115.85069999999999,150.12563192099333L116.1276,148.71207797527313L116.21398333333333,149.91055276457752L116.88493333333334,145.94541153737478L116.9654,-480.21655818394254L117.05651666666667,150.9792762228421L117.07308333333333,151.29617741065366L117.11923333333333,95.87219268935068L117.1571,150.43444491550326L117.64581666666666,142.40641867262977L117.85763333333333,104.86501647744859L118.30493333333332,104.19415865625655L118.3712,140.72398479069983L118.37593333333334,143.92788031697273L118.45285,158.59704177720207L118.52976666666666,150.49506948728646L118.79601666666666,-1982.787604195731L118.81495000000001,150.78724999512946L118.98535000000001,125.39254418441227L119.01611666666666,72.57642357689994L119.0599,134.27338250194276L119.51311666666666,151.43891205106462L119.5356,138.2723035812378L119.6563,151.5901796105983L119.9687,142.81203763399805L120.10241666666667,104.3007470369339L120.14383333333333,149.12387397459574L121.57211666666667,146.3784940902676L121.61234999999999,149.97847456059284L121.70583333333333,151.6495376851942L122.20046666666667,104.56469050475529L122.78621666666666,146.6582576930523L123.30096666666667,142.41814879008703L123.55183333333333,-0.13654742922102514L123.77903333333333,136.50947024141038L123.87961666666666,157.66417151902402L124.03581666666666,151.56988586591822L124.35650000000001,151.0929938751672L124.45116666666667,138.4971863457135L124.85231666666667,151.02455658811544L124.889,140.2450265969549L124.92805,151.3974525835365L125.06295,135.96677710328782L125.1375,151.7066451315768L125.45108333333333,146.8998117532049L126.35751666666667,153.03447177580423L126.45809999999999,117.31954065390995L126.62731666666666,150.61959271718348L127.08290000000001,141.40025628038816L127.15035,141.88715562650137L127.40595,139.42384301764625L127.59883333333333,119.31232227597917L127.9633,150.3110103160143L128.59875,150.17058302196008L128.7656,146.76876503016268L129.29455000000002,-208.78025967734203L129.39513333333335,148.16823714545794L129.41406666666666,129.33006714923042L129.8661,144.26001912781172L130.1359,143.72467031223434L130.20926666666668,137.81220656633377L130.4483,151.47717728745192L130.70035000000001,105.01163465636118L131.46241666666666,143.15616277711732L131.70618333333334,144.25368986810957L132.08958333333334,149.35942526055234L132.11325,127.36934403010777L132.1168,122.13704247134072L132.21738333333334,93.1513660975865L132.22093333333333,-159.1558252062116L133.39716666666666,-929.4398280552457L133.46698333333333,150.79417457750864L133.86695,151.55235606219088L133.98173333333332,151.00513639939683L134.2752,114.28931205613273L134.78403333333333,151.8380871154368L135.53545,139.18477725556917L135.82891666666666,146.60023031064443L135.95553333333334,149.9450835521732L136.15196666666665,149.60746061376162L136.30225000000002,119.17233553954533L136.46436666666665,150.11762445420027L136.53063333333333,130.83079423223222L136.5685,34.98633302961079L136.65251666666666,164.14201509526796L137.10218333333333,149.77222897538118L137.2075,148.28961288928986L137.23471666666666,137.31314831972122L137.62403333333333,145.34885450771876L137.90093333333334,151.21717601908105L137.97785,147.85319954369749L138.63578333333334,131.11461092744554L138.71861666666666,132.96946156024933L138.94344999999998,150.8124414698354L139.15645,44.77977991104126L139.39311666666666,139.3058591059276L139.48778333333334,126.32829196112496L139.61795,147.59604689904623L139.88538333333335,150.46969282201357L140.11258333333333,151.53513341011214L140.19541666666666,151.64276038512722L140.2534,151.70306058494108L140.88293333333334,139.71417058365685L141.41661666666667,149.5370392160756L141.54205,142.4169845197882L141.54441666666665,148.17691190115042L141.86391666666668,81.96353183473859L142.67095,124.5714088337762L142.69816666666668,149.04077634853977L142.88986666666668,147.98492297530174L143.01648333333333,159.39177042245865L143.0863,150.0773301518389L143.18096666666668,-954.4794796534945L143.26971666666665,150.06133236203874L143.36793333333333,144.24147972464561L143.46141666666665,102.567185487066L143.58093333333335,151.48793414181895L143.69453333333334,148.2041422618287L143.775,194.03623601368497L144.27673333333334,150.35021871966975L144.3004,150.2814922960741L144.73113333333336,136.0108641386032L144.97016666666667,89.4238383088793L145.00803333333334,-487.2518675667899L145.07193333333333,151.0894575925278L145.17843333333334,151.28771379669863L145.40918333333335,93.75448373385838L145.44586666666666,144.42219256077493L145.51095,151.75124545608247L145.55236666666667,103.96801139627183L145.5642,82.99095930371966L145.79495000000003,151.08155854605138L146.16296666666668,132.8583110485758L146.6718,148.8191640909229L147.06111666666666,133.21847976105553L147.12975,108.02396740232194L147.56758333333332,94.6094092982156L147.70721666666665,151.14160715256418L147.77821666666665,149.8123785917248L147.79478333333333,149.00283017967428L147.81253333333333,149.17714876042945L147.82791666666665,150.04640841377633L148.02790000000002,149.60942480180944L148.43141666666668,63.21326085499355L148.63968333333332,145.942904399974L148.83375,188.76467330115182L148.85031666666669,149.92764097452164L149.34968333333333,104.12048031602586L149.41713333333334,131.27931636571884L149.56268333333335,151.31044212382818L149.77095,149.67874899719442L149.88928333333334,151.049912294639L150.4064,86.84376106943402L151.18858333333333,150.9887485413679L151.27496666666667,151.90503086788314L151.99916666666667,151.36401108572525L152.16128333333333,120.46440277780806L152.93755,127.87147233315876L152.93873333333332,48.16543272563388L153.00736666666666,126.56419347013747L153.24403333333333,-402.6325877053397L153.62388333333334,110.55119204521179L153.9090666666667,142.71487343737058L154.06053333333332,150.14723638817668L154.09958333333333,133.11591998168402L154.32915,143.05971598199434L154.52795,136.2212843298912L154.59303333333332,148.92945421061344L154.70663333333334,151.85233746362584L155.24741666666668,146.66365553651536L155.29593333333332,150.9177396393248L155.40006666666667,129.5026052253587L155.66276666666667,143.0543301956994L155.84381666666667,141.88663113968713L156.1006,142.8557757650103L156.75735,121.849738240242L156.98691666666667,150.6324537593339L157.03306666666668,151.51935149542987L157.26855,149.37957335369927L157.76555,132.7043621114322L158.0815,147.85214491827148L158.26136666666665,150.33339275313276L158.54418333333334,126.84941482543945L158.91338333333334,131.85015093428748L159.11100000000002,140.5963732302189L159.53818333333334,147.85355108550615L159.86478333333332,90.28789717810496L159.9275,150.76495610283953L160.34994999999998,143.97590326411384L160.36415,142.6919889322349L160.65643333333335,151.49651799776726L160.79015,152.1064775588789L160.98066666666665,-70.31518609183175L161.08716666666666,149.34257875915085L161.47056666666668,151.56962680164725L161.7309,150.49544523762805L161.77586666666667,-29.736473219735274L161.86106666666666,137.3064324770655L161.90721666666667,155.71313369699885L162.13678333333334,147.38190556424004L162.15335000000002,151.1194481969412L162.17346666666666,131.45356505257743L162.30126666666666,150.81491215314185L162.86926666666668,145.38984963297844L163.0941,150.8951413977359L163.23136666666667,147.79238733223505L163.4917,99.65420079231262L163.52601666666666,150.61588099332792L164.07153333333332,152.00240041315556L164.37565,151.20610009719218L164.40996666666666,124.3119204895837L164.48215000000002,144.61428585648537L164.84188333333333,155.6996583044529L165.04068333333333,147.67492866090365L165.643,155.4492000256266L167.07838333333333,150.6588247641921L167.07956666666666,150.76745033530253L167.24405000000002,136.26571499449867L167.27955,129.77053208010537L167.32806666666664,144.03108590841293L167.83926666666665,142.55175803814615L167.88896666666668,151.4435396722651L168.2771,150.83310981094837L168.77055000000001,150.37608454802208L168.78475,132.41711515188217L168.909,38.54050888334004L169.29831666666666,150.47257382582342L169.9385,150.84034043816584L169.96689999999998,124.02254845414842L170.00594999999998,151.3581271876714L170.52306666666667,133.4419789654868L170.63430000000002,141.10453313163347L171.03071666666665,60.593611989702495L171.30051666666665,150.8973474827196L171.36915000000002,150.7133427570973L171.6354,149.74600896771466L171.92768333333333,141.64569350225585L173.29325,151.27374688615757L173.58079999999998,139.901101150683L173.87426666666664,150.61971536119069L173.93698333333333,147.8278783602374L174.06596666666667,140.4226211479732L174.22335,134.95708422149931L174.44108333333335,151.22658414260619L174.59255,150.77275530089224L174.70496666666668,150.03208675874131L174.8801,150.74216419298733L174.91796666666664,-326.3220953260149L174.99014999999997,151.21891178031052L175.01145,149.96723012093986L175.26705,145.93478653473514L175.49425000000002,79.30092930793762L175.61731666666665,151.24796051265938L176.14271666666667,155.71768753869193L176.49061666666668,151.25617021960872L176.69414999999998,123.05523802552904L176.79828333333333,134.15261338438307L176.81248333333335,149.96816944969552L176.82195000000002,162.24147156306677L176.91188333333332,149.95727240719967L176.96276666666668,78.09448906353542L177.41243333333333,100.17440731184824L177.5852,130.1048562526703L178.33306666666667,144.95492421729224L178.59695,149.3939711196082L179.26553333333334,151.24436855981392L179.27855,149.66686345530408L179.48918333333333,149.43091183368648L179.55308333333332,147.81278843751974L179.7211166666667,149.62258331690515L180.66778333333335,149.186398680721L180.95178333333334,150.18140009152037L181.29495000000003,149.51767766475677L181.42748333333333,150.06186476136958L181.67598333333333,142.94491893053055L181.76118333333335,133.80295852252416L182.06885,81.18667040552411L182.24280000000002,148.93443476302284L182.67945,108.27861479350499L182.69483333333335,151.61740056927582L182.79541666666668,141.37164085251945L183.2723,150.4442559650966L183.39773333333335,117.62738728523254L184.1456,149.13119587834393L184.44971666666666,150.021361907678L184.8485,140.93810803975379L184.9325166666667,150.9411962005709L185.02481666666668,110.12555592400686L185.39756666666668,132.95631924697332L185.40348333333333,149.99081017396279L185.42123333333333,151.4530519772587L185.81173333333334,144.40848431416921L185.84959999999998,121.99844833782741L186.08271666666667,144.76553549511092L186.35488333333333,30.145343848637168L186.4531,150.40824873958314L186.47558333333333,138.69519368239813L186.59746666666666,132.08897178513664L186.92761666666667,145.13307339804513L187.49325000000002,100.61891892978123L187.52638333333334,143.23566020812308L187.62815,139.17648569175176L188.079,155.5521448808057L188.45648333333335,90.04835741860525L188.62806666666668,151.15925314782984L188.6825,94.34274693897792L189.30493333333334,151.77057313193967L189.35226666666665,149.47182142840964L189.38776666666666,149.694529757968L189.39960000000002,126.64156130381993L189.48953333333333,148.20402055978775L189.5297666666667,-680.9057104928153L189.63271666666665,124.22202827249254L189.66940000000002,141.7196559395109L190.2220166666667,151.30312135043954L190.50483333333332,150.47568881405252L190.78055,133.59087745632445L191.52723333333333,149.1321125999093L191.56983333333335,54.015570708683555L191.68461666666667,148.19963099701064L191.93311666666665,143.5127806535789L191.9343,145.04719546437263L192.28811666666667,143.77427576269423L192.58986666666667,148.11372065969877L192.75671666666668,142.1114792398044L193.1046166666667,109.94727562155043L193.28921666666665,149.77171466180258L193.45843333333332,145.63767342056548L193.5602,129.89402611766542L193.79213333333334,154.13566575305802L193.82171666666667,134.23745364802224L193.97081666666668,147.54349271740233L194.05365,-170.98848887852256L194.33528333333334,151.44845643000943L194.4051,146.46781246151244L194.54591666666667,121.0604579278401L194.69265000000001,151.50676524838698L195.9884,151.02334314717777L196.09253333333334,146.52021630534105L196.13868333333332,52.44511250087193L196.1872,72.12643197604588L196.80371666666667,129.4606899874551L196.90666666666667,150.33034304316556L197.25811666666667,51.68818157059806L198.05095,133.30203744343348L198.19886666666665,-1596.6489813668388L199.02483333333333,60.55816994394574L199.14198333333331,138.9098233325141L199.30291666666668,149.95614581555128L199.44728333333333,138.87874296733312L199.51591666666667,137.0352185368538L199.59756666666667,149.2755149060062L199.6023,150.0621786245278L199.72181666666668,148.7610914941345L199.82358333333335,82.3012832573482L200.50755,108.66370868682861L200.64126666666667,147.64279593101568L200.79273333333333,150.9150476881436L201.03295,94.5773070880345L201.0933,146.3164716405528L201.17495,148.99007444935185L201.17968333333334,149.777121736535L201.80329999999998,89.69092869758606L201.82578333333333,94.66607195990427L201.92045,152.2594241968223L202.06481666666667,136.0162129998207L202.18906666666666,142.06608324817248L202.40088333333333,150.59775134548545L202.41745,148.55652882584505L202.46005,148.39554189358438L202.50856666666667,135.41296122755324L202.6198,157.14015305042267L202.67778333333334,151.66251703241974L202.79256666666666,141.24037597009115L202.89078333333333,146.27932689658232L202.99373333333332,151.23654609519457L203.01503333333335,148.78041630876916L203.17478333333332,20.433873653411865L204.1534,149.46535878628492L204.44095,150.34950131816524L205.37578333333332,149.8329236294542L205.45506666666668,150.4410414110337L205.52725,-21.339993953704834L205.95325,140.0240367906434L206.5177,147.61705576096261L206.6869166666667,151.41448615943747L207.30816666666666,139.3841628772872L207.40046666666666,147.6526620856353L207.77558333333334,66.86922332218715L207.93651666666668,147.2203542057957L207.95426666666665,143.5846850829465L208.6335,146.53201273722308L208.73171666666667,107.43115864481246L209.03938333333335,151.08085324881333L209.24528333333333,151.21732993636812L209.33166666666665,158.49460106236594L209.50443333333334,100.0538054874965L209.52691666666666,148.9960759047951L209.60501666666664,148.83843332954817L209.79553333333334,108.82089798791067L209.90321666666665,151.19549464035248L209.9600166666667,-67.77524716513497L210.1884,-411.873008455549L210.40849999999998,150.37020620756917L210.5481333333333,149.3693942778877L210.6286,122.46684520585197L210.68303333333333,146.947161759649L211.46048333333334,151.19245750563485L211.64508333333336,130.04260810783933L211.79891666666668,143.24120951976096L211.98706666666666,150.58340990915895L212.30065,42.56971304757255L212.43554999999998,151.5581099571261L212.73966666666666,143.7478479572705L213.24021666666667,150.21679871263248L213.29938333333334,121.22100515025002L213.5029166666667,151.40269457868166L213.5467,150.9849641919136L213.83898333333335,51.03152407918658L214.13008333333332,148.92850715773446L214.37266666666667,136.3314310823168L214.4058,149.45524225703306L214.61524999999997,-510.1003458840506L215.30868333333333,145.75468107845103L215.3359,141.63237636004175L215.53588333333332,164.13303928715843L215.53706666666668,63.29987352234977L215.61161666666666,151.82014802736896L215.70865,148.43278158775396L215.86129999999997,149.11214234999247L215.92874999999998,139.30811228922434L216.05773333333335,143.57547340648514L216.14175,116.54852092266083L216.3015,150.75012842352902L216.70265,141.2580789072173L216.90144999999998,36.03311225346158L217.68245,151.2984972851617L217.8209,152.3247084873063L218.47055,151.34099837898142L218.70366666666666,69.0551517350333L218.751,45.903170381273526L218.89655,149.1620107974325L219.46573333333333,150.52867535821028L219.6243,146.64741076316153L219.86451666666667,42.299994196210605L220.09763333333333,83.01928762027195L220.45381666666665,144.6763870545796L220.48103333333336,123.95488362652915L220.7082333333333,148.56762631876128L221.13068333333334,146.24455440044403L221.2218,149.6312420591712L221.46083333333334,150.76233630627394L221.56141666666667,151.3416328639058L221.69276666666667,71.24750661849976L221.75311666666664,96.4819839681898L222.04658333333333,151.59532146295533L222.51163333333335,148.73001225931304L222.68085000000002,171.31816651991434L222.92816666666667,151.0363668198032L223.1175,164.0370845752103L223.31985,148.02138159104757L223.49261666666666,150.99365543201566L223.50563333333332,150.1544722904052L223.65828333333332,149.18380657796348L223.68195,139.48061871528625L224.03340000000003,150.95748237334192L224.30675000000002,145.1905529328755L224.6156,141.71540503416742L224.6842333333333,142.43962863513403L224.79073333333332,153.8337644359895L225.05698333333333,148.5201779710395L225.42026666666666,146.42973931559496L226.26871666666668,141.26946388823646L226.75151666666667,134.77006096499306L226.79766666666666,148.65725422011954L226.8095,149.1357619655984L227.47453333333334,146.5225131958723L227.69344999999998,121.38719814164298L228.35138333333333,136.3863168188504L228.49456666666669,151.20018045151872L228.59041666666667,138.80270443643843L228.60816666666668,88.03550965445382L228.7336,151.47713508736342L228.94068333333334,108.75423691953932L229.04245,146.68659957391876L229.2661,76.29848343985421L230.05775,151.01732548991484L230.33346666666668,151.5111793493852L230.65888333333334,148.45190312606948L230.88135,149.7702937998942L230.95235,146.926775349038L231.07423333333335,82.61238833836147L231.19848333333334,147.8709484487772L231.4032,151.5353763314363L232.03036666666668,155.16284529651915L232.25283333333334,150.76350820649947L232.2694,151.57499622127838L232.28715000000003,139.47726606896944L232.36998333333332,-1.724150930132197L232.6244,142.67588658417975L233.21843333333334,152.2652862412589L233.92843333333334,122.85932411466325L234.0373,76.86397668293544L234.1864,122.79593355315072L234.52838333333332,146.66881110625607L235.08336666666668,146.2739735139268L235.09046666666666,151.1142829720463L235.13070000000002,-41.66696875435966L235.28453333333334,116.29591119289398L235.68213333333333,144.71075073736054L235.71645,147.17709798472268L236.02648333333335,133.67989854301726L236.08446666666669,149.39174525333303L236.28918333333334,94.87159844807216L236.62761666666668,132.71931601422173L237.0406,160.0901306441852L237.07610000000003,150.28273060492106L237.38258333333334,122.32507702282497L237.9091666666667,153.10925909291421L237.9139,149.32888464203901L237.97898333333333,151.49599605426192L238.16713333333334,106.6375709090914L238.20263333333335,150.21503930804985L238.3257,35.89480447769165L238.39906666666667,151.6326320636352L238.60378333333333,119.31873668943132L239.13746666666665,145.99086969877993L239.62855,150.06164000821965L240.02259999999998,148.98784387324537L240.0865,141.79195750185423L240.15158333333335,140.25411845530783L240.1575,115.61856360094887L240.48291666666668,150.4525790847838L240.53853333333333,127.17167278698513L240.54090000000002,130.7315275669098L240.79295,111.18568846157619L240.92548333333335,136.1594898360116L241.17635,148.30414403762137L241.30769999999998,16.955657958984375L241.31953333333334,47.51746845245361L241.5775,150.454723565174L242.28276666666667,106.19557019642421L242.2946,135.4428012115615L242.37743333333333,151.13010602710503L242.65315,151.61103919441146L243.31226666666666,139.00762505190713L243.77376666666666,111.81700479984283L244.04238333333333,-112.9857452937535L244.05776666666668,151.44520118300403L244.30626666666666,149.2054267759834L244.4033,151.27896330691874L244.58198333333334,154.7060398885182L244.61511666666667,131.68770621504103L244.86243333333334,149.9665500212993L244.99141666666668,147.28200137615204L245.05768333333333,148.7228550112673L245.11685,148.73016768374615L245.12986666666666,150.836930614497L245.66118333333333,164.61122808286123L245.74875,127.94247699635369L246.06706666666668,123.89467314311436L246.1215,150.82812049825276L246.21734999999998,142.2270419214453L246.57945,152.16077414261443L247.59120000000001,146.4654255190066L247.61605,83.06023979187012L247.62433333333334,146.07454267782825L247.65155,139.44740573848998L247.69888333333333,126.38208501679557L248.00181666666668,148.212046112333L248.17458333333335,150.1871555053762L248.41835,173.5319002696446L248.4219,148.55190716258116L248.76388333333333,148.11334952499186L248.90115,140.6569582394191L249.02421666666666,64.59820747375488L250.37676666666667,80.17591197150094L251.12226666666666,77.28292710440499L252.405,148.0355110849653L252.44523333333333,148.71697676501103L252.64995000000002,144.8374271137374L252.91738333333333,151.0647420933736L252.95998333333333,152.20244267955422L253.67708333333331,151.51660717092454L253.78595,150.29451629838772L253.96936666666667,147.94678803639752L254.36696666666666,146.7367562630347L254.75155,-468.28796768188477L254.7693,35.505165031978066L254.89118333333334,149.71982136368752L255.0249,144.05710527726583L255.15033333333332,150.52522738490785L255.4935,143.83106050321035L256.1881166666667,132.23102029732297L256.46028333333334,156.0943188071251L256.51945,151.609298770449L256.79043333333334,143.42526595933097L256.93598333333335,148.21692549756594L257.0495833333334,129.9357273408345L257.6436166666667,151.26045089108604L257.8672666666667,151.14621934906714L258.2057,149.57442849448748L258.45301666666666,149.49640354514122L258.9748666666667,150.23425843407L258.9796,147.39454938897066L259.4576666666667,151.57416833890602L259.4908,131.8055831193924L259.93455,127.5865644642285L259.93809999999996,141.2841065653733L260.08365,134.5609987122672L260.22565000000003,139.89298743009567L260.3333333333333,150.27703613628233" style="fill: none;" fill="none"></path></g></g></g></g></g></g><g transform="translate(46, 177)" clip-path="url(#clip_1)"><clipPath id="clip_1"><rect width="284" height="23"></rect></clipPath><g><g><line x1="0" y1="0" x2="0" y2="5" style="visibility: inherit;" fill="rgb(0, 0, 0)" stroke="rgb(204, 204, 204)" stroke-width="1px"></line><line x1="23.666666666666664" y1="0" x2="23.666666666666664" y2="5" style="visibility: inherit;" fill="rgb(0, 0, 0)" stroke="rgb(204, 204, 204)" stroke-width="1px"></line><line x1="47.33333333333333" y1="0" x2="47.33333333333333" y2="5" style="visibility: inherit;" fill="rgb(0, 0, 0)" stroke="rgb(204, 204, 204)" stroke-width="1px"></line><line x1="71" y1="0" x2="71" y2="5" style="visibility: inherit;" fill="rgb(0, 0, 0)" stroke="rgb(204, 204, 204)" stroke-width="1px"></line><line x1="94.66666666666666" y1="0" x2="94.66666666666666" y2="5" style="visibility: inherit;" fill="rgb(0, 0, 0)" stroke="rgb(204, 204, 204)" stroke-width="1px"></line><line x1="118.33333333333334" y1="0" x2="118.33333333333334" y2="5" style="visibility: inherit;" fill="rgb(0, 0, 0)" stroke="rgb(204, 204, 204)" stroke-width="1px"></line><line x1="142" y1="0" x2="142" y2="5" style="visibility: inherit;" fill="rgb(0, 0, 0)" stroke="rgb(204, 204, 204)" stroke-width="1px"></line><line x1="165.66666666666669" y1="0" x2="165.66666666666669" y2="5" style="visibility: inherit;" fill="rgb(0, 0, 0)" stroke="rgb(204, 204, 204)" stroke-width="1px"></line><line x1="189.33333333333331" y1="0" x2="189.33333333333331" y2="5" style="visibility: inherit;" fill="rgb(0, 0, 0)" stroke="rgb(204, 204, 204)" stroke-width="1px"></line><line x1="213" y1="0" x2="213" y2="5" style="visibility: inherit;" fill="rgb(0, 0, 0)" stroke="rgb(204, 204, 204)" stroke-width="1px"></line><line x1="236.66666666666669" y1="0" x2="236.66666666666669" y2="5" style="visibility: inherit;" fill="rgb(0, 0, 0)" stroke="rgb(204, 204, 204)" stroke-width="1px"></line><line x1="260.3333333333333" y1="0" x2="260.3333333333333" y2="5" style="visibility: inherit;" fill="rgb(0, 0, 0)" stroke="rgb(204, 204, 204)" stroke-width="1px"></line><line x1="284" y1="0" x2="284" y2="5" style="visibility: inherit;" fill="rgb(0, 0, 0)" stroke="rgb(204, 204, 204)" stroke-width="1px"></line></g><g transform="translate(0, 8)"><text x="0" y="0" dx="0em" dy="0.95em" style="text-anchor: middle; visibility: hidden; font-family: &quot;Helvetica Neue&quot;, sans-serif; font-size: 12px; font-weight: 200;" fill="rgb(50, 49, 63)" stroke="none" stroke-width="1px">-100k</text><text x="23.666666666666664" y="0" dx="0em" dy="0.95em" style="text-anchor: middle; visibility: inherit; font-family: &quot;Helvetica Neue&quot;, sans-serif; font-size: 12px; font-weight: 200;" fill="rgb(50, 49, 63)" stroke="none" stroke-width="1px">0</text><text x="47.33333333333333" y="0" dx="0em" dy="0.95em" style="text-anchor: middle; visibility: hidden; font-family: &quot;Helvetica Neue&quot;, sans-serif; font-size: 12px; font-weight: 200;" fill="rgb(50, 49, 63)" stroke="none" stroke-width="1px">100k</text><text x="71" y="0" dx="0em" dy="0.95em" style="text-anchor: middle; visibility: inherit; font-family: &quot;Helvetica Neue&quot;, sans-serif; font-size: 12px; font-weight: 200;" fill="rgb(50, 49, 63)" stroke="none" stroke-width="1px">200k</text><text x="94.66666666666666" y="0" dx="0em" dy="0.95em" style="text-anchor: middle; visibility: hidden; font-family: &quot;Helvetica Neue&quot;, sans-serif; font-size: 12px; font-weight: 200;" fill="rgb(50, 49, 63)" stroke="none" stroke-width="1px">300k</text><text x="118.33333333333334" y="0" dx="0em" dy="0.95em" style="text-anchor: middle; visibility: inherit; font-family: &quot;Helvetica Neue&quot;, sans-serif; font-size: 12px; font-weight: 200;" fill="rgb(50, 49, 63)" stroke="none" stroke-width="1px">400k</text><text x="142" y="0" dx="0em" dy="0.95em" style="text-anchor: middle; visibility: hidden; font-family: &quot;Helvetica Neue&quot;, sans-serif; font-size: 12px; font-weight: 200;" fill="rgb(50, 49, 63)" stroke="none" stroke-width="1px">500k</text><text x="165.66666666666669" y="0" dx="0em" dy="0.95em" style="text-anchor: middle; visibility: inherit; font-family: &quot;Helvetica Neue&quot;, sans-serif; font-size: 12px; font-weight: 200;" fill="rgb(50, 49, 63)" stroke="none" stroke-width="1px">600k</text><text x="189.33333333333331" y="0" dx="0em" dy="0.95em" style="text-anchor: middle; visibility: hidden; font-family: &quot;Helvetica Neue&quot;, sans-serif; font-size: 12px; font-weight: 200;" fill="rgb(50, 49, 63)" stroke="none" stroke-width="1px">700k</text><text x="213" y="0" dx="0em" dy="0.95em" style="text-anchor: middle; visibility: inherit; font-family: &quot;Helvetica Neue&quot;, sans-serif; font-size: 12px; font-weight: 200;" fill="rgb(50, 49, 63)" stroke="none" stroke-width="1px">800k</text><text x="236.66666666666669" y="0" dx="0em" dy="0.95em" style="text-anchor: middle; visibility: hidden; font-family: &quot;Helvetica Neue&quot;, sans-serif; font-size: 12px; font-weight: 200;" fill="rgb(50, 49, 63)" stroke="none" stroke-width="1px">900k</text><text x="260.3333333333333" y="0" dx="0em" dy="0.95em" style="text-anchor: middle; visibility: inherit; font-family: &quot;Helvetica Neue&quot;, sans-serif; font-size: 12px; font-weight: 200;" fill="rgb(50, 49, 63)" stroke="none" stroke-width="1px">1M</text><text x="284" y="0" dx="0em" dy="0.95em" style="text-anchor: middle; visibility: hidden; font-family: &quot;Helvetica Neue&quot;, sans-serif; font-size: 12px; font-weight: 200;" fill="rgb(50, 49, 63)" stroke="none" stroke-width="1px">1.1M</text></g><line x1="0" y1="0" x2="284" y2="0" fill="rgb(0, 0, 0)" stroke="rgb(204, 204, 204)" stroke-width="1px"></line></g></g></g></g></svg>