<svg viewBox="0 0 330 200" xmlns="http://www.w3.org/2000/svg"><g><g><g><g><g><line x1="46" y1="177" x2="41" y2="177" style="visibility: inherit;" fill="rgb(0, 0, 0)" stroke="rgb(204, 204, 204)" stroke-width="1px"></line><line x1="46" y1="157.33333333333334" x2="41" y2="157.33333333333334" style="visibility: inherit;" fill="rgb(0, 0, 0)" stroke="rgb(204, 204, 204)" stroke-width="1px"></line><line x1="46" y1="137.66666666666666" x2="41" y2="137.66666666666666" style="visibility: inherit;" fill="rgb(0, 0, 0)" stroke="rgb(204, 204, 204)" stroke-width="1px"></line><line x1="46" y1="118" x2="41" y2="118" style="visibility: inherit;" fill="rgb(0, 0, 0)" stroke="rgb(204, 204, 204)" stroke-width="1px"></line><line x1="46" y1="98.33333333333333" x2="41" y2="98.33333333333333" style="visibility: inherit;" fill="rgb(0, 0, 0)" stroke="rgb(204, 204, 204)" stroke-width="1px"></line><line x1="46" y1="78.66666666666666" x2="41" y2="78.66666666666666" style="visibility: inherit;" fill="rgb(0, 0, 0)" stroke="rgb(204, 204, 204)" stroke-width="1px"></line><line x1="46" y1="59" x2="41" y2="59" style="visibility: inherit;" fill="rgb(0, 0, 0)" stroke="rgb(204, 204, 204)" stroke-width="1px"></line><line x1="46" y1="39.33333333333334" x2="41" y2="39.33333333333334" style="visibility: inherit;" fill="rgb(0, 0, 0)" stroke="rgb(204, 204, 204)" stroke-width="1px"></line><line x1="46" y1="19.666666666666657" x2="41" y2="19.666666666666657" style="visibility: inherit;" fill="rgb(0, 0, 0)" stroke="rgb(204, 204, 204)" stroke-width="1px"></line><line x1="46" y1="0" x2="41" y2="0" style="visibility: inherit;" fill="rgb(0, 0, 0)" stroke="rgb(204, 204, 204)" stroke-width="1px"></line></g><g transform="translate(36, 0)"><text x="0" y="177" dx="0em" dy="0.3em" style="text-anchor: end; visibility: hidden; font-family: &quot;Helvetica Neue&quot;, sans-serif; font-size: 12px; font-weight: 200;" fill="rgb(50, 49, 63)" stroke="none" stroke-width="1px">-0.5</text><text x="0" y="157.33333333333334" dx="0em" dy="0.3em" style="text-anchor: end; visibility: inherit; font-family: &quot;Helvetica Neue&quot;, sans-serif; font-size: 12px; font-weight: 200;" fill="rgb(50, 49, 63)" stroke="none" stroke-width="1px">-0.4</text><text x="0" y="137.66666666666666" dx="0em" dy="0.3em" style="text-anchor: end; visibility: hidden; font-family: &quot;Helvetica Neue&quot;, sans-serif; font-size: 12px; font-weight: 200;" fill="rgb(50, 49, 63)" stroke="none" stroke-width="1px">-0.3</text><text x="0" y="118" dx="0em" dy="0.3em" style="text-anchor: end; visibility: inherit; font-family: &quot;Helvetica Neue&quot;, sans-serif; font-size: 12px; font-weight: 200;" fill="rgb(50, 49, 63)" stroke="none" stroke-width="1px">-0.2</text><text x="0" y="98.33333333333333" dx="0em" dy="0.3em" style="text-anchor: end; visibility: hidden; font-family: &quot;Helvetica Neue&quot;, sans-serif; font-size: 12px; font-weight: 200;" fill="rgb(50, 49, 63)" stroke="none" stroke-width="1px">-0.1</text><text x="0" y="78.66666666666666" dx="0em" dy="0.3em" style="text-anchor: end; visibility: inherit; font-family: &quot;Helvetica Neue&quot;, sans-serif; font-size: 12px; font-weight: 200;" fill="rgb(50, 49, 63)" stroke="none" stroke-width="1px">0</text><text x="0" y="59" dx="0em" dy="0.3em" style="text-anchor: end; visibility: hidden; font-family: &quot;Helvetica Neue&quot;, sans-serif; font-size: 12px; font-weight: 200;" fill="rgb(50, 49, 63)" stroke="none" stroke-width="1px">0.1</text><text x="0" y="39.33333333333334" dx="0em" dy="0.3em" style="text-anchor: end; visibility: inherit; font-family: &quot;Helvetica Neue&quot;, sans-serif; font-size: 12px; font-weight: 200;" fill="rgb(50, 49, 63)" stroke="none" stroke-width="1px">0.2</text><text x="0" y="19.666666666666657" dx="0em" dy="0.3em" style="text-anchor: end; visibility: hidden; font-family: &quot;Helvetica Neue&quot;, sans-serif; font-size: 12px; font-weight: 200;" fill="rgb(50, 49, 63)" stroke="none" stroke-width="1px">0.3</text><text x="0" y="0" dx="0em" dy="0.3em" style="text-anchor: end; visibility: hidden; font-family: &quot;Helvetica Neue&quot;, sans-serif; font-size: 12px; font-weight: 200;" fill="rgb(50, 49, 63)" stroke="none" stroke-width="1px">0.4</text></g><line x1="46" y1="0" x2="46" y2="177" fill="rgb(0, 0, 0)" stroke="rgb(204, 204, 204)" stroke-width="1px"></line></g></g><g transform="translate(46, 0)" clip-path="url(#clip_0)"><clipPath id="clip_0"><rect width="284" height="177"></rect></clipPath><g><g><g><line x1="0" y1="0" x2="0" y2="177" fill="rgb(0, 0, 0)" stroke="rgb(60, 60, 60)" stroke-width="1px" opacity="0.25"></line><line x1="23.666666666666664" y1="0" x2="23.666666666666664" y2="177" fill="rgb(0, 0, 0)" stroke="rgb(60, 60, 60)" stroke-width="1px" opacity="0.25"></line><line x1="47.33333333333333" y1="0" x2="47.33333333333333" y2="177" fill="rgb(0, 0, 0)" stroke="rgb(60, 60, 60)" stroke-width="1px" opacity="0.25"></line><line x1="71" y1="0" x2="71" y2="177" fill="rgb(0, 0, 0)" stroke="rgb(60, 60, 60)" stroke-width="1px" opacity="0.25"></line><line x1="94.66666666666666" y1="0" x2="94.66666666666666" y2="177" fill="rgb(0, 0, 0)" stroke="rgb(60, 60, 60)" stroke-width="1px" opacity="0.25"></line><line x1="118.33333333333334" y1="0" x2="118.33333333333334" y2="177" fill="rgb(0, 0, 0)" stroke="rgb(60, 60, 60)" stroke-width="1px" opacity="0.25"></line><line x1="142" y1="0" x2="142" y2="177" fill="rgb(0, 0, 0)" stroke="rgb(60, 60, 60)" stroke-width="1px" opacity="0.25"></line><line x1="165.66666666666669" y1="0" x2="165.66666666666669" y2="177" fill="rgb(0, 0, 0)" stroke="rgb(60, 60, 60)" stroke-width="1px" opacity="0.25"></line><line x1="189.33333333333331" y1="0" x2="189.33333333333331" y2="177" fill="rgb(0, 0, 0)" stroke="rgb(60, 60, 60)" stroke-width="1px" opacity="0.25"></line><line x1="213" y1="0" x2="213" y2="177" fill="rgb(0, 0, 0)" stroke="rgb(60, 60, 60)" stroke-width="1px" opacity="0.25"></line><line x1="236.66666666666669" y1="0" x2="236.66666666666669" y2="177" fill="rgb(0, 0, 0)" stroke="rgb(60, 60, 60)" stroke-width="1px" opacity="0.25"></line><line x1="260.3333333333333" y1="0" x2="260.3333333333333" y2="177" fill="rgb(0, 0, 0)" stroke="rgb(60, 60, 60)" stroke-width="1px" opacity="0.25"></line><line x1="284" y1="0" x2="284" y2="177" fill="rgb(0, 0, 0)" stroke="rgb(60, 60, 60)" stroke-width="1px" opacity="0.25"></line></g><g><line x1="0" y1="177" x2="284" y2="177" fill="rgb(0, 0, 0)" stroke="rgb(60, 60, 60)" stroke-width="1px" opacity="0.25"></line><line x1="0" y1="157.33333333333334" x2="284" y2="157.33333333333334" fill="rgb(0, 0, 0)" stroke="rgb(60, 60, 60)" stroke-width="1px" opacity="0.25"></line><line x1="0" y1="137.66666666666666" x2="284" y2="137.66666666666666" fill="rgb(0, 0, 0)" stroke="rgb(60, 60, 60)" stroke-width="1px" opacity="0.25"></line><line x1="0" y1="118" x2="284" y2="118" fill="rgb(0, 0, 0)" stroke="rgb(60, 60, 60)" stroke-width="1px" opacity="0.25"></line><line x1="0" y1="98.33333333333333" x2="284" y2="98.33333333333333" fill="rgb(0, 0, 0)" stroke="rgb(60, 60, 60)" stroke-width="1px" opacity="0.25"></line><line x1="0" y1="78.66666666666666" x2="284" y2="78.66666666666666" fill="rgb(0, 0, 0)" stroke="rgb(60, 60, 60)" stroke-width="1px" opacity="0.25"></line><line x1="0" y1="59" x2="284" y2="59" fill="rgb(0, 0, 0)" stroke="rgb(60, 60, 60)" stroke-width="1px" opacity="0.25"></line><line x1="0" y1="39.33333333333334" x2="284" y2="39.33333333333334" fill="rgb(0, 0, 0)" stroke="rgb(60, 60, 60)" stroke-width="1px" opacity="0.25"></line><line x1="0" y1="19.666666666666657" x2="284" y2="19.666666666666657" fill="rgb(0, 0, 0)" stroke="rgb(60, 60, 60)" stroke-width="1px" opacity="0.25"></line><line x1="0" y1="0" x2="284" y2="0" fill="rgb(0, 0, 0)" stroke="rgb(60, 60, 60)" stroke-width="1px" opacity="0.25"></line></g></g></g><g><g><line x1="0" y1="78.66666666666666" x2="284" y2="78.66666666666666" fill="rgb(0, 0, 0)" stroke="rgb(153, 153, 153)" stroke-width="1.5px"></line></g></g><g><g><line x1="23.666666666666664" y1="0" x2="23.666666666666664" y2="177" fill="rgb(0, 0, 0)" stroke="rgb(153, 153, 153)" stroke-width="1.5px"></line></g></g><g><g><g><g><g><path stroke="rgb(255, 112, 67)" stroke-width="2px" d="M23.71755,76.18961927915613L23.865466666666666,76.30623036760642L23.938833333333335,131.87022736095275L24.22875,94.3500179494142L24.302116666666667,85.12650134248726L24.353,83.61186564142267L24.361283333333333,81.9857097454021L24.433466666666668,77.7821116931117L24.62398333333333,103.03536460761241L24.86775,108.90589452838736L25.24523333333333,94.75205951588725L25.306766666666665,100.07412689967013L25.367116666666668,90.11208772567159L25.71975,137.6445575045907L25.723300000000002,116.32004004908512L25.888966666666665,41.75363505636909L26.3978,206.4966508951394L26.494833333333332,164.25817610369026L26.608433333333334,127.12978884963998L26.609616666666668,104.39431396219699L26.8451,98.18818177521133L27.490016666666666,83.2030119684358L27.508950000000002,94.78625249381969L27.578766666666667,63.38046548184755L27.94915,89.79384784495156L27.951516666666667,73.46388146285462L28.7763,87.46138196330958L28.87451666666667,318.240559305676L29.0035,193.93145069762778L29.5502,114.74706909391544L29.74308333333333,104.55283834199751L29.992766666666665,53.657400241630555L30.440066666666667,63.98609748773626L30.6578,38.16567377917684L30.756016666666664,45.863682867193035L31.004516666666664,56.77179967393539L31.595,54.279970531278664L31.609199999999998,-114.69551477868214L31.778416666666665,-37.279039295584624L31.91095,2.159161765016279L32.1346,31.555527218429972L32.49551666666667,39.577997558622826L32.499066666666664,81.14878241536273L32.89548333333333,84.49111309626252L32.9369,94.98895233045222L33.21261666666667,100.32237995926782L33.347516666666664,40.41843773384133L33.396033333333335,27.894083086953486L33.723816666666664,49.98049052649495L33.73565,63.822668124581185L34.17348333333334,70.21044107956219L34.24093333333333,110.66893527469492L34.62551666666667,87.53317864906052L34.871649999999995,102.44760391604335L34.973416666666665,106.47966623759444L35.143816666666666,103.87273987598711L35.973333333333336,-56.24714935384284L36.068,-4.5881277582419955L36.118883333333336,19.965212613758638L36.5721,39.08464434298563L36.644283333333334,114.20637969785722L36.70818333333334,109.47047956310772L37.314049999999995,108.59630426213118L37.354283333333335,137.02518869220233L37.83116666666667,84.01355908182846L37.83708333333334,90.85541505568392L38.06191666666667,20.752318002634354L38.211016666666666,37.13925199522464L38.905633333333334,-59.83996968294292L39.09141666666667,21.434878126151233L39.12336666666667,-35.70464344130329L39.78485,-9.011493470092859L40.58241666666667,15.208710821032241L41.02498333333333,19.27210902495139L41.156333333333336,103.14965140614224L41.26756666666667,79.83722430431402L41.97756666666667,76.54061926430408L42.32191666666667,23.40120557027157L42.73845,-20.62879679092896L43.6153,17.75606177088798L43.86261666666667,126.74920020592765L43.8993,74.23228577793721L44.15963333333333,141.30355385396797L44.18566666666666,226.91866418718882L44.42706666666667,132.3429370834403L44.44363333333333,113.88337030252163L45.501533333333334,75.00178203462193L46.77953333333333,81.40953716879977L46.908516666666664,-6.3904289736122735L47.0162,16.730526100368422L47.328599999999994,19.66991025995111L47.39723333333333,32.66980480732508L47.40788333333333,65.7434636287303L47.62325,69.00315408516839L47.71673333333334,78.0495432239958L47.855183333333336,72.48113249487126L47.97233333333333,57.28625494254284L48.018483333333336,42.18634843596172L48.25633333333333,53.84917043232285L48.259883333333335,26.70454656466859L48.346266666666665,36.58417741789532L48.612516666666664,9.444758366550161L48.68825,18.26542052493832L48.79238333333333,37.31815489986823L48.89533333333333,49.741463943741024L49.52131666666667,61.79474672999784L49.991099999999996,88.73491566137166L50.091683333333336,140.7914940295493L50.12481666666666,195.49992221011695L51.04781666666666,161.56503861370908L51.05965,134.56193360018062L51.222950000000004,92.80498872613944L51.3117,83.03973487918162L51.3898,136.25983401474383L51.523516666666666,117.75709809107022L51.67735,96.2566606760026L51.71403333333334,354.56393925523764L52.40391666666667,185.72295856822865L52.448883333333335,142.71819700480066L52.8027,59.772007342866786L52.928133333333335,66.52835195919279L53.17308333333333,70.51220425505741L53.55056666666667,169.8395747474426L53.71386666666666,141.03142006808042L54.21205,78.91214282179796L54.25346666666667,34.086031000324596L54.34103333333333,44.19520533177814L54.79306666666667,35.36539061567933L55.377633333333335,10.05474404218947L55.378816666666665,41.0095544070729L55.80008333333333,53.87971008021255L56.21543333333333,62.3170525559313L56.3314,151.37224185554462L56.37281666666667,127.99208139522138L56.594100000000005,113.46287694423947L56.70178333333333,101.5047102062645L57.31948333333334,93.71914869669511L57.443733333333334,88.1416790204082L57.94901666666667,95.59507533004984L57.97978333333333,89.17806822451581L58.05788333333333,115.22995639859771L58.222366666666666,99.021805954552L58.29573333333333,89.77916197384432L58.541866666666664,83.15369670572204L58.70753333333333,89.30364895828897L58.9655,93.74725126523872L59.173766666666666,88.63784200806194L59.20453333333333,110.18727470643114L59.37375,99.47106103828136L59.5548,93.60024523846494L59.724016666666664,93.42874334081056L59.892050000000005,83.84991202378141L60.00328333333333,106.95341631642732L60.019850000000005,101.06068050906417L60.83161666666667,67.21078081796504L60.875400000000006,44.20599555407125L61.392516666666666,31.99498587912862L61.458783333333336,46.52728497623323L61.779466666666664,83.45236069601464L62.04926666666667,81.41726682528619L62.17588333333334,60.73391640825615L62.31196666666667,66.88314218983494L62.43621666666667,192.54854419886263L62.59241666666667,166.2523412660665L62.60188333333333,99.76376894502825L62.75808333333333,199.81576712446142L62.93203333333333,162.64146447237374L63.16159999999999,137.4672446421483L63.19473333333333,113.92515268448207L63.58996666666666,137.54533966367762L63.60416666666667,119.71214780256462L63.646766666666664,113.05930543790168L63.71066666666667,101.58342709796503L63.75445,106.9004654776408L63.79823333333333,41.217162702112745L63.94378333333333,48.7457104529891L64.32955,61.144015007161045L64.52243333333332,95.92856103911234L64.61,48.50772543554103L65.47856666666667,105.42174264382355L65.50341666666667,101.51413185060106L65.65606666666666,94.84885003900185L65.99686666666666,89.53094028099967L66.21223333333333,85.15305463238191L66.31163333333333,74.41525597337879L67.01216666666666,152.0708474417154L67.04766666666667,137.090940485572L67.17546666666667,115.84992938366096L67.27368333333334,103.20862678464728L67.69021666666667,88.55346200975254L68.02983333333334,114.03978603317572L68.35525,98.12462598363156L68.48778333333334,89.3589526982559L69.17293333333333,26.47962259701484L69.48651666666667,44.22323176592474L69.62851666666667,63.4581345104945L69.79536666666667,71.01313401513198L70.16811666666666,80.85528085467134L70.64855,73.98421636593702L70.8935,128.23529347564536L71.02485,61.00896008847755L71.35145,67.13970773267724L71.59285,63.61949041396045L71.79046666666667,70.55936287251988L71.85318333333332,73.00309373114705L71.93956666666668,76.51931756921086L72.23185,74.53660083406896L72.5052,76.11563839519386L72.82233333333333,74.44284564120451L73.52641666666666,82.77476747383177L73.90035,83.25217941870463L73.92165,80.95884725866529L74.17015,75.86425808922209L75.16415,76.24670332747L75.30733333333333,87.83797141701993L75.39253333333333,84.64226155596513L75.42448333333333,82.24260571220965L75.42921666666666,75.17717926212985L75.50376666666666,76.11477110740314L75.72623333333334,87.20312522939312L75.82090000000001,83.90370120360572L75.97118333333333,82.16831454820296L75.97946666666667,80.67956110207567L76.03153333333333,81.54933705563938L76.09425,80.60579538399705L76.70011666666666,78.56870770756025L76.87525000000001,66.12858169357368L77.35805,66.68659072382309L77.51780000000001,70.58192641037697L77.69648333333333,96.95201561658259L78.47748333333334,94.13750402419494L78.49641666666668,91.96419523100614L78.5899,87.39694028507594L79.6407,79.52818568588506L80.03948333333334,74.31348936723867L80.11876666666667,74.0481367705102L80.16491666666667,-76.80271138086204L80.32821666666668,-24.603737660925873L80.40513333333334,12.045177483280838L80.43235,35.24537884386177L80.55778333333333,53.79399819708449L80.68203333333334,43.84581172679012L80.73646666666667,49.31567733646767L81.08555,59.249528935409586L81.97305,65.62802040874958L82.06653333333333,79.29085033355156L82.21563333333333,79.28114880581205L82.84161666666667,84.62804816587044L82.90078333333334,82.68844016729528L83.02976666666666,81.02799416882114L83.06526666666666,75.78011313219396L83.80366666666666,73.64814484777142L83.99300000000001,13.71919490850945L84.17641666666667,36.93377064435788L84.28646666666667,50.34651226634891L84.96215,60.02897664939675L85.20236666666666,64.11318166830446L85.54671666666667,70.074161006373L85.6189,88.77939658723157L85.80468333333333,85.19345404046057L86.00821666666666,84.40331223495409L86.27328333333332,83.44017077080477L86.31233333333333,81.34513890023793L86.49338333333334,85.44143061798815L86.51113333333333,81.98058829260295L86.93831666666667,80.62671411825256L87.21995,80.43467076205616L87.23296666666666,80.1031912639121L87.40455,106.99270546327934L87.45661666666666,97.32934346573495L87.71340000000001,87.39242524522328L88.38553333333333,42.02811125008003L88.52279999999999,54.42468252072514L88.67663333333333,102.10027396113927L88.72988333333333,94.6595702667249L89.10499999999999,91.41025641148094L89.39373333333333,86.9023953645866L89.40320000000001,85.39994273392668L89.5949,83.32773365343968L89.65761666666667,83.05798664259551L90.3333,82.43190698233389L90.53446666666666,71.68504348366173L90.55103333333334,74.64258818856729L90.65398333333334,119.61632747293532L90.86580000000001,104.99386710253928L90.90485000000001,96.05260057342032L91.47876666666667,90.71614314766683L91.69058333333334,86.3963684185437L92.82185,83.84399240798074L92.95911666666667,87.8388091173467L93.152,84.61163435193785L93.18395,82.59911981867648L93.20406666666666,70.60263029363703L93.79691666666668,132.14439158989774L93.85253333333334,113.9183590456477L93.99571666666667,104.06776702686713L94.24185,94.53244933724716L94.27735,89.26786630684214L94.87966666666667,86.31195812749853L94.88676666666667,84.361244805147L94.9128,94.34450698628349L95.0193,89.59983728208545L95.22993333333334,82.56760634302842L96.09376666666667,81.02681265184751L96.17778333333332,88.30103555202733L96.36948333333333,85.18680423535746L96.65585,86.13705942188673L97.199,83.56016544678343L97.29366666666667,81.75691342941815L97.64511666666667,80.63212741146356L97.6818,79.71680116744552L98.06875000000001,80.29297871500782L98.24625,79.76892315597838L98.47818333333332,78.751793895175L98.8249,79.95858556476391L99.01186666666668,80.01714495585733L99.24143333333333,79.42176826454569L100.0177,84.05235189680123L100.21413333333334,73.02366531967469L100.45316666666668,74.75779908387173L100.93005000000001,77.36578326570277L101.29570000000001,76.92565604491489L101.3454,77.07264373460964L101.82583333333332,67.52406344236243L102.12048333333334,70.9100663979097L102.69913333333332,73.69352224037183L102.92278333333334,75.74841039669255L102.97603333333333,76.54758707786647L103.47184999999999,58.80531797120307L104.44573333333334,65.48499238872066L104.46703333333333,69.9454082878579L104.58181666666667,72.24491668489758L104.64216666666667,54.122557025086294L104.83268333333334,63.08221264062051L105.5202,68.39242096712815L105.53676666666667,71.59889103784525L105.85626666666667,78.24608304875571L106.16866666666667,79.10984667475657L106.26215,79.22571939496592L106.4006,79.02421087879621L107.04788333333333,78.29142188215486L107.18751666666667,78.07775583324673L107.27745,102.39953898928738L107.58393333333333,193.32438875851864L107.67978333333333,154.9430201911953L108.19098333333334,134.82441523117402L108.34008333333333,117.28300815599263L108.37085,104.17753817849945L108.50811666666668,95.45721765190007L108.75661666666666,89.03131838853223L108.81696666666666,85.71212452714397L108.84299999999999,82.90357477629794L108.88204999999999,81.65137422604072L108.91163333333334,80.18548270580035L109.2193,53.08170922022194L109.22166666666666,110.31744174339319L109.34236666666666,103.47334238159104L109.34591666666667,88.33286813970916L109.52815000000001,82.79746708845595L109.72340000000001,82.03881653123676L109.90090000000001,81.84814200073542L110.06183333333334,81.11801323858516L110.26299999999999,80.95016805523014L110.99075,79.66817576404166L111.04636666666667,79.18289131198908L111.11736666666667,77.84601374165443L111.14458333333333,76.33563772844285L111.45580000000001,73.52102031528578L112.3007,75.27946559140062L112.6202,69.87581237368113L112.97283333333333,72.85758112391221L112.99413333333332,92.69952877226926L113.0888,88.76662654813262L113.51598333333334,115.18718821753905L113.85915,117.3670696996341L114.1112,97.93746551022682L114.17155,96.01194609777329L114.34195,90.25471991782055L114.39756666666666,85.02076237211504L114.53601666666667,82.87880351296226L114.67328333333334,77.50394991218812L114.68156666666667,68.75850831725842L115.01881666666667,72.20339629164978L115.41168333333334,74.09248806461007L115.85069999999999,75.64431161056653L116.1276,74.44239833826481L116.21398333333333,75.50168687039763L116.88493333333334,77.335605336741L116.9654,-82.36355725951972L117.05651666666667,-25.21005907012494L117.07308333333333,10.074127065339042L117.11923333333333,37.396059207321144L117.1571,51.39946314557017L117.64581666666666,60.58961503439417L117.85763333333333,78.58571114623506L118.30493333333332,78.60345680867107L118.3712,87.63558578644148L118.37593333333334,85.30157309312729L118.45285,92.56786275998564L118.52976666666666,87.76000056529527L118.79601666666666,176.654285061663L118.81495000000001,142.3948343340374L118.98535000000001,120.6806630374217L119.01611666666666,27.82588424738327L119.0599,49.10558572362871L119.51311666666666,63.280403547561846L119.5356,68.42819010827004L119.6563,71.85361677005278L119.9687,74.73107453996734L120.10241666666667,72.91841645889247L120.14383333333333,74.75957439315206L121.57211666666667,76.06343254786103L121.61234999999999,75.75575973173284L121.70583333333333,76.72453914425871L122.20046666666667,77.22051845890319L122.78621666666666,77.68663100076755L123.30096666666667,79.57570527366504L123.55183333333333,79.6766940521357L123.77903333333333,79.9172470747753L123.87961666666666,90.75151987993259L124.03581666666666,87.33620953396246L124.35650000000001,83.84784618067283L124.45116666666667,79.66950455681857L124.85231666666667,79.34175231381813L124.889,77.99324361768078L124.92805,78.22672721906672L125.06295,71.93406652866157L125.1375,74.24166704430762L125.45108333333333,77.29147391911968L126.35751666666667,88.02895585359904L126.45809999999999,84.33841723657419L126.62731666666666,82.38890239950797L127.08290000000001,81.32313461492309L127.15035,77.33883703994057L127.40595,71.24555080476621L127.59883333333333,67.64293091691061L127.9633,70.28987196465042L128.59875,73.15835821483654L128.7656,74.97366005944833L129.29455000000002,76.91328241839146L129.39513333333335,77.97462459547648L129.41406666666666,97.38459442788955L129.8661,90.62376228783735L130.1359,86.53508563918174L130.20926666666668,83.75333967865389L130.4483,81.87969979006044L130.70035000000001,49.799881747129305L131.46241666666666,59.66601719222527L131.70618333333334,60.98972942901611L132.08958333333334,67.45306654124488L132.11325,68.32256237010517L132.1168,71.48479332123833L132.21738333333334,73.6858339766347L132.22093333333333,85.67037989729555L132.67651666666666,34.60915677847845L133.39716666666666,74.76879750418239L133.46698333333333,76.04953464238403L133.86695,77.08933858930874L133.98173333333332,77.62243061568476L134.2752,77.97769799270684L134.78403333333333,79.14102146082251L135.53545,84.1796547552453L135.82891666666666,83.344982443726L135.95553333333334,81.34856479621219L136.15196666666665,77.86592434291194L136.30225000000002,78.33513512809773L136.46436666666665,78.47045531415091L136.53063333333333,78.26641984620171L136.5685,128.50027693563098L136.65251666666666,129.33862219678602L137.10218333333333,112.15121530768486L137.2075,100.75896593545372L137.23471666666666,91.62943738841084L137.62403333333333,87.13210819894961L137.90093333333334,84.16327463282612L137.97785,77.5406101976602L138.63578333333334,60.083371902202316L138.71861666666666,66.5534367077597L138.94344999999998,70.67272469400737L139.15645,73.32584948246264L139.39311666666666,114.99216131843156L139.48778333333334,71.64718143855372L139.61795,74.47670435452132L139.88538333333335,75.95491994977688L140.11258333333333,76.8989495201504L140.19541666666666,77.48649203017902L140.2534,77.97761730232584L140.88293333333334,69.10509377042426L141.41661666666667,72.40651023701386L141.54205,74.35987970211684L141.54441666666665,75.80518797985164L141.86391666666668,98.06868420847213L142.67095,91.70787173212942L142.69816666666668,87.13695245598228L142.88986666666668,80.16245979622553L143.01648333333333,96.9822711122698L143.0863,90.6375804215102L143.18096666666668,186.57646778124794L143.26971666666665,153.02062012695103L143.36793333333333,128.15018142192082L143.46141666666665,111.48151312959389L143.58093333333335,100.28997989013921L143.69453333333334,92.73113175871458L143.775,213.29158780121844L144.27673333333334,167.73639161780542L144.3004,137.28905548820703L144.73113333333336,117.29155735578274L144.97016666666667,99.14627044010211L145.00803333333334,163.99181165458074L145.07193333333333,134.94074310758987L145.17843333333334,115.84395343134808L145.40918333333335,108.22956369485661L145.44586666666666,97.8008027525899L145.51095,99.11925799930331L145.55236666666667,98.96788412767248L145.5642,92.00122759457275L145.79495000000003,87.07917067305453L146.16296666666668,84.21001809391691L146.6718,82.29964933676094L147.06111666666666,80.91704958915398L147.12975,69.35625928817383L147.56758333333332,73.0294003690231L147.70721666666665,75.52277522066144L147.77821666666665,77.39041540912369L147.79478333333333,81.49853182259642L147.81253333333333,79.5472532205107L147.82791666666665,80.53968590522136L148.02790000000002,80.01776437832004L148.43141666666668,77.36639900735257L148.63968333333332,77.7719306711577L148.83375,156.76702714486785L148.85031666666669,129.07903743036837L149.34968333333333,111.88147394888588L149.41713333333334,101.02091217253255L149.56268333333335,93.90227888265383L149.77095,88.66359401285587L149.88928333333334,85.00067048905525L150.4064,84.53817075596484L151.18858333333333,82.44840127020878L151.27496666666667,84.22081415838271L151.99916666666667,82.15349394647095L152.16128333333333,80.88118548360256L152.93755,79.86811290160833L152.93873333333332,83.56073929756057L153.00736666666666,79.96132864725443L153.24403333333333,78.97668602512204L153.62388333333334,80.8322030441891L153.9090666666667,75.73722428265953L154.06053333333332,77.14032109437532L154.09958333333333,77.655097653106L154.32915,78.34433638966003L154.52795,72.5735793601921L154.59303333333332,76.44149505057509L154.70663333333334,78.55865741479059L155.24741666666668,73.3442112876679L155.29593333333332,75.36727704968509L155.40006666666667,76.42508846016433L155.66276666666667,78.14295343758687L155.84381666666667,79.14519505645669L156.1006,78.89980574175904L156.75735,78.67579262980138L156.98691666666667,78.62730528306776L157.03306666666668,78.66790410601071L157.26855,76.94261463785827L157.76555,70.84791010917303L158.0815,73.53008057535665L158.26136666666665,75.28525204276376L158.54418333333334,76.44753559275857L158.91338333333334,76.97325185057817L159.11100000000002,77.36215380291682L159.53818333333334,78.56182058165678L159.86478333333332,78.45750636188798L159.9275,78.81913839628928L160.34994999999998,79.83924606190541L160.36415,82.69159753772256L160.65643333333335,81.07760672368224L160.79015,81.09978305326827L160.98066666666665,302.6665116143005L161.08716666666666,226.4619199367266L161.47056666666668,176.30990830021213L161.7309,143.04866209926368L161.77586666666667,115.81339515029815L161.86106666666666,101.76195894782168L161.90721666666667,105.15504138319609L162.13678333333334,96.65488045510065L162.15335000000002,90.16212702350573L162.17346666666666,82.34157298602123L162.30126666666666,81.07845130451186L162.86926666666668,80.24052982263498L163.0941,79.70784899536609L163.23136666666667,79.31393118401022L163.4917,78.65912888945908L163.52601666666666,77.64936634613741L164.07153333333332,80.42382342895887L164.37565,79.57129302166251L164.40996666666666,63.70267064032902L164.48215000000002,69.43553048479555L164.84188333333333,79.98214521339813L165.04068333333333,78.80353159156833L165.643,86.75109514629125L167.07838333333333,83.90954105790708L167.07956666666666,81.58682382736036L167.24405000000002,81.9314332269933L167.27955,80.26929498073034L167.32806666666664,74.66149965837931L167.83926666666665,75.35185002565753L167.88896666666668,76.47750511558591L168.2771,77.24786103060244L168.77055000000001,77.68226540619683L168.78475,53.5578829108954L168.909,73.6024677879736L169.29831666666666,76.02757356732118L169.9385,76.67598942256528L169.96689999999998,76.210465150745L170.00594999999998,76.9487552655416L170.52306666666667,75.71932151944607L170.63430000000002,73.0003696086563L171.03071666666665,69.9038675411232L171.30051666666665,71.89740526692161L171.36915000000002,74.19869695069073L171.6354,77.63260806396315L171.92768333333333,78.01586012296006L173.29325,78.23105131813564L173.58079999999998,76.64752468398143L173.87426666666664,77.36220113928661L173.93698333333333,80.26980053585825L174.06596666666667,79.53204440131395L174.22335,81.68538290471875L174.44108333333335,80.64815363409939L174.59255,79.97454774168648L174.70496666666668,78.35828451201083L174.8801,78.27862626613309L174.91796666666664,77.1977140440419L174.99014999999997,79.46692766391807L175.01145,80.66509003753222L175.26705,80.15181272599774L175.49425000000002,81.81308530585594L175.61731666666665,80.71381248309928L176.14271666666667,168.5393176106742L176.49061666666668,137.98463492820915L176.69414999999998,112.17920014085341L176.79828333333333,143.41115859650074L176.81248333333335,125.47725276804616L176.82195000000002,127.78821916454424L176.91188333333332,109.1750816938871L176.96276666666668,97.91232655171919L177.41243333333333,93.8299058427223L177.5852,88.20489886635279L178.33306666666667,83.24129535942541L178.59695,81.68645858935669L179.26553333333334,80.61022730071436L179.27855,79.45848918305984L179.48918333333333,79.19718341732298L179.55308333333332,79.22291200556927L179.7211166666667,79.12359506848699L180.66778333333335,78.99155546869073L180.95178333333334,78.88227024180395L181.29495000000003,81.65195320662642L181.42748333333333,80.7090575300053L181.67598333333333,78.82528186987646L181.76118333333335,78.54436943357658L182.06885,52.56580390235595L182.24280000000002,61.43919311732745L182.67945,84.11610605824649L182.69483333333335,82.25885012051995L182.79541666666668,82.58146177501989L183.2723,81.2095619206214L183.39773333333335,80.50453226832677L184.1456,79.88603440918334L184.44971666666666,79.46661270079696L184.8485,79.58593801120342L184.9325166666667,79.27336481790405L185.02481666666668,78.97042469303545L185.39756666666668,79.7380728887487L185.40348333333333,78.79102300221219L185.42123333333333,78.74829328566716L185.81173333333334,78.72994517257212L185.84959999999998,74.97637682865523L186.08271666666667,78.14391227405673L186.35488333333333,77.16686985997188L186.4531,77.67678348483264L186.47558333333333,87.6904912316071L186.59746666666666,84.51509617506495L186.92761666666667,82.38077889783567L187.49325000000002,82.6557022179289L187.52638333333334,80.90303435066407L187.62815,80.33110715803599L188.079,94.7608577039409L188.45648333333335,87.55789935425271L188.62806666666668,84.56896005020867L188.6825,84.38748861203173L189.30493333333334,82.48222126380868L189.35226666666665,80.86475148963419L189.38776666666666,80.23622814337642L189.39960000000002,75.18387839201442L189.48953333333333,109.19303514741075L189.5297666666667,99.15520393189301L189.63271666666665,92.0992151345676L189.66940000000002,88.33949331496123L190.2220166666667,84.97493163959736L190.50483333333332,82.94362299841322L190.78055,83.06065046370632L191.52723333333333,81.56184455768805L191.56983333333335,76.8690717915785L191.68461666666667,84.54091567099695L191.93311666666665,82.3567245533593L191.9343,83.0930666716544L192.28811666666667,79.85632790200292L192.58986666666667,77.52444629378884L192.75671666666668,77.07836487720536L193.1046166666667,77.5308362917516L193.28921666666665,77.47822565595882L193.45843333333332,75.90240569638196L193.5602,77.526523875704L193.79213333333334,88.49071120992996L193.82171666666667,85.1868159451577L193.97081666666668,82.60230943656767L194.05365,185.13732865496365L194.33528333333334,149.52102559559262L194.4051,125.51425040478271L194.54591666666667,94.63163630119705L194.69265000000001,89.20368731456753L195.9884,85.65041292781605L196.09253333333334,83.35243959180806L196.13868333333332,398.6509215612065L196.80371666666667,221.62167993337886L196.90666666666667,173.01679155216348L197.25811666666667,121.51518543691023L198.05095,102.40170292075659L198.19886666666665,95.58790084531587L199.02483333333333,99.08809748366524L199.14198333333331,92.13774568794976L199.30291666666668,87.55852039686972L199.44728333333333,71.31987559856185L199.51591666666667,74.76376401049792L199.59756666666667,76.09005061548493L199.6023,76.88133723246358L199.72181666666668,77.48641002509741L199.82358333333335,80.3044866954811L200.50755,82.06260631684941L200.64126666666667,80.89276171113129L200.79273333333333,80.17226614772817L201.03295,79.447619928313L201.0933,79.13670610406217L201.17495,78.61225961802674L201.17968333333334,78.82823001808572L201.80329999999998,77.49039788976795L201.82578333333333,52.639400504404506L201.92045,65.17834415760335L202.06481666666667,53.335426995750495L202.18906666666666,64.02886233109582L202.40088333333333,68.87295864842856L202.41745,72.14000983370443L202.46005,74.33417999610113L202.50856666666667,76.09122208297399L202.6198,90.19370143012699L202.67778333333334,86.27454431234908L202.79256666666666,83.68639506920788L202.89078333333333,80.3373680470014L202.99373333333332,79.27489415662063L203.01503333333335,79.64500805842714L203.17478333333332,79.3695210562499L204.1534,79.88609603229582L204.44095,80.49496255962607L205.37578333333332,78.40313269176134L205.45506666666668,80.19103259742768L205.52725,88.5356160429551L205.95325,85.8791863640255L206.5177,83.00858255312667L206.6869166666667,81.53335011494173L207.30816666666666,79.71229180671004L207.40046666666666,79.35221135914452L207.77558333333334,122.55492562729205L207.93651666666668,106.89988351127789L207.95426666666665,97.37443249078106L208.6335,90.43761850288756L208.73171666666667,91.56286207405948L209.03938333333335,87.1788133196367L209.24528333333333,84.20632866446851L209.33166666666665,95.09909181674608L209.50443333333334,89.41123727047403L209.52691666666666,87.40835507601909L209.60501666666664,84.44628110135534L209.79553333333334,270.9886764911737L209.90321666666665,206.43009286669948L209.9600166666667,163.89904559765478L210.1884,135.28238673306143L210.40849999999998,116.03666056899198L210.5481333333333,103.32939448709637L210.6286,98.8873456035905L210.68303333333333,92.16565725043321L211.46048333333334,87.62078617527172L211.64508333333336,84.37187237072037L211.79891666666668,82.42992191701583L211.98706666666666,81.14396837766466L212.30065,80.31110754252305L212.43554999999998,79.75192135096093L212.73966666666666,71.7425798398607L213.24021666666667,74.45524505342077L213.29938333333334,75.8977809112871L213.5029166666667,76.86089417111428L213.5467,76.8497564915739L213.83898333333335,91.17234075504429L214.13008333333332,87.36682087862499L214.37266666666667,85.88658839420918L214.4058,84.42009685736154L214.61524999999997,82.338722093817L215.30868333333333,81.13588856328634L215.3359,80.57097151860332L215.53588333333332,103.59627887378062L215.53706666666668,95.02259025136034L215.61161666666666,91.63998981441264L215.70865,84.13885993821059L215.86129999999997,98.83318891824622L215.92874999999998,91.98495070795387L216.05773333333335,90.78185598095965L216.14175,102.86520160443456L216.3015,94.63676383197955L216.70265,89.75184861486336L216.90144999999998,101.98338245748499L217.68245,94.05658923763355L217.8209,89.69794031365655L218.47055,85.947291559635L218.70366666666666,126.60255972861702L218.751,110.30256820795265L218.89655,99.51431562298579L219.46573333333333,92.59072029320839L219.6243,87.15463213122906L219.86451666666667,60.602768182735005L220.09763333333333,54.91828032035335L220.45381666666665,62.937267924575636L220.48103333333336,85.04667011126965L220.7082333333333,82.91032114555637L221.13068333333334,81.46751046168345L221.2218,80.446492288152L221.46083333333334,80.12513060884763L221.56141666666667,79.62925538022571L221.69276666666667,86.77866046295074L221.75311666666664,84.20153100378673L222.04658333333333,82.31967619254246L222.51163333333335,82.70415847331857L222.68085000000002,112.99209728706063L222.92816666666667,101.32139483900896L223.1175,111.13298320130447L223.31985,100.42300553087067L223.49261666666666,93.02651206672837L223.50563333333332,88.2481988714375L223.65828333333332,84.98588889137002L223.68195,71.8615447423335L224.03340000000003,74.59296432727318L224.30675000000002,75.73680854323005L224.6156,76.67425598073217L224.6842333333333,77.95839252842485L224.79073333333332,87.54906666288966L225.05698333333333,84.53992821583417L225.42026666666666,82.6501951272496L226.26871666666668,75.0677031845289L226.75151666666667,74.77151189230271L226.79766666666666,78.16296254280584L226.8095,78.33634154511584L227.47453333333334,77.94237580408546L227.69344999999998,106.27760979708562L228.35138333333333,95.76183567309388L228.49456666666669,89.95478162644055L228.59041666666667,86.1200976991571L228.60816666666668,85.54283742517583L228.7336,83.20484417425425L228.94068333333334,81.44131426658267L229.04245,80.57248254546717L229.2661,78.79159664743412L230.05775,78.78661045853814L230.33346666666668,78.74653432514285L230.65888333333334,80.03252510915071L230.88135,77.44543684398447L230.95235,73.6314371072025L231.07423333333335,50.116513359966746L231.19848333333334,59.81549065780409L231.4032,66.22475255342376L232.03036666666668,79.07213927801405L232.25283333333334,79.03952195133844L232.2694,78.91310231045637L232.28715000000003,67.19161303582585L232.36998333333332,63.83551105092215L232.6244,65.75535609570109L233.21843333333334,73.10835561859602L233.92843333333334,74.53450077577584L234.0373,75.06669645238162L234.1864,69.1757986153229L234.52838333333332,72.35835189050437L235.08336666666668,71.70633484573324L235.09046666666666,76.59379455894L235.13070000000002,79.47580941425608L235.28453333333334,83.08035441138863L235.68213333333333,81.57929243815741L235.71645,79.24848788518756L236.02648333333335,77.80989960273872L236.08446666666669,78.13896958144431L236.28918333333334,121.51707290007542L236.62761666666668,106.72549348394031L237.0406,117.01257680804699L237.07610000000003,103.97507209260291L237.38258333333334,72.89735305714764L237.9091666666667,77.31476388652507L237.9139,77.84149241069504L237.97898333333333,78.86012721638038L238.16713333333334,78.81302067279982L238.20263333333335,78.76945547087323L238.3257,89.34275122367738L238.39906666666667,85.71290282732144L238.60378333333333,92.45464179888458L239.13746666666665,87.38275542175829L239.62855,84.2174453592596L240.02259999999998,83.7662602387524L240.0865,81.69326124837778L240.15158333333335,79.50585952749368L240.1575,44.66808217338067L240.48291666666668,56.22756679628857L240.53853333333333,48.239291053327065L240.54090000000002,60.93023888351125L240.79295,67.19847693037347L240.92548333333335,70.2340251124332L241.17635,71.69815791277523L241.30769999999998,71.8619058300035L241.31953333333334,74.36206486346755L241.5775,75.82592724745793L242.28276666666667,27.227234075569243L242.2946,47.59690233063506L242.37743333333333,59.32845022235904L242.65315,65.90362644838096L243.31226666666666,65.51060053474595L243.77376666666666,82.75384621924307L244.04238333333333,80.85500289348943L244.05776666666668,79.99887705891351L244.30626666666666,78.91566208629412L244.4033,78.83076932434788L244.58198333333334,94.01063742147886L244.61511666666667,89.2870201236059L244.86243333333334,85.67581393507976L244.99141666666668,83.28396925140407L245.05768333333333,81.72141807964688L245.11685,80.68376404391489L245.12986666666666,79.97542306301335L245.66118333333333,98.84619443676317L245.74875,91.9427143361614L246.06706666666668,87.43075210212359L246.1215,84.58811326751658L246.21734999999998,84.08910380054017L246.57945,83.25310413599274L247.59120000000001,77.55676855558926L247.61605,24.732953574496037L247.62433333333334,43.070189148189L247.65155,55.178727337632864L247.69888333333333,63.01309058753991L248.00181666666668,68.35996154397618L248.17458333333335,72.09387034459404L248.41835,188.7312281297356L248.4219,151.31067418448538L248.76388333333333,126.61247343123961L248.90115,106.38986074977781L249.02421666666666,95.49782404681464L250.37676666666667,80.61800287436522L251.12226666666666,81.48410461836966L252.405,80.33124151909146L252.44523333333333,78.22210025790139L252.64995000000002,72.44211497408003L252.91738333333333,74.56043471843486L252.95998333333333,77.01485506368L253.67708333333331,77.69640545426849L253.78595,78.35403976656663L253.96936666666667,79.52643439312439L254.36696666666666,79.2404738561581L254.75155,73.83766822969302L254.7693,71.26137025982693L254.89118333333334,74.2558994394545L255.0249,75.91378310511612L255.15033333333332,76.86837371557834L255.4935,77.47581419508681L256.1881166666667,64.39083460674958L256.46028333333334,76.58030994163097L256.51945,77.28969697204495L256.79043333333334,77.77871631680391L256.93598333333335,85.45682761842991L257.0495833333334,74.36606451443323L257.6436166666667,83.31405901409373L257.8672666666667,81.7349125702954L258.2057,77.9597145030352L258.45301666666666,76.32629762266961L258.9748666666667,78.00556270935064L258.9796,75.38539346078267L259.4576666666667,76.50264024473213L259.4908,85.1637359520436L259.93455,82.69116375283878L259.93809999999996,81.2751790833701L260.08365,74.03167808716212L260.22565000000003,75.4828874407115L260.3333333333333,76.56488778302104" style="fill: none;" fill="none"></path></g></g></g></g><g opacity="0.2"><g><g><g><path stroke="rgb(255, 112, 67)" stroke-width="2px" d="M23.71755,76.18961927915613L23.865466666666666,76.38319368598363L23.938833333333335,192.746142466863L24.22875,42.45596639315286L24.302116666666667,70.61935449143252L24.353,81.03989817326269L24.361283333333333,79.08996423364928L24.433466666666668,70.06732311844826L24.62398333333333,150.29142918189368L24.86775,120.03083588679632L25.24523333333333,67.70787001401186L25.306766666666665,110.29826171199481L25.367116666666668,70.9061231414477L25.71975,229.4974375963211L25.723300000000002,75.04857394347589L25.888966666666665,-102.70862209796906L26.3978,525.8773687680562L26.494833333333332,82.33599146952233L26.608433333333334,55.097734078764915L26.609616666666668,60.27719271183014L26.8451,86.14394722630581L27.490016666666666,54.11887518564859L27.508950000000002,117.26895731687546L27.578766666666667,2.4206017653147285L27.94915,141.06449119249982L27.951516666666667,41.765511403481156L28.7763,114.63244817654291L28.87451666666667,766.2176572481791L28.983383333333332,73.29700139164925L29.0035,114.28969261050224L29.5502,-38.96319635709125L29.74308333333333,84.76408785333236L29.992766666666665,-45.13946064313251L30.440066666666667,84.0358993175129L30.6578,-11.956288496653258L30.756016666666664,60.80686976015568L31.004516666666664,77.94637260617067L31.595,49.44289144873619L31.609199999999998,-442.70670541127527L31.778416666666665,112.99998757243156L31.91095,78.71566507449218L32.1346,88.61905787885189L32.49551666666667,55.15102780858676L32.499066666666664,161.84501043955484L32.89548333333333,90.979166696469L32.9369,115.3671106894811L33.21261666666667,110.67550412813823L33.347516666666664,-75.86568502585095L33.396033333333335,3.582100590070098L33.723816666666664,92.85410490632057L33.73565,90.69277755419414L34.17348333333334,82.61023563146591L34.24093333333333,189.2060122092565L34.62551666666667,42.6225922703743L34.871649999999995,131.39913531144458L34.973416666666665,114.30661074320474L35.143816666666666,98.81223576267561L35.973333333333336,-367.0681107838949L36.068,95.6911494533221L36.118883333333336,67.62757921715578L36.5721,76.1988353462269L36.644283333333334,260.0309247970581L36.70818333333334,100.27726165453593L37.314049999999995,106.89937573671341L37.354283333333335,192.21067023277283L37.83116666666667,-18.891368985176086L37.83708333333334,104.13666488726933L38.06191666666667,-115.33016451199848L38.211016666666666,68.94918268670638L38.905633333333334,-248.09375294049585L39.12336666666667,-146.62253824869788L39.78485,42.80462117989859L40.58241666666667,62.224401503801346L41.02498333333333,27.15988200902939L41.156333333333336,265.97076308727264L41.26756666666667,34.58368934194246L41.97756666666667,70.1413271278143L42.32191666666667,-79.7517739534378L42.73845,-106.09880137443542L43.6153,92.26784603794417L43.86261666666667,338.3241159915924L44.42706666666667,-51.24523905913034L44.44363333333333,78.05009361015013L45.501533333333334,-0.47424225012460397L46.77953333333333,93.84812066455683L46.908516666666664,-176.8256573677063L47.0162,61.61238006750743L47.328599999999994,25.375773628552764L47.39723333333333,57.90489422281584L47.40788333333333,129.94527192910513L47.62325,75.33078850060701L47.71673333333334,95.61018096407254L47.855183333333336,61.6718646089236L47.97233333333333,27.79031616449356L48.018483333333336,12.87476521730423L48.25633333333333,76.48876607231796L48.259883333333335,-25.987958590189606L48.346266666666665,55.762284368276596L48.612516666666664,-43.237643321355165L48.68825,35.38788236180943L48.79238333333333,74.3028745688498L48.89533333333333,73.85729914655289L49.52131666666667,85.19229566802582L49.991099999999996,141.0305377046267L50.091683333333336,241.8424990971883L50.12481666666666,301.6986357371012L51.04781666666666,95.69144104421139L51.05965,82.14414151509602L51.222950000000004,11.74738985300064L51.3117,64.08365388214588L51.3898,239.56943821907043L51.523516666666666,81.84002247452736L51.67735,54.52051745851834L51.71403333333334,855.9839506149292L52.2418,92.33422032992046L52.40155,217.54293791453043L52.40391666666667,62.633946036299065L52.448883333333335,59.238365734616906L52.8027,-101.24118435382843L52.928133333333335,79.64360915559034L53.17308333333333,78.24556459408873L53.55056666666667,362.6515292326609L53.71386666666666,85.10970804343621L54.21205,-41.67233653863269L54.25346666666667,-52.929362535476685L54.34103333333333,63.81889668107033L54.79306666666667,18.225162049134582L55.377633333333335,-39.07768754164377L55.378816666666665,101.0983039389054L55.80008333333333,78.86295344571894L56.21543333333333,78.69542324409122L56.3314,324.2440799077352L56.37281666666667,82.60706403106451L56.594100000000005,85.25912712762754L56.70178333333333,78.2917983031366L57.31948333333334,78.6059998840016L57.443733333333334,77.3148261193807L57.94901666666667,110.06343287229538L57.97978333333333,76.72152501965563L58.05788333333333,165.8012687365214L58.222366666666666,67.55892568081617L58.29573333333333,71.83755895247063L58.541866666666664,70.29249942054352L58.70753333333333,101.24179156621297L58.9655,102.3730675081412L59.173766666666666,78.71957697942464L59.20453333333333,152.01852641503015L59.37375,78.668999211873L59.5548,82.20395574470362L59.724016666666664,93.09582789242268L59.892050000000005,65.25571005543074L60.00328333333333,151.80139523744583L60.019850000000005,89.62184041241805L60.83161666666667,1.502152005831391L60.875400000000006,-0.4503523111343384L61.392516666666666,8.291261216004699L61.458783333333336,74.73704204708338L61.779466666666664,155.1304488579432L62.04926666666667,77.46679048798978L62.17588333333334,20.58388324578604L62.31196666666667,78.81987458937026L62.43621666666667,436.4872657457987L62.59241666666667,115.2067708671093L62.60188333333333,-29.30228320757547L62.75808333333333,394.0343518257141L62.93203333333333,90.47958285361528L63.16159999999999,88.59964144229889L63.19473333333333,68.22579770783582L63.58996666666666,183.39629085858664L63.60416666666667,85.09477536628643L63.646766666666664,100.14496437708537L63.71066666666667,79.30672208514684L63.75445,117.22177527348201L63.79823333333333,-86.28571915626526L63.94378333333333,63.35995020469031L64.32955,85.21131208290657L64.52243333333332,163.4515033364296L64.61,-43.54448485374451L65.47856666666667,215.90189369519553L65.50341666666667,93.92876972258091L65.65606666666666,81.91036181648573L65.99686666666666,79.20793898605432L66.21223333333333,76.6548060203592L66.31163333333333,53.57129387060802L67.01216666666666,302.8140544096629L67.04766666666667,108.01229757070541L67.17546666666667,74.6173784211278L67.27368333333334,78.66962762185601L67.69021666666667,60.10520097613335L68.02983333333334,163.51323854923248L68.35525,67.23049176981051L68.48778333333334,72.3432339678208L69.17293333333333,-95.58025348186493L69.48651666666667,78.66670838792632L69.62851666666667,100.79647513230641L69.79536666666667,85.67872128883998L70.16811666666666,99.96062471965949L70.64855,60.6462676525116L70.8935,233.54620786507925L71.02485,-69.48921648661295L71.35145,79.04057080671191L71.59285,56.786127383510276L71.79046666666667,84.03087999795875L71.85318333333332,77.7468065743645L71.93956666666668,83.34492854898174L72.23185,70.68779775997004L72.5052,79.18082895502448L72.82233333333333,71.19565970698993L73.52641666666666,98.94849809010823L73.90035,84.17892025286953L73.92165,76.50708483035366L74.17015,65.97476146618526L75.16415,76.98909702524543L75.30733333333333,110.3386682967345L75.39253333333333,78.43882476685879L75.42448333333333,77.58445025080195L75.42921666666666,61.461939682563155L75.50376666666666,77.9348023364631L75.72623333333334,108.72757734855016L75.82090000000001,77.4989369182537L75.97118333333333,78.79962280536225L75.97946666666667,77.7896279419462L76.03153333333333,83.23772567138076L76.09425,78.77421449198543L76.70011666666666,74.61436104153594L76.87525000000001,41.98010178407034L77.35805,67.76978472371897L77.51780000000001,78.143460390158L77.69648333333333,148.14101231098175L78.47748333333334,88.6740403448542L78.49641666666668,87.74541933834553L78.5899,78.53109244885854L79.6407,64.25354440510273L80.03948333333334,64.19084357221922L80.11876666666667,73.53304055333138L80.16491666666667,-369.6308283805847L80.32821666666668,76.72368191306789L80.40513333333334,83.18718923379977L80.43235,80.28106383793056L80.55778333333333,89.80014164745808L80.68203333333334,24.53462622563046L80.73646666666667,59.933651755253464L81.08555,78.53288792159098L81.97305,78.00979797464484L82.06653333333333,105.81281430522601L82.21563333333333,79.26231642843534L82.84161666666667,95.00732339421909L82.90078333333334,78.92331875829647L83.02976666666666,77.8047754659007L83.06526666666666,65.59304994344711L83.80366666666666,69.50961817800999L83.99300000000001,-102.61347262064618L84.17641666666667,81.99735883747539L84.28646666666667,76.38301070903739L84.96215,78.82434868707787L85.20236666666666,72.04134435206652L85.54671666666667,81.64547383909425L85.6189,125.08955977360408L85.80468333333333,78.23250674378748L86.00821666666666,82.86950755367677L86.27328333333332,81.57054322275023L86.31233333333333,77.27831232796113L86.49338333333334,93.39305571715038L86.51113333333333,75.26248260214925L86.93831666666667,77.99860542686656L87.21995,80.06188071767488L87.23296666666666,79.45973106163244L87.40455,159.1899977326393L87.45661666666666,78.57105252932524L87.71340000000001,68.10311340540648L88.38553333333333,-46.03202768166858L88.52279999999999,78.48861498727153L88.67663333333333,194.64701028664908L88.72988333333333,80.21585133050878L89.10499999999999,85.10276481012504L89.39373333333333,78.15184156767404L89.40320000000001,82.48341703911622L89.5949,79.30521014425904L89.65761666666667,82.53436009213328L90.3333,81.2165758771201L90.53446666666666,50.82348492741585L90.55103333333334,80.38370438044271L90.65398333333334,206.9182919661204L90.86580000000001,76.60909108941755L90.90485000000001,78.69602436983646L91.47876666666667,80.35713755649824L91.69058333333334,78.01092335612825L92.82185,78.88938015218203L92.95911666666667,95.59345331788063L93.152,78.34711863085008L93.18395,78.69247395999264L93.20406666666666,47.315327097972244L93.79691666666668,251.60781057675678L93.85253333333334,78.53841351857409L93.99571666666667,84.94602957864602L94.24185,76.02271499857306L94.27735,79.04838160076179L94.87966666666667,80.57401872053742L94.88676666666667,80.57456600293517L94.9128,113.72378063201904L95.0193,80.38959609158337L95.22993333333334,68.91680510838827L96.09376666666667,78.03586019249633L96.17778333333332,102.42158588767052L96.36948333333333,79.14153167946886L96.65585,87.98167243103187L97.199,78.5579594951123L97.29366666666667,78.25648304276788L97.64511666666667,78.44871925896345L97.6818,77.9399913996458L98.06875000000001,81.41144101321697L98.24625,78.75163883550947L98.47818333333332,76.77736650655667L98.8249,82.30118115867178L99.01186666666668,80.13081906797986L99.24143333333333,78.26603704023485L100.0177,93.04113188882668L100.21413333333334,51.6150384346644L100.45316666666668,78.12405874378359L100.93005000000001,82.42834079513948L101.29570000000001,76.0712914398561L101.3454,77.35797277931124L101.82583333333332,48.98858405152956L102.12048333333334,77.48289566456029L102.69913333333332,79.0967012286807L102.92278333333334,79.7373109354327L102.97603333333333,78.09893004720409L103.47184999999999,24.36444264650345L104.44573333333334,78.45141919919601L104.46703333333333,78.60386268030076L104.58181666666667,76.70866827915111L104.64216666666667,18.943858861923218L104.83268333333334,80.47448530606925L105.5202,78.70047242446647L105.53676666666667,77.82321529276669L105.85626666666667,91.14945577581723L106.16866666666667,80.7865643016994L106.26215,79.45064879301935L106.4006,78.63304728858445L107.04788333333333,76.86894912396868L107.18751666666667,77.66299232654274L107.27745,149.61241217454275L107.58393333333333,369.82556772232056L107.67978333333333,80.4380106193324L108.19098333333334,95.77065266172092L108.34008333333333,83.23204148064058L108.37085,78.73750822218912L108.50811666666668,78.52953662967775L108.75661666666666,76.55751393611233L108.81696666666666,79.26898350209618L108.84299999999999,77.45168408347914L108.88204999999999,79.22063198142375L108.91163333333334,77.33992857827495L109.2193,0.46850186586380005L109.22166666666666,221.42209899425507L109.34236666666666,90.18773773809275L109.34591666666667,58.942535787820816L109.52815000000001,72.0522768124938L109.72340000000001,80.56614192016423L109.90090000000001,81.47800908858578L110.06183333333334,79.70070446499933L110.26299999999999,80.62435093459985L110.99075,77.17960249291113L111.04636666666667,78.24086855212227L111.11736666666667,75.2508984580636L111.14458333333333,73.40373134985566L111.45580000000001,68.05735121915738L112.3007,78.6929181862118L112.6202,59.38636789222559L112.97283333333333,78.64572046259612L112.99413333333332,131.21625067790347L113.0888,81.13216928951442L113.51598333333334,166.4741608699163L113.85915,121.59860434134802L114.1112,60.2211750249068L114.17155,92.27417312065761L114.34195,79.0789279214417L114.39756666666666,74.8607271363338L114.53601666666667,78.72088337460687L114.67328333333334,67.07041056950888L114.68156666666667,51.78206286827724L115.01881666666667,78.89053177135065L115.41168333333334,77.75954856506237L115.85069999999999,78.65667496448198L116.1276,72.10927257438502L116.21398333333333,77.5579528445378L116.88493333333334,80.89556471258402L116.9654,-392.3678140640259L117.05651666666667,85.7349668269356L117.07308333333333,78.56695897535732L117.11923333333333,90.43275101234515L117.1571,78.58254137864182L117.64581666666666,78.42932164211138L117.85763333333333,113.51930948098502L118.30493333333332,78.63790427104686L118.3712,105.16854203740756L118.37593333333334,80.77084257081151L118.45285,106.67301328976949L118.52976666666666,78.42709159913163L118.79601666666666,349.2137784957886L118.81495000000001,75.8911946862936L118.98535000000001,78.52962463810886L119.01611666666666,-152.4216275215149L119.0599,90.41324153045814L119.51311666666666,90.79622638225555L119.5356,78.42095225552718L119.6563,78.50297440763097L119.9687,80.31672785803676L120.10241666666667,69.39972724268834L120.14383333333333,78.33358685377364L121.57211666666667,78.59445131876662L121.61234999999999,75.15851250042519L121.70583333333333,78.60511094504423L122.20046666666667,78.18330183438957L122.78621666666666,78.59143769968068L123.30096666666667,83.24273180340727L123.55183333333333,79.8727310926964L123.77903333333333,80.38420294225216L123.87961666666666,111.78275532523791L124.03581666666666,80.7064894506087L124.35650000000001,77.07631731840472L124.45116666666667,71.55860611051321L124.85231666666667,78.7055273715232L124.889,75.37555026635528L124.92805,78.67996009234534L125.06295,59.71890165905158L125.1375,78.721126868797L125.45108333333333,83.21168726434311L126.35751666666667,108.8723031381766L126.45809999999999,77.17443050940832L126.62731666666666,78.60455006873235L127.08290000000001,79.25429126837602L127.15035,69.6046123355627L127.40595,59.41740693648657L127.59883333333333,60.64960995813212L127.9633,75.42805164555709L128.59875,78.72659622990372L128.7656,78.49748128722422L129.29455000000002,80.67843170339863L129.39513333333335,80.03487705687682L129.41406666666666,135.0627711613973L129.8661,77.49979401597133L130.1359,78.59824273296788L130.20926666666668,78.35347987292334L130.4483,78.24263412396733L130.70035000000001,-12.472706218560546L131.46241666666666,78.81792717388211L131.70618333333334,63.55928847690423L132.08958333333334,79.99954446498305L132.11325,70.01040721436343L132.1168,77.62324163814387L132.21738333333334,77.95844230769823L132.22093333333333,108.93449844916661L132.67651666666666,-64.50968809922537L133.39716666666666,152.7257471481959L133.46698333333333,78.53567144006956L133.86695,79.10778154510385L133.98173333333332,78.65725631394405L134.2752,78.66733466574973L134.78403333333333,81.39923760481179L135.53545,93.9605311503013L135.82891666666666,81.72473619195323L135.95553333333334,77.47316583339125L136.15196666666665,71.10550463944674L136.30225000000002,79.24595606404667L136.46436666666665,78.73313567531295L136.53063333333333,77.87035099665323L136.5685,226.01305834452313L136.65251666666666,130.9659982919693L137.10218333333333,78.7874254641356L137.2075,78.644599507005L137.23471666666666,73.90741138532758L137.62403333333333,78.40199859587786L137.90093333333334,78.4002447691746L137.97785,64.68484982351463L138.63578333333334,26.195791681607574L138.71861666666666,79.11297427148868L138.94344999999998,78.66898960848812L139.15645,78.47603289534649L139.39311666666666,195.87382547060648L139.48778333333334,-12.49307362238568L139.61795,79.96930766198784L139.88538333333335,78.82439728174359L140.11258333333333,78.73147750969899L140.19541666666666,78.62701572611695L140.2534,78.93097812472843L140.88293333333334,51.88195985555649L141.41661666666667,78.81514220157017L141.54205,78.15171454614028L141.54441666666665,78.61078640133687L141.86391666666668,141.28605924050012L142.67095,79.36041221922883L142.69816666666668,78.26399150816724L142.88986666666668,66.62373875081539L143.01648333333333,129.63249307870865L143.0863,78.32141613944745L143.18096666666668,372.810778538386L143.26971666666665,87.88279820978642L143.36793333333333,79.87227099450926L143.46141666666665,79.12468644448866L143.58093333333335,78.56523889590366L143.69453333333334,78.05807362124324L143.775,447.32070835431415L144.27673333333334,79.30571667353313L144.3004,78.1854030013395L144.73113333333336,78.47288451048857L144.97016666666667,63.9230664273103L145.00803333333334,289.86845048268634L145.07193333333333,78.54749239872521L145.17843333333334,78.77371464805523L145.40918333333335,93.44868950049083L145.44586666666666,77.55673739407212L145.51095,101.67861230174701L145.55236666666667,98.67404072980086L145.5642,78.47771785384975L145.79495000000003,77.52458959010741L146.16296666666668,78.64048661676739L146.6718,78.59128645522287L147.06111666666666,78.23317949085806L147.12975,46.914725174506515L147.56758333333332,80.15961540831874L147.70721666666665,80.36285581501822L147.77821666666665,81.0158345984916L147.79478333333333,89.473110742867L147.81253333333333,75.75947711057961L147.82791666666665,82.46617288142443L148.02790000000002,79.00462259080572L148.43141666666668,72.21963093429804L148.63968333333332,78.55913919501472L148.83375,310.1104497114817L148.85031666666669,75.33176327869296L149.34968333333333,78.49796836718451L149.41713333333334,79.9386451949055L149.56268333333335,80.08375543759516L149.77095,78.49438220677743L149.88928333333334,77.89028953108937L150.4064,83.64037715643644L151.18858333333333,78.3917899155058L151.27496666666667,87.66138035307328L151.99916666666667,78.14046059393635L152.16128333333333,78.41141023215218L152.93755,77.90156024244304L152.93873333333332,90.7287787720561L153.00736666666666,72.97423738489547L153.24403333333333,77.06532093510032L153.62388333333334,84.43408902237813L153.9090666666667,65.84697139263153L154.06053333333332,79.86397961123535L154.09958333333333,78.6543697965244L154.32915,79.6822704076767L154.52795,61.37152159710726L154.59303333333332,83.94980197896561L154.70663333333334,82.66844318062067L155.24741666666668,63.2220511585474L155.29593333333332,79.29440470536551L155.40006666666667,78.47848708050635L155.66276666666667,81.47763251140714L155.84381666666667,81.09072290485105L156.1006,78.4234617779342L156.75735,78.24094364776586L156.98691666666667,78.53318278646718L157.03306666666668,78.74671358584116L157.26855,73.5935233173271L157.76555,59.01701308290163L158.0815,78.73664677441897L158.26136666666665,78.69234959714231L158.54418333333334,78.70373307216019L158.91338333333334,77.99375988046327L159.11100000000002,78.11708112216245L159.53818333333334,80.89058550509314L159.86478333333332,78.25501405292502L159.9275,79.52112999248008L160.34994999999998,81.8194550598661L160.36415,88.22851510842642L160.65643333333335,77.94456573172162L160.79015,81.14283122246465L160.98066666666665,732.7666317621866L161.08716666666666,78.53535962143603L161.47056666666668,78.95600335874285L161.7309,78.48271359154023L161.77586666666667,62.94493577877681L161.86106666666666,74.48564161360264L161.90721666666667,111.74161316951115L162.13678333333334,80.1545680652683L162.15335000000002,77.55854683276266L162.17346666666666,67.1604975014925L162.30126666666666,78.626509216876L162.86926666666668,78.61397635781516L163.0941,78.6738215071382L163.23136666666667,78.54926719726063L163.4917,77.3880420823892L163.52601666666666,75.68923905616005L164.07153333333332,85.80953423678875L164.37565,77.91638105455786L164.40996666666666,32.89887425303459L164.48215000000002,80.56402312405407L164.84188333333333,100.45498556892078L165.04068333333333,76.51563456095755L165.643,102.178718517224L167.07838333333333,78.39358312163192L167.07956666666666,77.07801979159316L167.24405000000002,82.60038088510433L167.27955,77.04279132621984L167.32806666666664,63.775779326756805L167.83926666666665,76.69194191507995L167.88896666666668,78.66260029015272L168.2771,78.74325780681102L168.77055000000001,78.52552095882129L168.78475,6.728199243545532L168.909,112.51254431406657L169.29831666666666,80.7351318448782L169.9385,77.93467902392149L169.96689999999998,75.30680038779974L170.00594999999998,78.38190666485268L170.52306666666667,73.33277365937829L170.63430000000002,67.72240413477024L171.03071666666665,63.89301058650017L171.30051666666665,75.76721379347146L171.36915000000002,78.6659102191837L171.6354,84.29843551913898L171.92768333333333,78.75982000218937L173.29325,78.64877540288822L173.58079999999998,73.57362004121144L173.87426666666664,78.74951425840845L173.93698333333333,85.91396407037973L174.06596666666667,78.09992955190441L174.22335,85.8653929407398L174.44108333333335,78.63470857936773L174.59255,78.66695983288491L174.70496666666668,75.22083236028752L174.8801,78.1239955535469L174.91796666666664,75.09947267174721L174.99014999999997,83.87187174956004L175.01145,82.9909346451362L175.26705,79.1554508859602L175.49425000000002,85.0379085491101L175.61731666666665,78.57992994480689L176.14271666666667,339.0241216818491L176.49061666666668,78.67260383871812L176.69414999999998,62.08629731833935L176.79828333333333,204.03790148099264L176.81248333333335,90.66437674810489L176.82195000000002,132.2742127577464L176.91188333333332,73.0436971920232L176.96276666666668,76.04933127574623L177.41243333333333,85.90520681937537L177.5852,77.28576767692962L178.33306666666667,73.60606502244869L178.59695,78.6682460356939L179.26553333333334,78.52107244629102L179.27855,77.22276224878927L179.48918333333333,78.68994281324558L179.55308333333332,79.27285573569436L179.7211166666667,78.93080336709195L180.66778333333335,78.73524330438036L180.95178333333334,78.67012833078843L181.29495000000003,87.02839660892883L181.42748333333333,78.87873062832902L181.67598333333333,75.16854088256757L181.76118333333335,77.99906882193561L182.06885,2.1368237535158983L182.24280000000002,78.66400747580155L182.67945,128.1359958847364L182.69483333333335,78.65358859434491L182.79541666666668,83.20770792787275L183.2723,78.54646220325958L183.39773333333335,79.13594529622544L184.1456,78.6854209179049L184.44971666666666,78.65244114922339L184.8485,79.81756949611008L184.9325166666667,78.6666050897347L185.02481666666668,78.38236445064346L185.39756666666668,81.2282135039568L185.40348333333333,76.9526320459942L185.42123333333333,78.66534736531503L185.81173333333334,78.69432824715234L185.84959999999998,67.69003827869892L186.08271666666667,84.29265755042434L186.35488333333333,75.27025811498363L186.4531,78.66661581544474L186.47558333333333,107.12886509299278L186.59746666666666,78.35109400648314L186.92761666666667,78.23769241850823L187.49325000000002,83.18937689810991L187.52638333333334,77.50079672597349L187.62815,79.22089554881677L188.079,122.77154994010925L188.45648333333335,73.57568608721098L188.62806666666668,78.76690140118201L188.6825,84.03522052615881L189.30493333333334,78.78376111725811L189.35226666666665,77.72495722211897L189.38776666666666,79.0161534124054L189.39960000000002,65.37637593348822L189.48953333333333,175.21081002553305L189.5297666666667,79.67000216059387L189.63271666666665,78.40229570446536L189.66940000000002,81.0412097827842L190.2220166666667,78.44372368153805L190.50483333333332,79.00049445964396L190.78055,83.28782142574589L191.52723333333333,78.65239779894668L191.56983333333335,67.75957171618938L191.68461666666667,99.43331849575043L191.93311666666665,78.11682414853325L191.9343,84.52243666599193L192.28811666666667,73.57324676091473L192.58986666666667,72.99785258372624L192.75671666666668,76.21244212736687L193.1046166666667,78.40916315528254L193.28921666666665,77.37609912765524L193.45843333333332,72.84346106896798L193.5602,80.67922387085855L193.79213333333334,109.77413368225098L193.82171666666667,78.7733721958939L193.97081666666668,77.58532621401052L194.05365,384.1758953730265L194.33528333333334,80.38349612740178L194.4051,78.91286326968111L194.54591666666667,34.68303245306015L194.69265000000001,78.66708045816904L195.9884,78.75288029471025L196.09253333333334,78.89166782191023L196.13868333333332,1010.7009159723917L196.1872,102.11074120799701L196.80371666666667,73.69320051247875L196.90666666666667,78.66612587098066L197.25811666666667,21.541479448477446L198.05095,65.29906038939953L198.19886666666665,82.36110858122508L199.02483333333333,105.8825968404611L199.14198333333331,78.64588631979618L199.30291666666668,78.66943600830261L199.44728333333333,39.79780040184656L199.51591666666667,81.44895916307966L199.59756666666667,78.66460696634203L199.6023,78.417364194834L199.72181666666668,78.66096309315131L199.82358333333335,85.7748708203435L200.50755,85.47542675832906L200.64126666666667,78.6218868882667L200.79273333333333,78.77365711288682L201.03295,78.0409537376836L201.0933,78.5331675040458L201.17495,77.59421643925211L201.17968333333334,79.24746667702372L201.80329999999998,74.89342964068055L201.82578333333333,4.399229109287262L201.92045,89.51864654322465L202.06481666666667,30.34623485803604L202.18906666666666,84.78670739382505L202.40088333333333,78.27620444089796L202.41745,78.48193272276937L202.46005,78.59345148781237L202.50856666666667,79.50195083984485L202.6198,117.56910251577696L202.67778333333334,78.66676873078018L202.79256666666666,78.66234065605143L202.89078333333333,73.83631559213002L202.99373333333332,77.21244483999908L203.01503333333335,80.36346445605159L203.17478333333332,78.83475216967054L204.1534,80.88885922109088L204.44095,81.67687993620834L205.37578333333332,74.3425217717886L205.45506666666668,83.66166182607412L205.52725,104.73392508427303L205.95325,80.72258757551512L206.5177,77.43623397902897L206.6869166666667,78.66966361728859L207.30816666666666,76.1772962672015L207.40046666666666,78.65323166681142L207.77558333333334,206.41901803016663L207.93651666666668,76.51068410960337L207.95426666666665,78.88385109805192L208.6335,76.97203840874135L208.73171666666667,93.74715841809909L209.03938333333335,78.6686010316395L209.24528333333333,78.4362113926715L209.33166666666665,116.24386734763782L209.50443333333334,78.37010785712239L209.52691666666666,83.52040728678307L209.60501666666664,78.69637279759627L209.79553333333334,633.1003851890564L209.90321666666665,81.11048936036727L209.9600166666667,81.33877736950915L210.1884,79.73240187826255L210.40849999999998,78.67730977991596L210.5481333333333,78.66234856341664L210.6286,90.26454482972622L210.68303333333333,79.11767397665729L211.46048333333334,78.79838938231114L211.64508333333336,78.06515733835599L211.79891666666668,78.66025338923646L211.98706666666666,78.6477056248065L212.30065,78.69437768607168L212.43554999999998,78.66644227322271L212.73966666666666,56.195034553607314L213.24021666666667,79.72100693856677L213.29938333333334,78.6979975765571L213.5029166666667,78.73046696960228L213.5467,76.82813629011314L213.83898333333335,118.9750043253104L214.13008333333332,79.97963523616394L214.37266666666667,83.01319592446089L214.4058,81.57337799171607L214.61524999999997,78.2984063763482L215.30868333333333,78.80097641578566L215.3359,79.47436784363042L215.53588333333332,148.29246373971304L215.53706666666668,78.37954763136804L215.61161666666666,85.07376543680827L215.70865,69.57784311970076L215.86129999999997,127.35747458537419L215.92874999999998,78.69131182915105L216.05773333333335,88.44643680502972L216.14175,126.32110781470934L216.3015,78.66391403839043L216.70265,80.26936613457899L216.90144999999998,125.72694815198581L217.68245,78.66928475203956L217.8209,81.23703357887766L218.47055,78.66662044888734L218.70366666666666,205.52160970369974L218.751,78.66140819725115L218.89655,78.57241354628543L219.46573333333333,79.15079994716993L219.6243,76.60222569915156L219.86451666666667,9.060914635658264L220.09763333333333,43.883686234553664L220.45381666666665,78.50353797983067L220.48103333333336,127.96492141485214L220.7082333333333,78.76329080034823L221.13068333333334,78.66676031063598L221.2218,78.46451583364978L221.46083333333334,79.50131087843329L221.56141666666667,78.66667405407723L221.69276666666667,100.6569173882405L221.75311666666664,79.19886793599774L222.04658333333333,78.66666391189186L222.51163333333335,83.45050643011928L222.68085000000002,171.7863314549128L222.92816666666667,78.66650185161454L223.1175,130.17900766928992L223.31985,79.63304887649915L223.49261666666666,78.66861298927566L223.50563333333332,78.97264972763757L223.65828333333332,78.65316951829786L223.68195,46.38487668832144L224.03340000000003,79.89513175686201L224.30675000000002,77.95721202126394L224.6156,78.49400688882452L224.6842333333333,80.45112817982833L224.79073333333332,106.1662576297919L225.05698333333333,78.69865946566765L225.42026666666666,78.98188971999723L226.26871666666668,60.34874823689461L226.75151666666667,74.1965523250401L226.79766666666666,84.74636674672365L226.8095,78.67290078489411L227.47453333333334,77.1776187773794L227.69344999999998,161.28129931290945L228.35138333333333,75.34886237358053L228.49456666666669,78.68226494764289L228.59041666666667,78.67629948737158L228.60816666666668,84.42227336391807L228.7336,78.66638668717117L228.94068333333334,78.01799150463194L229.04245,78.88592685153708L229.2661,75.33458284536998L230.05775,78.77693138597533L230.33346666666668,78.66873947796375L230.65888333333334,82.52886016046008L230.88135,72.42344197630882L230.95235,66.22779055933158L231.07423333333335,4.469896674156189L231.19848333333334,78.64291717713544L231.4032,78.6662609390384L232.03036666666668,104.01118409633636L232.25283333333334,78.97620596426228L232.2694,78.66769947815587L232.28715000000003,44.438133855660766L232.36998333333332,57.320724844932556L232.6244,69.48211412380138L233.21843333333334,87.38182528068621L233.92843333333334,77.30290019853662L234.0373,76.09978217755756L234.1864,57.74052634338537L234.52838333333332,78.53624942468014L235.08336666666668,70.44065470000109L235.09046666666666,86.08121635516486L235.13070000000002,85.0703088392814L235.28453333333334,90.07741234699886L235.68213333333333,78.66546625482624L235.71645,74.72398492942253L236.02648333333335,75.01734587798516L236.08446666666669,78.77775248128455L236.28918333333334,205.72162640094757L236.62761666666668,78.01242755850157L237.0406,136.9816209077835L237.07610000000003,78.66697470379972L237.38258333333334,12.570016105969756L237.9091666666667,85.88973784943423L237.9139,78.86396542820148L237.97898333333333,80.8374771332989L238.16713333333334,78.7215785587905L238.20263333333335,78.6848877259569L238.3257,109.86738415559132L238.39906666666667,78.66672652851285L238.60378333333333,105.54154686133067L239.13746666666665,77.53732892498374L239.62855,78.07301994382094L240.02259999999998,82.89043029894431L240.0865,77.6692043847094L240.15158333333335,75.25972677518925L240.1575,-22.958191514015198L240.48291666666668,78.66656635840393L240.53853333333333,32.73263814051947L240.54090000000002,85.56560820092758L240.79295,79.36623313898842L240.92548333333335,76.1265598187844L241.17635,74.54029805461566L241.30769999999998,72.17976943403482L241.31953333333334,79.21531475195661L241.5775,78.66754246343923L242.28276666666667,-67.11140561103821L242.2946,87.13802306105694L242.37743333333333,82.10145495335262L242.65315,78.6672038283059L243.31226666666666,64.7476678788662L243.77376666666666,116.22602901856104L244.04238333333333,77.16901290820292L244.05776666666668,78.336985732972L244.30626666666666,76.8129506688565L244.4033,78.6659774923346L244.58198333333334,123.47744019826253L244.61511666666667,80.11764536891133L244.86243333333334,78.66582545147017L244.99141666666668,78.64097663015127L245.05768333333333,78.68823051094175L245.11685,78.66949444514103L245.12986666666666,78.60040821773389L245.66118333333333,135.47769180933633L245.74875,78.54184119969916L246.06706666666668,78.67223717722663L246.1215,79.07004964739704L246.21734999999998,83.12043836464485L246.57945,81.63028125775357L247.59120000000001,66.4991759583354L247.61605,-77.80739315350849L247.62433333333334,78.66599937947544L247.65155,78.68353676420035L247.69888333333333,78.22097219030063L248.00181666666668,78.73918163588192L248.17458333333335,79.34204625167574L248.41835,415.14492265383404L248.4219,78.67077534958784L248.76388333333333,78.66890726317433L248.90115,67.13420083870491L249.02421666666666,74.35445868223906L250.37676666666667,51.733644127845764L251.12226666666666,83.16536094496647L252.405,78.09333079696323L252.44523333333333,74.12788486853242L252.64995000000002,61.222143540779754L252.91738333333333,78.6724671633589L252.95998333333333,81.77931808680296L253.67708333333331,79.01941503599907L253.78595,79.6306240198513L253.96936666666667,81.8022592564424L254.36696666666666,78.68537399028234L254.75155,63.349869072437286L254.7693,66.2603212594986L254.89118333333334,80.06880902343741L255.0249,79.13202786787103L255.15033333333332,78.72140254765206L255.4935,78.65496336119152L256.1881166666667,38.99058011174202L256.46028333333334,100.24223265051842L256.51945,78.66674238402501L256.79043333333334,78.72798916251244L256.93598333333335,100.3613966157039L257.0495833333334,52.83693613608679L257.6436166666667,100.68369539578755L257.8672666666667,78.66951064998102L258.2057,70.63138884305954L258.45301666666666,73.15554720784228L258.9748666666667,81.26531258349618L258.9796,70.29918256650369L259.4576666666667,78.67141341357515L259.4908,101.97645114858946L259.93455,77.89146477791171L259.93809999999996,78.52650296028393L260.08365,59.97076438864072L260.22565000000003,78.2999408917191L260.3333333333333,78.66524138868076" style="fill: none;" fill="none"></path></g></g></g></g></g></g><g transform="translate(46, 177)" clip-path="url(#clip_1)"><clipPath id="clip_1"><rect width="284" height="23"></rect></clipPath><g><g><line x1="0" y1="0" x2="0" y2="5" style="visibility: inherit;" fill="rgb(0, 0, 0)" stroke="rgb(204, 204, 204)" stroke-width="1px"></line><line x1="23.666666666666664" y1="0" x2="23.666666666666664" y2="5" style="visibility: inherit;" fill="rgb(0, 0, 0)" stroke="rgb(204, 204, 204)" stroke-width="1px"></line><line x1="47.33333333333333" y1="0" x2="47.33333333333333" y2="5" style="visibility: inherit;" fill="rgb(0, 0, 0)" stroke="rgb(204, 204, 204)" stroke-width="1px"></line><line x1="71" y1="0" x2="71" y2="5" style="visibility: inherit;" fill="rgb(0, 0, 0)" stroke="rgb(204, 204, 204)" stroke-width="1px"></line><line x1="94.66666666666666" y1="0" x2="94.66666666666666" y2="5" style="visibility: inherit;" fill="rgb(0, 0, 0)" stroke="rgb(204, 204, 204)" stroke-width="1px"></line><line x1="118.33333333333334" y1="0" x2="118.33333333333334" y2="5" style="visibility: inherit;" fill="rgb(0, 0, 0)" stroke="rgb(204, 204, 204)" stroke-width="1px"></line><line x1="142" y1="0" x2="142" y2="5" style="visibility: inherit;" fill="rgb(0, 0, 0)" stroke="rgb(204, 204, 204)" stroke-width="1px"></line><line x1="165.66666666666669" y1="0" x2="165.66666666666669" y2="5" style="visibility: inherit;" fill="rgb(0, 0, 0)" stroke="rgb(204, 204, 204)" stroke-width="1px"></line><line x1="189.33333333333331" y1="0" x2="189.33333333333331" y2="5" style="visibility: inherit;" fill="rgb(0, 0, 0)" stroke="rgb(204, 204, 204)" stroke-width="1px"></line><line x1="213" y1="0" x2="213" y2="5" style="visibility: inherit;" fill="rgb(0, 0, 0)" stroke="rgb(204, 204, 204)" stroke-width="1px"></line><line x1="236.66666666666669" y1="0" x2="236.66666666666669" y2="5" style="visibility: inherit;" fill="rgb(0, 0, 0)" stroke="rgb(204, 204, 204)" stroke-width="1px"></line><line x1="260.3333333333333" y1="0" x2="260.3333333333333" y2="5" style="visibility: inherit;" fill="rgb(0, 0, 0)" stroke="rgb(204, 204, 204)" stroke-width="1px"></line><line x1="284" y1="0" x2="284" y2="5" style="visibility: inherit;" fill="rgb(0, 0, 0)" stroke="rgb(204, 204, 204)" stroke-width="1px"></line></g><g transform="translate(0, 8)"><text x="0" y="0" dx="0em" dy="0.95em" style="text-anchor: middle; visibility: hidden; font-family: &quot;Helvetica Neue&quot;, sans-serif; font-size: 12px; font-weight: 200;" fill="rgb(50, 49, 63)" stroke="none" stroke-width="1px">-100k</text><text x="23.666666666666664" y="0" dx="0em" dy="0.95em" style="text-anchor: middle; visibility: inherit; font-family: &quot;Helvetica Neue&quot;, sans-serif; font-size: 12px; font-weight: 200;" fill="rgb(50, 49, 63)" stroke="none" stroke-width="1px">0</text><text x="47.33333333333333" y="0" dx="0em" dy="0.95em" style="text-anchor: middle; visibility: hidden; font-family: &quot;Helvetica Neue&quot;, sans-serif; font-size: 12px; font-weight: 200;" fill="rgb(50, 49, 63)" stroke="none" stroke-width="1px">100k</text><text x="71" y="0" dx="0em" dy="0.95em" style="text-anchor: middle; visibility: inherit; font-family: &quot;Helvetica Neue&quot;, sans-serif; font-size: 12px; font-weight: 200;" fill="rgb(50, 49, 63)" stroke="none" stroke-width="1px">200k</text><text x="94.66666666666666" y="0" dx="0em" dy="0.95em" style="text-anchor: middle; visibility: hidden; font-family: &quot;Helvetica Neue&quot;, sans-serif; font-size: 12px; font-weight: 200;" fill="rgb(50, 49, 63)" stroke="none" stroke-width="1px">300k</text><text x="118.33333333333334" y="0" dx="0em" dy="0.95em" style="text-anchor: middle; visibility: inherit; font-family: &quot;Helvetica Neue&quot;, sans-serif; font-size: 12px; font-weight: 200;" fill="rgb(50, 49, 63)" stroke="none" stroke-width="1px">400k</text><text x="142" y="0" dx="0em" dy="0.95em" style="text-anchor: middle; visibility: hidden; font-family: &quot;Helvetica Neue&quot;, sans-serif; font-size: 12px; font-weight: 200;" fill="rgb(50, 49, 63)" stroke="none" stroke-width="1px">500k</text><text x="165.66666666666669" y="0" dx="0em" dy="0.95em" style="text-anchor: middle; visibility: inherit; font-family: &quot;Helvetica Neue&quot;, sans-serif; font-size: 12px; font-weight: 200;" fill="rgb(50, 49, 63)" stroke="none" stroke-width="1px">600k</text><text x="189.33333333333331" y="0" dx="0em" dy="0.95em" style="text-anchor: middle; visibility: hidden; font-family: &quot;Helvetica Neue&quot;, sans-serif; font-size: 12px; font-weight: 200;" fill="rgb(50, 49, 63)" stroke="none" stroke-width="1px">700k</text><text x="213" y="0" dx="0em" dy="0.95em" style="text-anchor: middle; visibility: inherit; font-family: &quot;Helvetica Neue&quot;, sans-serif; font-size: 12px; font-weight: 200;" fill="rgb(50, 49, 63)" stroke="none" stroke-width="1px">800k</text><text x="236.66666666666669" y="0" dx="0em" dy="0.95em" style="text-anchor: middle; visibility: hidden; font-family: &quot;Helvetica Neue&quot;, sans-serif; font-size: 12px; font-weight: 200;" fill="rgb(50, 49, 63)" stroke="none" stroke-width="1px">900k</text><text x="260.3333333333333" y="0" dx="0em" dy="0.95em" style="text-anchor: middle; visibility: inherit; font-family: &quot;Helvetica Neue&quot;, sans-serif; font-size: 12px; font-weight: 200;" fill="rgb(50, 49, 63)" stroke="none" stroke-width="1px">1M</text><text x="284" y="0" dx="0em" dy="0.95em" style="text-anchor: middle; visibility: hidden; font-family: &quot;Helvetica Neue&quot;, sans-serif; font-size: 12px; font-weight: 200;" fill="rgb(50, 49, 63)" stroke="none" stroke-width="1px">1.1M</text></g><line x1="0" y1="0" x2="284" y2="0" fill="rgb(0, 0, 0)" stroke="rgb(204, 204, 204)" stroke-width="1px"></line></g></g></g></g></svg>