<svg viewBox="0 0 330 200" xmlns="http://www.w3.org/2000/svg"><g><g><g><g><g><line x1="46" y1="177" x2="41" y2="177" style="visibility: inherit;" fill="rgb(0, 0, 0)" stroke="rgb(204, 204, 204)" stroke-width="1px"></line><line x1="46" y1="159.3" x2="41" y2="159.3" style="visibility: inherit;" fill="rgb(0, 0, 0)" stroke="rgb(204, 204, 204)" stroke-width="1px"></line><line x1="46" y1="141.6" x2="41" y2="141.6" style="visibility: inherit;" fill="rgb(0, 0, 0)" stroke="rgb(204, 204, 204)" stroke-width="1px"></line><line x1="46" y1="123.89999999999999" x2="41" y2="123.89999999999999" style="visibility: inherit;" fill="rgb(0, 0, 0)" stroke="rgb(204, 204, 204)" stroke-width="1px"></line><line x1="46" y1="106.2" x2="41" y2="106.2" style="visibility: inherit;" fill="rgb(0, 0, 0)" stroke="rgb(204, 204, 204)" stroke-width="1px"></line><line x1="46" y1="88.5" x2="41" y2="88.5" style="visibility: inherit;" fill="rgb(0, 0, 0)" stroke="rgb(204, 204, 204)" stroke-width="1px"></line><line x1="46" y1="70.8" x2="41" y2="70.8" style="visibility: inherit;" fill="rgb(0, 0, 0)" stroke="rgb(204, 204, 204)" stroke-width="1px"></line><line x1="46" y1="53.10000000000001" x2="41" y2="53.10000000000001" style="visibility: inherit;" fill="rgb(0, 0, 0)" stroke="rgb(204, 204, 204)" stroke-width="1px"></line><line x1="46" y1="35.400000000000006" x2="41" y2="35.400000000000006" style="visibility: inherit;" fill="rgb(0, 0, 0)" stroke="rgb(204, 204, 204)" stroke-width="1px"></line><line x1="46" y1="17.69999999999999" x2="41" y2="17.69999999999999" style="visibility: inherit;" fill="rgb(0, 0, 0)" stroke="rgb(204, 204, 204)" stroke-width="1px"></line><line x1="46" y1="0" x2="41" y2="0" style="visibility: inherit;" fill="rgb(0, 0, 0)" stroke="rgb(204, 204, 204)" stroke-width="1px"></line></g><g transform="translate(36, 0)"><text x="0" y="177" dx="0em" dy="0.3em" style="text-anchor: end; visibility: hidden; font-family: &quot;Helvetica Neue&quot;, sans-serif; font-size: 12px; font-weight: 200;" fill="rgb(50, 49, 63)" stroke="none" stroke-width="1px">-0.1</text><text x="0" y="159.3" dx="0em" dy="0.3em" style="text-anchor: end; visibility: inherit; font-family: &quot;Helvetica Neue&quot;, sans-serif; font-size: 12px; font-weight: 200;" fill="rgb(50, 49, 63)" stroke="none" stroke-width="1px">0</text><text x="0" y="141.6" dx="0em" dy="0.3em" style="text-anchor: end; visibility: hidden; font-family: &quot;Helvetica Neue&quot;, sans-serif; font-size: 12px; font-weight: 200;" fill="rgb(50, 49, 63)" stroke="none" stroke-width="1px">0.1</text><text x="0" y="123.89999999999999" dx="0em" dy="0.3em" style="text-anchor: end; visibility: inherit; font-family: &quot;Helvetica Neue&quot;, sans-serif; font-size: 12px; font-weight: 200;" fill="rgb(50, 49, 63)" stroke="none" stroke-width="1px">0.2</text><text x="0" y="106.2" dx="0em" dy="0.3em" style="text-anchor: end; visibility: hidden; font-family: &quot;Helvetica Neue&quot;, sans-serif; font-size: 12px; font-weight: 200;" fill="rgb(50, 49, 63)" stroke="none" stroke-width="1px">0.3</text><text x="0" y="88.5" dx="0em" dy="0.3em" style="text-anchor: end; visibility: inherit; font-family: &quot;Helvetica Neue&quot;, sans-serif; font-size: 12px; font-weight: 200;" fill="rgb(50, 49, 63)" stroke="none" stroke-width="1px">0.4</text><text x="0" y="70.8" dx="0em" dy="0.3em" style="text-anchor: end; visibility: hidden; font-family: &quot;Helvetica Neue&quot;, sans-serif; font-size: 12px; font-weight: 200;" fill="rgb(50, 49, 63)" stroke="none" stroke-width="1px">0.5</text><text x="0" y="53.10000000000001" dx="0em" dy="0.3em" style="text-anchor: end; visibility: inherit; font-family: &quot;Helvetica Neue&quot;, sans-serif; font-size: 12px; font-weight: 200;" fill="rgb(50, 49, 63)" stroke="none" stroke-width="1px">0.6</text><text x="0" y="35.400000000000006" dx="0em" dy="0.3em" style="text-anchor: end; visibility: hidden; font-family: &quot;Helvetica Neue&quot;, sans-serif; font-size: 12px; font-weight: 200;" fill="rgb(50, 49, 63)" stroke="none" stroke-width="1px">0.7</text><text x="0" y="17.69999999999999" dx="0em" dy="0.3em" style="text-anchor: end; visibility: inherit; font-family: &quot;Helvetica Neue&quot;, sans-serif; font-size: 12px; font-weight: 200;" fill="rgb(50, 49, 63)" stroke="none" stroke-width="1px">0.8</text><text x="0" y="0" dx="0em" dy="0.3em" style="text-anchor: end; visibility: hidden; font-family: &quot;Helvetica Neue&quot;, sans-serif; font-size: 12px; font-weight: 200;" fill="rgb(50, 49, 63)" stroke="none" stroke-width="1px">0.9</text></g><line x1="46" y1="0" x2="46" y2="177" fill="rgb(0, 0, 0)" stroke="rgb(204, 204, 204)" stroke-width="1px"></line></g></g><g transform="translate(46, 0)" clip-path="url(#clip_0)"><clipPath id="clip_0"><rect width="284" height="177"></rect></clipPath><g><g><g><line x1="0" y1="0" x2="0" y2="177" fill="rgb(0, 0, 0)" stroke="rgb(60, 60, 60)" stroke-width="1px" opacity="0.25"></line><line x1="23.666666666666664" y1="0" x2="23.666666666666664" y2="177" fill="rgb(0, 0, 0)" stroke="rgb(60, 60, 60)" stroke-width="1px" opacity="0.25"></line><line x1="47.33333333333333" y1="0" x2="47.33333333333333" y2="177" fill="rgb(0, 0, 0)" stroke="rgb(60, 60, 60)" stroke-width="1px" opacity="0.25"></line><line x1="71" y1="0" x2="71" y2="177" fill="rgb(0, 0, 0)" stroke="rgb(60, 60, 60)" stroke-width="1px" opacity="0.25"></line><line x1="94.66666666666666" y1="0" x2="94.66666666666666" y2="177" fill="rgb(0, 0, 0)" stroke="rgb(60, 60, 60)" stroke-width="1px" opacity="0.25"></line><line x1="118.33333333333334" y1="0" x2="118.33333333333334" y2="177" fill="rgb(0, 0, 0)" stroke="rgb(60, 60, 60)" stroke-width="1px" opacity="0.25"></line><line x1="142" y1="0" x2="142" y2="177" fill="rgb(0, 0, 0)" stroke="rgb(60, 60, 60)" stroke-width="1px" opacity="0.25"></line><line x1="165.66666666666669" y1="0" x2="165.66666666666669" y2="177" fill="rgb(0, 0, 0)" stroke="rgb(60, 60, 60)" stroke-width="1px" opacity="0.25"></line><line x1="189.33333333333331" y1="0" x2="189.33333333333331" y2="177" fill="rgb(0, 0, 0)" stroke="rgb(60, 60, 60)" stroke-width="1px" opacity="0.25"></line><line x1="213" y1="0" x2="213" y2="177" fill="rgb(0, 0, 0)" stroke="rgb(60, 60, 60)" stroke-width="1px" opacity="0.25"></line><line x1="236.66666666666669" y1="0" x2="236.66666666666669" y2="177" fill="rgb(0, 0, 0)" stroke="rgb(60, 60, 60)" stroke-width="1px" opacity="0.25"></line><line x1="260.3333333333333" y1="0" x2="260.3333333333333" y2="177" fill="rgb(0, 0, 0)" stroke="rgb(60, 60, 60)" stroke-width="1px" opacity="0.25"></line><line x1="284" y1="0" x2="284" y2="177" fill="rgb(0, 0, 0)" stroke="rgb(60, 60, 60)" stroke-width="1px" opacity="0.25"></line></g><g><line x1="0" y1="177" x2="284" y2="177" fill="rgb(0, 0, 0)" stroke="rgb(60, 60, 60)" stroke-width="1px" opacity="0.25"></line><line x1="0" y1="159.3" x2="284" y2="159.3" fill="rgb(0, 0, 0)" stroke="rgb(60, 60, 60)" stroke-width="1px" opacity="0.25"></line><line x1="0" y1="141.6" x2="284" y2="141.6" fill="rgb(0, 0, 0)" stroke="rgb(60, 60, 60)" stroke-width="1px" opacity="0.25"></line><line x1="0" y1="123.89999999999999" x2="284" y2="123.89999999999999" fill="rgb(0, 0, 0)" stroke="rgb(60, 60, 60)" stroke-width="1px" opacity="0.25"></line><line x1="0" y1="106.2" x2="284" y2="106.2" fill="rgb(0, 0, 0)" stroke="rgb(60, 60, 60)" stroke-width="1px" opacity="0.25"></line><line x1="0" y1="88.5" x2="284" y2="88.5" fill="rgb(0, 0, 0)" stroke="rgb(60, 60, 60)" stroke-width="1px" opacity="0.25"></line><line x1="0" y1="70.8" x2="284" y2="70.8" fill="rgb(0, 0, 0)" stroke="rgb(60, 60, 60)" stroke-width="1px" opacity="0.25"></line><line x1="0" y1="53.10000000000001" x2="284" y2="53.10000000000001" fill="rgb(0, 0, 0)" stroke="rgb(60, 60, 60)" stroke-width="1px" opacity="0.25"></line><line x1="0" y1="35.400000000000006" x2="284" y2="35.400000000000006" fill="rgb(0, 0, 0)" stroke="rgb(60, 60, 60)" stroke-width="1px" opacity="0.25"></line><line x1="0" y1="17.69999999999999" x2="284" y2="17.69999999999999" fill="rgb(0, 0, 0)" stroke="rgb(60, 60, 60)" stroke-width="1px" opacity="0.25"></line><line x1="0" y1="0" x2="284" y2="0" fill="rgb(0, 0, 0)" stroke="rgb(60, 60, 60)" stroke-width="1px" opacity="0.25"></line></g></g></g><g><g><line x1="0" y1="159.3" x2="284" y2="159.3" fill="rgb(0, 0, 0)" stroke="rgb(153, 153, 153)" stroke-width="1.5px"></line></g></g><g><g><line x1="23.666666666666664" y1="0" x2="23.666666666666664" y2="177" fill="rgb(0, 0, 0)" stroke="rgb(153, 153, 153)" stroke-width="1.5px"></line></g></g><g><g><g><g><g><path stroke="rgb(255, 112, 67)" stroke-width="2px" d="M23.71755,36.80915801525117L23.865466666666666,36.72803724271708L23.938833333333335,36.84396442915107L24.22875,36.872070808232905L24.302116666666667,36.77416947727545L24.353,36.735980272114716L24.361283333333333,36.76679973387675L24.433466666666668,36.72880852992495L24.62398333333333,36.87380101962978L24.86775,37.96044847214671L25.24523333333333,41.59377450641847L25.306766666666665,41.022828361082134L25.367116666666668,42.37086633055597L25.71975,40.420782948676504L25.723300000000002,39.27231911161894L25.888966666666665,40.86212761261817L26.3978,39.65429245160473L26.494833333333332,42.169665497160764L26.608433333333334,40.287722497873176L26.609616666666668,39.04056811913836L26.8451,38.92074396752582L27.490016666666666,38.256789808622045L27.508950000000002,38.07374264609041L27.578766666666667,41.136341355772345L27.94915,39.87384190359535L27.951516666666667,39.606852798937325L28.7763,41.74176866278373L28.87451666666667,40.17980297755051L28.983383333333332,39.014995310842465L29.0035,39.306309276899725L29.5502,39.85902440286867L29.74308333333333,40.53648838890513L29.992766666666665,39.28509229134605L30.440066666666667,39.82941670088525L30.6578,39.67598294043228L30.756016666666664,39.74377959282839L31.004516666666664,38.77713969132219L31.595,38.140660427498176L31.609199999999998,37.63064352840166L31.778416666666665,37.65277621943733L31.91095,37.498991719893496L32.1346,37.253063091957245L32.49551666666667,37.58599757741189L32.499066666666664,37.39529816807533L32.89548333333333,37.261200789814524L32.9369,37.441338276468L33.21261666666667,38.33403621751398L33.347516666666664,38.83866391543495L33.396033333333335,42.920955312639364L33.723816666666664,40.82662334531244L33.73565,39.42829445428697L34.17348333333334,39.64587566795851L34.24093333333333,38.85661339629337L34.62551666666667,39.462142617665535L34.871649999999995,38.82319539746743L34.973416666666665,41.852912457687125L35.143816666666666,44.46123730690434L35.973333333333336,42.48222050556495L36.068,40.54095386475629L36.118883333333336,39.26100920455539L36.5721,38.4335351050926L36.644283333333334,40.278515762051114L36.70818333333334,39.34405946120589L37.314049999999995,38.50334913994712L37.354283333333335,40.285584318238364L37.83116666666667,42.88939885471049L37.83708333333334,42.78789035386532L38.06191666666667,42.2460395134527L38.211016666666666,40.445737881227245L38.905633333333334,39.25591747655858L39.09141666666667,38.758253033660736L39.12336666666667,38.57523330835889L39.78485,38.227041947765514L40.58241666666667,38.64893035049184L41.02498333333333,40.36221198839215L41.156333333333336,39.54824587096269L41.26756666666667,38.62650820105341L41.97756666666667,40.82216457639916L42.32191666666667,40.09258528498566L42.73845,43.37150946296771L43.6153,44.456742341883626L43.86261666666667,47.55344184417987L43.8993,44.25751498530752L44.15963333333333,42.40148279803688L44.18566666666666,43.56335375208536L44.42706666666667,43.6619541893528L44.44363333333333,44.16591160935991L45.501533333333334,43.79964889590212L46.77953333333333,43.69802760585961L46.908516666666664,43.280205610843296L47.0162,46.58956026375114L47.328599999999994,46.61389308210491L47.39723333333333,45.549237593769476L47.40788333333333,43.96064944054805L47.62325,43.833296095161074L47.71673333333334,42.47482215852216L47.855183333333336,41.7386224017128L47.97233333333333,48.833340084084455L48.018483333333336,50.209985120464225L48.25633333333333,50.36114909702883L48.259883333333335,52.083292127965564L48.346266666666665,51.290121590286816L48.612516666666664,50.76140276545844L48.68825,49.728126219928384L48.79238333333333,55.20853501345047L48.89533333333333,50.4795924561254L49.52131666666667,65.7370237977943L49.991099999999996,85.71408274208338L50.091683333333336,73.53977861045787L50.12481666666666,63.33710206367307L51.04781666666666,71.65267940890496L51.05965,64.34423579278514L51.222950000000004,56.173238890011405L51.3117,65.02021611660912L51.3898,82.78922698672541L51.523516666666666,76.24655670090628L51.67735,82.164433220032L51.71403333333334,76.27940501457658L52.2418,83.67888215765254L52.40155,78.42537043966881L52.40391666666667,71.65239211825035L52.448883333333335,69.98527551959903L52.8027,77.84873639355925L52.928133333333335,77.79352061397975L53.17308333333333,100.96431650735057L53.55056666666667,89.09093089663284L53.71386666666666,82.26317008292452L54.21205,82.11557502789113L54.25346666666667,79.13326486043388L54.34103333333333,73.77235560906817L54.79306666666667,68.63106803621159L55.377633333333335,78.6618728542199L55.378816666666665,81.54902236796958L55.80008333333333,105.99407135588704L56.21543333333333,105.83650151119862L56.3314,115.20580035161291L56.37281666666667,107.86119341672924L56.594100000000005,114.7944316171027L56.70178333333333,109.65266057936302L57.31948333333334,124.13791125940827L57.443733333333334,115.35344970369519L57.94901666666667,108.00691414283871L57.97978333333333,115.16960474144147L58.05788333333333,99.24102464461207L58.222366666666666,90.8323721336023L58.29573333333333,81.4105478348354L58.541866666666664,98.23842411048538L58.70753333333333,87.64448421125448L58.9655,84.2262392010529L59.173766666666666,108.48940649646448L59.20453333333333,111.46038278186155L59.37375,127.22058821361938L59.5548,126.36373788938431L59.724016666666664,110.79356064574755L59.892050000000005,103.0642324329288L60.00328333333333,107.19595872086039L60.019850000000005,110.8983560706015L60.83161666666667,93.13369387670274L60.875400000000006,96.92961277563754L61.392516666666666,97.20916673314167L61.458783333333336,102.43438461285085L61.779466666666664,101.99455443064795L62.04926666666667,101.82347711839955L62.17588333333334,95.69005375224678L62.31196666666667,116.24233769390828L62.43621666666667,115.35411911091346L62.59241666666667,119.92986052268299L62.60188333333333,115.06504415963236L62.75808333333333,113.93343481340145L62.93203333333333,115.32532049971789L63.16159999999999,114.79201256068806L63.19473333333333,123.7893267892926L63.58996666666666,118.93423329993738L63.60416666666667,116.01965696719358L63.646766666666664,104.68645138703452L63.71066666666667,117.27549844025928L63.75445,115.17291738845881L63.79823333333333,111.0459400010334L63.94378333333333,103.68595281144675L64.32955,108.39681503004293L64.52243333333332,108.41039839583102L64.61,92.69369107626206L65.47856666666667,96.13019662485455L65.50341666666667,94.29025736716109L65.65606666666666,96.9210708785855L65.99686666666666,107.41759936128162L66.21223333333333,106.85529568699307L66.31163333333333,117.29798154215835L67.01216666666666,119.8878355081016L67.04766666666667,120.16349113301322L67.17546666666667,123.81496583919213L67.27368333333334,135.74046148469802L67.69021666666667,137.35180868054528L68.02983333333334,128.7322239309526L68.35525,133.15198468565788L68.48778333333334,121.31008973693747L69.17293333333333,106.72842998977596L69.48651666666667,124.50449702858944L69.62851666666667,112.00183353252423L69.79536666666667,118.599556812584L70.16811666666666,111.67945463361356L70.64855,117.93509999103674L70.8935,117.84582701430358L71.02485,112.21628147683263L71.35145,123.62904035046036L71.59285,121.59461621620517L71.79046666666667,124.48987752238565L71.85318333333332,135.18119087964962L71.93956666666668,126.99827168038928L72.23185,130.05754529497975L72.5052,129.89277374260513L72.82233333333333,131.206641565765L73.52641666666666,121.6852098556194L73.90035,125.66620971047979L73.92165,129.70678736974304L74.17015,120.75056573063407L75.16415,131.80863699740948L75.30733333333333,132.41051330560123L75.39253333333333,135.4928249818268L75.42448333333333,141.55282412167793L75.42921666666666,135.41449199221162L75.50376666666666,142.5096964807468L75.72623333333334,139.36820740313965L75.82090000000001,142.29823693357588L75.97118333333333,143.3438452079293L75.97946666666667,147.44073800151565L76.03153333333333,143.4849172563286L76.09425,147.83980944855657L76.70011666666666,145.65759004985696L76.87525000000001,133.57894381129114L77.35805,127.59659791879477L77.51780000000001,128.66492625684668L77.69648333333333,115.71428442473558L78.47748333333334,113.80660185124208L78.49641666666668,118.84231256524504L78.5899,128.24377847452615L79.6407,129.69325505842937L80.03948333333334,114.30897310724968L80.11876666666667,110.37669770423308L80.16491666666667,104.76675106450385L80.32821666666668,119.21827796084231L80.40513333333334,116.69038244486333L80.43235,125.70033990285117L80.55778333333333,124.35087350967794L80.68203333333334,127.5285244308686L80.73646666666667,127.79498064411004L81.08555,137.47744182341725L81.97305,137.21978918476566L82.06653333333333,133.08990901654977L82.21563333333333,137.1097521404065L82.84161666666667,123.25941259405619L82.90078333333334,133.08425828619758L83.02976666666666,132.8536252403519L83.06526666666666,130.8173909144811L83.80366666666666,114.57224352091157L83.99300000000001,102.23707303012945L84.17641666666667,115.36846782884652L84.28646666666667,122.01225963356387L84.96215,134.04021829678578L85.20236666666666,127.3793106285653L85.54671666666667,132.93169217620573L85.6189,133.60576596180027L85.80468333333333,138.1628117419563L86.00821666666666,135.6206313633925L86.27328333333332,133.2285410983805L86.31233333333333,133.43969441877536L86.49338333333334,129.26295204186084L86.51113333333333,132.4624832267523L86.93831666666667,130.48857403406242L87.21995,133.2093474789835L87.23296666666666,141.25953386720653L87.40455,141.23723686227976L87.45661666666666,146.94307836230476L87.71340000000001,142.6541005941598L88.38553333333333,144.81704841504126L88.52279999999999,148.94772355689983L88.67663333333333,143.9746600010861L88.72988333333333,146.32449586303568L89.10499999999999,148.07231155465655L89.39373333333333,142.925774098597L89.40320000000001,138.48297230301992L89.5949,127.95303495650629L89.65761666666667,122.52937583230526L90.3333,120.93187839468033L90.53446666666666,122.55385558407116L90.55103333333334,132.72562382544976L90.65398333333334,130.74253750883634L90.86580000000001,123.38261972169522L90.90485000000001,135.19218954322218L91.47876666666667,140.61861420942978L91.69058333333334,146.00953209166826L92.82185,146.6022352231241L92.95911666666667,139.81652477443018L93.152,145.09497335906045L93.18395,149.34373039838738L93.20406666666666,144.25022189224228L93.79691666666668,134.38879125514575L93.85253333333334,139.65425083943512L93.99571666666667,139.9824141887971L94.24185,140.84218383449095L94.27735,146.73002677206617L94.87966666666667,148.65451090384343L94.88676666666667,149.16533366972922L94.9128,134.8430578092825L95.0193,135.05107720286253L95.22993333333334,136.8468906354586L96.09376666666667,134.85487236683653L96.17778333333332,131.91415518007037L96.36948333333333,139.3487359882116L96.65585,143.0016869896824L97.199,145.3020871141906L97.29366666666667,145.68459252073114L97.64511666666667,149.47882654704748L97.6818,151.58065555353855L98.06875000000001,145.6886527160757L98.24625,134.96231433117083L98.47818333333332,137.98316041958367L98.8249,137.18292335143826L99.01186666666668,140.04775451727664L99.24143333333333,145.13486798588931L100.0177,140.21061410786479L100.21413333333334,139.13968312877387L100.45316666666668,134.83514856202464L100.93005000000001,133.16415599741558L101.29570000000001,136.78181939440262L101.3454,142.94063141255987L101.82583333333332,137.85712542391036L102.12048333333334,143.42675846387795L102.69913333333332,145.5036766291966L102.92278333333334,144.99930529144055L102.97603333333333,146.40543104828186L103.47184999999999,136.34243551941432L104.44573333333334,143.6756562244446L104.46703333333333,148.40354350330045L104.58181666666667,147.28900444256527L104.64216666666667,134.07006963635678L104.83268333333334,133.10000408690996L105.5202,141.33031003868288L105.53676666666667,147.16220686629953L105.85626666666667,134.08672618445812L106.16866666666667,141.3233908250467L106.26215,141.4672403156751L106.4006,146.88616718997764L107.04788333333333,146.65600828489798L107.18751666666667,148.61912993325143L107.27745,137.61999417469912L107.58393333333333,124.36380270754464L107.67978333333333,107.31401864420585L108.19098333333334,118.30387646302182L108.34008333333333,124.46355424791014L108.37085,135.4061242483117L108.50811666666668,143.14145049375375L108.75661666666666,146.43670016815835L108.81696666666666,147.87124874794262L108.84299999999999,146.7052917220244L108.88204999999999,150.16836871104937L108.91163333333334,151.9459881822452L109.2193,133.2635465077283L109.22166666666666,129.2884018430051L109.34236666666666,128.39784393977106L109.34591666666667,113.3331501049881L109.52815000000001,100.40724383422096L109.72340000000001,114.8787577787709L109.90090000000001,108.80204404745335L110.06183333333334,120.98754198765289L110.26299999999999,125.40510582820822L110.99075,124.86892690125629L111.04636666666667,134.37317002054976L111.11736666666667,133.87483959991107L111.14458333333333,133.7902292891038L111.45580000000001,131.53791112357746L112.3007,140.90282478453804L112.6202,134.60894093450486L112.97283333333333,142.38371459013365L112.99413333333332,138.77730767949078L113.0888,142.9054161866517L113.51598333333334,133.64146161931825L113.85915,132.30311179169345L114.1112,132.98146560954547L114.17155,135.7609779355183L114.34195,137.96636520302178L114.39756666666666,136.26240655626935L114.53601666666667,143.50027578736135L114.67328333333334,134.65003257782024L114.68156666666667,135.75573447281025L115.01881666666667,142.3908509805637L115.41168333333334,144.28019269206055L115.85069999999999,149.3069215521304L116.1276,134.57220753417L116.21398333333333,132.21539713051402L116.88493333333334,135.5519953943022L116.9654,122.3104010055304L117.05651666666667,124.2978301390901L117.07308333333333,133.3785713087102L117.11923333333333,136.7015690016531L117.1571,143.70318363509693L117.64581666666666,148.2042161395018L117.85763333333333,141.68275169693538L118.30493333333332,147.50133765973735L118.3712,138.1853330897206L118.37593333333334,137.0066192141536L118.45285,124.32340623036023L118.52976666666666,134.01614663809238L118.79601666666666,131.77190669393937L118.81495000000001,132.0031331675532L118.98535000000001,140.72160734414746L119.01611666666666,141.93282775427494L119.0599,136.25575528502554L119.51311666666666,128.9858506248957L119.5356,138.80758741466167L119.6563,143.23712073309576L119.9687,146.3218018561166L120.10241666666667,146.24427364447817L120.14383333333333,147.58853838438998L121.57211666666667,151.29443858852449L121.61234999999999,145.27805989974445L121.70583333333333,147.4206420361285L122.20046666666667,151.08097160736995L122.78621666666666,150.6413347477514L123.30096666666667,148.78415117545595L123.55183333333333,151.4989471728625L123.77903333333333,144.33566888848094L123.87961666666666,129.9318466118995L124.03581666666666,130.1926897947327L124.35650000000001,131.18557872562224L124.45116666666667,133.61430238755034L124.85231666666667,141.86149673753533L124.889,144.42285902618116L124.92805,149.20681475004366L125.06295,145.8993786559158L125.1375,147.1461181298625L125.45108333333333,146.5748801927748L126.35751666666667,134.6228669752527L126.45809999999999,140.86902257480224L126.62731666666666,146.22632863959402L127.08290000000001,149.49405904524656L127.15035,141.89106436177758L127.40595,139.51330386093338L127.59883333333333,136.9432839522373L127.9633,134.65252879938916L128.59875,142.49190587733435L128.7656,147.68208476327834L129.29455000000002,146.80269851362868L129.39513333333335,137.3614619377481L129.41406666666666,136.49967233154473L129.8661,138.913144490508L130.1359,145.62593262512235L130.20926666666668,149.32032374043388L130.4483,139.492849092597L130.70035000000001,133.4233019111786L131.46241666666666,141.61364653252778L131.70618333333334,132.50779690633738L132.08958333333334,133.52635725313172L132.11325,137.69874804342462L132.1168,142.19236585189188L132.21738333333334,147.33419725893117L132.22093333333333,146.13043002666828L132.67651666666666,141.89503898257004L133.39716666666666,141.49460430641403L133.46698333333333,146.25802275025472L133.86695,146.44601434172384L133.98173333333332,150.58522543307336L134.2752,153.5043940388632L134.78403333333333,147.89622932134984L135.53545,145.06308833315853L135.82891666666666,144.6315510440193L135.95553333333334,142.09058358026473L136.15196666666665,141.15529337226283L136.30225000000002,145.4018896524687L136.46436666666665,149.39353879363313L136.53063333333333,150.5581821808104L136.5685,139.53576482038335L136.65251666666666,138.7402478585583L137.10218333333333,145.09261239315936L137.2075,149.50422186729395L137.23471666666666,148.23592623504874L137.62403333333333,151.5163568760226L137.90093333333334,152.89068304883222L137.97785,147.10750567254698L138.63578333333334,133.08634609932307L138.71861666666666,141.38607886019014L138.94344999999998,146.25458440828132L139.15645,150.40432854698838L139.39311666666666,133.61093082635054L139.48778333333334,129.75146050208386L139.61795,135.23811602782567L139.88538333333335,142.6115965365201L140.11258333333333,146.81979742047713L140.19541666666666,146.97586447556185L140.2534,146.82788716069044L140.88293333333334,142.8983645800489L141.41661666666667,146.82112217330854L141.54205,149.98536558429785L141.54441666666665,152.88551876057863L141.86391666666668,145.84223552370457L142.67095,145.91483767048615L142.69816666666668,148.43859914814058L142.88986666666668,141.94958778907113L143.01648333333333,139.1974280597459L143.0863,143.88602060367822L143.18096666666668,140.83888421052202L143.26971666666665,131.16245120926413L143.36793333333333,136.414791155756L143.46141666666665,143.77817681481497L143.58093333333335,144.69923255696932L143.69453333333334,141.09072216874685L143.775,141.10015251546477L144.27673333333334,144.8725629392136L144.3004,147.69622126969134L144.73113333333336,151.17252565389975L144.97016666666667,147.7710537626309L145.00803333333334,142.73548103376385L145.07193333333333,146.32496575884267L145.17843333333334,149.10439402229022L145.40918333333335,146.2768653881435L145.44586666666666,146.15422471696573L145.51095,138.52236380689072L145.55236666666667,138.31564701562525L145.5642,145.23436078965145L145.79495000000003,140.7006259352769L146.16296666666668,146.91617223683346L146.6718,150.56655068179032L147.06111666666666,152.97542863971333L147.12975,142.4201745065747L147.56758333333332,146.82071133539637L147.70721666666665,140.9887347392089L147.77821666666665,138.71108114308308L147.79478333333333,130.4683089456845L147.81253333333333,131.42606230134234L147.82791666666665,134.6919388927812L148.02790000000002,139.8393332437023L148.43141666666668,141.8480981481003L148.63968333333332,147.03202960386844L148.83375,139.0915871165065L148.85031666666669,137.86224379384845L149.34968333333333,144.95700235899358L149.41713333333334,148.2303852291684L149.56268333333335,129.70581713491433L149.77095,138.57007012876795L149.88928333333334,137.35487947400938L150.4064,143.11663474904856L151.18858333333333,146.30754020706772L151.27496666666667,141.17347407374115L151.99916666666667,143.93200060379007L152.16128333333333,148.36601878020406L152.93755,144.8583106700454L152.93873333333332,145.17673429377444L153.00736666666666,146.78580686651364L153.24403333333333,146.78743879820684L153.62388333333334,148.31918277913843L153.9090666666667,143.2843552580593L154.06053333333332,142.54511886034786L154.09958333333333,148.20891392410516L154.32915,148.23093528058405L154.52795,141.25372497932256L154.59303333333332,138.0092132138357L154.70663333333334,137.98517738767623L155.24741666666668,128.16561909322127L155.29593333333332,131.8565107056773L155.40006666666667,140.7364864440682L155.66276666666667,136.4348378147551L155.84381666666667,139.59338278037046L156.1006,145.69572410328183L156.75735,149.30449543984855L156.98691666666667,151.3721907864293L157.03306666666668,152.41613687707087L157.26855,147.80162434483415L157.76555,143.58117870328027L158.0815,148.5327520557231L158.26136666666665,151.21061902772843L158.54418333333334,153.89998185352607L158.91338333333334,148.22121578265867L159.11100000000002,151.09263764292734L159.53818333333334,146.90522750042564L159.86478333333332,150.40874502833907L159.9275,148.02245093553572L160.34994999999998,145.5134494912996L160.36415,142.04665442142556L160.65643333333335,135.4424096115651L160.79015,133.95247602832583L160.98066666666665,130.5630206801265L161.08716666666666,139.29183743751327L161.47056666666668,143.34779780476933L161.7309,147.01955735770082L161.77586666666667,146.976338609254L161.86106666666666,145.15592462737274L161.90721666666667,136.24982467937946L162.13678333333334,136.9969809826215L162.15335000000002,137.40013482007978L162.17346666666666,138.80959741942263L162.30126666666666,145.03600015645856L162.86926666666668,149.62335206352515L163.0941,152.71717270099487L163.23136666666667,154.46243212562695L163.4917,155.15329009782425L163.52601666666666,143.27339199131887L164.07153333333332,139.158403247063L164.37565,140.1208151622779L164.40996666666666,122.57882353845736L164.48215000000002,131.7906489299795L164.84188333333333,125.45036189983887L165.04068333333333,133.2077663638363L165.643,125.54663144409577L167.07838333333333,128.05379982808776L167.07956666666666,133.87717265064418L167.24405000000002,134.04955477870936L167.27955,140.78671754189241L167.32806666666664,139.58487075633823L167.83926666666665,143.00630568180216L167.88896666666668,148.41464133083605L168.2771,151.52100362260572L168.77055000000001,153.232092312406L168.78475,139.96074887619827L168.909,135.53296123729382L169.29831666666666,138.00386296918902L169.9385,141.19444053412678L169.96689999999998,144.350009248199L170.00594999999998,145.1298032079912L170.52306666666667,137.24231998617972L170.63430000000002,134.7137154282038L171.03071666666665,138.6778923135695L171.30051666666665,122.85046571969193L171.36915000000002,135.22764360322415L171.6354,130.09796155974414L171.92768333333333,139.79937861009822L173.29325,146.18508398095562L173.58079999999998,142.55332278153762L173.87426666666664,147.1820574940703L173.93698333333333,142.04919584200428L174.06596666666667,146.6796322759909L174.22335,145.593768883712L174.44108333333335,148.20865536060248L174.59255,151.97548170028134L174.70496666666668,145.35242000354413L174.8801,144.46032441640727L174.91796666666664,142.19108166130374L174.99014999999997,139.17567641279214L175.01145,139.19651494658126L175.26705,144.31467794156669L175.49425000000002,146.1109031473056L175.61731666666665,149.44936093698598L176.14271666666667,147.99438067216707L176.49061666666668,151.69407648892496L176.69414999999998,143.83562312231317L176.79828333333333,142.80426031706594L176.81248333333335,140.1011396647313L176.82195000000002,139.36922915148145L176.91188333333332,130.27645609691228L176.96276666666668,138.98032429878225L177.41243333333333,141.25824157903043L177.5852,145.2074238982373L178.33306666666667,139.42797604925815L178.59695,146.1733102542529L179.26553333333334,148.3911453852717L179.27855,147.91912518955053L179.48918333333333,151.64235535947248L179.55308333333332,151.10015118182622L179.7211166666667,152.60408537551473L180.66778333333335,153.10426461256998L180.95178333333334,155.1850579231011L181.29495000000003,146.49553071116983L181.42748333333333,150.02805850971797L181.67598333333333,147.14193493244628L181.76118333333335,150.1804198421871L182.06885,143.5758704638254L182.24280000000002,144.61757670058898L182.67945,141.11249991748033L182.69483333333335,146.00605053123164L182.79541666666668,145.29684481667255L183.2723,149.06700787183019L183.39773333333335,151.5293562026993L184.1456,154.059093729593L184.44971666666666,155.16127946101884L184.8485,154.27205164420954L184.9325166666667,155.98031768414418L185.02481666666668,156.59204594385605L185.39756666666668,155.32323689577686L185.40348333333333,149.41173310291455L185.42123333333333,152.6216465180817L185.81173333333334,154.49399317715825L185.84959999999998,150.68319168150836L186.08271666666667,142.341782776275L186.35488333333333,146.07891605607247L186.4531,150.49337102880375L186.47558333333333,144.85495501828984L186.59746666666666,149.35815455185295L186.92761666666667,152.0251703486807L187.49325000000002,150.89666457283874L187.52638333333334,151.27902841767204L187.62815,153.13386141089697L188.079,142.3797452207262L188.45648333333335,140.8383960015142L188.62806666666668,145.76785530677262L188.6825,146.24378907250704L189.30493333333334,144.71509459119486L189.35226666666665,145.5917205428874L189.38776666666666,149.2869465372339L189.39960000000002,144.11413770708515L189.48953333333333,131.1250892072462L189.5297666666667,139.30315382222815L189.63271666666665,145.69542601079587L189.66940000000002,147.77144315773504L190.2220166666667,149.68704968227556L190.50483333333332,151.21412597671582L190.78055,149.95747241141186L191.52723333333333,153.0535987824071L191.56983333333335,139.06391864614815L191.68461666666667,130.67287482784297L191.93311666666665,139.19349693884084L191.9343,137.19343957193252L192.28811666666667,138.86499736992306L192.58986666666667,130.94370019308667L192.75671666666668,136.91409703517934L193.1046166666667,144.23002612376573L193.28921666666665,141.84211861808774L193.45843333333332,138.95893852449444L193.5602,143.78852053603939L193.79213333333334,140.23296597661707L193.82171666666667,146.43715091513974L193.97081666666668,146.7540239115603L194.05365,143.7411162340076L194.33528333333334,143.97516217805588L194.4051,148.63772840526946L194.54591666666667,143.6426347587703L194.69265000000001,148.9192833747897L195.9884,149.12737193677287L196.09253333333334,151.47766333969417L196.13868333333332,141.13008251212347L196.1872,139.24895335307443L196.80371666666667,140.84090282468674L196.90666666666667,147.0953402784407L197.25811666666667,141.33446041379176L198.05095,138.22601054499853L198.19886666666665,144.7847252172751L199.02483333333333,142.50531795324537L199.14198333333331,148.1446650493961L199.30291666666668,151.92252129513645L199.44728333333333,148.1795040167182L199.51591666666667,148.71588557450414L199.59756666666667,152.2934484210125L199.6023,153.34083690750822L199.72181666666668,155.29266009468668L199.82358333333335,153.41257080872487L200.50755,150.80820692273136L200.64126666666667,153.51089880027882L200.79273333333333,154.49018282149353L201.03295,155.35070428222883L201.0933,156.2433191461117L201.17495,153.3296267421261L201.17968333333334,153.6293764886312L201.80329999999998,151.5173437033151L201.82578333333333,134.86799717125058L201.92045,126.21728930899164L202.06481666666667,119.77356526703554L202.18906666666666,124.13469881514317L202.40088333333333,131.80715783798436L202.41745,140.27440599924768L202.46005,146.30823284293166L202.50856666666667,148.9316181816709L202.6198,143.99438998835427L202.67778333333334,149.187828942053L202.79256666666666,152.58448505868077L202.89078333333333,146.55812989822934L202.99373333333332,147.74202277607978L203.01503333333335,144.678075622034L203.17478333333332,149.39482306386193L204.1534,141.04754757916734L204.44095,139.0004536799156L205.37578333333332,133.52885061995505L205.45506666666668,135.052301055139L205.52725,138.63529702811854L205.95325,137.7868478279612L206.5177,141.25943856948206L206.6869166666667,147.3315806504839L207.30816666666666,146.53591943922214L207.40046666666666,150.80887301915018L207.77558333333334,143.85042446904444L207.93651666666668,144.64578302191717L207.95426666666665,148.71474839387147L208.6335,148.37967716229912L208.73171666666667,142.3180855870262L209.03938333333335,147.9576461838773L209.24528333333333,148.37111425455214L209.33166666666665,138.9168902458631L209.50443333333334,142.9185206982387L209.52691666666666,134.18320179070128L209.60501666666664,141.88979733678238L209.79553333333334,133.8491512869703L209.90321666666665,135.17299707802522L209.9600166666667,139.60323353022113L210.1884,144.458210250859L210.40849999999998,149.37564497131822L210.5481333333333,152.72422110109272L210.6286,147.60538074595104L210.68303333333333,148.61766414434973L211.46048333333334,151.36280121487613L211.64508333333336,152.9182665899274L211.79891666666668,155.06246779299005L211.98706666666666,156.36054241817817L212.30065,157.32383548511737L212.43554999999998,157.97951797278L212.73966666666666,149.49714340695382L213.24021666666667,149.26541764023307L213.29938333333334,152.62822433938655L213.5029166666667,154.43131472252657L213.5467,146.44999265707216L213.83898333333335,140.68514381295648L214.13008333333332,144.60019579759734L214.37266666666667,140.63192416146188L214.4058,140.49129965857426L214.61524999999997,146.7545214765021L215.30868333333333,150.50734822743527L215.3359,152.4204116276591L215.53588333333332,152.88759863632816L215.53706666666668,154.30404513387344L215.61161666666666,141.5494372511465L215.70865,135.5769899781355L215.86129999999997,135.33711719556985L215.92874999999998,143.4137195184805L216.05773333333335,140.5170465460703L216.14175,139.1148288144716L216.3015,145.9373150919089L216.70265,147.55912220331314L216.90144999999998,142.09269788567727L217.68245,147.90679530683343L217.8209,137.08271440471114L218.47055,144.6351655168331L218.70366666666666,132.84375634785272L218.751,141.83204008684447L218.89655,147.42253999260353L219.46573333333333,147.44157617719185L219.6243,145.8527102379163L219.86451666666667,139.28949603086565L220.09763333333333,134.53713076579834L220.45381666666665,142.6500760993516L220.48103333333336,134.18522807724898L220.7082333333333,129.43897185542815L221.13068333333334,139.59110633719135L221.2218,144.8247992925464L221.46083333333334,145.26931448879128L221.56141666666667,150.03951156606715L221.69276666666667,145.851731217876L221.75311666666664,150.04306475348616L222.04658333333333,153.19002764957122L222.51163333333335,149.05730117476386L222.68085000000002,145.90222770227814L222.92816666666667,150.45092786201735L223.1175,147.60555602969998L223.31985,149.17050025146307L223.49261666666666,152.5844345633401L223.50563333333332,151.8546649293235L223.65828333333332,154.2338716153592L223.68195,146.62241467372888L224.03340000000003,143.45650151556697L224.30675000000002,147.1764370764021L224.6156,149.52241993722L224.6842333333333,149.34080802976695L224.79073333333332,135.61659714077453L225.05698333333333,143.48902488344308L225.42026666666666,147.4886547921463L226.26871666666668,142.83029399396185L226.75151666666667,142.48432550465657L226.79766666666666,138.81123501371832L226.8095,145.73262805890027L227.47453333333334,145.45123358554292L227.69344999999998,138.89771893087217L228.35138333333333,141.42597885119622L228.49456666666669,143.78089824714647L228.59041666666667,148.9156438338129L228.60816666666668,148.7441751388225L228.7336,152.3169908332987L228.94068333333334,153.9568001655328L229.04245,154.88039463999698L229.2661,154.141395757047L230.05775,154.96696699807342L230.33346666666668,156.40942493440144L230.65888333333334,148.112457129166L230.88135,134.9664310355699L230.95235,134.79075946126505L231.07423333333335,137.63411536339245L231.19848333333334,143.7561537495369L231.4032,149.0062268781645L232.03036666666668,137.83733123009094L232.25283333333334,144.0685871501634L232.2694,149.22016460344747L232.28715000000003,144.70303215223618L232.36998333333332,137.08998423261568L232.6244,130.00851075206657L233.21843333333334,126.80511630779449L233.92843333333334,136.73428310027145L234.0373,141.41946427895107L234.1864,137.0042506336023L234.52838333333332,140.3023475319883L235.08336666666668,132.32264423869935L235.09046666666666,133.95908718152748L235.13070000000002,140.2476537969607L235.28453333333334,139.25889313018843L235.68213333333333,146.06700840509924L235.71645,139.93437650101598L236.02648333333335,143.67504725074434L236.08446666666669,142.68670272667543L236.28918333333334,142.64625677134558L236.62761666666668,147.3810209045339L237.0406,126.03145229950437L237.07610000000003,137.3387884937606L237.38258333333334,137.1138573201996L237.9091666666667,136.27714836750937L237.9139,143.09949249269047L237.97898333333333,140.79795066258686L238.16713333333334,146.92887871739669L238.20263333333335,150.8073962602121L238.3257,142.57039018198327L238.39906666666667,148.23178891784818L238.60378333333333,141.253671414623L239.13746666666665,145.853813219177L239.62855,148.45180394731045L240.02259999999998,144.64421518072658L240.0865,147.65150468275064L240.15158333333335,148.09018794889823L240.1575,146.78447398117262L240.48291666666668,151.03758031828588L240.53853333333333,136.4617289775236L240.54090000000002,137.186588268607L240.79295,138.0658331787241L240.92548333333335,142.4546127055715L241.17635,123.63857672572695L241.30769999999998,132.94560258493792L241.31953333333334,138.53939521799424L241.5775,145.57182081200676L242.28276666666667,132.5283045896518L242.2946,136.49896369031015L242.37743333333333,139.55928555972002L242.65315,146.25737057036963L243.31226666666666,139.63847488979988L243.77376666666666,138.37333020134295L244.04238333333333,144.63400737804847L244.05776666666668,146.03054846074548L244.30626666666666,143.05631043995024L244.4033,148.57018594673156L244.58198333333334,145.7393204283653L244.61511666666667,147.97059747592402L244.86243333333334,151.8112474584592L244.99141666666668,143.0023654065379L245.05768333333333,148.4485269139471L245.11685,152.0907037914721L245.12986666666666,153.23703693510714L245.66118333333333,153.21394328548183L245.74875,155.04390303998687L246.06706666666668,156.46494204174178L246.1215,151.98378343151668L246.21734999999998,147.6206866178711L246.57945,143.9283039369094L247.59120000000001,142.24721384031764L247.61605,139.55441481352753L247.62433333333334,146.26369776188992L247.65155,150.64730729152217L247.69888333333333,143.27725592290403L248.00181666666668,147.14540418801334L248.17458333333335,146.56245304670566L248.41835,137.10271749972878L248.4219,144.57194038191645L248.76388333333333,149.5607462915105L248.90115,140.00413081577744L249.02421666666666,143.33574386554633L250.37676666666667,140.73637209027675L251.12226666666666,141.131108883939L252.405,146.0354752064207L252.44523333333333,144.39772484120755L252.64995000000002,138.72887184070785L252.91738333333333,145.66943998256588L252.95998333333333,137.59352480650657L253.67708333333331,132.31886247532836L253.78595,138.63020151320694L253.96936666666667,139.09829791176293L254.36696666666666,145.76355973894275L254.75155,141.2116928031228L254.7693,137.0267235657692L254.89118333333334,141.57413480789853L255.0249,146.66312962035852L255.15033333333332,150.71972859855933L255.4935,153.58707656980036L256.1881166666667,138.85589917416885L256.46028333333334,141.91674164937177L256.51945,147.80836897693055L256.79043333333334,151.21183290191547L256.93598333333335,138.35767236315525L257.0495833333334,133.4799038194397L257.6436166666667,117.7102434633408L257.8672666666667,131.80994748301913L258.2057,117.15289567989333L258.45301666666666,122.46621357238558L258.9748666666667,128.2921517088407L258.9796,127.48753884409862L259.4576666666667,138.234339676599L259.4908,138.9124279977264L259.93455,145.26470241329565L259.93809999999996,149.82940305786553L260.08365,139.2963340338406L260.22565000000003,137.5972362058741L260.3333333333333,142.26048231752935" style="fill: none;" fill="none"></path></g></g></g></g><g opacity="0.2"><g><g><g><path stroke="rgb(255, 112, 67)" stroke-width="2px" d="M23.71755,36.80915801525117L23.865466666666666,36.674497532844555L23.938833333333335,36.970974254608166L24.22875,36.91094462871553L24.302116666666667,36.6201860189438L24.353,36.6711320757866L24.361283333333333,36.821680891513836L24.433466666666668,36.65908395051957L24.62398333333333,37.14512346982957L24.86775,40.01969854831697L25.24523333333333,48.53608785867692L25.306766666666665,39.92599325180055L25.367116666666668,44.96976892948152L25.71975,36.65239523649217L25.723300000000002,37.04958246946336L25.888966666666665,43.94216512441636L26.3978,37.312710571289074L26.494833333333332,47.04827098846437L26.608433333333334,36.63660185337068L26.609616666666668,36.620523619651806L26.8451,38.688201355934154L27.490016666666666,36.9681468486786L27.508950000000002,37.71845387220384L27.578766666666667,47.0809655070305L27.94915,37.423222053051006L27.951516666666667,39.08859579563142L28.7763,45.88593285083772L28.87451666666667,37.14779262542726L28.983383333333332,36.75391809940339L29.0035,39.87179778814317L29.5502,40.93193786144258L29.74308333333333,41.85156219005586L29.992766666666665,36.85591571331025L30.440066666666667,40.886045265197765L30.6578,39.378141152858745L30.756016666666664,39.87538479566575L31.004516666666664,36.900721657276165L31.595,36.90514211654664L31.609199999999998,36.64061086177827L31.778416666666665,37.69573967456819L31.91095,37.2004688858986L32.1346,36.775672245025646L32.49551666666667,38.23228214979173L32.499066666666664,37.02511696815492L32.89548333333333,37.00089411735536L32.9369,37.79101692438127L33.21261666666667,40.06692044734956L33.347516666666664,39.818235325813305L33.396033333333335,50.84540330171585L33.723816666666664,36.76115541458131L33.73565,36.713891315460216L34.17348333333334,40.068239200115215L34.24093333333333,37.32451604604722L34.62551666666667,40.63758169412614L34.871649999999995,37.58288608789445L34.973416666666665,47.73412792682649L35.143816666666666,49.52445613145828L35.973333333333336,38.64059965610505L36.068,36.772612738609325L36.118883333333336,36.77641074657441L36.5721,36.82726185321809L36.644283333333334,43.859948801994335L36.70818333333334,37.53011487722398L37.314049999999995,36.87138204574586L37.354283333333335,43.745217311382305L37.83116666666667,47.94386236667634L37.83708333333334,42.590844440460216L38.06191666666667,41.19421141147615L38.211016666666666,36.951034712791454L38.905633333333334,36.946266102790844L39.09141666666667,37.792198526859295L39.12336666666667,38.219959723949444L39.78485,37.55114107131959L40.58241666666667,39.4678901910782L41.02498333333333,43.68799399137498L41.156333333333336,37.96819399595262L41.26756666666667,36.837252724170696L41.97756666666667,45.08432106971742L42.32191666666667,38.67634313106538L42.73845,49.73647992610931L43.6153,46.563370871543896L43.86261666666667,53.56468205451965L43.8993,37.85953931808473L44.15963333333333,38.79859678745271L44.18566666666666,45.818750309944164L44.42706666666667,43.85335503816606L44.44363333333333,45.144181895256054L45.501533333333334,43.08866833448411L46.77953333333333,43.50076274871827L46.908516666666664,42.4691393852234L47.0162,53.01360164880752L47.328599999999994,46.66112737655641L47.39723333333333,43.4825534105301L47.40788333333333,40.87691949605943L47.62325,43.58608077764512L47.71673333333334,39.83778451681138L47.855183333333336,40.309528756141674L47.97233333333333,62.605439114570615L48.018483333333336,52.882296073436734L48.25633333333333,50.65458505153656L48.259883333333335,55.42627565860748L48.346266666666665,49.75043760538101L48.612516666666664,49.73506622314453L48.68825,47.722354102134716L48.79238333333333,65.84697561264038L48.89533333333333,41.29988043308259L49.52131666666667,95.3543905198574L49.991099999999996,124.49307951629163L50.091683333333336,49.907305884361264L50.12481666666666,43.531906414031994L51.04781666666666,87.79468249082565L51.05965,50.15725700855255L51.222950000000004,40.31189196109773L51.3117,82.19376014471054L51.3898,117.28201279342176L51.523516666666666,63.54607908725738L51.67735,93.65207587480545L51.71403333333334,64.85552673339843L52.2418,98.04257308244705L52.40155,68.22737710475921L52.40391666666667,58.5048459649086L52.448883333333335,66.74910800457L52.8027,93.11310161948204L52.928133333333335,77.68633704185486L53.17308333333333,145.9429203003645L53.55056666666667,66.04259412288665L53.71386666666666,69.00928144454956L54.21205,81.8290669798851L54.25346666666667,73.34407453536987L54.34103333333333,63.36588470935821L54.79306666666667,58.65092157125473L55.377633333333335,98.13343514800071L55.378816666666665,87.15348907113075L55.80008333333333,153.44622527360917L56.21543333333333,105.53063063621521L56.3314,133.39326280653478L56.37281666666667,93.6040152490139L56.594100000000005,128.2530704766512L56.70178333333333,99.67157562375068L57.31948333333334,152.25633905008436L57.443733333333334,98.30125962495804L57.94901666666667,93.74599217176437L57.97978333333333,129.0736511975527L58.05788333333333,68.32083975076675L58.222366666666666,74.50969372987747L58.29573333333333,63.12112419605255L58.541866666666664,130.90430158674718L58.70753333333333,67.07977734804153L58.9655,77.59082241654396L59.173766666666666,155.5884959522635L59.20453333333333,117.22757204174997L59.37375,157.8139281693846L59.5548,124.7004402011633L59.724016666666664,80.56909893751144L59.892050000000005,88.06024237275123L60.00328333333333,115.21636857390405L60.019850000000005,118.08536269068719L60.83161666666667,58.649349617958066L60.875400000000006,104.298161226511L61.392516666666666,97.75183029770851L61.458783333333336,112.57745461463928L61.779466666666664,101.14076642990112L62.04926666666667,101.49138586521148L62.17588333333334,83.78399662971496L62.31196666666667,156.13794769831003L62.43621666666667,113.62993009686471L62.59241666666667,128.81218208670617L62.60188333333333,105.62157710194587L62.75808333333333,111.73678137660026L62.93203333333333,118.02721624374391L63.16159999999999,113.75676773786546L63.19473333333333,141.25470146834851L63.58996666666666,109.50964005589485L63.60416666666667,110.36194996833801L63.646766666666664,82.68669937849045L63.71066666666667,141.7130603671074L63.75445,111.09143652319908L63.79823333333333,103.03474860191345L63.94378333333333,89.39891885519027L64.32955,117.54142992496492L64.52243333333332,108.43676610589027L64.61,62.18478863239288L65.47856666666667,102.80106033682823L65.50341666666667,90.71861057281494L65.65606666666666,102.02794416546821L65.99686666666666,127.79321347475053L66.21223333333333,105.76376502513885L66.31163333333333,137.5690776139498L67.01216666666666,124.9151990890503L67.04766666666667,120.69858734607698L67.17546666666667,130.90312262177468L67.27368333333334,158.88995303185658L67.69021666666667,140.47971794307233L68.02983333333334,112.0000888288021L68.35525,141.73152026832105L68.48778333333334,98.32288189530372L69.17293333333333,78.4228551864624L69.48651666666667,159.01098010393326L69.62851666666667,87.73195733428001L69.79536666666667,131.40690200328828L70.16811666666666,98.24631510972976L70.64855,130.07841156721116L70.8935,117.6725324124098L71.02485,101.28834013938904L71.35145,145.78321934044362L71.59285,117.64543995559217L71.79046666666667,130.11009064614774L71.85318333333332,155.9349168084562L71.93956666666668,111.11378147006035L72.23185,135.99613525271417L72.5052,129.57292308211328L72.82233333333333,133.75709086954595L73.52641666666666,103.20243065357208L73.90035,133.39403295814992L73.92165,137.5502616494894L74.17015,103.36495901942253L75.16415,153.27430475056173L75.30733333333333,133.5788614332676L75.39253333333333,141.47613588273526L75.42448333333333,153.3163518637419L75.42921666666666,123.49890609383584L75.50376666666666,156.28274048790337L75.72623333333334,133.27002272307874L75.82090000000001,147.9859413161874L75.97118333333333,145.37355538755656L75.97946666666667,155.39352989494802L76.03153333333333,135.80597110390664L76.09425,156.29342370405794L76.70011666666666,141.4215170994401L76.87525000000001,110.13215993642807L77.35805,115.98380883336068L77.51780000000001,130.73874008953572L77.69648333333333,90.57480322122574L78.47748333333334,110.10345332622528L78.49641666666668,128.6175157159567L78.5899,146.4936828866601L79.6407,132.5069448977709L80.03948333333334,84.4453669667244L80.11876666666667,102.7434572160244L80.16491666666667,93.8768546462059L80.32821666666668,147.27124193608762L80.40513333333334,111.7832911491394L80.43235,143.19025732129813L80.55778333333333,121.73132109940053L80.68203333333334,133.69690563082696L80.73646666666667,128.31221917569638L81.08555,156.27280764207245L81.97305,136.71963994503022L82.06653333333333,125.07308280766011L82.21563333333333,144.91297702789308L82.84161666666667,96.37345935702324L82.90078333333334,152.15601757094265L83.02976666666666,132.40592579841615L83.06526666666666,126.86470075249673L83.80366666666666,83.0375456392765L83.99300000000001,78.29233031272888L84.17641666666667,140.85882243812085L84.28646666666667,134.90903196036817L84.96215,157.38860864304007L85.20236666666666,114.44931339025499L85.54671666666667,143.70984459221364L85.6189,134.91426213383676L85.80468333333333,147.00884178578855L86.00821666666666,130.68581062853337L86.27328333333332,128.58507176041604L86.31233333333333,133.84958027601243L86.49338333333334,121.15515801608564L86.51113333333333,138.67333787977697L86.93831666666667,126.65686795413495L87.21995,138.49084887206556L87.23296666666666,156.88636626787485L87.40455,141.19395444095136L87.45661666666666,158.01912362705917L87.71340000000001,134.32843786776067L88.38553333333333,149.01571183204652L88.52279999999999,156.9660929499194L88.67663333333333,134.32106603980066L88.72988333333333,150.88594194799663L89.10499999999999,151.46513025015594L89.39373333333333,132.93543668389322L89.40320000000001,129.85870999395848L89.5949,107.5125683426857L89.65761666666667,112.00109635591507L90.3333,117.8308539569378L90.53446666666666,125.70239953994752L90.55103333333334,152.47082099989058L90.65398333333334,126.89301701188089L90.86580000000001,109.09572048783302L90.90485000000001,158.11664860853926L91.47876666666667,151.1522620908916L91.69058333333334,156.47425503954292L92.82185,147.75277659595014L92.95911666666667,126.64426331520082L93.152,155.34137355275453L93.18395,157.591317592375L93.20406666666666,134.36282302737237L93.79691666666668,115.24601413607598L93.85253333333334,149.87543709129096L93.99571666666667,140.619437161088L94.24185,142.51114844083787L94.27735,158.1593689450063L94.87966666666667,152.39027421846987L94.88676666666667,150.15693080350758L94.9128,107.04099290370941L95.0193,135.45487955510617L95.22993333333334,140.33288141638042L96.09376666666667,130.98801337480546L96.17778333333332,126.20570417046548L96.36948333333333,153.7805693216622L96.65585,150.0927095219493L97.199,149.76756970882417L97.29366666666667,146.42710301578046L97.64511666666667,156.84410436283798L97.6818,155.66067656613887L98.06875000000001,134.25123544335366L98.24625,114.14059864282609L98.47818333333332,143.84715576767923L98.8249,135.62952198386193L99.01186666666668,145.60889736860992L99.24143333333333,155.00985295437278L100.0177,130.65176834464074L100.21413333333334,137.0608171105385L100.45316666666668,126.47928734421731L100.93005000000001,129.9204645484686L101.29570000000001,143.80434245914222L101.3454,154.89597238898278L101.82583333333332,127.9891432106495L102.12048333333334,154.23839907087387L102.69913333333332,149.53534130305053L102.92278333333334,144.0202315181494L102.97603333333333,149.13496928215028L103.47184999999999,116.80838537514211L104.44573333333334,157.91073171067984L104.46703333333333,157.5812070446089L104.58181666666667,145.12548744231464L104.64216666666667,108.40978442430496L104.83268333333334,131.2169356673956L105.5202,157.30678629800678L105.53676666666667,158.48294776696713L105.85626666666667,108.70491074323654L106.16866666666667,155.37103395089508L106.26215,141.7464775621891L106.4006,157.405260534212L107.04788333333333,146.20922923386098L107.18751666666667,152.4298954859376L107.27745,116.26873064339162L107.58393333333333,98.63119574189186L107.67978333333333,74.21737899184227L108.19098333333334,139.63712987601758L108.34008333333333,136.4205758303404L108.37085,156.6475836608559L108.50811666666668,158.15708379372956L108.75661666666666,152.83336130082608L108.81696666666666,150.65596069693567L108.84299999999999,144.44196337759496L108.88204999999999,156.89081227798016L108.91163333333334,155.39666127339007L109.2193,96.99763031601906L109.22166666666666,121.57194455266L109.34236666666666,126.66911389231683L109.34591666666667,84.08992089629173L109.52815000000001,75.31577872037887L109.72340000000001,142.97052014172078L109.90090000000001,97.00607033371925L110.06183333333334,144.64174387156964L110.26299999999999,133.98037681281568L110.99075,123.82810898423196L111.04636666666667,152.82258313447238L111.11736666666667,132.90749231278897L111.14458333333333,133.62598574459554L111.45580000000001,127.16576409637929L112.3007,159.08177483228502L112.6202,122.39140169620515L112.97283333333333,157.47592227458955L112.99413333333332,131.77663544118406L113.0888,150.91880328878761L113.51598333333334,115.65849098861219L113.85915,129.70513859689237L114.1112,134.29827007949353L114.17155,141.15650186240674L114.34195,142.24741107523442L114.39756666666666,132.95472212433816L114.53601666666667,157.55025723595173L114.67328333333334,117.4701487004757L114.68156666666667,137.9020969748497L115.01881666666667,155.27078302502633L115.41168333333334,147.94773836731912L115.85069999999999,159.06468933932484L116.1276,105.96952738165855L116.21398333333333,127.64041222929956L116.88493333333334,142.02892143577338L116.9654,96.60612954497337L117.05651666666667,128.15578081011773L117.07308333333333,151.00589240267874L117.11923333333333,143.15209393501283L117.1571,157.29455321766437L117.64581666666666,156.9415145304054L117.85763333333333,129.0234383672476L118.30493333333332,158.79623982282357L118.3712,120.10132421851159L118.37593333333334,134.7185275733471L118.45285,99.70305161476135L118.52976666666666,152.83146625310184L118.79601666666666,127.41544091999532L118.81495000000001,132.45198455750943L118.98535000000001,157.6457042751834L119.01611666666666,144.2840203151107L119.0599,125.2355557858944L119.51311666666666,114.87368275523187L119.5356,157.87331177126617L119.6563,151.83562658652664L119.9687,152.30971227139236L120.10241666666667,146.0937777042389L120.14383333333333,150.19799346774818L121.57211666666667,158.48824486713858L121.61234999999999,133.59920715093614L121.70583333333333,151.5797720655799L122.20046666666667,158.18631724566222L122.78621666666666,149.78792202025653L123.30096666666667,145.17903012335302L123.55183333333333,156.76884528547527L123.77903333333333,130.43048163056375L123.87961666666666,101.97148572206497L124.03581666666666,130.69903244376184L124.35650000000001,133.11295135617257L124.45116666666667,138.32888361364604L124.85231666666667,157.87075635809452L124.889,149.39491523355247L124.92805,158.49331703754143L125.06295,139.47906153202058L125.1375,149.56625946164132L125.45108333333333,145.46600655019284L126.35751666666667,111.42190014123916L126.45809999999999,152.99391285628082L126.62731666666666,156.62580511830748L127.08290000000001,155.83730042092503L127.15035,127.13230997622014L127.40595,134.89765112400056L127.59883333333333,131.95442177653314L127.9633,130.20576879680158L128.59875,157.70952020511032L128.7656,157.7571378948167L129.29455000000002,145.09565461724998L129.39513333333335,119.03435564339162L129.41406666666666,134.8267866253853L129.8661,143.5981198579073L130.1359,158.65663900407964L130.20926666666668,156.4917888466269L130.4483,120.4159865409136L130.70035000000001,121.64123973548413L131.46241666666666,157.51255079749973L131.70618333333334,114.8317358672619L132.08958333333334,135.5035626322031L132.11325,145.79809487164022L132.1168,150.9152710095048L132.21738333333334,157.31539940200747L132.22093333333333,143.79370539933444L132.67651666666666,133.6733975440264L133.39716666666666,140.7172899350524L133.46698333333333,155.50465855300428L133.86695,146.81093919575216L133.98173333333332,158.62016461039894L134.2752,159.1710154501023L134.78403333333333,137.00979192852975L135.53545,139.56346170902253L135.82891666666666,143.7938610121608L135.95553333333334,137.1581173270941L136.15196666666665,139.339730027318L136.30225000000002,153.6452824316919L136.46436666666665,157.14203418530525L136.53063333333333,152.81896052062513L136.5685,118.1393075913191L136.65251666666666,137.19600905030967L137.10218333333333,157.4236729603261L137.2075,158.06793437590824L137.23471666666666,145.77394059598447L137.62403333333333,157.88425164967776L137.90093333333334,155.55849267840387L137.97785,135.88133782446386L138.63578333333334,105.86880104541778L138.71861666666666,157.49732480775566L138.94344999999998,155.7052128251642L139.15645,158.45971422800795L139.39311666666666,101.01198230981826L139.48778333333334,122.25954751968385L139.61795,145.88868263661863L139.88538333333335,156.9248234063387L140.11258333333333,154.98865795992316L140.19541666666666,147.2788181707263L140.2534,146.54063707888128L140.88293333333334,135.27046780586244L141.41661666666667,154.43588691316546L141.54205,156.12772044092418L141.54441666666665,158.51522786747665L141.86391666666668,132.16997982859613L142.67095,146.0557712495327L142.69816666666668,153.3376655459404L142.88986666666668,129.3532716214657L143.01648333333333,133.85500034987928L143.0863,152.98740613013507L143.18096666666668,134.92385474145414L143.26971666666665,112.3787871479988L143.36793333333333,146.61050987541677L143.46141666666665,158.0718078000471L143.58093333333335,146.48716429173948L143.69453333333334,134.08596670925618L143.775,141.1184584826231L144.27673333333334,152.1954772911966L144.3004,153.17744038179518L144.73113333333336,157.92064592912794L144.97016666666667,141.16819656193258L145.00803333333334,132.9605457365513L145.07193333333333,153.29278904870154L145.17843333333334,154.49975476898254L145.40918333333335,140.78813333362342L145.44586666666666,145.9161575317383L145.51095,123.70757498145105L145.55236666666667,137.9143732443452L145.5642,158.66480517452584L145.79495000000003,131.89984651207925L146.16296666666668,158.98164446926677L146.6718,157.65257942788304L147.06111666666666,157.65148585215212L147.12975,121.93056354224683L147.56758333333332,155.36292988546194L147.70721666666665,129.66783899366857L147.77821666666665,134.28975357413293L147.79478333333333,114.46763350367547L147.81253333333333,133.28523057997228L147.82791666666665,141.03158168792726L148.02790000000002,149.83133404254914L148.43141666666668,145.74746531546117L148.63968333333332,157.09495537094773L148.83375,123.67778699398042L148.85031666666669,135.47587146162988L149.34968333333333,158.7291807501577L149.41713333333334,154.58459903597833L149.56268333333335,93.74636142253875L149.77095,155.77714946977795L149.88928333333334,134.99597996771337L150.4064,154.30121851824225L151.18858333333333,152.50165080204607L151.27496666666667,131.20734569728376L151.99916666666667,149.28678739741446L152.16128333333333,156.97323053441943L152.93755,138.0492302209139L152.93873333333332,145.7948507398367L153.00736666666666,149.90930068418385L153.24403333333333,146.79060666561128L153.62388333333334,151.292568153888L153.9090666666667,133.5108665406704L154.06053333333332,141.110130558908L154.09958333333333,159.20333963610466L154.32915,148.2736826196313L154.52795,127.70972851216794L154.59303333333332,131.71104331612588L154.70663333333334,137.93851960748435L155.24741666666668,109.10412358045578L155.29593333333332,139.0211826592684L155.40006666666667,157.97408640682698L155.66276666666667,128.08457871079446L155.84381666666667,145.72467594891788L156.1006,157.54144549481572L156.75735,156.30975744612516L156.98691666666667,155.38595234155656L157.03306666666668,154.4426204647869L157.26855,138.8440411940217L157.76555,135.38854892849923L158.0815,158.14462973987685L158.26136666666665,156.40883138515056L158.54418333333334,159.12050969183912L158.91338333333334,137.19772870391608L159.11100000000002,156.66657419521363L159.53818333333334,138.77672545909883L159.86478333333332,157.20969081781806L159.9275,143.39023299068214L160.34994999999998,140.64303492307664L160.36415,135.31699340343476L160.65643333333335,122.6224049806595L160.79015,131.06025201380254L160.98066666666665,123.98348971009256L161.08716666666666,156.23601114302875L161.47056666666668,151.2211326353252L161.7309,154.14709060750903L161.77586666666667,146.89244339168073L161.86106666666666,141.62217983901502L161.90721666666667,118.96151301562787L162.13678333333334,138.44734321832658L162.15335000000002,138.1827275633812L162.17346666666666,141.54561305344106L162.30126666666666,157.12254664599897L162.86926666666668,158.52821164783091L163.0941,158.72282452667133L163.23136666666667,157.85028865579517L163.4917,156.49436733797194L163.52601666666666,120.21241331398488L164.07153333333332,131.17048391997815L164.37565,141.98902652710677L164.40996666666666,88.52672215104103L164.48215000000002,149.67242763116957L164.84188333333333,113.14274590015413L165.04068333333333,148.26625738218428L165.643,110.67501659989357L167.07838333333333,132.92065610289575L167.07956666666666,145.18136695325376L167.24405000000002,134.3841789096594L167.27955,153.86473937630655L167.32806666666664,137.25187405496837L167.83926666666665,149.64791465476156L167.88896666666668,158.91317523778417L168.2771,157.55100101251156L168.77055000000001,156.55361741613598L168.78475,114.19872926473619L168.909,126.93784405589105L169.29831666666666,142.80031927227975L169.9385,147.3879146307707L169.96689999999998,150.47552498728038L170.00594999999998,146.64352089464666L170.52306666666667,121.93132314383985L170.63430000000002,129.8052477568388L171.03071666666665,146.37305920869113L171.30051666666665,92.12663762569427L171.36915000000002,159.253930083022L171.6354,120.14034347534181L171.92768333333333,158.63154111960904L173.29325,158.58086499497296L173.58079999999998,135.50343339443208L173.87426666666664,156.16724840663375L173.93698333333333,132.0854055762291L174.06596666666667,155.66812653020025L174.22335,143.48591641634704L174.44108333333335,153.2846114628017L174.59255,159.2875563596579L174.70496666666668,132.49588847458364L174.8801,142.7286094531417L174.91796666666664,137.78608101904393L174.99014999999997,133.32224269509317L175.01145,139.2369662180543L175.26705,154.24993552006782L175.49425000000002,149.5976932525635L175.61731666666665,155.92989664636553L176.14271666666667,145.1700072169304L176.49061666666668,158.87583895674908L176.69414999999998,128.58097835183145L176.79828333333333,140.8022031068802L176.81248333333335,134.85390545725824L176.82195000000002,137.94846168458463L176.91188333333332,112.62577899098396L176.96276666666668,155.8760684553534L177.41243333333333,145.68008100539447L177.5852,152.87348369434477L178.33306666666667,128.2090478718281L178.59695,159.2671942992427L179.26553333333334,152.69635475724937L179.27855,147.00285069197417L179.48918333333333,158.86980215990917L179.55308333333332,150.04763718992473L179.7211166666667,155.52348704561592L180.66778333333335,154.07520077861847L180.95178333333334,159.22424493766158L181.29495000000003,129.62762494683267L181.42748333333333,156.88531835395844L181.67598333333333,141.5394597530365L181.76118333333335,156.0786552552134L182.06885,130.7552746117115L182.24280000000002,146.63971233665944L182.67945,134.3085273385048L182.69483333333335,155.50529584027828L182.79541666666668,143.9201513707638L183.2723,156.38555968478323L183.39773333333335,156.30920884497465L184.1456,158.96976069356316L184.44971666666666,157.30081646908076L184.8485,152.5459035292268L184.9325166666667,159.29636352637027L185.02481666666668,157.77951844800265L185.39756666666668,152.8602546259761L185.40348333333333,137.93646103441716L185.42123333333333,158.85265491222964L185.81173333333334,158.1285484565422L185.84959999999998,143.2857534840703L186.08271666666667,126.14963607788087L186.35488333333333,153.33335124626757L186.4531,159.06260715234095L186.47558333333333,133.90979452729226L186.59746666666666,158.09965952876956L186.92761666666667,157.20231866016985L187.49325000000002,148.70603571385146L187.52638333333334,152.02126411646606L187.62815,156.73441957421602L188.079,121.50410791039468L188.45648333333335,137.84636516422034L188.62806666666668,155.3368057228625L188.6825,147.1676605001092L189.30493333333334,141.74762883335353L189.35226666666665,147.29340621382L189.38776666666666,156.46003229096533L189.39960000000002,134.0728029191494L189.48953333333333,105.91105388402939L189.5297666666667,155.17822042778135L189.63271666666665,158.1039543768391L189.66940000000002,151.80135879591109L190.2220166666667,153.4055799946189L190.50483333333332,154.17845054827632L190.78055,147.51808607876302L191.52723333333333,159.0637264437508L191.56983333333335,111.90748073458671L191.68461666666667,114.38437800407411L191.93311666666665,155.7335280954838L191.9343,133.3109752714634L192.28811666666667,142.10978603661061L192.58986666666667,115.56706449687482L192.75671666666668,148.50369090512396L193.1046166666667,158.43153553102167L193.28921666666665,137.20676875412465L193.45843333333332,133.36217716634275L193.5602,153.16359149962665L193.79213333333334,133.3310071259737L193.82171666666667,158.4805687369779L193.97081666666668,147.3691303163767L194.05365,137.89253074228765L194.33528333333334,144.4294866576791L194.4051,157.68859225809575L194.54591666666667,133.94627650380136L194.69265000000001,159.16218951176853L195.9884,149.53130855709315L196.09253333333334,156.03999371007086L196.13868333333332,121.0436020821333L196.1872,135.597349691391L196.80371666666667,143.93115768134595L196.90666666666667,159.23630710043363L197.25811666666667,130.15157597064973L198.05095,132.19196079969407L198.19886666666665,157.51634781640024L199.02483333333333,138.0805862054229L199.14198333333331,159.09163294192405L199.30291666666668,159.25600694863243L199.44728333333333,140.91364694684745L199.51591666666667,149.75709683373572L199.59756666666667,159.23812924070518L199.6023,155.37400279305876L199.72181666666668,159.0814933403861L199.82358333333335,149.76298572421075L200.50755,145.75267702639104L200.64126666666667,158.75730068022386L200.79273333333333,156.39114592149855L201.03295,157.02112829424442L201.0933,157.97604211717845L201.17495,147.67363560497762L201.17968333333334,154.21124364361168L201.80329999999998,147.4175153553486L201.82578333333333,102.54867743253708L201.92045,109.42473875284195L202.06481666666667,107.2651597738266L202.18906666666666,132.60042864382268L202.40088333333333,146.7007547646761L202.41745,156.7108289005235L202.46005,158.02095553949476L202.50856666666667,154.02407207451762L202.6198,134.4103587895632L202.67778333333334,159.26921044040938L202.79256666666666,159.1779939909582L202.89078333333333,134.85991105735303L202.99373333333332,150.04016777426006L203.01503333333335,138.73041349947454L203.17478333333332,158.55086221564562L204.1534,124.84401281476022L204.44095,135.02668316960336L205.37578333333332,122.90750350356103L205.45506666666668,138.00958719402553L205.52725,145.5905245050788L205.95325,136.13985820412637L206.5177,148.00035000890495L206.6869166666667,159.1186799841933L207.30816666666666,144.99140061736108L207.40046666666666,159.1034299684223L207.77558333333334,130.3428478717804L207.93651666666668,146.1897143304348L207.95426666666665,156.61332823354752L208.6335,147.72924477159978L208.73171666666667,130.55146664679052L209.03938333333335,158.90502851894126L209.24528333333333,149.17372874468566L209.33166666666665,120.56457305252553L209.50443333333334,150.68639157637955L209.52691666666666,117.22640626430513L209.60501666666664,156.8496592791751L209.79553333333334,118.24083836674691L209.90321666666665,137.7428153783083L209.9600166666667,148.20310429036618L210.1884,153.8825768262148L210.40849999999998,158.92125354632736L210.5481333333333,159.22439829418437L210.6286,137.66880829185249L210.68303333333333,150.5826848588884L211.46048333333334,156.69159670472146L211.64508333333336,155.93769937679173L211.79891666666668,159.22474071658218L211.98706666666666,158.88033433766105L212.30065,159.1937573209405L212.43554999999998,159.2523133900075L212.73966666666666,133.03135748505593L213.24021666666667,148.81559703424574L213.29938333333334,159.1560255789198L213.5029166666667,157.93143134862186L213.5467,130.95683805942537L213.83898333333335,129.49455488026143L214.13008333333332,152.20000259131194L214.37266666666667,132.92880863249303L214.4058,140.2183226823807L214.61524999999997,158.91254029953853L215.30868333333333,157.79224721454085L215.3359,156.1340052869171L215.53588333333332,153.79449106492103L215.53706666666668,157.0536177467555L215.61161666666666,116.7904925376177L215.70865,123.98341585993768L215.86129999999997,134.8714817941189L215.92874999999998,159.0918299100129L216.05773333333335,134.89409312903882L216.14175,136.39287674725057L216.3015,159.18096492458136L216.70265,150.7073360078037L216.90144999999998,131.48140362203122L217.68245,159.19298441848952L217.8209,116.0712632417679L218.47055,159.2958059109522L218.70366666666666,109.95455031394958L218.751,159.27988499194618L218.89655,158.2746868684888L219.46573333333333,147.47852877080442L219.6243,142.76844106167556L219.86451666666667,126.54913904070855L220.09763333333333,125.31195113360883L220.45381666666665,158.3987346880138L220.48103333333336,117.75346426963807L220.7082333333333,120.22565095424653L221.13068333333334,159.29819091943756L221.2218,154.9843209117651L221.46083333333334,146.13219692856075L221.56141666666667,159.29930589254383L221.69276666666667,137.7225105419755L221.75311666666664,158.17918279320003L222.04658333333333,159.2988379772658L222.51163333333335,141.03494978249074L222.68085000000002,139.7776733145118L222.92816666666667,159.28075758386404L223.1175,142.08218717873098L223.31985,152.2083331525326L223.49261666666666,159.21148352168967L223.50563333333332,150.43805328682066L223.65828333333332,158.85233165295796L223.68195,131.84723355174066L224.03340000000003,137.3109053850174L224.30675000000002,154.39748845919968L224.6156,154.07638666704298L224.6842333333333,148.98826726824046L224.79073333333332,108.97548188567161L225.05698333333333,158.77079638391734L225.42026666666666,155.25264226198198L226.26871666666668,133.78759362101556L226.75151666666667,141.81273961365224L226.79766666666666,131.68111817836763L226.8095,159.16827338190052L227.47453333333334,144.9049972549081L227.69344999999998,126.17619048357011L228.35138333333333,146.33377752006055L228.49456666666669,148.35221236869694L228.59041666666667,158.88309114910663L228.60816666666668,148.41132414266468L228.7336,159.25245659316425L228.94068333333334,157.13995945751668L229.04245,156.67325450219215L229.2661,152.70686851367356L230.05775,156.56954646594824L230.33346666666668,159.2094903402147L230.65888333333334,132.0065784484148L230.88135,109.44767450094223L230.95235,134.44974993467332L231.07423333333335,143.15357093811036L231.19848333333334,155.64011061675848L231.4032,159.19754530432402L232.03036666666668,116.15653379559518L232.25283333333334,156.1645545244217L232.2694,159.22028554217542L232.28715000000003,135.93448092341424L232.36998333333332,122.31171474158765L232.6244,116.26212105453016L233.21843333333334,120.58676238656045L233.92843333333334,156.0085480503738L234.0373,150.51422774344684L234.1864,128.43354179263116L234.52838333333332,146.70453562885524L235.08336666666668,116.83263196349145L235.09046666666666,137.1357117176056L235.13070000000002,152.45487134456636L235.28453333333334,137.33953418880702L235.68213333333333,159.2827615858085L235.71645,128.02985574603082L236.02648333333335,150.93634929433466L236.08446666666669,140.7681515917182L236.28918333333334,142.56774403452874L236.62761666666668,156.57203363366426L237.0406,84.5881720662117L237.07610000000003,159.2883234590816L237.38258333333334,136.6772262185812L237.9091666666667,134.65294863581659L237.9139,156.3428663827479L237.97898333333333,136.33025181591512L238.16713333333334,158.83009200026282L238.20263333333335,158.33628325508909L238.3257,126.5809077948332L238.39906666666667,159.22156293452719L238.60378333333333,127.7079139083624L239.13746666666665,154.7835002515465L239.62855,153.4949624195695L240.02259999999998,137.2530134573579L240.0865,153.48918430432678L240.15158333333335,148.94174958318473L240.1575,144.24985274970533L240.48291666666668,159.29361026679982L240.53853333333333,108.16742931604385L240.54090000000002,138.59366806894542L240.79295,139.77260271012784L240.92548333333335,150.9740082576871L241.17635,87.11333041191101L241.30769999999998,151.01218219399453L241.31953333333334,149.39793385863305L241.5775,159.22299990626635L242.28276666666667,107.20853780508041L242.2946,144.2067137092352L242.37743333333333,145.49991036504508L242.65315,159.25953559104238L243.31226666666666,126.79003033339978L243.77376666666666,135.9174611002207L244.04238333333333,156.787086603418L244.05776666666668,148.74148115068675L244.30626666666666,137.28278957605363L244.4033,159.27359134224827L244.58198333333334,140.24411089271308L244.61511666666667,152.3018999800086L244.86243333333334,159.26662683632168L244.99141666666668,125.90277083516122L245.05768333333333,159.02048748715316L245.11685,159.16081184784417L245.12986666666666,155.46227186098696L245.66118333333333,153.1691144362092L245.74875,158.59617785755546L246.06706666666668,159.22342951573665L246.1215,143.28506377637387L246.21734999999998,139.15114574432374L246.57945,136.7607375562191L247.59120000000001,138.9839212998748L247.61605,134.32721670269967L247.62433333333334,159.28759995576985L247.65155,159.1566669666907L247.69888333333333,128.97068561911584L248.00181666666668,154.65416258499027L248.17458333333335,145.43084200769664L248.41835,118.73970143795015L248.4219,159.07102009439842L248.76388333333333,159.24489893954598L248.90115,121.45305371582509L249.02421666666666,149.80299272686244L250.37676666666667,135.69053276181222L251.12226666666666,141.8973626598716L252.405,155.5557157147676L252.44523333333333,141.2185623675585L252.64995000000002,127.72462778091432L252.91738333333333,159.142307552055L252.95998333333333,121.91674828827382L253.67708333333331,122.07981206774713L253.78595,150.88162435144187L253.96936666666667,140.00695562660695L254.36696666666666,158.70200916817413L254.75155,132.3757158100605L254.7693,128.90295975208284L254.89118333333334,150.4014625132084L255.0249,156.5417666092515L255.15033333333332,158.59430308565499L255.4935,159.1531049845624L256.1881166666667,110.26008422970772L256.46028333333334,147.85837704241277L256.51945,159.2450573186623L256.79043333333334,157.81855699159206L256.93598333333335,113.40547837615014L257.0495833333334,124.01129429340364L257.6436166666667,87.09854983091354L257.8672666666667,159.1799611682771L258.2057,88.70097159147262L258.45301666666666,132.78030124604703L258.9748666666667,139.60132573843003L258.9796,125.92564328312875L259.4576666666667,159.0957765867468L259.4908,140.22871709167958L259.93455,157.59558804351838L259.93809999999996,158.69029254438357L260.08365,118.84978828132154L260.22565000000003,134.29898748099805L260.3333333333333,151.3126659460366" style="fill: none;" fill="none"></path></g></g></g></g></g></g><g transform="translate(46, 177)" clip-path="url(#clip_1)"><clipPath id="clip_1"><rect width="284" height="23"></rect></clipPath><g><g><line x1="0" y1="0" x2="0" y2="5" style="visibility: inherit;" fill="rgb(0, 0, 0)" stroke="rgb(204, 204, 204)" stroke-width="1px"></line><line x1="23.666666666666664" y1="0" x2="23.666666666666664" y2="5" style="visibility: inherit;" fill="rgb(0, 0, 0)" stroke="rgb(204, 204, 204)" stroke-width="1px"></line><line x1="47.33333333333333" y1="0" x2="47.33333333333333" y2="5" style="visibility: inherit;" fill="rgb(0, 0, 0)" stroke="rgb(204, 204, 204)" stroke-width="1px"></line><line x1="71" y1="0" x2="71" y2="5" style="visibility: inherit;" fill="rgb(0, 0, 0)" stroke="rgb(204, 204, 204)" stroke-width="1px"></line><line x1="94.66666666666666" y1="0" x2="94.66666666666666" y2="5" style="visibility: inherit;" fill="rgb(0, 0, 0)" stroke="rgb(204, 204, 204)" stroke-width="1px"></line><line x1="118.33333333333334" y1="0" x2="118.33333333333334" y2="5" style="visibility: inherit;" fill="rgb(0, 0, 0)" stroke="rgb(204, 204, 204)" stroke-width="1px"></line><line x1="142" y1="0" x2="142" y2="5" style="visibility: inherit;" fill="rgb(0, 0, 0)" stroke="rgb(204, 204, 204)" stroke-width="1px"></line><line x1="165.66666666666669" y1="0" x2="165.66666666666669" y2="5" style="visibility: inherit;" fill="rgb(0, 0, 0)" stroke="rgb(204, 204, 204)" stroke-width="1px"></line><line x1="189.33333333333331" y1="0" x2="189.33333333333331" y2="5" style="visibility: inherit;" fill="rgb(0, 0, 0)" stroke="rgb(204, 204, 204)" stroke-width="1px"></line><line x1="213" y1="0" x2="213" y2="5" style="visibility: inherit;" fill="rgb(0, 0, 0)" stroke="rgb(204, 204, 204)" stroke-width="1px"></line><line x1="236.66666666666669" y1="0" x2="236.66666666666669" y2="5" style="visibility: inherit;" fill="rgb(0, 0, 0)" stroke="rgb(204, 204, 204)" stroke-width="1px"></line><line x1="260.3333333333333" y1="0" x2="260.3333333333333" y2="5" style="visibility: inherit;" fill="rgb(0, 0, 0)" stroke="rgb(204, 204, 204)" stroke-width="1px"></line><line x1="284" y1="0" x2="284" y2="5" style="visibility: inherit;" fill="rgb(0, 0, 0)" stroke="rgb(204, 204, 204)" stroke-width="1px"></line></g><g transform="translate(0, 8)"><text x="0" y="0" dx="0em" dy="0.95em" style="text-anchor: middle; visibility: hidden; font-family: &quot;Helvetica Neue&quot;, sans-serif; font-size: 12px; font-weight: 200;" fill="rgb(50, 49, 63)" stroke="none" stroke-width="1px">-100k</text><text x="23.666666666666664" y="0" dx="0em" dy="0.95em" style="text-anchor: middle; visibility: inherit; font-family: &quot;Helvetica Neue&quot;, sans-serif; font-size: 12px; font-weight: 200;" fill="rgb(50, 49, 63)" stroke="none" stroke-width="1px">0</text><text x="47.33333333333333" y="0" dx="0em" dy="0.95em" style="text-anchor: middle; visibility: hidden; font-family: &quot;Helvetica Neue&quot;, sans-serif; font-size: 12px; font-weight: 200;" fill="rgb(50, 49, 63)" stroke="none" stroke-width="1px">100k</text><text x="71" y="0" dx="0em" dy="0.95em" style="text-anchor: middle; visibility: inherit; font-family: &quot;Helvetica Neue&quot;, sans-serif; font-size: 12px; font-weight: 200;" fill="rgb(50, 49, 63)" stroke="none" stroke-width="1px">200k</text><text x="94.66666666666666" y="0" dx="0em" dy="0.95em" style="text-anchor: middle; visibility: hidden; font-family: &quot;Helvetica Neue&quot;, sans-serif; font-size: 12px; font-weight: 200;" fill="rgb(50, 49, 63)" stroke="none" stroke-width="1px">300k</text><text x="118.33333333333334" y="0" dx="0em" dy="0.95em" style="text-anchor: middle; visibility: inherit; font-family: &quot;Helvetica Neue&quot;, sans-serif; font-size: 12px; font-weight: 200;" fill="rgb(50, 49, 63)" stroke="none" stroke-width="1px">400k</text><text x="142" y="0" dx="0em" dy="0.95em" style="text-anchor: middle; visibility: hidden; font-family: &quot;Helvetica Neue&quot;, sans-serif; font-size: 12px; font-weight: 200;" fill="rgb(50, 49, 63)" stroke="none" stroke-width="1px">500k</text><text x="165.66666666666669" y="0" dx="0em" dy="0.95em" style="text-anchor: middle; visibility: inherit; font-family: &quot;Helvetica Neue&quot;, sans-serif; font-size: 12px; font-weight: 200;" fill="rgb(50, 49, 63)" stroke="none" stroke-width="1px">600k</text><text x="189.33333333333331" y="0" dx="0em" dy="0.95em" style="text-anchor: middle; visibility: hidden; font-family: &quot;Helvetica Neue&quot;, sans-serif; font-size: 12px; font-weight: 200;" fill="rgb(50, 49, 63)" stroke="none" stroke-width="1px">700k</text><text x="213" y="0" dx="0em" dy="0.95em" style="text-anchor: middle; visibility: inherit; font-family: &quot;Helvetica Neue&quot;, sans-serif; font-size: 12px; font-weight: 200;" fill="rgb(50, 49, 63)" stroke="none" stroke-width="1px">800k</text><text x="236.66666666666669" y="0" dx="0em" dy="0.95em" style="text-anchor: middle; visibility: hidden; font-family: &quot;Helvetica Neue&quot;, sans-serif; font-size: 12px; font-weight: 200;" fill="rgb(50, 49, 63)" stroke="none" stroke-width="1px">900k</text><text x="260.3333333333333" y="0" dx="0em" dy="0.95em" style="text-anchor: middle; visibility: inherit; font-family: &quot;Helvetica Neue&quot;, sans-serif; font-size: 12px; font-weight: 200;" fill="rgb(50, 49, 63)" stroke="none" stroke-width="1px">1M</text><text x="284" y="0" dx="0em" dy="0.95em" style="text-anchor: middle; visibility: hidden; font-family: &quot;Helvetica Neue&quot;, sans-serif; font-size: 12px; font-weight: 200;" fill="rgb(50, 49, 63)" stroke="none" stroke-width="1px">1.1M</text></g><line x1="0" y1="0" x2="284" y2="0" fill="rgb(0, 0, 0)" stroke="rgb(204, 204, 204)" stroke-width="1px"></line></g></g></g></g></svg>