<svg viewBox="0 0 330 200" xmlns="http://www.w3.org/2000/svg"><g><g><g><g><g><line x1="28" y1="177" x2="23" y2="177" style="visibility: inherit;" fill="rgb(0, 0, 0)" stroke="rgb(204, 204, 204)" stroke-width="1px"></line><line x1="28" y1="163.3846153846154" x2="23" y2="163.3846153846154" style="visibility: inherit;" fill="rgb(0, 0, 0)" stroke="rgb(204, 204, 204)" stroke-width="1px"></line><line x1="28" y1="149.76923076923077" x2="23" y2="149.76923076923077" style="visibility: inherit;" fill="rgb(0, 0, 0)" stroke="rgb(204, 204, 204)" stroke-width="1px"></line><line x1="28" y1="136.15384615384616" x2="23" y2="136.15384615384616" style="visibility: inherit;" fill="rgb(0, 0, 0)" stroke="rgb(204, 204, 204)" stroke-width="1px"></line><line x1="28" y1="122.53846153846153" x2="23" y2="122.53846153846153" style="visibility: inherit;" fill="rgb(0, 0, 0)" stroke="rgb(204, 204, 204)" stroke-width="1px"></line><line x1="28" y1="108.92307692307692" x2="23" y2="108.92307692307692" style="visibility: inherit;" fill="rgb(0, 0, 0)" stroke="rgb(204, 204, 204)" stroke-width="1px"></line><line x1="28" y1="95.3076923076923" x2="23" y2="95.3076923076923" style="visibility: inherit;" fill="rgb(0, 0, 0)" stroke="rgb(204, 204, 204)" stroke-width="1px"></line><line x1="28" y1="81.6923076923077" x2="23" y2="81.6923076923077" style="visibility: inherit;" fill="rgb(0, 0, 0)" stroke="rgb(204, 204, 204)" stroke-width="1px"></line><line x1="28" y1="68.07692307692307" x2="23" y2="68.07692307692307" style="visibility: inherit;" fill="rgb(0, 0, 0)" stroke="rgb(204, 204, 204)" stroke-width="1px"></line><line x1="28" y1="54.46153846153847" x2="23" y2="54.46153846153847" style="visibility: inherit;" fill="rgb(0, 0, 0)" stroke="rgb(204, 204, 204)" stroke-width="1px"></line><line x1="28" y1="40.84615384615384" x2="23" y2="40.84615384615384" style="visibility: inherit;" fill="rgb(0, 0, 0)" stroke="rgb(204, 204, 204)" stroke-width="1px"></line><line x1="28" y1="27.230769230769226" x2="23" y2="27.230769230769226" style="visibility: inherit;" fill="rgb(0, 0, 0)" stroke="rgb(204, 204, 204)" stroke-width="1px"></line><line x1="28" y1="13.615384615384613" x2="23" y2="13.615384615384613" style="visibility: inherit;" fill="rgb(0, 0, 0)" stroke="rgb(204, 204, 204)" stroke-width="1px"></line><line x1="28" y1="0" x2="23" y2="0" style="visibility: inherit;" fill="rgb(0, 0, 0)" stroke="rgb(204, 204, 204)" stroke-width="1px"></line></g><g transform="translate(18, 0)"><text x="0" y="177" dx="0em" dy="0.3em" style="text-anchor: end; visibility: hidden; font-family: &quot;Helvetica Neue&quot;, sans-serif; font-size: 12px; font-weight: 200;" fill="rgb(50, 49, 63)" stroke="none" stroke-width="1px">-1</text><text x="0" y="163.3846153846154" dx="0em" dy="0.3em" style="text-anchor: end; visibility: inherit; font-family: &quot;Helvetica Neue&quot;, sans-serif; font-size: 12px; font-weight: 200;" fill="rgb(50, 49, 63)" stroke="none" stroke-width="1px">0</text><text x="0" y="149.76923076923077" dx="0em" dy="0.3em" style="text-anchor: end; visibility: hidden; font-family: &quot;Helvetica Neue&quot;, sans-serif; font-size: 12px; font-weight: 200;" fill="rgb(50, 49, 63)" stroke="none" stroke-width="1px">1</text><text x="0" y="136.15384615384616" dx="0em" dy="0.3em" style="text-anchor: end; visibility: inherit; font-family: &quot;Helvetica Neue&quot;, sans-serif; font-size: 12px; font-weight: 200;" fill="rgb(50, 49, 63)" stroke="none" stroke-width="1px">2</text><text x="0" y="122.53846153846153" dx="0em" dy="0.3em" style="text-anchor: end; visibility: hidden; font-family: &quot;Helvetica Neue&quot;, sans-serif; font-size: 12px; font-weight: 200;" fill="rgb(50, 49, 63)" stroke="none" stroke-width="1px">3</text><text x="0" y="108.92307692307692" dx="0em" dy="0.3em" style="text-anchor: end; visibility: inherit; font-family: &quot;Helvetica Neue&quot;, sans-serif; font-size: 12px; font-weight: 200;" fill="rgb(50, 49, 63)" stroke="none" stroke-width="1px">4</text><text x="0" y="95.3076923076923" dx="0em" dy="0.3em" style="text-anchor: end; visibility: hidden; font-family: &quot;Helvetica Neue&quot;, sans-serif; font-size: 12px; font-weight: 200;" fill="rgb(50, 49, 63)" stroke="none" stroke-width="1px">5</text><text x="0" y="81.6923076923077" dx="0em" dy="0.3em" style="text-anchor: end; visibility: inherit; font-family: &quot;Helvetica Neue&quot;, sans-serif; font-size: 12px; font-weight: 200;" fill="rgb(50, 49, 63)" stroke="none" stroke-width="1px">6</text><text x="0" y="68.07692307692307" dx="0em" dy="0.3em" style="text-anchor: end; visibility: hidden; font-family: &quot;Helvetica Neue&quot;, sans-serif; font-size: 12px; font-weight: 200;" fill="rgb(50, 49, 63)" stroke="none" stroke-width="1px">7</text><text x="0" y="54.46153846153847" dx="0em" dy="0.3em" style="text-anchor: end; visibility: inherit; font-family: &quot;Helvetica Neue&quot;, sans-serif; font-size: 12px; font-weight: 200;" fill="rgb(50, 49, 63)" stroke="none" stroke-width="1px">8</text><text x="0" y="40.84615384615384" dx="0em" dy="0.3em" style="text-anchor: end; visibility: hidden; font-family: &quot;Helvetica Neue&quot;, sans-serif; font-size: 12px; font-weight: 200;" fill="rgb(50, 49, 63)" stroke="none" stroke-width="1px">9</text><text x="0" y="27.230769230769226" dx="0em" dy="0.3em" style="text-anchor: end; visibility: inherit; font-family: &quot;Helvetica Neue&quot;, sans-serif; font-size: 12px; font-weight: 200;" fill="rgb(50, 49, 63)" stroke="none" stroke-width="1px">10</text><text x="0" y="13.615384615384613" dx="0em" dy="0.3em" style="text-anchor: end; visibility: hidden; font-family: &quot;Helvetica Neue&quot;, sans-serif; font-size: 12px; font-weight: 200;" fill="rgb(50, 49, 63)" stroke="none" stroke-width="1px">11</text><text x="0" y="0" dx="0em" dy="0.3em" style="text-anchor: end; visibility: hidden; font-family: &quot;Helvetica Neue&quot;, sans-serif; font-size: 12px; font-weight: 200;" fill="rgb(50, 49, 63)" stroke="none" stroke-width="1px">12</text></g><line x1="28" y1="0" x2="28" y2="177" fill="rgb(0, 0, 0)" stroke="rgb(204, 204, 204)" stroke-width="1px"></line></g></g><g transform="translate(28, 0)" clip-path="url(#clip_0)"><clipPath id="clip_0"><rect width="302" height="177"></rect></clipPath><g><g><g><line x1="0" y1="0" x2="0" y2="177" fill="rgb(0, 0, 0)" stroke="rgb(60, 60, 60)" stroke-width="1px" opacity="0.25"></line><line x1="25.166666666666664" y1="0" x2="25.166666666666664" y2="177" fill="rgb(0, 0, 0)" stroke="rgb(60, 60, 60)" stroke-width="1px" opacity="0.25"></line><line x1="50.33333333333333" y1="0" x2="50.33333333333333" y2="177" fill="rgb(0, 0, 0)" stroke="rgb(60, 60, 60)" stroke-width="1px" opacity="0.25"></line><line x1="75.5" y1="0" x2="75.5" y2="177" fill="rgb(0, 0, 0)" stroke="rgb(60, 60, 60)" stroke-width="1px" opacity="0.25"></line><line x1="100.66666666666666" y1="0" x2="100.66666666666666" y2="177" fill="rgb(0, 0, 0)" stroke="rgb(60, 60, 60)" stroke-width="1px" opacity="0.25"></line><line x1="125.83333333333334" y1="0" x2="125.83333333333334" y2="177" fill="rgb(0, 0, 0)" stroke="rgb(60, 60, 60)" stroke-width="1px" opacity="0.25"></line><line x1="151" y1="0" x2="151" y2="177" fill="rgb(0, 0, 0)" stroke="rgb(60, 60, 60)" stroke-width="1px" opacity="0.25"></line><line x1="176.16666666666669" y1="0" x2="176.16666666666669" y2="177" fill="rgb(0, 0, 0)" stroke="rgb(60, 60, 60)" stroke-width="1px" opacity="0.25"></line><line x1="201.33333333333331" y1="0" x2="201.33333333333331" y2="177" fill="rgb(0, 0, 0)" stroke="rgb(60, 60, 60)" stroke-width="1px" opacity="0.25"></line><line x1="226.5" y1="0" x2="226.5" y2="177" fill="rgb(0, 0, 0)" stroke="rgb(60, 60, 60)" stroke-width="1px" opacity="0.25"></line><line x1="251.66666666666669" y1="0" x2="251.66666666666669" y2="177" fill="rgb(0, 0, 0)" stroke="rgb(60, 60, 60)" stroke-width="1px" opacity="0.25"></line><line x1="276.8333333333333" y1="0" x2="276.8333333333333" y2="177" fill="rgb(0, 0, 0)" stroke="rgb(60, 60, 60)" stroke-width="1px" opacity="0.25"></line><line x1="302" y1="0" x2="302" y2="177" fill="rgb(0, 0, 0)" stroke="rgb(60, 60, 60)" stroke-width="1px" opacity="0.25"></line></g><g><line x1="0" y1="177" x2="302" y2="177" fill="rgb(0, 0, 0)" stroke="rgb(60, 60, 60)" stroke-width="1px" opacity="0.25"></line><line x1="0" y1="163.3846153846154" x2="302" y2="163.3846153846154" fill="rgb(0, 0, 0)" stroke="rgb(60, 60, 60)" stroke-width="1px" opacity="0.25"></line><line x1="0" y1="149.76923076923077" x2="302" y2="149.76923076923077" fill="rgb(0, 0, 0)" stroke="rgb(60, 60, 60)" stroke-width="1px" opacity="0.25"></line><line x1="0" y1="136.15384615384616" x2="302" y2="136.15384615384616" fill="rgb(0, 0, 0)" stroke="rgb(60, 60, 60)" stroke-width="1px" opacity="0.25"></line><line x1="0" y1="122.53846153846153" x2="302" y2="122.53846153846153" fill="rgb(0, 0, 0)" stroke="rgb(60, 60, 60)" stroke-width="1px" opacity="0.25"></line><line x1="0" y1="108.92307692307692" x2="302" y2="108.92307692307692" fill="rgb(0, 0, 0)" stroke="rgb(60, 60, 60)" stroke-width="1px" opacity="0.25"></line><line x1="0" y1="95.3076923076923" x2="302" y2="95.3076923076923" fill="rgb(0, 0, 0)" stroke="rgb(60, 60, 60)" stroke-width="1px" opacity="0.25"></line><line x1="0" y1="81.6923076923077" x2="302" y2="81.6923076923077" fill="rgb(0, 0, 0)" stroke="rgb(60, 60, 60)" stroke-width="1px" opacity="0.25"></line><line x1="0" y1="68.07692307692307" x2="302" y2="68.07692307692307" fill="rgb(0, 0, 0)" stroke="rgb(60, 60, 60)" stroke-width="1px" opacity="0.25"></line><line x1="0" y1="54.46153846153847" x2="302" y2="54.46153846153847" fill="rgb(0, 0, 0)" stroke="rgb(60, 60, 60)" stroke-width="1px" opacity="0.25"></line><line x1="0" y1="40.84615384615384" x2="302" y2="40.84615384615384" fill="rgb(0, 0, 0)" stroke="rgb(60, 60, 60)" stroke-width="1px" opacity="0.25"></line><line x1="0" y1="27.230769230769226" x2="302" y2="27.230769230769226" fill="rgb(0, 0, 0)" stroke="rgb(60, 60, 60)" stroke-width="1px" opacity="0.25"></line><line x1="0" y1="13.615384615384613" x2="302" y2="13.615384615384613" fill="rgb(0, 0, 0)" stroke="rgb(60, 60, 60)" stroke-width="1px" opacity="0.25"></line><line x1="0" y1="0" x2="302" y2="0" fill="rgb(0, 0, 0)" stroke="rgb(60, 60, 60)" stroke-width="1px" opacity="0.25"></line></g></g></g><g><g><line x1="0" y1="163.3846153846154" x2="302" y2="163.3846153846154" fill="rgb(0, 0, 0)" stroke="rgb(153, 153, 153)" stroke-width="1.5px"></line></g></g><g><g><line x1="25.166666666666664" y1="0" x2="25.166666666666664" y2="177" fill="rgb(0, 0, 0)" stroke="rgb(153, 153, 153)" stroke-width="1.5px"></line></g></g><g><g><g><g><g><path stroke="rgb(255, 112, 67)" stroke-width="2px" d="M25.220775,163.33521295324542L25.378066666666665,163.36096939752665L25.456083333333332,158.15360133606924L25.764375,159.36544226052018L25.842391666666668,160.80828434935407L25.896500000000003,161.75871727801297L25.905308333333334,162.3420286639349L25.982066666666668,162.68041098737586L26.18465833333333,160.95909368548013L26.443875000000002,161.19813174311457L26.84528333333333,159.45962818213408L26.910716666666666,160.3279476010456L26.974891666666668,161.15390194099285L27.349875,148.97940551025513L27.353650000000002,153.81487866036642L27.529816666666665,150.79800020881325L28.0709,32.052936490456716L28.174083333333332,76.70626265600099L28.294883333333335,105.99029779719072L28.296141666666667,125.24195335521068L28.54655,138.18527929231522L29.232341666666667,146.48327012301547L29.252475,151.75739375490912L29.32671666666667,154.6455706997647L29.720575,154.060152348701L29.723091666666665,156.87060665226343L30.60015,158.5924515961711L30.704591666666666,-22.303780840327022L30.820358333333335,40.80426283072413L30.841749999999998,82.02848155749133L31.4231,105.05639623342313L31.628208333333333,124.79261383750585L31.893716666666666,131.5444310717086L32.36936666666667,142.30040442100707L32.6009,143.0943513470513L32.70534166666666,149.60656527853487L32.969591666666666,154.26538904691554L33.597500000000004,157.0753279782323L33.6126,93.44840356526669L33.792541666666665,116.41530476134886L33.933475,132.33201372822532L34.1713,142.8301998854627L34.55509166666667,146.93772218731692L34.55886666666667,149.9089882792571L34.98040833333333,154.17369770264588L35.02445,156.67851463060148L35.31764166666667,158.50890390188133L35.46109166666667,152.4759708766389L35.512683333333335,153.2774304355477L35.861241666666665,156.65664111176807L35.873825000000004,158.8790275670337L36.33940833333333,160.31647492123608L36.41113333333333,158.76882026456988L36.82009166666667,159.63654579035799L37.081824999999995,160.0020143141478L37.190041666666666,160.98147326672242L37.37124166666667,161.44843223494533L38.25333333333334,56.87272802842591L38.354,92.99142368170705L38.40810833333334,116.87039373906244L38.89005,132.67249975749556L38.96680833333333,128.54275419247523L39.034758333333336,140.21264767310566L39.679024999999996,147.6404946671797L39.721808333333335,148.02829974699225L40.22891666666667,150.6020729930879L40.23520833333334,154.6242606336188L40.474291666666666,143.81682861524084L40.63284166666667,148.84395638126074L41.37148333333334,114.35927896992013L41.569041666666664,127.14013952884858L41.60301666666667,118.91988869460423L42.306425000000004,133.21693142515682L43.15454166666667,143.31008993336275L43.62515833333333,148.87674171475584L43.764833333333335,144.6750069811236L43.88311666666667,150.3976682660047L44.63811666666667,154.15146168193L45.00429166666667,149.67967458804162L45.447224999999996,138.45081059227897L46.37965,146.78671525671248L46.64264166666667,128.14755852212562L46.68165,133.11309139124145L46.958483333333334,130.89654085908472L46.98616666666666,101.41477551790392L47.24286666666667,116.79429431487603L47.26048333333333,132.6139003308298L48.38543333333334,139.37120095823843L49.74443333333333,147.41124066469604L49.881591666666665,121.09793083650916L49.9961,134.12684837620884L50.3283,143.45668429847976L50.40128333333333,149.2679328873959L50.41260833333333,153.45899095486888L50.641625,156.717438551886L50.741033333333334,158.60377981600277L50.88825833333334,160.168726763719L51.01283333333333,160.54220944898816L51.061908333333335,160.32875253085086L51.31483333333333,161.36320587701402L51.31860833333333,155.31168499823133L51.410466666666665,157.52603189792578L51.69359166666666,151.80354593278938L51.774125,154.12510236816783L51.884858333333334,157.04229039623448L51.99433333333333,159.17503767326792L52.65999166666667,160.4232032806766L53.159549999999996,161.0495479081393L53.266508333333334,151.84505270386103L53.301741666666665,95.40875630912431L54.28324166666666,118.45619353930144L54.295824999999994,133.7247304692733L54.469475,141.85857418872124L54.56385,148.5634632952718L54.6469,-74.14937465978483L54.78909166666667,6.565000816644158L54.952675,58.074797336770544L54.991683333333334,-72.39783432160235L55.5529,7.641155006658352L55.722775,52.202788549159564L55.725291666666664,71.61756937944764L55.77310833333333,102.65959094463628L56.149350000000005,116.94347745131229L56.28273333333334,132.672067726704L56.54320833333333,142.99898203710814L56.94461666666667,97.70633170272362L57.11826666666666,119.95391973455466L57.648025,101.01499481814456L57.69206666666667,116.53687193714111L57.78518333333333,132.19260095495773L58.26586666666667,141.46150219867997L58.887483333333336,104.02727482802791L58.88874166666667,122.58937992519867L59.336708333333334,136.2781163692792L59.77838333333333,145.33963968065643L59.9017,149.39954984656384L59.94574166666667,144.38857815886513L60.18105,150.40705336038525L60.29555833333333,154.55840053247985L60.95240833333334,157.4666451225899L61.08453333333334,159.42826640201986L61.62184166666667,154.19600220578695L61.654558333333334,157.10651216175182L61.737608333333334,153.2400643754483L61.91251666666666,156.6070875089949L61.99053333333333,158.66742165777856L62.252266666666664,132.2576438031201L62.42843333333333,142.3382117522448L62.70275,149.21101579268145L62.924216666666666,153.9982744151781L62.95693333333333,146.5752027041653L63.136875,152.26905531102008L63.3294,155.83785137404124L63.509341666666664,158.26480308971884L63.688025,159.86608949801143L63.806308333333334,159.11170117871654L63.823925,159.91099842373166L64.68714166666666,157.82826936921978L64.7337,153.8300086570453L65.28359166666667,151.29320584733304L65.35405833333334,154.6146738819599L65.69506666666666,156.204667481735L65.98196666666666,158.58762242744754L66.11660833333333,149.30654568562628L66.26131666666667,153.77156568762567L66.39344166666666,68.20922037212473L66.55954166666668,99.96290308214263L66.56960833333333,117.32604735111806L66.73570833333333,115.32762352618954L66.92068333333333,128.9977326971317L67.1648,140.18295145428158L67.20003333333334,144.68742392432804L67.62031666666667,128.94375679483838L67.63541666666667,140.1302438215562L67.68071666666667,147.79489979674918L67.74866666666667,153.05206192711307L67.795225,153.08899587890926L67.84178333333332,115.02838889698357L67.99655833333333,130.8302819165791L68.406775,140.0182249375253L68.61188333333332,135.12499047655962L68.705,142.31508734242237L69.62861666666667,147.84581344226254L69.65504166666666,152.79239421170917L69.81736666666666,156.2365113836743L70.17976666666667,157.9805678368014L70.40878333333333,159.48301538436573L70.51448333333333,147.2608050731091L71.25941666666667,127.26017003265682L71.29716666666667,136.1745719362266L71.43306666666668,145.2099621985462L71.53750833333334,151.01837175598845L71.98044166666666,83.0089721844787L72.34158333333333,103.3068591817369L72.687625,97.46173312387715L72.82855833333333,118.4441400904575L73.55713333333333,125.70204775108468L73.89059166666667,138.46266076053087L74.04159166666666,146.57053255939212L74.21901666666666,146.47831931362853L74.61539166666667,149.98540915081105L75.12627499999999,141.08044654548974L75.38675,-109.91961893236743L75.526425,-22.77799832792664L75.87372500000001,40.47682277604943L76.130425,81.73159879117222L76.34056666666667,34.874861815098086L76.40725833333333,61.336181749604336L76.49911666666668,95.7339559649615L76.80992499999999,108.28088537238743L77.10060000000001,126.76696904435076L77.43783333333334,138.12062995746078L78.18654166666667,146.24694490692252L78.584175,150.16828549689313L78.606825,153.9454934936503L78.871075,156.68751232797996L79.928075,149.2743700252789L80.08033333333333,151.82626284859498L80.17093333333334,148.48936959153755L80.20490833333332,114.87203795885247L80.20994166666667,126.33544793761942L80.28921666666666,123.72188770359827L80.52578333333334,130.2365977445386L80.62645,141.1719499409737L80.78625833333334,134.50942879806L80.79506666666667,137.95074642815385L80.85043333333333,145.9890209242427L80.917125,151.31362047698659L81.56139166666667,153.37223542275973L81.74762500000001,149.66828040057152L82.261025,151.84925700736244L82.43090000000001,155.71978857843038L82.62090833333333,142.9277390200403L83.45140833333333,147.93581821467623L83.47154166666667,148.56927452978255L83.57095,153.54006798275844L84.68835,155.94901096675582L85.11240833333333,157.6852683477031L85.19671666666667,159.39592643981808L85.24579166666668,137.725456962494L85.41944166666667,141.2483541816915L85.50123333333333,148.54584174052505L85.530175,131.140659889784L85.66355833333333,140.99221276245453L85.79568333333334,142.26407627771806L85.85356666666667,148.86820326705404L86.224775,152.5703335962262L87.168525,155.4905398291826L87.26793333333333,130.38196299954313L87.42648333333332,141.3987965724432L88.09214166666666,148.76240212568288L88.15505833333334,153.64083327129111L88.29221666666666,152.58640839880573L88.32996666666666,155.38998893945487L89.11516666666665,157.4493117019313L89.3165,148.12705027090732L89.51154166666667,152.40882657926323L89.62856666666667,155.96125331273694L90.347075,157.35915901479336L90.60251666666666,159.03072884204576L90.96869166666666,158.63740089245624L91.04545,159.16720064026768L91.24300833333334,160.3159661958298L91.45944166666666,160.46366321775287L91.74130833333334,161.32455321555824L91.78283333333333,159.8582096241064L91.97535833333333,159.20019889282585L91.99423333333333,156.73818735664892L92.44849166666667,158.8814655280736L92.747975,160.17047124303883L92.76181666666666,139.32812001114823L92.944275,145.5303902167183L92.99964166666666,150.94924906471533L93.2727,149.1090557289041L93.98743333333333,150.60357251460925L94.1334,153.92214828083L94.29698333333333,153.00651042428927L94.35360833333333,153.15879859125275L94.7525,-1.5472437462357789L95.05953333333332,52.89189068348398L95.06960000000001,90.2907198766484L95.27345,115.08360119237827L95.34014166666667,131.38068799097394L96.05865,142.07273931493208L96.27256666666666,148.77958124298993L96.29018333333335,148.13324961308965L96.39965833333333,136.37428201904385L96.6249,145.25572142269198L96.666425,149.93179730190843L97.27671666666667,152.1455558219691L97.50195833333333,150.39554786284017L98.704925,154.62433302214822L98.85089166666667,157.22665402802065L99.056,158.67591780711825L99.089975,160.2334062768695L99.11136666666667,150.7507353400523L99.74179166666667,142.13285088276535L99.80093333333333,149.32875271274625L99.95319166666667,146.73835164288644L100.21492500000001,150.9839158778986L100.252675,147.88967123974328L100.89316666666667,148.89555204661542L100.90071666666667,151.71016583999833L100.9284,153.47579454334883L101.04165,156.8329723733986L101.26563333333333,154.84529828820797L102.18421666666666,157.43762929774553L102.27355833333333,17.421655944210954L102.47740833333334,66.47918947466219L102.781925,93.06483685171165L103.3595,116.6788292164282L103.46016666666667,132.47306525756358L103.83389166666667,134.67531677241828L103.87289999999999,139.6346434885844L104.28437500000001,147.64435475505542L104.473125,151.77233009634168L104.71975833333333,150.04138571193485L105.08845,154.2996756939776L105.28726666666667,157.07016329560935L105.53138333333332,157.9615020008261L106.35685000000001,155.65346004712885L106.56573333333333,157.00696301832602L106.81991666666667,158.9699402476204L107.327025,158.7784629293377L107.71585,156.5045252493792L107.7687,149.43516098481123L108.27958333333332,150.9197814878181L108.59290833333334,151.68868545364364L109.20823333333333,154.96891523005672L109.44605833333334,157.56074586948415L109.50268333333332,159.2882252019937L110.02992499999999,145.91323381257433L111.06553333333333,147.94717233711526L111.08818333333333,148.84455657311443L111.21024166666666,152.6256850989996L111.27441666666667,139.47687490766987L111.47700833333333,147.44926427902908L112.2081,152.59144639793976L112.22571666666666,5.88885927304969L112.56546666666668,59.29081493964854L112.89766666666667,57.862708392335904L112.99707500000001,93.48479632455998L113.1443,117.20101162909725L113.83260833333333,129.19449761629352L113.98109166666666,137.40535390222053L114.076725,143.60910879335444L114.40263333333334,131.79516809806984L114.50455833333334,142.51793138604071L115.04815833333333,115.3277984166219L115.20670833333332,130.6328531985937L115.23942500000001,141.41656297196357L115.38539166666668,147.1227384685629L115.64964166666667,145.40609095716428L115.71381666666666,150.38744357184837L115.74149999999999,154.45032935639972L115.783025,137.22973141257614L115.81448333333334,129.456818386289L116.14165,136.56597354707935L116.14416666666666,-256.5324176006231L116.27629166666667,-27.94079105684716L116.47007500000001,36.73061014209679L116.6777,78.56359117990331L116.86645,107.14016476792695L117.03758333333333,121.88424512192523L117.2515,135.8153706097774L118.025375,145.0123764815166L118.08451666666667,149.89346175965875L118.16001666666666,153.83337694278316L118.18895833333333,155.6894459436741L118.5199,155.20565945835668L119.41835,143.56512504574158L119.7581,141.50709040051146L120.13308333333333,148.7694412478389L120.15573333333333,152.3266573062893L120.2564,151.7908911930249L120.71065833333334,153.64600751419334L121.075575,154.25806195963273L121.3436,139.3830084209408L121.407775,127.85215053103587L121.58897499999999,139.81776136943182L121.64811666666667,147.19734731226026L121.79534166666667,152.4225583385833L121.94130833333334,154.45305960244002L121.95011666666666,153.01976409287852L122.30874166666666,156.22407357937414L122.72650833333334,157.9310820177254L123.19335,159.2042862346691L123.4878,160.0879402084726L123.57965833333333,160.619634884239L124.29313333333334,159.21950522304786L124.3787,-26.46413540640731L124.47559166666666,37.11722404733101L124.49320833333333,79.89575609031301L124.54228333333333,86.71045552190478L124.58255,112.31687395771999L125.10224166666666,126.29167419768729L125.32748333333333,118.43604988281186L125.80313333333332,116.32106576198196L125.8736,125.76227040998026L125.87863333333334,135.47901311284758L125.960425,144.78781242585427L126.04221666666666,150.68009455568622L126.32534166666666,-652.0628453569188L126.60595,-7.870721476076454L127.08789166666666,49.06674251275717L127.1118,83.03462817909151L127.24015,110.31578527558311L127.57235,124.93692269194999L127.71454166666668,121.50719066952053L127.75858333333333,134.8188645185735L129.27739166666666,142.58344934328886L129.320175,149.32369110813792L129.41958333333332,154.07841678342913L129.94556666666668,140.02286402349665L130.56844166666667,146.11170742956466L131.11581666666666,148.13505293217148L131.38258333333334,97.60293618422375L131.62418333333335,114.2094906111943L131.73114166666667,129.9296249991084L131.89724166666667,141.0294710037322L132.23825,148.52507352089478L132.33891666666665,149.38513819105577L132.76549166666666,153.88725936583523L132.8045,153.21635613169L132.846025,156.55545906295643L132.989475,154.87463024194645L133.06875,157.7499169352992L133.40220833333333,157.46047267721164L134.36609166666668,157.06400768312434L134.47305,146.75314854926444L134.65299166666665,152.01007210989687L135.13745,152.0419455673385L135.20917500000002,153.1197867574007L135.480975,153.8964987330183L135.68608333333333,146.9261224175205L136.07365000000001,152.28268636751568L136.74937500000001,155.4848030623262L136.92680000000001,156.3742331653166L137.489275,26.557027006549987L137.59623333333334,71.6090614395402L137.61636666666666,89.28116895784777L138.09705,111.8403714247056L138.38395,126.44575525003839L138.46196666666668,133.9412178722243L138.71615,143.86440049734483L138.984175,141.94264381037897L139.79454166666667,146.08321278222087L140.05375833333335,150.60986111281738L140.46145833333333,153.94064602694763L140.486625,149.0384964755033L140.4904,143.17582653712867L140.59735833333332,128.66838235403412L140.60113333333334,23.779558280457906L141.08559166666666,12.380771316230437L141.85191666666668,-339.1390321412864L142.351475,-55.845410561917106L142.47353333333334,18.433315325641047L142.7856,54.013261737215814L143.32668333333334,90.96425129211053L144.125725,109.53882370218695L144.43779166666667,125.66971103521419L144.57243333333335,137.93418718032558L144.78131666666667,146.50694164531726L144.941125,140.26953231482844L145.11351666666667,147.53552099640768L145.18398333333334,145.34583854814267L145.22425,94.82234260063929L145.31359166666667,117.73666904630034L145.79175833333332,132.53254641894802L145.90375,141.76908146835362L145.93269166666667,144.27928290917646L146.34668333333332,148.46780730499884L146.64113333333333,153.3786738746263L146.722925,156.658884748274L147.42255833333334,156.28742053681572L147.5106416666667,151.793070146124L147.74972499999998,155.40000238302258L147.976225,118.97736216556365L148.22789166666666,118.43595231032833L148.32855833333335,132.9676080868003L148.466975,141.66480266572242L148.75135833333334,148.57649078431186L148.99295833333332,153.53504332791184L149.08104166666666,156.84886583557858L149.1427,159.0286763602385L149.81213333333332,158.61255204499966L150.37964166666666,159.41877828301983L150.513025,157.40808624952874L150.51554166666665,158.14932342992228L150.8552916666667,128.46557827938145L151.71347500000002,130.32040749225442L151.74241666666666,140.6149983363601L151.94626666666667,148.09370671520418L152.08090833333333,151.27850804167525L152.15515,154.82110967566499L152.25581666666668,-275.0246883439476L152.45463333333333,-31.454018588761926L152.55404166666665,16.751307826162474L152.68113333333335,66.51989851102734L152.80193333333332,98.19957331423058L152.8875,101.12961549884473L153.42103333333333,121.72925564993685L153.4462,135.40636282316515L153.90423333333334,139.18590258142987L154.15841666666668,125.974775231672L154.19868333333332,-115.17881101048283L154.26663333333335,-20.69109299916306L154.37988333333334,41.72335613596789L154.62525833333333,60.454829029782644L154.66426666666666,92.87143111886336L154.73347500000003,114.65554832429294L154.77751666666666,111.83480562038221L154.7901,104.21555558026665L155.03547500000002,124.18022659955616L155.42681666666667,130.6076629258102L155.9679,140.6971407334426L156.38189166666666,141.67766173163741L156.454875,136.01112160708334L156.92045833333333,124.26425382212918L157.06894166666666,137.16478576475177L157.14444166666667,145.13578946739767L157.16205833333333,149.28321056160092L157.18093333333331,153.39521338915662L157.19729166666667,155.80406067943318L157.40995,157.5690208403712L157.83904166666667,127.73416645928882L158.06050833333333,137.74992295909234L158.266875,138.20327060550855L158.28449166666667,146.39981123232604L158.81550833333333,134.7632759149532L158.88723333333334,136.88749384504075L159.04200833333334,145.54664273156L159.263475,150.87876966814989L159.38930833333333,154.93516748683146L159.9392,133.58186515274957L160.77095833333334,143.4679105909237L160.86281666666667,149.43315615439155L161.63291666666666,154.0874668518465L161.80530833333333,145.82783182769825L162.63077499999997,143.11680628979678L162.63203333333334,110.94322595265278L162.70501666666667,120.0906354092244L162.95668333333333,-68.02796309357248L163.36060833333335,-4.971113999744887L163.66386666666668,50.15470878803423L163.82493333333332,87.94733486303403L163.86645833333333,106.78720388280455L164.11057499999998,122.75426153640545L164.321975,132.49111588555965L164.39118333333332,141.44893913569132L164.51198333333335,148.5584871873075L165.0870416666667,153.1517205822644L165.13863333333333,156.25892768570293L165.24936666666667,150.56510008025154L165.52871666666667,151.4555399353991L165.72124166666669,151.6705558858485L165.99429999999998,152.43081767155135L166.692675,145.25704497976747L166.93679166666666,151.03277532575734L166.98586666666668,155.1484067412267L167.236275,157.55010964103758L167.764775,154.39836044938912L168.10075,156.03175181801097L168.29201666666665,158.02066339524487L168.59275833333334,150.73636145107938L168.98535833333335,147.80367307387672L169.1955,149.0793175632574L169.64975833333332,152.29863494340225L169.99705833333334,133.61293190055724L170.06375,143.29060854555138L170.51297499999998,146.97276713975845L170.52807499999997,148.32387205406275L170.83888333333334,153.39440647064905L170.981075,156.67199652577452L171.18366666666665,16.034362697668115L171.29691666666668,65.27419661786287L171.70461666666668,98.54307768334398L171.98145,120.15484651876372L172.02926666666667,69.88135719630637L172.11986666666667,96.77213977133736L172.16894166666668,117.72824130859914L172.41305833333334,131.50318408095802L172.430675,142.20731051004023L172.45206666666664,143.05382951382313L172.58796666666666,149.63849064648346L173.19196666666667,152.0006100782728L173.43105,155.56996158282507L173.57701666666668,156.80046272385297L173.85385000000002,140.09452727755536L173.89034166666664,147.85041675483836L174.47043333333332,152.53558233007735L174.793825,156.09071177911264L174.83031666666668,152.77233184768718L174.90707500000002,153.59210076961776L175.28960833333332,156.28107367861006L175.50100833333335,157.40823671055784L176.1415,158.54313944000978L177.66785833333333,159.8008952023806L177.66911666666667,160.80747959985536L177.84402500000002,155.630712245717L177.881775,150.37945755022514L177.93336666666664,153.36694666989848L178.47696666666667,153.59388970184756L178.52981666666668,156.82357991415782L178.94254999999998,158.7226449410172L179.467275,159.8281436438457L179.48237500000002,160.69771126359183L179.6145,116.95166850114214L180.02849166666667,132.07219770802817L180.70925,142.45487886082842L180.73945,139.7386661363508L180.78097499999998,147.66145069021377L181.33086666666668,146.7799643149023L181.44915,149.54033231488393L181.87069166666666,122.26067610577749L182.15759166666666,136.14641134819692L182.23057500000002,145.0409246466493L182.51370000000003,149.98586769242323L182.82450833333334,150.8453181681959L184.276625,154.94830644354965L184.58239999999998,153.94584351274978L184.89446666666666,156.74316705607845L184.96115833333332,156.86740500102212L185.09831666666668,154.99833097617795L185.26567500000002,151.0196223700147L185.49720833333336,155.04186214538444L185.658275,157.53361263482984L185.77781666666667,159.20340728097779L185.96405,160.30283036477095L186.00431666666665,-13.370861270680706L186.08107499999997,46.02735092127497L186.103725,84.8609942222759L186.375525,109.39153556117316L186.61712500000002,100.62472627056162L186.74799166666665,121.79698275286673L187.30669166666667,112.87420017308898L187.67664166666668,129.87899785359446L187.89307499999998,132.30625585446555L188.00380833333335,124.61908919358993L188.01890833333334,136.0048159653177L188.028975,144.0988234466658L188.12460833333333,150.49325131245413L188.17871666666667,128.16299374278316L188.65688333333333,120.5710358520085L188.8406,127.33857090879496L189.63586666666666,137.56320898006004L189.916475,145.49271203811622L190.62743333333333,151.41069703052017L190.64127499999998,154.8552421742535L190.86525833333334,156.91652131309027L190.9332083333333,157.62037057784326L191.11189166666668,158.7855086395291L192.11855833333334,159.4116866427376L192.42055833333333,160.20080525459838L192.78547500000002,159.66067328429335L192.92640833333334,160.29928056647154L193.19065833333332,158.4481386712752L193.28125833333334,153.6277263455819L193.608425,138.296827955765L193.79340000000002,145.79582835336058L194.257725,131.18800549347733L194.27408333333335,142.0966394952821L194.38104166666668,145.10390604509752L194.88815000000002,150.86258968528688L195.02153333333334,142.59171627873508L195.8168,148.7133823975118L196.14019166666665,153.08097895118797L196.56425,152.52304874149874L196.65359166666667,155.932913701737L196.75174166666667,143.26379638627668L197.14811666666665,142.98865697683357L197.15440833333335,149.4312590149462L197.17328333333333,154.07940466806912L197.58853333333334,154.5642989335429L197.62879999999998,147.69937621395857L197.8766916666667,149.92365676826114L198.16610833333334,110.30098904395196L198.27055000000001,127.8709679666641L198.29445833333332,132.47222967347642L198.42406666666668,135.8250131965767L198.77514166666666,142.82373674651106L199.37662500000002,130.6687574467034L199.41185833333333,138.78982440103883L199.52007500000002,142.50642276783083L199.9995,146.81807034630222L200.40090833333335,130.3283708852468L200.58336666666668,141.3506831052359L200.64125,127.31724794658845L201.30313333333334,139.57137535493803L201.35346666666666,146.9228948906897L201.39121666666668,151.74446188749482L201.40380000000002,147.7465800432907L201.49943333333334,142.63235953292576L201.5422166666667,-155.2776725568079L201.65169166666666,-56.97525042337247L201.69070000000002,14.056114648488148L202.27834166666668,64.69207995818769L202.57908333333333,97.75723587637682L202.872275,112.98716416270331L203.66628333333333,129.17792127455397L203.71158333333335,106.0128027442461L203.83364166666667,122.23006586304137L204.09789166666667,133.26763866250923L204.09915,140.48769812246675L204.47539166666667,145.82696617987767L204.79626666666667,150.96619543126562L204.97369166666667,151.89213378066566L205.34364166666668,140.52976265730163L205.53994166666666,147.68753171959673L205.7198833333333,151.3207074536213L205.8281,147.23695451638608L206.07473333333334,150.65770171903077L206.1061916666667,148.57473913466094L206.26474166666668,152.1722759976675L206.35282500000002,9.038348632858686L206.65230833333334,61.24154196505397L206.72655,94.02430446557929L206.87629166666665,110.4974975745779L207.03232500000001,128.40295008616502L208.4102,140.02538810604813L208.52093333333335,146.0411017446363L208.57000833333333,27.79547310459435L208.6216,42.522235403980574L209.27719166666665,75.91939799943877L209.38666666666668,105.15082025086339L209.76039166666666,93.67343051032057L210.603475,111.8637703723084L210.76076666666665,-511.138798132176L211.93479166666668,-49.940402920293195L212.08830833333334,21.530738368605768L212.16129166666667,64.1143126052226L212.24811666666668,96.9733794401286L212.25315,118.96763985988649L212.38024166666668,132.98839652981266L212.48845833333334,117.2280307511075L213.215775,116.50289153797831L213.35796666666667,130.95553440265047L213.5190333333333,141.67566117296735L213.774475,128.19231015448236L213.83865,138.19244797622417L213.925475,145.84911683747958L213.93050833333334,151.04187814988174L214.59365,132.8711521250211L214.61755833333333,129.29050114795564L214.718225,140.00817173345433L214.87174166666665,146.70337081171766L215.00386666666665,148.23811033134874L215.22910833333333,153.00268147691745L215.246725,155.39099890154444L215.292025,156.899213138321L215.34361666666666,153.05129280302685L215.4619,154.86247235113694L215.52355833333334,157.74100386086502L215.64561666666668,155.82504922842182L215.75005833333333,156.83449872701962L215.85953333333333,159.01384556013844L215.88218333333336,159.24438072001686L216.05205833333332,112.56662430855276L217.0927,128.77601376714375L217.398475,139.7344004707848L218.39255833333334,147.45566833284775L218.47686666666667,151.91273598559638L218.553625,89.98001139266563L219.00662499999999,110.43934515096444L219.60685,127.04454926104779L219.7867916666667,139.28992711903635L220.44741666666667,143.18681399586035L220.54556666666664,148.56794662569115L220.94445833333336,110.48060084301983L221.11559166666666,127.0117741420811L221.13446666666664,136.37859608928846L221.85675,143.810584447598L221.96119166666668,132.8013554153058L222.28835833333335,142.96713474882748L222.50730833333333,149.73822051204232L222.59916666666666,153.28207195002892L222.78288333333333,137.8201638922538L222.80679166666667,145.01578066512195L222.88984166666665,150.20281968925033L223.09243333333333,86.73402850413093L223.20694166666667,112.35262325337203L223.26734166666668,49.07336365970677L223.5102,-118.52647381863426L223.74425,-23.170241682555798L223.89273333333333,39.4001461544303L223.97830000000002,69.73118828344782L224.03618333333333,99.77626893731295L224.86290833333334,121.19690632581319L225.05920833333334,127.65867625684112L225.2227916666667,136.7035712056211L225.42286666666666,145.36239793242527L225.756325,111.52352729388551L225.89977499999998,129.0990841298439L226.22316666666666,139.92753256300628L226.75544166666666,147.24439159516436L226.81835833333335,141.56373544501358L227.03479166666668,148.8613055507114L227.08135,153.67564041208632L227.39215833333336,116.28494571333533L227.70170833333333,131.14776116999357L227.95966666666666,136.0389694719181L227.9949,144.2156911941488L228.217625,-91.55857104152295L228.95500833333332,-7.07424299023927L228.98395000000002,47.11087863653253L229.19660833333333,84.62982743764552L229.19786666666667,79.05786128664029L229.27714166666667,107.11999506883134L229.380325,125.86723175618144L229.54264999999998,133.06037450190473L229.614375,138.82551006468077L229.75153333333336,143.24921308227903L229.84087499999998,132.70835666786706L230.01075,142.78538938199756L230.43732500000002,145.80065640359862L230.64872499999998,104.9620879719172L231.47922499999999,124.6731463004055L231.62644999999998,137.77132059995168L232.317275,146.3431601987047L232.56516666666667,109.87579013283626L232.6155,89.3261162547289L232.770275,113.5792823540232L233.37553333333335,130.02102968553388L233.54415,139.68647356206338L233.7995916666667,114.20076539417894L234.04748333333333,109.00973111377374L234.42624166666667,124.93465456192442L234.45518333333334,123.15834506098761L234.69678333333331,135.6331402383144L235.14600833333336,143.0658678690429L235.24290000000002,149.22604599125864L235.49708333333334,153.5990391363414L235.60404166666666,156.7896853635764L235.74371666666667,127.47570105757072L235.80789166666665,119.40993014557098L236.11995833333333,134.31776295155646L236.61448333333334,142.6382646386074L236.79442500000002,148.0820624772252L237.05741666666665,153.03670325066673L237.25875,156.1989363519665L237.473925,157.1914885549496L237.65764166666668,159.03301427285317L237.67148333333333,159.90334653576627L237.8338083333333,160.16123573096988L237.85897500000002,159.78851534857534L238.23270000000002,160.59541421429873L238.52337500000002,159.21672197595964L238.85180000000003,156.98346904266106L238.92478333333332,155.58510587365794L239.03803333333332,156.37115507508452L239.32115833333333,157.5826308457427L239.70746666666665,157.5864349613544L240.60969166666666,157.43141699975445L241.12309166666668,153.65389559084807L241.17216666666667,155.2416757138093L241.18475,157.06541403144016L241.89193333333336,157.43809522291085L242.12472499999998,140.5423942082345L242.82435833333332,142.99517389209012L242.97661666666667,149.72642066852492L243.07854166666667,149.64123853082853L243.09741666666667,130.44445370037107L243.2308,141.55725168294154L243.45100833333333,133.3073841307815L243.559225,141.66934402182403L243.79704999999998,121.74558174139918L244.638875,135.63442019643978L244.93206666666669,144.99482853455527L245.27810833333334,149.66062866200735L245.514675,154.15065445594428L245.590175,156.68240668336787L245.71978333333334,140.62825136186132L245.85190833333334,146.95656963846352L246.06959999999998,152.47652785259794L246.73651666666666,155.01656240948338L246.97308333333334,157.48114510113902L246.9907,159.4371429787819L247.009575,159.49695599980743L247.09765833333333,106.60779235059414L247.3682,123.42220419934614L247.99988333333332,136.35010925598533L248.75488333333334,135.10144647453683L248.87065,117.54348643113592L249.0292,124.47889007215255L249.39285833333332,135.85851930329852L249.98301666666669,143.955483966158L249.99056666666667,149.62039972159184L250.03335,82.88285588027179L250.19693333333333,96.1875405075258L250.61973333333333,116.47026961499964L250.656225,131.0983437868263L250.98590833333336,135.8071636083675L251.04756666666668,144.30324377274616L251.26525833333332,117.99752272022792L251.62514166666668,126.53279826283375L252.0643,136.56052634795395L252.10205000000002,145.15650599504772L252.42795833333332,146.79267873409404L252.98791666666668,152.2388475474899L252.99295,155.13331475671322L253.06215833333334,157.63040931890632L253.26223333333334,143.0761649299329L253.29998333333336,149.42935946618326L253.43085,108.7945015284638L253.50886666666668,127.32515474717471L253.72655833333332,125.16019301947142L254.29406666666665,136.16245237722188L254.816275,144.8626863727771L255.2353,149.74109695181562L255.30325,150.83463046216139L255.37245833333336,151.21538109204553L255.37875,151.68895922508872L255.72479166666668,155.2035063434544L255.78393333333332,153.27008398726954L255.78645,148.35488303857667L256.05447499999997,138.53899459779905L256.1954083333333,141.5215076617971L256.462175,148.01932296810162L256.60185,104.50322885463046L256.61443333333335,86.30882048397639L256.88875,112.05323422292705L257.63871666666665,126.51012094729664L257.6513,132.2761815599127L257.7393833333333,142.30131387762052L258.032575,149.4317393709764L258.7334666666667,150.7996414630069L259.2242166666667,136.90916957817117L259.50985833333334,49.128263538695975L259.52621666666664,87.89689172416725L259.79046666666665,112.79559054465024L259.89365,129.83650128340275L260.08365833333335,138.09926021421248L260.1188916666667,139.21953573641292L260.38188333333335,146.79576695650115L260.5190416666667,150.78055765420515L260.5895083333333,153.96829069979904L260.652425,156.07678291334062L260.6662666666667,158.24242264359359L261.23125833333336,159.3576424470347L261.32437500000003,152.0336905815806L261.6628666666667,145.70614204851512L261.72075,151.3376160328239L261.822675,151.51938643026577L262.207725,155.41443250478548L263.2836,157.32676660537157L263.310025,148.9550023254651L263.3188333333333,151.79610696567775L263.347775,151.24289622564115L263.3981083333333,146.10583258299812L263.7202416666667,150.68657238501385L263.9039583333333,154.36664352523294L264.163175,133.69820284898933L264.16695,142.63303969470297L264.5306083333333,148.36981018212995L264.676575,150.47239338523337L264.80744166666665,123.36073802236251L266.2457166666667,113.28595371064154L267.03846666666664,102.6243946038473L268.40250000000003,121.98593688141325L268.44528333333335,135.37243915506215L268.662975,143.988026903448L268.94735833333334,150.34432298500712L268.99265833333334,154.62458622262986L269.7552083333333,157.4584647228809L269.870975,158.85393472650892L270.06601666666666,158.6994707433495L270.48881666666665,158.46749135291586L270.897775,-65.4629309268021L270.91665,-29.068875085869678L271.04625833333336,35.493704578220985L271.18845,76.12620700228416L271.3218333333333,105.35279570487522L271.68675,122.19808951445891L272.42539166666666,132.7519883027568L272.71480833333334,142.72745531632714L272.77772500000003,149.71238375701492L273.0658833333333,151.3185624806107L273.22065833333335,152.04979352176508L273.3414583333333,150.32438103615806L273.97314166666666,152.45016558808172L274.21096666666665,155.9594854879915L274.57085,158.38320758022417L274.8338416666667,159.76274956563756L275.3887666666667,160.1869859140813L275.3938,160.44540798527143L275.90216666666663,161.3927734109747L275.93739999999997,152.56569458120478L276.409275,147.4808751301352L276.41305,149.08165582224171L276.56782499999997,149.38189413883296L276.71882500000004,149.82277926021058L276.8333333333333,153.8993272810025" style="fill: none;" fill="none"></path></g></g></g></g><g opacity="0.2"><g><g><g><path stroke="rgb(255, 112, 67)" stroke-width="2px" d="M25.220775,163.33521295324542L25.378066666666665,163.37796865075228L25.456083333333332,152.44840888793652L25.764375,161.0415345957646L25.842391666666668,163.07764894830493L25.896500000000003,163.3726252107657L25.905308333333334,163.38074907928464L25.982066666666668,163.3014380337957L26.18465833333333,157.73801631193894L26.443875000000002,161.65112055494234L26.84528333333333,156.13781330218683L26.910716666666666,161.99606154228633L26.974891666666668,162.74627168820456L27.349875,125.45311777408307L27.353650000000002,163.17345226634868L27.529816666666665,144.95320896918957L28.0709,-198.15338516235352L28.174083333333332,163.3120894223595L28.294883333333335,162.80367912638647L28.296141666666667,162.59888681396842L28.54655,163.30437903632767L29.232341666666667,162.58851974342878L29.252475,161.99430151455678L29.32671666666667,160.25163536805374L29.720575,152.92380505800247L29.723091666666665,162.32602636745344L30.60015,161.93478853542072L30.704591666666666,-373.45057912973255L30.820358333333335,163.30702743424962L30.841749999999998,162.05149724219854L31.4231,149.7574699291816L31.628208333333333,163.1039975271202L31.893716666666666,144.65087779668661L32.36936666666667,163.17962364888248L32.6009,144.63554131067716L32.70534166666666,162.24791562671845L32.969591666666666,163.30898524319323L33.597500000000004,162.529914167638L33.6126,-30.062667846679688L33.792541666666665,160.99810887873173L33.933475,163.2291527946408L34.1713,163.20903102401644L34.55509166666667,154.91114762196173L34.55886666666667,155.67674000446613L34.98040833333333,162.45225119418822L35.02445,161.54080627744014L35.31764166666667,162.06201246953927L35.46109166666667,140.76498327805444L35.512683333333335,154.8332048700406L35.861241666666665,163.21628535617717L35.873825000000004,163.19307185845594L36.33940833333333,163.10681390117568L36.41113333333333,155.76454946169486L36.82009166666667,161.32095416348713L37.081824999999995,160.7114532131415L37.190041666666666,162.88277593914134L37.37124166666667,162.35488199671875L38.25333333333334,-146.12716836195727L38.354,163.10418582979875L38.40810833333334,163.2236885552366L38.89005,163.3471761457622L38.96680833333333,120.52618927222032L39.034758333333336,162.86597031182967L39.679024999999996,162.0592564791441L39.721808333333335,148.7810978430968L40.22891666666667,155.59822105902893L40.23520833333334,162.43203664169863L40.474291666666666,122.83769587370065L40.63284166666667,158.60249851529414L41.37148333333334,47.418434583223785L41.569041666666664,151.95004531970392L41.60301666666667,102.96293119283823L42.306425000000004,160.97001437269725L43.15454166666667,162.90269174340827L43.62515833333333,159.6825951727537L43.764833333333335,136.51869838054364L43.88311666666667,161.50636370136186L44.63811666666667,161.43823713637315L45.00429166666667,140.9991466999054L45.447224999999996,116.65360401226924L46.37965,162.96817725237744L46.64264166666667,91.96566603733943L46.68165,142.75206696070157L46.958483333333334,126.5938251201923L46.98616666666666,44.18546632620004L47.24286666666667,146.64865433252774L47.26048333333333,163.32254730297538L48.38543333333334,152.48831394085516L49.74443333333333,163.0183765654667L49.881591666666665,70.01915293473465L49.9961,159.41827654150816L50.3283,161.56754226524097L50.40128333333333,160.548591912939L50.41260833333333,161.5945742623164L50.641625,163.04266035786043L50.741033333333334,162.26550109340593L50.88825833333334,163.20656495634466L51.01283333333333,161.2672052498047L51.061908333333335,159.9143949838785L51.31483333333333,163.3712623725072L51.31860833333333,143.56461505706494L51.410466666666665,161.82446999733264L51.69359166666666,140.69519082399515L51.774125,158.6316530956672L51.884858333333334,162.7050671565991L51.99433333333333,163.31507650515638L52.65999166666667,162.84611298917577L53.159549999999996,162.26539336144924L53.266508333333334,133.9775031896738L53.301741666666665,-14.144054339482238L54.28324166666666,163.19533639788054L54.295824999999994,163.3636550980423L54.469475,157.64780023235542L54.56385,161.57883626681107L54.6469,-506.47429539607117L54.78909166666667,163.24584732971226L54.952675,158.0644023464276L54.991683333333334,-325.66823695256164L55.5529,163.010957820341L55.722775,138.7047830728384L55.725291666666664,109.30508510883038L55.77310833333333,162.91763280647305L56.149350000000005,144.6710218466245L56.28273333333334,163.20403708481732L56.54320833333333,163.04534511024562L56.94461666666667,9.78530458303598L57.11826666666666,163.1404141492855L57.648025,64.25119939217201L57.69206666666667,146.66757457989914L57.78518333333333,162.5831337542488L58.26586666666667,159.4540752011996L58.887483333333336,31.360833461468047L58.88874166666667,158.6217015844125L59.336708333333334,162.85036946661197L59.77838333333333,162.9296555203887L59.9017,157.28055193332526L59.94574166666667,134.66139782392062L60.18105,162.08997581039483L60.29555833333333,162.61689798419292L60.95240833333334,163.11206109162706L61.08453333333334,163.2361194738545L61.62184166666667,144.03925406015836L61.654558333333334,162.7563256056836L61.737608333333334,145.7346069079179L61.91251666666666,163.14307359176186L61.99053333333333,162.6668938289468L62.252266666666664,80.99160443819486L62.42843333333333,161.90637306525156L62.70275,162.55234128294083L62.924216666666666,163.2911882117892L62.95693333333333,132.1657105592581L63.136875,163.32182801844408L63.3294,162.76551431990586L63.509341666666664,162.97594465544591L63.688025,162.97446899646178L63.806308333333334,157.6473003236147L63.823925,161.46257542876097L64.68714166666666,153.78532473399088L64.7337,146.0686790392949L65.28359166666667,146.36882392259744L65.35405833333334,161.06222947858848L65.69506666666666,159.2911256460043L65.98196666666666,163.21335849853662L66.11660833333333,131.29033789267908L66.26131666666667,162.4389574562128L66.39344166666666,-97.88239112267127L66.55954166666668,161.60240481335384L66.56960833333333,151.03097446148212L66.73570833333333,111.44833021897536L66.92068333333333,155.53382697013708L67.1648,161.89543492404314L67.20003333333334,153.43139989559467L67.62031666666667,98.38252060229962L67.63541666666667,161.8451892263614L67.68071666666667,162.67334963094729L67.74866666666667,163.257141356643L67.795225,153.1606911971019L67.84178333333332,41.1460341673631L67.99655833333333,161.50454483697047L68.406775,157.85364374289145L68.61188333333332,125.62635887586154L68.705,156.2723341996853L69.62861666666667,158.5819288125405L69.65504166666666,162.39458041122327L69.81736666666666,162.9221505998419L70.17976666666667,161.36608918698934L70.40878333333333,162.39953121199056L70.51448333333333,123.53533799831683L71.25941666666667,88.43540789530827L71.29716666666667,153.47899916080328L71.43306666666668,162.7492491783431L71.53750833333334,162.29351972043514L71.98044166666666,-49.00927404256967L72.34158333333333,142.70863982347342L72.687625,86.11531195273766L72.82855833333333,159.17469479028995L73.55713333333333,139.79092732759622L73.89059166666667,163.23326248474993L74.04159166666666,162.30934252188757L74.21901666666666,146.2993171306757L74.61539166666667,156.7932894229889L75.12627499999999,123.79434266457191L75.38675,-597.1550401540903L75.526425,146.3792651983408L75.87372500000001,163.26559315435588L76.130425,161.81439929111644L76.34056666666667,-56.08233349139874L76.40725833333333,112.70227338717534L76.49911666666668,162.50610591241946L76.80992499999999,132.63668951621423L77.10060000000001,162.65171970169132L77.43783333333334,160.1600893770273L78.18654166666667,162.0215562794071L78.584175,157.7802995833067L78.606825,161.27772078147302L78.871075,162.01025477109047L79.928075,134.88415261415335L80.08033333333333,156.77993715267914L80.17093333333334,142.01187091607315L80.20490833333332,49.61486478952261L80.20994166666667,148.58794966110815L80.28921666666666,118.64850607285133L80.52578333333334,142.88279958871695L80.62645,162.39939832228882L80.78625833333334,121.57629952063927L80.79506666666667,144.6309512395125L80.85043333333333,161.59273024017995L80.917125,161.64960784407762L81.56139166666667,157.3683703174958L81.74762500000001,142.47825006338266L82.261025,156.08291747936835L82.43090000000001,163.23317339285634L82.62090833333333,118.09611340669485L83.45140833333333,157.65738371014595L83.47154166666667,149.7989250238125L83.57095,163.18925527382927L84.68835,160.62519440628014L85.11240833333333,161.05565032248313L85.19671666666667,162.716615677453L85.24579166666668,95.65925150651198L85.41944166666667,148.08691937189835L85.50123333333333,162.71155288414315L85.530175,97.35413041481605L85.66355833333333,160.11581539763853L85.79568333333334,144.73298780734723L85.85356666666667,161.68797918752983L86.224775,159.75682188226625L87.168525,161.15917545786272L87.26793333333333,81.64178444789006L87.42648333333332,162.78441468454324L88.09214166666666,163.05645996432466L88.15505833333334,163.1107290245306L88.29221666666666,150.53958364633414L88.32996666666666,160.83223351836205L89.11516666666665,161.44682059379724L89.3165,130.03089572833136L89.51154166666667,160.72051000136597L89.62856666666667,162.85714050124471L90.347075,160.07274067172636L90.60251666666666,162.2755408596534L90.96869166666666,157.87388193148834L91.04545,160.19563544484285L91.24300833333334,162.54592286250912L91.45944166666666,160.75036920148594L91.74130833333334,162.99569262306278L91.78283333333333,157.0117779465822L91.97535833333333,157.92288394386952L91.99423333333333,151.95898849230545L92.44849166666667,163.04194668436853L92.747975,162.67265880738313L92.76181666666666,98.8694382080665L92.944275,157.57009120400136L92.99964166666666,161.4682103578861L93.2727,145.5369157240941L93.98743333333333,153.50469333391922L94.1334,160.364089474082L94.29698333333333,151.22909576159256L94.35360833333333,153.4544167977113L94.7525,-301.8589729895958L95.05953333333332,158.5678575176459L95.06960000000001,162.8884471339675L95.27345,163.21095904055983L95.34014166666667,163.01620942354202L96.05865,162.82789776732142L96.27256666666666,161.7987449856905L96.29018333333335,146.87860586093024L96.39965833333333,113.54805080707257L96.6249,162.49616261800895L96.666425,159.00888577332864L97.27671666666667,156.44285177267514L97.50195833333333,146.9984735892369L98.704925,162.83315127256972L98.85089166666667,162.27821833353775L99.056,161.48919455477824L99.089975,163.25676624756306L99.11136666666667,132.34319763917188L99.74179166666667,125.40401634803185L99.80093333333333,163.29726802976802L99.95319166666667,141.709926036688L100.21492500000001,159.22530527527516L100.252675,141.88319635391235L100.89316666666667,150.84814420113196L100.90071666666667,157.1738279095063L100.9284,156.90319143808804L101.04165,163.34984698467173L101.26563333333333,150.98687212283795L102.18421666666666,162.4698012574361L102.27355833333333,-254.3740570361798L102.47740833333334,161.7085192690675L102.781925,144.67226999539596L103.3595,162.51775557146624L103.46016666666667,163.13246463153226L103.83389166666667,138.95027559537155L103.87289999999999,149.26157181996567L104.28437500000001,163.19261780173446L104.473125,159.785458700015L104.71975833333333,146.6813172010275L105.08845,162.56576801206057L105.28726666666667,162.4481686399533L105.53138333333332,159.69174772271742L106.35685000000001,151.17314331348126L106.56573333333333,159.6343511388852L106.81991666666667,162.78042545742713L107.327025,158.40677166443604L107.71585,152.09041092945978L107.7687,135.71227741241455L108.27958333333332,153.80169187600796L108.59290833333334,153.18126374024612L109.20823333333333,161.33642009015267L109.44605833333334,162.59194652249033L109.50268333333332,162.6415674356887L110.02992499999999,119.95001523311322L111.06553333333333,151.89540594357712L111.08818333333333,150.5865377371128L111.21024166666666,159.96552282571793L111.27441666666667,113.95271394802974L111.47700833333333,162.92507894107928L112.2081,162.57332933464875L112.22571666666666,-278.88675102820764L112.56546666666668,162.9534347630464L112.89766666666667,55.09050156519963L112.99707500000001,162.63355525181845L113.1443,163.23837074966957L113.83260833333333,152.47597041496863L113.98109166666666,153.34407492784354L114.076725,155.6516918173203L114.40263333333334,108.86222439545851L114.50455833333334,163.3327071803371L115.04815833333333,62.54695206422073L115.20670833333332,160.34266542242125L115.23942500000001,162.3496466496816L115.38539166666668,158.1994320796086L115.64964166666667,142.0737751997434L115.71381666666666,160.0571280591763L115.74149999999999,162.3371076440582L115.783025,103.80151187456572L115.81448333333334,114.36822251173166L116.14165,150.36609827096646L116.14416666666666,-1019.6057651226338L116.27251666666668,128.70286218936627L116.27629166666667,161.54061110203082L116.47007500000001,162.26921246945858L116.6777,159.7687896650571L116.86645,162.61233702703163L117.03758333333333,150.505106985569L117.2515,162.85814361560804L118.025375,162.8653878795986L118.08451666666667,159.3685096525229L118.16001666666666,161.48144759237766L118.18895833333333,159.2924034159917L118.5199,154.26654451627L119.41835,120.96879353890053L119.7581,137.5120819715353L120.13308333333333,162.86694583382743L120.15573333333333,159.23184141975182L120.2564,150.75087462021753L120.71065833333334,157.2471156670497L121.075575,155.4461676478386L121.3436,110.50790449289175L121.407775,105.46872050945575L121.58897499999999,163.04512358514162L121.64811666666667,161.52242590716253L121.79534166666667,162.56561503673976L121.94130833333334,158.39462087933833L121.95011666666666,150.23748457431793L122.30874166666666,162.44420375904213L122.72650833333334,161.24468663334846L123.19335,161.67580030285396L123.4878,161.80326851056174L123.57965833333333,161.65174807837377L124.29313333333334,156.50160646897095L124.3787,-386.9088495694674L124.47559166666666,160.5398629869406L124.49320833333333,162.9364359384546L124.54228333333333,99.93898971264178L124.58255,162.02345092136127L125.10224166666666,153.41922760468262L125.32748333333333,103.18689680099487L125.80313333333332,112.21550835095918L125.8736,144.0893147266828L125.87863333333334,154.3409254184136L125.960425,162.85783462169078L126.04221666666666,162.11805398418352L126.32534166666666,-2210.3285522460938L126.34547500000001,163.0722522062178L126.52667500000001,135.07098539058978L126.55939166666667,142.1067042534168L126.60595,141.24439251422882L127.08789166666666,159.59240790284596L127.1118,148.97228859021112L127.24015,163.27332552171384L127.57235,153.31913061783865L127.71454166666668,114.84947556715746L127.75858333333333,160.65917257849986L129.27739166666666,157.65587870891278L129.320175,162.4076898281391L129.41958333333332,163.30817838840616L129.94556666666668,112.73855572480421L130.56844166666667,157.93122698252017L131.11581666666666,152.06272361370233L131.38258333333334,-0.48881985591009425L131.62418333333335,146.44574332237244L131.73114166666667,160.44517998741225L131.89724166666667,162.57623089506075L132.23825,163.07536076009274L132.33891666666665,151.05467549195657L132.76549166666666,162.62667105805414L132.8045,151.9140145595257L132.846025,163.03724710600306L132.989475,151.6118448835153L133.06875,163.33135581063107L133.40220833333333,156.8986102938652L134.36609166666668,156.29439916519019L134.47305,126.73795140706576L134.65299166666665,162.2146884334775L135.13745,152.10381757296048L135.20917500000002,155.21206671458023L135.480975,155.40423374451123L135.68608333333333,133.39539192273065L136.07365000000001,162.68072227044746L136.74937500000001,161.70067664637014L136.92680000000001,158.1007739534745L137.489275,-225.44107906634991L137.59623333333334,159.0630106329918L137.61636666666666,123.58584825809186L138.09705,155.63176444860605L138.38395,154.79738267568442L138.46196666666668,148.49123355058524L138.71615,163.12704912257882L138.984175,138.21217494744522L139.79454166666667,154.1207878452081L140.05375833333335,159.3968843427988L140.46145833333333,160.40628733084753L140.486625,139.5225591109349L140.4904,131.7953495979309L140.59735833333332,100.50687305743878L140.60113333333334,-179.82815903883716L141.85191666666668,-1021.5010035588191L141.92615833333335,162.4183240475563L142.351475,163.04964683104592L142.47353333333334,162.6214302838422L142.7856,123.08021653615512L143.32668333333334,162.6926427810238L144.125725,145.59534661586468L144.43779166666667,156.9826099757965L144.57243333333335,161.74169969730653L144.78131666666667,163.1481709008893L144.941125,128.16162008505603L145.11351666666667,161.64008726064975L145.18398333333334,141.09527850151062L145.22425,-3.2526789445143436L145.31359166666667,162.21742038199534L145.79175833333332,161.2539554364406L145.90375,159.6988259760233L145.93269166666667,149.15202688253842L146.34668333333332,156.59847230865404L146.64113333333333,162.91153250978545L146.722925,163.02635291476662L147.42255833333334,155.56634294986725L147.5106416666667,143.06874291713422L147.74972499999998,162.40169437229633L147.976225,48.2745899787316L148.22789166666666,117.38498023840097L148.32855833333335,161.17611635877535L148.466975,158.54759214245357L148.75135833333334,161.99329713216196L148.99295833333332,163.16046885372356L149.08104166666666,163.281580115167L149.1427,163.26007326104894L149.81213333333332,157.80478131541838L150.37964166666666,160.98380568623543L150.513025,153.5049781845166L150.51554166666665,159.5881956036274L150.8552916666667,70.84419063421396L151.71347500000002,133.92095831724313L151.74241666666666,160.59861585727106L151.94626666666667,162.61119945060747L152.08090833333333,157.4607694401191L152.15515,161.69792461223327L152.25581666666668,-1109.4312374408428L152.35019166666666,158.90797927517158L152.45463333333333,154.96407383680344L152.55404166666665,110.32635321983925L152.68113333333335,163.12951572282384L152.80193333333332,159.69541263809572L152.8875,106.81734444544865L153.42103333333333,161.7167924138216L153.4462,161.9560414535495L153.90423333333334,146.5226562298261L154.15841666666668,100.32964567037729L154.19868333333332,-583.3004784217248L154.26663333333335,162.72624196398718L154.37988333333334,162.8808162218103L154.62525833333333,96.81592347071721L154.66426666666666,155.79777635060825L154.73347500000003,156.94236407600917L154.77751666666666,106.35924625396729L154.7901,89.42524667886588L155.03547500000002,162.93517622523584L155.42681666666667,143.08445108853854L155.9679,160.28259765414091L156.38189166666666,143.58102602225082L156.454875,125.01136724765485L156.92045833333333,101.46151047486525L157.06894166666666,162.20699482984267L157.14444166666667,160.60891430194562L157.16205833333333,157.33408680328955L157.18093333333331,161.37733652500006L157.19729166666667,160.4800583605583L157.40995,160.99511997630964L157.83904166666667,69.81944913130539L158.06050833333333,157.19227381165211L158.266875,139.08329838972824L158.28449166666667,162.3107430373247L158.81550833333333,112.17470735770006L158.88723333333334,141.01097570932828L159.04200833333334,162.35557880539162L159.263475,161.22936901564782L159.38930833333333,162.80935148780162L159.9392,92.13133709247296L160.77095833333334,162.6584693826735L160.86281666666667,161.0127504834762L161.63291666666666,163.1223052645532L161.80530833333333,129.79442266317514L162.63077499999997,137.85422730445862L162.63203333333334,48.48862882760855L162.70501666666667,137.84737141315753L162.95668333333333,-433.19936018723706L163.36060833333335,117.43335777062636L163.66386666666668,157.1636589054878L163.82493333333332,161.30949136156303L163.86645833333333,143.35871433294736L164.11057499999998,153.7491381581013L164.321975,151.39206844568253L164.39118333333332,158.8376548565351L164.51198333333335,162.35937458162124L165.0870416666667,162.06799717247486L165.13863333333333,162.29056500414242L165.24936666666667,139.51237590496356L165.52871666666667,153.18404083068555L165.72124166666669,152.087939789662L165.99429999999998,153.90661996144516L166.692675,131.33148622512817L166.93679166666666,162.2444871738553L166.98586666666668,163.13757360654955L167.236275,162.21223879949406L167.764775,148.28025907736557L168.10075,159.20245271004163L168.29201666666665,161.88149175105187L168.59275833333334,136.59624591240515L168.98535833333335,142.11080740048334L169.1955,151.55556863087875L169.64975833333332,158.5478980930952L169.99705833333334,97.34068481738751L170.06375,162.07668673877532L170.51297499999998,154.12048676380743L170.52807499999997,150.94660512300638L170.83888333333334,163.2372085734342L170.981075,163.03437722101808L171.18366666666665,-256.9681029686561L171.29691666666668,160.85740363941744L171.70461666666668,163.12384681045435L171.98145,162.10710366987266L172.02926666666667,-27.708357370816742L172.11986666666667,148.97189418169168L172.16894166666668,158.4077325279896L172.41305833333334,158.2427788743606L172.430675,162.98590887237626L172.45206666666664,144.69707228587225L172.58796666666666,162.4204799040006L173.19196666666667,156.58590073998158L173.43105,162.49870273872062L173.57701666666668,159.1890825858483L173.85385000000002,107.66535847003644L173.89034166666664,162.90596691662302L174.47043333333332,161.6303155055413L174.793825,162.99184541547527L174.83031666666668,146.33077080433185L174.90707500000002,155.1834169121889L175.28960833333332,161.50084461959509L175.50100833333335,159.59625906669177L176.1415,160.74618591482823L177.66785833333333,162.24242109404162L177.66911666666667,162.76143754789462L177.84402500000002,145.5816932641543L177.881775,140.18584549427032L177.93336666666664,159.16619025514677L178.47696666666667,154.034426175631L178.52981666666668,163.0929785615836L178.94254999999998,162.40906528727368L179.467275,161.97411171404215L179.48237500000002,162.38569546662845L179.6145,32.032879609328035L180.02849166666667,161.42381322727755L180.70925,162.60949521626418L180.73945,134.4660179064824L180.78097499999998,163.04097364771252L181.33086666666668,145.06884370400354L181.44915,154.89869372661298L181.87069166666666,69.30604934692383L182.15759166666666,163.1010738775994L182.23057500000002,162.30674457893923L182.51370000000003,159.58487478127847L182.82450833333334,152.51366320940164L184.276625,162.91293074276584L184.58239999999998,151.99988605884406L184.89446666666666,162.17326569901064L184.96115833333332,157.108572776501L185.09831666666668,151.37012845736282L185.26567500000002,143.29624684040363L185.49720833333336,162.8497393563963L185.658275,162.37054005551798L185.77781666666667,162.44477335879435L185.96405,162.43700458625187L186.00431666666665,-350.50214503361633L186.08107499999997,161.3297628233066L186.103725,160.24394886539534L186.375525,157.0096452190326L186.61712500000002,83.60680235349216L186.74799166666665,162.8960688655766L187.30669166666667,95.55350457704985L187.67664166666668,162.88831099810508L187.89307499999998,137.0179919738036L188.00380833333335,109.69694214600783L188.01890833333334,158.10652087514217L188.028975,159.8107203222238L188.12460833333333,162.90596422839624L188.17871666666667,84.81602316636307L188.65688333333333,105.83370582874005L188.8406,140.47555072490985L189.63586666666666,157.41103582428053L189.916475,160.88527679787234L190.62743333333333,162.89855025106897L190.64127499999998,161.54171215914764L190.86525833333334,160.91782787671457L190.9332083333333,158.98666620942262L191.11189166666668,161.04724722986037L192.11855833333334,160.6272086489659L192.42055833333333,161.73262373644573L192.78547500000002,158.6121818125248L192.92640833333334,161.53892999658217L193.19065833333332,154.85474558059985L193.28125833333334,144.2704553604126L193.608425,108.53684872847337L193.79340000000002,160.35271147810496L194.257725,102.83164347135103L194.27408333333335,163.27222314584426L194.38104166666668,150.94154111238626L194.88815000000002,162.0412108691839L195.02153333333334,126.53649143072275L195.8168,160.59661662807832L196.14019166666665,161.55925461420645L196.56425,151.44000774621964L196.65359166666667,162.55206333043483L196.75174166666667,118.67080395038312L197.14811666666665,142.454562829091L197.15440833333335,161.9374865006942L197.17328333333333,163.10227564177833L197.58853333333334,155.50556427240372L197.62879999999998,134.37334975829492L197.8766916666667,154.24137784426028L198.16610833333334,33.38639875558707L198.27055000000001,161.97739764016407L198.29445833333332,141.40409063375913L198.42406666666668,142.33335768259488L198.77514166666666,156.40949422579544L199.37662500000002,107.07379762942975L199.41185833333333,154.55424848886636L199.52007500000002,149.72099606807416L199.9995,155.18773917509958L200.40090833333335,98.31895428437453L200.58336666666668,162.7469362381559L200.64125,100.07587381509634L201.30313333333334,163.35879914761665L201.35346666666666,161.1934916365605L201.39121666666668,161.10397429305775L201.40380000000002,139.9859858751297L201.49943333333334,132.70475501280566L201.5422166666667,-733.5736172015851L201.65169166666666,133.84709842388446L201.69070000000002,151.94052919974695L202.27834166666668,162.98542438289866L202.57908333333333,161.9425385410969L202.872275,142.55114260086646L203.66628333333333,160.60703802108765L203.71158333333335,61.04521971482498L203.83364166666667,153.71063544658514L204.09789166666667,154.6935152732409L204.09915,154.50310766238434L204.47539166666667,156.19142770308716L204.79626666666667,160.94234633101865L204.97369166666667,153.6895435177363L205.34364166666668,118.4733951825362L205.53994166666666,161.58202460522836L205.7198833333333,158.37334270202197L205.8281,139.30966940292944L206.07473333333334,157.29797570063516L206.1061916666667,144.5313411767666L206.26474166666668,159.1557299082096L206.35282500000002,-268.80986331059387L206.65230833333334,162.57715255108016L206.72655,157.6614316724814L206.87629166666665,142.47487243322226L207.03232500000001,163.16059319689296L208.4102,162.58659132111532L208.52093333333335,157.71866351366043L208.57000833333333,-201.74015896136945L208.6216,71.10947986749503L209.27719166666665,140.74918421415182L209.38666666666668,161.89416932715818L209.76039166666666,71.39379160220807L210.603475,147.1744301044024L210.76076666666665,-1720.4967252291167L211.63908333333333,57.614482366121734L211.76365833333332,149.600307061122L211.93479166666668,161.49033172543233L212.08830833333334,160.26883616470374L212.16129166666667,146.77654494689062L212.24811666666668,160.75862682553438L212.25315,161.66238067471065L212.38024166666668,160.2051594773164L212.48845833333334,86.63437953362099L213.215775,115.09526835955106L213.35796666666667,159.01066466936697L213.5190333333333,162.48531902122957L213.774475,102.01874641271738L213.83865,157.60448021842882L213.925475,160.7120622740342L213.93050833333334,161.12194422689768L214.59365,97.59856631205632L214.61755833333333,122.33982572188744L214.718225,160.81306169354L214.87174166666665,159.69993372834645L215.00386666666665,151.2173105753385L215.22910833333333,162.25155487713906L215.246725,160.02714449052627L215.292025,159.8269231273578L215.34361666666666,145.58180038745587L215.4619,158.37829147393887L215.52355833333334,163.32874149739598L215.64561666666668,152.10584317720853L215.75005833333333,158.79401834194476L215.85953333333333,163.24434235383973L215.88218333333336,159.6918901480161L216.05205833333332,21.9568618627695L217.0927,160.24129918676155L217.398475,161.00656289549974L218.39255833333334,162.44401182979345L218.47686666666667,160.56469084093203L218.553625,-30.242336346552918L219.00662499999999,150.15452244648566L219.60685,159.27818076885663L219.7867916666667,163.06036649042596L220.44741666666667,150.75135910969513L220.54556666666664,159.01367467183334L220.94445833333336,36.54634138254019L221.11559166666666,159.10169878143532L221.13446666666664,154.56125045739688L221.85675,158.2373853784341L221.96119166666668,111.43049905850337L222.28835833333335,162.70070639625192L222.50730833333333,162.88209287592997L222.59916666666666,160.16131297670879L222.78288333333333,107.80587178010207L222.80679166666667,158.98374263598367L222.88984166666665,160.27177779491132L223.09243333333333,-36.47009556110089L223.20694166666667,162.08283659013418L223.26734166666668,-73.76284613976111L223.5102,-443.8673348060021L223.74425,161.93303246394947L223.89273333333333,160.86031077916806L223.97830000000002,128.6090935927171L224.03618333333333,158.09907255952174L224.86290833333334,162.77814360937248L225.05920833333334,140.20211200530713L225.2227916666667,154.2613084591352L225.42286666666666,162.17070863739804L225.756325,45.83630781907303L225.89977499999998,163.21634151729253L226.22316666666666,160.94746187443917L226.75544166666666,161.44770618700065L226.81835833333335,130.53657938883856L227.03479166666668,163.0271769323601L227.08135,163.02111396652L227.39215833333336,43.70300894517166L227.70170833333333,159.99910882115364L227.95966666666666,145.53366794035986L227.9949,160.0881510078907L228.217625,-549.2380212637095L228.95500833333332,156.92474675637024L228.98395000000002,152.2937617943837L229.19660833333333,157.46072805157075L229.19786666666667,68.2416916993948L229.27714166666667,161.59354888131986L229.380325,162.25892650221402L229.54264999999998,147.0235339494852L229.614375,150.01665556889313L229.75153333333336,151.83640129291095L229.84087499999998,112.2466942163614L230.01075,162.34668818001563L230.43732500000002,151.6538217984713L230.64872499999998,25.68721983982968L231.47922499999999,162.93578893805926L231.62644999999998,163.19718835789425L232.317275,162.98261353746057L232.56516666666667,39.08618941673865L232.6155,49.43557284428523L232.770275,160.6589577232416L233.37553333333335,161.93736274081928L233.54415,158.4488057929736L233.7995916666667,64.72850836240329L234.04748333333333,98.9330175106342L234.42624166666667,155.8477412553934L234.45518333333334,119.71021485328674L234.69678333333331,159.84891911194876L235.14600833333336,157.49410385810413L235.24290000000002,161.1840388167363L235.49708333333334,162.08779053561963L235.60404166666666,162.98329274585615L235.74371666666667,70.57208446355966L235.80789166666665,103.75284543404213L236.11995833333333,163.25649722199887L236.61448333333334,158.7898267370004L236.79442500000002,158.6494347521892L237.05741666666665,162.6545353402885L237.25875,162.33738884272483L237.473925,159.1182075372109L237.65764166666668,162.60774066643074L237.67148333333333,161.59281504612701L237.8338083333333,160.66184416871803L237.85897500000002,159.0649993121624L238.23270000000002,162.1617473065853L238.52337500000002,156.54043704271317L238.85180000000003,152.64833099566974L238.92478333333332,152.8706361926519L239.03803333333332,157.89701528961842L239.32115833333333,159.9343191064321L239.70746666666665,157.59381942107126L240.60969166666666,157.13049978017807L241.12309166666668,146.32105991473566L241.17216666666667,158.32383712896933L241.18475,160.60561194213537L241.89193333333336,158.1615351828245L242.12472499999998,107.74485694445097L242.82435833333332,147.75645210192755L242.97661666666667,162.7929585286631L243.07854166666667,149.47588496941788L243.09741666666667,93.18010667654184L243.2308,163.12915364910776L243.45100833333333,117.29293535305904L243.559225,157.90138381031844L243.79704999999998,83.07004319704495L244.638875,162.59510660916567L244.93206666666669,163.16503295560295L245.27810833333334,158.71777008588498L245.514675,162.86658687946888L245.590175,161.59698453660195L245.71978333333334,109.46430279658391L245.85190833333334,159.24095217539713L246.06959999999998,163.19174085650593L246.73651666666666,159.94721772579047L246.97308333333334,162.265335032L246.9907,163.23408003538273L247.009575,159.61306362885696L247.09765833333333,3.9405923256507265L247.3682,156.06194484692352L247.99988333333332,161.44545436593202L248.75488333333334,132.67757166348972L248.87065,83.4603875233577L249.0292,137.94173243412604L249.39285833333332,157.94838781081714L249.98301666666669,159.67312125288524L249.99056666666667,160.61700089390462L250.03335,-46.66649392934946L250.19693333333333,122.0142812545483L250.61973333333333,155.84262611774298L250.656225,159.4940171791957L250.98590833333336,144.94781385018274L251.04756666666668,160.7956346800694L251.26525833333332,66.93347597122192L251.62514166666668,143.10127431612747L252.0643,156.02611616024603L252.10205000000002,161.84281942764153L252.42795833333332,149.9687787569486L252.98791666666668,162.81082230290542L252.99295,160.7519863981467L253.06215833333334,162.47771052786936L253.26223333333334,114.8238081748669L253.29998333333336,161.7620312130222L253.43085,29.9150714140672L253.50886666666668,163.2964227599665L253.72655833333332,120.95762025392972L254.29406666666665,157.5197793657963L254.816275,161.75137589356075L255.2353,159.21095278171393L255.30325,152.95737198224435L255.37245833333336,151.95448525593832L255.37875,152.60825795393723L255.72479166666668,162.02586251439956L255.78393333333332,149.51697000173422L255.78645,138.81361060876114L256.05447499999997,119.48462291864249L256.1954083333333,147.31109184485214L256.462175,160.632729150928L256.60185,20.030810869657074L256.61443333333335,50.99026305858905L256.88875,162.02768442206659L257.63871666666665,154.57348929460233L257.6513,143.46912274910852L257.7393833333333,161.76186484728868L258.032575,163.2731535639614L258.7334666666667,153.4549808181249L259.2242166666667,109.94531238996065L259.50985833333334,-121.26996583205005L259.52621666666664,163.153640554788L259.79046666666665,161.12835884323488L259.89365,162.9159162468635L260.08365833333335,154.13873343284314L260.1188916666667,141.39418822068436L260.38188333333335,161.5025687366724L260.5190416666667,158.51573959680704L260.5895083333333,160.15624308242246L260.652425,160.16973838668602L260.6662666666667,162.4463115317317L261.23125833333336,161.5224808890086L261.32437500000003,137.81660754864032L261.6628666666667,133.42325371962326L261.72075,162.26930082589388L261.822675,151.8722348488294L262.207725,162.9754042965002L263.2836,161.03894456533286L263.310025,132.70393048799954L263.3188333333333,157.3111924437376L263.347775,150.16901655380542L263.3981083333333,136.1338855119852L263.7202416666667,159.5785967065738L263.9039583333333,161.51031103271706L264.163175,93.57711212451642L264.16695,159.97713474814708L264.5306083333333,159.50589406948822L264.676575,154.55387842655182L264.80744166666665,70.73223055326022L266.2457166666667,93.72901945847731L267.03846666666664,81.9284269259526L268.40250000000003,159.57010718492361L268.44528333333335,161.3580023921453L268.662975,160.71240312090288L268.94735833333334,162.68301537862192L268.99265833333334,162.9333325074269L269.7552083333333,162.9595229880741L269.870975,161.5627882629633L270.06601666666666,158.39962889368718L270.48881666666665,158.01717841854463L270.897775,-500.1513977050781L270.91665,41.578409781822785L271.04625833333336,160.82106510263222L271.18845,155.00106464899503L271.3218333333333,162.08676200990493L271.68675,154.8977774977684L272.42539166666666,153.23896830357037L272.71480833333334,162.09159716619894L272.77772500000003,163.27136249482058L273.0658833333333,154.43643882641425L273.22065833333335,153.46924201341776L273.3414583333333,146.97505091703854L273.97314166666666,156.57668854181583L274.21096666666665,162.77169470546337L274.57085,163.0880798769112L274.8338416666667,162.4406840079106L275.3887666666667,161.01050353164857L275.3938,160.94705082934635L275.90216666666663,163.23177688439878L275.93739999999997,135.43077685282782L276.409275,137.6103432545295L276.41305,152.1890536363308L276.56782499999997,149.96470969456894L276.71882500000004,150.67861508406125L276.8333333333333,161.81262638018683" style="fill: none;" fill="none"></path></g></g></g></g></g></g><g transform="translate(28, 177)" clip-path="url(#clip_1)"><clipPath id="clip_1"><rect width="302" height="23"></rect></clipPath><g><g><line x1="0" y1="0" x2="0" y2="5" style="visibility: inherit;" fill="rgb(0, 0, 0)" stroke="rgb(204, 204, 204)" stroke-width="1px"></line><line x1="25.166666666666664" y1="0" x2="25.166666666666664" y2="5" style="visibility: inherit;" fill="rgb(0, 0, 0)" stroke="rgb(204, 204, 204)" stroke-width="1px"></line><line x1="50.33333333333333" y1="0" x2="50.33333333333333" y2="5" style="visibility: inherit;" fill="rgb(0, 0, 0)" stroke="rgb(204, 204, 204)" stroke-width="1px"></line><line x1="75.5" y1="0" x2="75.5" y2="5" style="visibility: inherit;" fill="rgb(0, 0, 0)" stroke="rgb(204, 204, 204)" stroke-width="1px"></line><line x1="100.66666666666666" y1="0" x2="100.66666666666666" y2="5" style="visibility: inherit;" fill="rgb(0, 0, 0)" stroke="rgb(204, 204, 204)" stroke-width="1px"></line><line x1="125.83333333333334" y1="0" x2="125.83333333333334" y2="5" style="visibility: inherit;" fill="rgb(0, 0, 0)" stroke="rgb(204, 204, 204)" stroke-width="1px"></line><line x1="151" y1="0" x2="151" y2="5" style="visibility: inherit;" fill="rgb(0, 0, 0)" stroke="rgb(204, 204, 204)" stroke-width="1px"></line><line x1="176.16666666666669" y1="0" x2="176.16666666666669" y2="5" style="visibility: inherit;" fill="rgb(0, 0, 0)" stroke="rgb(204, 204, 204)" stroke-width="1px"></line><line x1="201.33333333333331" y1="0" x2="201.33333333333331" y2="5" style="visibility: inherit;" fill="rgb(0, 0, 0)" stroke="rgb(204, 204, 204)" stroke-width="1px"></line><line x1="226.5" y1="0" x2="226.5" y2="5" style="visibility: inherit;" fill="rgb(0, 0, 0)" stroke="rgb(204, 204, 204)" stroke-width="1px"></line><line x1="251.66666666666669" y1="0" x2="251.66666666666669" y2="5" style="visibility: inherit;" fill="rgb(0, 0, 0)" stroke="rgb(204, 204, 204)" stroke-width="1px"></line><line x1="276.8333333333333" y1="0" x2="276.8333333333333" y2="5" style="visibility: inherit;" fill="rgb(0, 0, 0)" stroke="rgb(204, 204, 204)" stroke-width="1px"></line><line x1="302" y1="0" x2="302" y2="5" style="visibility: inherit;" fill="rgb(0, 0, 0)" stroke="rgb(204, 204, 204)" stroke-width="1px"></line></g><g transform="translate(0, 8)"><text x="0" y="0" dx="0em" dy="0.95em" style="text-anchor: middle; visibility: hidden; font-family: &quot;Helvetica Neue&quot;, sans-serif; font-size: 12px; font-weight: 200;" fill="rgb(50, 49, 63)" stroke="none" stroke-width="1px">-100k</text><text x="25.166666666666664" y="0" dx="0em" dy="0.95em" style="text-anchor: middle; visibility: inherit; font-family: &quot;Helvetica Neue&quot;, sans-serif; font-size: 12px; font-weight: 200;" fill="rgb(50, 49, 63)" stroke="none" stroke-width="1px">0</text><text x="50.33333333333333" y="0" dx="0em" dy="0.95em" style="text-anchor: middle; visibility: hidden; font-family: &quot;Helvetica Neue&quot;, sans-serif; font-size: 12px; font-weight: 200;" fill="rgb(50, 49, 63)" stroke="none" stroke-width="1px">100k</text><text x="75.5" y="0" dx="0em" dy="0.95em" style="text-anchor: middle; visibility: inherit; font-family: &quot;Helvetica Neue&quot;, sans-serif; font-size: 12px; font-weight: 200;" fill="rgb(50, 49, 63)" stroke="none" stroke-width="1px">200k</text><text x="100.66666666666666" y="0" dx="0em" dy="0.95em" style="text-anchor: middle; visibility: hidden; font-family: &quot;Helvetica Neue&quot;, sans-serif; font-size: 12px; font-weight: 200;" fill="rgb(50, 49, 63)" stroke="none" stroke-width="1px">300k</text><text x="125.83333333333334" y="0" dx="0em" dy="0.95em" style="text-anchor: middle; visibility: inherit; font-family: &quot;Helvetica Neue&quot;, sans-serif; font-size: 12px; font-weight: 200;" fill="rgb(50, 49, 63)" stroke="none" stroke-width="1px">400k</text><text x="151" y="0" dx="0em" dy="0.95em" style="text-anchor: middle; visibility: hidden; font-family: &quot;Helvetica Neue&quot;, sans-serif; font-size: 12px; font-weight: 200;" fill="rgb(50, 49, 63)" stroke="none" stroke-width="1px">500k</text><text x="176.16666666666669" y="0" dx="0em" dy="0.95em" style="text-anchor: middle; visibility: inherit; font-family: &quot;Helvetica Neue&quot;, sans-serif; font-size: 12px; font-weight: 200;" fill="rgb(50, 49, 63)" stroke="none" stroke-width="1px">600k</text><text x="201.33333333333331" y="0" dx="0em" dy="0.95em" style="text-anchor: middle; visibility: hidden; font-family: &quot;Helvetica Neue&quot;, sans-serif; font-size: 12px; font-weight: 200;" fill="rgb(50, 49, 63)" stroke="none" stroke-width="1px">700k</text><text x="226.5" y="0" dx="0em" dy="0.95em" style="text-anchor: middle; visibility: inherit; font-family: &quot;Helvetica Neue&quot;, sans-serif; font-size: 12px; font-weight: 200;" fill="rgb(50, 49, 63)" stroke="none" stroke-width="1px">800k</text><text x="251.66666666666669" y="0" dx="0em" dy="0.95em" style="text-anchor: middle; visibility: hidden; font-family: &quot;Helvetica Neue&quot;, sans-serif; font-size: 12px; font-weight: 200;" fill="rgb(50, 49, 63)" stroke="none" stroke-width="1px">900k</text><text x="276.8333333333333" y="0" dx="0em" dy="0.95em" style="text-anchor: middle; visibility: inherit; font-family: &quot;Helvetica Neue&quot;, sans-serif; font-size: 12px; font-weight: 200;" fill="rgb(50, 49, 63)" stroke="none" stroke-width="1px">1M</text><text x="302" y="0" dx="0em" dy="0.95em" style="text-anchor: middle; visibility: hidden; font-family: &quot;Helvetica Neue&quot;, sans-serif; font-size: 12px; font-weight: 200;" fill="rgb(50, 49, 63)" stroke="none" stroke-width="1px">1.1M</text></g><line x1="0" y1="0" x2="302" y2="0" fill="rgb(0, 0, 0)" stroke="rgb(204, 204, 204)" stroke-width="1px"></line></g></g></g></g></svg>