<svg viewBox="0 0 330 200" xmlns="http://www.w3.org/2000/svg"><g><g><g><g><g><line x1="37" y1="177" x2="32" y2="177" style="visibility: inherit;" fill="rgb(0, 0, 0)" stroke="rgb(204, 204, 204)" stroke-width="1px"></line><line x1="37" y1="154.875" x2="32" y2="154.875" style="visibility: inherit;" fill="rgb(0, 0, 0)" stroke="rgb(204, 204, 204)" stroke-width="1px"></line><line x1="37" y1="132.75" x2="32" y2="132.75" style="visibility: inherit;" fill="rgb(0, 0, 0)" stroke="rgb(204, 204, 204)" stroke-width="1px"></line><line x1="37" y1="110.625" x2="32" y2="110.625" style="visibility: inherit;" fill="rgb(0, 0, 0)" stroke="rgb(204, 204, 204)" stroke-width="1px"></line><line x1="37" y1="88.5" x2="32" y2="88.5" style="visibility: inherit;" fill="rgb(0, 0, 0)" stroke="rgb(204, 204, 204)" stroke-width="1px"></line><line x1="37" y1="66.375" x2="32" y2="66.375" style="visibility: inherit;" fill="rgb(0, 0, 0)" stroke="rgb(204, 204, 204)" stroke-width="1px"></line><line x1="37" y1="44.25" x2="32" y2="44.25" style="visibility: inherit;" fill="rgb(0, 0, 0)" stroke="rgb(204, 204, 204)" stroke-width="1px"></line><line x1="37" y1="22.125" x2="32" y2="22.125" style="visibility: inherit;" fill="rgb(0, 0, 0)" stroke="rgb(204, 204, 204)" stroke-width="1px"></line><line x1="37" y1="0" x2="32" y2="0" style="visibility: inherit;" fill="rgb(0, 0, 0)" stroke="rgb(204, 204, 204)" stroke-width="1px"></line></g><g transform="translate(27, 0)"><text x="0" y="177" dx="0em" dy="0.3em" style="text-anchor: end; visibility: hidden; font-family: &quot;Helvetica Neue&quot;, sans-serif; font-size: 12px; font-weight: 200;" fill="rgb(50, 49, 63)" stroke="none" stroke-width="1px">220</text><text x="0" y="154.875" dx="0em" dy="0.3em" style="text-anchor: end; visibility: inherit; font-family: &quot;Helvetica Neue&quot;, sans-serif; font-size: 12px; font-weight: 200;" fill="rgb(50, 49, 63)" stroke="none" stroke-width="1px">240</text><text x="0" y="132.75" dx="0em" dy="0.3em" style="text-anchor: end; visibility: hidden; font-family: &quot;Helvetica Neue&quot;, sans-serif; font-size: 12px; font-weight: 200;" fill="rgb(50, 49, 63)" stroke="none" stroke-width="1px">260</text><text x="0" y="110.625" dx="0em" dy="0.3em" style="text-anchor: end; visibility: inherit; font-family: &quot;Helvetica Neue&quot;, sans-serif; font-size: 12px; font-weight: 200;" fill="rgb(50, 49, 63)" stroke="none" stroke-width="1px">280</text><text x="0" y="88.5" dx="0em" dy="0.3em" style="text-anchor: end; visibility: hidden; font-family: &quot;Helvetica Neue&quot;, sans-serif; font-size: 12px; font-weight: 200;" fill="rgb(50, 49, 63)" stroke="none" stroke-width="1px">300</text><text x="0" y="66.375" dx="0em" dy="0.3em" style="text-anchor: end; visibility: inherit; font-family: &quot;Helvetica Neue&quot;, sans-serif; font-size: 12px; font-weight: 200;" fill="rgb(50, 49, 63)" stroke="none" stroke-width="1px">320</text><text x="0" y="44.25" dx="0em" dy="0.3em" style="text-anchor: end; visibility: hidden; font-family: &quot;Helvetica Neue&quot;, sans-serif; font-size: 12px; font-weight: 200;" fill="rgb(50, 49, 63)" stroke="none" stroke-width="1px">340</text><text x="0" y="22.125" dx="0em" dy="0.3em" style="text-anchor: end; visibility: inherit; font-family: &quot;Helvetica Neue&quot;, sans-serif; font-size: 12px; font-weight: 200;" fill="rgb(50, 49, 63)" stroke="none" stroke-width="1px">360</text><text x="0" y="0" dx="0em" dy="0.3em" style="text-anchor: end; visibility: hidden; font-family: &quot;Helvetica Neue&quot;, sans-serif; font-size: 12px; font-weight: 200;" fill="rgb(50, 49, 63)" stroke="none" stroke-width="1px">380</text></g><line x1="37" y1="0" x2="37" y2="177" fill="rgb(0, 0, 0)" stroke="rgb(204, 204, 204)" stroke-width="1px"></line></g></g><g transform="translate(37, 0)" clip-path="url(#clip_0)"><clipPath id="clip_0"><rect width="293" height="177"></rect></clipPath><g><g><g><line x1="0" y1="0" x2="0" y2="177" fill="rgb(0, 0, 0)" stroke="rgb(60, 60, 60)" stroke-width="1px" opacity="0.25"></line><line x1="24.416666666666664" y1="0" x2="24.416666666666664" y2="177" fill="rgb(0, 0, 0)" stroke="rgb(60, 60, 60)" stroke-width="1px" opacity="0.25"></line><line x1="48.83333333333333" y1="0" x2="48.83333333333333" y2="177" fill="rgb(0, 0, 0)" stroke="rgb(60, 60, 60)" stroke-width="1px" opacity="0.25"></line><line x1="73.25" y1="0" x2="73.25" y2="177" fill="rgb(0, 0, 0)" stroke="rgb(60, 60, 60)" stroke-width="1px" opacity="0.25"></line><line x1="97.66666666666666" y1="0" x2="97.66666666666666" y2="177" fill="rgb(0, 0, 0)" stroke="rgb(60, 60, 60)" stroke-width="1px" opacity="0.25"></line><line x1="122.08333333333334" y1="0" x2="122.08333333333334" y2="177" fill="rgb(0, 0, 0)" stroke="rgb(60, 60, 60)" stroke-width="1px" opacity="0.25"></line><line x1="146.5" y1="0" x2="146.5" y2="177" fill="rgb(0, 0, 0)" stroke="rgb(60, 60, 60)" stroke-width="1px" opacity="0.25"></line><line x1="170.91666666666669" y1="0" x2="170.91666666666669" y2="177" fill="rgb(0, 0, 0)" stroke="rgb(60, 60, 60)" stroke-width="1px" opacity="0.25"></line><line x1="195.33333333333331" y1="0" x2="195.33333333333331" y2="177" fill="rgb(0, 0, 0)" stroke="rgb(60, 60, 60)" stroke-width="1px" opacity="0.25"></line><line x1="219.75" y1="0" x2="219.75" y2="177" fill="rgb(0, 0, 0)" stroke="rgb(60, 60, 60)" stroke-width="1px" opacity="0.25"></line><line x1="244.16666666666669" y1="0" x2="244.16666666666669" y2="177" fill="rgb(0, 0, 0)" stroke="rgb(60, 60, 60)" stroke-width="1px" opacity="0.25"></line><line x1="268.5833333333333" y1="0" x2="268.5833333333333" y2="177" fill="rgb(0, 0, 0)" stroke="rgb(60, 60, 60)" stroke-width="1px" opacity="0.25"></line><line x1="293" y1="0" x2="293" y2="177" fill="rgb(0, 0, 0)" stroke="rgb(60, 60, 60)" stroke-width="1px" opacity="0.25"></line></g><g><line x1="0" y1="177" x2="293" y2="177" fill="rgb(0, 0, 0)" stroke="rgb(60, 60, 60)" stroke-width="1px" opacity="0.25"></line><line x1="0" y1="154.875" x2="293" y2="154.875" fill="rgb(0, 0, 0)" stroke="rgb(60, 60, 60)" stroke-width="1px" opacity="0.25"></line><line x1="0" y1="132.75" x2="293" y2="132.75" fill="rgb(0, 0, 0)" stroke="rgb(60, 60, 60)" stroke-width="1px" opacity="0.25"></line><line x1="0" y1="110.625" x2="293" y2="110.625" fill="rgb(0, 0, 0)" stroke="rgb(60, 60, 60)" stroke-width="1px" opacity="0.25"></line><line x1="0" y1="88.5" x2="293" y2="88.5" fill="rgb(0, 0, 0)" stroke="rgb(60, 60, 60)" stroke-width="1px" opacity="0.25"></line><line x1="0" y1="66.375" x2="293" y2="66.375" fill="rgb(0, 0, 0)" stroke="rgb(60, 60, 60)" stroke-width="1px" opacity="0.25"></line><line x1="0" y1="44.25" x2="293" y2="44.25" fill="rgb(0, 0, 0)" stroke="rgb(60, 60, 60)" stroke-width="1px" opacity="0.25"></line><line x1="0" y1="22.125" x2="293" y2="22.125" fill="rgb(0, 0, 0)" stroke="rgb(60, 60, 60)" stroke-width="1px" opacity="0.25"></line><line x1="0" y1="0" x2="293" y2="0" fill="rgb(0, 0, 0)" stroke="rgb(60, 60, 60)" stroke-width="1px" opacity="0.25"></line></g></g></g><g><g><line x1="0" y1="420.375" x2="293" y2="420.375" fill="rgb(0, 0, 0)" stroke="rgb(153, 153, 153)" stroke-width="1.5px"></line></g></g><g><g><line x1="24.416666666666664" y1="0" x2="24.416666666666664" y2="177" fill="rgb(0, 0, 0)" stroke="rgb(153, 153, 153)" stroke-width="1.5px"></line></g></g><g><g><g><g><g><path stroke="rgb(0, 119, 187)" stroke-width="2px" d="M26.0184,-14.36736977904502L26.069186666666667,3.9694947551222697L26.118996666666668,17.047992373448068L26.412973333333333,28.63256702072988L26.54970666666667,37.36700197811331L26.969673333333333,52.54062615731151L27.04976,64.41400852914802L27.144496666666665,73.36710145539003L27.338853333333333,80.39892806070728L27.886763333333334,91.05793628853671L27.944386666666666,98.84201391172223L28.932773333333333,109.99734803759905L29.01383666666667,117.7345057466244L29.10369,123.21648615235779L29.120293333333333,126.83426169094763L29.571513333333332,130.7264193699893L29.730710000000002,134.04741408205857L29.936786666666666,136.2392128539351L30.305966666666666,139.56642512797438L30.48567333333333,140.63397503852377L30.566736666666667,140.58629824676152L30.771836666666665,139.05032591768384L31.259193333333332,134.65145390605028L31.270913333333333,131.74820469944882L31.410576666666667,129.07981214226405L31.519963333333333,126.56642417416747L31.704553333333337,124.15533879015325L32.00536666666667,121.05952261441092L32.33255,117.1356590997785L32.366733333333336,114.16978459392487L32.594296666666665,111.08393254911931L32.70563666666667,108.67114533644444L32.74568,107.07870585846693L33.016216666666665,104.5231957992404L33.38735,100.57980915890897L33.443020000000004,97.6010490106844L33.76043666666666,93.37831731505757L33.96358333333333,89.46293940835882L34.04757666666667,86.50266499974678L34.18821666666667,83.79663389393842L34.87286,77.87327836148364L34.95099333333334,73.21161371415599L35.36705333333333,70.51104004965178L35.42663,68.35253643187804L35.47937,66.55179904454829L35.97942333333333,62.73043736871389L36.01263,60.208338663051435L36.40622666666666,56.28700351730643L36.59667666666667,52.94667232124934L36.71973666666667,50.74205373194931L37.29304,50.41538046307919L37.446376666666666,50.5759011056347L37.472746666666666,50.68184472971991L38.67697666666667,53.76076752163512L39.04225,56.9212315642927L39.150659999999995,59.75938783244119L39.242466666666665,62.008695969415356L39.828466666666664,66.12611433981922L40.112676666666665,69.97198546428378L40.45646333333333,74.39088540642966L41.18017333333333,79.18798436824528L41.384296666666664,82.73019468304268L41.41457333333334,85.06805349080857L41.62944,86.9871653039338L41.85016666666667,88.6299041005964L43.79178,92.34698670639378L43.89823666666667,95.17638622621999L43.98711333333333,97.04378990930527L44.244953333333335,98.6524013401415L44.3016,99.71408488449333L44.31039,100.41479602376567L44.48814333333333,100.8772653756853L44.5653,101.55862014795234L44.77626,102.00831429764852L44.81435,102.30511243644804L45.01066,102.87712420805572L45.01358999999999,103.25465197731677L45.08488666666667,103.50382030502904L45.30463666666667,103.66827140131917L45.36714333333334,103.77680912487062L45.53806,104.22456902241457L46.05471666666667,104.89621555479361L46.44245333333333,105.71562726616384L46.52547,106.25643899566813L46.552816666666665,106.61337473714097L47.314616666666666,106.84895232651306L47.45916333333333,107.0044335354986L47.53241333333333,107.10705113342905L47.59687333333333,107.17477874806322L47.834203333333335,107.21947897372172L47.86448,107.24898112265632L48.30007333333334,107.64457754095316L48.43192333333334,107.9056711770291L48.43387666666666,108.07799297683924L48.47099,108.19172536471386L48.76301333333333,108.26678874071118L48.86654,108.31633056886942L49.06871,108.3490281754538L49.38026666666667,108.3706085957995L49.51504666666666,108.76097667322765L49.92622333333333,109.39474460433026L49.960406666666664,109.81303143885796L50.88824,110.08910074964626L50.88921666666666,110.27130649476656L51.57972,110.76768728654595L51.67543333333334,111.09529860912029L52.5935,111.31152208201935L53.01053666666667,111.07810457413278L53.03593,110.92404901892763L53.10039,110.82237235249224L53.23614666666667,110.75526575264487L53.2967,110.71097539674564L53.84949333333333,110.68174376185215L54.021386666666665,111.03857588282244L54.046780000000005,111.27408508266281L54.18644333333334,111.0533961545575L54.47553666666666,110.90774146200796L54.61422333333333,110.81160936492525L54.70603,110.7481621808507L54.71970333333333,110.70628703936148L55.389696666666666,111.05477444597855L55.42583333333334,111.28477613434585L55.85263666666667,111.43657724866823L55.90733,111.53676598412102L56.394686666666665,111.60289054951987L56.61150666666666,111.64653276268311L56.714056666666664,111.67533662337085L56.842976666666665,111.69434717142481L56.85079,111.7068941331404L56.979710000000004,111.7151751278727L57.12328,112.096765584396L57.31275333333334,111.97249028570134L57.34010000000001,111.8904685885629L57.66630666666667,112.21245926845152L57.67802666666667,112.424973117178L57.713186666666665,112.56523225733744L57.76592666666667,112.6578032898427L57.80206333333333,112.71890017129621L57.8382,112.75922411305548L57.958330000000004,112.7858379146166L58.27672333333334,112.80340302364696L58.43592,113.19112099560702L58.50819333333334,114.19926485710066L59.24557666666667,115.24076480568644L59.371566666666666,115.92815477175301L59.8306,116.00570714935701L59.912639999999996,116.05689171857563L60.49082666666666,116.4667985342599L60.52012666666667,116.73733703261148L60.70667,117.29201744152357L61.05045666666667,117.65810651140552L61.330760000000005,117.89972529752767L61.59934333333333,118.05919369636824L61.708729999999996,118.16444283960304L62.27422,117.857782274138L62.53303666666667,117.65538630093107L62.650236666666665,117.52180495861447L62.78794666666667,117.80976627268558L63.095596666666665,117.99982073997248L63.49212333333334,118.12525668838182L63.694293333333334,118.20804441433204L63.802703333333326,118.2626843134591L64.07226333333332,118.29874664688299L64.27150333333333,118.32254778694274L64.48637000000001,118.33825653938217L64.55766666666666,118.34862431599221L64.79890333333333,118.35546704855484L65.02451333333333,118.35998325204623L65.28626,118.36296394635048L65.86737666666666,118.36493120459133L66.17600333333334,118.36622959503025L66.19358333333334,118.36708653271995L67.21908333333333,118.36765211159516L67.33726,118.36802539365283L67.40758,118.36827175981085L67.49938666666667,118.36843436147518L67.683,118.36854167857362L67.76113333333333,118.36861250785859L67.88517,118.36865925518666L67.89200666666666,118.36869010842321L67.93498000000001,118.3687104715593L67.98674333333334,118.36872391122913L68.48679666666666,118.74485778141118L68.63134333333333,118.99310613573138L69.02982333333334,119.15695004958266L69.16167333333333,119.26508703272458L69.30915,119.33645744159821L69.95375,119.38356191145485L69.96937666666666,119.41465086156018L70.04653333333334,119.4351695686297L70.91381333333334,119.44871191529562L71.24295000000001,119.45764986409509L71.30838666666666,119.46354891030276L71.34647666666666,119.46744228079982L71.56720333333334,119.47001190532788L71.67072999999999,119.47170785751642L71.77328,119.47282718596085L72.10632333333334,119.47356594273418L72.83882333333334,119.47405352220454L72.91598,119.47437532465494L73.03904,119.4745877142723L73.55569666666666,119.47472789141972L73.60453,119.47482040833702L73.71098666666666,119.47488146950244L73.74028666666668,119.47492176987166L74.34972666666667,119.47494836811532L74.50599333333334,119.47496592295607L74.65737666666666,119.47497750915097L74.74820666666668,119.47498515603965L75.30588333333334,119.47499020298622L75.78835666666667,119.47499353397092L76.16925666666667,119.09887073242079L76.38803,119.22675468339774L76.42026,119.3111580910425L76.56969000000001,119.36686434008807L76.58434,119.40363046445817L76.93691666666666,119.42789610654239L77.16936333333332,119.067786430318L77.18010666666666,119.20623904400989L77.32172333333334,119.2976177690465L77.36469666666667,119.35792772757068L77.57663333333333,119.39773230019668L78.24467333333332,119.0478783181298L78.37164,119.19309968996566L78.72519333333334,118.91282079537729L78.96350000000001,118.72783672494901L79.18129666666667,118.60574723846634L79.73897333333333,118.90129317738783L79.91868,119.096353497076L80.00365000000001,119.22509330807017L80.17847333333333,119.31006158332633L80.21070333333333,119.3661406449954L80.68438666666667,119.40315282569699L80.85921,119.42758086495999L81.79290333333333,119.44370337087355L82.06539333333333,119.45434422477655L82.09176333333333,119.46136718835251L82.10836666666667,119.46600234431264L82.59767666666667,119.46906154724638L82.64358,119.47108062118261L82.76175666666667,119.47241320998052L82.96490333333334,119.47329271858715L83.49132666666667,119.47387319426753L83.49718666666668,119.47425630821655L83.51867333333334,119.47450916342294L83.60657333333334,119.47467604785918L83.78042,119.47478619158707L84.49338666666667,119.47485888644746L84.56272999999999,119.47490686505529L84.95730333333333,119.4749385309365L85.40559333333333,119.09883443041807L85.80407333333332,118.85060572407595L86.74753333333332,118.6867747778901L86.90184666666666,118.57864635340749L87.09132,118.5072815932489L87.73201333333334,118.46018085154425L88.09142666666666,118.42909436201921L88.48502333333334,118.40857727893271L88.78681333333333,118.39503600409557L88.82783333333333,118.38609876270311L89.22436,118.38020018338403L89.94514,118.7524321210335L90.12973,118.9981051998821L90.17367999999999,119.16024943192224L90.58290333333333,119.26726462506863L91.40428,119.33789465254532L91.49901666666668,119.38451047067993L91.70607,119.41527691064874L92.27351333333334,119.43558276102817L92.28718666666667,119.44898462227863L92.55088666666667,119.45782985070389L92.80872666666667,119.46366770146457L92.88588333333334,119.46752068296664L93.00015333333333,119.47006365075794L93.53439,119.47174200950025L93.64963666666667,119.4728497262702L93.72386333333333,119.47358081933831L94.05593,119.47406334076331L94.47785,119.47438180490377L94.60091,119.47459199123645L94.94469666666667,119.47473071421607L94.99450666666667,119.4748222713826L95.01599333333333,119.47488269911253L95.04822333333334,119.47492258141428L95.07263999999999,119.47494890373343L95.32657333333333,119.47496627646404L95.32852666666666,119.47497774246628L95.42814666666666,119.47498531002773L95.43107666666667,119.47499030461827L95.74263333333333,119.47499360104806L96.02196,119.47499577669169L96.18799333333334,119.47499721261653L96.78864333333334,119.47499816032689L96.91561,119.47499878581574L97.17247333333333,119.47499919863839L98.44214,119.47499947110137L99.15608333333333,119.47499965092692L99.41392333333334,119.47499976961178L99.55456333333333,119.47499984794379L99.60046666666666,119.4749998996429L99.71473666666667,119.4749999337643L99.82803,119.47499995628448L99.83486666666667,119.47499997114775L100.11321666666667,119.4749999809575L100.79981333333333,119.47499998743194L101.02835333333333,119.47499999170509L101.09965000000001,119.4749999945254L101.65342000000001,119.47499999638674L101.71983333333334,119.47499999761523L101.79503666666666,119.47499999842603L101.80871,119.47499999896118L101.8468,119.47499999931438L101.87805333333333,119.47499999954749L102.45624,119.47499999970131L102.82542,119.47499999980286L102.88011333333333,119.47499999986991L102.94750333333333,119.4749999999141L103.01098666666667,119.47499999994328L103.23073666666666,119.47499999996252L103.24636333333333,119.47499999997522L103.38700333333333,119.47499999998365L103.41239666666667,119.47499999998918L103.44853333333333,119.47499999999283L103.82259666666667,119.47499999999528L103.84115333333332,119.47499999999685L103.94077333333333,119.47499999999792L104.19861333333333,119.47499999999862L104.30897666666667,119.47499999999911L105.52199666666667,119.8511249999994L105.55520333333334,120.0993674999996L105.63236,120.26320754999972L106.04060666666666,120.37134198299981L106.52405666666667,120.44271070877984L107.15596,120.4898140677947L107.34348,120.52090228474455L107.82009333333333,120.54142050793142L107.89822666666666,120.55496253523478L108.22931666666666,120.56390027325499L108.25959333333334,120.56979918034833L108.40316333333334,120.57369245902987L108.72351,120.57626202295972L109.47163666666665,120.57795793515338L109.55465333333333,120.57907723720128L109.69431666666667,120.57981597655287L110.07033333333332,120.58030354452487L110.12600333333333,120.58062533938643L110.33696333333333,120.58083772399502L110.49616,120.58097789783668L110.79697333333334,120.58107041257219L111.32144333333332,120.58113147229764L111.45915333333333,120.58117177171644L111.97874,120.58119836933287L111.99436666666666,120.58121592375973L112.36745333333333,120.58122750968145L112.59013333333333,120.58123515638977L112.65068666666667,120.58124020321725L112.84797333333334,120.5812435341234L113.68497666666666,120.58124573252144L113.88616999999999,120.58124718346414L114.20261,120.58124814108639L114.22507333333334,120.58124877311701L114.30808999999999,120.58124919025721L114.31102,120.58124946556975L114.68703666666667,120.58124964727605L115.28182666666666,120.58124976720224L115.33945,120.58124984635349L115.66956333333333,120.58124989859331L115.7643,120.58124993307158L116.00651333333333,120.58124995582725L116.42648,120.58124997084597L117.04666333333333,120.58124998075836L117.28887666666667,120.58124998730052L117.55550666666666,120.58124999161832L117.81334666666667,120.58124999446805L117.86804000000001,120.58124999634889L117.89929333333333,120.58124999759025L117.96863666666667,120.58124999840956L118.42669333333335,120.95737499895033L118.44915666666665,121.2056174993072L118.77048,121.36945754954274L118.99902,121.47759198269821L119.06250333333332,121.17283570858085L119.67389666666666,120.97169656766336L119.85946333333332,120.8389447346578L120.03526333333333,120.75132852487414L120.23059666666667,121.06962682641694L120.30873,121.27970370543518L120.41616333333333,121.04222944558725L120.63689,120.8854964340876L120.89277666666666,120.78205264649783L121.46022,120.71377974668857L121.90069666666666,120.6687196328145L122.00617666666668,120.63897995765757L122.26987666666668,120.61935177205399L122.93596333333333,120.6063971695556L122.95842666666667,120.59784713190668L123.22115,120.5922041070584L123.27877333333333,120.58847971065852L123.35690666666667,120.58602160903465L123.43015666666666,120.58439926196286L123.58837666666666,120.58332851289548L123.68702,120.582621818511L123.84719333333334,120.58215540021726L124.26129999999999,120.58184756414336L124.28083333333333,120.58164439233462L124.83362666666667,120.58151029894086L124.86488,120.58142179730095L125.00552,120.58136338621861L125.19597,120.5813248349043L125.22624666666667,120.58129939103682L125.27996333333333,120.5812825980843L125.31414666666666,120.58127151473565L125.32391333333332,120.58126419972552L125.51436333333334,120.58125937181885L125.81810666666667,120.5812561854004L126.23807333333333,120.58125408236431L126.55939666666667,120.58125269436047L126.61604333333334,120.58125177827795L127.16493,120.9573761736634L127.17958,121.20561827461782L127.19227666666667,121.36945806124776L127.35733333333333,121.47759232042348L127.69037666666667,121.17283593147951L127.86227,120.97169671477644L128.0224433333333,120.83894483175247L128.03611666666666,120.75132858895661L128.44827,120.69350186871134L128.50394,120.65533623334949L128.62407,120.63014691401067L128.79596333333333,120.61352196324708L128.89363,120.60254949574309L129.32043333333334,120.59530766719044L130.03730666666667,120.96665306034569L130.76883,121.21174101982811L131.40952333333334,121.37349907308658L131.4105,121.48025938823716L131.46714666666668,121.5507211962365L131.66248,121.22110098951615L131.97599,121.00355165308065L132.33638,120.85996909103326L132.36861,120.76520460008199L132.55808333333334,120.70266003605408L132.72216333333333,120.6613806237957L132.77588,120.63413621170517L132.86964,120.61615489972546L133.31597666666667,120.60428723381884L133.44196666666667,120.5964545743204L133.80821666666665,120.5912850190515L134.02015333333333,120.58787311257402L134.75167666666667,120.58562125429881L134.78976666666668,120.58413502783719L134.98412333333332,120.58315411837253L135.39432333333332,120.58250671812587L135.65509333333333,120.58207943396307L135.80354666666665,120.58179742641562L136.03697,120.58161130143431L136.34169,120.58148845894668L136.50479333333334,120.20528238290481L137.12693,119.95698637271715L137.52736333333334,119.79311100599332L137.53908333333334,119.6849532639556L137.78032,119.6135691542107L137.89068333333333,119.56645564177907L138.04792666666665,119.53536072357414L138.66713333333334,119.51483807755895L138.70424666666668,119.50129313118896L138.77456666666666,119.49235346658469L138.81265666666667,119.48645328794586L139.00213,119.48255917004423L139.03240666666667,119.47998905222921L139.13788666666667,119.47829277447133L139.60668666666666,119.47717323115104L139.79225333333335,119.47643433255969L139.90554666666665,119.47594665948938L140.14873666666665,119.47562479526299L140.59898,119.47541236487353L140.84998333333334,119.47527216081653L140.93788333333333,119.47517962613892L141.23479,119.47511855325166L141.39887000000002,119.47507824514608L141.89599333333334,119.47505164179643L143.08069,119.47503408358564L143.08166666666668,119.47502249516651L143.21742333333333,119.4750148468099L143.24672333333334,119.47500979889449L143.28676666666667,119.47500646727033L143.70868666666667,119.47500426839841L144.07005333333333,119.47500281714298L144.47732333333335,119.47500185931436L144.48904333333334,119.47500122714746L144.59159333333335,119.47500080991736L144.91291666666666,119.47500053454546L145.44129333333333,119.0988753528L145.46473333333333,118.85063273284797L145.49696333333333,118.68679260367963L146.01557333333332,118.57865811842852L146.56543666666667,118.5072893581628L146.6220833333333,118.46018597638749L146.84183333333334,118.4290977444157L147.08307000000002,118.40857951131437L148.44747333333333,118.39503747746747L148.68968666666666,118.38609973512851L148.74145000000001,118.3802008251848L148.84790666666666,118.376307544622L149.15751,118.37373797945052L149.28252333333336,118.3720420664373L149.37530666666666,118.37092276384863L149.51985333333334,118.37018402414004L149.55110666666667,118.36969645593241L149.61068333333336,118.36937466091541L149.83922333333334,118.36916227620418L150.02674333333334,118.36902210229475L150.12831666666665,118.36892958751451L150.56195666666667,118.36886852775957L150.84909666666667,118.36882822832135L151.01708333333332,118.36880163069205L151.10303,118.36878407625676L151.12256333333332,118.36877249032949L151.19679,118.36876484361746L151.23878666666667,118.36875979678754L151.60992000000002,118.36875646587974L151.75251333333333,118.36875426748063L152.36976666666666,117.99262781653721L152.58756333333332,117.74438435891452L153.15012333333334,117.5805436768836L153.32397,117.47240882674312L153.37671,117.40103982565047L153.51539666666667,117.35393628492932L154.29673,117.32284794805335L154.53113000000002,117.30232964571522L154.81436333333335,117.28878756617203L154.92375,117.27984979367356L155.45310333333333,117.27395086382454L155.59667333333334,117.27005757012421L155.9570633333333,117.26748799628193L155.96976,117.2657920775461L156.05277666666666,117.2646727711804L156.44637333333333,117.26393402897902L156.5499,117.26344645912613L157.16715333333335,117.26312466302325L157.41815666666668,117.26291227759535L157.74729333333335,117.26277210321297L157.89281666666668,117.26267958812052L158.20046666666667,117.26261852815958L158.20535,117.26257822858533L158.22,117.26255163086635L158.5423,117.26253407637182L158.5735533333333,117.26252249040539L159.07165333333333,117.2625148436675L159.09020999999998,117.26250979682055L159.19080666666667,116.8863814659016L159.46329666666665,117.01426176749504L160.41359333333332,116.72253776654671L160.72514999999999,116.52999992592085L160.86676666666668,116.40292495110776L160.91169333333335,116.31905546773109L161.42542,116.2637016087025L161.46448666666666,116.22716806174364L161.49378666666667,116.20305592075081L161.50355333333331,116.18714190769552L161.57778,116.17663865907906L161.61098666666666,116.16970651499221L161.72623333333334,116.16513129989482L162.18233666666669,116.16211165793061L162.41576,116.16011869423423L162.64332333333334,116.15880333819459L163.2596,116.15793520320845L163.29476000000003,116.15736223411758L163.59459666666666,116.1569840745176L163.59557333333333,116.15673448918159L163.88759666666667,116.15656976285983L164.13664666666665,116.15646104348751L164.27435666666665,116.1563892887018L164.56149666666667,116.15634193054316L164.71385666666666,116.15631067415853L164.93751333333333,116.15629004494463L165.15335666666667,116.15627642966345L165.27641666666668,116.15626744357786L165.57723000000001,116.1562615127614L165.63485333333333,116.15625759842251L165.75107666666668,116.15625501495884L165.87218333333334,116.15625330987285L167.02758,116.1562521845161L167.10571333333334,116.15625144178065L167.6145566666667,115.78012595157524L167.98959666666667,115.53188312803965L168.76604666666668,115.36804286450618L169.44776,115.25990829057409L169.54445,115.18853947177891L169.67727666666667,115.14143605137406L169.79643,115.11034779390691L169.85307666666668,115.0898295439786L169.92046666666667,115.07628749902585L169.92437333333334,115.06734974935705L170.02301666666668,115.06145083457562L170.10701,115.05755755081992L170.67152333333334,115.05498798354114L170.9069,115.05329206913713L171.10516333333334,115.05217276563053L171.15497333333334,115.05143402531615L171.22236333333333,115.05094645670864L171.75953,115.05062466142772L171.95681666666667,115.05041227654232L172.05936666666668,115.05027210251792L172.23418999999998,115.05017958766186L172.24786333333336,115.05011852785685L172.28302333333332,115.05007822838556L172.32306666666665,115.05005163073449L172.41487333333333,115.05003407628479L172.46273,115.05002249034797L172.63853,115.05001484362965L172.7235,115.05000979679559L172.74107999999998,115.05000646588508L172.87293,115.05000426748416L173.68063333333333,115.05000281653956L173.91796333333332,115.05000185891612L174.68953000000002,115.05000122688462L174.7549666666667,115.05000080974386L174.81454333333335,115.05000053443095L175.63201333333333,114.67387535272442L175.77167666666668,114.4256327327981L176.2844266666667,114.26179260364674L176.67021,114.15365811840682L176.80303666666666,114.08228935814853L176.81768666666665,114.03518597637799L177.37829333333332,114.00409774440948L177.45935666666668,113.98357951131021L177.71329,113.97003747746477L177.88323,113.96109973512675L177.95452666666665,113.95520082518368L178.09712000000002,113.95130754462123L178.11567666666667,113.94873797945003L178.18013666666667,113.94704206643699L178.33738,113.94592276384843L178.42625666666666,113.94518402413999L178.47313666666668,113.94469645593242L178.66163333333333,113.9443746609154L178.84329333333332,113.9441622762042L178.95854,113.94402210229475L179.06988,113.94392958751452L179.99087666666665,113.94386852775958L180.14616666666666,113.94382822832134L180.40498333333335,113.9438016306921L180.51632333333333,113.9437840762568L180.76732666666666,113.94377249032948L181.1804566666667,113.94376484361746L181.22929000000002,113.94375979678753L181.39727666666667,113.9437564658798L181.43341333333333,113.9437542674807L181.67464999999999,113.94375281653723L182.11512666666664,113.94375185891455L182.14247333333333,113.94375122688362L182.31534333333335,113.94375080974316L182.88767,113.9437505344305L182.91013333333333,113.94375035272412L183.07519,113.94375023279795L183.07616666666667,113.94375015364665L183.13769666666664,113.94375010140675L183.5059,113.94375006692843L183.57524333333333,113.94375004417276L183.70709333333335,113.94375002915402L184.03818333333334,113.94375001924165L184.20226333333332,113.94375001269948L184.84686333333332,113.94375000838167L185.49732333333333,113.94375000553188L185.68972666666664,113.94375000365105L185.72879333333336,113.94375000240967L186.3187,113.5676250015904L186.44957333333332,113.31938250104966L186.64783666666668,113.15554245069276L186.84024,113.04740801745723L187.13421666666667,112.97603929152174L187.15668,112.92893593240433L187.3442,112.89784771538689L187.69287,112.87732949215535L187.76807333333335,112.86378746482251L187.96536,112.85484972678286L188.04837666666666,112.84895081967669L188.20659666666668,112.84505754098659L188.44881,112.84248797705116L188.83264000000003,112.84079206485379L188.97230333333331,112.8396727628035L189.17642666666666,112.83893402345029L189.33269333333334,112.83844645547721L189.49970333333331,112.83812466061495L189.65304,112.83791227600585L190.08863333333335,112.8377721021639L190.31424333333334,112.83767958742818L190.6258,112.8376185277026L190.71370000000002,112.83757822828373L190.93345,112.83755163066726L191.23328666666666,112.8375340762404L191.93355666666668,112.83752249031866L192.33203666666668,112.8375148436103L192.37012666666666,112.83750979678275L192.37989333333334,112.8375064658766L192.92878000000002,112.83750426747856L193.10946333333334,112.83750281653586L193.65249,112.83750185891367L193.77066666666667,112.83750122688305L193.84977666666666,112.83750080974279L193.96795333333333,112.83750053443025L194.22286333333332,112.83750035272395L194.40745333333334,112.83750023279784L195.06084333333334,112.83750015364657L195.28840666666665,112.83750010140675L195.74060333333333,112.83750006692843L195.79920333333334,112.83750004417274L195.8998,112.83750002915401L196.00235,112.83750001924165L196.17131333333336,112.46137501269945L196.68894666666665,112.21313250838163L196.88623333333334,112.04929245553186L196.90088333333335,111.94115802065107L197.17923333333334,111.86978929362971L197.66952,111.82268593379561L198.25552000000002,111.79159771630509L198.34537333333336,111.77107949276136L198.46843333333334,111.75753746522251L198.75069,111.74859972704685L199.20874666666668,111.74270081985094L199.21460666666667,111.73880754110166L199.24781333333334,111.73623797712713L199.73126333333335,111.7345420649039L200.03500666666665,111.73342276283658L200.20397,111.7326840234721L200.48329666666666,111.7321964554916L200.82415333333336,111.73187466062451L200.85345333333333,111.73166227601214L201.10641,111.73152210216799L201.54102666666665,111.7314295874309L201.54493333333332,111.73136852770442L201.59865000000002,111.73132822828494L201.75394,111.73130163066803L201.88481333333334,111.7312840762409L201.94536666666667,111.73127249031904L202.11433000000002,111.73126484361053L202.55480666666668,111.73125979678301L202.9601233333333,111.73125646587678L203.28535333333335,111.73125426747868L203.33809333333332,111.73125281653591L203.39181,111.73125185891374L203.39669333333333,111.73125122688305L203.66527666666664,111.73125080974279L203.71117999999998,111.73125053443025L203.71313333333333,111.731250352724L203.92116333333334,111.73125023279789L204.03055,111.73125015364664L204.34601333333333,111.73125010140681L204.56869333333333,111.73125006692855L205.15078666666665,111.73125004417281L205.45648333333335,111.73125002915408L206.00048666666666,111.7312500192417L206.38138666666666,111.73125001269953L206.60309,111.73125000838168L206.61578666666665,111.73125000553195L206.82088666666667,111.73125000365111L206.90097333333335,111.73125000240974L207.04845,111.73125000159044L207.07579666666666,111.73125000104972L207.27991999999998,111.73125000069285L207.38637666666668,111.73125000045728L207.44107,111.73125000030184L207.48990333333333,111.73125000019921L207.93917000000002,111.7312500001315L208.01144333333332,111.73125000008677L208.27416666666667,111.73125000005729L208.31909333333334,111.73125000003786L208.39820333333333,111.73125000002503L208.69706333333335,111.73125000001654L209.53211333333334,111.3551250000109L209.55262333333334,111.10688250000719L209.55946,110.94304245000475L209.58192333333335,110.83490801700309L209.62099,110.76353929122205L210.01361,110.71643593220656L210.21773333333334,110.68534771525633L210.61328333333333,110.66482949206922L210.7148566666667,110.65128746476573L212.44648666666666,110.6423497267454L213.5384,110.63645081965191L213.70736333333335,110.63255754097024L213.92809,110.62998797704034L214.64496333333332,110.62829206484662L214.79634666666666,110.62717276279878L215.1245066666667,110.6264340234472L215.44192333333334,110.62594645547513L215.45657333333335,110.62562466061357L215.55716999999999,110.62541227600498L215.66753333333332,110.62527210216332L215.77105999999998,110.62517958742781L216.62759666666668,110.62511852770234L216.85223000000002,110.62507822828354L216.90106333333335,110.62505163066714L217.12472,110.62503407624027L217.24485,110.62502249031854L218.01348666666667,110.62501484361029L218.29281333333333,110.62500979678276L218.49693666666664,110.6250064658766L218.92764666666667,110.62500426747856L218.93155333333334,110.62500281653585L219.32612666666665,110.62500185891366L219.35347333333334,110.62500122688304L219.71972333333332,110.62500080974279L219.72265333333334,110.62500053443026L220.09671666666665,110.625000352724L220.25591333333332,110.62500023279789L220.30963,110.62500015364664L220.93665,110.62500010140681L221.41814666666667,110.62500006692848L221.79318666666668,110.62500004417282L221.92503666666667,110.62500002915408L222.33816666666667,110.62500001924171L222.45439,110.62500001269954L222.69953333333333,110.62500000838168L222.94956000000002,110.62500000553194L223.20544666666666,110.62500000365111L224.08346999999998,110.62500000240973L224.69193333333334,110.62500000159044L224.84722333333332,110.6250000010497L225.21933333333334,110.62500000069285L225.35509,110.62500000045729L225.48889333333332,110.62500000030184L226.01727,110.62500000019921L226.43528333333336,110.24887500013152L226.93533666666667,110.00063250008681L227.48129333333333,109.83679245005726L227.67857999999998,109.7286580170378L227.75085333333334,109.65728929124494L228.19035333333332,109.61018593222165L228.2763,109.57909771526627L228.28899666666666,109.55857949207575L228.59371666666667,109.54503746477L228.77537666666666,109.53609972674815L228.80858333333333,109.5302008196538L229.24222333333333,109.5263075409715L229.30375333333333,109.52373797704124L229.79404,109.52204206484726L229.80478333333332,109.52092276279922L230.00304666666668,109.52018402344746L230.11633999999998,109.51969645547533L230.38980666666666,109.51937466061369L230.71796666666665,109.51916227600503L230.78340333333333,109.51902210216332L231.02854666666667,109.5189295874278L231.3235,109.51886852770235L231.47293,109.51882822828355L232.31286333333333,109.51880163066714L232.84319333333332,109.51878407624028L232.91839666666667,109.51877249031854L233.59327333333334,109.51876484361023L233.80618666666666,109.51875979678276L233.84036999999998,109.51875646587659L234.31893666666667,109.51875426747856L234.37949,109.51875281653585L234.43320666666668,109.51875185891367L235.02213666666665,109.51875122688304L235.63060000000002,109.5187508097428L235.69896666666668,109.51875053443025L235.72728999999998,109.51875035272401L236.64926333333335,109.51875023279788L237.09462333333335,109.51875015364664L237.19619666666665,109.51875010140681L237.33781333333334,109.51875006692849L237.49993999999998,109.51875004417282L237.84470333333334,109.51875002915408L237.86716666666666,109.51875001924171L238.01366666666667,109.51875001269948L238.87215666666665,109.51875000838169L239.10851,109.51875000553194L239.21008333333333,109.5187500036511L239.37807,109.51875000240975L239.44741333333334,109.51875000159043L239.73553,109.51875000104964L239.84198666666668,109.51875000069272L240.28734666666668,109.51875000045716L240.40064,109.51875000030171L240.82353666666666,109.51875000019909L240.8850666666667,109.51875000013143L241.25815333333333,109.51875000008678L241.4857166666667,109.51875000005728L241.57947666666666,109.5187500000378L242.37545999999998,109.51875000002491L242.50340333333335,109.51875000001647L243.03764,109.51875000001088L243.19683666666666,109.51875000000717L243.42830666666666,109.51875000000472L243.5523433333333,109.51875000000315L244.06118666666666,109.51875000000207L244.23112666666668,109.51875000000138L244.31512,109.51875000000088L244.34246666666667,109.51875000000057L244.66574333333332,109.51875000000038L245.68440666666666,109.51875000000025L245.78012,109.51875000000013L245.79183999999998,109.51875000000013L245.88755333333333,109.51875000000013L246.02428666666668,109.51875000000013L246.19422666666665,109.51875000000013L246.82124666666667,109.51875000000013L246.90817,109.51875000000013L247.19726333333332,109.1426250000001L247.36232,108.89438250000002L247.36427333333333,108.73054245000004L247.56351333333336,108.62240801700001L247.9659,108.55103929122004L247.96883,108.50393593220524L248.06161333333333,108.47284771525545L248.32336,108.45232949206859L248.37219333333334,108.43878746476523L248.65640333333332,108.429849726745L248.80680999999998,108.42395081965167L248.93280000000001,108.42005754097012L248.94842666666668,108.41748797704028L249.13594666666668,108.41579206484663L249.28830666666667,108.41467276279872L249.58716666666666,108.41393402344714L249.71218000000002,108.41344645547514L249.90165333333334,108.41312466061356L250.34896666666668,108.41291227600497L250.93496666666667,108.41277210216333L251.36177,108.4126795874278L251.47311,108.41261852770235L251.49069,108.41257822828355L251.72802000000001,108.41255163066714L252.17435666666665,108.41253407624028L252.73887,108.41252249031854L252.74082333333334,108.41251484361023L252.75351999999998,108.41250979678276L252.89709,108.41250646587659L253.06996,108.41250426747855L253.1949733333333,108.41250281653585L253.24869,108.41250185891361L253.40691,108.41250122688298L253.46844,108.4125008097428L253.70381666666665,108.41250053443025L253.8805933333333,108.41250035272401L254.15210666666667,108.41250023279783L254.29079333333334,108.41250015364652L254.44315333333333,108.41250010140669L254.53496,108.41250006692843L254.95102,108.41250004417276L255.39247333333333,108.41250002915402L255.78021,108.41250001924165L255.93061666666665,108.41250001269948L256.09469666666666,108.41250000838168L256.2324066666667,108.41250000553194L256.58400666666665,108.41250000365112L256.62502666666666,108.41250000240974L257.2090733333333,108.41250000159044L257.4610533333333,108.41250000104964L257.76382,108.41250000069272L257.94157333333334,108.41250000045716L257.95817666666665,108.4125000003017L258.46995,108.41250000019909L258.58910333333336,108.41250000013143L258.82155,108.41250000008678L259.05790333333334,108.41250000005722L259.20831,108.41250000003772L259.5198666666667,108.4125000000249L260.0189433333333,108.41250000001648L260.22990333333337,108.41250000001088L260.61178,108.41250000000717L260.70749333333333,108.41250000000471L260.77293,108.41250000000315L261.1323433333333,108.41250000000207L261.38920666666667,108.41250000000139L261.40288,108.41250000000088L262.60418,108.41250000000056L262.70282333333336,108.41250000000038L262.97629,108.41250000000025L263.69121,108.41250000000012L263.69218666666666,108.41250000000007L263.90217,108.4125L264.6971766666667,108.03637500000004L265.02533666666665,107.78813250000002L265.04096333333337,107.62429245000004L265.75100000000003,107.51615801700002L265.89359333333334,107.44478929122003L266.44834,107.77381093220521L266.5723766666666,107.99096521525543L266.6007,108.13428704206854L266.6309766666667,108.22887944776527L267.21502333333336,108.2913104355251L267.2169766666667,108.33251488744655L267.3546866666667,108.35970982571473L267.44160999999997,108.3776584849717L267.72191333333336,108.38950460008134L267.86743666666666,108.3973230360537L267.94459333333333,108.40248320379541L268.56673,108.40588891450501L268.5833333333333,108.40813668357335" style="fill: none;" fill="none"></path></g></g></g></g><g opacity="0.2"><g><g><g><path stroke="rgb(0, 119, 187)" stroke-width="2px" d="M25.706843333333335,-5.53125L26.0184,33.1875L26.069186666666667,38.71875L26.118996666666668,42.037499999999994L26.412973333333333,50.8875L26.54970666666667,54.20625L26.969673333333333,81.8625L27.04976,87.39375L27.144496666666665,90.7125L27.338853333333333,94.03125L27.886763333333334,111.73125L27.944386666666666,113.94375L28.932773333333333,131.64375L29.01383666666667,132.75L29.10369,133.85625L29.120293333333333,133.85625L29.571513333333332,138.28125L29.730710000000002,140.49375L29.936786666666666,140.49375L30.305966666666666,146.025L30.48567333333333,142.70625L30.566736666666667,140.49375L30.771836666666665,136.06875L31.259193333333332,126.11250000000001L31.270913333333333,126.11250000000001L31.410576666666667,123.9L31.519963333333333,121.6875L31.704553333333337,119.475L32.00536666666667,115.05000000000001L32.33255,109.51875L32.366733333333336,108.4125L32.594296666666665,105.09375L32.70563666666667,103.9875L32.74568,103.9875L33.016216666666665,99.5625L33.38735,92.925L33.443020000000004,91.81875L33.76043666666666,85.18124999999999L33.96358333333333,81.8625L34.04757666666667,80.75625000000001L34.18821666666667,78.54375L34.87286,66.375L34.95099333333334,64.16250000000001L35.36705333333333,65.26875L35.42663,64.16250000000001L35.47937,63.05624999999999L35.97942333333333,55.3125L36.01263,55.3125L36.40622666666666,48.67500000000001L36.59667666666667,46.462500000000006L36.71973666666667,46.462500000000006L37.29304,49.78125L37.446376666666666,50.8875L37.472746666666666,50.8875L38.67697666666667,59.7375L39.04225,63.05624999999999L39.150659999999995,65.26875L39.242466666666665,66.375L39.828466666666664,74.11874999999999L40.112676666666665,77.4375L40.45646333333333,82.96875L41.18017333333333,88.5L41.384296666666664,89.60625L41.41457333333334,89.60625L41.62944,90.7125L41.85016666666667,91.81875L43.79178,99.5625L43.89823666666667,100.66875L43.98711333333333,100.66875L44.244953333333335,101.775L44.3016,101.775L44.31039,101.775L44.48814333333333,101.775L44.5653,102.88125L44.77626,102.88125L44.81435,102.88125L45.01066,103.9875L45.01358999999999,103.9875L45.08488666666667,103.9875L45.30463666666667,103.9875L45.36714333333334,103.9875L45.53806,105.09375L46.05471666666667,106.2L46.44245333333333,107.30625L46.52547,107.30625L46.552816666666665,107.30625L47.314616666666666,107.30625L47.45916333333333,107.30625L47.53241333333333,107.30625L47.59687333333333,107.30625L47.834203333333335,107.30625L47.86448,107.30625L48.30007333333334,108.4125L48.43192333333334,108.4125L48.43387666666666,108.4125L48.47099,108.4125L48.76301333333333,108.4125L48.86654,108.4125L49.06871,108.4125L49.38026666666667,108.4125L49.51504666666666,109.51875L49.92622333333333,110.625L49.960406666666664,110.625L50.88824,110.625L50.88921666666666,110.625L51.57972,111.73125L51.67543333333334,111.73125L52.5935,111.73125L53.01053666666667,110.625L53.03593,110.625L53.10039,110.625L53.23614666666667,110.625L53.2967,110.625L53.84949333333333,110.625L54.021386666666665,111.73125L54.046780000000005,111.73125L54.18644333333334,110.625L54.47553666666666,110.625L54.61422333333333,110.625L54.70603,110.625L54.71970333333333,110.625L55.389696666666666,111.73125L55.42583333333334,111.73125L55.85263666666667,111.73125L55.90733,111.73125L56.394686666666665,111.73125L56.61150666666666,111.73125L56.714056666666664,111.73125L56.842976666666665,111.73125L56.85079,111.73125L56.979710000000004,111.73125L57.12328,112.8375L57.31275333333334,111.73125L57.34010000000001,111.73125L57.66630666666667,112.8375L57.67802666666667,112.8375L57.713186666666665,112.8375L57.76592666666667,112.8375L57.80206333333333,112.8375L57.8382,112.8375L57.958330000000004,112.8375L58.27672333333334,112.8375L58.43592,113.94375L58.50819333333334,116.15625L59.24557666666667,117.26249999999999L59.371566666666666,117.26249999999999L59.8306,116.15625L59.912639999999996,116.15625L60.49082666666666,117.26249999999999L60.52012666666667,117.26249999999999L60.70667,118.36875L61.05045666666667,118.36875L61.330760000000005,118.36875L61.59934333333333,118.36875L61.708729999999996,118.36875L62.27422,117.26249999999999L62.53303666666667,117.26249999999999L62.650236666666665,117.26249999999999L62.78794666666667,118.36875L63.095596666666665,118.36875L63.49212333333334,118.36875L63.694293333333334,118.36875L63.802703333333326,118.36875L64.07226333333332,118.36875L64.27150333333333,118.36875L64.48637000000001,118.36875L64.55766666666666,118.36875L64.79890333333333,118.36875L65.02451333333333,118.36875L65.28626,118.36875L65.86737666666666,118.36875L66.17600333333334,118.36875L66.19358333333334,118.36875L67.21908333333333,118.36875L67.33726,118.36875L67.40758,118.36875L67.49938666666667,118.36875L67.683,118.36875L67.76113333333333,118.36875L67.88517,118.36875L67.89200666666666,118.36875L67.93498000000001,118.36875L67.98674333333334,118.36875L68.48679666666666,119.475L68.63134333333333,119.475L69.02982333333334,119.475L69.16167333333333,119.475L69.30915,119.475L69.95375,119.475L69.96937666666666,119.475L70.04653333333334,119.475L70.91381333333334,119.475L71.24295000000001,119.475L71.30838666666666,119.475L71.34647666666666,119.475L71.56720333333334,119.475L71.67072999999999,119.475L71.77328,119.475L72.10632333333334,119.475L72.83882333333334,119.475L72.91598,119.475L73.03904,119.475L73.55569666666666,119.475L73.60453,119.475L73.71098666666666,119.475L73.74028666666668,119.475L74.34972666666667,119.475L74.50599333333334,119.475L74.65737666666666,119.475L74.74820666666668,119.475L75.30588333333334,119.475L75.78835666666667,119.475L76.16925666666667,118.36875L76.38803,119.475L76.42026,119.475L76.56969000000001,119.475L76.58434,119.475L76.93691666666666,119.475L77.16936333333332,118.36875L77.18010666666666,119.475L77.32172333333334,119.475L77.36469666666667,119.475L77.57663333333333,119.475L78.24467333333332,118.36875L78.37164,119.475L78.72519333333334,118.36875L78.96350000000001,118.36875L79.18129666666667,118.36875L79.73897333333333,119.475L79.91868,119.475L80.00365000000001,119.475L80.17847333333333,119.475L80.21070333333333,119.475L80.68438666666667,119.475L80.85921,119.475L81.79290333333333,119.475L82.06539333333333,119.475L82.09176333333333,119.475L82.10836666666667,119.475L82.59767666666667,119.475L82.64358,119.475L82.76175666666667,119.475L82.96490333333334,119.475L83.49132666666667,119.475L83.49718666666668,119.475L83.51867333333334,119.475L83.60657333333334,119.475L83.78042,119.475L84.49338666666667,119.475L84.56272999999999,119.475L84.95730333333333,119.475L85.40559333333333,118.36875L85.80407333333332,118.36875L86.74753333333332,118.36875L86.90184666666666,118.36875L87.09132,118.36875L87.73201333333334,118.36875L88.09142666666666,118.36875L88.48502333333334,118.36875L88.78681333333333,118.36875L88.82783333333333,118.36875L89.22436,118.36875L89.94514,119.475L90.12973,119.475L90.17367999999999,119.475L90.58290333333333,119.475L91.40428,119.475L91.49901666666668,119.475L91.70607,119.475L92.27351333333334,119.475L92.28718666666667,119.475L92.55088666666667,119.475L92.80872666666667,119.475L92.88588333333334,119.475L93.00015333333333,119.475L93.53439,119.475L93.64963666666667,119.475L93.72386333333333,119.475L94.05593,119.475L94.47785,119.475L94.60091,119.475L94.94469666666667,119.475L94.99450666666667,119.475L95.01599333333333,119.475L95.04822333333334,119.475L95.07263999999999,119.475L95.32657333333333,119.475L95.32852666666666,119.475L95.42814666666666,119.475L95.43107666666667,119.475L95.74263333333333,119.475L96.02196,119.475L96.18799333333334,119.475L96.78864333333334,119.475L96.91561,119.475L97.17247333333333,119.475L98.44214,119.475L99.15608333333333,119.475L99.41392333333334,119.475L99.55456333333333,119.475L99.60046666666666,119.475L99.71473666666667,119.475L99.82803,119.475L99.83486666666667,119.475L100.11321666666667,119.475L100.79981333333333,119.475L101.02835333333333,119.475L101.09965000000001,119.475L101.65342000000001,119.475L101.71983333333334,119.475L101.79503666666666,119.475L101.80871,119.475L101.8468,119.475L101.87805333333333,119.475L102.45624,119.475L102.82542,119.475L102.88011333333333,119.475L102.94750333333333,119.475L103.01098666666667,119.475L103.23073666666666,119.475L103.24636333333333,119.475L103.38700333333333,119.475L103.41239666666667,119.475L103.44853333333333,119.475L103.82259666666667,119.475L103.84115333333332,119.475L103.94077333333333,119.475L104.19861333333333,119.475L104.30897666666667,119.475L105.52199666666667,120.58125000000001L105.55520333333334,120.58125000000001L105.63236,120.58125000000001L106.04060666666666,120.58125000000001L106.52405666666667,120.58125000000001L107.15596,120.58125000000001L107.34348,120.58125000000001L107.82009333333333,120.58125000000001L107.89822666666666,120.58125000000001L108.22931666666666,120.58125000000001L108.25959333333334,120.58125000000001L108.40316333333334,120.58125000000001L108.72351,120.58125000000001L109.47163666666665,120.58125000000001L109.55465333333333,120.58125000000001L109.69431666666667,120.58125000000001L110.07033333333332,120.58125000000001L110.12600333333333,120.58125000000001L110.33696333333333,120.58125000000001L110.49616,120.58125000000001L110.79697333333334,120.58125000000001L111.32144333333332,120.58125000000001L111.45915333333333,120.58125000000001L111.97874,120.58125000000001L111.99436666666666,120.58125000000001L112.36745333333333,120.58125000000001L112.59013333333333,120.58125000000001L112.65068666666667,120.58125000000001L112.84797333333334,120.58125000000001L113.68497666666666,120.58125000000001L113.88616999999999,120.58125000000001L114.20261,120.58125000000001L114.22507333333334,120.58125000000001L114.30808999999999,120.58125000000001L114.31102,120.58125000000001L114.68703666666667,120.58125000000001L115.28182666666666,120.58125000000001L115.33945,120.58125000000001L115.66956333333333,120.58125000000001L115.7643,120.58125000000001L116.00651333333333,120.58125000000001L116.42648,120.58125000000001L117.04666333333333,120.58125000000001L117.28887666666667,120.58125000000001L117.55550666666666,120.58125000000001L117.81334666666667,120.58125000000001L117.86804000000001,120.58125000000001L117.89929333333333,120.58125000000001L117.96863666666667,120.58125000000001L118.42669333333335,121.6875L118.44915666666665,121.6875L118.77048,121.6875L118.99902,121.6875L119.06250333333332,120.58125000000001L119.67389666666666,120.58125000000001L119.85946333333332,120.58125000000001L120.03526333333333,120.58125000000001L120.23059666666667,121.6875L120.30873,121.6875L120.41616333333333,120.58125000000001L120.63689,120.58125000000001L120.89277666666666,120.58125000000001L121.46022,120.58125000000001L121.90069666666666,120.58125000000001L122.00617666666668,120.58125000000001L122.26987666666668,120.58125000000001L122.93596333333333,120.58125000000001L122.95842666666667,120.58125000000001L123.22115,120.58125000000001L123.27877333333333,120.58125000000001L123.35690666666667,120.58125000000001L123.43015666666666,120.58125000000001L123.58837666666666,120.58125000000001L123.68702,120.58125000000001L123.84719333333334,120.58125000000001L124.26129999999999,120.58125000000001L124.28083333333333,120.58125000000001L124.83362666666667,120.58125000000001L124.86488,120.58125000000001L125.00552,120.58125000000001L125.19597,120.58125000000001L125.22624666666667,120.58125000000001L125.27996333333333,120.58125000000001L125.31414666666666,120.58125000000001L125.32391333333332,120.58125000000001L125.51436333333334,120.58125000000001L125.81810666666667,120.58125000000001L126.23807333333333,120.58125000000001L126.55939666666667,120.58125000000001L126.61604333333334,120.58125000000001L127.16493,121.6875L127.17958,121.6875L127.19227666666667,121.6875L127.35733333333333,121.6875L127.69037666666667,120.58125000000001L127.86227,120.58125000000001L128.0224433333333,120.58125000000001L128.03611666666666,120.58125000000001L128.44827,120.58125000000001L128.50394,120.58125000000001L128.62407,120.58125000000001L128.79596333333333,120.58125000000001L128.89363,120.58125000000001L129.32043333333334,120.58125000000001L130.03730666666667,121.6875L130.76883,121.6875L131.40952333333334,121.6875L131.4105,121.6875L131.46714666666668,121.6875L131.66248,120.58125000000001L131.97599,120.58125000000001L132.33638,120.58125000000001L132.36861,120.58125000000001L132.55808333333334,120.58125000000001L132.72216333333333,120.58125000000001L132.77588,120.58125000000001L132.86964,120.58125000000001L133.31597666666667,120.58125000000001L133.44196666666667,120.58125000000001L133.80821666666665,120.58125000000001L134.02015333333333,120.58125000000001L134.75167666666667,120.58125000000001L134.78976666666668,120.58125000000001L134.98412333333332,120.58125000000001L135.39432333333332,120.58125000000001L135.65509333333333,120.58125000000001L135.80354666666665,120.58125000000001L136.03697,120.58125000000001L136.34169,120.58125000000001L136.50479333333334,119.475L137.12693,119.475L137.52736333333334,119.475L137.53908333333334,119.475L137.78032,119.475L137.89068333333333,119.475L138.04792666666665,119.475L138.66713333333334,119.475L138.70424666666668,119.475L138.77456666666666,119.475L138.81265666666667,119.475L139.00213,119.475L139.03240666666667,119.475L139.13788666666667,119.475L139.60668666666666,119.475L139.79225333333335,119.475L139.90554666666665,119.475L140.14873666666665,119.475L140.59898,119.475L140.84998333333334,119.475L140.93788333333333,119.475L141.23479,119.475L141.39887000000002,119.475L141.89599333333334,119.475L143.08069,119.475L143.08166666666668,119.475L143.21742333333333,119.475L143.24672333333334,119.475L143.28676666666667,119.475L143.70868666666667,119.475L144.07005333333333,119.475L144.47732333333335,119.475L144.48904333333334,119.475L144.59159333333335,119.475L144.91291666666666,119.475L145.44129333333333,118.36875L145.46473333333333,118.36875L145.49696333333333,118.36875L146.01557333333332,118.36875L146.56543666666667,118.36875L146.6220833333333,118.36875L146.84183333333334,118.36875L147.08307000000002,118.36875L148.44747333333333,118.36875L148.68968666666666,118.36875L148.74145000000001,118.36875L148.84790666666666,118.36875L149.15751,118.36875L149.28252333333336,118.36875L149.37530666666666,118.36875L149.51985333333334,118.36875L149.55110666666667,118.36875L149.61068333333336,118.36875L149.83922333333334,118.36875L150.02674333333334,118.36875L150.12831666666665,118.36875L150.56195666666667,118.36875L150.84909666666667,118.36875L151.01708333333332,118.36875L151.10303,118.36875L151.12256333333332,118.36875L151.19679,118.36875L151.23878666666667,118.36875L151.60992000000002,118.36875L151.75251333333333,118.36875L152.36976666666666,117.26249999999999L152.58756333333332,117.26249999999999L153.15012333333334,117.26249999999999L153.32397,117.26249999999999L153.37671,117.26249999999999L153.51539666666667,117.26249999999999L154.29673,117.26249999999999L154.53113000000002,117.26249999999999L154.81436333333335,117.26249999999999L154.92375,117.26249999999999L155.45310333333333,117.26249999999999L155.59667333333334,117.26249999999999L155.9570633333333,117.26249999999999L155.96976,117.26249999999999L156.05277666666666,117.26249999999999L156.44637333333333,117.26249999999999L156.5499,117.26249999999999L157.16715333333335,117.26249999999999L157.41815666666668,117.26249999999999L157.74729333333335,117.26249999999999L157.89281666666668,117.26249999999999L158.20046666666667,117.26249999999999L158.20535,117.26249999999999L158.22,117.26249999999999L158.5423,117.26249999999999L158.5735533333333,117.26249999999999L159.07165333333333,117.26249999999999L159.09020999999998,117.26249999999999L159.19080666666667,116.15625L159.46329666666665,117.26249999999999L160.41359333333332,116.15625L160.72514999999999,116.15625L160.86676666666668,116.15625L160.91169333333335,116.15625L161.42542,116.15625L161.46448666666666,116.15625L161.49378666666667,116.15625L161.50355333333331,116.15625L161.57778,116.15625L161.61098666666666,116.15625L161.72623333333334,116.15625L162.18233666666669,116.15625L162.41576,116.15625L162.64332333333334,116.15625L163.2596,116.15625L163.29476000000003,116.15625L163.59459666666666,116.15625L163.59557333333333,116.15625L163.88759666666667,116.15625L164.13664666666665,116.15625L164.27435666666665,116.15625L164.56149666666667,116.15625L164.71385666666666,116.15625L164.93751333333333,116.15625L165.15335666666667,116.15625L165.27641666666668,116.15625L165.57723000000001,116.15625L165.63485333333333,116.15625L165.75107666666668,116.15625L165.87218333333334,116.15625L167.02758,116.15625L167.10571333333334,116.15625L167.6145566666667,115.05000000000001L167.98959666666667,115.05000000000001L168.76604666666668,115.05000000000001L169.44776,115.05000000000001L169.54445,115.05000000000001L169.67727666666667,115.05000000000001L169.79643,115.05000000000001L169.85307666666668,115.05000000000001L169.92046666666667,115.05000000000001L169.92437333333334,115.05000000000001L170.02301666666668,115.05000000000001L170.10701,115.05000000000001L170.67152333333334,115.05000000000001L170.9069,115.05000000000001L171.10516333333334,115.05000000000001L171.15497333333334,115.05000000000001L171.22236333333333,115.05000000000001L171.75953,115.05000000000001L171.95681666666667,115.05000000000001L172.05936666666668,115.05000000000001L172.23418999999998,115.05000000000001L172.24786333333336,115.05000000000001L172.28302333333332,115.05000000000001L172.32306666666665,115.05000000000001L172.41487333333333,115.05000000000001L172.46273,115.05000000000001L172.63853,115.05000000000001L172.7235,115.05000000000001L172.74107999999998,115.05000000000001L172.87293,115.05000000000001L173.68063333333333,115.05000000000001L173.91796333333332,115.05000000000001L174.68953000000002,115.05000000000001L174.7549666666667,115.05000000000001L174.81454333333335,115.05000000000001L175.63201333333333,113.94375L175.77167666666668,113.94375L176.2844266666667,113.94375L176.67021,113.94375L176.80303666666666,113.94375L176.81768666666665,113.94375L177.37829333333332,113.94375L177.45935666666668,113.94375L177.71329,113.94375L177.88323,113.94375L177.95452666666665,113.94375L178.09712000000002,113.94375L178.11567666666667,113.94375L178.18013666666667,113.94375L178.33738,113.94375L178.42625666666666,113.94375L178.47313666666668,113.94375L178.66163333333333,113.94375L178.84329333333332,113.94375L178.95854,113.94375L179.06988,113.94375L179.99087666666665,113.94375L180.14616666666666,113.94375L180.40498333333335,113.94375L180.51632333333333,113.94375L180.76732666666666,113.94375L181.1804566666667,113.94375L181.22929000000002,113.94375L181.39727666666667,113.94375L181.43341333333333,113.94375L181.67464999999999,113.94375L182.11512666666664,113.94375L182.14247333333333,113.94375L182.31534333333335,113.94375L182.88767,113.94375L182.91013333333333,113.94375L183.07519,113.94375L183.07616666666667,113.94375L183.13769666666664,113.94375L183.5059,113.94375L183.57524333333333,113.94375L183.70709333333335,113.94375L184.03818333333334,113.94375L184.20226333333332,113.94375L184.84686333333332,113.94375L185.49732333333333,113.94375L185.68972666666664,113.94375L185.72879333333336,113.94375L186.3187,112.8375L186.44957333333332,112.8375L186.64783666666668,112.8375L186.84024,112.8375L187.13421666666667,112.8375L187.15668,112.8375L187.3442,112.8375L187.69287,112.8375L187.76807333333335,112.8375L187.96536,112.8375L188.04837666666666,112.8375L188.20659666666668,112.8375L188.44881,112.8375L188.83264000000003,112.8375L188.97230333333331,112.8375L189.17642666666666,112.8375L189.33269333333334,112.8375L189.49970333333331,112.8375L189.65304,112.8375L190.08863333333335,112.8375L190.31424333333334,112.8375L190.6258,112.8375L190.71370000000002,112.8375L190.93345,112.8375L191.23328666666666,112.8375L191.93355666666668,112.8375L192.33203666666668,112.8375L192.37012666666666,112.8375L192.37989333333334,112.8375L192.92878000000002,112.8375L193.10946333333334,112.8375L193.65249,112.8375L193.77066666666667,112.8375L193.84977666666666,112.8375L193.96795333333333,112.8375L194.22286333333332,112.8375L194.40745333333334,112.8375L195.06084333333334,112.8375L195.28840666666665,112.8375L195.74060333333333,112.8375L195.79920333333334,112.8375L195.8998,112.8375L196.00235,112.8375L196.17131333333336,111.73125L196.68894666666665,111.73125L196.88623333333334,111.73125L196.90088333333335,111.73125L197.17923333333334,111.73125L197.66952,111.73125L198.25552000000002,111.73125L198.34537333333336,111.73125L198.46843333333334,111.73125L198.75069,111.73125L199.20874666666668,111.73125L199.21460666666667,111.73125L199.24781333333334,111.73125L199.73126333333335,111.73125L200.03500666666665,111.73125L200.20397,111.73125L200.48329666666666,111.73125L200.82415333333336,111.73125L200.85345333333333,111.73125L201.10641,111.73125L201.54102666666665,111.73125L201.54493333333332,111.73125L201.59865000000002,111.73125L201.75394,111.73125L201.88481333333334,111.73125L201.94536666666667,111.73125L202.11433000000002,111.73125L202.55480666666668,111.73125L202.9601233333333,111.73125L203.28535333333335,111.73125L203.33809333333332,111.73125L203.39181,111.73125L203.39669333333333,111.73125L203.66527666666664,111.73125L203.71117999999998,111.73125L203.71313333333333,111.73125L203.92116333333334,111.73125L204.03055,111.73125L204.34601333333333,111.73125L204.56869333333333,111.73125L205.15078666666665,111.73125L205.45648333333335,111.73125L206.00048666666666,111.73125L206.38138666666666,111.73125L206.60309,111.73125L206.61578666666665,111.73125L206.82088666666667,111.73125L206.90097333333335,111.73125L207.04845,111.73125L207.07579666666666,111.73125L207.27991999999998,111.73125L207.38637666666668,111.73125L207.44107,111.73125L207.48990333333333,111.73125L207.93917000000002,111.73125L208.01144333333332,111.73125L208.27416666666667,111.73125L208.31909333333334,111.73125L208.39820333333333,111.73125L208.69706333333335,111.73125L209.53211333333334,110.625L209.55262333333334,110.625L209.55946,110.625L209.58192333333335,110.625L209.62099,110.625L210.01361,110.625L210.21773333333334,110.625L210.61328333333333,110.625L210.7148566666667,110.625L212.44648666666666,110.625L213.5384,110.625L213.70736333333335,110.625L213.92809,110.625L214.64496333333332,110.625L214.79634666666666,110.625L215.1245066666667,110.625L215.44192333333334,110.625L215.45657333333335,110.625L215.55716999999999,110.625L215.66753333333332,110.625L215.77105999999998,110.625L216.62759666666668,110.625L216.85223000000002,110.625L216.90106333333335,110.625L217.12472,110.625L217.24485,110.625L218.01348666666667,110.625L218.29281333333333,110.625L218.49693666666664,110.625L218.92764666666667,110.625L218.93155333333334,110.625L219.32612666666665,110.625L219.35347333333334,110.625L219.71972333333332,110.625L219.72265333333334,110.625L220.09671666666665,110.625L220.25591333333332,110.625L220.30963,110.625L220.93665,110.625L221.41814666666667,110.625L221.79318666666668,110.625L221.92503666666667,110.625L222.33816666666667,110.625L222.45439,110.625L222.69953333333333,110.625L222.94956000000002,110.625L223.20544666666666,110.625L224.08346999999998,110.625L224.69193333333334,110.625L224.84722333333332,110.625L225.21933333333334,110.625L225.35509,110.625L225.48889333333332,110.625L226.01727,110.625L226.43528333333336,109.51875L226.93533666666667,109.51875L227.48129333333333,109.51875L227.67857999999998,109.51875L227.75085333333334,109.51875L228.19035333333332,109.51875L228.2763,109.51875L228.28899666666666,109.51875L228.59371666666667,109.51875L228.77537666666666,109.51875L228.80858333333333,109.51875L229.24222333333333,109.51875L229.30375333333333,109.51875L229.79404,109.51875L229.80478333333332,109.51875L230.00304666666668,109.51875L230.11633999999998,109.51875L230.38980666666666,109.51875L230.71796666666665,109.51875L230.78340333333333,109.51875L231.02854666666667,109.51875L231.3235,109.51875L231.47293,109.51875L232.31286333333333,109.51875L232.84319333333332,109.51875L232.91839666666667,109.51875L233.59327333333334,109.51875L233.80618666666666,109.51875L233.84036999999998,109.51875L234.31893666666667,109.51875L234.37949,109.51875L234.43320666666668,109.51875L235.02213666666665,109.51875L235.63060000000002,109.51875L235.69896666666668,109.51875L235.72728999999998,109.51875L236.64926333333335,109.51875L237.09462333333335,109.51875L237.19619666666665,109.51875L237.33781333333334,109.51875L237.49993999999998,109.51875L237.84470333333334,109.51875L237.86716666666666,109.51875L238.01366666666667,109.51875L238.87215666666665,109.51875L239.10851,109.51875L239.21008333333333,109.51875L239.37807,109.51875L239.44741333333334,109.51875L239.73553,109.51875L239.84198666666668,109.51875L240.28734666666668,109.51875L240.40064,109.51875L240.82353666666666,109.51875L240.8850666666667,109.51875L241.25815333333333,109.51875L241.4857166666667,109.51875L241.57947666666666,109.51875L242.37545999999998,109.51875L242.50340333333335,109.51875L243.03764,109.51875L243.19683666666666,109.51875L243.42830666666666,109.51875L243.5523433333333,109.51875L244.06118666666666,109.51875L244.23112666666668,109.51875L244.31512,109.51875L244.34246666666667,109.51875L244.66574333333332,109.51875L245.68440666666666,109.51875L245.78012,109.51875L245.79183999999998,109.51875L245.88755333333333,109.51875L246.02428666666668,109.51875L246.19422666666665,109.51875L246.82124666666667,109.51875L246.90817,109.51875L247.19726333333332,108.4125L247.36232,108.4125L247.36427333333333,108.4125L247.56351333333336,108.4125L247.9659,108.4125L247.96883,108.4125L248.06161333333333,108.4125L248.32336,108.4125L248.37219333333334,108.4125L248.65640333333332,108.4125L248.80680999999998,108.4125L248.93280000000001,108.4125L248.94842666666668,108.4125L249.13594666666668,108.4125L249.28830666666667,108.4125L249.58716666666666,108.4125L249.71218000000002,108.4125L249.90165333333334,108.4125L250.34896666666668,108.4125L250.93496666666667,108.4125L251.36177,108.4125L251.47311,108.4125L251.49069,108.4125L251.72802000000001,108.4125L252.17435666666665,108.4125L252.73887,108.4125L252.74082333333334,108.4125L252.75351999999998,108.4125L252.89709,108.4125L253.06996,108.4125L253.1949733333333,108.4125L253.24869,108.4125L253.40691,108.4125L253.46844,108.4125L253.70381666666665,108.4125L253.8805933333333,108.4125L254.15210666666667,108.4125L254.29079333333334,108.4125L254.44315333333333,108.4125L254.53496,108.4125L254.95102,108.4125L255.39247333333333,108.4125L255.78021,108.4125L255.93061666666665,108.4125L256.09469666666666,108.4125L256.2324066666667,108.4125L256.58400666666665,108.4125L256.62502666666666,108.4125L257.2090733333333,108.4125L257.4610533333333,108.4125L257.76382,108.4125L257.94157333333334,108.4125L257.95817666666665,108.4125L258.46995,108.4125L258.58910333333336,108.4125L258.82155,108.4125L259.05790333333334,108.4125L259.20831,108.4125L259.5198666666667,108.4125L260.0189433333333,108.4125L260.22990333333337,108.4125L260.61178,108.4125L260.70749333333333,108.4125L260.77293,108.4125L261.1323433333333,108.4125L261.38920666666667,108.4125L261.40288,108.4125L262.60418,108.4125L262.70282333333336,108.4125L262.97629,108.4125L263.69121,108.4125L263.69218666666666,108.4125L263.90217,108.4125L264.6971766666667,107.30625L265.02533666666665,107.30625L265.04096333333337,107.30625L265.75100000000003,107.30625L265.89359333333334,107.30625L266.44834,108.4125L266.5723766666666,108.4125L266.6007,108.4125L266.6309766666667,108.4125L267.21502333333336,108.4125L267.2169766666667,108.4125L267.3546866666667,108.4125L267.44160999999997,108.4125L267.72191333333336,108.4125L267.86743666666666,108.4125L267.94459333333333,108.4125L268.56673,108.4125L268.5833333333333,108.4125" style="fill: none;" fill="none"></path></g></g></g></g></g></g><g transform="translate(37, 177)" clip-path="url(#clip_1)"><clipPath id="clip_1"><rect width="293" height="23"></rect></clipPath><g><g><line x1="0" y1="0" x2="0" y2="5" style="visibility: inherit;" fill="rgb(0, 0, 0)" stroke="rgb(204, 204, 204)" stroke-width="1px"></line><line x1="24.416666666666664" y1="0" x2="24.416666666666664" y2="5" style="visibility: inherit;" fill="rgb(0, 0, 0)" stroke="rgb(204, 204, 204)" stroke-width="1px"></line><line x1="48.83333333333333" y1="0" x2="48.83333333333333" y2="5" style="visibility: inherit;" fill="rgb(0, 0, 0)" stroke="rgb(204, 204, 204)" stroke-width="1px"></line><line x1="73.25" y1="0" x2="73.25" y2="5" style="visibility: inherit;" fill="rgb(0, 0, 0)" stroke="rgb(204, 204, 204)" stroke-width="1px"></line><line x1="97.66666666666666" y1="0" x2="97.66666666666666" y2="5" style="visibility: inherit;" fill="rgb(0, 0, 0)" stroke="rgb(204, 204, 204)" stroke-width="1px"></line><line x1="122.08333333333334" y1="0" x2="122.08333333333334" y2="5" style="visibility: inherit;" fill="rgb(0, 0, 0)" stroke="rgb(204, 204, 204)" stroke-width="1px"></line><line x1="146.5" y1="0" x2="146.5" y2="5" style="visibility: inherit;" fill="rgb(0, 0, 0)" stroke="rgb(204, 204, 204)" stroke-width="1px"></line><line x1="170.91666666666669" y1="0" x2="170.91666666666669" y2="5" style="visibility: inherit;" fill="rgb(0, 0, 0)" stroke="rgb(204, 204, 204)" stroke-width="1px"></line><line x1="195.33333333333331" y1="0" x2="195.33333333333331" y2="5" style="visibility: inherit;" fill="rgb(0, 0, 0)" stroke="rgb(204, 204, 204)" stroke-width="1px"></line><line x1="219.75" y1="0" x2="219.75" y2="5" style="visibility: inherit;" fill="rgb(0, 0, 0)" stroke="rgb(204, 204, 204)" stroke-width="1px"></line><line x1="244.16666666666669" y1="0" x2="244.16666666666669" y2="5" style="visibility: inherit;" fill="rgb(0, 0, 0)" stroke="rgb(204, 204, 204)" stroke-width="1px"></line><line x1="268.5833333333333" y1="0" x2="268.5833333333333" y2="5" style="visibility: inherit;" fill="rgb(0, 0, 0)" stroke="rgb(204, 204, 204)" stroke-width="1px"></line><line x1="293" y1="0" x2="293" y2="5" style="visibility: inherit;" fill="rgb(0, 0, 0)" stroke="rgb(204, 204, 204)" stroke-width="1px"></line></g><g transform="translate(0, 8)"><text x="0" y="0" dx="0em" dy="0.95em" style="text-anchor: middle; visibility: hidden; font-family: &quot;Helvetica Neue&quot;, sans-serif; font-size: 12px; font-weight: 200;" fill="rgb(50, 49, 63)" stroke="none" stroke-width="1px">-100k</text><text x="24.416666666666664" y="0" dx="0em" dy="0.95em" style="text-anchor: middle; visibility: inherit; font-family: &quot;Helvetica Neue&quot;, sans-serif; font-size: 12px; font-weight: 200;" fill="rgb(50, 49, 63)" stroke="none" stroke-width="1px">0</text><text x="48.83333333333333" y="0" dx="0em" dy="0.95em" style="text-anchor: middle; visibility: hidden; font-family: &quot;Helvetica Neue&quot;, sans-serif; font-size: 12px; font-weight: 200;" fill="rgb(50, 49, 63)" stroke="none" stroke-width="1px">100k</text><text x="73.25" y="0" dx="0em" dy="0.95em" style="text-anchor: middle; visibility: inherit; font-family: &quot;Helvetica Neue&quot;, sans-serif; font-size: 12px; font-weight: 200;" fill="rgb(50, 49, 63)" stroke="none" stroke-width="1px">200k</text><text x="97.66666666666666" y="0" dx="0em" dy="0.95em" style="text-anchor: middle; visibility: hidden; font-family: &quot;Helvetica Neue&quot;, sans-serif; font-size: 12px; font-weight: 200;" fill="rgb(50, 49, 63)" stroke="none" stroke-width="1px">300k</text><text x="122.08333333333334" y="0" dx="0em" dy="0.95em" style="text-anchor: middle; visibility: inherit; font-family: &quot;Helvetica Neue&quot;, sans-serif; font-size: 12px; font-weight: 200;" fill="rgb(50, 49, 63)" stroke="none" stroke-width="1px">400k</text><text x="146.5" y="0" dx="0em" dy="0.95em" style="text-anchor: middle; visibility: hidden; font-family: &quot;Helvetica Neue&quot;, sans-serif; font-size: 12px; font-weight: 200;" fill="rgb(50, 49, 63)" stroke="none" stroke-width="1px">500k</text><text x="170.91666666666669" y="0" dx="0em" dy="0.95em" style="text-anchor: middle; visibility: inherit; font-family: &quot;Helvetica Neue&quot;, sans-serif; font-size: 12px; font-weight: 200;" fill="rgb(50, 49, 63)" stroke="none" stroke-width="1px">600k</text><text x="195.33333333333331" y="0" dx="0em" dy="0.95em" style="text-anchor: middle; visibility: hidden; font-family: &quot;Helvetica Neue&quot;, sans-serif; font-size: 12px; font-weight: 200;" fill="rgb(50, 49, 63)" stroke="none" stroke-width="1px">700k</text><text x="219.75" y="0" dx="0em" dy="0.95em" style="text-anchor: middle; visibility: inherit; font-family: &quot;Helvetica Neue&quot;, sans-serif; font-size: 12px; font-weight: 200;" fill="rgb(50, 49, 63)" stroke="none" stroke-width="1px">800k</text><text x="244.16666666666669" y="0" dx="0em" dy="0.95em" style="text-anchor: middle; visibility: hidden; font-family: &quot;Helvetica Neue&quot;, sans-serif; font-size: 12px; font-weight: 200;" fill="rgb(50, 49, 63)" stroke="none" stroke-width="1px">900k</text><text x="268.5833333333333" y="0" dx="0em" dy="0.95em" style="text-anchor: middle; visibility: inherit; font-family: &quot;Helvetica Neue&quot;, sans-serif; font-size: 12px; font-weight: 200;" fill="rgb(50, 49, 63)" stroke="none" stroke-width="1px">1M</text><text x="293" y="0" dx="0em" dy="0.95em" style="text-anchor: middle; visibility: hidden; font-family: &quot;Helvetica Neue&quot;, sans-serif; font-size: 12px; font-weight: 200;" fill="rgb(50, 49, 63)" stroke="none" stroke-width="1px">1.1M</text></g><line x1="0" y1="0" x2="293" y2="0" fill="rgb(0, 0, 0)" stroke="rgb(204, 204, 204)" stroke-width="1px"></line></g></g></g></g></svg>