<svg viewBox="0 0 330 200" xmlns="http://www.w3.org/2000/svg"><g><g><g><g><g><line x1="46" y1="177" x2="41" y2="177" style="visibility: inherit;" fill="rgb(0, 0, 0)" stroke="rgb(204, 204, 204)" stroke-width="1px"></line><line x1="46" y1="162.25" x2="41" y2="162.25" style="visibility: inherit;" fill="rgb(0, 0, 0)" stroke="rgb(204, 204, 204)" stroke-width="1px"></line><line x1="46" y1="147.5" x2="41" y2="147.5" style="visibility: inherit;" fill="rgb(0, 0, 0)" stroke="rgb(204, 204, 204)" stroke-width="1px"></line><line x1="46" y1="132.75" x2="41" y2="132.75" style="visibility: inherit;" fill="rgb(0, 0, 0)" stroke="rgb(204, 204, 204)" stroke-width="1px"></line><line x1="46" y1="118" x2="41" y2="118" style="visibility: inherit;" fill="rgb(0, 0, 0)" stroke="rgb(204, 204, 204)" stroke-width="1px"></line><line x1="46" y1="103.25" x2="41" y2="103.25" style="visibility: inherit;" fill="rgb(0, 0, 0)" stroke="rgb(204, 204, 204)" stroke-width="1px"></line><line x1="46" y1="88.5" x2="41" y2="88.5" style="visibility: inherit;" fill="rgb(0, 0, 0)" stroke="rgb(204, 204, 204)" stroke-width="1px"></line><line x1="46" y1="73.75" x2="41" y2="73.75" style="visibility: inherit;" fill="rgb(0, 0, 0)" stroke="rgb(204, 204, 204)" stroke-width="1px"></line><line x1="46" y1="58.999999999999986" x2="41" y2="58.999999999999986" style="visibility: inherit;" fill="rgb(0, 0, 0)" stroke="rgb(204, 204, 204)" stroke-width="1px"></line><line x1="46" y1="44.25" x2="41" y2="44.25" style="visibility: inherit;" fill="rgb(0, 0, 0)" stroke="rgb(204, 204, 204)" stroke-width="1px"></line><line x1="46" y1="29.5" x2="41" y2="29.5" style="visibility: inherit;" fill="rgb(0, 0, 0)" stroke="rgb(204, 204, 204)" stroke-width="1px"></line><line x1="46" y1="14.75" x2="41" y2="14.75" style="visibility: inherit;" fill="rgb(0, 0, 0)" stroke="rgb(204, 204, 204)" stroke-width="1px"></line><line x1="46" y1="0" x2="41" y2="0" style="visibility: inherit;" fill="rgb(0, 0, 0)" stroke="rgb(204, 204, 204)" stroke-width="1px"></line></g><g transform="translate(36, 0)"><text x="0" y="177" dx="0em" dy="0.3em" style="text-anchor: end; visibility: hidden; font-family: &quot;Helvetica Neue&quot;, sans-serif; font-size: 12px; font-weight: 200;" fill="rgb(50, 49, 63)" stroke="none" stroke-width="1px">-1.2</text><text x="0" y="162.25" dx="0em" dy="0.3em" style="text-anchor: end; visibility: inherit; font-family: &quot;Helvetica Neue&quot;, sans-serif; font-size: 12px; font-weight: 200;" fill="rgb(50, 49, 63)" stroke="none" stroke-width="1px">-1</text><text x="0" y="147.5" dx="0em" dy="0.3em" style="text-anchor: end; visibility: hidden; font-family: &quot;Helvetica Neue&quot;, sans-serif; font-size: 12px; font-weight: 200;" fill="rgb(50, 49, 63)" stroke="none" stroke-width="1px">-0.8</text><text x="0" y="132.75" dx="0em" dy="0.3em" style="text-anchor: end; visibility: inherit; font-family: &quot;Helvetica Neue&quot;, sans-serif; font-size: 12px; font-weight: 200;" fill="rgb(50, 49, 63)" stroke="none" stroke-width="1px">-0.6</text><text x="0" y="118" dx="0em" dy="0.3em" style="text-anchor: end; visibility: hidden; font-family: &quot;Helvetica Neue&quot;, sans-serif; font-size: 12px; font-weight: 200;" fill="rgb(50, 49, 63)" stroke="none" stroke-width="1px">-0.4</text><text x="0" y="103.25" dx="0em" dy="0.3em" style="text-anchor: end; visibility: inherit; font-family: &quot;Helvetica Neue&quot;, sans-serif; font-size: 12px; font-weight: 200;" fill="rgb(50, 49, 63)" stroke="none" stroke-width="1px">-0.2</text><text x="0" y="88.5" dx="0em" dy="0.3em" style="text-anchor: end; visibility: hidden; font-family: &quot;Helvetica Neue&quot;, sans-serif; font-size: 12px; font-weight: 200;" fill="rgb(50, 49, 63)" stroke="none" stroke-width="1px">0</text><text x="0" y="73.75" dx="0em" dy="0.3em" style="text-anchor: end; visibility: inherit; font-family: &quot;Helvetica Neue&quot;, sans-serif; font-size: 12px; font-weight: 200;" fill="rgb(50, 49, 63)" stroke="none" stroke-width="1px">0.2</text><text x="0" y="58.999999999999986" dx="0em" dy="0.3em" style="text-anchor: end; visibility: hidden; font-family: &quot;Helvetica Neue&quot;, sans-serif; font-size: 12px; font-weight: 200;" fill="rgb(50, 49, 63)" stroke="none" stroke-width="1px">0.4</text><text x="0" y="44.25" dx="0em" dy="0.3em" style="text-anchor: end; visibility: inherit; font-family: &quot;Helvetica Neue&quot;, sans-serif; font-size: 12px; font-weight: 200;" fill="rgb(50, 49, 63)" stroke="none" stroke-width="1px">0.6</text><text x="0" y="29.5" dx="0em" dy="0.3em" style="text-anchor: end; visibility: hidden; font-family: &quot;Helvetica Neue&quot;, sans-serif; font-size: 12px; font-weight: 200;" fill="rgb(50, 49, 63)" stroke="none" stroke-width="1px">0.8</text><text x="0" y="14.75" dx="0em" dy="0.3em" style="text-anchor: end; visibility: inherit; font-family: &quot;Helvetica Neue&quot;, sans-serif; font-size: 12px; font-weight: 200;" fill="rgb(50, 49, 63)" stroke="none" stroke-width="1px">1</text><text x="0" y="0" dx="0em" dy="0.3em" style="text-anchor: end; visibility: hidden; font-family: &quot;Helvetica Neue&quot;, sans-serif; font-size: 12px; font-weight: 200;" fill="rgb(50, 49, 63)" stroke="none" stroke-width="1px">1.2</text></g><line x1="46" y1="0" x2="46" y2="177" fill="rgb(0, 0, 0)" stroke="rgb(204, 204, 204)" stroke-width="1px"></line></g></g><g transform="translate(46, 0)" clip-path="url(#clip_0)"><clipPath id="clip_0"><rect width="284" height="177"></rect></clipPath><g><g><g><line x1="0" y1="0" x2="0" y2="177" fill="rgb(0, 0, 0)" stroke="rgb(60, 60, 60)" stroke-width="1px" opacity="0.25"></line><line x1="25.81818181818182" y1="0" x2="25.81818181818182" y2="177" fill="rgb(0, 0, 0)" stroke="rgb(60, 60, 60)" stroke-width="1px" opacity="0.25"></line><line x1="51.63636363636364" y1="0" x2="51.63636363636364" y2="177" fill="rgb(0, 0, 0)" stroke="rgb(60, 60, 60)" stroke-width="1px" opacity="0.25"></line><line x1="77.45454545454545" y1="0" x2="77.45454545454545" y2="177" fill="rgb(0, 0, 0)" stroke="rgb(60, 60, 60)" stroke-width="1px" opacity="0.25"></line><line x1="103.27272727272728" y1="0" x2="103.27272727272728" y2="177" fill="rgb(0, 0, 0)" stroke="rgb(60, 60, 60)" stroke-width="1px" opacity="0.25"></line><line x1="129.0909090909091" y1="0" x2="129.0909090909091" y2="177" fill="rgb(0, 0, 0)" stroke="rgb(60, 60, 60)" stroke-width="1px" opacity="0.25"></line><line x1="154.9090909090909" y1="0" x2="154.9090909090909" y2="177" fill="rgb(0, 0, 0)" stroke="rgb(60, 60, 60)" stroke-width="1px" opacity="0.25"></line><line x1="180.72727272727272" y1="0" x2="180.72727272727272" y2="177" fill="rgb(0, 0, 0)" stroke="rgb(60, 60, 60)" stroke-width="1px" opacity="0.25"></line><line x1="206.54545454545456" y1="0" x2="206.54545454545456" y2="177" fill="rgb(0, 0, 0)" stroke="rgb(60, 60, 60)" stroke-width="1px" opacity="0.25"></line><line x1="232.36363636363637" y1="0" x2="232.36363636363637" y2="177" fill="rgb(0, 0, 0)" stroke="rgb(60, 60, 60)" stroke-width="1px" opacity="0.25"></line><line x1="258.1818181818182" y1="0" x2="258.1818181818182" y2="177" fill="rgb(0, 0, 0)" stroke="rgb(60, 60, 60)" stroke-width="1px" opacity="0.25"></line><line x1="284" y1="0" x2="284" y2="177" fill="rgb(0, 0, 0)" stroke="rgb(60, 60, 60)" stroke-width="1px" opacity="0.25"></line></g><g><line x1="0" y1="177" x2="284" y2="177" fill="rgb(0, 0, 0)" stroke="rgb(60, 60, 60)" stroke-width="1px" opacity="0.25"></line><line x1="0" y1="162.25" x2="284" y2="162.25" fill="rgb(0, 0, 0)" stroke="rgb(60, 60, 60)" stroke-width="1px" opacity="0.25"></line><line x1="0" y1="147.5" x2="284" y2="147.5" fill="rgb(0, 0, 0)" stroke="rgb(60, 60, 60)" stroke-width="1px" opacity="0.25"></line><line x1="0" y1="132.75" x2="284" y2="132.75" fill="rgb(0, 0, 0)" stroke="rgb(60, 60, 60)" stroke-width="1px" opacity="0.25"></line><line x1="0" y1="118" x2="284" y2="118" fill="rgb(0, 0, 0)" stroke="rgb(60, 60, 60)" stroke-width="1px" opacity="0.25"></line><line x1="0" y1="103.25" x2="284" y2="103.25" fill="rgb(0, 0, 0)" stroke="rgb(60, 60, 60)" stroke-width="1px" opacity="0.25"></line><line x1="0" y1="88.5" x2="284" y2="88.5" fill="rgb(0, 0, 0)" stroke="rgb(60, 60, 60)" stroke-width="1px" opacity="0.25"></line><line x1="0" y1="73.75" x2="284" y2="73.75" fill="rgb(0, 0, 0)" stroke="rgb(60, 60, 60)" stroke-width="1px" opacity="0.25"></line><line x1="0" y1="58.999999999999986" x2="284" y2="58.999999999999986" fill="rgb(0, 0, 0)" stroke="rgb(60, 60, 60)" stroke-width="1px" opacity="0.25"></line><line x1="0" y1="44.25" x2="284" y2="44.25" fill="rgb(0, 0, 0)" stroke="rgb(60, 60, 60)" stroke-width="1px" opacity="0.25"></line><line x1="0" y1="29.5" x2="284" y2="29.5" fill="rgb(0, 0, 0)" stroke="rgb(60, 60, 60)" stroke-width="1px" opacity="0.25"></line><line x1="0" y1="14.75" x2="284" y2="14.75" fill="rgb(0, 0, 0)" stroke="rgb(60, 60, 60)" stroke-width="1px" opacity="0.25"></line><line x1="0" y1="0" x2="284" y2="0" fill="rgb(0, 0, 0)" stroke="rgb(60, 60, 60)" stroke-width="1px" opacity="0.25"></line></g></g></g><g><g><line x1="0" y1="88.5" x2="284" y2="88.5" fill="rgb(0, 0, 0)" stroke="rgb(153, 153, 153)" stroke-width="1.5px"></line></g></g><g><g><line x1="0" y1="0" x2="0" y2="177" fill="rgb(0, 0, 0)" stroke="rgb(153, 153, 153)" stroke-width="1.5px"></line></g></g><g><g><g><g><g><path stroke="rgb(0, 119, 187)" stroke-width="2px" d="M12.95453090909091,88.49262500018631L13.083621818181818,88.49262500018631L13.14765090909091,88.49262500018631L13.40066909090909,88.49262500018631L13.464698181818182,88.49262500018631L13.516334545454546,88.49262500018631L13.57933090909091,88.49262500018631L13.958341818181818,88.49262500018631L14.287781818181818,88.49262500018631L14.341483636363636,88.49262500018631L14.394152727272727,88.49262500018631L14.705003636363637,88.49262500018631L14.849585454545453,88.49262500018631L15.29365818181818,88.49262500018631L15.378341818181818,88.49262500018631L15.478516363636363,88.49262500018631L15.68402909090909,88.49262500018631L16.26338909090909,88.49262500018631L16.32432,88.49262500018631L17.36944,88.49262500018631L17.455156363636362,88.49262500018631L17.550167272727272,88.49262500018631L17.567723636363638,88.49262500018631L18.044843636363634,88.49262500018631L18.21317818181818,88.49262500018631L18.431083636363635,88.49262500018631L18.821454545454547,88.49262500018631L19.011476363636366,88.49262500018631L19.097192727272727,88.49262500018631L19.314065454545453,88.49262500018631L19.829396363636363,88.49262500018631L19.841789090909092,88.49262500018631L19.98946909090909,88.49262500018631L20.105134545454543,88.49262500018631L20.30032,88.49262500018631L20.6184,88.49262500018631L20.96436363636364,88.49262500018631L21.00050909090909,88.49262500018631L21.241134545454546,88.49262500018631L21.358865454545455,88.49262500018631L21.401207272727273,88.49262500018631L21.687272727272727,88.49262500018631L22.07970909090909,88.49262500018631L22.138574545454546,88.49262500018631L22.47421090909091,88.49262500018631L22.689018181818184,88.49262500018631L22.777832727272727,88.49262500018631L22.926545454545455,88.49262500018631L23.650487272727272,88.49262500018631L23.733105454545456,88.49262500018631L23.777512727272725,88.49262500018631L24.173047272727274,88.49262500018631L24.236043636363636,88.49262500018631L24.29181090909091,88.49262500018631L24.82056727272727,88.49262500018631L24.85568,88.49262500018631L25.271869090909092,88.49262500018631L25.27703272727273,88.49262500018631L25.47325090909091,88.49262500018631L25.603374545454546,88.49262500018631L26.209585454545454,88.49262500018631L26.371723636363633,88.49262500018631L26.399607272727273,88.49262500018631L27.67296,88.49262500018631L28.0592,88.49262500018631L28.17383272727273,88.49262500018631L28.270909090909093,88.49262500018631L28.890545454545453,88.49262500018631L29.19106909090909,88.49262500018631L29.55458909090909,88.49262500018631L30.31984,88.49262500018631L30.535680000000003,88.49262500018631L30.567694545454543,88.49262500018631L30.794894545454547,88.49262500018631L31.02829090909091,88.49262500018631L33.08135272727272,88.49262500018631L33.19392,88.49262500018631L33.28789818181818,88.49262500018631L33.56053818181818,88.49262500018631L33.620436363636365,88.49262500018631L33.62973090909091,88.49262500018631L33.81768727272727,88.49262500018631L33.89927272727273,88.49262500018631L34.122341818181816,88.49262500018631L34.16261818181818,88.49262500018631L34.37019636363637,88.49262500018631L34.37329454545455,88.49262500018631L34.44868363636364,88.49262500018631L34.68104727272727,88.49262500018631L34.74714181818182,88.49262500018631L34.92786909090909,88.49262500018631L35.47418181818182,88.49262500018631L35.88417454545455,88.49262500018631L35.971956363636366,88.49262500018631L36.00087272727273,88.49262500018631L36.8064,88.49262500018631L36.95924363636364,88.49262500018631L37.03669818181818,88.49262500018631L37.10485818181818,88.49262500018631L37.35581090909091,88.49262500018631L37.38782545454546,88.49262500018631L37.84842181818182,88.49262500018631L37.98784,88.49262500018631L37.98990545454546,88.49262500018631L38.029149090909094,88.49262500018631L38.337934545454544,88.49262500018631L38.44740363636364,88.49262500018631L38.66117818181818,88.49262500018631L38.990618181818185,88.49262500018631L39.133134545454546,88.49262500018631L39.56791272727273,88.49262500018631L39.60405818181818,88.49262500018631L39.68048,88.49262500018631L40.58514909090909,88.49262500018631L40.586181818181814,88.49262500018631L41.31632,88.49262500018631L41.41752727272727,88.49262500018631L42.388290909090905,88.49262500018631L42.82926545454546,88.49262500018631L42.85611636363637,88.49262500018631L42.924276363636366,88.49262500018631L43.06782545454545,88.49262500018631L43.131854545454544,88.49262500018631L43.346661818181815,88.49262500018631L43.71637818181818,88.49262500018631L43.89813818181818,88.49262500018631L43.924989090909094,88.49262500018631L44.07266909090909,88.49262500018631L44.37835636363636,88.49262500018631L44.525003636363635,88.49262500018631L44.622080000000004,88.49262500018631L44.63653818181818,88.49262500018631L45.344989090909095,88.49262500018631L45.3832,88.49262500018631L45.83450181818181,88.49262500018631L45.892334545454545,88.49262500018631L46.40766545454546,88.49262500018631L46.51816727272727,88.49262500018631L46.63693090909091,88.49262500018631L46.74536727272727,88.49262500018631L46.88168727272727,88.49262500018631L46.88994909090909,88.49262500018631L47.02626909090909,88.49262500018631L47.178079999999994,88.49262500018631L47.378429090909094,88.49262500018631L47.40734545454546,88.49262500018631L47.75227636363636,88.49262500018631L47.764669090909095,88.49262500018631L47.80184727272727,88.49262500018631L47.85761454545455,88.49262500018631L47.89582545454545,88.49262500018631L47.93403636363636,88.49262500018631L48.06106181818182,88.49262500018631L48.39773090909091,88.49262500018631L48.56606545454545,88.49262500018631L48.64248727272727,88.49262500018631L49.42219636363637,88.49262500018631L49.55541818181818,88.49262500018631L49.85284363636364,88.49262500018631L50.0408,88.49262500018631L50.12754909090909,88.49262500018631L50.73892363636364,88.49262500018631L50.76990545454545,88.49262500018631L50.96715636363637,88.49262500018631L51.33067636363636,88.49262500018631L51.627069090909096,88.49262500018631L51.911069090909095,88.49262500018631L52.02673454545455,88.49262500018631L52.624683636363635,88.49262500018631L52.89835636363637,88.49262500018631L53.02228363636364,88.49262500018631L53.16789818181818,88.49262500018631L53.49320727272727,88.49262500018631L53.91249454545454,88.49262500018631L54.1262690909091,88.49262500018631L54.24090181818182,88.49262500018631L54.52593454545454,88.49262500018631L54.73661090909091,88.49262500018631L54.90907636363636,88.49262500018631L54.96381090909091,88.49262500018631L55.0392,88.49262500018631L55.29428363636364,88.49262500018631L55.53284363636363,88.49262500018631L55.80961454545455,88.49262500018631L56.42408727272727,88.49262500018631L56.750429090909094,88.49262500018631L56.76901818181818,88.49262500018631L57.853381818181816,88.49262500018631L57.97834181818182,88.49262500018631L58.05269818181818,88.49262500018631L58.08471272727272,88.49262500018631L58.14977454545455,88.49262500018631L58.34392727272727,88.49262500018631L58.426545454545455,88.49262500018631L58.55770181818182,88.49262500018631L58.56493090909091,88.49262500018631L58.61037090909091,88.49262500018631L58.665105454545454,88.49262500018631L59.193861818181816,88.49262500018631L59.34670545454545,88.49262500018631L59.768058181818176,88.49262500018631L59.90747636363636,88.49262500018631L60.06341818181818,88.49262500018631L60.74501818181819,88.49262500018631L60.76154181818182,88.49262500018631L60.84312727272727,88.49262500018631L61.760189090909094,88.49262500018631L62.10821818181819,88.49262500018631L62.17741090909091,88.49262500018631L62.21768727272727,88.49262500018631L62.45108363636364,88.49262500018631L62.56055272727273,88.49262500018631L62.66898909090909,88.49262500018631L63.02114909090909,88.49262500018631L63.795694545454545,88.49262500018631L63.87728,88.49262500018631L64.00740363636363,88.49262500018631L64.55371636363637,88.49262500018631L64.60535272727273,88.49262500018631L64.71792,88.49262500018631L64.74890181818182,88.49262500018631L65.39332363636363,88.49262500018631L65.55856,88.49262500018631L65.71863272727273,88.49262500018631L65.81467636363637,88.49262500018631L66.40436363636364,88.49262500018631L66.61400727272728,88.49262500018631L66.91453090909091,88.49262500018631L66.97752727272727,88.49262500018631L67.31729454545454,88.49262500018631L67.54862545454546,88.49262500018631L67.58270545454545,88.49262500018631L67.74071272727272,88.49262500018631L67.75620363636364,88.49262500018631L68.12901818181818,88.49262500018631L68.37480727272727,88.49262500018631L68.38616727272728,88.49262500018631L68.53591272727273,88.49262500018631L68.58135272727273,88.49262500018631L68.80545454545455,88.49262500018631L69.51184,88.49262500018631L69.64609454545455,88.49262500018631L69.69256727272727,88.49262500018631L70.01994181818182,88.49262500018631L70.27192727272728,88.49262500018631L70.28018909090909,88.49262500018631L70.50222545454545,88.49262500018631L71.09191272727273,88.49262500018631L71.28193454545455,88.49262500018631L71.37178181818183,88.49262500018631L71.55664,88.49262500018631L71.59072,88.49262500018631L72.09159272727273,88.49262500018631L72.27645090909091,88.49262500018631L73.26373818181818,88.49262500018631L73.55186909090908,88.49262500018631L73.57975272727272,88.49262500018631L73.59730909090909,88.49262500018631L74.11470545454546,88.49262500018631L74.16324363636363,88.49262500018631L74.28820363636363,88.49262500018631L74.5030109090909,88.49262500018631L75.0596509090909,88.49262500018631L75.06584727272727,88.49262500018631L75.08856727272727,88.49262500018631L75.18151272727273,88.49262500018631L75.36533818181819,88.49262500018631L76.1192290909091,88.49262500018631L76.19255272727274,88.49262500018631L76.60977454545454,88.49262500018631L77.08379636363637,88.49262500018631L77.5051490909091,88.49262500018631L78.50276363636364,88.49262500018631L78.66593454545455,88.49262500018631L78.86628363636365,88.49262500018631L79.54375272727273,88.49262500018631L79.92379636363636,88.49262500018631L80.33998545454546,88.49262500018631L80.65909818181818,88.49262500018631L80.70247272727272,88.49262500018631L81.12176,88.49262500018631L81.88391272727272,88.49262500018631L82.07909818181818,88.49262500018631L82.12557090909091,88.49262500018631L82.55828363636363,88.49262500018631L83.42680727272727,88.49262500018631L83.52698181818182,88.49262500018631L83.74592,88.49262500018631L84.34593454545455,88.49262500018631L84.36039272727272,88.49262500018631L84.63922909090908,88.49262500018631L84.9118690909091,88.49262500018631L84.99345454545454,88.49262500018631L85.11428363636364,88.49262500018631L85.67918545454546,88.49262500018631L85.80104727272727,88.49262500018631L85.87953454545455,88.49262500018631L86.23066181818182,88.49262500018631L86.67680000000001,88.49262500018631L86.80692363636363,88.49262500018631L87.17044363636364,88.49262500018631L87.22311272727273,88.49262500018631L87.24583272727273,88.49262500018631L87.27991272727273,88.49262500018631L87.30573090909091,88.49262500018631L87.57424,88.49262500018631L87.57630545454545,88.49262500018631L87.68164363636363,88.49262500018631L87.68474181818182,88.49262500018631L87.84378181818182,88.49262500018631L88.01418181818183,88.49262500018631L88.30954181818181,88.49262500018631L88.48510545454546,88.49262500018631L89.12023272727272,88.49262500018631L89.25448727272727,88.49262500018631L89.52609454545454,88.49262500018631L90.86864,88.49262500018631L91.62356363636363,88.49262500018631L91.89620363636364,88.49262500018631L92.04491636363636,88.49262500018631L92.09345454545455,88.49262500018631L92.21428363636365,88.49262500018631L92.33408,88.49262500018631L92.34130909090909,88.49262500018631L92.63563636363637,88.49262500018631L93.36164363636364,88.49262500018631L93.6033018181818,88.49262500018631L93.6786909090909,88.49262500018631L94.26424727272727,88.49262500018631L94.33447272727274,88.49262500018631L94.41399272727273,88.49262500018631L94.4284509090909,88.49262500018631L94.46872727272726,88.49262500018631L94.50177454545454,88.49262500018631L95.11314909090909,88.49262500018631L95.50352000000001,88.49262500018631L95.56135272727273,88.49262500018631L95.63261090909091,88.49262500018631L95.69973818181819,88.49262500018631L95.93210181818182,88.49262500018631L95.94862545454545,88.49262500018631L96.09733818181819,88.49262500018631L96.1241890909091,88.49262500018631L96.1624,88.49262500018631L96.55793454545454,88.49262500018631L96.57755636363636,88.49262500018631L96.68289454545454,88.49262500018631L96.95553454545455,88.49262500018631L97.07223272727273,88.49262500018631L98.35488000000001,88.49262500018631L98.38999272727273,88.49262500018631L98.47157818181819,88.49262500018631L98.90325818181819,88.49262500018631L99.41445818181818,88.49262500018631L100.08263272727272,88.49262500018631L100.28091636363636,88.49262500018631L100.36869818181819,88.49262500018631L100.78488727272727,88.49262500018631L100.86750545454545,88.49262500018631L101.2176,88.49262500018631L101.24961454545455,88.49262500018631L101.28369454545454,88.49262500018631L101.40142545454545,88.49262500018631L101.74016,88.49262500018631L102.5312290909091,88.49262500018631L102.61901090909092,88.49262500018631L102.7666909090909,88.49262500018631L103.16429090909091,88.49262500018631L103.22315636363636,88.49262500018631L103.44622545454546,88.49262500018631L103.61456,88.49262500018631L103.93264,88.49262500018631L104.48721454545455,88.49262500018631L104.6328290909091,88.49262500018631L105.18224000000001,88.49262500018631L105.19876363636364,88.49262500018631L105.59326545454545,88.49262500018631L105.82872727272728,88.49262500018631L105.89275636363637,88.49262500018631L106.10136727272727,88.49262500018631L106.98641454545454,88.49262500018631L107.19915636363636,88.49262500018631L107.53375999999999,88.49262500018631L107.55751272727272,88.49262500018631L107.64529454545455,88.49262500018631L107.64839272727272,88.49262500018631L108.04599272727273,88.49262500018631L108.67492363636364,88.49262500018631L108.73585454545454,88.49262500018631L109.08491636363635,88.49262500018631L109.1850909090909,88.49262500018631L109.44120727272728,88.49262500018631L109.88528,88.49262500018631L110.54106181818182,88.49262500018631L110.79717818181818,88.49262500018631L111.07911272727272,88.49262500018631L111.35175272727272,88.49262500018631L111.40958545454545,88.49262500018631L111.44263272727272,88.49262500018631L111.51595636363636,88.49262500018631L112.00030545454545,88.49262500018631L112.02405818181818,88.49262500018631L112.36382545454546,88.49262500018631L112.60548363636363,88.49262500018631L112.6726109090909,88.49262500018631L113.31909818181818,88.49262500018631L113.51531636363636,88.49262500018631L113.70120727272727,88.49262500018631L113.90775272727272,88.49262500018631L113.9903709090909,88.49262500018631L114.1039709090909,88.49262500018631L114.33736727272728,88.49262500018631L114.5356509090909,88.49262500018631L114.60794181818181,88.49262500018631L114.65854545454545,88.49262500018631L115.20795636363636,88.49262500018631L115.67371636363637,88.49262500018631L115.78318545454546,88.49262500018631L115.78525090909092,88.49262500018631L116.06408727272726,88.49262500018631L116.76840727272727,88.49262500018631L116.79216,88.49262500018631L117.06996363636364,88.49262500018631L117.13089454545455,88.49262500018631L117.21351272727273,88.49262500018631L117.29096727272729,88.49262500018631L117.45826909090908,88.49262500018631L117.56257454545454,88.49262500018631L117.66171636363636,88.49262500018631L117.73194181818182,88.49262500018631L118.16981818181817,88.49262500018631L118.19047272727272,88.49262500018631L118.77499636363636,88.49262500018631L118.80804363636364,88.49262500018631L118.95675636363636,88.49262500018631L119.15813818181819,88.49262500018631L119.19015272727273,88.49262500018631L119.24695272727273,88.49262500018631L119.28309818181819,88.49262500018631L119.29342545454546,88.49262500018631L119.49480727272727,88.49262500018631L119.81598545454546,88.49262500018631L120.26005818181818,88.49262500018631L120.59982545454545,88.49262500018631L120.65972363636364,88.49262500018631L121.22565818181819,88.49262500018631L121.24011636363636,88.49262500018631L121.25560727272727,88.49262500018631L121.26903272727273,88.49262500018631L121.44356363636365,88.49262500018631L121.79572363636363,88.49262500018631L121.97748363636364,88.49262500018631L122.14685090909092,88.49262500018631L122.1613090909091,88.49262500018631L122.59712,88.49262500018631L122.65598545454546,88.49262500018631L122.78301090909092,88.49262500018631L122.9647709090909,88.49262500018631L123.06804363636364,88.49262500018631L123.51934545454546,88.49262500018631L124.27736727272726,88.49262500018631L124.90939636363638,88.49262500018631L125.05087999999999,88.49262500018631L125.72834909090909,88.49262500018631L125.7293818181818,88.49262500018631L125.78927999999999,88.49262500018631L125.99582545454545,88.49262500018631L126.32733090909092,88.49262500018631L126.70840727272727,88.49262500018631L126.74248727272727,88.49262500018631L126.94283636363637,88.49262500018631L127.11633454545454,88.49262500018631L127.17313454545454,88.49262500018631L127.27227636363637,88.49262500018631L127.74423272727272,88.49262500018631L127.87745454545454,88.49262500018631L128.26472727272727,88.49262500018631L128.4888290909091,88.49262500018631L129.26234181818182,88.49262500018631L129.3026181818182,88.49262500018631L129.5081309090909,88.49262500018631L129.94187636363637,88.49262500018631L130.21761454545455,88.49262500018631L130.3745890909091,88.49262500018631L130.6214109090909,88.49262500018631L130.9436218181818,88.49262500018631L131.11608727272727,88.49262500018631L131.77393454545455,88.49262500018631L132.19735272727274,88.49262500018631L132.20974545454547,88.49262500018631L132.4648290909091,88.49262500018631L132.58152727272727,88.49262500018631L132.74779636363635,88.49262500018631L133.40254545454545,88.49262500018631L133.44178909090908,88.49262500018631L133.51614545454547,88.49262500018631L133.55642181818183,88.49262500018631L133.7567709090909,88.49262500018631L133.78878545454546,88.49262500018631L133.90032,88.49262500018631L134.39602909090908,88.49262500018631L134.59224727272726,88.49262500018631L134.71204363636363,88.49262500018631L134.96919272727274,88.49262500018631L135.44528,88.49262500018631L135.7106909090909,88.49262500018631L135.74063999999998,88.49262500018631L135.80363636363637,88.49262500018631L136.11758545454546,88.49262500018631L136.29108363636365,88.49262500018631L136.8167418181818,88.49262500018631L138.06944,88.49262500018631L138.07047272727272,88.49262500018631L138.2140218181818,88.49262500018631L138.24500363636363,88.49262500018631L138.28734545454546,88.49262500018631L138.73348363636364,88.49262500018631L139.11559272727274,88.49262500018631L139.54624,88.49262500018631L139.55863272727274,88.49262500018631L139.66706909090908,88.49262500018631L140.00683636363635,88.49262500018631L140.56554181818183,88.49262500018631L140.59032727272728,88.49262500018631L140.62440727272727,88.49262500018631L141.17278545454545,88.49262500018631L141.75421090909092,88.49262500018631L141.81410909090908,88.49262500018631L142.04647272727271,88.49262500018631L142.30155636363637,88.49262500018631L143.74427636363635,88.49262500018631L144.00039272727273,88.49262500018631L144.05512727272725,88.49262500018631L144.16769454545454,88.49262500018631L144.49506909090908,88.49262500018631L144.62725818181818,88.49262500018631L144.72536727272728,88.49262500018631L144.8782109090909,88.49262500018631L144.91125818181817,88.49262500018631L144.97425454545456,88.49262500018631L145.21591272727272,88.49262500018631L145.41419636363634,88.49262500018631L145.52159999999998,88.49262500018631L145.98013090909092,88.49262500018631L146.28375272727274,88.49262500018631L146.46138181818182,88.49262500018631L146.55226181818182,88.49262500018631L146.56465454545454,88.49262500018631L146.57291636363638,88.49262500018631L146.65140363636365,88.49262500018631L146.6958109090909,88.49262500018631L147.08824727272727,88.49262500018631L147.23902545454547,88.49262500018631L147.89170909090907,88.49262500018631L148.12200727272727,88.49262500018631L148.7054981818182,88.49262500018631L148.71685818181817,88.49262500018631L148.90068363636362,88.49262500018631L148.9564509090909,88.49262500018631L149.10309818181818,88.49262500018631L149.92927999999998,88.49262500018631L150.17713454545455,88.49262500018631L150.47662545454546,88.49262500018631L150.5922909090909,88.49262500018631L151.15202909090908,88.49262500018631L151.30384,88.49262500018631L151.68491636363638,88.49262500018631L151.69834181818183,88.49262500018631L151.78612363636364,88.49262500018631L152.20231272727273,88.49262500018631L152.31178181818183,88.49262500018631L152.96446545454546,88.49262500018631L153.22987636363638,88.49262500018631L153.57790545454546,88.49262500018631L153.73178181818184,88.49262500018631L154.0570909090909,88.49262500018631L154.06225454545452,88.49262500018631L154.07774545454546,88.49262500018631L154.41854545454547,88.49262500018631L154.45159272727275,88.49262500018631L154.97828363636364,88.49262500018631L154.99790545454547,88.49262500018631L155.10427636363636,88.49262500018631L155.39240727272727,88.49262500018631L155.8860509090909,88.49262500018631L156.3972509090909,88.49262500018631L156.7266909090909,88.49262500018631L156.87643636363637,88.49262500018631L156.92394181818182,88.49262500018631L157.46715636363635,88.49262500018631L157.50846545454544,88.49262500018631L157.53944727272727,88.49262500018631L157.54977454545454,88.49262500018631L157.6282618181818,88.49262500018631L157.66337454545453,88.49262500018631L157.78523636363636,88.49262500018631L158.26752,88.49262500018631L158.51434181818183,88.49262500018631L158.75496727272727,88.49262500018631L159.40661818181817,88.49262500018631L159.44379636363635,88.49262500018631L159.5439709090909,88.49262500018631L159.76084363636363,88.49262500018631L159.76187636363636,88.49262500018631L160.0706618181818,88.49262500018631L160.33400727272726,88.49262500018631L160.4796218181818,88.49262500018631L160.7832436363636,88.49262500018631L160.94434909090907,88.49262500018631L161.18084363636365,88.49262500018631L161.40907636363636,88.49262500018631L161.5392,88.49262500018631L161.85728,88.49262500018631L161.9182109090909,88.49262500018631L162.04110545454546,88.49262500018631L162.16916363636366,88.49262500018631L163.29999999999998,88.49262500018631L163.39088,88.49262500018631L163.47349818181817,88.49262500018631L164.01154909090909,88.49262500018631L164.40811636363637,88.49262500018631L165.10004363636364,88.49262500018631L165.22913454545454,88.49262500018631L165.94997818181818,88.49262500018631L166.05221818181818,88.49262500018631L166.1926690909091,88.49262500018631L166.3186618181818,88.49262500018631L166.37856000000002,88.49262500018631L166.4498181818182,88.49262500018631L166.4539490909091,88.49262500018631L166.55825454545453,88.49262500018631L166.64706909090907,88.49262500018631L167.24398545454545,88.49262500018631L167.49287272727273,88.49262500018631L167.70251636363633,88.49262500018631L167.75518545454545,88.49262500018631L167.82644363636362,88.49262500018631L168.37482181818183,88.49262500018631L168.39444363636363,88.49262500018631L168.60305454545454,88.49262500018631L168.7114909090909,88.49262500018631L168.8963490909091,88.49262500018631L168.91080727272728,88.49262500018631L168.94798545454546,88.49262500018631L168.99032727272726,88.49262500018631L169.08740363636363,88.49262500018631L169.1380072727273,88.49262500018631L169.32389818181818,88.49262500018631L169.41374545454545,88.49262500018631L169.43233454545455,88.49262500018631L169.57175272727272,88.49262500018631L170.4258181818182,88.49262500018631L170.6767709090909,88.49262500018631L171.49262545454545,88.49262500018631L171.56181818181818,88.49262500018631L171.62481454545454,88.49262500018631L172.48920727272727,88.49262500018631L172.63688727272728,88.49262500018631L173.17906909090908,88.49262500018631L173.58699636363636,88.49262500018631L173.72744727272726,88.49262500018631L173.7429381818182,88.49262500018631L174.33572363636364,88.49262500018631L174.42144000000002,88.49262500018631L174.68994909090907,88.49262500018631L174.86964363636363,88.49262500018631L174.94503272727272,88.49262500018631L175.09581090909091,88.49262500018631L175.11543272727272,88.49262500018631L175.18359272727272,88.49262500018631L175.34986181818184,88.49262500018631L175.44384,88.49262500018631L175.4934109090909,88.49262500018631L175.69272727272727,88.49262500018631L175.88481454545453,88.49262500018631L176.00667636363636,88.49262500018631L176.12440727272727,88.49262500018631L176.96401454545455,88.49262500018631L177.0982690909091,88.49262500018631L177.26247272727272,88.49262500018631L177.53614545454548,88.49262500018631L177.65387636363636,88.49262500018631L177.91928727272727,88.49262500018631L178.35613090909092,88.49262500018631L178.40776727272728,88.49262500018631L178.58539636363636,88.49262500018631L178.62360727272727,88.49262500018631L178.8786909090909,88.49262500018631L179.3444509090909,88.49262500018631L179.37336727272728,88.49262500018631L179.55616,88.49262500018631L180.1613381818182,88.49262500018631L180.18509090909092,88.49262500018631L180.3596218181818,88.49262500018631L180.36065454545454,88.49262500018631L180.42571636363635,88.49262500018631L180.81505454545456,88.49262500018631L180.88837818181818,88.49262500018631L181.02779636363636,88.49262500018631L181.37789090909092,88.49262500018631L181.5513890909091,88.49262500018631L182.2329890909091,88.49262500018631L182.92078545454547,88.49262500018631L183.12423272727273,88.49262500018631L183.16554181818182,88.49262500018631L183.78930909090911,88.49262500018631L183.92769454545453,88.49262500018631L184.1373381818182,88.49262500018631L184.34078545454545,88.49262500018631L184.65163636363636,88.49262500018631L184.6753890909091,88.49262500018631L184.87367272727275,88.49262500018631L185.24235636363636,88.49262500018631L185.32187636363636,88.49262500018631L185.53048727272727,88.49262500018631L185.6182690909091,88.49262500018631L185.73290181818183,88.49262500018631L185.78557090909092,88.49262500018631L186.04168727272727,88.49262500018631L186.4475490909091,88.49262500018631L186.5952290909091,88.49262500018631L186.8110690909091,88.49262500018631L186.97630545454544,88.49262500018631L187.15290181818182,88.49262500018631L187.31504,88.49262500018631L187.77563636363638,88.49262500018631L188.01419636363636,88.49262500018631L188.34363636363636,88.49262500018631L188.43658181818182,88.49262500018631L188.66894545454548,88.49262500018631L188.98599272727273,88.49262500018631L189.7264581818182,88.49262500018631L190.1478109090909,88.49262500018631L190.18808727272727,88.49262500018631L190.19841454545454,88.49262500018631L190.77880727272725,88.49262500018631L190.9698618181818,88.49262500018631L191.54405818181817,88.49262500018631L191.6690181818182,88.49262500018631L191.75266909090908,88.49262500018631L191.8776290909091,88.49262500018631L192.1471709090909,88.49262500018631L192.34235636363636,88.49262500018631L193.0332509090909,88.49262500018631L193.27387636363636,88.49262500018631L193.7520290909091,88.49262500018631L193.81399272727273,88.49262500018631L193.92036363636362,88.49262500018631L194.02880000000002,88.49262500018631L194.20746181818183,88.49262500018631L194.75480727272728,88.49262500018631L194.96341818181816,88.49262500018631L194.9789090909091,88.49262500018631L195.27323636363636,88.49262500018631L195.79166545454547,88.49262500018631L196.4113018181818,88.49262500018631L196.50631272727273,88.49262500018631L196.63643636363636,88.49262500018631L196.93489454545457,88.49262500018631L197.41924363636363,88.49262500018631L197.42544,88.49262500018631L197.46055272727273,88.49262500018631L197.59480727272728,88.49262500018631L197.97175272727273,88.49262500018631L198.2929309090909,88.49262500018631L198.4715927272727,88.49262500018631L198.76695272727272,88.49262500018631L199.12737454545453,88.49262500018631L199.15835636363636,88.49262500018631L199.42583272727273,88.49262500018631L199.88539636363637,88.49262500018631L199.88952727272726,88.49262500018631L199.94632727272727,88.49262500018631L200.11053090909093,88.49262500018631L200.24891636363637,88.49262500018631L200.31294545454546,88.49262500018631L200.49160727272726,88.49262500018631L200.95736727272728,88.49262500018631L201.3859490909091,88.49262500018631L201.72984727272728,88.49262500018631L201.78561454545456,88.49262500018631L201.84241454545455,88.49262500018631L201.84757818181816,88.49262500018631L202.13157818181818,88.49262500018631L202.18011636363636,88.49262500018631L202.18218181818182,88.49262500018631L202.40215272727275,88.49262500018631L202.5178181818182,88.49262500018631L202.73675636363635,88.49262500018631L202.8513890909091,88.49262500018631L203.0868509090909,88.49262500018631L203.70235636363637,88.49262500018631L204.0256,88.49262500018631L204.60082909090912,88.49262500018631L205.00359272727272,88.49262500018631L205.23802181818183,88.49262500018631L205.25144727272726,88.49262500018631L205.46832,88.49262500018631L205.55300363636363,88.49262500018631L205.70894545454544,88.49262500018631L205.7378618181818,88.49262500018631L205.95370181818183,88.49262500018631L206.0662690909091,88.49262500018631L206.12410181818183,88.49262500018631L206.1757381818182,88.49262500018631L206.65079272727274,88.49262500018631L206.72721454545456,88.49262500018631L207.0050181818182,88.49262500018631L207.05252363636365,88.49262500018631L207.13617454545454,88.49262500018631L207.4521890909091,88.49262500018631L208.33517090909092,88.49262500018631L208.35685818181818,88.49262500018631L208.3640872727273,88.49262500018631L208.38783999999998,88.49262500018631L208.42914909090908,88.49262500018631L208.84430545454546,88.49262500018631L209.06014545454545,88.49262500018631L209.47840000000002,88.49262500018631L209.58580363636366,88.49262500018631L211.4168290909091,88.49262500018631L212.5714181818182,88.49262500018631L212.75008,88.49262500018631L212.98347636363636,88.49262500018631L213.02065454545453,88.49262500018631L213.74149818181817,88.49262500018631L213.9015709090909,88.49262500018631L214.24856727272729,88.49262500018631L214.58420363636364,88.49262500018631L214.59969454545453,88.49262500018631L214.70606545454547,88.49262500018631L214.82276363636362,88.49262500018631L214.93223272727272,88.49262500018631L215.83793454545454,88.49262500018631L216.07546181818182,88.49262500018631L216.12709818181818,88.49262500018631L216.36359272727273,88.49262500018631L216.4906181818182,88.49262500018631L217.30337454545455,88.49262500018631L217.59873454545453,88.49262500018631L217.81457454545455,88.49262500018631L218.27000727272727,88.49262500018631L218.2741381818182,88.49262500018631L218.69135999999997,88.49262500018631L218.72027636363634,88.49262500018631L219.1075490909091,88.49262500018631L219.11064727272728,88.49262500018631L219.5061818181818,88.49262500018631L219.67451636363637,88.49262500018631L219.73131636363635,88.49262500018631L220.39432727272728,88.49262500018631L220.90346181818182,88.49262500018631L221.3000290909091,88.49262500018631L221.43944727272728,88.49262500018631L221.8762909090909,88.49262500018631L221.99918545454543,88.49262500018631L222.2584,88.49262500018631L222.52277818181818,88.49262500018631L222.79335272727272,88.49262500018631L223.72177454545454,88.49262500018631L223.81575272727272,88.49262500018631L224.36516363636363,88.49262500018631L224.52936727272728,88.49262500018631L224.92283636363638,88.49262500018631L225.06638545454544,88.49262500018631L225.2078690909091,88.49262500018631L225.76657454545455,88.49262500018631L226.20858181818184,88.49262500018631L226.7373381818182,88.49262500018631L227.3146327272727,88.49262500018631L227.52324363636365,88.49262500018631L227.59966545454546,88.49262500018631L228.06439272727275,88.49262500018631L228.15527272727275,88.49262500018631L228.16869818181817,88.49262500018631L228.4909090909091,88.49262500018631L228.68299636363636,88.49262500018631L228.7181090909091,88.49262500018631L229.17664,88.49262500018631L229.2417018181818,88.49262500018631L229.7601309090909,88.49262500018631L229.77149090909091,88.49262500018631L229.98113454545452,88.49262500018631L230.1009309090909,88.49262500018631L230.39009454545456,88.49262500018631L230.7370909090909,88.49262500018631L230.80628363636362,88.49262500018631L231.06549818181816,88.49262500018631L231.37738181818182,88.49262500018631L231.5353890909091,88.49262500018631L232.42353454545454,88.49262500018631L232.98430545454545,88.49262500018631L233.06382545454548,88.49262500018631L233.77744,88.49262500018631L234.00257454545454,88.49262500018631L234.03872,88.49262500018631L234.54475636363634,88.49262500018631L234.60878545454548,88.49262500018631L234.66558545454546,88.49262500018631L235.28832,88.49262500018631L235.9317090909091,88.49262500018631L236.004,88.49262500018631L236.03394909090912,88.49262500018631L236.69592727272726,88.49262500018631L236.73103999999998,88.49262500018631L237.00884363636365,88.49262500018631L237.47976727272726,88.49262500018631L237.5871709090909,88.49262500018631L237.73691636363637,88.49262500018631L237.9083490909091,88.49262500018631L238.27290181818182,88.49262500018631L238.29665454545454,88.49262500018631L238.45156363636363,88.49262500018631L238.85432727272726,88.49262500018631L239.35933090909091,88.49262500018631L239.60925090909092,88.49262500018631L239.71665454545456,88.49262500018631L239.89428363636364,88.49262500018631L239.96760727272726,88.49262500018631L240.27226181818182,88.49262500018631L240.3848290909091,88.49262500018631L240.85575272727272,88.49262500018631L240.97554909090908,88.49262500018631L241.42272,88.49262500018631L241.48778181818182,88.49262500018631L241.88228363636364,88.49262500018631L242.12290909090908,88.49262500018631L242.2220509090909,88.49262500018631L243.06372363636365,88.49262500018631L243.1990109090909,88.49262500018631L243.76391272727273,88.49262500018631L243.93224727272727,88.49262500018631L244.17700363636362,88.49262500018631L244.30816000000002,88.49262500018631L244.84621090909093,88.49262500018631L245.02590545454544,88.49262500018631L245.11471999999998,88.49262500018631L245.14363636363635,88.49262500018631L245.4854690909091,88.49262500018631L246.56260363636363,88.49262500018631L246.6638109090909,88.49262500018631L246.67620363636362,88.49262500018631L246.7774109090909,88.49262500018631L246.92199272727274,88.49262500018631L247.10168727272728,88.49262500018631L247.7646981818182,88.49262500018631L247.8566109090909,88.49262500018631L248.1065309090909,88.49262500018631L248.1622981818182,88.49262500018631L248.33682909090908,88.49262500018631L248.33889454545454,88.49262500018631L248.5495709090909,88.49262500018631L248.784,88.49262500018631L248.97505454545455,88.49262500018631L248.97815272727271,88.49262500018631L249.07626181818182,88.49262500018631L249.3530327272727,88.49262500018631L249.40466909090907,88.49262500018631L249.43874909090908,88.49262500018631L249.70519272727273,88.49262500018631L249.86423272727274,88.49262500018631L249.99745454545456,88.49262500018631L250.01397818181817,88.49262500018631L250.21226181818182,88.49262500018631L250.37336727272728,88.49262500018631L250.6893818181818,88.49262500018631L250.8215709090909,88.49262500018631L251.02192,88.49262500018631L251.31521454545455,88.49262500018631L251.4949090909091,88.49262500018631L252.11454545454544,88.49262500018631L252.5658472727273,88.49262500018631L252.6835781818182,88.49262500018631L252.70216727272725,88.49262500018631L252.95312,88.49262500018631L253.42507636363638,88.49262500018631L254.02199272727273,88.49262500018631L254.0240581818182,88.49262500018631L254.03748363636365,88.49262500018631L254.18929454545454,88.49262500018631L254.37208727272727,88.49262500018631L254.50427636363636,88.49262500018631L254.56107636363635,88.49262500018631L254.7283781818182,88.49262500018631L254.79343999999998,88.49262500018631L255.04232727272728,88.49262500018631L255.2292509090909,88.49262500018631L255.5163490909091,88.49262500018631L255.66299636363638,88.49262500018631L255.82410181818182,88.49262500018631L255.9211781818182,88.49262500018631L256.36112,88.49262500018631L256.8279127272727,88.49262500018631L257.23790545454546,88.49262500018631L257.39694545454546,88.49262500018631L257.5704436363637,88.49262500018631L257.7160581818182,88.49262500018631L258.08784,88.49262500018631L258.13121454545455,88.49262500018631L258.1818181818182,88.49262500018631" style="fill: none;" fill="none"></path></g></g></g></g><g opacity="0.2"><g><g><g><path stroke="rgb(0, 119, 187)" stroke-width="2px" d="M12.95453090909091,88.49262500018631L13.083621818181818,88.49262500018631L13.14765090909091,88.49262500018631L13.40066909090909,88.49262500018631L13.464698181818182,88.49262500018631L13.516334545454546,88.49262500018631L13.57933090909091,88.49262500018631L13.958341818181818,88.49262500018631L14.287781818181818,88.49262500018631L14.341483636363636,88.49262500018631L14.394152727272727,88.49262500018631L14.705003636363637,88.49262500018631L14.849585454545453,88.49262500018631L15.29365818181818,88.49262500018631L15.378341818181818,88.49262500018631L15.478516363636363,88.49262500018631L15.68402909090909,88.49262500018631L16.26338909090909,88.49262500018631L16.32432,88.49262500018631L17.36944,88.49262500018631L17.455156363636362,88.49262500018631L17.550167272727272,88.49262500018631L17.567723636363638,88.49262500018631L18.044843636363634,88.49262500018631L18.21317818181818,88.49262500018631L18.431083636363635,88.49262500018631L18.821454545454547,88.49262500018631L19.011476363636366,88.49262500018631L19.097192727272727,88.49262500018631L19.314065454545453,88.49262500018631L19.829396363636363,88.49262500018631L19.841789090909092,88.49262500018631L19.98946909090909,88.49262500018631L20.105134545454543,88.49262500018631L20.30032,88.49262500018631L20.6184,88.49262500018631L20.96436363636364,88.49262500018631L21.00050909090909,88.49262500018631L21.241134545454546,88.49262500018631L21.358865454545455,88.49262500018631L21.401207272727273,88.49262500018631L21.687272727272727,88.49262500018631L22.07970909090909,88.49262500018631L22.138574545454546,88.49262500018631L22.47421090909091,88.49262500018631L22.689018181818184,88.49262500018631L22.777832727272727,88.49262500018631L22.926545454545455,88.49262500018631L23.650487272727272,88.49262500018631L23.733105454545456,88.49262500018631L23.777512727272725,88.49262500018631L24.173047272727274,88.49262500018631L24.236043636363636,88.49262500018631L24.29181090909091,88.49262500018631L24.82056727272727,88.49262500018631L24.85568,88.49262500018631L25.271869090909092,88.49262500018631L25.27703272727273,88.49262500018631L25.47325090909091,88.49262500018631L25.603374545454546,88.49262500018631L26.209585454545454,88.49262500018631L26.371723636363633,88.49262500018631L26.399607272727273,88.49262500018631L27.67296,88.49262500018631L28.0592,88.49262500018631L28.17383272727273,88.49262500018631L28.270909090909093,88.49262500018631L28.890545454545453,88.49262500018631L29.19106909090909,88.49262500018631L29.55458909090909,88.49262500018631L30.31984,88.49262500018631L30.535680000000003,88.49262500018631L30.567694545454543,88.49262500018631L30.794894545454547,88.49262500018631L31.02829090909091,88.49262500018631L33.08135272727272,88.49262500018631L33.19392,88.49262500018631L33.28789818181818,88.49262500018631L33.56053818181818,88.49262500018631L33.620436363636365,88.49262500018631L33.62973090909091,88.49262500018631L33.81768727272727,88.49262500018631L33.89927272727273,88.49262500018631L34.122341818181816,88.49262500018631L34.16261818181818,88.49262500018631L34.37019636363637,88.49262500018631L34.37329454545455,88.49262500018631L34.44868363636364,88.49262500018631L34.68104727272727,88.49262500018631L34.74714181818182,88.49262500018631L34.92786909090909,88.49262500018631L35.47418181818182,88.49262500018631L35.88417454545455,88.49262500018631L35.971956363636366,88.49262500018631L36.00087272727273,88.49262500018631L36.8064,88.49262500018631L36.95924363636364,88.49262500018631L37.03669818181818,88.49262500018631L37.10485818181818,88.49262500018631L37.35581090909091,88.49262500018631L37.38782545454546,88.49262500018631L37.84842181818182,88.49262500018631L37.98784,88.49262500018631L37.98990545454546,88.49262500018631L38.029149090909094,88.49262500018631L38.337934545454544,88.49262500018631L38.44740363636364,88.49262500018631L38.66117818181818,88.49262500018631L38.990618181818185,88.49262500018631L39.133134545454546,88.49262500018631L39.56791272727273,88.49262500018631L39.60405818181818,88.49262500018631L39.68048,88.49262500018631L40.58514909090909,88.49262500018631L40.586181818181814,88.49262500018631L41.31632,88.49262500018631L41.41752727272727,88.49262500018631L42.388290909090905,88.49262500018631L42.82926545454546,88.49262500018631L42.85611636363637,88.49262500018631L42.924276363636366,88.49262500018631L43.06782545454545,88.49262500018631L43.131854545454544,88.49262500018631L43.346661818181815,88.49262500018631L43.71637818181818,88.49262500018631L43.89813818181818,88.49262500018631L43.924989090909094,88.49262500018631L44.07266909090909,88.49262500018631L44.37835636363636,88.49262500018631L44.525003636363635,88.49262500018631L44.622080000000004,88.49262500018631L44.63653818181818,88.49262500018631L45.344989090909095,88.49262500018631L45.3832,88.49262500018631L45.83450181818181,88.49262500018631L45.892334545454545,88.49262500018631L46.40766545454546,88.49262500018631L46.51816727272727,88.49262500018631L46.63693090909091,88.49262500018631L46.74536727272727,88.49262500018631L46.88168727272727,88.49262500018631L46.88994909090909,88.49262500018631L47.02626909090909,88.49262500018631L47.178079999999994,88.49262500018631L47.378429090909094,88.49262500018631L47.40734545454546,88.49262500018631L47.75227636363636,88.49262500018631L47.764669090909095,88.49262500018631L47.80184727272727,88.49262500018631L47.85761454545455,88.49262500018631L47.89582545454545,88.49262500018631L47.93403636363636,88.49262500018631L48.06106181818182,88.49262500018631L48.39773090909091,88.49262500018631L48.56606545454545,88.49262500018631L48.64248727272727,88.49262500018631L49.42219636363637,88.49262500018631L49.55541818181818,88.49262500018631L49.85284363636364,88.49262500018631L50.0408,88.49262500018631L50.12754909090909,88.49262500018631L50.73892363636364,88.49262500018631L50.76990545454545,88.49262500018631L50.96715636363637,88.49262500018631L51.33067636363636,88.49262500018631L51.627069090909096,88.49262500018631L51.911069090909095,88.49262500018631L52.02673454545455,88.49262500018631L52.624683636363635,88.49262500018631L52.89835636363637,88.49262500018631L53.02228363636364,88.49262500018631L53.16789818181818,88.49262500018631L53.49320727272727,88.49262500018631L53.91249454545454,88.49262500018631L54.1262690909091,88.49262500018631L54.24090181818182,88.49262500018631L54.52593454545454,88.49262500018631L54.73661090909091,88.49262500018631L54.90907636363636,88.49262500018631L54.96381090909091,88.49262500018631L55.0392,88.49262500018631L55.29428363636364,88.49262500018631L55.53284363636363,88.49262500018631L55.80961454545455,88.49262500018631L56.42408727272727,88.49262500018631L56.750429090909094,88.49262500018631L56.76901818181818,88.49262500018631L57.853381818181816,88.49262500018631L57.97834181818182,88.49262500018631L58.05269818181818,88.49262500018631L58.08471272727272,88.49262500018631L58.14977454545455,88.49262500018631L58.34392727272727,88.49262500018631L58.426545454545455,88.49262500018631L58.55770181818182,88.49262500018631L58.56493090909091,88.49262500018631L58.61037090909091,88.49262500018631L58.665105454545454,88.49262500018631L59.193861818181816,88.49262500018631L59.34670545454545,88.49262500018631L59.768058181818176,88.49262500018631L59.90747636363636,88.49262500018631L60.06341818181818,88.49262500018631L60.74501818181819,88.49262500018631L60.76154181818182,88.49262500018631L60.84312727272727,88.49262500018631L61.760189090909094,88.49262500018631L62.10821818181819,88.49262500018631L62.17741090909091,88.49262500018631L62.21768727272727,88.49262500018631L62.45108363636364,88.49262500018631L62.56055272727273,88.49262500018631L62.66898909090909,88.49262500018631L63.02114909090909,88.49262500018631L63.795694545454545,88.49262500018631L63.87728,88.49262500018631L64.00740363636363,88.49262500018631L64.55371636363637,88.49262500018631L64.60535272727273,88.49262500018631L64.71792,88.49262500018631L64.74890181818182,88.49262500018631L65.39332363636363,88.49262500018631L65.55856,88.49262500018631L65.71863272727273,88.49262500018631L65.81467636363637,88.49262500018631L66.40436363636364,88.49262500018631L66.61400727272728,88.49262500018631L66.91453090909091,88.49262500018631L66.97752727272727,88.49262500018631L67.31729454545454,88.49262500018631L67.54862545454546,88.49262500018631L67.58270545454545,88.49262500018631L67.74071272727272,88.49262500018631L67.75620363636364,88.49262500018631L68.12901818181818,88.49262500018631L68.37480727272727,88.49262500018631L68.38616727272728,88.49262500018631L68.53591272727273,88.49262500018631L68.58135272727273,88.49262500018631L68.80545454545455,88.49262500018631L69.51184,88.49262500018631L69.64609454545455,88.49262500018631L69.69256727272727,88.49262500018631L70.01994181818182,88.49262500018631L70.27192727272728,88.49262500018631L70.28018909090909,88.49262500018631L70.50222545454545,88.49262500018631L71.09191272727273,88.49262500018631L71.28193454545455,88.49262500018631L71.37178181818183,88.49262500018631L71.55664,88.49262500018631L71.59072,88.49262500018631L72.09159272727273,88.49262500018631L72.27645090909091,88.49262500018631L73.26373818181818,88.49262500018631L73.55186909090908,88.49262500018631L73.57975272727272,88.49262500018631L73.59730909090909,88.49262500018631L74.11470545454546,88.49262500018631L74.16324363636363,88.49262500018631L74.28820363636363,88.49262500018631L74.5030109090909,88.49262500018631L75.0596509090909,88.49262500018631L75.06584727272727,88.49262500018631L75.08856727272727,88.49262500018631L75.18151272727273,88.49262500018631L75.36533818181819,88.49262500018631L76.1192290909091,88.49262500018631L76.19255272727274,88.49262500018631L76.60977454545454,88.49262500018631L77.08379636363637,88.49262500018631L77.5051490909091,88.49262500018631L78.50276363636364,88.49262500018631L78.66593454545455,88.49262500018631L78.86628363636365,88.49262500018631L79.54375272727273,88.49262500018631L79.92379636363636,88.49262500018631L80.33998545454546,88.49262500018631L80.65909818181818,88.49262500018631L80.70247272727272,88.49262500018631L81.12176,88.49262500018631L81.88391272727272,88.49262500018631L82.07909818181818,88.49262500018631L82.12557090909091,88.49262500018631L82.55828363636363,88.49262500018631L83.42680727272727,88.49262500018631L83.52698181818182,88.49262500018631L83.74592,88.49262500018631L84.34593454545455,88.49262500018631L84.36039272727272,88.49262500018631L84.63922909090908,88.49262500018631L84.9118690909091,88.49262500018631L84.99345454545454,88.49262500018631L85.11428363636364,88.49262500018631L85.67918545454546,88.49262500018631L85.80104727272727,88.49262500018631L85.87953454545455,88.49262500018631L86.23066181818182,88.49262500018631L86.67680000000001,88.49262500018631L86.80692363636363,88.49262500018631L87.17044363636364,88.49262500018631L87.22311272727273,88.49262500018631L87.24583272727273,88.49262500018631L87.27991272727273,88.49262500018631L87.30573090909091,88.49262500018631L87.57424,88.49262500018631L87.57630545454545,88.49262500018631L87.68164363636363,88.49262500018631L87.68474181818182,88.49262500018631L87.84378181818182,88.49262500018631L88.01418181818183,88.49262500018631L88.30954181818181,88.49262500018631L88.48510545454546,88.49262500018631L89.12023272727272,88.49262500018631L89.25448727272727,88.49262500018631L89.52609454545454,88.49262500018631L90.86864,88.49262500018631L91.62356363636363,88.49262500018631L91.89620363636364,88.49262500018631L92.04491636363636,88.49262500018631L92.09345454545455,88.49262500018631L92.21428363636365,88.49262500018631L92.33408,88.49262500018631L92.34130909090909,88.49262500018631L92.63563636363637,88.49262500018631L93.36164363636364,88.49262500018631L93.6033018181818,88.49262500018631L93.6786909090909,88.49262500018631L94.26424727272727,88.49262500018631L94.33447272727274,88.49262500018631L94.41399272727273,88.49262500018631L94.4284509090909,88.49262500018631L94.46872727272726,88.49262500018631L94.50177454545454,88.49262500018631L95.11314909090909,88.49262500018631L95.50352000000001,88.49262500018631L95.56135272727273,88.49262500018631L95.63261090909091,88.49262500018631L95.69973818181819,88.49262500018631L95.93210181818182,88.49262500018631L95.94862545454545,88.49262500018631L96.09733818181819,88.49262500018631L96.1241890909091,88.49262500018631L96.1624,88.49262500018631L96.55793454545454,88.49262500018631L96.57755636363636,88.49262500018631L96.68289454545454,88.49262500018631L96.95553454545455,88.49262500018631L97.07223272727273,88.49262500018631L98.35488000000001,88.49262500018631L98.38999272727273,88.49262500018631L98.47157818181819,88.49262500018631L98.90325818181819,88.49262500018631L99.41445818181818,88.49262500018631L100.08263272727272,88.49262500018631L100.28091636363636,88.49262500018631L100.36869818181819,88.49262500018631L100.78488727272727,88.49262500018631L100.86750545454545,88.49262500018631L101.2176,88.49262500018631L101.24961454545455,88.49262500018631L101.28369454545454,88.49262500018631L101.40142545454545,88.49262500018631L101.74016,88.49262500018631L102.5312290909091,88.49262500018631L102.61901090909092,88.49262500018631L102.7666909090909,88.49262500018631L103.16429090909091,88.49262500018631L103.22315636363636,88.49262500018631L103.44622545454546,88.49262500018631L103.61456,88.49262500018631L103.93264,88.49262500018631L104.48721454545455,88.49262500018631L104.6328290909091,88.49262500018631L105.18224000000001,88.49262500018631L105.19876363636364,88.49262500018631L105.59326545454545,88.49262500018631L105.82872727272728,88.49262500018631L105.89275636363637,88.49262500018631L106.10136727272727,88.49262500018631L106.98641454545454,88.49262500018631L107.19915636363636,88.49262500018631L107.53375999999999,88.49262500018631L107.55751272727272,88.49262500018631L107.64529454545455,88.49262500018631L107.64839272727272,88.49262500018631L108.04599272727273,88.49262500018631L108.67492363636364,88.49262500018631L108.73585454545454,88.49262500018631L109.08491636363635,88.49262500018631L109.1850909090909,88.49262500018631L109.44120727272728,88.49262500018631L109.88528,88.49262500018631L110.54106181818182,88.49262500018631L110.79717818181818,88.49262500018631L111.07911272727272,88.49262500018631L111.35175272727272,88.49262500018631L111.40958545454545,88.49262500018631L111.44263272727272,88.49262500018631L111.51595636363636,88.49262500018631L112.00030545454545,88.49262500018631L112.02405818181818,88.49262500018631L112.36382545454546,88.49262500018631L112.60548363636363,88.49262500018631L112.6726109090909,88.49262500018631L113.31909818181818,88.49262500018631L113.51531636363636,88.49262500018631L113.70120727272727,88.49262500018631L113.90775272727272,88.49262500018631L113.9903709090909,88.49262500018631L114.1039709090909,88.49262500018631L114.33736727272728,88.49262500018631L114.5356509090909,88.49262500018631L114.60794181818181,88.49262500018631L114.65854545454545,88.49262500018631L115.20795636363636,88.49262500018631L115.67371636363637,88.49262500018631L115.78318545454546,88.49262500018631L115.78525090909092,88.49262500018631L116.06408727272726,88.49262500018631L116.76840727272727,88.49262500018631L116.79216,88.49262500018631L117.06996363636364,88.49262500018631L117.13089454545455,88.49262500018631L117.21351272727273,88.49262500018631L117.29096727272729,88.49262500018631L117.45826909090908,88.49262500018631L117.56257454545454,88.49262500018631L117.66171636363636,88.49262500018631L117.73194181818182,88.49262500018631L118.16981818181817,88.49262500018631L118.19047272727272,88.49262500018631L118.77499636363636,88.49262500018631L118.80804363636364,88.49262500018631L118.95675636363636,88.49262500018631L119.15813818181819,88.49262500018631L119.19015272727273,88.49262500018631L119.24695272727273,88.49262500018631L119.28309818181819,88.49262500018631L119.29342545454546,88.49262500018631L119.49480727272727,88.49262500018631L119.81598545454546,88.49262500018631L120.26005818181818,88.49262500018631L120.59982545454545,88.49262500018631L120.65972363636364,88.49262500018631L121.22565818181819,88.49262500018631L121.24011636363636,88.49262500018631L121.25560727272727,88.49262500018631L121.26903272727273,88.49262500018631L121.44356363636365,88.49262500018631L121.79572363636363,88.49262500018631L121.97748363636364,88.49262500018631L122.14685090909092,88.49262500018631L122.1613090909091,88.49262500018631L122.59712,88.49262500018631L122.65598545454546,88.49262500018631L122.78301090909092,88.49262500018631L122.9647709090909,88.49262500018631L123.06804363636364,88.49262500018631L123.51934545454546,88.49262500018631L124.27736727272726,88.49262500018631L124.90939636363638,88.49262500018631L125.05087999999999,88.49262500018631L125.72834909090909,88.49262500018631L125.7293818181818,88.49262500018631L125.78927999999999,88.49262500018631L125.99582545454545,88.49262500018631L126.32733090909092,88.49262500018631L126.70840727272727,88.49262500018631L126.74248727272727,88.49262500018631L126.94283636363637,88.49262500018631L127.11633454545454,88.49262500018631L127.17313454545454,88.49262500018631L127.27227636363637,88.49262500018631L127.74423272727272,88.49262500018631L127.87745454545454,88.49262500018631L128.26472727272727,88.49262500018631L128.4888290909091,88.49262500018631L129.26234181818182,88.49262500018631L129.3026181818182,88.49262500018631L129.5081309090909,88.49262500018631L129.94187636363637,88.49262500018631L130.21761454545455,88.49262500018631L130.3745890909091,88.49262500018631L130.6214109090909,88.49262500018631L130.9436218181818,88.49262500018631L131.11608727272727,88.49262500018631L131.77393454545455,88.49262500018631L132.19735272727274,88.49262500018631L132.20974545454547,88.49262500018631L132.4648290909091,88.49262500018631L132.58152727272727,88.49262500018631L132.74779636363635,88.49262500018631L133.40254545454545,88.49262500018631L133.44178909090908,88.49262500018631L133.51614545454547,88.49262500018631L133.55642181818183,88.49262500018631L133.7567709090909,88.49262500018631L133.78878545454546,88.49262500018631L133.90032,88.49262500018631L134.39602909090908,88.49262500018631L134.59224727272726,88.49262500018631L134.71204363636363,88.49262500018631L134.96919272727274,88.49262500018631L135.44528,88.49262500018631L135.7106909090909,88.49262500018631L135.74063999999998,88.49262500018631L135.80363636363637,88.49262500018631L136.11758545454546,88.49262500018631L136.29108363636365,88.49262500018631L136.8167418181818,88.49262500018631L138.06944,88.49262500018631L138.07047272727272,88.49262500018631L138.2140218181818,88.49262500018631L138.24500363636363,88.49262500018631L138.28734545454546,88.49262500018631L138.73348363636364,88.49262500018631L139.11559272727274,88.49262500018631L139.54624,88.49262500018631L139.55863272727274,88.49262500018631L139.66706909090908,88.49262500018631L140.00683636363635,88.49262500018631L140.56554181818183,88.49262500018631L140.59032727272728,88.49262500018631L140.62440727272727,88.49262500018631L141.17278545454545,88.49262500018631L141.75421090909092,88.49262500018631L141.81410909090908,88.49262500018631L142.04647272727271,88.49262500018631L142.30155636363637,88.49262500018631L143.74427636363635,88.49262500018631L144.00039272727273,88.49262500018631L144.05512727272725,88.49262500018631L144.16769454545454,88.49262500018631L144.49506909090908,88.49262500018631L144.62725818181818,88.49262500018631L144.72536727272728,88.49262500018631L144.8782109090909,88.49262500018631L144.91125818181817,88.49262500018631L144.97425454545456,88.49262500018631L145.21591272727272,88.49262500018631L145.41419636363634,88.49262500018631L145.52159999999998,88.49262500018631L145.98013090909092,88.49262500018631L146.28375272727274,88.49262500018631L146.46138181818182,88.49262500018631L146.55226181818182,88.49262500018631L146.56465454545454,88.49262500018631L146.57291636363638,88.49262500018631L146.65140363636365,88.49262500018631L146.6958109090909,88.49262500018631L147.08824727272727,88.49262500018631L147.23902545454547,88.49262500018631L147.89170909090907,88.49262500018631L148.12200727272727,88.49262500018631L148.7054981818182,88.49262500018631L148.71685818181817,88.49262500018631L148.90068363636362,88.49262500018631L148.9564509090909,88.49262500018631L149.10309818181818,88.49262500018631L149.92927999999998,88.49262500018631L150.17713454545455,88.49262500018631L150.47662545454546,88.49262500018631L150.5922909090909,88.49262500018631L151.15202909090908,88.49262500018631L151.30384,88.49262500018631L151.68491636363638,88.49262500018631L151.69834181818183,88.49262500018631L151.78612363636364,88.49262500018631L152.20231272727273,88.49262500018631L152.31178181818183,88.49262500018631L152.96446545454546,88.49262500018631L153.22987636363638,88.49262500018631L153.57790545454546,88.49262500018631L153.73178181818184,88.49262500018631L154.0570909090909,88.49262500018631L154.06225454545452,88.49262500018631L154.07774545454546,88.49262500018631L154.41854545454547,88.49262500018631L154.45159272727275,88.49262500018631L154.97828363636364,88.49262500018631L154.99790545454547,88.49262500018631L155.10427636363636,88.49262500018631L155.39240727272727,88.49262500018631L155.8860509090909,88.49262500018631L156.3972509090909,88.49262500018631L156.7266909090909,88.49262500018631L156.87643636363637,88.49262500018631L156.92394181818182,88.49262500018631L157.46715636363635,88.49262500018631L157.50846545454544,88.49262500018631L157.53944727272727,88.49262500018631L157.54977454545454,88.49262500018631L157.6282618181818,88.49262500018631L157.66337454545453,88.49262500018631L157.78523636363636,88.49262500018631L158.26752,88.49262500018631L158.51434181818183,88.49262500018631L158.75496727272727,88.49262500018631L159.40661818181817,88.49262500018631L159.44379636363635,88.49262500018631L159.5439709090909,88.49262500018631L159.76084363636363,88.49262500018631L159.76187636363636,88.49262500018631L160.0706618181818,88.49262500018631L160.33400727272726,88.49262500018631L160.4796218181818,88.49262500018631L160.7832436363636,88.49262500018631L160.94434909090907,88.49262500018631L161.18084363636365,88.49262500018631L161.40907636363636,88.49262500018631L161.5392,88.49262500018631L161.85728,88.49262500018631L161.9182109090909,88.49262500018631L162.04110545454546,88.49262500018631L162.16916363636366,88.49262500018631L163.29999999999998,88.49262500018631L163.39088,88.49262500018631L163.47349818181817,88.49262500018631L164.01154909090909,88.49262500018631L164.40811636363637,88.49262500018631L165.10004363636364,88.49262500018631L165.22913454545454,88.49262500018631L165.94997818181818,88.49262500018631L166.05221818181818,88.49262500018631L166.1926690909091,88.49262500018631L166.3186618181818,88.49262500018631L166.37856000000002,88.49262500018631L166.4498181818182,88.49262500018631L166.4539490909091,88.49262500018631L166.55825454545453,88.49262500018631L166.64706909090907,88.49262500018631L167.24398545454545,88.49262500018631L167.49287272727273,88.49262500018631L167.70251636363633,88.49262500018631L167.75518545454545,88.49262500018631L167.82644363636362,88.49262500018631L168.37482181818183,88.49262500018631L168.39444363636363,88.49262500018631L168.60305454545454,88.49262500018631L168.7114909090909,88.49262500018631L168.8963490909091,88.49262500018631L168.91080727272728,88.49262500018631L168.94798545454546,88.49262500018631L168.99032727272726,88.49262500018631L169.08740363636363,88.49262500018631L169.1380072727273,88.49262500018631L169.32389818181818,88.49262500018631L169.41374545454545,88.49262500018631L169.43233454545455,88.49262500018631L169.57175272727272,88.49262500018631L170.4258181818182,88.49262500018631L170.6767709090909,88.49262500018631L171.49262545454545,88.49262500018631L171.56181818181818,88.49262500018631L171.62481454545454,88.49262500018631L172.48920727272727,88.49262500018631L172.63688727272728,88.49262500018631L173.17906909090908,88.49262500018631L173.58699636363636,88.49262500018631L173.72744727272726,88.49262500018631L173.7429381818182,88.49262500018631L174.33572363636364,88.49262500018631L174.42144000000002,88.49262500018631L174.68994909090907,88.49262500018631L174.86964363636363,88.49262500018631L174.94503272727272,88.49262500018631L175.09581090909091,88.49262500018631L175.11543272727272,88.49262500018631L175.18359272727272,88.49262500018631L175.34986181818184,88.49262500018631L175.44384,88.49262500018631L175.4934109090909,88.49262500018631L175.69272727272727,88.49262500018631L175.88481454545453,88.49262500018631L176.00667636363636,88.49262500018631L176.12440727272727,88.49262500018631L176.96401454545455,88.49262500018631L177.0982690909091,88.49262500018631L177.26247272727272,88.49262500018631L177.53614545454548,88.49262500018631L177.65387636363636,88.49262500018631L177.91928727272727,88.49262500018631L178.35613090909092,88.49262500018631L178.40776727272728,88.49262500018631L178.58539636363636,88.49262500018631L178.62360727272727,88.49262500018631L178.8786909090909,88.49262500018631L179.3444509090909,88.49262500018631L179.37336727272728,88.49262500018631L179.55616,88.49262500018631L180.1613381818182,88.49262500018631L180.18509090909092,88.49262500018631L180.3596218181818,88.49262500018631L180.36065454545454,88.49262500018631L180.42571636363635,88.49262500018631L180.81505454545456,88.49262500018631L180.88837818181818,88.49262500018631L181.02779636363636,88.49262500018631L181.37789090909092,88.49262500018631L181.5513890909091,88.49262500018631L182.2329890909091,88.49262500018631L182.92078545454547,88.49262500018631L183.12423272727273,88.49262500018631L183.16554181818182,88.49262500018631L183.78930909090911,88.49262500018631L183.92769454545453,88.49262500018631L184.1373381818182,88.49262500018631L184.34078545454545,88.49262500018631L184.65163636363636,88.49262500018631L184.6753890909091,88.49262500018631L184.87367272727275,88.49262500018631L185.24235636363636,88.49262500018631L185.32187636363636,88.49262500018631L185.53048727272727,88.49262500018631L185.6182690909091,88.49262500018631L185.73290181818183,88.49262500018631L185.78557090909092,88.49262500018631L186.04168727272727,88.49262500018631L186.4475490909091,88.49262500018631L186.5952290909091,88.49262500018631L186.8110690909091,88.49262500018631L186.97630545454544,88.49262500018631L187.15290181818182,88.49262500018631L187.31504,88.49262500018631L187.77563636363638,88.49262500018631L188.01419636363636,88.49262500018631L188.34363636363636,88.49262500018631L188.43658181818182,88.49262500018631L188.66894545454548,88.49262500018631L188.98599272727273,88.49262500018631L189.7264581818182,88.49262500018631L190.1478109090909,88.49262500018631L190.18808727272727,88.49262500018631L190.19841454545454,88.49262500018631L190.77880727272725,88.49262500018631L190.9698618181818,88.49262500018631L191.54405818181817,88.49262500018631L191.6690181818182,88.49262500018631L191.75266909090908,88.49262500018631L191.8776290909091,88.49262500018631L192.1471709090909,88.49262500018631L192.34235636363636,88.49262500018631L193.0332509090909,88.49262500018631L193.27387636363636,88.49262500018631L193.7520290909091,88.49262500018631L193.81399272727273,88.49262500018631L193.92036363636362,88.49262500018631L194.02880000000002,88.49262500018631L194.20746181818183,88.49262500018631L194.75480727272728,88.49262500018631L194.96341818181816,88.49262500018631L194.9789090909091,88.49262500018631L195.27323636363636,88.49262500018631L195.79166545454547,88.49262500018631L196.4113018181818,88.49262500018631L196.50631272727273,88.49262500018631L196.63643636363636,88.49262500018631L196.93489454545457,88.49262500018631L197.41924363636363,88.49262500018631L197.42544,88.49262500018631L197.46055272727273,88.49262500018631L197.59480727272728,88.49262500018631L197.97175272727273,88.49262500018631L198.2929309090909,88.49262500018631L198.4715927272727,88.49262500018631L198.76695272727272,88.49262500018631L199.12737454545453,88.49262500018631L199.15835636363636,88.49262500018631L199.42583272727273,88.49262500018631L199.88539636363637,88.49262500018631L199.88952727272726,88.49262500018631L199.94632727272727,88.49262500018631L200.11053090909093,88.49262500018631L200.24891636363637,88.49262500018631L200.31294545454546,88.49262500018631L200.49160727272726,88.49262500018631L200.95736727272728,88.49262500018631L201.3859490909091,88.49262500018631L201.72984727272728,88.49262500018631L201.78561454545456,88.49262500018631L201.84241454545455,88.49262500018631L201.84757818181816,88.49262500018631L202.13157818181818,88.49262500018631L202.18011636363636,88.49262500018631L202.18218181818182,88.49262500018631L202.40215272727275,88.49262500018631L202.5178181818182,88.49262500018631L202.73675636363635,88.49262500018631L202.8513890909091,88.49262500018631L203.0868509090909,88.49262500018631L203.70235636363637,88.49262500018631L204.0256,88.49262500018631L204.60082909090912,88.49262500018631L205.00359272727272,88.49262500018631L205.23802181818183,88.49262500018631L205.25144727272726,88.49262500018631L205.46832,88.49262500018631L205.55300363636363,88.49262500018631L205.70894545454544,88.49262500018631L205.7378618181818,88.49262500018631L205.95370181818183,88.49262500018631L206.0662690909091,88.49262500018631L206.12410181818183,88.49262500018631L206.1757381818182,88.49262500018631L206.65079272727274,88.49262500018631L206.72721454545456,88.49262500018631L207.0050181818182,88.49262500018631L207.05252363636365,88.49262500018631L207.13617454545454,88.49262500018631L207.4521890909091,88.49262500018631L208.33517090909092,88.49262500018631L208.35685818181818,88.49262500018631L208.3640872727273,88.49262500018631L208.38783999999998,88.49262500018631L208.42914909090908,88.49262500018631L208.84430545454546,88.49262500018631L209.06014545454545,88.49262500018631L209.47840000000002,88.49262500018631L209.58580363636366,88.49262500018631L211.4168290909091,88.49262500018631L212.5714181818182,88.49262500018631L212.75008,88.49262500018631L212.98347636363636,88.49262500018631L213.02065454545453,88.49262500018631L213.74149818181817,88.49262500018631L213.9015709090909,88.49262500018631L214.24856727272729,88.49262500018631L214.58420363636364,88.49262500018631L214.59969454545453,88.49262500018631L214.70606545454547,88.49262500018631L214.82276363636362,88.49262500018631L214.93223272727272,88.49262500018631L215.83793454545454,88.49262500018631L216.07546181818182,88.49262500018631L216.12709818181818,88.49262500018631L216.36359272727273,88.49262500018631L216.4906181818182,88.49262500018631L217.30337454545455,88.49262500018631L217.59873454545453,88.49262500018631L217.81457454545455,88.49262500018631L218.27000727272727,88.49262500018631L218.2741381818182,88.49262500018631L218.69135999999997,88.49262500018631L218.72027636363634,88.49262500018631L219.1075490909091,88.49262500018631L219.11064727272728,88.49262500018631L219.5061818181818,88.49262500018631L219.67451636363637,88.49262500018631L219.73131636363635,88.49262500018631L220.39432727272728,88.49262500018631L220.90346181818182,88.49262500018631L221.3000290909091,88.49262500018631L221.43944727272728,88.49262500018631L221.8762909090909,88.49262500018631L221.99918545454543,88.49262500018631L222.2584,88.49262500018631L222.52277818181818,88.49262500018631L222.79335272727272,88.49262500018631L223.72177454545454,88.49262500018631L223.81575272727272,88.49262500018631L224.36516363636363,88.49262500018631L224.52936727272728,88.49262500018631L224.92283636363638,88.49262500018631L225.06638545454544,88.49262500018631L225.2078690909091,88.49262500018631L225.76657454545455,88.49262500018631L226.20858181818184,88.49262500018631L226.7373381818182,88.49262500018631L227.3146327272727,88.49262500018631L227.52324363636365,88.49262500018631L227.59966545454546,88.49262500018631L228.06439272727275,88.49262500018631L228.15527272727275,88.49262500018631L228.16869818181817,88.49262500018631L228.4909090909091,88.49262500018631L228.68299636363636,88.49262500018631L228.7181090909091,88.49262500018631L229.17664,88.49262500018631L229.2417018181818,88.49262500018631L229.7601309090909,88.49262500018631L229.77149090909091,88.49262500018631L229.98113454545452,88.49262500018631L230.1009309090909,88.49262500018631L230.39009454545456,88.49262500018631L230.7370909090909,88.49262500018631L230.80628363636362,88.49262500018631L231.06549818181816,88.49262500018631L231.37738181818182,88.49262500018631L231.5353890909091,88.49262500018631L232.42353454545454,88.49262500018631L232.98430545454545,88.49262500018631L233.06382545454548,88.49262500018631L233.77744,88.49262500018631L234.00257454545454,88.49262500018631L234.03872,88.49262500018631L234.54475636363634,88.49262500018631L234.60878545454548,88.49262500018631L234.66558545454546,88.49262500018631L235.28832,88.49262500018631L235.9317090909091,88.49262500018631L236.004,88.49262500018631L236.03394909090912,88.49262500018631L236.69592727272726,88.49262500018631L236.73103999999998,88.49262500018631L237.00884363636365,88.49262500018631L237.47976727272726,88.49262500018631L237.5871709090909,88.49262500018631L237.73691636363637,88.49262500018631L237.9083490909091,88.49262500018631L238.27290181818182,88.49262500018631L238.29665454545454,88.49262500018631L238.45156363636363,88.49262500018631L238.85432727272726,88.49262500018631L239.35933090909091,88.49262500018631L239.60925090909092,88.49262500018631L239.71665454545456,88.49262500018631L239.89428363636364,88.49262500018631L239.96760727272726,88.49262500018631L240.27226181818182,88.49262500018631L240.3848290909091,88.49262500018631L240.85575272727272,88.49262500018631L240.97554909090908,88.49262500018631L241.42272,88.49262500018631L241.48778181818182,88.49262500018631L241.88228363636364,88.49262500018631L242.12290909090908,88.49262500018631L242.2220509090909,88.49262500018631L243.06372363636365,88.49262500018631L243.1990109090909,88.49262500018631L243.76391272727273,88.49262500018631L243.93224727272727,88.49262500018631L244.17700363636362,88.49262500018631L244.30816000000002,88.49262500018631L244.84621090909093,88.49262500018631L245.02590545454544,88.49262500018631L245.11471999999998,88.49262500018631L245.14363636363635,88.49262500018631L245.4854690909091,88.49262500018631L246.56260363636363,88.49262500018631L246.6638109090909,88.49262500018631L246.67620363636362,88.49262500018631L246.7774109090909,88.49262500018631L246.92199272727274,88.49262500018631L247.10168727272728,88.49262500018631L247.7646981818182,88.49262500018631L247.8566109090909,88.49262500018631L248.1065309090909,88.49262500018631L248.1622981818182,88.49262500018631L248.33682909090908,88.49262500018631L248.33889454545454,88.49262500018631L248.5495709090909,88.49262500018631L248.784,88.49262500018631L248.97505454545455,88.49262500018631L248.97815272727271,88.49262500018631L249.07626181818182,88.49262500018631L249.3530327272727,88.49262500018631L249.40466909090907,88.49262500018631L249.43874909090908,88.49262500018631L249.70519272727273,88.49262500018631L249.86423272727274,88.49262500018631L249.99745454545456,88.49262500018631L250.01397818181817,88.49262500018631L250.21226181818182,88.49262500018631L250.37336727272728,88.49262500018631L250.6893818181818,88.49262500018631L250.8215709090909,88.49262500018631L251.02192,88.49262500018631L251.31521454545455,88.49262500018631L251.4949090909091,88.49262500018631L252.11454545454544,88.49262500018631L252.5658472727273,88.49262500018631L252.6835781818182,88.49262500018631L252.70216727272725,88.49262500018631L252.95312,88.49262500018631L253.42507636363638,88.49262500018631L254.02199272727273,88.49262500018631L254.0240581818182,88.49262500018631L254.03748363636365,88.49262500018631L254.18929454545454,88.49262500018631L254.37208727272727,88.49262500018631L254.50427636363636,88.49262500018631L254.56107636363635,88.49262500018631L254.7283781818182,88.49262500018631L254.79343999999998,88.49262500018631L255.04232727272728,88.49262500018631L255.2292509090909,88.49262500018631L255.5163490909091,88.49262500018631L255.66299636363638,88.49262500018631L255.82410181818182,88.49262500018631L255.9211781818182,88.49262500018631L256.36112,88.49262500018631L256.8279127272727,88.49262500018631L257.23790545454546,88.49262500018631L257.39694545454546,88.49262500018631L257.5704436363637,88.49262500018631L257.7160581818182,88.49262500018631L258.08784,88.49262500018631L258.13121454545455,88.49262500018631L258.1818181818182,88.49262500018631" style="fill: none;" fill="none"></path></g></g></g></g></g></g><g transform="translate(46, 177)" clip-path="url(#clip_1)"><clipPath id="clip_1"><rect width="284" height="23"></rect></clipPath><g><g><line x1="0" y1="0" x2="0" y2="5" style="visibility: inherit;" fill="rgb(0, 0, 0)" stroke="rgb(204, 204, 204)" stroke-width="1px"></line><line x1="25.81818181818182" y1="0" x2="25.81818181818182" y2="5" style="visibility: inherit;" fill="rgb(0, 0, 0)" stroke="rgb(204, 204, 204)" stroke-width="1px"></line><line x1="51.63636363636364" y1="0" x2="51.63636363636364" y2="5" style="visibility: inherit;" fill="rgb(0, 0, 0)" stroke="rgb(204, 204, 204)" stroke-width="1px"></line><line x1="77.45454545454545" y1="0" x2="77.45454545454545" y2="5" style="visibility: inherit;" fill="rgb(0, 0, 0)" stroke="rgb(204, 204, 204)" stroke-width="1px"></line><line x1="103.27272727272728" y1="0" x2="103.27272727272728" y2="5" style="visibility: inherit;" fill="rgb(0, 0, 0)" stroke="rgb(204, 204, 204)" stroke-width="1px"></line><line x1="129.0909090909091" y1="0" x2="129.0909090909091" y2="5" style="visibility: inherit;" fill="rgb(0, 0, 0)" stroke="rgb(204, 204, 204)" stroke-width="1px"></line><line x1="154.9090909090909" y1="0" x2="154.9090909090909" y2="5" style="visibility: inherit;" fill="rgb(0, 0, 0)" stroke="rgb(204, 204, 204)" stroke-width="1px"></line><line x1="180.72727272727272" y1="0" x2="180.72727272727272" y2="5" style="visibility: inherit;" fill="rgb(0, 0, 0)" stroke="rgb(204, 204, 204)" stroke-width="1px"></line><line x1="206.54545454545456" y1="0" x2="206.54545454545456" y2="5" style="visibility: inherit;" fill="rgb(0, 0, 0)" stroke="rgb(204, 204, 204)" stroke-width="1px"></line><line x1="232.36363636363637" y1="0" x2="232.36363636363637" y2="5" style="visibility: inherit;" fill="rgb(0, 0, 0)" stroke="rgb(204, 204, 204)" stroke-width="1px"></line><line x1="258.1818181818182" y1="0" x2="258.1818181818182" y2="5" style="visibility: inherit;" fill="rgb(0, 0, 0)" stroke="rgb(204, 204, 204)" stroke-width="1px"></line><line x1="284" y1="0" x2="284" y2="5" style="visibility: inherit;" fill="rgb(0, 0, 0)" stroke="rgb(204, 204, 204)" stroke-width="1px"></line></g><g transform="translate(0, 8)"><text x="0" y="0" dx="0em" dy="0.95em" style="text-anchor: middle; visibility: hidden; font-family: &quot;Helvetica Neue&quot;, sans-serif; font-size: 12px; font-weight: 200;" fill="rgb(50, 49, 63)" stroke="none" stroke-width="1px">0</text><text x="25.81818181818182" y="0" dx="0em" dy="0.95em" style="text-anchor: middle; visibility: inherit; font-family: &quot;Helvetica Neue&quot;, sans-serif; font-size: 12px; font-weight: 200;" fill="rgb(50, 49, 63)" stroke="none" stroke-width="1px">100k</text><text x="51.63636363636364" y="0" dx="0em" dy="0.95em" style="text-anchor: middle; visibility: hidden; font-family: &quot;Helvetica Neue&quot;, sans-serif; font-size: 12px; font-weight: 200;" fill="rgb(50, 49, 63)" stroke="none" stroke-width="1px">200k</text><text x="77.45454545454545" y="0" dx="0em" dy="0.95em" style="text-anchor: middle; visibility: inherit; font-family: &quot;Helvetica Neue&quot;, sans-serif; font-size: 12px; font-weight: 200;" fill="rgb(50, 49, 63)" stroke="none" stroke-width="1px">300k</text><text x="103.27272727272728" y="0" dx="0em" dy="0.95em" style="text-anchor: middle; visibility: hidden; font-family: &quot;Helvetica Neue&quot;, sans-serif; font-size: 12px; font-weight: 200;" fill="rgb(50, 49, 63)" stroke="none" stroke-width="1px">400k</text><text x="129.0909090909091" y="0" dx="0em" dy="0.95em" style="text-anchor: middle; visibility: inherit; font-family: &quot;Helvetica Neue&quot;, sans-serif; font-size: 12px; font-weight: 200;" fill="rgb(50, 49, 63)" stroke="none" stroke-width="1px">500k</text><text x="154.9090909090909" y="0" dx="0em" dy="0.95em" style="text-anchor: middle; visibility: hidden; font-family: &quot;Helvetica Neue&quot;, sans-serif; font-size: 12px; font-weight: 200;" fill="rgb(50, 49, 63)" stroke="none" stroke-width="1px">600k</text><text x="180.72727272727272" y="0" dx="0em" dy="0.95em" style="text-anchor: middle; visibility: inherit; font-family: &quot;Helvetica Neue&quot;, sans-serif; font-size: 12px; font-weight: 200;" fill="rgb(50, 49, 63)" stroke="none" stroke-width="1px">700k</text><text x="206.54545454545456" y="0" dx="0em" dy="0.95em" style="text-anchor: middle; visibility: hidden; font-family: &quot;Helvetica Neue&quot;, sans-serif; font-size: 12px; font-weight: 200;" fill="rgb(50, 49, 63)" stroke="none" stroke-width="1px">800k</text><text x="232.36363636363637" y="0" dx="0em" dy="0.95em" style="text-anchor: middle; visibility: inherit; font-family: &quot;Helvetica Neue&quot;, sans-serif; font-size: 12px; font-weight: 200;" fill="rgb(50, 49, 63)" stroke="none" stroke-width="1px">900k</text><text x="258.1818181818182" y="0" dx="0em" dy="0.95em" style="text-anchor: middle; visibility: hidden; font-family: &quot;Helvetica Neue&quot;, sans-serif; font-size: 12px; font-weight: 200;" fill="rgb(50, 49, 63)" stroke="none" stroke-width="1px">1M</text><text x="284" y="0" dx="0em" dy="0.95em" style="text-anchor: middle; visibility: hidden; font-family: &quot;Helvetica Neue&quot;, sans-serif; font-size: 12px; font-weight: 200;" fill="rgb(50, 49, 63)" stroke="none" stroke-width="1px">1.1M</text></g><line x1="0" y1="0" x2="284" y2="0" fill="rgb(0, 0, 0)" stroke="rgb(204, 204, 204)" stroke-width="1px"></line></g></g></g></g></svg>