<svg viewBox="0 0 330 200" xmlns="http://www.w3.org/2000/svg"><g><g><g><g><g><line x1="37" y1="177" x2="32" y2="177" style="visibility: inherit;" fill="rgb(0, 0, 0)" stroke="rgb(204, 204, 204)" stroke-width="1px"></line><line x1="37" y1="157.33333333333334" x2="32" y2="157.33333333333334" style="visibility: inherit;" fill="rgb(0, 0, 0)" stroke="rgb(204, 204, 204)" stroke-width="1px"></line><line x1="37" y1="137.66666666666669" x2="32" y2="137.66666666666669" style="visibility: inherit;" fill="rgb(0, 0, 0)" stroke="rgb(204, 204, 204)" stroke-width="1px"></line><line x1="37" y1="118" x2="32" y2="118" style="visibility: inherit;" fill="rgb(0, 0, 0)" stroke="rgb(204, 204, 204)" stroke-width="1px"></line><line x1="37" y1="98.33333333333334" x2="32" y2="98.33333333333334" style="visibility: inherit;" fill="rgb(0, 0, 0)" stroke="rgb(204, 204, 204)" stroke-width="1px"></line><line x1="37" y1="78.66666666666666" x2="32" y2="78.66666666666666" style="visibility: inherit;" fill="rgb(0, 0, 0)" stroke="rgb(204, 204, 204)" stroke-width="1px"></line><line x1="37" y1="59" x2="32" y2="59" style="visibility: inherit;" fill="rgb(0, 0, 0)" stroke="rgb(204, 204, 204)" stroke-width="1px"></line><line x1="37" y1="39.33333333333334" x2="32" y2="39.33333333333334" style="visibility: inherit;" fill="rgb(0, 0, 0)" stroke="rgb(204, 204, 204)" stroke-width="1px"></line><line x1="37" y1="19.666666666666686" x2="32" y2="19.666666666666686" style="visibility: inherit;" fill="rgb(0, 0, 0)" stroke="rgb(204, 204, 204)" stroke-width="1px"></line><line x1="37" y1="0" x2="32" y2="0" style="visibility: inherit;" fill="rgb(0, 0, 0)" stroke="rgb(204, 204, 204)" stroke-width="1px"></line></g><g transform="translate(27, 0)"><text x="0" y="177" dx="0em" dy="0.3em" style="text-anchor: end; visibility: hidden; font-family: &quot;Helvetica Neue&quot;, sans-serif; font-size: 12px; font-weight: 200;" fill="rgb(50, 49, 63)" stroke="none" stroke-width="1px">-10</text><text x="0" y="157.33333333333334" dx="0em" dy="0.3em" style="text-anchor: end; visibility: inherit; font-family: &quot;Helvetica Neue&quot;, sans-serif; font-size: 12px; font-weight: 200;" fill="rgb(50, 49, 63)" stroke="none" stroke-width="1px">0</text><text x="0" y="137.66666666666669" dx="0em" dy="0.3em" style="text-anchor: end; visibility: hidden; font-family: &quot;Helvetica Neue&quot;, sans-serif; font-size: 12px; font-weight: 200;" fill="rgb(50, 49, 63)" stroke="none" stroke-width="1px">10</text><text x="0" y="118" dx="0em" dy="0.3em" style="text-anchor: end; visibility: inherit; font-family: &quot;Helvetica Neue&quot;, sans-serif; font-size: 12px; font-weight: 200;" fill="rgb(50, 49, 63)" stroke="none" stroke-width="1px">20</text><text x="0" y="98.33333333333334" dx="0em" dy="0.3em" style="text-anchor: end; visibility: hidden; font-family: &quot;Helvetica Neue&quot;, sans-serif; font-size: 12px; font-weight: 200;" fill="rgb(50, 49, 63)" stroke="none" stroke-width="1px">30</text><text x="0" y="78.66666666666666" dx="0em" dy="0.3em" style="text-anchor: end; visibility: inherit; font-family: &quot;Helvetica Neue&quot;, sans-serif; font-size: 12px; font-weight: 200;" fill="rgb(50, 49, 63)" stroke="none" stroke-width="1px">40</text><text x="0" y="59" dx="0em" dy="0.3em" style="text-anchor: end; visibility: hidden; font-family: &quot;Helvetica Neue&quot;, sans-serif; font-size: 12px; font-weight: 200;" fill="rgb(50, 49, 63)" stroke="none" stroke-width="1px">50</text><text x="0" y="39.33333333333334" dx="0em" dy="0.3em" style="text-anchor: end; visibility: inherit; font-family: &quot;Helvetica Neue&quot;, sans-serif; font-size: 12px; font-weight: 200;" fill="rgb(50, 49, 63)" stroke="none" stroke-width="1px">60</text><text x="0" y="19.666666666666686" dx="0em" dy="0.3em" style="text-anchor: end; visibility: hidden; font-family: &quot;Helvetica Neue&quot;, sans-serif; font-size: 12px; font-weight: 200;" fill="rgb(50, 49, 63)" stroke="none" stroke-width="1px">70</text><text x="0" y="0" dx="0em" dy="0.3em" style="text-anchor: end; visibility: hidden; font-family: &quot;Helvetica Neue&quot;, sans-serif; font-size: 12px; font-weight: 200;" fill="rgb(50, 49, 63)" stroke="none" stroke-width="1px">80</text></g><line x1="37" y1="0" x2="37" y2="177" fill="rgb(0, 0, 0)" stroke="rgb(204, 204, 204)" stroke-width="1px"></line></g></g><g transform="translate(37, 0)" clip-path="url(#clip_0)"><clipPath id="clip_0"><rect width="293" height="177"></rect></clipPath><g><g><g><line x1="0" y1="0" x2="0" y2="177" fill="rgb(0, 0, 0)" stroke="rgb(60, 60, 60)" stroke-width="1px" opacity="0.25"></line><line x1="29.3" y1="0" x2="29.3" y2="177" fill="rgb(0, 0, 0)" stroke="rgb(60, 60, 60)" stroke-width="1px" opacity="0.25"></line><line x1="58.6" y1="0" x2="58.6" y2="177" fill="rgb(0, 0, 0)" stroke="rgb(60, 60, 60)" stroke-width="1px" opacity="0.25"></line><line x1="87.89999999999999" y1="0" x2="87.89999999999999" y2="177" fill="rgb(0, 0, 0)" stroke="rgb(60, 60, 60)" stroke-width="1px" opacity="0.25"></line><line x1="117.2" y1="0" x2="117.2" y2="177" fill="rgb(0, 0, 0)" stroke="rgb(60, 60, 60)" stroke-width="1px" opacity="0.25"></line><line x1="146.5" y1="0" x2="146.5" y2="177" fill="rgb(0, 0, 0)" stroke="rgb(60, 60, 60)" stroke-width="1px" opacity="0.25"></line><line x1="175.79999999999998" y1="0" x2="175.79999999999998" y2="177" fill="rgb(0, 0, 0)" stroke="rgb(60, 60, 60)" stroke-width="1px" opacity="0.25"></line><line x1="205.1" y1="0" x2="205.1" y2="177" fill="rgb(0, 0, 0)" stroke="rgb(60, 60, 60)" stroke-width="1px" opacity="0.25"></line><line x1="234.4" y1="0" x2="234.4" y2="177" fill="rgb(0, 0, 0)" stroke="rgb(60, 60, 60)" stroke-width="1px" opacity="0.25"></line><line x1="263.7" y1="0" x2="263.7" y2="177" fill="rgb(0, 0, 0)" stroke="rgb(60, 60, 60)" stroke-width="1px" opacity="0.25"></line><line x1="293" y1="0" x2="293" y2="177" fill="rgb(0, 0, 0)" stroke="rgb(60, 60, 60)" stroke-width="1px" opacity="0.25"></line></g><g><line x1="0" y1="177" x2="293" y2="177" fill="rgb(0, 0, 0)" stroke="rgb(60, 60, 60)" stroke-width="1px" opacity="0.25"></line><line x1="0" y1="157.33333333333334" x2="293" y2="157.33333333333334" fill="rgb(0, 0, 0)" stroke="rgb(60, 60, 60)" stroke-width="1px" opacity="0.25"></line><line x1="0" y1="137.66666666666669" x2="293" y2="137.66666666666669" fill="rgb(0, 0, 0)" stroke="rgb(60, 60, 60)" stroke-width="1px" opacity="0.25"></line><line x1="0" y1="118" x2="293" y2="118" fill="rgb(0, 0, 0)" stroke="rgb(60, 60, 60)" stroke-width="1px" opacity="0.25"></line><line x1="0" y1="98.33333333333334" x2="293" y2="98.33333333333334" fill="rgb(0, 0, 0)" stroke="rgb(60, 60, 60)" stroke-width="1px" opacity="0.25"></line><line x1="0" y1="78.66666666666666" x2="293" y2="78.66666666666666" fill="rgb(0, 0, 0)" stroke="rgb(60, 60, 60)" stroke-width="1px" opacity="0.25"></line><line x1="0" y1="59" x2="293" y2="59" fill="rgb(0, 0, 0)" stroke="rgb(60, 60, 60)" stroke-width="1px" opacity="0.25"></line><line x1="0" y1="39.33333333333334" x2="293" y2="39.33333333333334" fill="rgb(0, 0, 0)" stroke="rgb(60, 60, 60)" stroke-width="1px" opacity="0.25"></line><line x1="0" y1="19.666666666666686" x2="293" y2="19.666666666666686" fill="rgb(0, 0, 0)" stroke="rgb(60, 60, 60)" stroke-width="1px" opacity="0.25"></line><line x1="0" y1="0" x2="293" y2="0" fill="rgb(0, 0, 0)" stroke="rgb(60, 60, 60)" stroke-width="1px" opacity="0.25"></line></g></g></g><g><g><line x1="0" y1="157.33333333333334" x2="293" y2="157.33333333333334" fill="rgb(0, 0, 0)" stroke="rgb(153, 153, 153)" stroke-width="1.5px"></line></g></g><g><g><line x1="-117.2" y1="0" x2="-117.2" y2="177" fill="rgb(0, 0, 0)" stroke="rgb(153, 153, 153)" stroke-width="1.5px"></line></g></g><g><g><g><g><g><path stroke="rgb(0, 119, 187)" stroke-width="2px" d="M29.81568,157.3326044354413L31.280679999999997,157.33210117498206L32.00732,117.39056806497365L34.87872,134.1512590405058L35.60536,143.16152546798702L36.19136,120.43676506649808L36.906279999999995,133.70542471534174L41.207519999999995,142.038953903864L44.946200000000005,147.36561837348165L45.555640000000004,109.33812470308776L46.15336,99.62066845579812L49.681079999999994,119.37778569686003L51.32188,132.34112222427123L56.36148,90.12131671168962L57.322520000000004,113.01837309905001L58.459360000000004,128.1050158556935L60.79164,138.05115264818912L67.36656,144.61071605814544L68.05803999999999,148.93801840584223L79.91868,151.79305603284004L80.89144,153.67704704220756L81.96968,154.92031745039708L82.16892,155.74080049231736L87.58356,156.28148378902486L89.49392,156.63912220724725L91.96684,156.87515437597054L96.397,157.03093537132227L98.55348,157.133751534068L99.52624,157.20160515525507L101.98744,157.24639264284525L107.83572,157.27594799530087L107.97636,157.29545899345123L109.65232,99.72336044681364L110.96496,119.31074120138942L113.18004,132.2384286803071L116.7898,140.77069820746766L120.716,146.4019111709099L121.1262,150.1185951519901L123.85696,152.57160439331497L125.19304,154.190591831464L125.67356000000001,155.25912375049674L128.92,155.96435497272682L133.3736,21.9787082389432L134.04164,67.99928123132499L137.85064,98.37285894044514L140.2884,118.4172699789868L141.29632,108.99645950045726L142.984,125.43099649195366L151.19972,136.27779054709907L152.13732000000002,143.433109517337L152.64128,148.15918480920425L157.13003999999998,151.27839512738916L157.84496,153.3370734361801L158.47784000000001,154.69576391247844L164.47848,155.59253732821878L164.87696,156.17803339929617L169.60012,156.57078916528752L169.65872,156.83005200716065L171.88552,157.00116744978905L173.36223999999999,157.1141015501883L180.24188,157.18863733742927L182.08192,157.23782672343754L182.39836,157.27029821208745L196.84912,157.29172991399795L201.23239999999998,157.30587382253347L202.53332,157.3151985679853L203.635,157.32136383740405L210.667,157.32543266087922L214.07752,157.32811790147738L218.20296000000002,157.3275228916684L226.88748,157.32949835979184L229.33696,157.33080198365226L229.70028,157.33166239006601L232.27868,157.33222608875067L234.92739999999998,157.31240183455026L258.22676,157.31951471185224L259.50424,157.32420958451814L260.57076,157.32730843596565L263.66484,157.3293566592116L264.3446,157.33070522439468L264.45008,6.9853127198286415L266.58312,58.10363922449703L267.509,91.84173383790329L270.04052,114.10887744351493L270.49760000000003,128.8048536310463L272.85332,-70.97696786815791L272.88848,6.648532299706744L273.74404,57.881363886069366L276.38104,91.69503132734683L277.13112,114.01205263749526L279.18212,128.741286705272L285.382,138.4625800753188L290.03484,144.8786360660374L291.03104,149.1132318075379L291.3592,151.90806628091033L300.5008,153.75265705177455" style="fill: none;" fill="none"></path></g></g></g></g><g opacity="0.2"><g><g><g><path stroke="rgb(0, 119, 187)" stroke-width="2px" d="M29.81568,157.3326044354413L31.280679999999997,157.33176902307895L32.00732,73.63062438964843L34.87872,157.3329036860004L35.60536,157.33326319028177L36.19136,81.84838078816732L36.906279999999995,157.33333254333067L41.207519999999995,157.3333314752891L44.946200000000005,157.33333227529116L45.555640000000004,37.274164072672534L46.15336,81.05321108500164L49.681079999999994,157.33285383279582L51.32188,157.33333294440857L56.36148,8.534755961100245L57.322520000000004,157.33333068629372L58.459360000000004,157.33333208897258L60.79164,157.3333315780585L67.36656,157.33309221976668L68.05803999999999,157.33333268616906L79.91868,157.3331224615465L80.89144,157.33330651609305L81.96968,157.33333292343002L82.16892,157.33333221980686L87.58356,157.33097126305415L89.49392,157.33332908828933L91.96684,157.3333203547021L96.397,157.33332762623434L98.55348,157.33333317197327L99.52624,157.33331984169192L101.98744,157.33333255177746L107.83572,157.33331992874844L107.97636,157.3333331875497L109.65232,-12.034054819742835L110.96496,157.33326167382342L113.18004,157.33333306474728L116.7898,157.33333105288403L120.716,157.3330857910473L121.1262,157.3333331264148L123.85696,157.33332755335667L125.19304,157.3333318644909L125.67356000000001,157.3333326443054L128.92,157.33333317298047L133.3736,-238.11106974283848L134.04164,157.33333313328504L137.85064,157.33333264011983L140.2884,157.32700875899755L141.29632,90.70900395711263L142.984,157.3333328995684L151.19972,157.33333190239935L152.13732000000002,157.32284632194788L152.64128,157.3333309553005L157.13003999999998,157.33333280007392L157.84496,157.33333132806376L158.47784000000001,157.33322189516159L164.47848,157.33333278198955L164.87696,157.3145845959584L169.60012,157.33319741685796L169.65872,157.33332693547658L171.88552,157.33333272076223L173.36223999999999,157.33332656860546L180.24188,157.333324453836L182.08192,157.33331200215855L182.39836,157.33333110181923L196.84912,157.33333262947116L201.23239999999998,157.3333296449847L202.53332,157.3332995444506L203.635,157.3333317133345L210.667,157.33333096527215L214.07752,157.33333042734444L218.20296000000002,157.32636787262746L226.88748,157.33333309203147L229.33696,157.3333325476166L229.70028,157.33333259075152L232.27868,157.33332032737385L234.92739999999998,157.2739194587494L258.22676,157.33332206190903L259.50424,157.33332316086964L260.57076,157.33332385348137L263.66484,157.3333326219832L264.3446,157.33332302739709L264.45008,-284.8616256713867L266.58312,157.33333185120597L267.509,157.33332926392717L270.04052,157.33333267793742L270.49760000000003,157.3323368186073L272.85332,-458.78873901367194L272.88848,157.33332674320854L273.74404,157.33333108312624L276.38104,157.33332694865015L277.13112,157.33332929837164L279.18212,157.3333293074268L285.382,157.33332602893915L290.03484,157.33333298919698L291.03104,157.33332942339183L291.3592,157.33333319980977L300.5008,157.33333325404038" style="fill: none;" fill="none"></path></g></g></g></g></g></g><g transform="translate(37, 177)" clip-path="url(#clip_1)"><clipPath id="clip_1"><rect width="293" height="23"></rect></clipPath><g><g><line x1="0" y1="0" x2="0" y2="5" style="visibility: inherit;" fill="rgb(0, 0, 0)" stroke="rgb(204, 204, 204)" stroke-width="1px"></line><line x1="29.3" y1="0" x2="29.3" y2="5" style="visibility: inherit;" fill="rgb(0, 0, 0)" stroke="rgb(204, 204, 204)" stroke-width="1px"></line><line x1="58.6" y1="0" x2="58.6" y2="5" style="visibility: inherit;" fill="rgb(0, 0, 0)" stroke="rgb(204, 204, 204)" stroke-width="1px"></line><line x1="87.89999999999999" y1="0" x2="87.89999999999999" y2="5" style="visibility: inherit;" fill="rgb(0, 0, 0)" stroke="rgb(204, 204, 204)" stroke-width="1px"></line><line x1="117.2" y1="0" x2="117.2" y2="5" style="visibility: inherit;" fill="rgb(0, 0, 0)" stroke="rgb(204, 204, 204)" stroke-width="1px"></line><line x1="146.5" y1="0" x2="146.5" y2="5" style="visibility: inherit;" fill="rgb(0, 0, 0)" stroke="rgb(204, 204, 204)" stroke-width="1px"></line><line x1="175.79999999999998" y1="0" x2="175.79999999999998" y2="5" style="visibility: inherit;" fill="rgb(0, 0, 0)" stroke="rgb(204, 204, 204)" stroke-width="1px"></line><line x1="205.1" y1="0" x2="205.1" y2="5" style="visibility: inherit;" fill="rgb(0, 0, 0)" stroke="rgb(204, 204, 204)" stroke-width="1px"></line><line x1="234.4" y1="0" x2="234.4" y2="5" style="visibility: inherit;" fill="rgb(0, 0, 0)" stroke="rgb(204, 204, 204)" stroke-width="1px"></line><line x1="263.7" y1="0" x2="263.7" y2="5" style="visibility: inherit;" fill="rgb(0, 0, 0)" stroke="rgb(204, 204, 204)" stroke-width="1px"></line><line x1="293" y1="0" x2="293" y2="5" style="visibility: inherit;" fill="rgb(0, 0, 0)" stroke="rgb(204, 204, 204)" stroke-width="1px"></line></g><g transform="translate(0, 8)"><text x="0" y="0" dx="0em" dy="0.95em" style="text-anchor: middle; visibility: hidden; font-family: &quot;Helvetica Neue&quot;, sans-serif; font-size: 12px; font-weight: 200;" fill="rgb(50, 49, 63)" stroke="none" stroke-width="1px">40k</text><text x="29.3" y="0" dx="0em" dy="0.95em" style="text-anchor: middle; visibility: inherit; font-family: &quot;Helvetica Neue&quot;, sans-serif; font-size: 12px; font-weight: 200;" fill="rgb(50, 49, 63)" stroke="none" stroke-width="1px">50k</text><text x="58.6" y="0" dx="0em" dy="0.95em" style="text-anchor: middle; visibility: hidden; font-family: &quot;Helvetica Neue&quot;, sans-serif; font-size: 12px; font-weight: 200;" fill="rgb(50, 49, 63)" stroke="none" stroke-width="1px">60k</text><text x="87.89999999999999" y="0" dx="0em" dy="0.95em" style="text-anchor: middle; visibility: inherit; font-family: &quot;Helvetica Neue&quot;, sans-serif; font-size: 12px; font-weight: 200;" fill="rgb(50, 49, 63)" stroke="none" stroke-width="1px">70k</text><text x="117.2" y="0" dx="0em" dy="0.95em" style="text-anchor: middle; visibility: hidden; font-family: &quot;Helvetica Neue&quot;, sans-serif; font-size: 12px; font-weight: 200;" fill="rgb(50, 49, 63)" stroke="none" stroke-width="1px">80k</text><text x="146.5" y="0" dx="0em" dy="0.95em" style="text-anchor: middle; visibility: inherit; font-family: &quot;Helvetica Neue&quot;, sans-serif; font-size: 12px; font-weight: 200;" fill="rgb(50, 49, 63)" stroke="none" stroke-width="1px">90k</text><text x="175.79999999999998" y="0" dx="0em" dy="0.95em" style="text-anchor: middle; visibility: hidden; font-family: &quot;Helvetica Neue&quot;, sans-serif; font-size: 12px; font-weight: 200;" fill="rgb(50, 49, 63)" stroke="none" stroke-width="1px">100k</text><text x="205.1" y="0" dx="0em" dy="0.95em" style="text-anchor: middle; visibility: inherit; font-family: &quot;Helvetica Neue&quot;, sans-serif; font-size: 12px; font-weight: 200;" fill="rgb(50, 49, 63)" stroke="none" stroke-width="1px">110k</text><text x="234.4" y="0" dx="0em" dy="0.95em" style="text-anchor: middle; visibility: hidden; font-family: &quot;Helvetica Neue&quot;, sans-serif; font-size: 12px; font-weight: 200;" fill="rgb(50, 49, 63)" stroke="none" stroke-width="1px">120k</text><text x="263.7" y="0" dx="0em" dy="0.95em" style="text-anchor: middle; visibility: inherit; font-family: &quot;Helvetica Neue&quot;, sans-serif; font-size: 12px; font-weight: 200;" fill="rgb(50, 49, 63)" stroke="none" stroke-width="1px">130k</text><text x="293" y="0" dx="0em" dy="0.95em" style="text-anchor: middle; visibility: hidden; font-family: &quot;Helvetica Neue&quot;, sans-serif; font-size: 12px; font-weight: 200;" fill="rgb(50, 49, 63)" stroke="none" stroke-width="1px">140k</text></g><line x1="0" y1="0" x2="293" y2="0" fill="rgb(0, 0, 0)" stroke="rgb(204, 204, 204)" stroke-width="1px"></line></g></g></g></g></svg>